<svg baseProfile="full" height="400" version="1.1" width="1000" xmlns="http://www.w3.org/2000/svg" xmlns:ev="http://www.w3.org/2001/xml-events" xmlns:xlink="http://www.w3.org/1999/xlink"><defs><style type="text/css"><![CDATA[.background path {fill: #808080; fill-opacity: 0}.background path:nth-child(odd) {fill-opacity: .1}.x-regions rect {fill: yellow; stroke: black; opacity: 0.5}.axes {font-size: 14px}.x-axis .tick .lab {font-weight: bold; dominant-baseline: hanging}.axes, .tree {font-size: 14px; text-anchor: middle}.axes line, .edge {stroke: black; fill: none}.axes .ax-skip {stroke-dasharray: 4}.y-axis .grid {stroke: #FAFAFA}.node > .sym {fill: black; stroke: none}.site > .sym {stroke: black}.mut text {fill: red; font-style: italic}.mut.extra text {fill: hotpink}.mut line {fill: none; stroke: none}.mut .sym {fill: none; stroke: red}.mut.extra .sym {stroke: hotpink}.node .mut .sym {stroke-width: 1.5px}.tree text, .tree-sequence text {dominant-baseline: central}.plotbox .lab.lft {text-anchor: end}.plotbox .lab.rgt {text-anchor: start}.polytomy line {stroke: black; stroke-dasharray: 1px, 1px}.polytomy text {paint-order:stroke;stroke-width:0.3em;stroke:white}]]></style></defs><g class="tree-sequence"><g class="background"><path d="M20,0 l960,0 l0,338.2 l0,25 l0,5 l-960,0 l0,-5 l0,-25 l0,-338.2z"/></g><g class="axes"><g class="x-axis"><g class="title" transform="translate(500 400)"><text class="lab" text-anchor="middle" transform="translate(0 -11)">Genome position</text></g><line class="ax-line" x1="20" x2="980" y1="363.2" y2="363.2"/><g class="ticks"><g class="tick" transform="translate(20 363.2)"><line x1="0" x2="0" y1="0" y2="5"/><g transform="translate(0 6)"><text class="lab">0</text></g></g><g class="tick" transform="translate(980 363.2)"><line x1="0" x2="0" y1="0" y2="5"/><g transform="translate(0 6)"><text class="lab">1000</text></g></g></g><g class="site s0" transform="translate(147.68 363.2)"><line class="sym" x1="0" x2="0" y1="0" y2="-10"/><g class="mut m0"><polyline class="sym" points="2.5,-6.5 0,-1.5 -2.5,-6.5"/></g></g><g class="site s1" transform="translate(159.2 363.2)"><line class="sym" x1="0" x2="0" y1="0" y2="-10"/><g class="mut m1"><polyline class="sym" points="2.5,-6.5 0,-1.5 -2.5,-6.5"/></g></g><g class="site s2" transform="translate(345.44 363.2)"><line class="sym" x1="0" x2="0" y1="0" y2="-10"/><g class="mut m2"><polyline class="sym" points="2.5,-6.5 0,-1.5 -2.5,-6.5"/></g></g></g></g><g class="plotbox trees"><g class="tree t0" transform="translate(20 0)"><g class="plotbox"><g class="c2 node n38 p2 root" transform="translate(584.533 26.8)"><g class="a38 c2 node n36 p2" transform="translate(-263.467 221.798)"><g class="a36 c2 node n33 p2" transform="translate(-180.316 41.0302)"><g class="a33 i5 leaf m2 node n5 p1 s2 sample" transform="translate(40.25 31.7719)"><path class="edge" d="M 0 0 V -31.7719 H -40.25"/><g class="mut m2 s2" transform="translate(0 -20.7961)"><line x1="0" x2="0" y1="0" y2="20.7961"/><path class="sym" d="M -3,-3 l 6,6 M -3,3 l 6,-6"/><text class="lab rgt" transform="translate(5 0)">2</text></g><rect class="sym" height="6" width="6" x="-3" y="-3"/><text class="lab" transform="translate(0 11)">5</text></g><g class="a33 c2 node n31 p1" transform="translate(-40.25 9.94873)"><g class="a31 i10 leaf node n10 p2 sample" transform="translate(34.5 21.8231)"><path class="edge" d="M 0 0 V -21.8231 H -34.5"/><rect class="sym" height="6" width="6" x="-3" y="-3"/><text class="lab" transform="translate(0 11)">10</text></g><g class="a31 c2 node n23 p2" transform="translate(-34.5 18.0358)"><g class="a23 i0 leaf node n0 p1 sample" transform="translate(-23 3.78731)"><path class="edge" d="M 0 0 V -3.78731 H 23"/><rect class="sym" height="6" width="6" x="-3" y="-3"/><text class="lab" transform="translate(0 11)">0</text></g><g class="a23 i16 leaf node n16 p2 sample" transform="translate(23 3.78731)"><path class="edge" d="M 0 0 V -3.78731 H -23"/><rect class="sym" height="6" width="6" x="-3" y="-3"/><text class="lab" transform="translate(0 11)">16</text></g><path class="edge" d="M 0 0 V -18.0358 H 34.5"/><circle class="sym" cx="0" cy="0" r="3"/><text class="lab lft" transform="translate(-3 -7)">23</text></g><path class="edge" d="M 0 0 V -9.94873 H 40.25"/><circle class="sym" cx="0" cy="0" r="3"/><text class="lab lft" transform="translate(-3 -7)">31</text></g><path class="edge" d="M 0 0 V -41.0302 H 180.316"/><circle class="sym" cx="0" cy="0" r="3"/><text class="lab lft" transform="translate(-3 -7)">33</text></g><g class="a36 c2 node n35 p2" transform="translate(180.316 8.79848)"><g class="a35 c2 node n32 p1" transform="translate(176.633 42.0169)"><g class="a32 i8 leaf node n8 p1 sample" transform="translate(54.9844 21.9867)"><path class="edge" d="M 0 0 V -21.9867 H -54.9844"/><rect class="sym" height="6" width="6" x="-3" y="-3"/><text class="lab" transform="translate(0 11)">8</text></g><g class="a32 c2 node n29 p2" transform="translate(-54.9844 5.27992)"><g class="a29 i6 leaf node n6 p1 sample" transform="translate(63.9688 16.7068)"><path class="edge" d="M 0 0 V -16.7068 H -63.9688"/><rect class="sym" height="6" width="6" x="-3" y="-3"/><text class="lab" transform="translate(0 11)">6</text></g><g class="a29 c2 node n28 p1" transform="translate(-63.9688 2.70392)"><g class="a28 i7 leaf node n7 p1 sample" transform="translate(81.9375 14.0029)"><path class="edge" d="M 0 0 V -14.0029 H -81.9375"/><rect class="sym" height="6" width="6" x="-3" y="-3"/><text class="lab" transform="translate(0 11)">7</text></g><g class="a28 c2 node n26 p1" transform="translate(-81.9375 7.14341)"><g class="a26 i2 leaf node n2 p1 sample" transform="translate(-66.125 6.85946)"><path class="edge" d="M 0 0 V -6.85946 H 66.125"/><rect class="sym" height="6" width="6" x="-3" y="-3"/><text class="lab" transform="translate(0 11)">2</text></g><g class="a26 c2 node n25 p1" transform="translate(66.125 0.269702)"><g class="a25 i14 leaf node n14 p2 sample" transform="translate(51.75 6.58976)"><path class="edge" d="M 0 0 V -6.58976 H -51.75"/><rect class="sym" height="6" width="6" x="-3" y="-3"/><text class="lab" transform="translate(0 11)">14</text></g><g class="a25 c2 node n22 p1" transform="translate(-51.75 3.23869)"><g class="a22 i4 leaf node n4 p1 sample" transform="translate(-34.5 3.35106)"><path class="edge" d="M 0 0 V -3.35106 H 34.5"/><rect class="sym" height="6" width="6" x="-3" y="-3"/><text class="lab" transform="translate(0 11)">4</text></g><g class="a22 c2 node n21 p1" transform="translate(34.5 1.42125)"><g class="a21 i9 leaf node n9 p1 sample" transform="translate(-23 1.92981)"><path class="edge" d="M 0 0 V -1.92981 H 23"/><rect class="sym" height="6" width="6" x="-3" y="-3"/><text class="lab" transform="translate(0 11)">9</text></g><g class="a21 i15 leaf node n15 p2 sample" transform="translate(23 1.92981)"><path class="edge" d="M 0 0 V -1.92981 H -23"/><rect class="sym" height="6" width="6" x="-3" y="-3"/><text class="lab" transform="translate(0 11)">15</text></g><path class="edge" d="M 0 0 V -1.42125 H -34.5"/><circle class="sym" cx="0" cy="0" r="3"/><text class="lab rgt" transform="translate(3 -7)">21</text></g><path class="edge" d="M 0 0 V -3.23869 H 51.75"/><circle class="sym" cx="0" cy="0" r="3"/><text class="lab lft" transform="translate(-3 -7)">22</text></g><path class="edge" d="M 0 0 V -0.269702 H -66.125"/><circle class="sym" cx="0" cy="0" r="3"/><text class="lab rgt" transform="translate(3 -7)">25</text></g><path class="edge" d="M 0 0 V -7.14341 H 81.9375"/><circle class="sym" cx="0" cy="0" r="3"/><text class="lab lft" transform="translate(-3 -7)">26</text></g><path class="edge" d="M 0 0 V -2.70392 H 63.9688"/><circle class="sym" cx="0" cy="0" r="3"/><text class="lab lft" transform="translate(-3 -7)">28</text></g><path class="edge" d="M 0 0 V -5.27992 H 54.9844"/><circle class="sym" cx="0" cy="0" r="3"/><text class="lab lft" transform="translate(-3 -7)">29</text></g><path class="edge" d="M 0 0 V -42.0169 H -176.633"/><circle class="sym" cx="0" cy="0" r="3"/><text class="lab rgt" transform="translate(3 -7)">32</text></g><g class="a35 c2 node n34 p1" transform="translate(-176.633 18.202)"><g class="a34 i19 leaf m1 node n19 p2 s1 sample" transform="translate(40.25 45.8016)"><path class="edge" d="M 0 0 V -45.8016 H -40.25"/><g class="mut m1 s1" transform="translate(0 -37.324)"><line x1="0" x2="0" y1="0" y2="37.324"/><path class="sym" d="M -3,-3 l 6,6 M -3,3 l 6,-6"/><text class="lab rgt" transform="translate(5 0)">1</text></g><rect class="sym" height="6" width="6" x="-3" y="-3"/><text class="lab" transform="translate(0 11)">19</text></g><g class="a34 c2 node n27 p1" transform="translate(-40.25 38.0539)"><g class="a27 i18 leaf node n18 p2 sample" transform="translate(34.5 7.74774)"><path class="edge" d="M 0 0 V -7.74774 H -34.5"/><rect class="sym" height="6" width="6" x="-3" y="-3"/><text class="lab" transform="translate(0 11)">18</text></g><g class="a27 c2 node n20 p1" transform="translate(-34.5 6.9956)"><g class="a20 i1 leaf node n1 p1 sample" transform="translate(-23 0.752144)"><path class="edge" d="M 0 0 V -0.752144 H 23"/><rect class="sym" height="6" width="6" x="-3" y="-3"/><text class="lab" transform="translate(0 11)">1</text></g><g class="a20 i12 leaf node n12 p2 sample" transform="translate(23 0.752144)"><path class="edge" d="M 0 0 V -0.752144 H -23"/><rect class="sym" height="6" width="6" x="-3" y="-3"/><text class="lab" transform="translate(0 11)">12</text></g><path class="edge" d="M 0 0 V -6.9956 H 34.5"/><circle class="sym" cx="0" cy="0" r="3"/><text class="lab lft" transform="translate(-3 -7)">20</text></g><path class="edge" d="M 0 0 V -38.0539 H 40.25"/><circle class="sym" cx="0" cy="0" r="3"/><text class="lab lft" transform="translate(-3 -7)">27</text></g><path class="edge" d="M 0 0 V -18.202 H 176.633"/><circle class="sym" cx="0" cy="0" r="3"/><text class="lab lft" transform="translate(-3 -7)">34</text></g><path class="edge" d="M 0 0 V -8.79848 H -180.316"/><circle class="sym" cx="0" cy="0" r="3"/><text class="lab rgt" transform="translate(3 -7)">35</text></g><path class="edge" d="M 0 0 V -221.798 H 263.467"/><circle class="sym" cx="0" cy="0" r="3"/><text class="lab lft" transform="translate(-3 -7)">36</text></g><g class="a38 c2 m0 node n37 p1 s0" transform="translate(263.467 216.295)"><g class="a37 c2 node n24 p2" transform="translate(46 72.8503)"><g class="a24 i11 leaf node n11 p2 sample" transform="translate(-23 5.45435)"><path class="edge" d="M 0 0 V -5.45435 H 23"/><rect class="sym" height="6" width="6" x="-3" y="-3"/><text class="lab" transform="translate(0 11)">11</text></g><g class="a24 i17 leaf node n17 p2 sample" transform="translate(23 5.45435)"><path class="edge" d="M 0 0 V -5.45435 H -23"/><rect class="sym" height="6" width="6" x="-3" y="-3"/><text class="lab" transform="translate(0 11)">17</text></g><path class="edge" d="M 0 0 V -72.8503 H -46"/><circle class="sym" cx="0" cy="0" r="3"/><text class="lab rgt" transform="translate(3 -7)">24</text></g><g class="a37 c2 node n30 p1" transform="translate(-46 57.4665)"><g class="a30 i3 leaf node n3 p1 sample" transform="translate(-23 20.8382)"><path class="edge" d="M 0 0 V -20.8382 H 23"/><rect class="sym" height="6" width="6" x="-3" y="-3"/><text class="lab" transform="translate(0 11)">3</text></g><g class="a30 i13 leaf node n13 p2 sample" transform="translate(23 20.8382)"><path class="edge" d="M 0 0 V -20.8382 H -23"/><rect class="sym" height="6" width="6" x="-3" y="-3"/><text class="lab" transform="translate(0 11)">13</text></g><path class="edge" d="M 0 0 V -57.4665 H 46"/><circle class="sym" cx="0" cy="0" r="3"/><text class="lab lft" transform="translate(-3 -7)">30</text></g><path class="edge" d="M 0 0 V -216.295 H -263.467"/><g class="mut m0 s0" transform="translate(0 -47.4233)"><line x1="0" x2="0" y1="0" y2="47.4233"/><path class="sym" d="M -3,-3 l 6,6 M -3,3 l 6,-6"/><text class="lab rgt" transform="translate(5 0)">0</text></g><circle class="sym" cx="0" cy="0" r="3"/><text class="lab rgt" transform="translate(3 -7)">37</text></g><circle class="sym" cx="0" cy="0" r="3"/><text class="lab" transform="translate(0 -11)">38</text></g></g></g></g></g></svg>