<svg baseProfile="full" height="400" version="1.1" width="1000" xmlns="http://www.w3.org/2000/svg" xmlns:ev="http://www.w3.org/2001/xml-events" xmlns:xlink="http://www.w3.org/1999/xlink"><defs><style type="text/css"><![CDATA[.background path {fill: #808080; fill-opacity: 0}.background path:nth-child(odd) {fill-opacity: .1}.x-regions rect {fill: yellow; stroke: black; opacity: 0.5}.axes {font-size: 14px}.x-axis .tick .lab {font-weight: bold; dominant-baseline: hanging}.axes, .tree {font-size: 14px; text-anchor: middle}.axes line, .edge {stroke: black; fill: none}.axes .ax-skip {stroke-dasharray: 4}.y-axis .grid {stroke: #FAFAFA}.node > .sym {fill: black; stroke: none}.site > .sym {stroke: black}.mut text {fill: red; font-style: italic}.mut.extra text {fill: hotpink}.mut line {fill: none; stroke: none}.mut .sym {fill: none; stroke: red}.mut.extra .sym {stroke: hotpink}.node .mut .sym {stroke-width: 1.5px}.tree text, .tree-sequence text {dominant-baseline: central}.plotbox .lab.lft {text-anchor: end}.plotbox .lab.rgt {text-anchor: start}.polytomy line {stroke: black; stroke-dasharray: 1px, 1px}.polytomy text {paint-order:stroke;stroke-width:0.3em;stroke:white}]]></style></defs><g class="tree-sequence"><g class="background"><path d="M20,0 l960,0 l0,338.2 l0,25 l0,5 l-960,0 l0,-5 l0,-25 l0,-338.2z"/></g><g class="axes"><g class="x-axis"><g class="title" transform="translate(500 400)"><text class="lab" text-anchor="middle" transform="translate(0 -11)">Genome position</text></g><line class="ax-line" x1="20" x2="980" y1="363.2" y2="363.2"/><g class="ticks"><g class="tick" transform="translate(20 363.2)"><line x1="0" x2="0" y1="0" y2="5"/><g transform="translate(0 6)"><text class="lab">0</text></g></g><g class="tick" transform="translate(980 363.2)"><line x1="0" x2="0" y1="0" y2="5"/><g transform="translate(0 6)"><text class="lab">1000</text></g></g></g><g class="site s0" transform="translate(91.04 363.2)"><line class="sym" x1="0" x2="0" y1="0" y2="-10"/><g class="mut m0"><polyline class="sym" points="2.5,-6.5 0,-1.5 -2.5,-6.5"/></g></g><g class="site s1" transform="translate(176.48 363.2)"><line class="sym" x1="0" x2="0" y1="0" y2="-10"/><g class="mut m1"><polyline class="sym" points="2.5,-6.5 0,-1.5 -2.5,-6.5"/></g></g><g class="site s2" transform="translate(565.28 363.2)"><line class="sym" x1="0" x2="0" y1="0" y2="-10"/><g class="mut m2"><polyline class="sym" points="2.5,-6.5 0,-1.5 -2.5,-6.5"/></g></g><g class="site s3" transform="translate(630.56 363.2)"><line class="sym" x1="0" x2="0" y1="0" y2="-10"/><g class="mut m3"><polyline class="sym" points="2.5,-6.5 0,-1.5 -2.5,-6.5"/></g></g><g class="site s4" transform="translate(703.52 363.2)"><line class="sym" x1="0" x2="0" y1="0" y2="-10"/><g class="mut m4"><polyline class="sym" points="2.5,-6.5 0,-1.5 -2.5,-6.5"/></g></g><g class="site s5" transform="translate(766.88 363.2)"><line class="sym" x1="0" x2="0" y1="0" y2="-10"/><g class="mut m5"><polyline class="sym" points="2.5,-6.5 0,-1.5 -2.5,-6.5"/></g></g><g class="site s6" transform="translate(862.88 363.2)"><line class="sym" x1="0" x2="0" y1="0" y2="-10"/><g class="mut m6"><polyline class="sym" points="2.5,-6.5 0,-1.5 -2.5,-6.5"/></g></g><g class="site s7" transform="translate(940.64 363.2)"><line class="sym" x1="0" x2="0" y1="0" y2="-10"/><g class="mut m7"><polyline class="sym" points="2.5,-6.5 0,-1.5 -2.5,-6.5"/></g></g></g></g><g class="plotbox trees"><g class="tree t0" transform="translate(20 0)"><g class="plotbox"><g class="c2 node n38 p0 root" transform="translate(749.711 26.8)"><g class="a38 c2 m1 m2 m6 node n23 p1 s1 s2 s6" transform="translate(144.289 293.624)"><g class="a23 i15 leaf node n15 p2 sample" transform="translate(-23 0.975714)"><path class="edge" d="M 0 0 V -0.975714 H 23"/><rect class="sym" height="6" width="6" x="-3" y="-3"/><text class="lab" transform="translate(0 11)">15</text></g><g class="a23 i18 leaf node n18 p2 sample" transform="translate(23 0.975714)"><path class="edge" d="M 0 0 V -0.975714 H -23"/><rect class="sym" height="6" width="6" x="-3" y="-3"/><text class="lab" transform="translate(0 11)">18</text></g><path class="edge" d="M 0 0 V -293.624 H -144.289"/><g class="mut m2 s2" transform="translate(0 -288.067)"><line x1="0" x2="0" y1="0" y2="288.067"/><path class="sym" d="M -3,-3 l 6,6 M -3,3 l 6,-6"/><text class="lab rgt" transform="translate(5 0)">2</text></g><g class="mut m6 s6" transform="translate(0 -235.596)"><line x1="0" x2="0" y1="0" y2="235.596"/><path class="sym" d="M -3,-3 l 6,6 M -3,3 l 6,-6"/><text class="lab rgt" transform="translate(5 0)">6</text></g><g class="mut m1 s1" transform="translate(0 -18.7671)"><line x1="0" x2="0" y1="0" y2="18.7671"/><path class="sym" d="M -3,-3 l 6,6 M -3,3 l 6,-6"/><text class="lab rgt" transform="translate(5 0)">1</text></g><circle class="sym" cx="0" cy="0" r="3"/><text class="lab rgt" transform="translate(3 -7)">23</text></g><g class="a38 c2 m0 m4 m5 m7 node n37 p1 s0 s4 s5 s7" transform="translate(-144.289 248.688)"><g class="a37 c2 node n32 p1" transform="translate(196.578 33.0661)"><g class="a32 i3 leaf node n3 p1 sample" transform="translate(-23 12.8455)"><path class="edge" d="M 0 0 V -12.8455 H 23"/><rect class="sym" height="6" width="6" x="-3" y="-3"/><text class="lab" transform="translate(0 11)">3</text></g><g class="a32 i5 leaf node n5 p1 sample" transform="translate(23 12.8455)"><path class="edge" d="M 0 0 V -12.8455 H -23"/><rect class="sym" height="6" width="6" x="-3" y="-3"/><text class="lab" transform="translate(0 11)">5</text></g><path class="edge" d="M 0 0 V -33.0661 H -196.578"/><circle class="sym" cx="0" cy="0" r="3"/><text class="lab rgt" transform="translate(3 -7)">32</text></g><g class="a37 c2 node n36 p1" transform="translate(-196.578 10.2968)"><g class="a36 c2 node n30 p2" transform="translate(-209.156 29.2211)"><g class="a30 c2 node n26 p2" transform="translate(-122.188 2.57493)"><g class="a26 i0 leaf node n0 p1 sample" transform="translate(-34.5 3.81874)"><path class="edge" d="M 0 0 V -3.81874 H 34.5"/><rect class="sym" height="6" width="6" x="-3" y="-3"/><text class="lab" transform="translate(0 11)">0</text></g><g class="a26 c2 node n25 p1" transform="translate(34.5 2.06575)"><g class="a25 i2 leaf node n2 p1 sample" transform="translate(-23 1.75299)"><path class="edge" d="M 0 0 V -1.75299 H 23"/><rect class="sym" height="6" width="6" x="-3" y="-3"/><text class="lab" transform="translate(0 11)">2</text></g><g class="a25 i17 leaf node n17 p2 sample" transform="translate(23 1.75299)"><path class="edge" d="M 0 0 V -1.75299 H -23"/><rect class="sym" height="6" width="6" x="-3" y="-3"/><text class="lab" transform="translate(0 11)">17</text></g><path class="edge" d="M 0 0 V -2.06575 H -34.5"/><circle class="sym" cx="0" cy="0" r="3"/><text class="lab rgt" transform="translate(3 -7)">25</text></g><path class="edge" d="M 0 0 V -2.57493 H 122.188"/><circle class="sym" cx="0" cy="0" r="3"/><text class="lab lft" transform="translate(-3 -7)">26</text></g><g class="a30 c2 node n28 p1" transform="translate(122.188 1.10234)"><g class="a28 i11 leaf node n11 p2 sample" transform="translate(43.125 5.29133)"><path class="edge" d="M 0 0 V -5.29133 H -43.125"/><rect class="sym" height="6" width="6" x="-3" y="-3"/><text class="lab" transform="translate(0 11)">11</text></g><g class="a28 c2 node n27 p1" transform="translate(-43.125 1.24495)"><g class="a27 i9 leaf node n9 p1 sample" transform="translate(40.25 4.04638)"><path class="edge" d="M 0 0 V -4.04638 H -40.25"/><rect class="sym" height="6" width="6" x="-3" y="-3"/><text class="lab" transform="translate(0 11)">9</text></g><g class="a27 c2 node n24 p1" transform="translate(-40.25 2.36771)"><g class="a24 i12 leaf node n12 p2 sample" transform="translate(34.5 1.67867)"><path class="edge" d="M 0 0 V -1.67867 H -34.5"/><rect class="sym" height="6" width="6" x="-3" y="-3"/><text class="lab" transform="translate(0 11)">12</text></g><g class="a24 c2 node n21 p1" transform="translate(-34.5 1.44985)"><g class="a21 i4 leaf node n4 p1 sample" transform="translate(-23 0.228816)"><path class="edge" d="M 0 0 V -0.228816 H 23"/><rect class="sym" height="6" width="6" x="-3" y="-3"/><text class="lab" transform="translate(0 11)">4</text></g><g class="a21 i14 leaf node n14 p2 sample" transform="translate(23 0.228816)"><path class="edge" d="M 0 0 V -0.228816 H -23"/><rect class="sym" height="6" width="6" x="-3" y="-3"/><text class="lab" transform="translate(0 11)">14</text></g><path class="edge" d="M 0 0 V -1.44985 H 34.5"/><circle class="sym" cx="0" cy="0" r="3"/><text class="lab lft" transform="translate(-3 -7)">21</text></g><path class="edge" d="M 0 0 V -2.36771 H 40.25"/><circle class="sym" cx="0" cy="0" r="3"/><text class="lab lft" transform="translate(-3 -7)">24</text></g><path class="edge" d="M 0 0 V -1.24495 H 43.125"/><circle class="sym" cx="0" cy="0" r="3"/><text class="lab lft" transform="translate(-3 -7)">27</text></g><path class="edge" d="M 0 0 V -1.10234 H -122.188"/><circle class="sym" cx="0" cy="0" r="3"/><text class="lab rgt" transform="translate(3 -7)">28</text></g><path class="edge" d="M 0 0 V -29.2211 H 209.156"/><circle class="sym" cx="0" cy="0" r="3"/><text class="lab lft" transform="translate(-3 -7)">30</text></g><g class="a36 c2 node n35 p1" transform="translate(209.156 1.6139)"><g class="a35 c2 node n33 p2" transform="translate(92 17.2626)"><g class="a33 i16 leaf node n16 p2 sample" transform="translate(-23 16.7382)"><path class="edge" d="M 0 0 V -16.7382 H 23"/><rect class="sym" height="6" width="6" x="-3" y="-3"/><text class="lab" transform="translate(0 11)">16</text></g><g class="a33 i19 leaf node n19 p2 sample" transform="translate(23 16.7382)"><path class="edge" d="M 0 0 V -16.7382 H -23"/><rect class="sym" height="6" width="6" x="-3" y="-3"/><text class="lab" transform="translate(0 11)">19</text></g><path class="edge" d="M 0 0 V -17.2626 H -92"/><circle class="sym" cx="0" cy="0" r="3"/><text class="lab rgt" transform="translate(3 -7)">33</text></g><g class="a35 c2 node n34 p1" transform="translate(-92 17.0844)"><g class="a34 c2 node n22 p1" transform="translate(57.5 15.99)"><g class="a22 i8 leaf node n8 p1 sample" transform="translate(-34.5 0.926566)"><path class="edge" d="M 0 0 V -0.926566 H 34.5"/><rect class="sym" height="6" width="6" x="-3" y="-3"/><text class="lab" transform="translate(0 11)">8</text></g><g class="a22 c2 node n20 p2" transform="translate(34.5 0.872357)"><g class="a20 i10 leaf node n10 p2 sample" transform="translate(-23 0.054209)"><path class="edge" d="M 0 0 V -0.054209 H 23"/><rect class="sym" height="6" width="6" x="-3" y="-3"/><text class="lab" transform="translate(0 11)">10</text></g><g class="a20 i13 leaf node n13 p2 sample" transform="translate(23 0.054209)"><path class="edge" d="M 0 0 V -0.054209 H -23"/><rect class="sym" height="6" width="6" x="-3" y="-3"/><text class="lab" transform="translate(0 11)">13</text></g><path class="edge" d="M 0 0 V -0.872357 H -34.5"/><circle class="sym" cx="0" cy="0" r="3"/><text class="lab rgt" transform="translate(3 -7)">20</text></g><path class="edge" d="M 0 0 V -15.99 H -57.5"/><circle class="sym" cx="0" cy="0" r="3"/><text class="lab rgt" transform="translate(3 -7)">22</text></g><g class="a34 c2 node n31 p1" transform="translate(-57.5 7.92932)"><g class="a31 i7 leaf node n7 p1 sample" transform="translate(34.5 8.98721)"><path class="edge" d="M 0 0 V -8.98721 H -34.5"/><rect class="sym" height="6" width="6" x="-3" y="-3"/><text class="lab" transform="translate(0 11)">7</text></g><g class="a31 c2 node n29 p2" transform="translate(-34.5 2.85798)"><g class="a29 i1 leaf m3 node n1 p1 s3 sample" transform="translate(-23 6.12923)"><path class="edge" d="M 0 0 V -6.12923 H 23"/><g class="mut m3 s3" transform="translate(0 -5.52139)"><line x1="0" x2="0" y1="0" y2="5.52139"/><path class="sym" d="M -3,-3 l 6,6 M -3,3 l 6,-6"/><text class="lab lft" transform="translate(-5 0)">3</text></g><rect class="sym" height="6" width="6" x="-3" y="-3"/><text class="lab" transform="translate(0 11)">1</text></g><g class="a29 i6 leaf node n6 p1 sample" transform="translate(23 6.12923)"><path class="edge" d="M 0 0 V -6.12923 H -23"/><rect class="sym" height="6" width="6" x="-3" y="-3"/><text class="lab" transform="translate(0 11)">6</text></g><path class="edge" d="M 0 0 V -2.85798 H 34.5"/><circle class="sym" cx="0" cy="0" r="3"/><text class="lab lft" transform="translate(-3 -7)">29</text></g><path class="edge" d="M 0 0 V -7.92932 H 57.5"/><circle class="sym" cx="0" cy="0" r="3"/><text class="lab lft" transform="translate(-3 -7)">31</text></g><path class="edge" d="M 0 0 V -17.0844 H 92"/><circle class="sym" cx="0" cy="0" r="3"/><text class="lab lft" transform="translate(-3 -7)">34</text></g><path class="edge" d="M 0 0 V -1.6139 H -209.156"/><circle class="sym" cx="0" cy="0" r="3"/><text class="lab rgt" transform="translate(3 -7)">35</text></g><path class="edge" d="M 0 0 V -10.2968 H 196.578"/><circle class="sym" cx="0" cy="0" r="3"/><text class="lab lft" transform="translate(-3 -7)">36</text></g><path class="edge" d="M 0 0 V -248.688 H 144.289"/><g class="mut m4 s4" transform="translate(0 -221.861)"><line x1="0" x2="0" y1="0" y2="221.861"/><path class="sym" d="M -3,-3 l 6,6 M -3,3 l 6,-6"/><text class="lab lft" transform="translate(-5 0)">4</text></g><g class="mut m7 s7" transform="translate(0 -200.672)"><line x1="0" x2="0" y1="0" y2="200.672"/><path class="sym" d="M -3,-3 l 6,6 M -3,3 l 6,-6"/><text class="lab lft" transform="translate(-5 0)">7</text></g><g class="mut m0 s0" transform="translate(0 -131.836)"><line x1="0" x2="0" y1="0" y2="131.836"/><path class="sym" d="M -3,-3 l 6,6 M -3,3 l 6,-6"/><text class="lab lft" transform="translate(-5 0)">0</text></g><g class="mut m5 s5" transform="translate(0 -111.651)"><line x1="0" x2="0" y1="0" y2="111.651"/><path class="sym" d="M -3,-3 l 6,6 M -3,3 l 6,-6"/><text class="lab lft" transform="translate(-5 0)">5</text></g><circle class="sym" cx="0" cy="0" r="3"/><text class="lab lft" transform="translate(-3 -7)">37</text></g><circle class="sym" cx="0" cy="0" r="3"/><text class="lab" transform="translate(0 -11)">38</text></g></g></g></g></g></svg>