<svg baseProfile="full" height="400" version="1.1" width="1000" xmlns="http://www.w3.org/2000/svg" xmlns:ev="http://www.w3.org/2001/xml-events" xmlns:xlink="http://www.w3.org/1999/xlink"><defs><style type="text/css"><![CDATA[.background path {fill: #808080; fill-opacity: 0}.background path:nth-child(odd) {fill-opacity: .1}.x-regions rect {fill: yellow; stroke: black; opacity: 0.5}.axes {font-size: 14px}.x-axis .tick .lab {font-weight: bold; dominant-baseline: hanging}.axes, .tree {font-size: 14px; text-anchor: middle}.axes line, .edge {stroke: black; fill: none}.axes .ax-skip {stroke-dasharray: 4}.y-axis .grid {stroke: #FAFAFA}.node > .sym {fill: black; stroke: none}.site > .sym {stroke: black}.mut text {fill: red; font-style: italic}.mut.extra text {fill: hotpink}.mut line {fill: none; stroke: none}.mut .sym {fill: none; stroke: red}.mut.extra .sym {stroke: hotpink}.node .mut .sym {stroke-width: 1.5px}.tree text, .tree-sequence text {dominant-baseline: central}.plotbox .lab.lft {text-anchor: end}.plotbox .lab.rgt {text-anchor: start}.polytomy line {stroke: black; stroke-dasharray: 1px, 1px}.polytomy text {paint-order:stroke;stroke-width:0.3em;stroke:white}]]></style></defs><g class="tree-sequence"><g class="background"><path d="M20,0 l960,0 l0,338.2 l0,25 l0,5 l-960,0 l0,-5 l0,-25 l0,-338.2z"/></g><g class="axes"><g class="x-axis"><g class="title" transform="translate(500 400)"><text class="lab" text-anchor="middle" transform="translate(0 -11)">Genome position</text></g><line class="ax-line" x1="20" x2="980" y1="363.2" y2="363.2"/><g class="ticks"><g class="tick" transform="translate(20 363.2)"><line x1="0" x2="0" y1="0" y2="5"/><g transform="translate(0 6)"><text class="lab">0</text></g></g><g class="tick" transform="translate(980 363.2)"><line x1="0" x2="0" y1="0" y2="5"/><g transform="translate(0 6)"><text class="lab">1000</text></g></g></g><g class="site s0" transform="translate(548.96 363.2)"><line class="sym" x1="0" x2="0" y1="0" y2="-10"/><g class="mut m0"><polyline class="sym" points="2.5,-6.5 0,-1.5 -2.5,-6.5"/></g></g><g class="site s1" transform="translate(724.64 363.2)"><line class="sym" x1="0" x2="0" y1="0" y2="-10"/><g class="mut m1"><polyline class="sym" points="2.5,-6.5 0,-1.5 -2.5,-6.5"/></g></g><g class="site s2" transform="translate(869.6 363.2)"><line class="sym" x1="0" x2="0" y1="0" y2="-10"/><g class="mut m2"><polyline class="sym" points="2.5,-6.5 0,-1.5 -2.5,-6.5"/></g></g></g></g><g class="plotbox trees"><g class="tree t0" transform="translate(20 0)"><g class="plotbox"><g class="c2 node n38 p2 root" transform="translate(760.223 26.8)"><g class="a38 c2 node n32 p2" transform="translate(122.277 231.086)"><g class="a32 i15 leaf m2 node n15 p2 s2 sample" transform="translate(34.5 63.5143)"><path class="edge" d="M 0 0 V -63.5143 H -34.5"/><g class="mut m2 s2" transform="translate(0 -6.3398)"><line x1="0" x2="0" y1="0" y2="6.3398"/><path class="sym" d="M -3,-3 l 6,6 M -3,3 l 6,-6"/><text class="lab rgt" transform="translate(5 0)">2</text></g><rect class="sym" height="6" width="6" x="-3" y="-3"/><text class="lab" transform="translate(0 11)">15</text></g><g class="a32 c2 node n31 p2" transform="translate(-34.5 1.73726)"><g class="a31 i7 leaf node n7 p1 sample" transform="translate(-23 61.7771)"><path class="edge" d="M 0 0 V -61.7771 H 23"/><rect class="sym" height="6" width="6" x="-3" y="-3"/><text class="lab" transform="translate(0 11)">7</text></g><g class="a31 i12 leaf m1 node n12 p2 s1 sample" transform="translate(23 61.7771)"><path class="edge" d="M 0 0 V -61.7771 H -23"/><g class="mut m1 s1" transform="translate(0 -14.8808)"><line x1="0" x2="0" y1="0" y2="14.8808"/><path class="sym" d="M -3,-3 l 6,6 M -3,3 l 6,-6"/><text class="lab rgt" transform="translate(5 0)">1</text></g><rect class="sym" height="6" width="6" x="-3" y="-3"/><text class="lab" transform="translate(0 11)">12</text></g><path class="edge" d="M 0 0 V -1.73726 H 34.5"/><circle class="sym" cx="0" cy="0" r="3"/><text class="lab lft" transform="translate(-3 -7)">31</text></g><path class="edge" d="M 0 0 V -231.086 H -122.277"/><circle class="sym" cx="0" cy="0" r="3"/><text class="lab rgt" transform="translate(3 -7)">32</text></g><g class="a38 c2 node n37 p1" transform="translate(-122.277 137.407)"><g class="a37 i2 leaf node n2 p1 sample" transform="translate(141.055 157.193)"><path class="edge" d="M 0 0 V -157.193 H -141.055"/><rect class="sym" height="6" width="6" x="-3" y="-3"/><text class="lab" transform="translate(0 11)">2</text></g><g class="a37 c2 node n36 p2" transform="translate(-141.055 23.2595)"><g class="a36 c2 node n29 p2" transform="translate(135.484 90.2382)"><g class="a29 c2 node n21 p2" transform="translate(77.625 35.8297)"><g class="a21 i8 leaf node n8 p1 sample" transform="translate(-23 7.86562)"><path class="edge" d="M 0 0 V -7.86562 H 23"/><rect class="sym" height="6" width="6" x="-3" y="-3"/><text class="lab" transform="translate(0 11)">8</text></g><g class="a21 i14 leaf node n14 p2 sample" transform="translate(23 7.86562)"><path class="edge" d="M 0 0 V -7.86562 H -23"/><rect class="sym" height="6" width="6" x="-3" y="-3"/><text class="lab" transform="translate(0 11)">14</text></g><path class="edge" d="M 0 0 V -35.8297 H -77.625"/><circle class="sym" cx="0" cy="0" r="3"/><text class="lab rgt" transform="translate(3 -7)">21</text></g><g class="a29 c2 node n28 p2" transform="translate(-77.625 11.3927)"><g class="a28 i1 leaf node n1 p1 sample" transform="translate(-51.75 32.3026)"><path class="edge" d="M 0 0 V -32.3026 H 51.75"/><rect class="sym" height="6" width="6" x="-3" y="-3"/><text class="lab" transform="translate(0 11)">1</text></g><g class="a28 c2 node n26 p1" transform="translate(51.75 2.05044)"><g class="a26 i10 leaf node n10 p2 sample" transform="translate(34.5 30.2522)"><path class="edge" d="M 0 0 V -30.2522 H -34.5"/><rect class="sym" height="6" width="6" x="-3" y="-3"/><text class="lab" transform="translate(0 11)">10</text></g><g class="a26 c2 node n24 p2" transform="translate(-34.5 17.1852)"><g class="a24 i6 leaf node n6 p1 sample" transform="translate(-23 13.067)"><path class="edge" d="M 0 0 V -13.067 H 23"/><rect class="sym" height="6" width="6" x="-3" y="-3"/><text class="lab" transform="translate(0 11)">6</text></g><g class="a24 i17 leaf node n17 p2 sample" transform="translate(23 13.067)"><path class="edge" d="M 0 0 V -13.067 H -23"/><rect class="sym" height="6" width="6" x="-3" y="-3"/><text class="lab" transform="translate(0 11)">17</text></g><path class="edge" d="M 0 0 V -17.1852 H 34.5"/><circle class="sym" cx="0" cy="0" r="3"/><text class="lab lft" transform="translate(-3 -7)">24</text></g><path class="edge" d="M 0 0 V -2.05044 H -51.75"/><circle class="sym" cx="0" cy="0" r="3"/><text class="lab rgt" transform="translate(3 -7)">26</text></g><path class="edge" d="M 0 0 V -11.3927 H 77.625"/><circle class="sym" cx="0" cy="0" r="3"/><text class="lab lft" transform="translate(-3 -7)">28</text></g><path class="edge" d="M 0 0 V -90.2382 H -135.484"/><circle class="sym" cx="0" cy="0" r="3"/><text class="lab rgt" transform="translate(3 -7)">29</text></g><g class="a36 c2 node n35 p2" transform="translate(-135.484 52.8131)"><g class="a35 c2 node n30 p1" transform="translate(72.5938 27.5555)"><g class="a30 i3 leaf node n3 p1 sample" transform="translate(-23 53.5649)"><path class="edge" d="M 0 0 V -53.5649 H 23"/><rect class="sym" height="6" width="6" x="-3" y="-3"/><text class="lab" transform="translate(0 11)">3</text></g><g class="a30 i16 leaf node n16 p2 sample" transform="translate(23 53.5649)"><path class="edge" d="M 0 0 V -53.5649 H -23"/><rect class="sym" height="6" width="6" x="-3" y="-3"/><text class="lab" transform="translate(0 11)">16</text></g><path class="edge" d="M 0 0 V -27.5555 H -72.5938"/><circle class="sym" cx="0" cy="0" r="3"/><text class="lab rgt" transform="translate(3 -7)">30</text></g><g class="a35 c2 node n34 p1" transform="translate(-72.5938 7.33967)"><g class="a34 i5 leaf node n5 p1 sample" transform="translate(76.1875 73.7808)"><path class="edge" d="M 0 0 V -73.7808 H -76.1875"/><rect class="sym" height="6" width="6" x="-3" y="-3"/><text class="lab" transform="translate(0 11)">5</text></g><g class="a34 c2 m0 node n33 p1 s0" transform="translate(-76.1875 5.82912)"><g class="a33 c2 node n25 p2" transform="translate(-71.875 42.4168)"><g class="a25 i18 leaf node n18 p2 sample" transform="translate(40.25 25.5349)"><path class="edge" d="M 0 0 V -25.5349 H -40.25"/><rect class="sym" height="6" width="6" x="-3" y="-3"/><text class="lab" transform="translate(0 11)">18</text></g><g class="a25 c2 node n23 p2" transform="translate(-40.25 16.816)"><g class="a23 i4 leaf node n4 p1 sample" transform="translate(34.5 8.7189)"><path class="edge" d="M 0 0 V -8.7189 H -34.5"/><rect class="sym" height="6" width="6" x="-3" y="-3"/><text class="lab" transform="translate(0 11)">4</text></g><g class="a23 c2 node n22 p2" transform="translate(-34.5 0.220867)"><g class="a22 i0 leaf node n0 p1 sample" transform="translate(-23 8.49803)"><path class="edge" d="M 0 0 V -8.49803 H 23"/><rect class="sym" height="6" width="6" x="-3" y="-3"/><text class="lab" transform="translate(0 11)">0</text></g><g class="a22 i11 leaf node n11 p2 sample" transform="translate(23 8.49803)"><path class="edge" d="M 0 0 V -8.49803 H -23"/><rect class="sym" height="6" width="6" x="-3" y="-3"/><text class="lab" transform="translate(0 11)">11</text></g><path class="edge" d="M 0 0 V -0.220867 H 34.5"/><circle class="sym" cx="0" cy="0" r="3"/><text class="lab lft" transform="translate(-3 -7)">22</text></g><path class="edge" d="M 0 0 V -16.816 H 40.25"/><circle class="sym" cx="0" cy="0" r="3"/><text class="lab lft" transform="translate(-3 -7)">23</text></g><path class="edge" d="M 0 0 V -42.4168 H 71.875"/><circle class="sym" cx="0" cy="0" r="3"/><text class="lab lft" transform="translate(-3 -7)">25</text></g><g class="a33 c2 node n27 p2" transform="translate(71.875 36.3187)"><g class="a27 i13 leaf node n13 p2 sample" transform="translate(34.5 31.633)"><path class="edge" d="M 0 0 V -31.633 H -34.5"/><rect class="sym" height="6" width="6" x="-3" y="-3"/><text class="lab" transform="translate(0 11)">13</text></g><g class="a27 c2 node n20 p1" transform="translate(-34.5 25.8556)"><g class="a20 i9 leaf node n9 p1 sample" transform="translate(-23 5.77745)"><path class="edge" d="M 0 0 V -5.77745 H 23"/><rect class="sym" height="6" width="6" x="-3" y="-3"/><text class="lab" transform="translate(0 11)">9</text></g><g class="a20 i19 leaf node n19 p2 sample" transform="translate(23 5.77745)"><path class="edge" d="M 0 0 V -5.77745 H -23"/><rect class="sym" height="6" width="6" x="-3" y="-3"/><text class="lab" transform="translate(0 11)">19</text></g><path class="edge" d="M 0 0 V -25.8556 H 34.5"/><circle class="sym" cx="0" cy="0" r="3"/><text class="lab lft" transform="translate(-3 -7)">20</text></g><path class="edge" d="M 0 0 V -36.3187 H -71.875"/><circle class="sym" cx="0" cy="0" r="3"/><text class="lab rgt" transform="translate(3 -7)">27</text></g><path class="edge" d="M 0 0 V -5.82912 H 76.1875"/><g class="mut m0 s0" transform="translate(0 -4.52253)"><line x1="0" x2="0" y1="0" y2="4.52253"/><path class="sym" d="M -3,-3 l 6,6 M -3,3 l 6,-6"/><text class="lab lft" transform="translate(-5 0)">0</text></g><circle class="sym" cx="0" cy="0" r="3"/><text class="lab lft" transform="translate(-3 -7)">33</text></g><path class="edge" d="M 0 0 V -7.33967 H 72.5938"/><circle class="sym" cx="0" cy="0" r="3"/><text class="lab lft" transform="translate(-3 -7)">34</text></g><path class="edge" d="M 0 0 V -52.8131 H 135.484"/><circle class="sym" cx="0" cy="0" r="3"/><text class="lab lft" transform="translate(-3 -7)">35</text></g><path class="edge" d="M 0 0 V -23.2595 H 141.055"/><circle class="sym" cx="0" cy="0" r="3"/><text class="lab lft" transform="translate(-3 -7)">36</text></g><path class="edge" d="M 0 0 V -137.407 H 122.277"/><circle class="sym" cx="0" cy="0" r="3"/><text class="lab lft" transform="translate(-3 -7)">37</text></g><circle class="sym" cx="0" cy="0" r="3"/><text class="lab" transform="translate(0 -11)">38</text></g></g></g></g></g></svg>