<svg baseProfile="full" height="400" version="1.1" width="1000" xmlns="http://www.w3.org/2000/svg" xmlns:ev="http://www.w3.org/2001/xml-events" xmlns:xlink="http://www.w3.org/1999/xlink"><defs><style type="text/css"><![CDATA[.background path {fill: #808080; fill-opacity: 0}.background path:nth-child(odd) {fill-opacity: .1}.x-regions rect {fill: yellow; stroke: black; opacity: 0.5}.axes {font-size: 14px}.x-axis .tick .lab {font-weight: bold; dominant-baseline: hanging}.axes, .tree {font-size: 14px; text-anchor: middle}.axes line, .edge {stroke: black; fill: none}.axes .ax-skip {stroke-dasharray: 4}.y-axis .grid {stroke: #FAFAFA}.node > .sym {fill: black; stroke: none}.site > .sym {stroke: black}.mut text {fill: red; font-style: italic}.mut.extra text {fill: hotpink}.mut line {fill: none; stroke: none}.mut .sym {fill: none; stroke: red}.mut.extra .sym {stroke: hotpink}.node .mut .sym {stroke-width: 1.5px}.tree text, .tree-sequence text {dominant-baseline: central}.plotbox .lab.lft {text-anchor: end}.plotbox .lab.rgt {text-anchor: start}.polytomy line {stroke: black; stroke-dasharray: 1px, 1px}.polytomy text {paint-order:stroke;stroke-width:0.3em;stroke:white}]]></style></defs><g class="tree-sequence"><g class="background"><path d="M20,0 l960,0 l0,338.2 l0,25 l0,5 l-960,0 l0,-5 l0,-25 l0,-338.2z"/></g><g class="axes"><g class="x-axis"><g class="title" transform="translate(500 400)"><text class="lab" text-anchor="middle" transform="translate(0 -11)">Genome position</text></g><line class="ax-line" x1="20" x2="980" y1="363.2" y2="363.2"/><g class="ticks"><g class="tick" transform="translate(20 363.2)"><line x1="0" x2="0" y1="0" y2="5"/><g transform="translate(0 6)"><text class="lab">0</text></g></g><g class="tick" transform="translate(980 363.2)"><line x1="0" x2="0" y1="0" y2="5"/><g transform="translate(0 6)"><text class="lab">1000</text></g></g></g><g class="site s0" transform="translate(394.4 363.2)"><line class="sym" x1="0" x2="0" y1="0" y2="-10"/><g class="mut m0"><polyline class="sym" points="2.5,-6.5 0,-1.5 -2.5,-6.5"/></g></g><g class="site s1" transform="translate(507.68 363.2)"><line class="sym" x1="0" x2="0" y1="0" y2="-10"/><g class="mut m1"><polyline class="sym" points="2.5,-6.5 0,-1.5 -2.5,-6.5"/></g></g><g class="site s2" transform="translate(695.84 363.2)"><line class="sym" x1="0" x2="0" y1="0" y2="-10"/><g class="mut m2"><polyline class="sym" points="2.5,-6.5 0,-1.5 -2.5,-6.5"/></g></g></g></g><g class="plotbox trees"><g class="tree t0" transform="translate(20 0)"><g class="plotbox"><g class="c2 node n38 p1 root" transform="translate(556.906 26.8)"><g class="a38 c2 m2 node n35 p2 s2" transform="translate(-258.031 247.741)"><g class="a35 c2 node n33 p1" transform="translate(149.5 22.4851)"><g class="a33 c2 node n29 p1" transform="translate(-77.625 17.9798)"><g class="a29 i4 leaf node n4 p1 sample" transform="translate(-51.75 6.3946)"><path class="edge" d="M 0 0 V -6.3946 H 51.75"/><rect class="sym" height="6" width="6" x="-3" y="-3"/><text class="lab" transform="translate(0 11)">4</text></g><g class="a29 c2 node n27 p2" transform="translate(51.75 0.66655)"><g class="a27 i18 leaf node n18 p2 sample" transform="translate(34.5 5.72805)"><path class="edge" d="M 0 0 V -5.72805 H -34.5"/><rect class="sym" height="6" width="6" x="-3" y="-3"/><text class="lab" transform="translate(0 11)">18</text></g><g class="a27 c2 node n24 p1" transform="translate(-34.5 2.23647)"><g class="a24 i5 leaf node n5 p1 sample" transform="translate(-23 3.49158)"><path class="edge" d="M 0 0 V -3.49158 H 23"/><rect class="sym" height="6" width="6" x="-3" y="-3"/><text class="lab" transform="translate(0 11)">5</text></g><g class="a24 i8 leaf node n8 p1 sample" transform="translate(23 3.49158)"><path class="edge" d="M 0 0 V -3.49158 H -23"/><rect class="sym" height="6" width="6" x="-3" y="-3"/><text class="lab" transform="translate(0 11)">8</text></g><path class="edge" d="M 0 0 V -2.23647 H 34.5"/><circle class="sym" cx="0" cy="0" r="3"/><text class="lab lft" transform="translate(-3 -7)">24</text></g><path class="edge" d="M 0 0 V -0.66655 H -51.75"/><circle class="sym" cx="0" cy="0" r="3"/><text class="lab rgt" transform="translate(3 -7)">27</text></g><path class="edge" d="M 0 0 V -17.9798 H 77.625"/><circle class="sym" cx="0" cy="0" r="3"/><text class="lab lft" transform="translate(-3 -7)">29</text></g><g class="a33 c2 node n31 p1" transform="translate(77.625 10.5638)"><g class="a31 i10 leaf node n10 p2 sample" transform="translate(-23 13.8106)"><path class="edge" d="M 0 0 V -13.8106 H 23"/><rect class="sym" height="6" width="6" x="-3" y="-3"/><text class="lab" transform="translate(0 11)">10</text></g><g class="a31 i15 leaf node n15 p2 sample" transform="translate(23 13.8106)"><path class="edge" d="M 0 0 V -13.8106 H -23"/><rect class="sym" height="6" width="6" x="-3" y="-3"/><text class="lab" transform="translate(0 11)">15</text></g><path class="edge" d="M 0 0 V -10.5638 H -77.625"/><circle class="sym" cx="0" cy="0" r="3"/><text class="lab rgt" transform="translate(3 -7)">31</text></g><path class="edge" d="M 0 0 V -22.4851 H -149.5"/><circle class="sym" cx="0" cy="0" r="3"/><text class="lab rgt" transform="translate(3 -7)">33</text></g><g class="a35 c2 node n34 p1" transform="translate(-149.5 18.9236)"><g class="a34 c2 node n28 p2" transform="translate(83.375 22.1909)"><g class="a28 i6 leaf node n6 p1 sample" transform="translate(40.25 5.74493)"><path class="edge" d="M 0 0 V -5.74493 H -40.25"/><rect class="sym" height="6" width="6" x="-3" y="-3"/><text class="lab" transform="translate(0 11)">6</text></g><g class="a28 c2 node n26 p1" transform="translate(-40.25 0.394158)"><g class="a26 i9 leaf node n9 p1 sample" transform="translate(34.5 5.35077)"><path class="edge" d="M 0 0 V -5.35077 H -34.5"/><rect class="sym" height="6" width="6" x="-3" y="-3"/><text class="lab" transform="translate(0 11)">9</text></g><g class="a26 c2 node n20 p2" transform="translate(-34.5 4.70674)"><g class="a20 i3 leaf node n3 p1 sample" transform="translate(-23 0.644033)"><path class="edge" d="M 0 0 V -0.644033 H 23"/><rect class="sym" height="6" width="6" x="-3" y="-3"/><text class="lab" transform="translate(0 11)">3</text></g><g class="a20 i16 leaf node n16 p2 sample" transform="translate(23 0.644033)"><path class="edge" d="M 0 0 V -0.644033 H -23"/><rect class="sym" height="6" width="6" x="-3" y="-3"/><text class="lab" transform="translate(0 11)">16</text></g><path class="edge" d="M 0 0 V -4.70674 H 34.5"/><circle class="sym" cx="0" cy="0" r="3"/><text class="lab lft" transform="translate(-3 -7)">20</text></g><path class="edge" d="M 0 0 V -0.394158 H 40.25"/><circle class="sym" cx="0" cy="0" r="3"/><text class="lab lft" transform="translate(-3 -7)">26</text></g><path class="edge" d="M 0 0 V -22.1909 H -83.375"/><circle class="sym" cx="0" cy="0" r="3"/><text class="lab rgt" transform="translate(3 -7)">28</text></g><g class="a34 c2 m1 node n30 p1 s1" transform="translate(-83.375 19.1883)"><g class="a30 i0 leaf node n0 p1 sample" transform="translate(-23 8.74752)"><path class="edge" d="M 0 0 V -8.74752 H 23"/><rect class="sym" height="6" width="6" x="-3" y="-3"/><text class="lab" transform="translate(0 11)">0</text></g><g class="a30 i14 leaf node n14 p2 sample" transform="translate(23 8.74752)"><path class="edge" d="M 0 0 V -8.74752 H -23"/><rect class="sym" height="6" width="6" x="-3" y="-3"/><text class="lab" transform="translate(0 11)">14</text></g><path class="edge" d="M 0 0 V -19.1883 H 83.375"/><g class="mut m1 s1" transform="translate(0 -3.51395)"><line x1="0" x2="0" y1="0" y2="3.51395"/><path class="sym" d="M -3,-3 l 6,6 M -3,3 l 6,-6"/><text class="lab lft" transform="translate(-5 0)">1</text></g><circle class="sym" cx="0" cy="0" r="3"/><text class="lab lft" transform="translate(-3 -7)">30</text></g><path class="edge" d="M 0 0 V -18.9236 H 149.5"/><circle class="sym" cx="0" cy="0" r="3"/><text class="lab lft" transform="translate(-3 -7)">34</text></g><path class="edge" d="M 0 0 V -247.741 H 258.031"/><g class="mut m2 s2" transform="translate(0 -229.701)"><line x1="0" x2="0" y1="0" y2="229.701"/><path class="sym" d="M -3,-3 l 6,6 M -3,3 l 6,-6"/><text class="lab lft" transform="translate(-5 0)">2</text></g><circle class="sym" cx="0" cy="0" r="3"/><text class="lab lft" transform="translate(-3 -7)">35</text></g><g class="a38 c2 node n37 p2" transform="translate(258.031 189.595)"><g class="a37 i2 leaf node n2 p1 sample" transform="translate(102.062 105.005)"><path class="edge" d="M 0 0 V -105.005 H -102.062"/><rect class="sym" height="6" width="6" x="-3" y="-3"/><text class="lab" transform="translate(0 11)">2</text></g><g class="a37 c2 node n36 p2" transform="translate(-102.062 8.23022)"><g class="a36 c2 node n25 p1" transform="translate(60.375 91.8724)"><g class="a25 i7 leaf node n7 p1 sample" transform="translate(-40.25 4.90197)"><path class="edge" d="M 0 0 V -4.90197 H 40.25"/><rect class="sym" height="6" width="6" x="-3" y="-3"/><text class="lab" transform="translate(0 11)">7</text></g><g class="a25 c2 node n22 p2" transform="translate(40.25 3.46739)"><g class="a22 i11 leaf node n11 p2 sample" transform="translate(-34.5 1.43458)"><path class="edge" d="M 0 0 V -1.43458 H 34.5"/><rect class="sym" height="6" width="6" x="-3" y="-3"/><text class="lab" transform="translate(0 11)">11</text></g><g class="a22 c2 node n21 p1" transform="translate(34.5 0.630022)"><g class="a21 i13 leaf node n13 p2 sample" transform="translate(-23 0.804558)"><path class="edge" d="M 0 0 V -0.804558 H 23"/><rect class="sym" height="6" width="6" x="-3" y="-3"/><text class="lab" transform="translate(0 11)">13</text></g><g class="a21 i19 leaf node n19 p2 sample" transform="translate(23 0.804558)"><path class="edge" d="M 0 0 V -0.804558 H -23"/><rect class="sym" height="6" width="6" x="-3" y="-3"/><text class="lab" transform="translate(0 11)">19</text></g><path class="edge" d="M 0 0 V -0.630022 H -34.5"/><circle class="sym" cx="0" cy="0" r="3"/><text class="lab rgt" transform="translate(3 -7)">21</text></g><path class="edge" d="M 0 0 V -3.46739 H -40.25"/><circle class="sym" cx="0" cy="0" r="3"/><text class="lab rgt" transform="translate(3 -7)">22</text></g><path class="edge" d="M 0 0 V -91.8724 H -60.375"/><circle class="sym" cx="0" cy="0" r="3"/><text class="lab rgt" transform="translate(3 -7)">25</text></g><g class="a36 c2 node n32 p1" transform="translate(-60.375 75.6838)"><g class="a32 i17 leaf node n17 p2 sample" transform="translate(34.5 21.0905)"><path class="edge" d="M 0 0 V -21.0905 H -34.5"/><rect class="sym" height="6" width="6" x="-3" y="-3"/><text class="lab" transform="translate(0 11)">17</text></g><g class="a32 c2 m0 node n23 p1 s0" transform="translate(-34.5 19.5657)"><g class="a23 i1 leaf node n1 p1 sample" transform="translate(-23 1.52486)"><path class="edge" d="M 0 0 V -1.52486 H 23"/><rect class="sym" height="6" width="6" x="-3" y="-3"/><text class="lab" transform="translate(0 11)">1</text></g><g class="a23 i12 leaf node n12 p2 sample" transform="translate(23 1.52486)"><path class="edge" d="M 0 0 V -1.52486 H -23"/><rect class="sym" height="6" width="6" x="-3" y="-3"/><text class="lab" transform="translate(0 11)">12</text></g><path class="edge" d="M 0 0 V -19.5657 H 34.5"/><g class="mut m0 s0" transform="translate(0 -13.7721)"><line x1="0" x2="0" y1="0" y2="13.7721"/><path class="sym" d="M -3,-3 l 6,6 M -3,3 l 6,-6"/><text class="lab lft" transform="translate(-5 0)">0</text></g><circle class="sym" cx="0" cy="0" r="3"/><text class="lab lft" transform="translate(-3 -7)">23</text></g><path class="edge" d="M 0 0 V -75.6838 H 60.375"/><circle class="sym" cx="0" cy="0" r="3"/><text class="lab lft" transform="translate(-3 -7)">32</text></g><path class="edge" d="M 0 0 V -8.23022 H 102.062"/><circle class="sym" cx="0" cy="0" r="3"/><text class="lab lft" transform="translate(-3 -7)">36</text></g><path class="edge" d="M 0 0 V -189.595 H -258.031"/><circle class="sym" cx="0" cy="0" r="3"/><text class="lab rgt" transform="translate(3 -7)">37</text></g><circle class="sym" cx="0" cy="0" r="3"/><text class="lab" transform="translate(0 -11)">38</text></g></g></g></g></g></svg>