<svg baseProfile="full" height="400" version="1.1" width="1000" xmlns="http://www.w3.org/2000/svg" xmlns:ev="http://www.w3.org/2001/xml-events" xmlns:xlink="http://www.w3.org/1999/xlink"><defs><style type="text/css"><![CDATA[.background path {fill: #808080; fill-opacity: 0}.background path:nth-child(odd) {fill-opacity: .1}.x-regions rect {fill: yellow; stroke: black; opacity: 0.5}.axes {font-size: 14px}.x-axis .tick .lab {font-weight: bold; dominant-baseline: hanging}.axes, .tree {font-size: 14px; text-anchor: middle}.axes line, .edge {stroke: black; fill: none}.axes .ax-skip {stroke-dasharray: 4}.y-axis .grid {stroke: #FAFAFA}.node > .sym {fill: black; stroke: none}.site > .sym {stroke: black}.mut text {fill: red; font-style: italic}.mut.extra text {fill: hotpink}.mut line {fill: none; stroke: none}.mut .sym {fill: none; stroke: red}.mut.extra .sym {stroke: hotpink}.node .mut .sym {stroke-width: 1.5px}.tree text, .tree-sequence text {dominant-baseline: central}.plotbox .lab.lft {text-anchor: end}.plotbox .lab.rgt {text-anchor: start}.polytomy line {stroke: black; stroke-dasharray: 1px, 1px}.polytomy text {paint-order:stroke;stroke-width:0.3em;stroke:white}]]></style></defs><g class="tree-sequence"><g class="background"><path d="M20,0 l960,0 l0,338.2 l0,25 l0,5 l-960,0 l0,-5 l0,-25 l0,-338.2z"/></g><g class="axes"><g class="x-axis"><g class="title" transform="translate(500 400)"><text class="lab" text-anchor="middle" transform="translate(0 -11)">Genome position</text></g><line class="ax-line" x1="20" x2="980" y1="363.2" y2="363.2"/><g class="ticks"><g class="tick" transform="translate(20 363.2)"><line x1="0" x2="0" y1="0" y2="5"/><g transform="translate(0 6)"><text class="lab">0</text></g></g><g class="tick" transform="translate(980 363.2)"><line x1="0" x2="0" y1="0" y2="5"/><g transform="translate(0 6)"><text class="lab">1000</text></g></g></g><g class="site s0" transform="translate(507.68 363.2)"><line class="sym" x1="0" x2="0" y1="0" y2="-10"/><g class="mut m0"><polyline class="sym" points="2.5,-6.5 0,-1.5 -2.5,-6.5"/></g></g></g></g><g class="plotbox trees"><g class="tree t0" transform="translate(20 0)"><g class="plotbox"><g class="c2 node n38 p1 root" transform="translate(688.707 26.8)"><g class="a38 c2 node n26 p2" transform="translate(170.793 287.283)"><g class="a26 i9 leaf node n9 p1 sample" transform="translate(-34.5 7.31732)"><path class="edge" d="M 0 0 V -7.31732 H 34.5"/><rect class="sym" height="6" width="6" x="-3" y="-3"/><text class="lab" transform="translate(0 11)">9</text></g><g class="a26 c2 node n22 p2" transform="translate(34.5 4.44144)"><g class="a22 i13 leaf node n13 p2 sample" transform="translate(-23 2.87588)"><path class="edge" d="M 0 0 V -2.87588 H 23"/><rect class="sym" height="6" width="6" x="-3" y="-3"/><text class="lab" transform="translate(0 11)">13</text></g><g class="a22 i15 leaf node n15 p2 sample" transform="translate(23 2.87588)"><path class="edge" d="M 0 0 V -2.87588 H -23"/><rect class="sym" height="6" width="6" x="-3" y="-3"/><text class="lab" transform="translate(0 11)">15</text></g><path class="edge" d="M 0 0 V -4.44144 H -34.5"/><circle class="sym" cx="0" cy="0" r="3"/><text class="lab rgt" transform="translate(3 -7)">22</text></g><path class="edge" d="M 0 0 V -287.283 H -170.793"/><circle class="sym" cx="0" cy="0" r="3"/><text class="lab rgt" transform="translate(3 -7)">26</text></g><g class="a38 c2 node n37 p1" transform="translate(-170.793 240.583)"><g class="a37 c2 m0 node n35 p2 s0" transform="translate(-154.711 21.2998)"><g class="a35 c2 node n29 p1" transform="translate(70.7969 21.7844)"><g class="a29 i1 leaf node n1 p1 sample" transform="translate(-23 10.9328)"><path class="edge" d="M 0 0 V -10.9328 H 23"/><rect class="sym" height="6" width="6" x="-3" y="-3"/><text class="lab" transform="translate(0 11)">1</text></g><g class="a29 i10 leaf node n10 p2 sample" transform="translate(23 10.9328)"><path class="edge" d="M 0 0 V -10.9328 H -23"/><rect class="sym" height="6" width="6" x="-3" y="-3"/><text class="lab" transform="translate(0 11)">10</text></g><path class="edge" d="M 0 0 V -21.7844 H -70.7969"/><circle class="sym" cx="0" cy="0" r="3"/><text class="lab rgt" transform="translate(3 -7)">29</text></g><g class="a35 c2 node n33 p2" transform="translate(-70.7969 11.0252)"><g class="a33 i17 leaf node n17 p2 sample" transform="translate(72.5938 21.692)"><path class="edge" d="M 0 0 V -21.692 H -72.5938"/><rect class="sym" height="6" width="6" x="-3" y="-3"/><text class="lab" transform="translate(0 11)">17</text></g><g class="a33 c2 node n28 p1" transform="translate(-72.5938 11.4267)"><g class="a28 i12 leaf node n12 p2 sample" transform="translate(99.1875 10.2652)"><path class="edge" d="M 0 0 V -10.2652 H -99.1875"/><rect class="sym" height="6" width="6" x="-3" y="-3"/><text class="lab" transform="translate(0 11)">12</text></g><g class="a28 c2 node n27 p2" transform="translate(-99.1875 0.340049)"><g class="a27 i0 leaf node n0 p1 sample" transform="translate(-77.625 9.92517)"><path class="edge" d="M 0 0 V -9.92517 H 77.625"/><rect class="sym" height="6" width="6" x="-3" y="-3"/><text class="lab" transform="translate(0 11)">0</text></g><g class="a27 c2 node n25 p1" transform="translate(77.625 5.02632)"><g class="a25 c2 node n20 p1" transform="translate(51.75 4.8475)"><g class="a20 i7 leaf node n7 p1 sample" transform="translate(-23 0.0513509)"><path class="edge" d="M 0 0 V -0.0513509 H 23"/><rect class="sym" height="6" width="6" x="-3" y="-3"/><text class="lab" transform="translate(0 11)">7</text></g><g class="a20 i16 leaf node n16 p2 sample" transform="translate(23 0.0513509)"><path class="edge" d="M 0 0 V -0.0513509 H -23"/><rect class="sym" height="6" width="6" x="-3" y="-3"/><text class="lab" transform="translate(0 11)">16</text></g><path class="edge" d="M 0 0 V -4.8475 H -51.75"/><circle class="sym" cx="0" cy="0" r="3"/><text class="lab rgt" transform="translate(3 -7)">20</text></g><g class="a25 c2 node n24 p1" transform="translate(-51.75 0.418748)"><g class="a24 i4 leaf node n4 p1 sample" transform="translate(34.5 4.48011)"><path class="edge" d="M 0 0 V -4.48011 H -34.5"/><rect class="sym" height="6" width="6" x="-3" y="-3"/><text class="lab" transform="translate(0 11)">4</text></g><g class="a24 c2 node n23 p1" transform="translate(-34.5 1.03668)"><g class="a23 i2 leaf node n2 p1 sample" transform="translate(-23 3.44343)"><path class="edge" d="M 0 0 V -3.44343 H 23"/><rect class="sym" height="6" width="6" x="-3" y="-3"/><text class="lab" transform="translate(0 11)">2</text></g><g class="a23 i14 leaf node n14 p2 sample" transform="translate(23 3.44343)"><path class="edge" d="M 0 0 V -3.44343 H -23"/><rect class="sym" height="6" width="6" x="-3" y="-3"/><text class="lab" transform="translate(0 11)">14</text></g><path class="edge" d="M 0 0 V -1.03668 H 34.5"/><circle class="sym" cx="0" cy="0" r="3"/><text class="lab lft" transform="translate(-3 -7)">23</text></g><path class="edge" d="M 0 0 V -0.418748 H 51.75"/><circle class="sym" cx="0" cy="0" r="3"/><text class="lab lft" transform="translate(-3 -7)">24</text></g><path class="edge" d="M 0 0 V -5.02632 H -77.625"/><circle class="sym" cx="0" cy="0" r="3"/><text class="lab rgt" transform="translate(3 -7)">25</text></g><path class="edge" d="M 0 0 V -0.340049 H 99.1875"/><circle class="sym" cx="0" cy="0" r="3"/><text class="lab lft" transform="translate(-3 -7)">27</text></g><path class="edge" d="M 0 0 V -11.4267 H 72.5938"/><circle class="sym" cx="0" cy="0" r="3"/><text class="lab lft" transform="translate(-3 -7)">28</text></g><path class="edge" d="M 0 0 V -11.0252 H 70.7969"/><circle class="sym" cx="0" cy="0" r="3"/><text class="lab lft" transform="translate(-3 -7)">33</text></g><path class="edge" d="M 0 0 V -21.2998 H 154.711"/><g class="mut m0 s0" transform="translate(0 -7.4397)"><line x1="0" x2="0" y1="0" y2="7.4397"/><path class="sym" d="M -3,-3 l 6,6 M -3,3 l 6,-6"/><text class="lab lft" transform="translate(-5 0)">0</text></g><circle class="sym" cx="0" cy="0" r="3"/><text class="lab lft" transform="translate(-3 -7)">35</text></g><g class="a37 c2 node n36 p2" transform="translate(154.711 17.8325)"><g class="a36 c2 node n32 p1" transform="translate(71.875 15.8437)"><g class="a32 i19 leaf node n19 p2 sample" transform="translate(34.5 20.3408)"><path class="edge" d="M 0 0 V -20.3408 H -34.5"/><rect class="sym" height="6" width="6" x="-3" y="-3"/><text class="lab" transform="translate(0 11)">19</text></g><g class="a32 c2 node n30 p2" transform="translate(-34.5 5.20901)"><g class="a30 i8 leaf node n8 p1 sample" transform="translate(-23 15.1318)"><path class="edge" d="M 0 0 V -15.1318 H 23"/><rect class="sym" height="6" width="6" x="-3" y="-3"/><text class="lab" transform="translate(0 11)">8</text></g><g class="a30 i18 leaf node n18 p2 sample" transform="translate(23 15.1318)"><path class="edge" d="M 0 0 V -15.1318 H -23"/><rect class="sym" height="6" width="6" x="-3" y="-3"/><text class="lab" transform="translate(0 11)">18</text></g><path class="edge" d="M 0 0 V -5.20901 H 34.5"/><circle class="sym" cx="0" cy="0" r="3"/><text class="lab lft" transform="translate(-3 -7)">30</text></g><path class="edge" d="M 0 0 V -15.8437 H -71.875"/><circle class="sym" cx="0" cy="0" r="3"/><text class="lab rgt" transform="translate(3 -7)">32</text></g><g class="a36 c2 node n34 p2" transform="translate(-71.875 8.79276)"><g class="a34 i11 leaf node n11 p2 sample" transform="translate(40.25 27.3917)"><path class="edge" d="M 0 0 V -27.3917 H -40.25"/><rect class="sym" height="6" width="6" x="-3" y="-3"/><text class="lab" transform="translate(0 11)">11</text></g><g class="a34 c2 node n31 p1" transform="translate(-40.25 11.4447)"><g class="a31 i5 leaf node n5 p1 sample" transform="translate(34.5 15.947)"><path class="edge" d="M 0 0 V -15.947 H -34.5"/><rect class="sym" height="6" width="6" x="-3" y="-3"/><text class="lab" transform="translate(0 11)">5</text></g><g class="a31 c2 node n21 p1" transform="translate(-34.5 15.609)"><g class="a21 i3 leaf node n3 p1 sample" transform="translate(-23 0.338041)"><path class="edge" d="M 0 0 V -0.338041 H 23"/><rect class="sym" height="6" width="6" x="-3" y="-3"/><text class="lab" transform="translate(0 11)">3</text></g><g class="a21 i6 leaf node n6 p1 sample" transform="translate(23 0.338041)"><path class="edge" d="M 0 0 V -0.338041 H -23"/><rect class="sym" height="6" width="6" x="-3" y="-3"/><text class="lab" transform="translate(0 11)">6</text></g><path class="edge" d="M 0 0 V -15.609 H 34.5"/><circle class="sym" cx="0" cy="0" r="3"/><text class="lab lft" transform="translate(-3 -7)">21</text></g><path class="edge" d="M 0 0 V -11.4447 H 40.25"/><circle class="sym" cx="0" cy="0" r="3"/><text class="lab lft" transform="translate(-3 -7)">31</text></g><path class="edge" d="M 0 0 V -8.79276 H 71.875"/><circle class="sym" cx="0" cy="0" r="3"/><text class="lab lft" transform="translate(-3 -7)">34</text></g><path class="edge" d="M 0 0 V -17.8325 H -154.711"/><circle class="sym" cx="0" cy="0" r="3"/><text class="lab rgt" transform="translate(3 -7)">36</text></g><path class="edge" d="M 0 0 V -240.583 H 170.793"/><circle class="sym" cx="0" cy="0" r="3"/><text class="lab lft" transform="translate(-3 -7)">37</text></g><circle class="sym" cx="0" cy="0" r="3"/><text class="lab" transform="translate(0 -11)">38</text></g></g></g></g></g></svg>