<svg baseProfile="full" height="400" version="1.1" width="1000" xmlns="http://www.w3.org/2000/svg" xmlns:ev="http://www.w3.org/2001/xml-events" xmlns:xlink="http://www.w3.org/1999/xlink"><defs><style type="text/css"><![CDATA[.background path {fill: #808080; fill-opacity: 0}.background path:nth-child(odd) {fill-opacity: .1}.x-regions rect {fill: yellow; stroke: black; opacity: 0.5}.axes {font-size: 14px}.x-axis .tick .lab {font-weight: bold; dominant-baseline: hanging}.axes, .tree {font-size: 14px; text-anchor: middle}.axes line, .edge {stroke: black; fill: none}.axes .ax-skip {stroke-dasharray: 4}.y-axis .grid {stroke: #FAFAFA}.node > .sym {fill: black; stroke: none}.site > .sym {stroke: black}.mut text {fill: red; font-style: italic}.mut.extra text {fill: hotpink}.mut line {fill: none; stroke: none}.mut .sym {fill: none; stroke: red}.mut.extra .sym {stroke: hotpink}.node .mut .sym {stroke-width: 1.5px}.tree text, .tree-sequence text {dominant-baseline: central}.plotbox .lab.lft {text-anchor: end}.plotbox .lab.rgt {text-anchor: start}.polytomy line {stroke: black; stroke-dasharray: 1px, 1px}.polytomy text {paint-order:stroke;stroke-width:0.3em;stroke:white}]]></style></defs><g class="tree-sequence"><g class="background"><path d="M20,0 l960,0 l0,338.2 l0,25 l0,5 l-960,0 l0,-5 l0,-25 l0,-338.2z"/></g><g class="axes"><g class="x-axis"><g class="title" transform="translate(500 400)"><text class="lab" text-anchor="middle" transform="translate(0 -11)">Genome position</text></g><line class="ax-line" x1="20" x2="980" y1="363.2" y2="363.2"/><g class="ticks"><g class="tick" transform="translate(20 363.2)"><line x1="0" x2="0" y1="0" y2="5"/><g transform="translate(0 6)"><text class="lab">0</text></g></g><g class="tick" transform="translate(980 363.2)"><line x1="0" x2="0" y1="0" y2="5"/><g transform="translate(0 6)"><text class="lab">1000</text></g></g></g><g class="site s0" transform="translate(53.6 363.2)"><line class="sym" x1="0" x2="0" y1="0" y2="-10"/><g class="mut m0"><polyline class="sym" points="2.5,-6.5 0,-1.5 -2.5,-6.5"/></g></g><g class="site s1" transform="translate(238.88 363.2)"><line class="sym" x1="0" x2="0" y1="0" y2="-10"/><g class="mut m1"><polyline class="sym" points="2.5,-6.5 0,-1.5 -2.5,-6.5"/></g></g><g class="site s2" transform="translate(383.84 363.2)"><line class="sym" x1="0" x2="0" y1="0" y2="-10"/><g class="mut m2"><polyline class="sym" points="2.5,-6.5 0,-1.5 -2.5,-6.5"/></g></g><g class="site s3" transform="translate(393.44 363.2)"><line class="sym" x1="0" x2="0" y1="0" y2="-10"/><g class="mut m3"><polyline class="sym" points="2.5,-6.5 0,-1.5 -2.5,-6.5"/></g></g><g class="site s4" transform="translate(620.96 363.2)"><line class="sym" x1="0" x2="0" y1="0" y2="-10"/><g class="mut m4"><polyline class="sym" points="2.5,-6.5 0,-1.5 -2.5,-6.5"/></g></g><g class="site s5" transform="translate(692 363.2)"><line class="sym" x1="0" x2="0" y1="0" y2="-10"/><g class="mut m5"><polyline class="sym" points="2.5,-6.5 0,-1.5 -2.5,-6.5"/></g></g><g class="site s6" transform="translate(881.12 363.2)"><line class="sym" x1="0" x2="0" y1="0" y2="-10"/><g class="mut m6"><polyline class="sym" points="2.5,-6.5 0,-1.5 -2.5,-6.5"/></g></g><g class="site s7" transform="translate(929.12 363.2)"><line class="sym" x1="0" x2="0" y1="0" y2="-10"/><g class="mut m7"><polyline class="sym" points="2.5,-6.5 0,-1.5 -2.5,-6.5"/></g></g><g class="site s8" transform="translate(959.84 363.2)"><line class="sym" x1="0" x2="0" y1="0" y2="-10"/><g class="mut m8"><polyline class="sym" points="2.5,-6.5 0,-1.5 -2.5,-6.5"/></g></g></g></g><g class="plotbox trees"><g class="tree t0" transform="translate(20 0)"><g class="plotbox"><g class="c2 node n38 p2 root" transform="translate(629.859 26.8)"><g class="a38 c2 m1 m5 m7 node n34 p2 s1 s5 s7" transform="translate(264.141 256.96)"><g class="a34 i6 leaf node n6 p1 sample" transform="translate(-23 37.6395)"><path class="edge" d="M 0 0 V -37.6395 H 23"/><rect class="sym" height="6" width="6" x="-3" y="-3"/><text class="lab" transform="translate(0 11)">6</text></g><g class="a34 i15 leaf node n15 p2 sample" transform="translate(23 37.6395)"><path class="edge" d="M 0 0 V -37.6395 H -23"/><rect class="sym" height="6" width="6" x="-3" y="-3"/><text class="lab" transform="translate(0 11)">15</text></g><path class="edge" d="M 0 0 V -256.96 H -264.141"/><g class="mut m5 s5" transform="translate(0 -211.823)"><line x1="0" x2="0" y1="0" y2="211.823"/><path class="sym" d="M -3,-3 l 6,6 M -3,3 l 6,-6"/><text class="lab rgt" transform="translate(5 0)">5</text></g><g class="mut m7 s7" transform="translate(0 -144.107)"><line x1="0" x2="0" y1="0" y2="144.107"/><path class="sym" d="M -3,-3 l 6,6 M -3,3 l 6,-6"/><text class="lab rgt" transform="translate(5 0)">7</text></g><g class="mut m1 s1" transform="translate(0 -75.9476)"><line x1="0" x2="0" y1="0" y2="75.9476"/><path class="sym" d="M -3,-3 l 6,6 M -3,3 l 6,-6"/><text class="lab rgt" transform="translate(5 0)">1</text></g><circle class="sym" cx="0" cy="0" r="3"/><text class="lab rgt" transform="translate(3 -7)">34</text></g><g class="a38 c2 m0 m3 m8 node n37 p2 s0 s3 s8" transform="translate(-264.141 181.777)"><g class="a37 c2 node n33 p2" transform="translate(207.719 82.4591)"><g class="a33 c2 node n31 p1" transform="translate(-145.188 16.9276)"><g class="a31 c2 node n21 p2" transform="translate(51.75 11.5802)"><g class="a21 i12 leaf node n12 p2 sample" transform="translate(-23 1.85559)"><path class="edge" d="M 0 0 V -1.85559 H 23"/><rect class="sym" height="6" width="6" x="-3" y="-3"/><text class="lab" transform="translate(0 11)">12</text></g><g class="a21 i19 leaf node n19 p2 sample" transform="translate(23 1.85559)"><path class="edge" d="M 0 0 V -1.85559 H -23"/><rect class="sym" height="6" width="6" x="-3" y="-3"/><text class="lab" transform="translate(0 11)">19</text></g><path class="edge" d="M 0 0 V -11.5802 H -51.75"/><circle class="sym" cx="0" cy="0" r="3"/><text class="lab rgt" transform="translate(3 -7)">21</text></g><g class="a31 c2 node n27 p2" transform="translate(-51.75 5.6063)"><g class="a27 i18 leaf node n18 p2 sample" transform="translate(34.5 7.82953)"><path class="edge" d="M 0 0 V -7.82953 H -34.5"/><rect class="sym" height="6" width="6" x="-3" y="-3"/><text class="lab" transform="translate(0 11)">18</text></g><g class="a27 c2 node n20 p1" transform="translate(-34.5 7.62828)"><g class="a20 i2 leaf node n2 p1 sample" transform="translate(-23 0.201246)"><path class="edge" d="M 0 0 V -0.201246 H 23"/><rect class="sym" height="6" width="6" x="-3" y="-3"/><text class="lab" transform="translate(0 11)">2</text></g><g class="a20 i8 leaf node n8 p1 sample" transform="translate(23 0.201246)"><path class="edge" d="M 0 0 V -0.201246 H -23"/><rect class="sym" height="6" width="6" x="-3" y="-3"/><text class="lab" transform="translate(0 11)">8</text></g><path class="edge" d="M 0 0 V -7.62828 H 34.5"/><circle class="sym" cx="0" cy="0" r="3"/><text class="lab lft" transform="translate(-3 -7)">20</text></g><path class="edge" d="M 0 0 V -5.6063 H 51.75"/><circle class="sym" cx="0" cy="0" r="3"/><text class="lab lft" transform="translate(-3 -7)">27</text></g><path class="edge" d="M 0 0 V -16.9276 H 145.188"/><circle class="sym" cx="0" cy="0" r="3"/><text class="lab lft" transform="translate(-3 -7)">31</text></g><g class="a33 c2 node n32 p2" transform="translate(145.188 6.28658)"><g class="a32 c2 node n28 p1" transform="translate(71.875 15.6689)"><g class="a28 i9 leaf node n9 p1 sample" transform="translate(34.5 8.40793)"><path class="edge" d="M 0 0 V -8.40793 H -34.5"/><rect class="sym" height="6" width="6" x="-3" y="-3"/><text class="lab" transform="translate(0 11)">9</text></g><g class="a28 c2 node n25 p1" transform="translate(-34.5 1.24773)"><g class="a25 i7 leaf node n7 p1 sample" transform="translate(-23 7.1602)"><path class="edge" d="M 0 0 V -7.1602 H 23"/><rect class="sym" height="6" width="6" x="-3" y="-3"/><text class="lab" transform="translate(0 11)">7</text></g><g class="a25 i17 leaf node n17 p2 sample" transform="translate(23 7.1602)"><path class="edge" d="M 0 0 V -7.1602 H -23"/><rect class="sym" height="6" width="6" x="-3" y="-3"/><text class="lab" transform="translate(0 11)">17</text></g><path class="edge" d="M 0 0 V -1.24773 H 34.5"/><circle class="sym" cx="0" cy="0" r="3"/><text class="lab lft" transform="translate(-3 -7)">25</text></g><path class="edge" d="M 0 0 V -15.6689 H -71.875"/><circle class="sym" cx="0" cy="0" r="3"/><text class="lab rgt" transform="translate(3 -7)">28</text></g><g class="a32 c2 m2 node n29 p1 s2" transform="translate(-71.875 14.4912)"><g class="a29 i14 leaf node n14 p2 sample" transform="translate(40.25 9.58566)"><path class="edge" d="M 0 0 V -9.58566 H -40.25"/><rect class="sym" height="6" width="6" x="-3" y="-3"/><text class="lab" transform="translate(0 11)">14</text></g><g class="a29 c2 node n24 p1" transform="translate(-40.25 3.19381)"><g class="a24 i13 leaf node n13 p2 sample" transform="translate(34.5 6.39185)"><path class="edge" d="M 0 0 V -6.39185 H -34.5"/><rect class="sym" height="6" width="6" x="-3" y="-3"/><text class="lab" transform="translate(0 11)">13</text></g><g class="a24 c2 node n23 p1" transform="translate(-34.5 2.44165)"><g class="a23 i5 leaf node n5 p1 sample" transform="translate(-23 3.9502)"><path class="edge" d="M 0 0 V -3.9502 H 23"/><rect class="sym" height="6" width="6" x="-3" y="-3"/><text class="lab" transform="translate(0 11)">5</text></g><g class="a23 i11 leaf node n11 p2 sample" transform="translate(23 3.9502)"><path class="edge" d="M 0 0 V -3.9502 H -23"/><rect class="sym" height="6" width="6" x="-3" y="-3"/><text class="lab" transform="translate(0 11)">11</text></g><path class="edge" d="M 0 0 V -2.44165 H 34.5"/><circle class="sym" cx="0" cy="0" r="3"/><text class="lab lft" transform="translate(-3 -7)">23</text></g><path class="edge" d="M 0 0 V -3.19381 H 40.25"/><circle class="sym" cx="0" cy="0" r="3"/><text class="lab lft" transform="translate(-3 -7)">24</text></g><path class="edge" d="M 0 0 V -14.4912 H 71.875"/><g class="mut m2 s2" transform="translate(0 -5.29889)"><line x1="0" x2="0" y1="0" y2="5.29889"/><path class="sym" d="M -3,-3 l 6,6 M -3,3 l 6,-6"/><text class="lab lft" transform="translate(-5 0)">2</text></g><circle class="sym" cx="0" cy="0" r="3"/><text class="lab lft" transform="translate(-3 -7)">29</text></g><path class="edge" d="M 0 0 V -6.28658 H -145.188"/><circle class="sym" cx="0" cy="0" r="3"/><text class="lab rgt" transform="translate(3 -7)">32</text></g><path class="edge" d="M 0 0 V -82.4591 H -207.719"/><circle class="sym" cx="0" cy="0" r="3"/><text class="lab rgt" transform="translate(3 -7)">33</text></g><g class="a37 c2 m4 m6 node n36 p2 s4 s6" transform="translate(-207.719 62.3719)"><g class="a36 c2 node n26 p2" transform="translate(80.5 42.6827)"><g class="a26 i10 leaf node n10 p2 sample" transform="translate(34.5 7.76799)"><path class="edge" d="M 0 0 V -7.76799 H -34.5"/><rect class="sym" height="6" width="6" x="-3" y="-3"/><text class="lab" transform="translate(0 11)">10</text></g><g class="a26 c2 node n22 p2" transform="translate(-34.5 5.09208)"><g class="a22 i1 leaf node n1 p1 sample" transform="translate(-23 2.67592)"><path class="edge" d="M 0 0 V -2.67592 H 23"/><rect class="sym" height="6" width="6" x="-3" y="-3"/><text class="lab" transform="translate(0 11)">1</text></g><g class="a22 i16 leaf node n16 p2 sample" transform="translate(23 2.67592)"><path class="edge" d="M 0 0 V -2.67592 H -23"/><rect class="sym" height="6" width="6" x="-3" y="-3"/><text class="lab" transform="translate(0 11)">16</text></g><path class="edge" d="M 0 0 V -5.09208 H 34.5"/><circle class="sym" cx="0" cy="0" r="3"/><text class="lab lft" transform="translate(-3 -7)">22</text></g><path class="edge" d="M 0 0 V -42.6827 H -80.5"/><circle class="sym" cx="0" cy="0" r="3"/><text class="lab rgt" transform="translate(3 -7)">26</text></g><g class="a36 c2 node n35 p2" transform="translate(-80.5 6.52835)"><g class="a35 i0 leaf node n0 p1 sample" transform="translate(-34.5 43.9223)"><path class="edge" d="M 0 0 V -43.9223 H 34.5"/><rect class="sym" height="6" width="6" x="-3" y="-3"/><text class="lab" transform="translate(0 11)">0</text></g><g class="a35 c2 node n30 p1" transform="translate(34.5 34.3041)"><g class="a30 i3 leaf node n3 p1 sample" transform="translate(-23 9.61826)"><path class="edge" d="M 0 0 V -9.61826 H 23"/><rect class="sym" height="6" width="6" x="-3" y="-3"/><text class="lab" transform="translate(0 11)">3</text></g><g class="a30 i4 leaf node n4 p1 sample" transform="translate(23 9.61826)"><path class="edge" d="M 0 0 V -9.61826 H -23"/><rect class="sym" height="6" width="6" x="-3" y="-3"/><text class="lab" transform="translate(0 11)">4</text></g><path class="edge" d="M 0 0 V -34.3041 H -34.5"/><circle class="sym" cx="0" cy="0" r="3"/><text class="lab rgt" transform="translate(3 -7)">30</text></g><path class="edge" d="M 0 0 V -6.52835 H 80.5"/><circle class="sym" cx="0" cy="0" r="3"/><text class="lab lft" transform="translate(-3 -7)">35</text></g><path class="edge" d="M 0 0 V -62.3719 H 207.719"/><g class="mut m6 s6" transform="translate(0 -36.0525)"><line x1="0" x2="0" y1="0" y2="36.0525"/><path class="sym" d="M -3,-3 l 6,6 M -3,3 l 6,-6"/><text class="lab lft" transform="translate(-5 0)">6</text></g><g class="mut m4 s4" transform="translate(0 -17.0125)"><line x1="0" x2="0" y1="0" y2="17.0125"/><path class="sym" d="M -3,-3 l 6,6 M -3,3 l 6,-6"/><text class="lab lft" transform="translate(-5 0)">4</text></g><circle class="sym" cx="0" cy="0" r="3"/><text class="lab lft" transform="translate(-3 -7)">36</text></g><path class="edge" d="M 0 0 V -181.777 H 264.141"/><g class="mut m0 s0" transform="translate(0 -141.032)"><line x1="0" x2="0" y1="0" y2="141.032"/><path class="sym" d="M -3,-3 l 6,6 M -3,3 l 6,-6"/><text class="lab lft" transform="translate(-5 0)">0</text></g><g class="mut m8 s8" transform="translate(0 -79.7951)"><line x1="0" x2="0" y1="0" y2="79.7951"/><path class="sym" d="M -3,-3 l 6,6 M -3,3 l 6,-6"/><text class="lab lft" transform="translate(-5 0)">8</text></g><g class="mut m3 s3" transform="translate(0 -33.973)"><line x1="0" x2="0" y1="0" y2="33.973"/><path class="sym" d="M -3,-3 l 6,6 M -3,3 l 6,-6"/><text class="lab lft" transform="translate(-5 0)">3</text></g><circle class="sym" cx="0" cy="0" r="3"/><text class="lab lft" transform="translate(-3 -7)">37</text></g><circle class="sym" cx="0" cy="0" r="3"/><text class="lab" transform="translate(0 -11)">38</text></g></g></g></g></g></svg>