<svg baseProfile="full" height="400" version="1.1" width="1000" xmlns="http://www.w3.org/2000/svg" xmlns:ev="http://www.w3.org/2001/xml-events" xmlns:xlink="http://www.w3.org/1999/xlink"><defs><style type="text/css"><![CDATA[.background path {fill: #808080; fill-opacity: 0}.background path:nth-child(odd) {fill-opacity: .1}.x-regions rect {fill: yellow; stroke: black; opacity: 0.5}.axes {font-size: 14px}.x-axis .tick .lab {font-weight: bold; dominant-baseline: hanging}.axes, .tree {font-size: 14px; text-anchor: middle}.axes line, .edge {stroke: black; fill: none}.axes .ax-skip {stroke-dasharray: 4}.y-axis .grid {stroke: #FAFAFA}.node > .sym {fill: black; stroke: none}.site > .sym {stroke: black}.mut text {fill: red; font-style: italic}.mut.extra text {fill: hotpink}.mut line {fill: none; stroke: none}.mut .sym {fill: none; stroke: red}.mut.extra .sym {stroke: hotpink}.node .mut .sym {stroke-width: 1.5px}.tree text, .tree-sequence text {dominant-baseline: central}.plotbox .lab.lft {text-anchor: end}.plotbox .lab.rgt {text-anchor: start}.polytomy line {stroke: black; stroke-dasharray: 1px, 1px}.polytomy text {paint-order:stroke;stroke-width:0.3em;stroke:white}]]></style></defs><g class="tree-sequence"><g class="background"><path d="M20,0 l960,0 l0,338.2 l0,25 l0,5 l-960,0 l0,-5 l0,-25 l0,-338.2z"/></g><g class="axes"><g class="x-axis"><g class="title" transform="translate(500 400)"><text class="lab" text-anchor="middle" transform="translate(0 -11)">Genome position</text></g><line class="ax-line" x1="20" x2="980" y1="363.2" y2="363.2"/><g class="ticks"><g class="tick" transform="translate(20 363.2)"><line x1="0" x2="0" y1="0" y2="5"/><g transform="translate(0 6)"><text class="lab">0</text></g></g><g class="tick" transform="translate(980 363.2)"><line x1="0" x2="0" y1="0" y2="5"/><g transform="translate(0 6)"><text class="lab">1000</text></g></g></g><g class="site s0" transform="translate(251.36 363.2)"><line class="sym" x1="0" x2="0" y1="0" y2="-10"/><g class="mut m0"><polyline class="sym" points="2.5,-6.5 0,-1.5 -2.5,-6.5"/></g></g><g class="site s1" transform="translate(306.08 363.2)"><line class="sym" x1="0" x2="0" y1="0" y2="-10"/><g class="mut m1"><polyline class="sym" points="2.5,-6.5 0,-1.5 -2.5,-6.5"/></g></g></g></g><g class="plotbox trees"><g class="tree t0" transform="translate(20 0)"><g class="plotbox"><g class="c2 node n38 p2 root" transform="translate(563.195 26.8)"><g class="a38 c2 node n33 p1" transform="translate(184.18 143.182)"><g class="a33 c2 node n30 p2" transform="translate(-94.875 59.4303)"><g class="a30 i4 leaf node n4 p1 sample" transform="translate(34.5 91.9872)"><path class="edge" d="M 0 0 V -91.9872 H -34.5"/><rect class="sym" height="6" width="6" x="-3" y="-3"/><text class="lab" transform="translate(0 11)">4</text></g><g class="a30 c2 node n28 p2" transform="translate(-34.5 8.44239)"><g class="a28 i2 leaf m1 node n2 p1 s1 sample" transform="translate(-23 83.5448)"><path class="edge" d="M 0 0 V -83.5448 H 23"/><g class="mut m1 s1" transform="translate(0 -19.4437)"><line x1="0" x2="0" y1="0" y2="19.4437"/><path class="sym" d="M -3,-3 l 6,6 M -3,3 l 6,-6"/><text class="lab lft" transform="translate(-5 0)">1</text></g><rect class="sym" height="6" width="6" x="-3" y="-3"/><text class="lab" transform="translate(0 11)">2</text></g><g class="a28 i10 leaf node n10 p2 sample" transform="translate(23 83.5448)"><path class="edge" d="M 0 0 V -83.5448 H -23"/><rect class="sym" height="6" width="6" x="-3" y="-3"/><text class="lab" transform="translate(0 11)">10</text></g><path class="edge" d="M 0 0 V -8.44239 H 34.5"/><circle class="sym" cx="0" cy="0" r="3"/><text class="lab lft" transform="translate(-3 -7)">28</text></g><path class="edge" d="M 0 0 V -59.4303 H 94.875"/><circle class="sym" cx="0" cy="0" r="3"/><text class="lab lft" transform="translate(-3 -7)">30</text></g><g class="a33 c2 node n32 p1" transform="translate(94.875 34.7468)"><g class="a32 c2 node n21 p2" transform="translate(51.75 96.9328)"><g class="a21 i16 leaf node n16 p2 sample" transform="translate(-23 19.738)"><path class="edge" d="M 0 0 V -19.738 H 23"/><rect class="sym" height="6" width="6" x="-3" y="-3"/><text class="lab" transform="translate(0 11)">16</text></g><g class="a21 i17 leaf node n17 p2 sample" transform="translate(23 19.738)"><path class="edge" d="M 0 0 V -19.738 H -23"/><rect class="sym" height="6" width="6" x="-3" y="-3"/><text class="lab" transform="translate(0 11)">17</text></g><path class="edge" d="M 0 0 V -96.9328 H -51.75"/><circle class="sym" cx="0" cy="0" r="3"/><text class="lab rgt" transform="translate(3 -7)">21</text></g><g class="a32 c2 node n26 p2" transform="translate(-51.75 67.1729)"><g class="a26 i19 leaf node n19 p2 sample" transform="translate(34.5 49.4979)"><path class="edge" d="M 0 0 V -49.4979 H -34.5"/><rect class="sym" height="6" width="6" x="-3" y="-3"/><text class="lab" transform="translate(0 11)">19</text></g><g class="a26 c2 node n23 p2" transform="translate(-34.5 22.8453)"><g class="a23 i3 leaf node n3 p1 sample" transform="translate(-23 26.6526)"><path class="edge" d="M 0 0 V -26.6526 H 23"/><rect class="sym" height="6" width="6" x="-3" y="-3"/><text class="lab" transform="translate(0 11)">3</text></g><g class="a23 i8 leaf node n8 p1 sample" transform="translate(23 26.6526)"><path class="edge" d="M 0 0 V -26.6526 H -23"/><rect class="sym" height="6" width="6" x="-3" y="-3"/><text class="lab" transform="translate(0 11)">8</text></g><path class="edge" d="M 0 0 V -22.8453 H 34.5"/><circle class="sym" cx="0" cy="0" r="3"/><text class="lab lft" transform="translate(-3 -7)">23</text></g><path class="edge" d="M 0 0 V -67.1729 H 51.75"/><circle class="sym" cx="0" cy="0" r="3"/><text class="lab lft" transform="translate(-3 -7)">26</text></g><path class="edge" d="M 0 0 V -34.7468 H -94.875"/><circle class="sym" cx="0" cy="0" r="3"/><text class="lab rgt" transform="translate(3 -7)">32</text></g><path class="edge" d="M 0 0 V -143.182 H -184.18"/><circle class="sym" cx="0" cy="0" r="3"/><text class="lab rgt" transform="translate(3 -7)">33</text></g><g class="a38 c2 node n37 p1" transform="translate(-184.18 38.5786)"><g class="a37 c2 node n35 p2" transform="translate(-112.484 50.7195)"><g class="a35 i11 leaf node n11 p2 sample" transform="translate(52.4688 205.302)"><path class="edge" d="M 0 0 V -205.302 H -52.4688"/><rect class="sym" height="6" width="6" x="-3" y="-3"/><text class="lab" transform="translate(0 11)">11</text></g><g class="a35 c2 m0 node n31 p2 s0" transform="translate(-52.4688 90.8925)"><g class="a31 i13 leaf node n13 p2 sample" transform="translate(58.9375 114.409)"><path class="edge" d="M 0 0 V -114.409 H -58.9375"/><rect class="sym" height="6" width="6" x="-3" y="-3"/><text class="lab" transform="translate(0 11)">13</text></g><g class="a31 c2 node n27 p1" transform="translate(-58.9375 31.7122)"><g class="a27 i7 leaf node n7 p1 sample" transform="translate(71.875 82.6972)"><path class="edge" d="M 0 0 V -82.6972 H -71.875"/><rect class="sym" height="6" width="6" x="-3" y="-3"/><text class="lab" transform="translate(0 11)">7</text></g><g class="a27 c2 node n24 p1" transform="translate(-71.875 41.8423)"><g class="a24 i0 leaf node n0 p1 sample" transform="translate(-40.25 40.8549)"><path class="edge" d="M 0 0 V -40.8549 H 40.25"/><rect class="sym" height="6" width="6" x="-3" y="-3"/><text class="lab" transform="translate(0 11)">0</text></g><g class="a24 c2 node n22 p1" transform="translate(40.25 17.4076)"><g class="a22 i14 leaf node n14 p2 sample" transform="translate(-34.5 23.4472)"><path class="edge" d="M 0 0 V -23.4472 H 34.5"/><rect class="sym" height="6" width="6" x="-3" y="-3"/><text class="lab" transform="translate(0 11)">14</text></g><g class="a22 c2 node n20 p1" transform="translate(34.5 8.14751)"><g class="a20 i15 leaf node n15 p2 sample" transform="translate(-23 15.2997)"><path class="edge" d="M 0 0 V -15.2997 H 23"/><rect class="sym" height="6" width="6" x="-3" y="-3"/><text class="lab" transform="translate(0 11)">15</text></g><g class="a20 i18 leaf node n18 p2 sample" transform="translate(23 15.2997)"><path class="edge" d="M 0 0 V -15.2997 H -23"/><rect class="sym" height="6" width="6" x="-3" y="-3"/><text class="lab" transform="translate(0 11)">18</text></g><path class="edge" d="M 0 0 V -8.14751 H -34.5"/><circle class="sym" cx="0" cy="0" r="3"/><text class="lab rgt" transform="translate(3 -7)">20</text></g><path class="edge" d="M 0 0 V -17.4076 H -40.25"/><circle class="sym" cx="0" cy="0" r="3"/><text class="lab rgt" transform="translate(3 -7)">22</text></g><path class="edge" d="M 0 0 V -41.8423 H 71.875"/><circle class="sym" cx="0" cy="0" r="3"/><text class="lab lft" transform="translate(-3 -7)">24</text></g><path class="edge" d="M 0 0 V -31.7122 H 58.9375"/><circle class="sym" cx="0" cy="0" r="3"/><text class="lab lft" transform="translate(-3 -7)">27</text></g><path class="edge" d="M 0 0 V -90.8925 H 52.4688"/><g class="mut m0 s0" transform="translate(0 -38.8554)"><line x1="0" x2="0" y1="0" y2="38.8554"/><path class="sym" d="M -3,-3 l 6,6 M -3,3 l 6,-6"/><text class="lab lft" transform="translate(-5 0)">0</text></g><circle class="sym" cx="0" cy="0" r="3"/><text class="lab lft" transform="translate(-3 -7)">31</text></g><path class="edge" d="M 0 0 V -50.7195 H 112.484"/><circle class="sym" cx="0" cy="0" r="3"/><text class="lab lft" transform="translate(-3 -7)">35</text></g><g class="a37 c2 node n36 p2" transform="translate(112.484 41.4924)"><g class="a36 i12 leaf node n12 p2 sample" transform="translate(57.5 214.529)"><path class="edge" d="M 0 0 V -214.529 H -57.5"/><rect class="sym" height="6" width="6" x="-3" y="-3"/><text class="lab" transform="translate(0 11)">12</text></g><g class="a36 c2 node n34 p1" transform="translate(-57.5 34.4265)"><g class="a34 c2 node n25 p1" transform="translate(-46 134.863)"><g class="a25 i1 leaf node n1 p1 sample" transform="translate(-23 45.2392)"><path class="edge" d="M 0 0 V -45.2392 H 23"/><rect class="sym" height="6" width="6" x="-3" y="-3"/><text class="lab" transform="translate(0 11)">1</text></g><g class="a25 i6 leaf node n6 p1 sample" transform="translate(23 45.2392)"><path class="edge" d="M 0 0 V -45.2392 H -23"/><rect class="sym" height="6" width="6" x="-3" y="-3"/><text class="lab" transform="translate(0 11)">6</text></g><path class="edge" d="M 0 0 V -134.863 H 46"/><circle class="sym" cx="0" cy="0" r="3"/><text class="lab lft" transform="translate(-3 -7)">25</text></g><g class="a34 c2 node n29 p2" transform="translate(46 89.7002)"><g class="a29 i5 leaf node n5 p1 sample" transform="translate(-23 90.4022)"><path class="edge" d="M 0 0 V -90.4022 H 23"/><rect class="sym" height="6" width="6" x="-3" y="-3"/><text class="lab" transform="translate(0 11)">5</text></g><g class="a29 i9 leaf node n9 p1 sample" transform="translate(23 90.4022)"><path class="edge" d="M 0 0 V -90.4022 H -23"/><rect class="sym" height="6" width="6" x="-3" y="-3"/><text class="lab" transform="translate(0 11)">9</text></g><path class="edge" d="M 0 0 V -89.7002 H -46"/><circle class="sym" cx="0" cy="0" r="3"/><text class="lab rgt" transform="translate(3 -7)">29</text></g><path class="edge" d="M 0 0 V -34.4265 H 57.5"/><circle class="sym" cx="0" cy="0" r="3"/><text class="lab lft" transform="translate(-3 -7)">34</text></g><path class="edge" d="M 0 0 V -41.4924 H -112.484"/><circle class="sym" cx="0" cy="0" r="3"/><text class="lab rgt" transform="translate(3 -7)">36</text></g><path class="edge" d="M 0 0 V -38.5786 H 184.18"/><circle class="sym" cx="0" cy="0" r="3"/><text class="lab lft" transform="translate(-3 -7)">37</text></g><circle class="sym" cx="0" cy="0" r="3"/><text class="lab" transform="translate(0 -11)">38</text></g></g></g></g></g></svg>