<svg baseProfile="full" height="400" version="1.1" width="1000" xmlns="http://www.w3.org/2000/svg" xmlns:ev="http://www.w3.org/2001/xml-events" xmlns:xlink="http://www.w3.org/1999/xlink"><defs><style type="text/css"><![CDATA[.background path {fill: #808080; fill-opacity: 0}.background path:nth-child(odd) {fill-opacity: .1}.x-regions rect {fill: yellow; stroke: black; opacity: 0.5}.axes {font-size: 14px}.x-axis .tick .lab {font-weight: bold; dominant-baseline: hanging}.axes, .tree {font-size: 14px; text-anchor: middle}.axes line, .edge {stroke: black; fill: none}.axes .ax-skip {stroke-dasharray: 4}.y-axis .grid {stroke: #FAFAFA}.node > .sym {fill: black; stroke: none}.site > .sym {stroke: black}.mut text {fill: red; font-style: italic}.mut.extra text {fill: hotpink}.mut line {fill: none; stroke: none}.mut .sym {fill: none; stroke: red}.mut.extra .sym {stroke: hotpink}.node .mut .sym {stroke-width: 1.5px}.tree text, .tree-sequence text {dominant-baseline: central}.plotbox .lab.lft {text-anchor: end}.plotbox .lab.rgt {text-anchor: start}.polytomy line {stroke: black; stroke-dasharray: 1px, 1px}.polytomy text {paint-order:stroke;stroke-width:0.3em;stroke:white}]]></style></defs><g class="tree-sequence"><g class="background"><path d="M20,0 l960,0 l0,338.2 l0,25 l0,5 l-960,0 l0,-5 l0,-25 l0,-338.2z"/></g><g class="axes"><g class="x-axis"><g class="title" transform="translate(500 400)"><text class="lab" text-anchor="middle" transform="translate(0 -11)">Genome position</text></g><line class="ax-line" x1="20" x2="980" y1="363.2" y2="363.2"/><g class="ticks"><g class="tick" transform="translate(20 363.2)"><line x1="0" x2="0" y1="0" y2="5"/><g transform="translate(0 6)"><text class="lab">0</text></g></g><g class="tick" transform="translate(980 363.2)"><line x1="0" x2="0" y1="0" y2="5"/><g transform="translate(0 6)"><text class="lab">1000</text></g></g></g><g class="site s0" transform="translate(297.44 363.2)"><line class="sym" x1="0" x2="0" y1="0" y2="-10"/><g class="mut m0"><polyline class="sym" points="2.5,-6.5 0,-1.5 -2.5,-6.5"/></g></g><g class="site s1" transform="translate(822.56 363.2)"><line class="sym" x1="0" x2="0" y1="0" y2="-10"/><g class="mut m1"><polyline class="sym" points="2.5,-6.5 0,-1.5 -2.5,-6.5"/></g></g></g></g><g class="plotbox trees"><g class="tree t0" transform="translate(20 0)"><g class="plotbox"><g class="c2 node n38 p0 root" transform="translate(734.617 26.8)"><g class="a38 c2 node n32 p1" transform="translate(159.383 275.429)"><g class="a32 i11 leaf node n11 p2 sample" transform="translate(-23 19.1715)"><path class="edge" d="M 0 0 V -19.1715 H 23"/><rect class="sym" height="6" width="6" x="-3" y="-3"/><text class="lab" transform="translate(0 11)">11</text></g><g class="a32 i12 leaf node n12 p2 sample" transform="translate(23 19.1715)"><path class="edge" d="M 0 0 V -19.1715 H -23"/><rect class="sym" height="6" width="6" x="-3" y="-3"/><text class="lab" transform="translate(0 11)">12</text></g><path class="edge" d="M 0 0 V -275.429 H -159.383"/><circle class="sym" cx="0" cy="0" r="3"/><text class="lab rgt" transform="translate(3 -7)">32</text></g><g class="a38 c2 node n37 p0" transform="translate(-159.383 128.239)"><g class="a37 c2 m0 m1 node n35 p2 s0 s1" transform="translate(-163.516 119.341)"><g class="a35 i19 leaf node n19 p2 sample" transform="translate(91.2812 47.0205)"><path class="edge" d="M 0 0 V -47.0205 H -91.2812"/><rect class="sym" height="6" width="6" x="-3" y="-3"/><text class="lab" transform="translate(0 11)">19</text></g><g class="a35 c2 node n34 p2" transform="translate(-91.2812 12.5272)"><g class="a34 c2 node n30 p2" transform="translate(102.062 19.1425)"><g class="a30 i15 leaf node n15 p2 sample" transform="translate(34.5 15.3508)"><path class="edge" d="M 0 0 V -15.3508 H -34.5"/><rect class="sym" height="6" width="6" x="-3" y="-3"/><text class="lab" transform="translate(0 11)">15</text></g><g class="a30 c2 node n27 p1" transform="translate(-34.5 4.13181)"><g class="a27 i9 leaf node n9 p1 sample" transform="translate(-23 11.219)"><path class="edge" d="M 0 0 V -11.219 H 23"/><rect class="sym" height="6" width="6" x="-3" y="-3"/><text class="lab" transform="translate(0 11)">9</text></g><g class="a27 i10 leaf node n10 p2 sample" transform="translate(23 11.219)"><path class="edge" d="M 0 0 V -11.219 H -23"/><rect class="sym" height="6" width="6" x="-3" y="-3"/><text class="lab" transform="translate(0 11)">10</text></g><path class="edge" d="M 0 0 V -4.13181 H 34.5"/><circle class="sym" cx="0" cy="0" r="3"/><text class="lab lft" transform="translate(-3 -7)">27</text></g><path class="edge" d="M 0 0 V -19.1425 H -102.062"/><circle class="sym" cx="0" cy="0" r="3"/><text class="lab rgt" transform="translate(3 -7)">30</text></g><g class="a34 c2 node n33 p1" transform="translate(-102.062 6.82014)"><g class="a33 c2 node n28 p1" transform="translate(77.625 15.8185)"><g class="a28 i4 leaf node n4 p1 sample" transform="translate(-23 11.8547)"><path class="edge" d="M 0 0 V -11.8547 H 23"/><rect class="sym" height="6" width="6" x="-3" y="-3"/><text class="lab" transform="translate(0 11)">4</text></g><g class="a28 i6 leaf node n6 p1 sample" transform="translate(23 11.8547)"><path class="edge" d="M 0 0 V -11.8547 H -23"/><rect class="sym" height="6" width="6" x="-3" y="-3"/><text class="lab" transform="translate(0 11)">6</text></g><path class="edge" d="M 0 0 V -15.8185 H -77.625"/><circle class="sym" cx="0" cy="0" r="3"/><text class="lab rgt" transform="translate(3 -7)">28</text></g><g class="a33 c2 node n31 p1" transform="translate(-77.625 8.55014)"><g class="a31 c2 node n22 p2" transform="translate(63.25 16.0016)"><g class="a22 i2 leaf node n2 p1 sample" transform="translate(-23 3.1214)"><path class="edge" d="M 0 0 V -3.1214 H 23"/><rect class="sym" height="6" width="6" x="-3" y="-3"/><text class="lab" transform="translate(0 11)">2</text></g><g class="a22 i5 leaf node n5 p1 sample" transform="translate(23 3.1214)"><path class="edge" d="M 0 0 V -3.1214 H -23"/><rect class="sym" height="6" width="6" x="-3" y="-3"/><text class="lab" transform="translate(0 11)">5</text></g><path class="edge" d="M 0 0 V -16.0016 H -63.25"/><circle class="sym" cx="0" cy="0" r="3"/><text class="lab rgt" transform="translate(3 -7)">22</text></g><g class="a31 c2 node n26 p2" transform="translate(-63.25 9.21998)"><g class="a26 i0 leaf node n0 p1 sample" transform="translate(-34.5 9.90302)"><path class="edge" d="M 0 0 V -9.90302 H 34.5"/><rect class="sym" height="6" width="6" x="-3" y="-3"/><text class="lab" transform="translate(0 11)">0</text></g><g class="a26 c2 node n25 p1" transform="translate(34.5 3.80621)"><g class="a25 i1 leaf node n1 p1 sample" transform="translate(-23 6.09681)"><path class="edge" d="M 0 0 V -6.09681 H 23"/><rect class="sym" height="6" width="6" x="-3" y="-3"/><text class="lab" transform="translate(0 11)">1</text></g><g class="a25 i16 leaf node n16 p2 sample" transform="translate(23 6.09681)"><path class="edge" d="M 0 0 V -6.09681 H -23"/><rect class="sym" height="6" width="6" x="-3" y="-3"/><text class="lab" transform="translate(0 11)">16</text></g><path class="edge" d="M 0 0 V -3.80621 H -34.5"/><circle class="sym" cx="0" cy="0" r="3"/><text class="lab rgt" transform="translate(3 -7)">25</text></g><path class="edge" d="M 0 0 V -9.21998 H 63.25"/><circle class="sym" cx="0" cy="0" r="3"/><text class="lab lft" transform="translate(-3 -7)">26</text></g><path class="edge" d="M 0 0 V -8.55014 H 77.625"/><circle class="sym" cx="0" cy="0" r="3"/><text class="lab lft" transform="translate(-3 -7)">31</text></g><path class="edge" d="M 0 0 V -6.82014 H 102.062"/><circle class="sym" cx="0" cy="0" r="3"/><text class="lab lft" transform="translate(-3 -7)">33</text></g><path class="edge" d="M 0 0 V -12.5272 H 91.2812"/><circle class="sym" cx="0" cy="0" r="3"/><text class="lab lft" transform="translate(-3 -7)">34</text></g><path class="edge" d="M 0 0 V -119.341 H 163.516"/><g class="mut m1 s1" transform="translate(0 -98.2941)"><line x1="0" x2="0" y1="0" y2="98.2941"/><path class="sym" d="M -3,-3 l 6,6 M -3,3 l 6,-6"/><text class="lab lft" transform="translate(-5 0)">1</text></g><g class="mut m0 s0" transform="translate(0 -49.9851)"><line x1="0" x2="0" y1="0" y2="49.9851"/><path class="sym" d="M -3,-3 l 6,6 M -3,3 l 6,-6"/><text class="lab lft" transform="translate(-5 0)">0</text></g><circle class="sym" cx="0" cy="0" r="3"/><text class="lab lft" transform="translate(-3 -7)">35</text></g><g class="a37 c2 node n36 p0" transform="translate(163.516 86.9363)"><g class="a36 c2 node n24 p2" transform="translate(-63.25 74.9288)"><g class="a24 i17 leaf node n17 p2 sample" transform="translate(57.5 4.49607)"><path class="edge" d="M 0 0 V -4.49607 H -57.5"/><rect class="sym" height="6" width="6" x="-3" y="-3"/><text class="lab" transform="translate(0 11)">17</text></g><g class="a24 c2 node n23 p1" transform="translate(-57.5 0.855324)"><g class="a23 c2 node n20 p2" transform="translate(46 3.2875)"><g class="a20 i13 leaf node n13 p2 sample" transform="translate(-23 0.353247)"><path class="edge" d="M 0 0 V -0.353247 H 23"/><rect class="sym" height="6" width="6" x="-3" y="-3"/><text class="lab" transform="translate(0 11)">13</text></g><g class="a20 i14 leaf node n14 p2 sample" transform="translate(23 0.353247)"><path class="edge" d="M 0 0 V -0.353247 H -23"/><rect class="sym" height="6" width="6" x="-3" y="-3"/><text class="lab" transform="translate(0 11)">14</text></g><path class="edge" d="M 0 0 V -3.2875 H -46"/><circle class="sym" cx="0" cy="0" r="3"/><text class="lab rgt" transform="translate(3 -7)">20</text></g><g class="a23 c2 node n21 p2" transform="translate(-46 2.87638)"><g class="a21 i3 leaf node n3 p1 sample" transform="translate(-23 0.764369)"><path class="edge" d="M 0 0 V -0.764369 H 23"/><rect class="sym" height="6" width="6" x="-3" y="-3"/><text class="lab" transform="translate(0 11)">3</text></g><g class="a21 i8 leaf node n8 p1 sample" transform="translate(23 0.764369)"><path class="edge" d="M 0 0 V -0.764369 H -23"/><rect class="sym" height="6" width="6" x="-3" y="-3"/><text class="lab" transform="translate(0 11)">8</text></g><path class="edge" d="M 0 0 V -2.87638 H 46"/><circle class="sym" cx="0" cy="0" r="3"/><text class="lab lft" transform="translate(-3 -7)">21</text></g><path class="edge" d="M 0 0 V -0.855324 H 57.5"/><circle class="sym" cx="0" cy="0" r="3"/><text class="lab lft" transform="translate(-3 -7)">23</text></g><path class="edge" d="M 0 0 V -74.9288 H 63.25"/><circle class="sym" cx="0" cy="0" r="3"/><text class="lab lft" transform="translate(-3 -7)">24</text></g><g class="a36 c2 node n29 p1" transform="translate(63.25 65.918)"><g class="a29 i7 leaf node n7 p1 sample" transform="translate(-23 13.5069)"><path class="edge" d="M 0 0 V -13.5069 H 23"/><rect class="sym" height="6" width="6" x="-3" y="-3"/><text class="lab" transform="translate(0 11)">7</text></g><g class="a29 i18 leaf node n18 p2 sample" transform="translate(23 13.5069)"><path class="edge" d="M 0 0 V -13.5069 H -23"/><rect class="sym" height="6" width="6" x="-3" y="-3"/><text class="lab" transform="translate(0 11)">18</text></g><path class="edge" d="M 0 0 V -65.918 H -63.25"/><circle class="sym" cx="0" cy="0" r="3"/><text class="lab rgt" transform="translate(3 -7)">29</text></g><path class="edge" d="M 0 0 V -86.9363 H -163.516"/><circle class="sym" cx="0" cy="0" r="3"/><text class="lab rgt" transform="translate(3 -7)">36</text></g><path class="edge" d="M 0 0 V -128.239 H 159.383"/><circle class="sym" cx="0" cy="0" r="3"/><text class="lab lft" transform="translate(-3 -7)">37</text></g><circle class="sym" cx="0" cy="0" r="3"/><text class="lab" transform="translate(0 -11)">38</text></g></g></g></g></g></svg>