<svg baseProfile="full" height="400" version="1.1" width="1000" xmlns="http://www.w3.org/2000/svg" xmlns:ev="http://www.w3.org/2001/xml-events" xmlns:xlink="http://www.w3.org/1999/xlink"><defs><style type="text/css"><![CDATA[.background path {fill: #808080; fill-opacity: 0}.background path:nth-child(odd) {fill-opacity: .1}.x-regions rect {fill: yellow; stroke: black; opacity: 0.5}.axes {font-size: 14px}.x-axis .tick .lab {font-weight: bold; dominant-baseline: hanging}.axes, .tree {font-size: 14px; text-anchor: middle}.axes line, .edge {stroke: black; fill: none}.axes .ax-skip {stroke-dasharray: 4}.y-axis .grid {stroke: #FAFAFA}.node > .sym {fill: black; stroke: none}.site > .sym {stroke: black}.mut text {fill: red; font-style: italic}.mut.extra text {fill: hotpink}.mut line {fill: none; stroke: none}.mut .sym {fill: none; stroke: red}.mut.extra .sym {stroke: hotpink}.node .mut .sym {stroke-width: 1.5px}.tree text, .tree-sequence text {dominant-baseline: central}.plotbox .lab.lft {text-anchor: end}.plotbox .lab.rgt {text-anchor: start}.polytomy line {stroke: black; stroke-dasharray: 1px, 1px}.polytomy text {paint-order:stroke;stroke-width:0.3em;stroke:white}]]></style></defs><g class="tree-sequence"><g class="background"><path d="M20,0 l960,0 l0,338.2 l0,25 l0,5 l-960,0 l0,-5 l0,-25 l0,-338.2z"/></g><g class="axes"><g class="x-axis"><g class="title" transform="translate(500 400)"><text class="lab" text-anchor="middle" transform="translate(0 -11)">Genome position</text></g><line class="ax-line" x1="20" x2="980" y1="363.2" y2="363.2"/><g class="ticks"><g class="tick" transform="translate(20 363.2)"><line x1="0" x2="0" y1="0" y2="5"/><g transform="translate(0 6)"><text class="lab">0</text></g></g><g class="tick" transform="translate(980 363.2)"><line x1="0" x2="0" y1="0" y2="5"/><g transform="translate(0 6)"><text class="lab">1000</text></g></g></g><g class="site s0" transform="translate(76.64 363.2)"><line class="sym" x1="0" x2="0" y1="0" y2="-10"/><g class="mut m0"><polyline class="sym" points="2.5,-6.5 0,-1.5 -2.5,-6.5"/></g></g><g class="site s1" transform="translate(252.32 363.2)"><line class="sym" x1="0" x2="0" y1="0" y2="-10"/><g class="mut m1"><polyline class="sym" points="2.5,-6.5 0,-1.5 -2.5,-6.5"/></g></g><g class="site s2" transform="translate(347.36 363.2)"><line class="sym" x1="0" x2="0" y1="0" y2="-10"/><g class="mut m2"><polyline class="sym" points="2.5,-6.5 0,-1.5 -2.5,-6.5"/></g></g><g class="site s3" transform="translate(665.12 363.2)"><line class="sym" x1="0" x2="0" y1="0" y2="-10"/><g class="mut m3"><polyline class="sym" points="2.5,-6.5 0,-1.5 -2.5,-6.5"/></g></g><g class="site s4" transform="translate(976.16 363.2)"><line class="sym" x1="0" x2="0" y1="0" y2="-10"/><g class="mut m4"><polyline class="sym" points="2.5,-6.5 0,-1.5 -2.5,-6.5"/></g></g></g></g><g class="plotbox trees"><g class="tree t0" transform="translate(20 0)"><g class="plotbox"><g class="c2 node n38 p1 root" transform="translate(620.965 26.8)"><g class="a38 c2 node n35 p2" transform="translate(189.66 236.105)"><g class="a35 c2 node n26 p1" transform="translate(83.375 49.0073)"><g class="a26 i8 leaf node n8 p1 sample" transform="translate(-23 9.4876)"><path class="edge" d="M 0 0 V -9.4876 H 23"/><rect class="sym" height="6" width="6" x="-3" y="-3"/><text class="lab" transform="translate(0 11)">8</text></g><g class="a26 i11 leaf node n11 p2 sample" transform="translate(23 9.4876)"><path class="edge" d="M 0 0 V -9.4876 H -23"/><rect class="sym" height="6" width="6" x="-3" y="-3"/><text class="lab" transform="translate(0 11)">11</text></g><path class="edge" d="M 0 0 V -49.0073 H -83.375"/><circle class="sym" cx="0" cy="0" r="3"/><text class="lab rgt" transform="translate(3 -7)">26</text></g><g class="a35 c2 node n34 p2" transform="translate(-83.375 22.4808)"><g class="a34 i1 leaf node n1 p1 sample" transform="translate(-40.25 36.014)"><path class="edge" d="M 0 0 V -36.014 H 40.25"/><rect class="sym" height="6" width="6" x="-3" y="-3"/><text class="lab" transform="translate(0 11)">1</text></g><g class="a34 c2 m0 node n31 p1 s0" transform="translate(40.25 17.8845)"><g class="a31 i5 leaf node n5 p1 sample" transform="translate(-34.5 18.1296)"><path class="edge" d="M 0 0 V -18.1296 H 34.5"/><rect class="sym" height="6" width="6" x="-3" y="-3"/><text class="lab" transform="translate(0 11)">5</text></g><g class="a31 c2 node n20 p1" transform="translate(34.5 17.3781)"><g class="a20 i9 leaf node n9 p1 sample" transform="translate(-23 0.751496)"><path class="edge" d="M 0 0 V -0.751496 H 23"/><rect class="sym" height="6" width="6" x="-3" y="-3"/><text class="lab" transform="translate(0 11)">9</text></g><g class="a20 i19 leaf node n19 p2 sample" transform="translate(23 0.751496)"><path class="edge" d="M 0 0 V -0.751496 H -23"/><rect class="sym" height="6" width="6" x="-3" y="-3"/><text class="lab" transform="translate(0 11)">19</text></g><path class="edge" d="M 0 0 V -17.3781 H -34.5"/><circle class="sym" cx="0" cy="0" r="3"/><text class="lab rgt" transform="translate(3 -7)">20</text></g><path class="edge" d="M 0 0 V -17.8845 H -40.25"/><g class="mut m0 s0" transform="translate(0 -1.57246)"><line x1="0" x2="0" y1="0" y2="1.57246"/><path class="sym" d="M -3,-3 l 6,6 M -3,3 l 6,-6"/><text class="lab rgt" transform="translate(5 0)">0</text></g><circle class="sym" cx="0" cy="0" r="3"/><text class="lab rgt" transform="translate(3 -7)">31</text></g><path class="edge" d="M 0 0 V -22.4808 H 83.375"/><circle class="sym" cx="0" cy="0" r="3"/><text class="lab lft" transform="translate(-3 -7)">34</text></g><path class="edge" d="M 0 0 V -236.105 H -189.66"/><circle class="sym" cx="0" cy="0" r="3"/><text class="lab rgt" transform="translate(3 -7)">35</text></g><g class="a38 c2 node n37 p1" transform="translate(-189.66 85.2396)"><g class="a37 c2 node n33 p1" transform="translate(-186.695 179.559)"><g class="a33 c2 node n25 p2" transform="translate(-178.609 21.579)"><g class="a25 i0 leaf node n0 p1 sample" transform="translate(-23 8.22201)"><path class="edge" d="M 0 0 V -8.22201 H 23"/><rect class="sym" height="6" width="6" x="-3" y="-3"/><text class="lab" transform="translate(0 11)">0</text></g><g class="a25 i13 leaf node n13 p2 sample" transform="translate(23 8.22201)"><path class="edge" d="M 0 0 V -8.22201 H -23"/><rect class="sym" height="6" width="6" x="-3" y="-3"/><text class="lab" transform="translate(0 11)">13</text></g><path class="edge" d="M 0 0 V -21.579 H 178.609"/><circle class="sym" cx="0" cy="0" r="3"/><text class="lab lft" transform="translate(-3 -7)">25</text></g><g class="a33 c2 node n32 p1" transform="translate(178.609 4.83501)"><g class="a32 c2 node n29 p2" transform="translate(91.2812 7.75754)"><g class="a29 i16 leaf node n16 p2 sample" transform="translate(34.5 17.2085)"><path class="edge" d="M 0 0 V -17.2085 H -34.5"/><rect class="sym" height="6" width="6" x="-3" y="-3"/><text class="lab" transform="translate(0 11)">16</text></g><g class="a29 c2 node n24 p2" transform="translate(-34.5 10.8331)"><g class="a24 i7 leaf node n7 p1 sample" transform="translate(-23 6.37539)"><path class="edge" d="M 0 0 V -6.37539 H 23"/><rect class="sym" height="6" width="6" x="-3" y="-3"/><text class="lab" transform="translate(0 11)">7</text></g><g class="a24 i15 leaf node n15 p2 sample" transform="translate(23 6.37539)"><path class="edge" d="M 0 0 V -6.37539 H -23"/><rect class="sym" height="6" width="6" x="-3" y="-3"/><text class="lab" transform="translate(0 11)">15</text></g><path class="edge" d="M 0 0 V -10.8331 H 34.5"/><circle class="sym" cx="0" cy="0" r="3"/><text class="lab lft" transform="translate(-3 -7)">24</text></g><path class="edge" d="M 0 0 V -7.75754 H -91.2812"/><circle class="sym" cx="0" cy="0" r="3"/><text class="lab rgt" transform="translate(3 -7)">29</text></g><g class="a32 c2 node n30 p2" transform="translate(-91.2812 7.54452)"><g class="a30 c2 node n23 p1" transform="translate(56.0625 11.8101)"><g class="a23 i4 leaf node n4 p1 sample" transform="translate(-23 5.61137)"><path class="edge" d="M 0 0 V -5.61137 H 23"/><rect class="sym" height="6" width="6" x="-3" y="-3"/><text class="lab" transform="translate(0 11)">4</text></g><g class="a23 i6 leaf node n6 p1 sample" transform="translate(23 5.61137)"><path class="edge" d="M 0 0 V -5.61137 H -23"/><rect class="sym" height="6" width="6" x="-3" y="-3"/><text class="lab" transform="translate(0 11)">6</text></g><path class="edge" d="M 0 0 V -11.8101 H -56.0625"/><circle class="sym" cx="0" cy="0" r="3"/><text class="lab rgt" transform="translate(3 -7)">23</text></g><g class="a30 c2 node n28 p2" transform="translate(-56.0625 4.22604)"><g class="a28 i12 leaf node n12 p2 sample" transform="translate(43.125 13.1954)"><path class="edge" d="M 0 0 V -13.1954 H -43.125"/><rect class="sym" height="6" width="6" x="-3" y="-3"/><text class="lab" transform="translate(0 11)">12</text></g><g class="a28 c2 node n27 p1" transform="translate(-43.125 2.93635)"><g class="a27 i14 leaf node n14 p2 sample" transform="translate(40.25 10.2591)"><path class="edge" d="M 0 0 V -10.2591 H -40.25"/><rect class="sym" height="6" width="6" x="-3" y="-3"/><text class="lab" transform="translate(0 11)">14</text></g><g class="a27 c2 node n22 p2" transform="translate(-40.25 4.94633)"><g class="a22 i10 leaf node n10 p2 sample" transform="translate(34.5 5.31275)"><path class="edge" d="M 0 0 V -5.31275 H -34.5"/><rect class="sym" height="6" width="6" x="-3" y="-3"/><text class="lab" transform="translate(0 11)">10</text></g><g class="a22 c2 node n21 p2" transform="translate(-34.5 3.03527)"><g class="a21 i2 leaf node n2 p1 sample" transform="translate(-23 2.27748)"><path class="edge" d="M 0 0 V -2.27748 H 23"/><rect class="sym" height="6" width="6" x="-3" y="-3"/><text class="lab" transform="translate(0 11)">2</text></g><g class="a21 i17 leaf m2 node n17 p2 s2 sample" transform="translate(23 2.27748)"><path class="edge" d="M 0 0 V -2.27748 H -23"/><g class="mut m2 s2" transform="translate(0 -1.82424)"><line x1="0" x2="0" y1="0" y2="1.82424"/><path class="sym" d="M -3,-3 l 6,6 M -3,3 l 6,-6"/><text class="lab rgt" transform="translate(5 0)">2</text></g><rect class="sym" height="6" width="6" x="-3" y="-3"/><text class="lab" transform="translate(0 11)">17</text></g><path class="edge" d="M 0 0 V -3.03527 H 34.5"/><circle class="sym" cx="0" cy="0" r="3"/><text class="lab lft" transform="translate(-3 -7)">21</text></g><path class="edge" d="M 0 0 V -4.94633 H 40.25"/><circle class="sym" cx="0" cy="0" r="3"/><text class="lab lft" transform="translate(-3 -7)">22</text></g><path class="edge" d="M 0 0 V -2.93635 H 43.125"/><circle class="sym" cx="0" cy="0" r="3"/><text class="lab lft" transform="translate(-3 -7)">27</text></g><path class="edge" d="M 0 0 V -4.22604 H 56.0625"/><circle class="sym" cx="0" cy="0" r="3"/><text class="lab lft" transform="translate(-3 -7)">28</text></g><path class="edge" d="M 0 0 V -7.54452 H 91.2812"/><circle class="sym" cx="0" cy="0" r="3"/><text class="lab lft" transform="translate(-3 -7)">30</text></g><path class="edge" d="M 0 0 V -4.83501 H -178.609"/><circle class="sym" cx="0" cy="0" r="3"/><text class="lab rgt" transform="translate(3 -7)">32</text></g><path class="edge" d="M 0 0 V -179.559 H 186.695"/><circle class="sym" cx="0" cy="0" r="3"/><text class="lab lft" transform="translate(-3 -7)">33</text></g><g class="a37 c2 node n36 p2" transform="translate(186.695 109.617)"><g class="a36 i3 leaf m1 node n3 p1 s1 sample" transform="translate(-23 99.7438)"><path class="edge" d="M 0 0 V -99.7438 H 23"/><g class="mut m1 s1" transform="translate(0 -62.6889)"><line x1="0" x2="0" y1="0" y2="62.6889"/><path class="sym" d="M -3,-3 l 6,6 M -3,3 l 6,-6"/><text class="lab lft" transform="translate(-5 0)">1</text></g><rect class="sym" height="6" width="6" x="-3" y="-3"/><text class="lab" transform="translate(0 11)">3</text></g><g class="a36 i18 leaf m3 m4 node n18 p2 s3 s4 sample" transform="translate(23 99.7438)"><path class="edge" d="M 0 0 V -99.7438 H -23"/><g class="mut m3 s3" transform="translate(0 -48.9644)"><line x1="0" x2="0" y1="0" y2="48.9644"/><path class="sym" d="M -3,-3 l 6,6 M -3,3 l 6,-6"/><text class="lab rgt" transform="translate(5 0)">3</text></g><g class="mut m4 s4" transform="translate(0 -25.3934)"><line x1="0" x2="0" y1="0" y2="25.3934"/><path class="sym" d="M -3,-3 l 6,6 M -3,3 l 6,-6"/><text class="lab rgt" transform="translate(5 0)">4</text></g><rect class="sym" height="6" width="6" x="-3" y="-3"/><text class="lab" transform="translate(0 11)">18</text></g><path class="edge" d="M 0 0 V -109.617 H -186.695"/><circle class="sym" cx="0" cy="0" r="3"/><text class="lab rgt" transform="translate(3 -7)">36</text></g><path class="edge" d="M 0 0 V -85.2396 H 189.66"/><circle class="sym" cx="0" cy="0" r="3"/><text class="lab lft" transform="translate(-3 -7)">37</text></g><circle class="sym" cx="0" cy="0" r="3"/><text class="lab" transform="translate(0 -11)">38</text></g></g></g></g></g></svg>