<svg baseProfile="full" height="400" version="1.1" width="1000" xmlns="http://www.w3.org/2000/svg" xmlns:ev="http://www.w3.org/2001/xml-events" xmlns:xlink="http://www.w3.org/1999/xlink"><defs><style type="text/css"><![CDATA[.background path {fill: #808080; fill-opacity: 0}.background path:nth-child(odd) {fill-opacity: .1}.x-regions rect {fill: yellow; stroke: black; opacity: 0.5}.axes {font-size: 14px}.x-axis .tick .lab {font-weight: bold; dominant-baseline: hanging}.axes, .tree {font-size: 14px; text-anchor: middle}.axes line, .edge {stroke: black; fill: none}.axes .ax-skip {stroke-dasharray: 4}.y-axis .grid {stroke: #FAFAFA}.node > .sym {fill: black; stroke: none}.site > .sym {stroke: black}.mut text {fill: red; font-style: italic}.mut.extra text {fill: hotpink}.mut line {fill: none; stroke: none}.mut .sym {fill: none; stroke: red}.mut.extra .sym {stroke: hotpink}.node .mut .sym {stroke-width: 1.5px}.tree text, .tree-sequence text {dominant-baseline: central}.plotbox .lab.lft {text-anchor: end}.plotbox .lab.rgt {text-anchor: start}.polytomy line {stroke: black; stroke-dasharray: 1px, 1px}.polytomy text {paint-order:stroke;stroke-width:0.3em;stroke:white}]]></style></defs><g class="tree-sequence"><g class="background"><path d="M20,0 l960,0 l0,338.2 l0,25 l0,5 l-960,0 l0,-5 l0,-25 l0,-338.2z"/></g><g class="axes"><g class="x-axis"><g class="title" transform="translate(500 400)"><text class="lab" text-anchor="middle" transform="translate(0 -11)">Genome position</text></g><line class="ax-line" x1="20" x2="980" y1="363.2" y2="363.2"/><g class="ticks"><g class="tick" transform="translate(20 363.2)"><line x1="0" x2="0" y1="0" y2="5"/><g transform="translate(0 6)"><text class="lab">0</text></g></g><g class="tick" transform="translate(980 363.2)"><line x1="0" x2="0" y1="0" y2="5"/><g transform="translate(0 6)"><text class="lab">1000</text></g></g></g><g class="site s0" transform="translate(35.36 363.2)"><line class="sym" x1="0" x2="0" y1="0" y2="-10"/><g class="mut m0"><polyline class="sym" points="2.5,-6.5 0,-1.5 -2.5,-6.5"/></g></g><g class="site s1" transform="translate(195.68 363.2)"><line class="sym" x1="0" x2="0" y1="0" y2="-10"/><g class="mut m1"><polyline class="sym" points="2.5,-6.5 0,-1.5 -2.5,-6.5"/></g></g><g class="site s2" transform="translate(230.24 363.2)"><line class="sym" x1="0" x2="0" y1="0" y2="-10"/><g class="mut m2"><polyline class="sym" points="2.5,-6.5 0,-1.5 -2.5,-6.5"/></g></g></g></g><g class="plotbox trees"><g class="tree t0" transform="translate(20 0)"><g class="plotbox"><g class="c2 node n38 p0 root" transform="translate(684.484 26.8)"><g class="a38 c2 node n35 p0" transform="translate(183.641 151.43)"><g class="a35 i14 leaf node n14 p2 sample" transform="translate(48.875 143.17)"><path class="edge" d="M 0 0 V -143.17 H -48.875"/><rect class="sym" height="6" width="6" x="-3" y="-3"/><text class="lab" transform="translate(0 11)">14</text></g><g class="a35 c2 node n27 p1" transform="translate(-48.875 104.783)"><g class="a27 i9 leaf node n9 p1 sample" transform="translate(51.75 38.3871)"><path class="edge" d="M 0 0 V -38.3871 H -51.75"/><rect class="sym" height="6" width="6" x="-3" y="-3"/><text class="lab" transform="translate(0 11)">9</text></g><g class="a27 c2 node n26 p2" transform="translate(-51.75 10.8309)"><g class="a26 i8 leaf node n8 p1 sample" transform="translate(-34.5 27.5562)"><path class="edge" d="M 0 0 V -27.5562 H 34.5"/><rect class="sym" height="6" width="6" x="-3" y="-3"/><text class="lab" transform="translate(0 11)">8</text></g><g class="a26 c2 node n24 p2" transform="translate(34.5 10.3833)"><g class="a24 i10 leaf node n10 p2 sample" transform="translate(-23 17.1729)"><path class="edge" d="M 0 0 V -17.1729 H 23"/><rect class="sym" height="6" width="6" x="-3" y="-3"/><text class="lab" transform="translate(0 11)">10</text></g><g class="a24 i11 leaf node n11 p2 sample" transform="translate(23 17.1729)"><path class="edge" d="M 0 0 V -17.1729 H -23"/><rect class="sym" height="6" width="6" x="-3" y="-3"/><text class="lab" transform="translate(0 11)">11</text></g><path class="edge" d="M 0 0 V -10.3833 H -34.5"/><circle class="sym" cx="0" cy="0" r="3"/><text class="lab rgt" transform="translate(3 -7)">24</text></g><path class="edge" d="M 0 0 V -10.8309 H 51.75"/><circle class="sym" cx="0" cy="0" r="3"/><text class="lab lft" transform="translate(-3 -7)">26</text></g><path class="edge" d="M 0 0 V -104.783 H 48.875"/><circle class="sym" cx="0" cy="0" r="3"/><text class="lab lft" transform="translate(-3 -7)">27</text></g><path class="edge" d="M 0 0 V -151.43 H -183.641"/><circle class="sym" cx="0" cy="0" r="3"/><text class="lab rgt" transform="translate(3 -7)">35</text></g><g class="a38 c2 node n37 p0" transform="translate(-183.641 116.929)"><g class="a37 i7 leaf node n7 p1 sample" transform="translate(186.156 177.671)"><path class="edge" d="M 0 0 V -177.671 H -186.156"/><rect class="sym" height="6" width="6" x="-3" y="-3"/><text class="lab" transform="translate(0 11)">7</text></g><g class="a37 c2 node n36 p0" transform="translate(-186.156 7.79555)"><g class="a36 c2 node n33 p2" transform="translate(-162.438 88.9929)"><g class="a33 c2 node n30 p2" transform="translate(-51.75 33.1911)"><g class="a30 i15 leaf node n15 p2 sample" transform="translate(34.5 47.6916)"><path class="edge" d="M 0 0 V -47.6916 H -34.5"/><rect class="sym" height="6" width="6" x="-3" y="-3"/><text class="lab" transform="translate(0 11)">15</text></g><g class="a30 c2 node n28 p1" transform="translate(-34.5 7.41706)"><g class="a28 i0 leaf node n0 p1 sample" transform="translate(-23 40.2745)"><path class="edge" d="M 0 0 V -40.2745 H 23"/><rect class="sym" height="6" width="6" x="-3" y="-3"/><text class="lab" transform="translate(0 11)">0</text></g><g class="a28 i4 leaf m2 node n4 p1 s2 sample" transform="translate(23 40.2745)"><path class="edge" d="M 0 0 V -40.2745 H -23"/><g class="mut m2 s2" transform="translate(0 -17.7556)"><line x1="0" x2="0" y1="0" y2="17.7556"/><path class="sym" d="M -3,-3 l 6,6 M -3,3 l 6,-6"/><text class="lab rgt" transform="translate(5 0)">2</text></g><rect class="sym" height="6" width="6" x="-3" y="-3"/><text class="lab" transform="translate(0 11)">4</text></g><path class="edge" d="M 0 0 V -7.41706 H 34.5"/><circle class="sym" cx="0" cy="0" r="3"/><text class="lab lft" transform="translate(-3 -7)">28</text></g><path class="edge" d="M 0 0 V -33.1911 H 51.75"/><circle class="sym" cx="0" cy="0" r="3"/><text class="lab lft" transform="translate(-3 -7)">30</text></g><g class="a33 c2 node n32 p2" transform="translate(51.75 13.7023)"><g class="a32 i3 leaf node n3 p1 sample" transform="translate(-23 67.1803)"><path class="edge" d="M 0 0 V -67.1803 H 23"/><rect class="sym" height="6" width="6" x="-3" y="-3"/><text class="lab" transform="translate(0 11)">3</text></g><g class="a32 i12 leaf node n12 p2 sample" transform="translate(23 67.1803)"><path class="edge" d="M 0 0 V -67.1803 H -23"/><rect class="sym" height="6" width="6" x="-3" y="-3"/><text class="lab" transform="translate(0 11)">12</text></g><path class="edge" d="M 0 0 V -13.7023 H -51.75"/><circle class="sym" cx="0" cy="0" r="3"/><text class="lab rgt" transform="translate(3 -7)">32</text></g><path class="edge" d="M 0 0 V -88.9929 H 162.438"/><circle class="sym" cx="0" cy="0" r="3"/><text class="lab lft" transform="translate(-3 -7)">33</text></g><g class="a36 c2 m0 node n34 p0 s0" transform="translate(162.438 78.7304)"><g class="a34 c2 m1 node n25 p2 s1" transform="translate(94.875 67.0626)"><g class="a25 c2 node n20 p1" transform="translate(-46 22.7742)"><g class="a20 i2 leaf node n2 p1 sample" transform="translate(-23 1.30834)"><path class="edge" d="M 0 0 V -1.30834 H 23"/><rect class="sym" height="6" width="6" x="-3" y="-3"/><text class="lab" transform="translate(0 11)">2</text></g><g class="a20 i19 leaf node n19 p2 sample" transform="translate(23 1.30834)"><path class="edge" d="M 0 0 V -1.30834 H -23"/><rect class="sym" height="6" width="6" x="-3" y="-3"/><text class="lab" transform="translate(0 11)">19</text></g><path class="edge" d="M 0 0 V -22.7742 H 46"/><circle class="sym" cx="0" cy="0" r="3"/><text class="lab lft" transform="translate(-3 -7)">20</text></g><g class="a25 c2 node n23 p2" transform="translate(46 9.90441)"><g class="a23 i13 leaf node n13 p2 sample" transform="translate(-23 14.1781)"><path class="edge" d="M 0 0 V -14.1781 H 23"/><rect class="sym" height="6" width="6" x="-3" y="-3"/><text class="lab" transform="translate(0 11)">13</text></g><g class="a23 i16 leaf node n16 p2 sample" transform="translate(23 14.1781)"><path class="edge" d="M 0 0 V -14.1781 H -23"/><rect class="sym" height="6" width="6" x="-3" y="-3"/><text class="lab" transform="translate(0 11)">16</text></g><path class="edge" d="M 0 0 V -9.90441 H -46"/><circle class="sym" cx="0" cy="0" r="3"/><text class="lab rgt" transform="translate(3 -7)">23</text></g><path class="edge" d="M 0 0 V -67.0626 H -94.875"/><g class="mut m1 s1" transform="translate(0 -42.387)"><line x1="0" x2="0" y1="0" y2="42.387"/><path class="sym" d="M -3,-3 l 6,6 M -3,3 l 6,-6"/><text class="lab rgt" transform="translate(5 0)">1</text></g><circle class="sym" cx="0" cy="0" r="3"/><text class="lab rgt" transform="translate(3 -7)">25</text></g><g class="a34 c2 node n31 p1" transform="translate(-94.875 24.6386)"><g class="a31 c2 node n22 p2" transform="translate(51.75 62.8318)"><g class="a22 i5 leaf node n5 p1 sample" transform="translate(-23 3.67476)"><path class="edge" d="M 0 0 V -3.67476 H 23"/><rect class="sym" height="6" width="6" x="-3" y="-3"/><text class="lab" transform="translate(0 11)">5</text></g><g class="a22 i17 leaf node n17 p2 sample" transform="translate(23 3.67476)"><path class="edge" d="M 0 0 V -3.67476 H -23"/><rect class="sym" height="6" width="6" x="-3" y="-3"/><text class="lab" transform="translate(0 11)">17</text></g><path class="edge" d="M 0 0 V -62.8318 H -51.75"/><circle class="sym" cx="0" cy="0" r="3"/><text class="lab rgt" transform="translate(3 -7)">22</text></g><g class="a31 c2 node n29 p1" transform="translate(-51.75 24.3249)"><g class="a29 i18 leaf node n18 p2 sample" transform="translate(34.5 42.1817)"><path class="edge" d="M 0 0 V -42.1817 H -34.5"/><rect class="sym" height="6" width="6" x="-3" y="-3"/><text class="lab" transform="translate(0 11)">18</text></g><g class="a29 c2 node n21 p1" transform="translate(-34.5 40.5824)"><g class="a21 i1 leaf node n1 p1 sample" transform="translate(-23 1.59929)"><path class="edge" d="M 0 0 V -1.59929 H 23"/><rect class="sym" height="6" width="6" x="-3" y="-3"/><text class="lab" transform="translate(0 11)">1</text></g><g class="a21 i6 leaf node n6 p1 sample" transform="translate(23 1.59929)"><path class="edge" d="M 0 0 V -1.59929 H -23"/><rect class="sym" height="6" width="6" x="-3" y="-3"/><text class="lab" transform="translate(0 11)">6</text></g><path class="edge" d="M 0 0 V -40.5824 H 34.5"/><circle class="sym" cx="0" cy="0" r="3"/><text class="lab lft" transform="translate(-3 -7)">21</text></g><path class="edge" d="M 0 0 V -24.3249 H 51.75"/><circle class="sym" cx="0" cy="0" r="3"/><text class="lab lft" transform="translate(-3 -7)">29</text></g><path class="edge" d="M 0 0 V -24.6386 H 94.875"/><circle class="sym" cx="0" cy="0" r="3"/><text class="lab lft" transform="translate(-3 -7)">31</text></g><path class="edge" d="M 0 0 V -78.7304 H -162.438"/><g class="mut m0 s0" transform="translate(0 -72.5898)"><line x1="0" x2="0" y1="0" y2="72.5898"/><path class="sym" d="M -3,-3 l 6,6 M -3,3 l 6,-6"/><text class="lab rgt" transform="translate(5 0)">0</text></g><circle class="sym" cx="0" cy="0" r="3"/><text class="lab rgt" transform="translate(3 -7)">34</text></g><path class="edge" d="M 0 0 V -7.79555 H 186.156"/><circle class="sym" cx="0" cy="0" r="3"/><text class="lab lft" transform="translate(-3 -7)">36</text></g><path class="edge" d="M 0 0 V -116.929 H 183.641"/><circle class="sym" cx="0" cy="0" r="3"/><text class="lab lft" transform="translate(-3 -7)">37</text></g><circle class="sym" cx="0" cy="0" r="3"/><text class="lab" transform="translate(0 -11)">38</text></g></g></g></g></g></svg>