<svg baseProfile="full" height="400" version="1.1" width="1000" xmlns="http://www.w3.org/2000/svg" xmlns:ev="http://www.w3.org/2001/xml-events" xmlns:xlink="http://www.w3.org/1999/xlink"><defs><style type="text/css"><![CDATA[.background path {fill: #808080; fill-opacity: 0}.background path:nth-child(odd) {fill-opacity: .1}.x-regions rect {fill: yellow; stroke: black; opacity: 0.5}.axes {font-size: 14px}.x-axis .tick .lab {font-weight: bold; dominant-baseline: hanging}.axes, .tree {font-size: 14px; text-anchor: middle}.axes line, .edge {stroke: black; fill: none}.axes .ax-skip {stroke-dasharray: 4}.y-axis .grid {stroke: #FAFAFA}.node > .sym {fill: black; stroke: none}.site > .sym {stroke: black}.mut text {fill: red; font-style: italic}.mut.extra text {fill: hotpink}.mut line {fill: none; stroke: none}.mut .sym {fill: none; stroke: red}.mut.extra .sym {stroke: hotpink}.node .mut .sym {stroke-width: 1.5px}.tree text, .tree-sequence text {dominant-baseline: central}.plotbox .lab.lft {text-anchor: end}.plotbox .lab.rgt {text-anchor: start}.polytomy line {stroke: black; stroke-dasharray: 1px, 1px}.polytomy text {paint-order:stroke;stroke-width:0.3em;stroke:white}]]></style></defs><g class="tree-sequence"><g class="background"><path d="M20,0 l960,0 l0,338.2 l0,25 l0,5 l-960,0 l0,-5 l0,-25 l0,-338.2z"/></g><g class="axes"><g class="x-axis"><g class="title" transform="translate(500 400)"><text class="lab" text-anchor="middle" transform="translate(0 -11)">Genome position</text></g><line class="ax-line" x1="20" x2="980" y1="363.2" y2="363.2"/><g class="ticks"><g class="tick" transform="translate(20 363.2)"><line x1="0" x2="0" y1="0" y2="5"/><g transform="translate(0 6)"><text class="lab">0</text></g></g><g class="tick" transform="translate(980 363.2)"><line x1="0" x2="0" y1="0" y2="5"/><g transform="translate(0 6)"><text class="lab">1000</text></g></g></g><g class="site s0" transform="translate(363.68 363.2)"><line class="sym" x1="0" x2="0" y1="0" y2="-10"/><g class="mut m0"><polyline class="sym" points="2.5,-6.5 0,-1.5 -2.5,-6.5"/></g></g><g class="site s1" transform="translate(444.32 363.2)"><line class="sym" x1="0" x2="0" y1="0" y2="-10"/><g class="mut m1"><polyline class="sym" points="2.5,-6.5 0,-1.5 -2.5,-6.5"/></g></g><g class="site s2" transform="translate(613.28 363.2)"><line class="sym" x1="0" x2="0" y1="0" y2="-10"/><g class="mut m2"><polyline class="sym" points="2.5,-6.5 0,-1.5 -2.5,-6.5"/></g></g><g class="site s3" transform="translate(632.48 363.2)"><line class="sym" x1="0" x2="0" y1="0" y2="-10"/><g class="mut m3"><polyline class="sym" points="2.5,-6.5 0,-1.5 -2.5,-6.5"/></g></g><g class="site s4" transform="translate(764 363.2)"><line class="sym" x1="0" x2="0" y1="0" y2="-10"/><g class="mut m4"><polyline class="sym" points="2.5,-6.5 0,-1.5 -2.5,-6.5"/></g></g><g class="site s5" transform="translate(806.24 363.2)"><line class="sym" x1="0" x2="0" y1="0" y2="-10"/><g class="mut m5"><polyline class="sym" points="2.5,-6.5 0,-1.5 -2.5,-6.5"/></g></g></g></g><g class="plotbox trees"><g class="tree t0" transform="translate(20 0)"><g class="plotbox"><g class="c2 node n38 p0 root" transform="translate(605.781 26.8)"><g class="a38 c2 m3 node n36 p2 s3" transform="translate(-253.719 245.981)"><g class="a36 c2 node n34 p1" transform="translate(-139.438 6.16152)"><g class="a34 i10 leaf m4 node n10 p2 s4 sample" transform="translate(60.375 42.457)"><path class="edge" d="M 0 0 V -42.457 H -60.375"/><g class="mut m4 s4" transform="translate(0 -14.6698)"><line x1="0" x2="0" y1="0" y2="14.6698"/><path class="sym" d="M -3,-3 l 6,6 M -3,3 l 6,-6"/><text class="lab rgt" transform="translate(5 0)">4</text></g><rect class="sym" height="6" width="6" x="-3" y="-3"/><text class="lab" transform="translate(0 11)">10</text></g><g class="a34 c2 node n32 p1" transform="translate(-60.375 20.431)"><g class="a32 c2 node n21 p2" transform="translate(51.75 21.623)"><g class="a21 i9 leaf node n9 p1 sample" transform="translate(-23 0.402984)"><path class="edge" d="M 0 0 V -0.402984 H 23"/><rect class="sym" height="6" width="6" x="-3" y="-3"/><text class="lab" transform="translate(0 11)">9</text></g><g class="a21 i12 leaf node n12 p2 sample" transform="translate(23 0.402984)"><path class="edge" d="M 0 0 V -0.402984 H -23"/><rect class="sym" height="6" width="6" x="-3" y="-3"/><text class="lab" transform="translate(0 11)">12</text></g><path class="edge" d="M 0 0 V -21.623 H -51.75"/><circle class="sym" cx="0" cy="0" r="3"/><text class="lab rgt" transform="translate(3 -7)">21</text></g><g class="a32 c2 node n31 p2" transform="translate(-51.75 2.07031)"><g class="a31 i5 leaf m2 node n5 p1 s2 sample" transform="translate(34.5 19.9557)"><path class="edge" d="M 0 0 V -19.9557 H -34.5"/><g class="mut m2 s2" transform="translate(0 -16.1831)"><line x1="0" x2="0" y1="0" y2="16.1831"/><path class="sym" d="M -3,-3 l 6,6 M -3,3 l 6,-6"/><text class="lab rgt" transform="translate(5 0)">2</text></g><rect class="sym" height="6" width="6" x="-3" y="-3"/><text class="lab" transform="translate(0 11)">5</text></g><g class="a31 c2 node n29 p1" transform="translate(-34.5 12.5205)"><g class="a29 i0 leaf node n0 p1 sample" transform="translate(-23 7.43521)"><path class="edge" d="M 0 0 V -7.43521 H 23"/><rect class="sym" height="6" width="6" x="-3" y="-3"/><text class="lab" transform="translate(0 11)">0</text></g><g class="a29 i17 leaf node n17 p2 sample" transform="translate(23 7.43521)"><path class="edge" d="M 0 0 V -7.43521 H -23"/><rect class="sym" height="6" width="6" x="-3" y="-3"/><text class="lab" transform="translate(0 11)">17</text></g><path class="edge" d="M 0 0 V -12.5205 H 34.5"/><circle class="sym" cx="0" cy="0" r="3"/><text class="lab lft" transform="translate(-3 -7)">29</text></g><path class="edge" d="M 0 0 V -2.07031 H 51.75"/><circle class="sym" cx="0" cy="0" r="3"/><text class="lab lft" transform="translate(-3 -7)">31</text></g><path class="edge" d="M 0 0 V -20.431 H 60.375"/><circle class="sym" cx="0" cy="0" r="3"/><text class="lab lft" transform="translate(-3 -7)">32</text></g><path class="edge" d="M 0 0 V -6.16152 H 139.438"/><circle class="sym" cx="0" cy="0" r="3"/><text class="lab lft" transform="translate(-3 -7)">34</text></g><g class="a36 c2 node n35 p2" transform="translate(139.438 4.3026)"><g class="a35 c2 node n28 p2" transform="translate(132.25 39.8543)"><g class="a28 c2 node n25 p1" transform="translate(86.25 1.66616)"><g class="a25 c2 node n22 p2" transform="translate(46 0.533426)"><g class="a22 i8 leaf node n8 p1 sample" transform="translate(-23 2.26204)"><path class="edge" d="M 0 0 V -2.26204 H 23"/><rect class="sym" height="6" width="6" x="-3" y="-3"/><text class="lab" transform="translate(0 11)">8</text></g><g class="a22 i13 leaf node n13 p2 sample" transform="translate(23 2.26204)"><path class="edge" d="M 0 0 V -2.26204 H -23"/><rect class="sym" height="6" width="6" x="-3" y="-3"/><text class="lab" transform="translate(0 11)">13</text></g><path class="edge" d="M 0 0 V -0.533426 H -46"/><circle class="sym" cx="0" cy="0" r="3"/><text class="lab rgt" transform="translate(3 -7)">22</text></g><g class="a25 c2 node n23 p2" transform="translate(-46 0.426131)"><g class="a23 i4 leaf node n4 p1 sample" transform="translate(-23 2.36933)"><path class="edge" d="M 0 0 V -2.36933 H 23"/><rect class="sym" height="6" width="6" x="-3" y="-3"/><text class="lab" transform="translate(0 11)">4</text></g><g class="a23 i18 leaf node n18 p2 sample" transform="translate(23 2.36933)"><path class="edge" d="M 0 0 V -2.36933 H -23"/><rect class="sym" height="6" width="6" x="-3" y="-3"/><text class="lab" transform="translate(0 11)">18</text></g><path class="edge" d="M 0 0 V -0.426131 H 46"/><circle class="sym" cx="0" cy="0" r="3"/><text class="lab lft" transform="translate(-3 -7)">23</text></g><path class="edge" d="M 0 0 V -1.66616 H -86.25"/><circle class="sym" cx="0" cy="0" r="3"/><text class="lab rgt" transform="translate(3 -7)">25</text></g><g class="a28 c2 node n26 p2" transform="translate(-86.25 1.65314)"><g class="a26 i2 leaf m1 node n2 p1 s1 sample" transform="translate(-34.5 2.80849)"><path class="edge" d="M 0 0 V -2.80849 H 34.5"/><g class="mut m1 s1" transform="translate(0 -1.30141)"><line x1="0" x2="0" y1="0" y2="1.30141"/><path class="sym" d="M -3,-3 l 6,6 M -3,3 l 6,-6"/><text class="lab lft" transform="translate(-5 0)">1</text></g><rect class="sym" height="6" width="6" x="-3" y="-3"/><text class="lab" transform="translate(0 11)">2</text></g><g class="a26 c2 node n24 p2" transform="translate(34.5 0.0993)"><g class="a24 i6 leaf node n6 p1 sample" transform="translate(-23 2.70919)"><path class="edge" d="M 0 0 V -2.70919 H 23"/><rect class="sym" height="6" width="6" x="-3" y="-3"/><text class="lab" transform="translate(0 11)">6</text></g><g class="a24 i14 leaf node n14 p2 sample" transform="translate(23 2.70919)"><path class="edge" d="M 0 0 V -2.70919 H -23"/><rect class="sym" height="6" width="6" x="-3" y="-3"/><text class="lab" transform="translate(0 11)">14</text></g><path class="edge" d="M 0 0 V -0.0993 H -34.5"/><circle class="sym" cx="0" cy="0" r="3"/><text class="lab rgt" transform="translate(3 -7)">24</text></g><path class="edge" d="M 0 0 V -1.65314 H 86.25"/><circle class="sym" cx="0" cy="0" r="3"/><text class="lab lft" transform="translate(-3 -7)">26</text></g><path class="edge" d="M 0 0 V -39.8543 H -132.25"/><circle class="sym" cx="0" cy="0" r="3"/><text class="lab rgt" transform="translate(3 -7)">28</text></g><g class="a35 c2 node n30 p2" transform="translate(-132.25 34.0139)"><g class="a30 i1 leaf node n1 p1 sample" transform="translate(-40.25 10.302)"><path class="edge" d="M 0 0 V -10.302 H 40.25"/><rect class="sym" height="6" width="6" x="-3" y="-3"/><text class="lab" transform="translate(0 11)">1</text></g><g class="a30 c2 node n27 p1" transform="translate(40.25 5.91676)"><g class="a27 i7 leaf node n7 p1 sample" transform="translate(-34.5 4.38523)"><path class="edge" d="M 0 0 V -4.38523 H 34.5"/><rect class="sym" height="6" width="6" x="-3" y="-3"/><text class="lab" transform="translate(0 11)">7</text></g><g class="a27 c2 m0 node n20 p2 s0" transform="translate(34.5 4.12899)"><g class="a20 i15 leaf node n15 p2 sample" transform="translate(-23 0.256245)"><path class="edge" d="M 0 0 V -0.256245 H 23"/><rect class="sym" height="6" width="6" x="-3" y="-3"/><text class="lab" transform="translate(0 11)">15</text></g><g class="a20 i16 leaf node n16 p2 sample" transform="translate(23 0.256245)"><path class="edge" d="M 0 0 V -0.256245 H -23"/><rect class="sym" height="6" width="6" x="-3" y="-3"/><text class="lab" transform="translate(0 11)">16</text></g><path class="edge" d="M 0 0 V -4.12899 H -34.5"/><g class="mut m0 s0" transform="translate(0 -1.78355)"><line x1="0" x2="0" y1="0" y2="1.78355"/><path class="sym" d="M -3,-3 l 6,6 M -3,3 l 6,-6"/><text class="lab rgt" transform="translate(5 0)">0</text></g><circle class="sym" cx="0" cy="0" r="3"/><text class="lab rgt" transform="translate(3 -7)">20</text></g><path class="edge" d="M 0 0 V -5.91676 H -40.25"/><circle class="sym" cx="0" cy="0" r="3"/><text class="lab rgt" transform="translate(3 -7)">27</text></g><path class="edge" d="M 0 0 V -34.0139 H 132.25"/><circle class="sym" cx="0" cy="0" r="3"/><text class="lab lft" transform="translate(-3 -7)">30</text></g><path class="edge" d="M 0 0 V -4.3026 H -139.438"/><circle class="sym" cx="0" cy="0" r="3"/><text class="lab rgt" transform="translate(3 -7)">35</text></g><path class="edge" d="M 0 0 V -245.981 H 253.719"/><g class="mut m3 s3" transform="translate(0 -97.959)"><line x1="0" x2="0" y1="0" y2="97.959"/><path class="sym" d="M -3,-3 l 6,6 M -3,3 l 6,-6"/><text class="lab lft" transform="translate(-5 0)">3</text></g><circle class="sym" cx="0" cy="0" r="3"/><text class="lab lft" transform="translate(-3 -7)">36</text></g><g class="a38 c2 node n37 p0" transform="translate(253.719 218.792)"><g class="a37 i3 leaf m5 node n3 p1 s5 sample" transform="translate(-34.5 75.8084)"><path class="edge" d="M 0 0 V -75.8084 H 34.5"/><g class="mut m5 s5" transform="translate(0 -8.04589)"><line x1="0" x2="0" y1="0" y2="8.04589"/><path class="sym" d="M -3,-3 l 6,6 M -3,3 l 6,-6"/><text class="lab lft" transform="translate(-5 0)">5</text></g><rect class="sym" height="6" width="6" x="-3" y="-3"/><text class="lab" transform="translate(0 11)">3</text></g><g class="a37 c2 node n33 p2" transform="translate(34.5 52.4394)"><g class="a33 i11 leaf node n11 p2 sample" transform="translate(-23 23.369)"><path class="edge" d="M 0 0 V -23.369 H 23"/><rect class="sym" height="6" width="6" x="-3" y="-3"/><text class="lab" transform="translate(0 11)">11</text></g><g class="a33 i19 leaf node n19 p2 sample" transform="translate(23 23.369)"><path class="edge" d="M 0 0 V -23.369 H -23"/><rect class="sym" height="6" width="6" x="-3" y="-3"/><text class="lab" transform="translate(0 11)">19</text></g><path class="edge" d="M 0 0 V -52.4394 H -34.5"/><circle class="sym" cx="0" cy="0" r="3"/><text class="lab rgt" transform="translate(3 -7)">33</text></g><path class="edge" d="M 0 0 V -218.792 H -253.719"/><circle class="sym" cx="0" cy="0" r="3"/><text class="lab rgt" transform="translate(3 -7)">37</text></g><circle class="sym" cx="0" cy="0" r="3"/><text class="lab" transform="translate(0 -11)">38</text></g></g></g></g></g></svg>