<svg baseProfile="full" height="400" version="1.1" width="1000" xmlns="http://www.w3.org/2000/svg" xmlns:ev="http://www.w3.org/2001/xml-events" xmlns:xlink="http://www.w3.org/1999/xlink"><defs><style type="text/css"><![CDATA[.background path {fill: #808080; fill-opacity: 0}.background path:nth-child(odd) {fill-opacity: .1}.x-regions rect {fill: yellow; stroke: black; opacity: 0.5}.axes {font-size: 14px}.x-axis .tick .lab {font-weight: bold; dominant-baseline: hanging}.axes, .tree {font-size: 14px; text-anchor: middle}.axes line, .edge {stroke: black; fill: none}.axes .ax-skip {stroke-dasharray: 4}.y-axis .grid {stroke: #FAFAFA}.node > .sym {fill: black; stroke: none}.site > .sym {stroke: black}.mut text {fill: red; font-style: italic}.mut.extra text {fill: hotpink}.mut line {fill: none; stroke: none}.mut .sym {fill: none; stroke: red}.mut.extra .sym {stroke: hotpink}.node .mut .sym {stroke-width: 1.5px}.tree text, .tree-sequence text {dominant-baseline: central}.plotbox .lab.lft {text-anchor: end}.plotbox .lab.rgt {text-anchor: start}.polytomy line {stroke: black; stroke-dasharray: 1px, 1px}.polytomy text {paint-order:stroke;stroke-width:0.3em;stroke:white}]]></style></defs><g class="tree-sequence"><g class="background"><path d="M20,0 l960,0 l0,338.2 l0,25 l0,5 l-960,0 l0,-5 l0,-25 l0,-338.2z"/></g><g class="axes"><g class="x-axis"><g class="title" transform="translate(500 400)"><text class="lab" text-anchor="middle" transform="translate(0 -11)">Genome position</text></g><line class="ax-line" x1="20" x2="980" y1="363.2" y2="363.2"/><g class="ticks"><g class="tick" transform="translate(20 363.2)"><line x1="0" x2="0" y1="0" y2="5"/><g transform="translate(0 6)"><text class="lab">0</text></g></g><g class="tick" transform="translate(980 363.2)"><line x1="0" x2="0" y1="0" y2="5"/><g transform="translate(0 6)"><text class="lab">1000</text></g></g></g><g class="site s0" transform="translate(120.8 363.2)"><line class="sym" x1="0" x2="0" y1="0" y2="-10"/><g class="mut m0"><polyline class="sym" points="2.5,-6.5 0,-1.5 -2.5,-6.5"/></g></g><g class="site s1" transform="translate(392.48 363.2)"><line class="sym" x1="0" x2="0" y1="0" y2="-10"/><g class="mut m1"><polyline class="sym" points="2.5,-6.5 0,-1.5 -2.5,-6.5"/></g></g><g class="site s2" transform="translate(623.84 363.2)"><line class="sym" x1="0" x2="0" y1="0" y2="-10"/><g class="mut m2"><polyline class="sym" points="2.5,-6.5 0,-1.5 -2.5,-6.5"/></g></g></g></g><g class="plotbox trees"><g class="tree t0" transform="translate(20 0)"><g class="plotbox"><g class="c2 node n38 p0 root" transform="translate(716.109 26.8)"><g class="a38 i3 leaf m1 m2 node n3 p1 s1 s2 sample" transform="translate(200.891 294.6)"><path class="edge" d="M 0 0 V -294.6 H -200.891"/><g class="mut m1 s1" transform="translate(0 -86.21)"><line x1="0" x2="0" y1="0" y2="86.21"/><path class="sym" d="M -3,-3 l 6,6 M -3,3 l 6,-6"/><text class="lab rgt" transform="translate(5 0)">1</text></g><g class="mut m2 s2" transform="translate(0 -85.9799)"><line x1="0" x2="0" y1="0" y2="85.9799"/><path class="sym" d="M -3,-3 l 6,6 M -3,3 l 6,-6"/><text class="lab rgt" transform="translate(5 0)">2</text></g><rect class="sym" height="6" width="6" x="-3" y="-3"/><text class="lab" transform="translate(0 11)">3</text></g><g class="a38 c2 node n37 p2" transform="translate(-200.891 220.216)"><g class="a37 c2 node n34 p1" transform="translate(177.531 53.7953)"><g class="a34 c2 node n29 p2" transform="translate(-120.75 10.7598)"><g class="a29 c2 node n20 p2" transform="translate(-46 9.78423)"><g class="a20 i2 leaf node n2 p1 sample" transform="translate(-23 0.0451125)"><path class="edge" d="M 0 0 V -0.0451125 H 23"/><rect class="sym" height="6" width="6" x="-3" y="-3"/><text class="lab" transform="translate(0 11)">2</text></g><g class="a20 i11 leaf node n11 p2 sample" transform="translate(23 0.0451125)"><path class="edge" d="M 0 0 V -0.0451125 H -23"/><rect class="sym" height="6" width="6" x="-3" y="-3"/><text class="lab" transform="translate(0 11)">11</text></g><path class="edge" d="M 0 0 V -9.78423 H 46"/><circle class="sym" cx="0" cy="0" r="3"/><text class="lab lft" transform="translate(-3 -7)">20</text></g><g class="a29 c2 node n22 p1" transform="translate(46 8.25966)"><g class="a22 i5 leaf node n5 p1 sample" transform="translate(-23 1.56968)"><path class="edge" d="M 0 0 V -1.56968 H 23"/><rect class="sym" height="6" width="6" x="-3" y="-3"/><text class="lab" transform="translate(0 11)">5</text></g><g class="a22 i16 leaf node n16 p2 sample" transform="translate(23 1.56968)"><path class="edge" d="M 0 0 V -1.56968 H -23"/><rect class="sym" height="6" width="6" x="-3" y="-3"/><text class="lab" transform="translate(0 11)">16</text></g><path class="edge" d="M 0 0 V -8.25966 H -46"/><circle class="sym" cx="0" cy="0" r="3"/><text class="lab rgt" transform="translate(3 -7)">22</text></g><path class="edge" d="M 0 0 V -10.7598 H 120.75"/><circle class="sym" cx="0" cy="0" r="3"/><text class="lab lft" transform="translate(-3 -7)">29</text></g><g class="a34 c2 node n32 p1" transform="translate(120.75 6.34595)"><g class="a32 i17 leaf node n17 p2 sample" transform="translate(57.5 14.2432)"><path class="edge" d="M 0 0 V -14.2432 H -57.5"/><rect class="sym" height="6" width="6" x="-3" y="-3"/><text class="lab" transform="translate(0 11)">17</text></g><g class="a32 c2 node n30 p1" transform="translate(-57.5 0.700912)"><g class="a30 c2 node n23 p2" transform="translate(46 9.25399)"><g class="a23 i12 leaf node n12 p2 sample" transform="translate(-23 4.2883)"><path class="edge" d="M 0 0 V -4.2883 H 23"/><rect class="sym" height="6" width="6" x="-3" y="-3"/><text class="lab" transform="translate(0 11)">12</text></g><g class="a23 i19 leaf node n19 p2 sample" transform="translate(23 4.2883)"><path class="edge" d="M 0 0 V -4.2883 H -23"/><rect class="sym" height="6" width="6" x="-3" y="-3"/><text class="lab" transform="translate(0 11)">19</text></g><path class="edge" d="M 0 0 V -9.25399 H -46"/><circle class="sym" cx="0" cy="0" r="3"/><text class="lab rgt" transform="translate(3 -7)">23</text></g><g class="a30 c2 node n24 p1" transform="translate(-46 9.00687)"><g class="a24 i7 leaf node n7 p1 sample" transform="translate(-23 4.53542)"><path class="edge" d="M 0 0 V -4.53542 H 23"/><rect class="sym" height="6" width="6" x="-3" y="-3"/><text class="lab" transform="translate(0 11)">7</text></g><g class="a24 i10 leaf node n10 p2 sample" transform="translate(23 4.53542)"><path class="edge" d="M 0 0 V -4.53542 H -23"/><rect class="sym" height="6" width="6" x="-3" y="-3"/><text class="lab" transform="translate(0 11)">10</text></g><path class="edge" d="M 0 0 V -9.00687 H 46"/><circle class="sym" cx="0" cy="0" r="3"/><text class="lab lft" transform="translate(-3 -7)">24</text></g><path class="edge" d="M 0 0 V -0.700912 H 57.5"/><circle class="sym" cx="0" cy="0" r="3"/><text class="lab lft" transform="translate(-3 -7)">30</text></g><path class="edge" d="M 0 0 V -6.34595 H -120.75"/><circle class="sym" cx="0" cy="0" r="3"/><text class="lab rgt" transform="translate(3 -7)">32</text></g><path class="edge" d="M 0 0 V -53.7953 H -177.531"/><circle class="sym" cx="0" cy="0" r="3"/><text class="lab rgt" transform="translate(3 -7)">34</text></g><g class="a37 c2 node n36 p1" transform="translate(-177.531 44.8547)"><g class="a36 i14 leaf node n14 p2 sample" transform="translate(119.312 29.5298)"><path class="edge" d="M 0 0 V -29.5298 H -119.312"/><rect class="sym" height="6" width="6" x="-3" y="-3"/><text class="lab" transform="translate(0 11)">14</text></g><g class="a36 c2 node n35 p2" transform="translate(-119.312 8.48624)"><g class="a35 c2 node n31 p2" transform="translate(106.375 7.16542)"><g class="a31 c2 node n21 p2" transform="translate(63.25 13.3638)"><g class="a21 i9 leaf node n9 p1 sample" transform="translate(-23 0.514254)"><path class="edge" d="M 0 0 V -0.514254 H 23"/><rect class="sym" height="6" width="6" x="-3" y="-3"/><text class="lab" transform="translate(0 11)">9</text></g><g class="a21 i13 leaf node n13 p2 sample" transform="translate(23 0.514254)"><path class="edge" d="M 0 0 V -0.514254 H -23"/><rect class="sym" height="6" width="6" x="-3" y="-3"/><text class="lab" transform="translate(0 11)">13</text></g><path class="edge" d="M 0 0 V -13.3638 H -63.25"/><circle class="sym" cx="0" cy="0" r="3"/><text class="lab rgt" transform="translate(3 -7)">21</text></g><g class="a31 c2 node n28 p1" transform="translate(-63.25 4.63809)"><g class="a28 i6 leaf node n6 p1 sample" transform="translate(-34.5 9.24001)"><path class="edge" d="M 0 0 V -9.24001 H 34.5"/><rect class="sym" height="6" width="6" x="-3" y="-3"/><text class="lab" transform="translate(0 11)">6</text></g><g class="a28 c2 node n26 p2" transform="translate(34.5 1.87479)"><g class="a26 i15 leaf node n15 p2 sample" transform="translate(-23 7.36522)"><path class="edge" d="M 0 0 V -7.36522 H 23"/><rect class="sym" height="6" width="6" x="-3" y="-3"/><text class="lab" transform="translate(0 11)">15</text></g><g class="a26 i18 leaf node n18 p2 sample" transform="translate(23 7.36522)"><path class="edge" d="M 0 0 V -7.36522 H -23"/><rect class="sym" height="6" width="6" x="-3" y="-3"/><text class="lab" transform="translate(0 11)">18</text></g><path class="edge" d="M 0 0 V -1.87479 H -34.5"/><circle class="sym" cx="0" cy="0" r="3"/><text class="lab rgt" transform="translate(3 -7)">26</text></g><path class="edge" d="M 0 0 V -4.63809 H 63.25"/><circle class="sym" cx="0" cy="0" r="3"/><text class="lab lft" transform="translate(-3 -7)">28</text></g><path class="edge" d="M 0 0 V -7.16542 H -106.375"/><circle class="sym" cx="0" cy="0" r="3"/><text class="lab rgt" transform="translate(3 -7)">31</text></g><g class="a35 c2 node n33 p1" transform="translate(-106.375 6.19564)"><g class="a33 c2 node n25 p1" transform="translate(46 8.88406)"><g class="a25 i1 leaf node n1 p1 sample" transform="translate(-23 5.96382)"><path class="edge" d="M 0 0 V -5.96382 H 23"/><rect class="sym" height="6" width="6" x="-3" y="-3"/><text class="lab" transform="translate(0 11)">1</text></g><g class="a25 i8 leaf node n8 p1 sample" transform="translate(23 5.96382)"><path class="edge" d="M 0 0 V -5.96382 H -23"/><rect class="sym" height="6" width="6" x="-3" y="-3"/><text class="lab" transform="translate(0 11)">8</text></g><path class="edge" d="M 0 0 V -8.88406 H -46"/><circle class="sym" cx="0" cy="0" r="3"/><text class="lab rgt" transform="translate(3 -7)">25</text></g><g class="a33 c2 node n27 p1" transform="translate(-46 6.26479)"><g class="a27 i0 leaf m0 node n0 p1 s0 sample" transform="translate(-23 8.58309)"><path class="edge" d="M 0 0 V -8.58309 H 23"/><g class="mut m0 s0" transform="translate(0 -5.76459)"><line x1="0" x2="0" y1="0" y2="5.76459"/><path class="sym" d="M -3,-3 l 6,6 M -3,3 l 6,-6"/><text class="lab lft" transform="translate(-5 0)">0</text></g><rect class="sym" height="6" width="6" x="-3" y="-3"/><text class="lab" transform="translate(0 11)">0</text></g><g class="a27 i4 leaf node n4 p1 sample" transform="translate(23 8.58309)"><path class="edge" d="M 0 0 V -8.58309 H -23"/><rect class="sym" height="6" width="6" x="-3" y="-3"/><text class="lab" transform="translate(0 11)">4</text></g><path class="edge" d="M 0 0 V -6.26479 H 46"/><circle class="sym" cx="0" cy="0" r="3"/><text class="lab lft" transform="translate(-3 -7)">27</text></g><path class="edge" d="M 0 0 V -6.19564 H 106.375"/><circle class="sym" cx="0" cy="0" r="3"/><text class="lab lft" transform="translate(-3 -7)">33</text></g><path class="edge" d="M 0 0 V -8.48624 H 119.312"/><circle class="sym" cx="0" cy="0" r="3"/><text class="lab lft" transform="translate(-3 -7)">35</text></g><path class="edge" d="M 0 0 V -44.8547 H 177.531"/><circle class="sym" cx="0" cy="0" r="3"/><text class="lab lft" transform="translate(-3 -7)">36</text></g><path class="edge" d="M 0 0 V -220.216 H 200.891"/><circle class="sym" cx="0" cy="0" r="3"/><text class="lab lft" transform="translate(-3 -7)">37</text></g><circle class="sym" cx="0" cy="0" r="3"/><text class="lab" transform="translate(0 -11)">38</text></g></g></g></g></g></svg>