<svg baseProfile="full" height="400" version="1.1" width="1000" xmlns="http://www.w3.org/2000/svg" xmlns:ev="http://www.w3.org/2001/xml-events" xmlns:xlink="http://www.w3.org/1999/xlink"><defs><style type="text/css"><![CDATA[.background path {fill: #808080; fill-opacity: 0}.background path:nth-child(odd) {fill-opacity: .1}.x-regions rect {fill: yellow; stroke: black; opacity: 0.5}.axes {font-size: 14px}.x-axis .tick .lab {font-weight: bold; dominant-baseline: hanging}.axes, .tree {font-size: 14px; text-anchor: middle}.axes line, .edge {stroke: black; fill: none}.axes .ax-skip {stroke-dasharray: 4}.y-axis .grid {stroke: #FAFAFA}.node > .sym {fill: black; stroke: none}.site > .sym {stroke: black}.mut text {fill: red; font-style: italic}.mut.extra text {fill: hotpink}.mut line {fill: none; stroke: none}.mut .sym {fill: none; stroke: red}.mut.extra .sym {stroke: hotpink}.node .mut .sym {stroke-width: 1.5px}.tree text, .tree-sequence text {dominant-baseline: central}.plotbox .lab.lft {text-anchor: end}.plotbox .lab.rgt {text-anchor: start}.polytomy line {stroke: black; stroke-dasharray: 1px, 1px}.polytomy text {paint-order:stroke;stroke-width:0.3em;stroke:white}]]></style></defs><g class="tree-sequence"><g class="background"><path d="M20,0 l960,0 l0,338.2 l0,25 l0,5 l-960,0 l0,-5 l0,-25 l0,-338.2z"/></g><g class="axes"><g class="x-axis"><g class="title" transform="translate(500 400)"><text class="lab" text-anchor="middle" transform="translate(0 -11)">Genome position</text></g><line class="ax-line" x1="20" x2="980" y1="363.2" y2="363.2"/><g class="ticks"><g class="tick" transform="translate(20 363.2)"><line x1="0" x2="0" y1="0" y2="5"/><g transform="translate(0 6)"><text class="lab">0</text></g></g><g class="tick" transform="translate(980 363.2)"><line x1="0" x2="0" y1="0" y2="5"/><g transform="translate(0 6)"><text class="lab">1000</text></g></g></g><g class="site s0" transform="translate(155.36 363.2)"><line class="sym" x1="0" x2="0" y1="0" y2="-10"/><g class="mut m0"><polyline class="sym" points="2.5,-6.5 0,-1.5 -2.5,-6.5"/></g></g><g class="site s1" transform="translate(577.76 363.2)"><line class="sym" x1="0" x2="0" y1="0" y2="-10"/><g class="mut m1"><polyline class="sym" points="2.5,-6.5 0,-1.5 -2.5,-6.5"/></g></g><g class="site s2" transform="translate(596.96 363.2)"><line class="sym" x1="0" x2="0" y1="0" y2="-10"/><g class="mut m2"><polyline class="sym" points="2.5,-6.5 0,-1.5 -2.5,-6.5"/></g></g><g class="site s3" transform="translate(882.08 363.2)"><line class="sym" x1="0" x2="0" y1="0" y2="-10"/><g class="mut m3"><polyline class="sym" points="2.5,-6.5 0,-1.5 -2.5,-6.5"/></g></g></g></g><g class="plotbox trees"><g class="tree t0" transform="translate(20 0)"><g class="plotbox"><g class="c2 node n38 p0 root" transform="translate(557.805 26.8)"><g class="a38 c2 m1 node n36 p1 s1" transform="translate(287.68 205.601)"><g class="a36 i14 leaf node n14 p2 sample" transform="translate(71.5156 88.9991)"><path class="edge" d="M 0 0 V -88.9991 H -71.5156"/><rect class="sym" height="6" width="6" x="-3" y="-3"/><text class="lab" transform="translate(0 11)">14</text></g><g class="a36 c2 node n35 p1" transform="translate(-71.5156 3.90888)"><g class="a35 c2 node n32 p1" transform="translate(-74.0312 63.0065)"><g class="a32 c2 node n20 p2" transform="translate(56.0625 22.0277)"><g class="a20 i12 leaf node n12 p2 sample" transform="translate(-23 0.0561412)"><path class="edge" d="M 0 0 V -0.0561412 H 23"/><rect class="sym" height="6" width="6" x="-3" y="-3"/><text class="lab" transform="translate(0 11)">12</text></g><g class="a20 i15 leaf node n15 p2 sample" transform="translate(23 0.0561412)"><path class="edge" d="M 0 0 V -0.0561412 H -23"/><rect class="sym" height="6" width="6" x="-3" y="-3"/><text class="lab" transform="translate(0 11)">15</text></g><path class="edge" d="M 0 0 V -22.0277 H -56.0625"/><circle class="sym" cx="0" cy="0" r="3"/><text class="lab rgt" transform="translate(3 -7)">20</text></g><g class="a32 c2 node n31 p1" transform="translate(-56.0625 2.27476)"><g class="a31 i9 leaf node n9 p1 sample" transform="translate(43.125 19.8091)"><path class="edge" d="M 0 0 V -19.8091 H -43.125"/><rect class="sym" height="6" width="6" x="-3" y="-3"/><text class="lab" transform="translate(0 11)">9</text></g><g class="a31 c2 node n25 p1" transform="translate(-43.125 13.3918)"><g class="a25 i3 leaf node n3 p1 sample" transform="translate(40.25 6.41723)"><path class="edge" d="M 0 0 V -6.41723 H -40.25"/><rect class="sym" height="6" width="6" x="-3" y="-3"/><text class="lab" transform="translate(0 11)">3</text></g><g class="a25 c2 node n22 p1" transform="translate(-40.25 4.31482)"><g class="a22 i18 leaf node n18 p2 sample" transform="translate(34.5 2.10241)"><path class="edge" d="M 0 0 V -2.10241 H -34.5"/><rect class="sym" height="6" width="6" x="-3" y="-3"/><text class="lab" transform="translate(0 11)">18</text></g><g class="a22 c2 node n21 p2" transform="translate(-34.5 1.11248)"><g class="a21 i2 leaf node n2 p1 sample" transform="translate(-23 0.989924)"><path class="edge" d="M 0 0 V -0.989924 H 23"/><rect class="sym" height="6" width="6" x="-3" y="-3"/><text class="lab" transform="translate(0 11)">2</text></g><g class="a21 i10 leaf node n10 p2 sample" transform="translate(23 0.989924)"><path class="edge" d="M 0 0 V -0.989924 H -23"/><rect class="sym" height="6" width="6" x="-3" y="-3"/><text class="lab" transform="translate(0 11)">10</text></g><path class="edge" d="M 0 0 V -1.11248 H 34.5"/><circle class="sym" cx="0" cy="0" r="3"/><text class="lab lft" transform="translate(-3 -7)">21</text></g><path class="edge" d="M 0 0 V -4.31482 H 40.25"/><circle class="sym" cx="0" cy="0" r="3"/><text class="lab lft" transform="translate(-3 -7)">22</text></g><path class="edge" d="M 0 0 V -13.3918 H 43.125"/><circle class="sym" cx="0" cy="0" r="3"/><text class="lab lft" transform="translate(-3 -7)">25</text></g><path class="edge" d="M 0 0 V -2.27476 H 56.0625"/><circle class="sym" cx="0" cy="0" r="3"/><text class="lab lft" transform="translate(-3 -7)">31</text></g><path class="edge" d="M 0 0 V -63.0065 H 74.0312"/><circle class="sym" cx="0" cy="0" r="3"/><text class="lab lft" transform="translate(-3 -7)">32</text></g><g class="a35 c2 node n34 p1" transform="translate(74.0312 42.8809)"><g class="a34 i4 leaf node n4 p1 sample" transform="translate(-23 42.2094)"><path class="edge" d="M 0 0 V -42.2094 H 23"/><rect class="sym" height="6" width="6" x="-3" y="-3"/><text class="lab" transform="translate(0 11)">4</text></g><g class="a34 i5 leaf node n5 p1 sample" transform="translate(23 42.2094)"><path class="edge" d="M 0 0 V -42.2094 H -23"/><rect class="sym" height="6" width="6" x="-3" y="-3"/><text class="lab" transform="translate(0 11)">5</text></g><path class="edge" d="M 0 0 V -42.8809 H -74.0312"/><circle class="sym" cx="0" cy="0" r="3"/><text class="lab rgt" transform="translate(3 -7)">34</text></g><path class="edge" d="M 0 0 V -3.90888 H 71.5156"/><circle class="sym" cx="0" cy="0" r="3"/><text class="lab lft" transform="translate(-3 -7)">35</text></g><path class="edge" d="M 0 0 V -205.601 H -287.68"/><g class="mut m1 s1" transform="translate(0 -112.399)"><line x1="0" x2="0" y1="0" y2="112.399"/><path class="sym" d="M -3,-3 l 6,6 M -3,3 l 6,-6"/><text class="lab rgt" transform="translate(5 0)">1</text></g><circle class="sym" cx="0" cy="0" r="3"/><text class="lab rgt" transform="translate(3 -7)">36</text></g><g class="a38 c2 node n37 p2" transform="translate(-287.68 182.536)"><g class="a37 c2 node n30 p1" transform="translate(-129.375 92.3392)"><g class="a30 c2 node n23 p2" transform="translate(63.25 17.4267)"><g class="a23 i17 leaf node n17 p2 sample" transform="translate(-23 2.29805)"><path class="edge" d="M 0 0 V -2.29805 H 23"/><rect class="sym" height="6" width="6" x="-3" y="-3"/><text class="lab" transform="translate(0 11)">17</text></g><g class="a23 i19 leaf node n19 p2 sample" transform="translate(23 2.29805)"><path class="edge" d="M 0 0 V -2.29805 H -23"/><rect class="sym" height="6" width="6" x="-3" y="-3"/><text class="lab" transform="translate(0 11)">19</text></g><path class="edge" d="M 0 0 V -17.4267 H -63.25"/><circle class="sym" cx="0" cy="0" r="3"/><text class="lab rgt" transform="translate(3 -7)">23</text></g><g class="a30 c2 node n29 p1" transform="translate(-63.25 6.6576)"><g class="a29 i0 leaf node n0 p1 sample" transform="translate(-34.5 13.0672)"><path class="edge" d="M 0 0 V -13.0672 H 34.5"/><rect class="sym" height="6" width="6" x="-3" y="-3"/><text class="lab" transform="translate(0 11)">0</text></g><g class="a29 c2 node n27 p1" transform="translate(34.5 2.73409)"><g class="a27 i1 leaf m2 m3 node n1 p1 s2 s3 sample" transform="translate(-23 10.3331)"><path class="edge" d="M 0 0 V -10.3331 H 23"/><g class="mut m3 s3" transform="translate(0 -8.28441)"><line x1="0" x2="0" y1="0" y2="8.28441"/><path class="sym" d="M -3,-3 l 6,6 M -3,3 l 6,-6"/><text class="lab lft" transform="translate(-5 0)">3</text></g><g class="mut m2 s2" transform="translate(0 -0.135712)"><line x1="0" x2="0" y1="0" y2="0.135712"/><path class="sym" d="M -3,-3 l 6,6 M -3,3 l 6,-6"/><text class="lab lft" transform="translate(-5 0)">2</text></g><rect class="sym" height="6" width="6" x="-3" y="-3"/><text class="lab" transform="translate(0 11)">1</text></g><g class="a27 i16 leaf node n16 p2 sample" transform="translate(23 10.3331)"><path class="edge" d="M 0 0 V -10.3331 H -23"/><rect class="sym" height="6" width="6" x="-3" y="-3"/><text class="lab" transform="translate(0 11)">16</text></g><path class="edge" d="M 0 0 V -2.73409 H -34.5"/><circle class="sym" cx="0" cy="0" r="3"/><text class="lab rgt" transform="translate(3 -7)">27</text></g><path class="edge" d="M 0 0 V -6.6576 H 63.25"/><circle class="sym" cx="0" cy="0" r="3"/><text class="lab lft" transform="translate(-3 -7)">29</text></g><path class="edge" d="M 0 0 V -92.3392 H 129.375"/><circle class="sym" cx="0" cy="0" r="3"/><text class="lab lft" transform="translate(-3 -7)">30</text></g><g class="a37 c2 node n33 p2" transform="translate(129.375 87.1157)"><g class="a33 i8 leaf m0 node n8 p1 s0 sample" transform="translate(57.5 24.9483)"><path class="edge" d="M 0 0 V -24.9483 H -57.5"/><g class="mut m0 s0" transform="translate(0 -15.259)"><line x1="0" x2="0" y1="0" y2="15.259"/><path class="sym" d="M -3,-3 l 6,6 M -3,3 l 6,-6"/><text class="lab rgt" transform="translate(5 0)">0</text></g><rect class="sym" height="6" width="6" x="-3" y="-3"/><text class="lab" transform="translate(0 11)">8</text></g><g class="a33 c2 node n28 p2" transform="translate(-57.5 13.7355)"><g class="a28 c2 node n24 p1" transform="translate(46 6.7964)"><g class="a24 i7 leaf node n7 p1 sample" transform="translate(-23 4.41636)"><path class="edge" d="M 0 0 V -4.41636 H 23"/><rect class="sym" height="6" width="6" x="-3" y="-3"/><text class="lab" transform="translate(0 11)">7</text></g><g class="a24 i11 leaf node n11 p2 sample" transform="translate(23 4.41636)"><path class="edge" d="M 0 0 V -4.41636 H -23"/><rect class="sym" height="6" width="6" x="-3" y="-3"/><text class="lab" transform="translate(0 11)">11</text></g><path class="edge" d="M 0 0 V -6.7964 H -46"/><circle class="sym" cx="0" cy="0" r="3"/><text class="lab rgt" transform="translate(3 -7)">24</text></g><g class="a28 c2 node n26 p1" transform="translate(-46 4.13721)"><g class="a26 i6 leaf node n6 p1 sample" transform="translate(-23 7.07555)"><path class="edge" d="M 0 0 V -7.07555 H 23"/><rect class="sym" height="6" width="6" x="-3" y="-3"/><text class="lab" transform="translate(0 11)">6</text></g><g class="a26 i13 leaf node n13 p2 sample" transform="translate(23 7.07555)"><path class="edge" d="M 0 0 V -7.07555 H -23"/><rect class="sym" height="6" width="6" x="-3" y="-3"/><text class="lab" transform="translate(0 11)">13</text></g><path class="edge" d="M 0 0 V -4.13721 H 46"/><circle class="sym" cx="0" cy="0" r="3"/><text class="lab lft" transform="translate(-3 -7)">26</text></g><path class="edge" d="M 0 0 V -13.7355 H 57.5"/><circle class="sym" cx="0" cy="0" r="3"/><text class="lab lft" transform="translate(-3 -7)">28</text></g><path class="edge" d="M 0 0 V -87.1157 H -129.375"/><circle class="sym" cx="0" cy="0" r="3"/><text class="lab rgt" transform="translate(3 -7)">33</text></g><path class="edge" d="M 0 0 V -182.536 H 287.68"/><circle class="sym" cx="0" cy="0" r="3"/><text class="lab lft" transform="translate(-3 -7)">37</text></g><circle class="sym" cx="0" cy="0" r="3"/><text class="lab" transform="translate(0 -11)">38</text></g></g></g></g></g></svg>