<svg baseProfile="full" height="400" version="1.1" width="1000" xmlns="http://www.w3.org/2000/svg" xmlns:ev="http://www.w3.org/2001/xml-events" xmlns:xlink="http://www.w3.org/1999/xlink"><defs><style type="text/css"><![CDATA[.background path {fill: #808080; fill-opacity: 0}.background path:nth-child(odd) {fill-opacity: .1}.x-regions rect {fill: yellow; stroke: black; opacity: 0.5}.axes {font-size: 14px}.x-axis .tick .lab {font-weight: bold; dominant-baseline: hanging}.axes, .tree {font-size: 14px; text-anchor: middle}.axes line, .edge {stroke: black; fill: none}.axes .ax-skip {stroke-dasharray: 4}.y-axis .grid {stroke: #FAFAFA}.node > .sym {fill: black; stroke: none}.site > .sym {stroke: black}.mut text {fill: red; font-style: italic}.mut.extra text {fill: hotpink}.mut line {fill: none; stroke: none}.mut .sym {fill: none; stroke: red}.mut.extra .sym {stroke: hotpink}.node .mut .sym {stroke-width: 1.5px}.tree text, .tree-sequence text {dominant-baseline: central}.plotbox .lab.lft {text-anchor: end}.plotbox .lab.rgt {text-anchor: start}.polytomy line {stroke: black; stroke-dasharray: 1px, 1px}.polytomy text {paint-order:stroke;stroke-width:0.3em;stroke:white}]]></style></defs><g class="tree-sequence"><g class="background"><path d="M20,0 l960,0 l0,338.2 l0,25 l0,5 l-960,0 l0,-5 l0,-25 l0,-338.2z"/></g><g class="axes"><g class="x-axis"><g class="title" transform="translate(500 400)"><text class="lab" text-anchor="middle" transform="translate(0 -11)">Genome position</text></g><line class="ax-line" x1="20" x2="980" y1="363.2" y2="363.2"/><g class="ticks"><g class="tick" transform="translate(20 363.2)"><line x1="0" x2="0" y1="0" y2="5"/><g transform="translate(0 6)"><text class="lab">0</text></g></g><g class="tick" transform="translate(980 363.2)"><line x1="0" x2="0" y1="0" y2="5"/><g transform="translate(0 6)"><text class="lab">1000</text></g></g></g><g class="site s0" transform="translate(130.4 363.2)"><line class="sym" x1="0" x2="0" y1="0" y2="-10"/><g class="mut m0"><polyline class="sym" points="2.5,-6.5 0,-1.5 -2.5,-6.5"/></g></g><g class="site s1" transform="translate(266.72 363.2)"><line class="sym" x1="0" x2="0" y1="0" y2="-10"/><g class="mut m1"><polyline class="sym" points="2.5,-6.5 0,-1.5 -2.5,-6.5"/></g></g><g class="site s2" transform="translate(553.76 363.2)"><line class="sym" x1="0" x2="0" y1="0" y2="-10"/><g class="mut m2"><polyline class="sym" points="2.5,-6.5 0,-1.5 -2.5,-6.5"/></g></g><g class="site s3" transform="translate(974.24 363.2)"><line class="sym" x1="0" x2="0" y1="0" y2="-10"/><g class="mut m3"><polyline class="sym" points="2.5,-6.5 0,-1.5 -2.5,-6.5"/></g></g></g></g><g class="plotbox trees"><g class="tree t0" transform="translate(20 0)"><g class="plotbox"><g class="c2 node n38 p0 root" transform="translate(626.805 26.8)"><g class="a38 c2 m1 node n26 p2 s1" transform="translate(249.945 281.828)"><g class="a26 i16 leaf node n16 p2 sample" transform="translate(40.25 12.7716)"><path class="edge" d="M 0 0 V -12.7716 H -40.25"/><rect class="sym" height="6" width="6" x="-3" y="-3"/><text class="lab" transform="translate(0 11)">16</text></g><g class="a26 c2 node n22 p1" transform="translate(-40.25 9.97199)"><g class="a22 i15 leaf node n15 p2 sample" transform="translate(34.5 2.79964)"><path class="edge" d="M 0 0 V -2.79964 H -34.5"/><rect class="sym" height="6" width="6" x="-3" y="-3"/><text class="lab" transform="translate(0 11)">15</text></g><g class="a22 c2 node n20 p1" transform="translate(-34.5 2.23939)"><g class="a20 i4 leaf node n4 p1 sample" transform="translate(-23 0.560247)"><path class="edge" d="M 0 0 V -0.560247 H 23"/><rect class="sym" height="6" width="6" x="-3" y="-3"/><text class="lab" transform="translate(0 11)">4</text></g><g class="a20 i13 leaf node n13 p2 sample" transform="translate(23 0.560247)"><path class="edge" d="M 0 0 V -0.560247 H -23"/><rect class="sym" height="6" width="6" x="-3" y="-3"/><text class="lab" transform="translate(0 11)">13</text></g><path class="edge" d="M 0 0 V -2.23939 H 34.5"/><circle class="sym" cx="0" cy="0" r="3"/><text class="lab lft" transform="translate(-3 -7)">20</text></g><path class="edge" d="M 0 0 V -9.97199 H 40.25"/><circle class="sym" cx="0" cy="0" r="3"/><text class="lab lft" transform="translate(-3 -7)">22</text></g><path class="edge" d="M 0 0 V -281.828 H -249.945"/><g class="mut m1 s1" transform="translate(0 -15.1295)"><line x1="0" x2="0" y1="0" y2="15.1295"/><path class="sym" d="M -3,-3 l 6,6 M -3,3 l 6,-6"/><text class="lab rgt" transform="translate(5 0)">1</text></g><circle class="sym" cx="0" cy="0" r="3"/><text class="lab rgt" transform="translate(3 -7)">26</text></g><g class="a38 c2 node n37 p2" transform="translate(-249.945 158.02)"><g class="a37 c2 node n35 p1" transform="translate(-178.609 72.6911)"><g class="a35 c2 node n32 p1" transform="translate(97.75 23.4305)"><g class="a32 i18 leaf node n18 p2 sample" transform="translate(-23 40.4582)"><path class="edge" d="M 0 0 V -40.4582 H 23"/><rect class="sym" height="6" width="6" x="-3" y="-3"/><text class="lab" transform="translate(0 11)">18</text></g><g class="a32 i19 leaf m3 node n19 p2 s3 sample" transform="translate(23 40.4582)"><path class="edge" d="M 0 0 V -40.4582 H -23"/><g class="mut m3 s3" transform="translate(0 -27.722)"><line x1="0" x2="0" y1="0" y2="27.722"/><path class="sym" d="M -3,-3 l 6,6 M -3,3 l 6,-6"/><text class="lab rgt" transform="translate(5 0)">3</text></g><rect class="sym" height="6" width="6" x="-3" y="-3"/><text class="lab" transform="translate(0 11)">19</text></g><path class="edge" d="M 0 0 V -23.4305 H -97.75"/><circle class="sym" cx="0" cy="0" r="3"/><text class="lab rgt" transform="translate(3 -7)">32</text></g><g class="a35 c2 node n33 p1" transform="translate(-97.75 22.1717)"><g class="a33 i0 leaf node n0 p1 sample" transform="translate(-57.5 41.717)"><path class="edge" d="M 0 0 V -41.717 H 57.5"/><rect class="sym" height="6" width="6" x="-3" y="-3"/><text class="lab" transform="translate(0 11)">0</text></g><g class="a33 c2 node n28 p1" transform="translate(57.5 21.4374)"><g class="a28 c2 node n23 p2" transform="translate(46 16.4486)"><g class="a23 i5 leaf node n5 p1 sample" transform="translate(-23 3.83103)"><path class="edge" d="M 0 0 V -3.83103 H 23"/><rect class="sym" height="6" width="6" x="-3" y="-3"/><text class="lab" transform="translate(0 11)">5</text></g><g class="a23 i11 leaf node n11 p2 sample" transform="translate(23 3.83103)"><path class="edge" d="M 0 0 V -3.83103 H -23"/><rect class="sym" height="6" width="6" x="-3" y="-3"/><text class="lab" transform="translate(0 11)">11</text></g><path class="edge" d="M 0 0 V -16.4486 H -46"/><circle class="sym" cx="0" cy="0" r="3"/><text class="lab rgt" transform="translate(3 -7)">23</text></g><g class="a28 c2 node n27 p1" transform="translate(-46 7.09691)"><g class="a27 i2 leaf node n2 p1 sample" transform="translate(-23 13.1827)"><path class="edge" d="M 0 0 V -13.1827 H 23"/><rect class="sym" height="6" width="6" x="-3" y="-3"/><text class="lab" transform="translate(0 11)">2</text></g><g class="a27 i7 leaf node n7 p1 sample" transform="translate(23 13.1827)"><path class="edge" d="M 0 0 V -13.1827 H -23"/><rect class="sym" height="6" width="6" x="-3" y="-3"/><text class="lab" transform="translate(0 11)">7</text></g><path class="edge" d="M 0 0 V -7.09691 H 46"/><circle class="sym" cx="0" cy="0" r="3"/><text class="lab lft" transform="translate(-3 -7)">27</text></g><path class="edge" d="M 0 0 V -21.4374 H -57.5"/><circle class="sym" cx="0" cy="0" r="3"/><text class="lab rgt" transform="translate(3 -7)">28</text></g><path class="edge" d="M 0 0 V -22.1717 H 97.75"/><circle class="sym" cx="0" cy="0" r="3"/><text class="lab lft" transform="translate(-3 -7)">33</text></g><path class="edge" d="M 0 0 V -72.6911 H 178.609"/><circle class="sym" cx="0" cy="0" r="3"/><text class="lab lft" transform="translate(-3 -7)">35</text></g><g class="a37 c2 node n36 p1" transform="translate(178.609 35.4209)"><g class="a36 c2 node n31 p2" transform="translate(-132.969 65.7226)"><g class="a31 i9 leaf node n9 p1 sample" transform="translate(34.5 35.4364)"><path class="edge" d="M 0 0 V -35.4364 H -34.5"/><rect class="sym" height="6" width="6" x="-3" y="-3"/><text class="lab" transform="translate(0 11)">9</text></g><g class="a31 c2 node n21 p2" transform="translate(-34.5 33.5762)"><g class="a21 i1 leaf node n1 p1 sample" transform="translate(-23 1.8602)"><path class="edge" d="M 0 0 V -1.8602 H 23"/><rect class="sym" height="6" width="6" x="-3" y="-3"/><text class="lab" transform="translate(0 11)">1</text></g><g class="a21 i3 leaf node n3 p1 sample" transform="translate(23 1.8602)"><path class="edge" d="M 0 0 V -1.8602 H -23"/><rect class="sym" height="6" width="6" x="-3" y="-3"/><text class="lab" transform="translate(0 11)">3</text></g><path class="edge" d="M 0 0 V -33.5762 H 34.5"/><circle class="sym" cx="0" cy="0" r="3"/><text class="lab lft" transform="translate(-3 -7)">21</text></g><path class="edge" d="M 0 0 V -65.7226 H 132.969"/><circle class="sym" cx="0" cy="0" r="3"/><text class="lab lft" transform="translate(-3 -7)">31</text></g><g class="a36 c2 node n34 p2" transform="translate(132.969 58.8221)"><g class="a34 i10 leaf m0 node n10 p2 s0 sample" transform="translate(44.5625 42.3368)"><path class="edge" d="M 0 0 V -42.3368 H -44.5625"/><g class="mut m0 s0" transform="translate(0 -38.7899)"><line x1="0" x2="0" y1="0" y2="38.7899"/><path class="sym" d="M -3,-3 l 6,6 M -3,3 l 6,-6"/><text class="lab rgt" transform="translate(5 0)">0</text></g><rect class="sym" height="6" width="6" x="-3" y="-3"/><text class="lab" transform="translate(0 11)">10</text></g><g class="a34 c2 node n30 p1" transform="translate(-44.5625 13.512)"><g class="a30 i14 leaf node n14 p2 sample" transform="translate(43.125 28.8248)"><path class="edge" d="M 0 0 V -28.8248 H -43.125"/><rect class="sym" height="6" width="6" x="-3" y="-3"/><text class="lab" transform="translate(0 11)">14</text></g><g class="a30 c2 node n29 p2" transform="translate(-43.125 0.361201)"><g class="a29 i8 leaf node n8 p1 sample" transform="translate(40.25 28.4636)"><path class="edge" d="M 0 0 V -28.4636 H -40.25"/><rect class="sym" height="6" width="6" x="-3" y="-3"/><text class="lab" transform="translate(0 11)">8</text></g><g class="a29 c2 node n25 p2" transform="translate(-40.25 23.6797)"><g class="a25 i12 leaf node n12 p2 sample" transform="translate(34.5 4.78386)"><path class="edge" d="M 0 0 V -4.78386 H -34.5"/><rect class="sym" height="6" width="6" x="-3" y="-3"/><text class="lab" transform="translate(0 11)">12</text></g><g class="a25 c2 node n24 p1" transform="translate(-34.5 0.392037)"><g class="a24 i6 leaf m2 node n6 p1 s2 sample" transform="translate(-23 4.39182)"><path class="edge" d="M 0 0 V -4.39182 H 23"/><g class="mut m2 s2" transform="translate(0 -3.15864)"><line x1="0" x2="0" y1="0" y2="3.15864"/><path class="sym" d="M -3,-3 l 6,6 M -3,3 l 6,-6"/><text class="lab lft" transform="translate(-5 0)">2</text></g><rect class="sym" height="6" width="6" x="-3" y="-3"/><text class="lab" transform="translate(0 11)">6</text></g><g class="a24 i17 leaf node n17 p2 sample" transform="translate(23 4.39182)"><path class="edge" d="M 0 0 V -4.39182 H -23"/><rect class="sym" height="6" width="6" x="-3" y="-3"/><text class="lab" transform="translate(0 11)">17</text></g><path class="edge" d="M 0 0 V -0.392037 H 34.5"/><circle class="sym" cx="0" cy="0" r="3"/><text class="lab lft" transform="translate(-3 -7)">24</text></g><path class="edge" d="M 0 0 V -23.6797 H 40.25"/><circle class="sym" cx="0" cy="0" r="3"/><text class="lab lft" transform="translate(-3 -7)">25</text></g><path class="edge" d="M 0 0 V -0.361201 H 43.125"/><circle class="sym" cx="0" cy="0" r="3"/><text class="lab lft" transform="translate(-3 -7)">29</text></g><path class="edge" d="M 0 0 V -13.512 H 44.5625"/><circle class="sym" cx="0" cy="0" r="3"/><text class="lab lft" transform="translate(-3 -7)">30</text></g><path class="edge" d="M 0 0 V -58.8221 H -132.969"/><circle class="sym" cx="0" cy="0" r="3"/><text class="lab rgt" transform="translate(3 -7)">34</text></g><path class="edge" d="M 0 0 V -35.4209 H -178.609"/><circle class="sym" cx="0" cy="0" r="3"/><text class="lab rgt" transform="translate(3 -7)">36</text></g><path class="edge" d="M 0 0 V -158.02 H 249.945"/><circle class="sym" cx="0" cy="0" r="3"/><text class="lab lft" transform="translate(-3 -7)">37</text></g><circle class="sym" cx="0" cy="0" r="3"/><text class="lab" transform="translate(0 -11)">38</text></g></g></g></g></g></svg>