<svg baseProfile="full" height="400" version="1.1" width="1000" xmlns="http://www.w3.org/2000/svg" xmlns:ev="http://www.w3.org/2001/xml-events" xmlns:xlink="http://www.w3.org/1999/xlink"><defs><style type="text/css"><![CDATA[.background path {fill: #808080; fill-opacity: 0}.background path:nth-child(odd) {fill-opacity: .1}.x-regions rect {fill: yellow; stroke: black; opacity: 0.5}.axes {font-size: 14px}.x-axis .tick .lab {font-weight: bold; dominant-baseline: hanging}.axes, .tree {font-size: 14px; text-anchor: middle}.axes line, .edge {stroke: black; fill: none}.axes .ax-skip {stroke-dasharray: 4}.y-axis .grid {stroke: #FAFAFA}.node > .sym {fill: black; stroke: none}.site > .sym {stroke: black}.mut text {fill: red; font-style: italic}.mut.extra text {fill: hotpink}.mut line {fill: none; stroke: none}.mut .sym {fill: none; stroke: red}.mut.extra .sym {stroke: hotpink}.node .mut .sym {stroke-width: 1.5px}.tree text, .tree-sequence text {dominant-baseline: central}.plotbox .lab.lft {text-anchor: end}.plotbox .lab.rgt {text-anchor: start}.polytomy line {stroke: black; stroke-dasharray: 1px, 1px}.polytomy text {paint-order:stroke;stroke-width:0.3em;stroke:white}]]></style></defs><g class="tree-sequence"><g class="background"><path d="M20,0 l960,0 l0,338.2 l0,25 l0,5 l-960,0 l0,-5 l0,-25 l0,-338.2z"/></g><g class="axes"><g class="x-axis"><g class="title" transform="translate(500 400)"><text class="lab" text-anchor="middle" transform="translate(0 -11)">Genome position</text></g><line class="ax-line" x1="20" x2="980" y1="363.2" y2="363.2"/><g class="ticks"><g class="tick" transform="translate(20 363.2)"><line x1="0" x2="0" y1="0" y2="5"/><g transform="translate(0 6)"><text class="lab">0</text></g></g><g class="tick" transform="translate(980 363.2)"><line x1="0" x2="0" y1="0" y2="5"/><g transform="translate(0 6)"><text class="lab">1000</text></g></g></g><g class="site s0" transform="translate(259.04 363.2)"><line class="sym" x1="0" x2="0" y1="0" y2="-10"/><g class="mut m0"><polyline class="sym" points="2.5,-6.5 0,-1.5 -2.5,-6.5"/></g></g><g class="site s1" transform="translate(292.64 363.2)"><line class="sym" x1="0" x2="0" y1="0" y2="-10"/><g class="mut m1"><polyline class="sym" points="2.5,-6.5 0,-1.5 -2.5,-6.5"/></g></g><g class="site s2" transform="translate(322.4 363.2)"><line class="sym" x1="0" x2="0" y1="0" y2="-10"/><g class="mut m2"><polyline class="sym" points="2.5,-6.5 0,-1.5 -2.5,-6.5"/></g></g></g></g><g class="plotbox trees"><g class="tree t0" transform="translate(20 0)"><g class="plotbox"><g class="c2 node n38 p2 root" transform="translate(722.578 26.8)"><g class="a38 c2 m1 node n29 p1 s1" transform="translate(159.922 280.615)"><g class="a29 i19 leaf node n19 p2 sample" transform="translate(34.5 13.9847)"><path class="edge" d="M 0 0 V -13.9847 H -34.5"/><rect class="sym" height="6" width="6" x="-3" y="-3"/><text class="lab" transform="translate(0 11)">19</text></g><g class="a29 c2 node n24 p1" transform="translate(-34.5 8.81943)"><g class="a24 i6 leaf node n6 p1 sample" transform="translate(-23 5.16524)"><path class="edge" d="M 0 0 V -5.16524 H 23"/><rect class="sym" height="6" width="6" x="-3" y="-3"/><text class="lab" transform="translate(0 11)">6</text></g><g class="a24 i9 leaf node n9 p1 sample" transform="translate(23 5.16524)"><path class="edge" d="M 0 0 V -5.16524 H -23"/><rect class="sym" height="6" width="6" x="-3" y="-3"/><text class="lab" transform="translate(0 11)">9</text></g><path class="edge" d="M 0 0 V -8.81943 H 34.5"/><circle class="sym" cx="0" cy="0" r="3"/><text class="lab lft" transform="translate(-3 -7)">24</text></g><path class="edge" d="M 0 0 V -280.615 H -159.922"/><g class="mut m1 s1" transform="translate(0 -62.2922)"><line x1="0" x2="0" y1="0" y2="62.2922"/><path class="sym" d="M -3,-3 l 6,6 M -3,3 l 6,-6"/><text class="lab rgt" transform="translate(5 0)">1</text></g><circle class="sym" cx="0" cy="0" r="3"/><text class="lab rgt" transform="translate(3 -7)">29</text></g><g class="a38 c2 m0 node n37 p1 s0" transform="translate(-159.922 40.7177)"><g class="a37 c2 node n35 p1" transform="translate(-181.844 189.842)"><g class="a35 c2 node n33 p2" transform="translate(125.062 25.2732)"><g class="a33 i4 leaf node n4 p1 sample" transform="translate(-48.875 38.7667)"><path class="edge" d="M 0 0 V -38.7667 H 48.875"/><rect class="sym" height="6" width="6" x="-3" y="-3"/><text class="lab" transform="translate(0 11)">4</text></g><g class="a33 c2 node n32 p1" transform="translate(48.875 8.22313)"><g class="a32 i7 leaf node n7 p1 sample" transform="translate(-51.75 30.5436)"><path class="edge" d="M 0 0 V -30.5436 H 51.75"/><rect class="sym" height="6" width="6" x="-3" y="-3"/><text class="lab" transform="translate(0 11)">7</text></g><g class="a32 c2 node n30 p1" transform="translate(51.75 15.3081)"><g class="a30 i17 leaf node n17 p2 sample" transform="translate(34.5 15.2354)"><path class="edge" d="M 0 0 V -15.2354 H -34.5"/><rect class="sym" height="6" width="6" x="-3" y="-3"/><text class="lab" transform="translate(0 11)">17</text></g><g class="a30 c2 node n26 p2" transform="translate(-34.5 6.56938)"><g class="a26 i12 leaf node n12 p2 sample" transform="translate(-23 8.66604)"><path class="edge" d="M 0 0 V -8.66604 H 23"/><rect class="sym" height="6" width="6" x="-3" y="-3"/><text class="lab" transform="translate(0 11)">12</text></g><g class="a26 i14 leaf node n14 p2 sample" transform="translate(23 8.66604)"><path class="edge" d="M 0 0 V -8.66604 H -23"/><rect class="sym" height="6" width="6" x="-3" y="-3"/><text class="lab" transform="translate(0 11)">14</text></g><path class="edge" d="M 0 0 V -6.56938 H 34.5"/><circle class="sym" cx="0" cy="0" r="3"/><text class="lab lft" transform="translate(-3 -7)">26</text></g><path class="edge" d="M 0 0 V -15.3081 H -51.75"/><circle class="sym" cx="0" cy="0" r="3"/><text class="lab rgt" transform="translate(3 -7)">30</text></g><path class="edge" d="M 0 0 V -8.22313 H -48.875"/><circle class="sym" cx="0" cy="0" r="3"/><text class="lab rgt" transform="translate(3 -7)">32</text></g><path class="edge" d="M 0 0 V -25.2732 H -125.062"/><circle class="sym" cx="0" cy="0" r="3"/><text class="lab rgt" transform="translate(3 -7)">33</text></g><g class="a35 c2 node n34 p2" transform="translate(-125.062 15.1093)"><g class="a34 c2 node n25 p1" transform="translate(115 41.5229)"><g class="a25 i18 leaf node n18 p2 sample" transform="translate(40.25 7.4077)"><path class="edge" d="M 0 0 V -7.4077 H -40.25"/><rect class="sym" height="6" width="6" x="-3" y="-3"/><text class="lab" transform="translate(0 11)">18</text></g><g class="a25 c2 node n23 p1" transform="translate(-40.25 4.99118)"><g class="a23 i3 leaf node n3 p1 sample" transform="translate(34.5 2.41652)"><path class="edge" d="M 0 0 V -2.41652 H -34.5"/><rect class="sym" height="6" width="6" x="-3" y="-3"/><text class="lab" transform="translate(0 11)">3</text></g><g class="a23 c2 node n20 p2" transform="translate(-34.5 2.22539)"><g class="a20 i1 leaf node n1 p1 sample" transform="translate(-23 0.191125)"><path class="edge" d="M 0 0 V -0.191125 H 23"/><rect class="sym" height="6" width="6" x="-3" y="-3"/><text class="lab" transform="translate(0 11)">1</text></g><g class="a20 i13 leaf node n13 p2 sample" transform="translate(23 0.191125)"><path class="edge" d="M 0 0 V -0.191125 H -23"/><rect class="sym" height="6" width="6" x="-3" y="-3"/><text class="lab" transform="translate(0 11)">13</text></g><path class="edge" d="M 0 0 V -2.22539 H 34.5"/><circle class="sym" cx="0" cy="0" r="3"/><text class="lab lft" transform="translate(-3 -7)">20</text></g><path class="edge" d="M 0 0 V -4.99118 H 40.25"/><circle class="sym" cx="0" cy="0" r="3"/><text class="lab lft" transform="translate(-3 -7)">23</text></g><path class="edge" d="M 0 0 V -41.5229 H -115"/><circle class="sym" cx="0" cy="0" r="3"/><text class="lab rgt" transform="translate(3 -7)">25</text></g><g class="a34 c2 node n31 p2" transform="translate(-115 31.1568)"><g class="a31 c2 node n27 p2" transform="translate(63.25 8.37968)"><g class="a27 i10 leaf node n10 p2 sample" transform="translate(-23 9.39406)"><path class="edge" d="M 0 0 V -9.39406 H 23"/><rect class="sym" height="6" width="6" x="-3" y="-3"/><text class="lab" transform="translate(0 11)">10</text></g><g class="a27 i11 leaf node n11 p2 sample" transform="translate(23 9.39406)"><path class="edge" d="M 0 0 V -9.39406 H -23"/><rect class="sym" height="6" width="6" x="-3" y="-3"/><text class="lab" transform="translate(0 11)">11</text></g><path class="edge" d="M 0 0 V -8.37968 H -63.25"/><circle class="sym" cx="0" cy="0" r="3"/><text class="lab rgt" transform="translate(3 -7)">27</text></g><g class="a31 c2 node n28 p1" transform="translate(-63.25 6.24824)"><g class="a28 i0 leaf node n0 p1 sample" transform="translate(-34.5 11.5255)"><path class="edge" d="M 0 0 V -11.5255 H 34.5"/><rect class="sym" height="6" width="6" x="-3" y="-3"/><text class="lab" transform="translate(0 11)">0</text></g><g class="a28 c2 node n21 p1" transform="translate(34.5 10.6044)"><g class="a21 i5 leaf node n5 p1 sample" transform="translate(-23 0.921108)"><path class="edge" d="M 0 0 V -0.921108 H 23"/><rect class="sym" height="6" width="6" x="-3" y="-3"/><text class="lab" transform="translate(0 11)">5</text></g><g class="a21 i15 leaf m2 node n15 p2 s2 sample" transform="translate(23 0.921108)"><path class="edge" d="M 0 0 V -0.921108 H -23"/><g class="mut m2 s2" transform="translate(0 -0.396145)"><line x1="0" x2="0" y1="0" y2="0.396145"/><path class="sym" d="M -3,-3 l 6,6 M -3,3 l 6,-6"/><text class="lab rgt" transform="translate(5 0)">2</text></g><rect class="sym" height="6" width="6" x="-3" y="-3"/><text class="lab" transform="translate(0 11)">15</text></g><path class="edge" d="M 0 0 V -10.6044 H -34.5"/><circle class="sym" cx="0" cy="0" r="3"/><text class="lab rgt" transform="translate(3 -7)">21</text></g><path class="edge" d="M 0 0 V -6.24824 H 63.25"/><circle class="sym" cx="0" cy="0" r="3"/><text class="lab lft" transform="translate(-3 -7)">28</text></g><path class="edge" d="M 0 0 V -31.1568 H 115"/><circle class="sym" cx="0" cy="0" r="3"/><text class="lab lft" transform="translate(-3 -7)">31</text></g><path class="edge" d="M 0 0 V -15.1093 H 125.062"/><circle class="sym" cx="0" cy="0" r="3"/><text class="lab lft" transform="translate(-3 -7)">34</text></g><path class="edge" d="M 0 0 V -189.842 H 181.844"/><circle class="sym" cx="0" cy="0" r="3"/><text class="lab lft" transform="translate(-3 -7)">35</text></g><g class="a37 c2 node n36 p2" transform="translate(181.844 171.725)"><g class="a36 i16 leaf node n16 p2 sample" transform="translate(34.5 82.1573)"><path class="edge" d="M 0 0 V -82.1573 H -34.5"/><rect class="sym" height="6" width="6" x="-3" y="-3"/><text class="lab" transform="translate(0 11)">16</text></g><g class="a36 c2 node n22 p2" transform="translate(-34.5 80.262)"><g class="a22 i2 leaf node n2 p1 sample" transform="translate(-23 1.89523)"><path class="edge" d="M 0 0 V -1.89523 H 23"/><rect class="sym" height="6" width="6" x="-3" y="-3"/><text class="lab" transform="translate(0 11)">2</text></g><g class="a22 i8 leaf node n8 p1 sample" transform="translate(23 1.89523)"><path class="edge" d="M 0 0 V -1.89523 H -23"/><rect class="sym" height="6" width="6" x="-3" y="-3"/><text class="lab" transform="translate(0 11)">8</text></g><path class="edge" d="M 0 0 V -80.262 H 34.5"/><circle class="sym" cx="0" cy="0" r="3"/><text class="lab lft" transform="translate(-3 -7)">22</text></g><path class="edge" d="M 0 0 V -171.725 H -181.844"/><circle class="sym" cx="0" cy="0" r="3"/><text class="lab rgt" transform="translate(3 -7)">36</text></g><path class="edge" d="M 0 0 V -40.7177 H 159.922"/><g class="mut m0 s0" transform="translate(0 -18.2511)"><line x1="0" x2="0" y1="0" y2="18.2511"/><path class="sym" d="M -3,-3 l 6,6 M -3,3 l 6,-6"/><text class="lab lft" transform="translate(-5 0)">0</text></g><circle class="sym" cx="0" cy="0" r="3"/><text class="lab lft" transform="translate(-3 -7)">37</text></g><circle class="sym" cx="0" cy="0" r="3"/><text class="lab" transform="translate(0 -11)">38</text></g></g></g></g></g></svg>