<svg baseProfile="full" height="400" version="1.1" width="1000" xmlns="http://www.w3.org/2000/svg" xmlns:ev="http://www.w3.org/2001/xml-events" xmlns:xlink="http://www.w3.org/1999/xlink"><defs><style type="text/css"><![CDATA[.background path {fill: #808080; fill-opacity: 0}.background path:nth-child(odd) {fill-opacity: .1}.x-regions rect {fill: yellow; stroke: black; opacity: 0.5}.axes {font-size: 14px}.x-axis .tick .lab {font-weight: bold; dominant-baseline: hanging}.axes, .tree {font-size: 14px; text-anchor: middle}.axes line, .edge {stroke: black; fill: none}.axes .ax-skip {stroke-dasharray: 4}.y-axis .grid {stroke: #FAFAFA}.node > .sym {fill: black; stroke: none}.site > .sym {stroke: black}.mut text {fill: red; font-style: italic}.mut.extra text {fill: hotpink}.mut line {fill: none; stroke: none}.mut .sym {fill: none; stroke: red}.mut.extra .sym {stroke: hotpink}.node .mut .sym {stroke-width: 1.5px}.tree text, .tree-sequence text {dominant-baseline: central}.plotbox .lab.lft {text-anchor: end}.plotbox .lab.rgt {text-anchor: start}.polytomy line {stroke: black; stroke-dasharray: 1px, 1px}.polytomy text {paint-order:stroke;stroke-width:0.3em;stroke:white}]]></style></defs><g class="tree-sequence"><g class="background"><path d="M20,0 l960,0 l0,338.2 l0,25 l0,5 l-960,0 l0,-5 l0,-25 l0,-338.2z"/></g><g class="axes"><g class="x-axis"><g class="title" transform="translate(500 400)"><text class="lab" text-anchor="middle" transform="translate(0 -11)">Genome position</text></g><line class="ax-line" x1="20" x2="980" y1="363.2" y2="363.2"/><g class="ticks"><g class="tick" transform="translate(20 363.2)"><line x1="0" x2="0" y1="0" y2="5"/><g transform="translate(0 6)"><text class="lab">0</text></g></g><g class="tick" transform="translate(980 363.2)"><line x1="0" x2="0" y1="0" y2="5"/><g transform="translate(0 6)"><text class="lab">1000</text></g></g></g><g class="site s0" transform="translate(254.24 363.2)"><line class="sym" x1="0" x2="0" y1="0" y2="-10"/><g class="mut m0"><polyline class="sym" points="2.5,-6.5 0,-1.5 -2.5,-6.5"/></g></g><g class="site s1" transform="translate(641.12 363.2)"><line class="sym" x1="0" x2="0" y1="0" y2="-10"/><g class="mut m1"><polyline class="sym" points="2.5,-6.5 0,-1.5 -2.5,-6.5"/></g></g><g class="site s2" transform="translate(817.76 363.2)"><line class="sym" x1="0" x2="0" y1="0" y2="-10"/><g class="mut m2"><polyline class="sym" points="2.5,-6.5 0,-1.5 -2.5,-6.5"/></g></g><g class="site s3" transform="translate(958.88 363.2)"><line class="sym" x1="0" x2="0" y1="0" y2="-10"/><g class="mut m3"><polyline class="sym" points="2.5,-6.5 0,-1.5 -2.5,-6.5"/></g></g></g></g><g class="plotbox trees"><g class="tree t0" transform="translate(20 0)"><g class="plotbox"><g class="c2 node n38 p2 root" transform="translate(770.016 26.8)"><g class="a38 c2 node n36 p1" transform="translate(106.734 152.344)"><g class="a36 i12 leaf node n12 p2 sample" transform="translate(40.25 142.256)"><path class="edge" d="M 0 0 V -142.256 H -40.25"/><rect class="sym" height="6" width="6" x="-3" y="-3"/><text class="lab" transform="translate(0 11)">12</text></g><g class="a36 c2 m1 m3 node n26 p2 s1 s3" transform="translate(-40.25 133.873)"><g class="a26 i15 leaf node n15 p2 sample" transform="translate(34.5 8.38244)"><path class="edge" d="M 0 0 V -8.38244 H -34.5"/><rect class="sym" height="6" width="6" x="-3" y="-3"/><text class="lab" transform="translate(0 11)">15</text></g><g class="a26 c2 node n25 p1" transform="translate(-34.5 2.09547)"><g class="a25 i8 leaf node n8 p1 sample" transform="translate(-23 6.28697)"><path class="edge" d="M 0 0 V -6.28697 H 23"/><rect class="sym" height="6" width="6" x="-3" y="-3"/><text class="lab" transform="translate(0 11)">8</text></g><g class="a25 i18 leaf node n18 p2 sample" transform="translate(23 6.28697)"><path class="edge" d="M 0 0 V -6.28697 H -23"/><rect class="sym" height="6" width="6" x="-3" y="-3"/><text class="lab" transform="translate(0 11)">18</text></g><path class="edge" d="M 0 0 V -2.09547 H 34.5"/><circle class="sym" cx="0" cy="0" r="3"/><text class="lab lft" transform="translate(-3 -7)">25</text></g><path class="edge" d="M 0 0 V -133.873 H 40.25"/><g class="mut m1 s1" transform="translate(0 -106.515)"><line x1="0" x2="0" y1="0" y2="106.515"/><path class="sym" d="M -3,-3 l 6,6 M -3,3 l 6,-6"/><text class="lab lft" transform="translate(-5 0)">1</text></g><g class="mut m3 s3" transform="translate(0 -29.8206)"><line x1="0" x2="0" y1="0" y2="29.8206"/><path class="sym" d="M -3,-3 l 6,6 M -3,3 l 6,-6"/><text class="lab lft" transform="translate(-5 0)">3</text></g><circle class="sym" cx="0" cy="0" r="3"/><text class="lab lft" transform="translate(-3 -7)">26</text></g><path class="edge" d="M 0 0 V -152.344 H -106.734"/><circle class="sym" cx="0" cy="0" r="3"/><text class="lab rgt" transform="translate(3 -7)">36</text></g><g class="a38 c2 node n37 p2" transform="translate(-106.734 149.429)"><g class="a37 i17 leaf node n17 p2 sample" transform="translate(69.7188 145.171)"><path class="edge" d="M 0 0 V -145.171 H -69.7188"/><rect class="sym" height="6" width="6" x="-3" y="-3"/><text class="lab" transform="translate(0 11)">17</text></g><g class="a37 c2 m0 node n35 p2 s0" transform="translate(-69.7188 39.6952)"><g class="a35 i10 leaf m2 node n10 p2 s2 sample" transform="translate(93.4375 105.476)"><path class="edge" d="M 0 0 V -105.476 H -93.4375"/><g class="mut m2 s2" transform="translate(0 -36.5753)"><line x1="0" x2="0" y1="0" y2="36.5753"/><path class="sym" d="M -3,-3 l 6,6 M -3,3 l 6,-6"/><text class="lab rgt" transform="translate(5 0)">2</text></g><rect class="sym" height="6" width="6" x="-3" y="-3"/><text class="lab" transform="translate(0 11)">10</text></g><g class="a35 c2 node n34 p1" transform="translate(-93.4375 53.0882)"><g class="a34 c2 node n32 p1" transform="translate(-106.375 14.784)"><g class="a32 c2 node n29 p2" transform="translate(86.25 15.6025)"><g class="a29 i4 leaf node n4 p1 sample" transform="translate(-23 22.0014)"><path class="edge" d="M 0 0 V -22.0014 H 23"/><rect class="sym" height="6" width="6" x="-3" y="-3"/><text class="lab" transform="translate(0 11)">4</text></g><g class="a29 i16 leaf node n16 p2 sample" transform="translate(23 22.0014)"><path class="edge" d="M 0 0 V -22.0014 H -23"/><rect class="sym" height="6" width="6" x="-3" y="-3"/><text class="lab" transform="translate(0 11)">16</text></g><path class="edge" d="M 0 0 V -15.6025 H -86.25"/><circle class="sym" cx="0" cy="0" r="3"/><text class="lab rgt" transform="translate(3 -7)">29</text></g><g class="a32 c2 node n31 p2" transform="translate(-86.25 3.4362)"><g class="a31 c2 node n23 p1" transform="translate(80.5 31.4432)"><g class="a23 i5 leaf node n5 p1 sample" transform="translate(-23 2.72452)"><path class="edge" d="M 0 0 V -2.72452 H 23"/><rect class="sym" height="6" width="6" x="-3" y="-3"/><text class="lab" transform="translate(0 11)">5</text></g><g class="a23 i14 leaf node n14 p2 sample" transform="translate(23 2.72452)"><path class="edge" d="M 0 0 V -2.72452 H -23"/><rect class="sym" height="6" width="6" x="-3" y="-3"/><text class="lab" transform="translate(0 11)">14</text></g><path class="edge" d="M 0 0 V -31.4432 H -80.5"/><circle class="sym" cx="0" cy="0" r="3"/><text class="lab rgt" transform="translate(3 -7)">23</text></g><g class="a31 c2 node n30 p2" transform="translate(-80.5 1.83413)"><g class="a30 i2 leaf node n2 p1 sample" transform="translate(92 32.3336)"><path class="edge" d="M 0 0 V -32.3336 H -92"/><rect class="sym" height="6" width="6" x="-3" y="-3"/><text class="lab" transform="translate(0 11)">2</text></g><g class="a30 c2 node n28 p2" transform="translate(-92 12.5686)"><g class="a28 c2 node n22 p2" transform="translate(-69 17.601)"><g class="a22 i0 leaf node n0 p1 sample" transform="translate(-23 2.16404)"><path class="edge" d="M 0 0 V -2.16404 H 23"/><rect class="sym" height="6" width="6" x="-3" y="-3"/><text class="lab" transform="translate(0 11)">0</text></g><g class="a22 i13 leaf node n13 p2 sample" transform="translate(23 2.16404)"><path class="edge" d="M 0 0 V -2.16404 H -23"/><rect class="sym" height="6" width="6" x="-3" y="-3"/><text class="lab" transform="translate(0 11)">13</text></g><path class="edge" d="M 0 0 V -17.601 H 69"/><circle class="sym" cx="0" cy="0" r="3"/><text class="lab lft" transform="translate(-3 -7)">22</text></g><g class="a28 c2 node n27 p2" transform="translate(69 5.84643)"><g class="a27 c2 node n20 p2" transform="translate(-46 13.4637)"><g class="a20 i3 leaf node n3 p1 sample" transform="translate(-23 0.454875)"><path class="edge" d="M 0 0 V -0.454875 H 23"/><rect class="sym" height="6" width="6" x="-3" y="-3"/><text class="lab" transform="translate(0 11)">3</text></g><g class="a20 i6 leaf node n6 p1 sample" transform="translate(23 0.454875)"><path class="edge" d="M 0 0 V -0.454875 H -23"/><rect class="sym" height="6" width="6" x="-3" y="-3"/><text class="lab" transform="translate(0 11)">6</text></g><path class="edge" d="M 0 0 V -13.4637 H 46"/><circle class="sym" cx="0" cy="0" r="3"/><text class="lab lft" transform="translate(-3 -7)">20</text></g><g class="a27 c2 node n21 p2" transform="translate(46 11.8552)"><g class="a21 i7 leaf node n7 p1 sample" transform="translate(-23 2.06333)"><path class="edge" d="M 0 0 V -2.06333 H 23"/><rect class="sym" height="6" width="6" x="-3" y="-3"/><text class="lab" transform="translate(0 11)">7</text></g><g class="a21 i11 leaf node n11 p2 sample" transform="translate(23 2.06333)"><path class="edge" d="M 0 0 V -2.06333 H -23"/><rect class="sym" height="6" width="6" x="-3" y="-3"/><text class="lab" transform="translate(0 11)">11</text></g><path class="edge" d="M 0 0 V -11.8552 H -46"/><circle class="sym" cx="0" cy="0" r="3"/><text class="lab rgt" transform="translate(3 -7)">21</text></g><path class="edge" d="M 0 0 V -5.84643 H -69"/><circle class="sym" cx="0" cy="0" r="3"/><text class="lab rgt" transform="translate(3 -7)">27</text></g><path class="edge" d="M 0 0 V -12.5686 H 92"/><circle class="sym" cx="0" cy="0" r="3"/><text class="lab lft" transform="translate(-3 -7)">28</text></g><path class="edge" d="M 0 0 V -1.83413 H 80.5"/><circle class="sym" cx="0" cy="0" r="3"/><text class="lab lft" transform="translate(-3 -7)">30</text></g><path class="edge" d="M 0 0 V -3.4362 H 86.25"/><circle class="sym" cx="0" cy="0" r="3"/><text class="lab lft" transform="translate(-3 -7)">31</text></g><path class="edge" d="M 0 0 V -14.784 H 106.375"/><circle class="sym" cx="0" cy="0" r="3"/><text class="lab lft" transform="translate(-3 -7)">32</text></g><g class="a34 c2 node n33 p1" transform="translate(106.375 4.28574)"><g class="a33 i9 leaf node n9 p1 sample" transform="translate(34.5 48.1022)"><path class="edge" d="M 0 0 V -48.1022 H -34.5"/><rect class="sym" height="6" width="6" x="-3" y="-3"/><text class="lab" transform="translate(0 11)">9</text></g><g class="a33 c2 node n24 p1" transform="translate(-34.5 43.0576)"><g class="a24 i1 leaf node n1 p1 sample" transform="translate(-23 5.04458)"><path class="edge" d="M 0 0 V -5.04458 H 23"/><rect class="sym" height="6" width="6" x="-3" y="-3"/><text class="lab" transform="translate(0 11)">1</text></g><g class="a24 i19 leaf node n19 p2 sample" transform="translate(23 5.04458)"><path class="edge" d="M 0 0 V -5.04458 H -23"/><rect class="sym" height="6" width="6" x="-3" y="-3"/><text class="lab" transform="translate(0 11)">19</text></g><path class="edge" d="M 0 0 V -43.0576 H 34.5"/><circle class="sym" cx="0" cy="0" r="3"/><text class="lab lft" transform="translate(-3 -7)">24</text></g><path class="edge" d="M 0 0 V -4.28574 H -106.375"/><circle class="sym" cx="0" cy="0" r="3"/><text class="lab rgt" transform="translate(3 -7)">33</text></g><path class="edge" d="M 0 0 V -53.0882 H 93.4375"/><circle class="sym" cx="0" cy="0" r="3"/><text class="lab lft" transform="translate(-3 -7)">34</text></g><path class="edge" d="M 0 0 V -39.6952 H 69.7188"/><g class="mut m0 s0" transform="translate(0 -16.4054)"><line x1="0" x2="0" y1="0" y2="16.4054"/><path class="sym" d="M -3,-3 l 6,6 M -3,3 l 6,-6"/><text class="lab lft" transform="translate(-5 0)">0</text></g><circle class="sym" cx="0" cy="0" r="3"/><text class="lab lft" transform="translate(-3 -7)">35</text></g><path class="edge" d="M 0 0 V -149.429 H 106.734"/><circle class="sym" cx="0" cy="0" r="3"/><text class="lab lft" transform="translate(-3 -7)">37</text></g><circle class="sym" cx="0" cy="0" r="3"/><text class="lab" transform="translate(0 -11)">38</text></g></g></g></g></g></svg>