<svg baseProfile="full" height="400" version="1.1" width="1000" xmlns="http://www.w3.org/2000/svg" xmlns:ev="http://www.w3.org/2001/xml-events" xmlns:xlink="http://www.w3.org/1999/xlink"><defs><style type="text/css"><![CDATA[.background path {fill: #808080; fill-opacity: 0}.background path:nth-child(odd) {fill-opacity: .1}.x-regions rect {fill: yellow; stroke: black; opacity: 0.5}.axes {font-size: 14px}.x-axis .tick .lab {font-weight: bold; dominant-baseline: hanging}.axes, .tree {font-size: 14px; text-anchor: middle}.axes line, .edge {stroke: black; fill: none}.axes .ax-skip {stroke-dasharray: 4}.y-axis .grid {stroke: #FAFAFA}.node > .sym {fill: black; stroke: none}.site > .sym {stroke: black}.mut text {fill: red; font-style: italic}.mut.extra text {fill: hotpink}.mut line {fill: none; stroke: none}.mut .sym {fill: none; stroke: red}.mut.extra .sym {stroke: hotpink}.node .mut .sym {stroke-width: 1.5px}.tree text, .tree-sequence text {dominant-baseline: central}.plotbox .lab.lft {text-anchor: end}.plotbox .lab.rgt {text-anchor: start}.polytomy line {stroke: black; stroke-dasharray: 1px, 1px}.polytomy text {paint-order:stroke;stroke-width:0.3em;stroke:white}]]></style></defs><g class="tree-sequence"><g class="background"><path d="M20,0 l960,0 l0,338.2 l0,25 l0,5 l-960,0 l0,-5 l0,-25 l0,-338.2z"/></g><g class="axes"><g class="x-axis"><g class="title" transform="translate(500 400)"><text class="lab" text-anchor="middle" transform="translate(0 -11)">Genome position</text></g><line class="ax-line" x1="20" x2="980" y1="363.2" y2="363.2"/><g class="ticks"><g class="tick" transform="translate(20 363.2)"><line x1="0" x2="0" y1="0" y2="5"/><g transform="translate(0 6)"><text class="lab">0</text></g></g><g class="tick" transform="translate(980 363.2)"><line x1="0" x2="0" y1="0" y2="5"/><g transform="translate(0 6)"><text class="lab">1000</text></g></g></g><g class="site s0" transform="translate(31.52 363.2)"><line class="sym" x1="0" x2="0" y1="0" y2="-10"/><g class="mut m0"><polyline class="sym" points="2.5,-6.5 0,-1.5 -2.5,-6.5"/></g></g><g class="site s1" transform="translate(595.04 363.2)"><line class="sym" x1="0" x2="0" y1="0" y2="-10"/><g class="mut m1"><polyline class="sym" points="2.5,-6.5 0,-1.5 -2.5,-6.5"/></g></g><g class="site s2" transform="translate(626.72 363.2)"><line class="sym" x1="0" x2="0" y1="0" y2="-10"/><g class="mut m2"><polyline class="sym" points="2.5,-6.5 0,-1.5 -2.5,-6.5"/></g></g><g class="site s3" transform="translate(694.88 363.2)"><line class="sym" x1="0" x2="0" y1="0" y2="-10"/><g class="mut m3"><polyline class="sym" points="2.5,-6.5 0,-1.5 -2.5,-6.5"/></g></g><g class="site s4" transform="translate(874.4 363.2)"><line class="sym" x1="0" x2="0" y1="0" y2="-10"/><g class="mut m4"><polyline class="sym" points="2.5,-6.5 0,-1.5 -2.5,-6.5"/></g></g><g class="site s5" transform="translate(885.92 363.2)"><line class="sym" x1="0" x2="0" y1="0" y2="-10"/><g class="mut m5"><polyline class="sym" points="2.5,-6.5 0,-1.5 -2.5,-6.5"/></g></g><g class="site s6" transform="translate(958.88 363.2)"><line class="sym" x1="0" x2="0" y1="0" y2="-10"/><g class="mut m6"><polyline class="sym" points="2.5,-6.5 0,-1.5 -2.5,-6.5"/></g></g></g></g><g class="plotbox trees"><g class="tree t0" transform="translate(20 0)"><g class="plotbox"><g class="c2 node n38 p2 root" transform="translate(519.082 26.8)"><g class="a38 c2 m2 node n31 p2 s2" transform="translate(-306.457 271.809)"><g class="a31 c2 node n27 p2" transform="translate(83.375 12.543)"><g class="a27 i6 leaf node n6 p1 sample" transform="translate(-23 10.2479)"><path class="edge" d="M 0 0 V -10.2479 H 23"/><rect class="sym" height="6" width="6" x="-3" y="-3"/><text class="lab" transform="translate(0 11)">6</text></g><g class="a27 i13 leaf node n13 p2 sample" transform="translate(23 10.2479)"><path class="edge" d="M 0 0 V -10.2479 H -23"/><rect class="sym" height="6" width="6" x="-3" y="-3"/><text class="lab" transform="translate(0 11)">13</text></g><path class="edge" d="M 0 0 V -12.543 H -83.375"/><circle class="sym" cx="0" cy="0" r="3"/><text class="lab rgt" transform="translate(3 -7)">27</text></g><g class="a31 c2 node n29 p2" transform="translate(-83.375 4.56371)"><g class="a29 c2 node n22 p2" transform="translate(-63.25 13.5017)"><g class="a22 i0 leaf node n0 p1 sample" transform="translate(-23 4.72542)"><path class="edge" d="M 0 0 V -4.72542 H 23"/><rect class="sym" height="6" width="6" x="-3" y="-3"/><text class="lab" transform="translate(0 11)">0</text></g><g class="a22 i14 leaf node n14 p2 sample" transform="translate(23 4.72542)"><path class="edge" d="M 0 0 V -4.72542 H -23"/><rect class="sym" height="6" width="6" x="-3" y="-3"/><text class="lab" transform="translate(0 11)">14</text></g><path class="edge" d="M 0 0 V -13.5017 H 63.25"/><circle class="sym" cx="0" cy="0" r="3"/><text class="lab lft" transform="translate(-3 -7)">22</text></g><g class="a29 c2 m5 node n26 p1 s5" transform="translate(63.25 10.2136)"><g class="a26 i5 leaf node n5 p1 sample" transform="translate(34.5 8.01355)"><path class="edge" d="M 0 0 V -8.01355 H -34.5"/><rect class="sym" height="6" width="6" x="-3" y="-3"/><text class="lab" transform="translate(0 11)">5</text></g><g class="a26 c2 node n23 p1" transform="translate(-34.5 2.78637)"><g class="a23 i1 leaf node n1 p1 sample" transform="translate(-23 5.22719)"><path class="edge" d="M 0 0 V -5.22719 H 23"/><rect class="sym" height="6" width="6" x="-3" y="-3"/><text class="lab" transform="translate(0 11)">1</text></g><g class="a23 i8 leaf node n8 p1 sample" transform="translate(23 5.22719)"><path class="edge" d="M 0 0 V -5.22719 H -23"/><rect class="sym" height="6" width="6" x="-3" y="-3"/><text class="lab" transform="translate(0 11)">8</text></g><path class="edge" d="M 0 0 V -2.78637 H 34.5"/><circle class="sym" cx="0" cy="0" r="3"/><text class="lab lft" transform="translate(-3 -7)">23</text></g><path class="edge" d="M 0 0 V -10.2136 H -63.25"/><g class="mut m5 s5" transform="translate(0 -0.595471)"><line x1="0" x2="0" y1="0" y2="0.595471"/><path class="sym" d="M -3,-3 l 6,6 M -3,3 l 6,-6"/><text class="lab rgt" transform="translate(5 0)">5</text></g><circle class="sym" cx="0" cy="0" r="3"/><text class="lab rgt" transform="translate(3 -7)">26</text></g><path class="edge" d="M 0 0 V -4.56371 H 83.375"/><circle class="sym" cx="0" cy="0" r="3"/><text class="lab lft" transform="translate(-3 -7)">29</text></g><path class="edge" d="M 0 0 V -271.809 H 306.457"/><g class="mut m2 s2" transform="translate(0 -190.177)"><line x1="0" x2="0" y1="0" y2="190.177"/><path class="sym" d="M -3,-3 l 6,6 M -3,3 l 6,-6"/><text class="lab lft" transform="translate(-5 0)">2</text></g><circle class="sym" cx="0" cy="0" r="3"/><text class="lab lft" transform="translate(-3 -7)">31</text></g><g class="a38 c2 node n37 p1" transform="translate(306.457 221.534)"><g class="a37 i12 leaf m0 node n12 p2 s0 sample" transform="translate(91.4609 73.0655)"><path class="edge" d="M 0 0 V -73.0655 H -91.4609"/><g class="mut m0 s0" transform="translate(0 -3.56052)"><line x1="0" x2="0" y1="0" y2="3.56052"/><path class="sym" d="M -3,-3 l 6,6 M -3,3 l 6,-6"/><text class="lab rgt" transform="translate(5 0)">0</text></g><rect class="sym" height="6" width="6" x="-3" y="-3"/><text class="lab" transform="translate(0 11)">12</text></g><g class="a37 c2 node n36 p1" transform="translate(-91.4609 16.3082)"><g class="a36 c2 node n32 p2" transform="translate(79.4219 32.9311)"><g class="a32 i15 leaf node n15 p2 sample" transform="translate(-34.5 23.8262)"><path class="edge" d="M 0 0 V -23.8262 H 34.5"/><rect class="sym" height="6" width="6" x="-3" y="-3"/><text class="lab" transform="translate(0 11)">15</text></g><g class="a32 c2 node n25 p1" transform="translate(34.5 16.2802)"><g class="a25 i16 leaf node n16 p2 sample" transform="translate(-23 7.546)"><path class="edge" d="M 0 0 V -7.546 H 23"/><rect class="sym" height="6" width="6" x="-3" y="-3"/><text class="lab" transform="translate(0 11)">16</text></g><g class="a25 i19 leaf node n19 p2 sample" transform="translate(23 7.546)"><path class="edge" d="M 0 0 V -7.546 H -23"/><rect class="sym" height="6" width="6" x="-3" y="-3"/><text class="lab" transform="translate(0 11)">19</text></g><path class="edge" d="M 0 0 V -16.2802 H -34.5"/><circle class="sym" cx="0" cy="0" r="3"/><text class="lab rgt" transform="translate(3 -7)">25</text></g><path class="edge" d="M 0 0 V -32.9311 H -79.4219"/><circle class="sym" cx="0" cy="0" r="3"/><text class="lab rgt" transform="translate(3 -7)">32</text></g><g class="a36 c2 node n35 p1" transform="translate(-79.4219 3.10652)"><g class="a35 i17 leaf m3 m4 node n17 p2 s3 s4 sample" transform="translate(78.3438 53.6508)"><path class="edge" d="M 0 0 V -53.6508 H -78.3438"/><g class="mut m4 s4" transform="translate(0 -10.2693)"><line x1="0" x2="0" y1="0" y2="10.2693"/><path class="sym" d="M -3,-3 l 6,6 M -3,3 l 6,-6"/><text class="lab rgt" transform="translate(5 0)">4</text></g><g class="mut m3 s3" transform="translate(0 -2.26146)"><line x1="0" x2="0" y1="0" y2="2.26146"/><path class="sym" d="M -3,-3 l 6,6 M -3,3 l 6,-6"/><text class="lab rgt" transform="translate(5 0)">3</text></g><rect class="sym" height="6" width="6" x="-3" y="-3"/><text class="lab" transform="translate(0 11)">17</text></g><g class="a35 c2 node n34 p2" transform="translate(-78.3438 14.9057)"><g class="a34 c2 node n24 p1" transform="translate(76.1875 31.4553)"><g class="a24 i10 leaf node n10 p2 sample" transform="translate(34.5 7.28981)"><path class="edge" d="M 0 0 V -7.28981 H -34.5"/><rect class="sym" height="6" width="6" x="-3" y="-3"/><text class="lab" transform="translate(0 11)">10</text></g><g class="a24 c2 node n20 p1" transform="translate(-34.5 5.4477)"><g class="a20 i9 leaf node n9 p1 sample" transform="translate(-23 1.84211)"><path class="edge" d="M 0 0 V -1.84211 H 23"/><rect class="sym" height="6" width="6" x="-3" y="-3"/><text class="lab" transform="translate(0 11)">9</text></g><g class="a20 i11 leaf node n11 p2 sample" transform="translate(23 1.84211)"><path class="edge" d="M 0 0 V -1.84211 H -23"/><rect class="sym" height="6" width="6" x="-3" y="-3"/><text class="lab" transform="translate(0 11)">11</text></g><path class="edge" d="M 0 0 V -5.4477 H 34.5"/><circle class="sym" cx="0" cy="0" r="3"/><text class="lab lft" transform="translate(-3 -7)">20</text></g><path class="edge" d="M 0 0 V -31.4553 H -76.1875"/><circle class="sym" cx="0" cy="0" r="3"/><text class="lab rgt" transform="translate(3 -7)">24</text></g><g class="a34 c2 m6 node n33 p1 s6" transform="translate(-76.1875 6.93767)"><g class="a33 i18 leaf m1 node n18 p2 s1 sample" transform="translate(48.875 31.8074)"><path class="edge" d="M 0 0 V -31.8074 H -48.875"/><g class="mut m1 s1" transform="translate(0 -29.9929)"><line x1="0" x2="0" y1="0" y2="29.9929"/><path class="sym" d="M -3,-3 l 6,6 M -3,3 l 6,-6"/><text class="lab rgt" transform="translate(5 0)">1</text></g><rect class="sym" height="6" width="6" x="-3" y="-3"/><text class="lab" transform="translate(0 11)">18</text></g><g class="a33 c2 node n30 p1" transform="translate(-48.875 11.9289)"><g class="a30 i7 leaf node n7 p1 sample" transform="translate(51.75 19.8786)"><path class="edge" d="M 0 0 V -19.8786 H -51.75"/><rect class="sym" height="6" width="6" x="-3" y="-3"/><text class="lab" transform="translate(0 11)">7</text></g><g class="a30 c2 node n28 p2" transform="translate(-51.75 6.65643)"><g class="a28 i2 leaf node n2 p1 sample" transform="translate(-34.5 13.2221)"><path class="edge" d="M 0 0 V -13.2221 H 34.5"/><rect class="sym" height="6" width="6" x="-3" y="-3"/><text class="lab" transform="translate(0 11)">2</text></g><g class="a28 c2 node n21 p2" transform="translate(34.5 9.56999)"><g class="a21 i3 leaf node n3 p1 sample" transform="translate(-23 3.65214)"><path class="edge" d="M 0 0 V -3.65214 H 23"/><rect class="sym" height="6" width="6" x="-3" y="-3"/><text class="lab" transform="translate(0 11)">3</text></g><g class="a21 i4 leaf node n4 p1 sample" transform="translate(23 3.65214)"><path class="edge" d="M 0 0 V -3.65214 H -23"/><rect class="sym" height="6" width="6" x="-3" y="-3"/><text class="lab" transform="translate(0 11)">4</text></g><path class="edge" d="M 0 0 V -9.56999 H -34.5"/><circle class="sym" cx="0" cy="0" r="3"/><text class="lab rgt" transform="translate(3 -7)">21</text></g><path class="edge" d="M 0 0 V -6.65643 H 51.75"/><circle class="sym" cx="0" cy="0" r="3"/><text class="lab lft" transform="translate(-3 -7)">28</text></g><path class="edge" d="M 0 0 V -11.9289 H 48.875"/><circle class="sym" cx="0" cy="0" r="3"/><text class="lab lft" transform="translate(-3 -7)">30</text></g><path class="edge" d="M 0 0 V -6.93767 H 76.1875"/><g class="mut m6 s6" transform="translate(0 -5.6145)"><line x1="0" x2="0" y1="0" y2="5.6145"/><path class="sym" d="M -3,-3 l 6,6 M -3,3 l 6,-6"/><text class="lab lft" transform="translate(-5 0)">6</text></g><circle class="sym" cx="0" cy="0" r="3"/><text class="lab lft" transform="translate(-3 -7)">33</text></g><path class="edge" d="M 0 0 V -14.9057 H 78.3438"/><circle class="sym" cx="0" cy="0" r="3"/><text class="lab lft" transform="translate(-3 -7)">34</text></g><path class="edge" d="M 0 0 V -3.10652 H 79.4219"/><circle class="sym" cx="0" cy="0" r="3"/><text class="lab lft" transform="translate(-3 -7)">35</text></g><path class="edge" d="M 0 0 V -16.3082 H 91.4609"/><circle class="sym" cx="0" cy="0" r="3"/><text class="lab lft" transform="translate(-3 -7)">36</text></g><path class="edge" d="M 0 0 V -221.534 H -306.457"/><circle class="sym" cx="0" cy="0" r="3"/><text class="lab rgt" transform="translate(3 -7)">37</text></g><circle class="sym" cx="0" cy="0" r="3"/><text class="lab" transform="translate(0 -11)">38</text></g></g></g></g></g></svg>