<svg baseProfile="full" height="400" version="1.1" width="1000" xmlns="http://www.w3.org/2000/svg" xmlns:ev="http://www.w3.org/2001/xml-events" xmlns:xlink="http://www.w3.org/1999/xlink"><defs><style type="text/css"><![CDATA[.background path {fill: #808080; fill-opacity: 0}.background path:nth-child(odd) {fill-opacity: .1}.x-regions rect {fill: yellow; stroke: black; opacity: 0.5}.axes {font-size: 14px}.x-axis .tick .lab {font-weight: bold; dominant-baseline: hanging}.axes, .tree {font-size: 14px; text-anchor: middle}.axes line, .edge {stroke: black; fill: none}.axes .ax-skip {stroke-dasharray: 4}.y-axis .grid {stroke: #FAFAFA}.node > .sym {fill: black; stroke: none}.site > .sym {stroke: black}.mut text {fill: red; font-style: italic}.mut.extra text {fill: hotpink}.mut line {fill: none; stroke: none}.mut .sym {fill: none; stroke: red}.mut.extra .sym {stroke: hotpink}.node .mut .sym {stroke-width: 1.5px}.tree text, .tree-sequence text {dominant-baseline: central}.plotbox .lab.lft {text-anchor: end}.plotbox .lab.rgt {text-anchor: start}.polytomy line {stroke: black; stroke-dasharray: 1px, 1px}.polytomy text {paint-order:stroke;stroke-width:0.3em;stroke:white}]]></style></defs><g class="tree-sequence"><g class="background"><path d="M20,0 l960,0 l0,338.2 l0,25 l0,5 l-960,0 l0,-5 l0,-25 l0,-338.2z"/></g><g class="axes"><g class="x-axis"><g class="title" transform="translate(500 400)"><text class="lab" text-anchor="middle" transform="translate(0 -11)">Genome position</text></g><line class="ax-line" x1="20" x2="980" y1="363.2" y2="363.2"/><g class="ticks"><g class="tick" transform="translate(20 363.2)"><line x1="0" x2="0" y1="0" y2="5"/><g transform="translate(0 6)"><text class="lab">0</text></g></g><g class="tick" transform="translate(980 363.2)"><line x1="0" x2="0" y1="0" y2="5"/><g transform="translate(0 6)"><text class="lab">1000</text></g></g></g><g class="site s0" transform="translate(161.12 363.2)"><line class="sym" x1="0" x2="0" y1="0" y2="-10"/><g class="mut m0"><polyline class="sym" points="2.5,-6.5 0,-1.5 -2.5,-6.5"/></g></g><g class="site s1" transform="translate(772.64 363.2)"><line class="sym" x1="0" x2="0" y1="0" y2="-10"/><g class="mut m1"><polyline class="sym" points="2.5,-6.5 0,-1.5 -2.5,-6.5"/></g></g></g></g><g class="plotbox trees"><g class="tree t0" transform="translate(20 0)"><g class="plotbox"><g class="c2 node n38 p0 root" transform="translate(819.789 26.8)"><g class="a38 i3 leaf node n3 p1 sample" transform="translate(97.2109 294.6)"><path class="edge" d="M 0 0 V -294.6 H -97.2109"/><rect class="sym" height="6" width="6" x="-3" y="-3"/><text class="lab" transform="translate(0 11)">3</text></g><g class="a38 c2 m0 node n37 p0 s0" transform="translate(-97.2109 29.7342)"><g class="a37 c2 node n28 p1" transform="translate(125.422 239.574)"><g class="a28 i8 leaf node n8 p1 sample" transform="translate(-23 25.2918)"><path class="edge" d="M 0 0 V -25.2918 H 23"/><rect class="sym" height="6" width="6" x="-3" y="-3"/><text class="lab" transform="translate(0 11)">8</text></g><g class="a28 i17 leaf node n17 p2 sample" transform="translate(23 25.2918)"><path class="edge" d="M 0 0 V -25.2918 H -23"/><rect class="sym" height="6" width="6" x="-3" y="-3"/><text class="lab" transform="translate(0 11)">17</text></g><path class="edge" d="M 0 0 V -239.574 H -125.422"/><circle class="sym" cx="0" cy="0" r="3"/><text class="lab rgt" transform="translate(3 -7)">28</text></g><g class="a37 c2 node n36 p0" transform="translate(-125.422 7.15056)"><g class="a36 c2 node n34 p1" transform="translate(147.344 37.3631)"><g class="a34 i10 leaf m1 node n10 p2 s1 sample" transform="translate(34.5 220.352)"><path class="edge" d="M 0 0 V -220.352 H -34.5"/><g class="mut m1 s1" transform="translate(0 -204.7)"><line x1="0" x2="0" y1="0" y2="204.7"/><path class="sym" d="M -3,-3 l 6,6 M -3,3 l 6,-6"/><text class="lab rgt" transform="translate(5 0)">1</text></g><rect class="sym" height="6" width="6" x="-3" y="-3"/><text class="lab" transform="translate(0 11)">10</text></g><g class="a34 c2 node n21 p2" transform="translate(-34.5 216.193)"><g class="a21 i1 leaf node n1 p1 sample" transform="translate(-23 4.15958)"><path class="edge" d="M 0 0 V -4.15958 H 23"/><rect class="sym" height="6" width="6" x="-3" y="-3"/><text class="lab" transform="translate(0 11)">1</text></g><g class="a21 i11 leaf node n11 p2 sample" transform="translate(23 4.15958)"><path class="edge" d="M 0 0 V -4.15958 H -23"/><rect class="sym" height="6" width="6" x="-3" y="-3"/><text class="lab" transform="translate(0 11)">11</text></g><path class="edge" d="M 0 0 V -216.193 H 34.5"/><circle class="sym" cx="0" cy="0" r="3"/><text class="lab lft" transform="translate(-3 -7)">21</text></g><path class="edge" d="M 0 0 V -37.3631 H -147.344"/><circle class="sym" cx="0" cy="0" r="3"/><text class="lab rgt" transform="translate(3 -7)">34</text></g><g class="a36 c2 node n35 p2" transform="translate(-147.344 12.808)"><g class="a35 c2 node n31 p2" transform="translate(156.688 141.027)"><g class="a31 i15 leaf node n15 p2 sample" transform="translate(34.5 103.88)"><path class="edge" d="M 0 0 V -103.88 H -34.5"/><rect class="sym" height="6" width="6" x="-3" y="-3"/><text class="lab" transform="translate(0 11)">15</text></g><g class="a31 c2 node n26 p2" transform="translate(-34.5 86.9058)"><g class="a26 i9 leaf node n9 p1 sample" transform="translate(-23 16.9741)"><path class="edge" d="M 0 0 V -16.9741 H 23"/><rect class="sym" height="6" width="6" x="-3" y="-3"/><text class="lab" transform="translate(0 11)">9</text></g><g class="a26 i18 leaf node n18 p2 sample" transform="translate(23 16.9741)"><path class="edge" d="M 0 0 V -16.9741 H -23"/><rect class="sym" height="6" width="6" x="-3" y="-3"/><text class="lab" transform="translate(0 11)">18</text></g><path class="edge" d="M 0 0 V -86.9058 H 34.5"/><circle class="sym" cx="0" cy="0" r="3"/><text class="lab lft" transform="translate(-3 -7)">26</text></g><path class="edge" d="M 0 0 V -141.027 H -156.688"/><circle class="sym" cx="0" cy="0" r="3"/><text class="lab rgt" transform="translate(3 -7)">31</text></g><g class="a35 c2 node n33 p2" transform="translate(-156.688 127.616)"><g class="a33 c2 node n29 p1" transform="translate(135.125 81.7194)"><g class="a29 c2 node n23 p2" transform="translate(-51.75 30.0763)"><g class="a23 i7 leaf node n7 p1 sample" transform="translate(34.5 5.4954)"><path class="edge" d="M 0 0 V -5.4954 H -34.5"/><rect class="sym" height="6" width="6" x="-3" y="-3"/><text class="lab" transform="translate(0 11)">7</text></g><g class="a23 c2 node n20 p2" transform="translate(-34.5 2.53318)"><g class="a20 i4 leaf node n4 p1 sample" transform="translate(-23 2.96222)"><path class="edge" d="M 0 0 V -2.96222 H 23"/><rect class="sym" height="6" width="6" x="-3" y="-3"/><text class="lab" transform="translate(0 11)">4</text></g><g class="a20 i13 leaf node n13 p2 sample" transform="translate(23 2.96222)"><path class="edge" d="M 0 0 V -2.96222 H -23"/><rect class="sym" height="6" width="6" x="-3" y="-3"/><text class="lab" transform="translate(0 11)">13</text></g><path class="edge" d="M 0 0 V -2.53318 H 34.5"/><circle class="sym" cx="0" cy="0" r="3"/><text class="lab lft" transform="translate(-3 -7)">20</text></g><path class="edge" d="M 0 0 V -30.0763 H 51.75"/><circle class="sym" cx="0" cy="0" r="3"/><text class="lab lft" transform="translate(-3 -7)">23</text></g><g class="a29 c2 node n27 p1" transform="translate(51.75 17.1098)"><g class="a27 i5 leaf node n5 p1 sample" transform="translate(-23 18.4619)"><path class="edge" d="M 0 0 V -18.4619 H 23"/><rect class="sym" height="6" width="6" x="-3" y="-3"/><text class="lab" transform="translate(0 11)">5</text></g><g class="a27 i6 leaf node n6 p1 sample" transform="translate(23 18.4619)"><path class="edge" d="M 0 0 V -18.4619 H -23"/><rect class="sym" height="6" width="6" x="-3" y="-3"/><text class="lab" transform="translate(0 11)">6</text></g><path class="edge" d="M 0 0 V -17.1098 H -51.75"/><circle class="sym" cx="0" cy="0" r="3"/><text class="lab rgt" transform="translate(3 -7)">27</text></g><path class="edge" d="M 0 0 V -81.7194 H -135.125"/><circle class="sym" cx="0" cy="0" r="3"/><text class="lab rgt" transform="translate(3 -7)">29</text></g><g class="a33 c2 node n32 p1" transform="translate(-135.125 11.4457)"><g class="a32 c2 node n24 p1" transform="translate(57.5 94.4173)"><g class="a24 i12 leaf node n12 p2 sample" transform="translate(-34.5 11.4281)"><path class="edge" d="M 0 0 V -11.4281 H 34.5"/><rect class="sym" height="6" width="6" x="-3" y="-3"/><text class="lab" transform="translate(0 11)">12</text></g><g class="a24 c2 node n22 p2" transform="translate(34.5 6.20015)"><g class="a22 i14 leaf node n14 p2 sample" transform="translate(-23 5.22796)"><path class="edge" d="M 0 0 V -5.22796 H 23"/><rect class="sym" height="6" width="6" x="-3" y="-3"/><text class="lab" transform="translate(0 11)">14</text></g><g class="a22 i16 leaf node n16 p2 sample" transform="translate(23 5.22796)"><path class="edge" d="M 0 0 V -5.22796 H -23"/><rect class="sym" height="6" width="6" x="-3" y="-3"/><text class="lab" transform="translate(0 11)">16</text></g><path class="edge" d="M 0 0 V -6.20015 H -34.5"/><circle class="sym" cx="0" cy="0" r="3"/><text class="lab rgt" transform="translate(3 -7)">22</text></g><path class="edge" d="M 0 0 V -94.4173 H -57.5"/><circle class="sym" cx="0" cy="0" r="3"/><text class="lab rgt" transform="translate(3 -7)">24</text></g><g class="a32 c2 node n30 p1" transform="translate(-57.5 40.1439)"><g class="a30 i19 leaf node n19 p2 sample" transform="translate(34.5 65.7015)"><path class="edge" d="M 0 0 V -65.7015 H -34.5"/><rect class="sym" height="6" width="6" x="-3" y="-3"/><text class="lab" transform="translate(0 11)">19</text></g><g class="a30 c2 node n25 p1" transform="translate(-34.5 52.9545)"><g class="a25 i0 leaf node n0 p1 sample" transform="translate(-23 12.747)"><path class="edge" d="M 0 0 V -12.747 H 23"/><rect class="sym" height="6" width="6" x="-3" y="-3"/><text class="lab" transform="translate(0 11)">0</text></g><g class="a25 i2 leaf node n2 p1 sample" transform="translate(23 12.747)"><path class="edge" d="M 0 0 V -12.747 H -23"/><rect class="sym" height="6" width="6" x="-3" y="-3"/><text class="lab" transform="translate(0 11)">2</text></g><path class="edge" d="M 0 0 V -52.9545 H 34.5"/><circle class="sym" cx="0" cy="0" r="3"/><text class="lab lft" transform="translate(-3 -7)">25</text></g><path class="edge" d="M 0 0 V -40.1439 H 57.5"/><circle class="sym" cx="0" cy="0" r="3"/><text class="lab lft" transform="translate(-3 -7)">30</text></g><path class="edge" d="M 0 0 V -11.4457 H 135.125"/><circle class="sym" cx="0" cy="0" r="3"/><text class="lab lft" transform="translate(-3 -7)">32</text></g><path class="edge" d="M 0 0 V -127.616 H 156.688"/><circle class="sym" cx="0" cy="0" r="3"/><text class="lab lft" transform="translate(-3 -7)">33</text></g><path class="edge" d="M 0 0 V -12.808 H 147.344"/><circle class="sym" cx="0" cy="0" r="3"/><text class="lab lft" transform="translate(-3 -7)">35</text></g><path class="edge" d="M 0 0 V -7.15056 H 125.422"/><circle class="sym" cx="0" cy="0" r="3"/><text class="lab lft" transform="translate(-3 -7)">36</text></g><path class="edge" d="M 0 0 V -29.7342 H 97.2109"/><g class="mut m0 s0" transform="translate(0 -4.32763)"><line x1="0" x2="0" y1="0" y2="4.32763"/><path class="sym" d="M -3,-3 l 6,6 M -3,3 l 6,-6"/><text class="lab lft" transform="translate(-5 0)">0</text></g><circle class="sym" cx="0" cy="0" r="3"/><text class="lab lft" transform="translate(-3 -7)">37</text></g><circle class="sym" cx="0" cy="0" r="3"/><text class="lab" transform="translate(0 -11)">38</text></g></g></g></g></g></svg>