<svg baseProfile="full" height="400" version="1.1" width="1000" xmlns="http://www.w3.org/2000/svg" xmlns:ev="http://www.w3.org/2001/xml-events" xmlns:xlink="http://www.w3.org/1999/xlink"><defs><style type="text/css"><![CDATA[.background path {fill: #808080; fill-opacity: 0}.background path:nth-child(odd) {fill-opacity: .1}.x-regions rect {fill: yellow; stroke: black; opacity: 0.5}.axes {font-size: 14px}.x-axis .tick .lab {font-weight: bold; dominant-baseline: hanging}.axes, .tree {font-size: 14px; text-anchor: middle}.axes line, .edge {stroke: black; fill: none}.axes .ax-skip {stroke-dasharray: 4}.y-axis .grid {stroke: #FAFAFA}.node > .sym {fill: black; stroke: none}.site > .sym {stroke: black}.mut text {fill: red; font-style: italic}.mut.extra text {fill: hotpink}.mut line {fill: none; stroke: none}.mut .sym {fill: none; stroke: red}.mut.extra .sym {stroke: hotpink}.node .mut .sym {stroke-width: 1.5px}.tree text, .tree-sequence text {dominant-baseline: central}.plotbox .lab.lft {text-anchor: end}.plotbox .lab.rgt {text-anchor: start}.polytomy line {stroke: black; stroke-dasharray: 1px, 1px}.polytomy text {paint-order:stroke;stroke-width:0.3em;stroke:white}]]></style></defs><g class="tree-sequence"><g class="background"><path d="M20,0 l960,0 l0,338.2 l0,25 l0,5 l-960,0 l0,-5 l0,-25 l0,-338.2z"/></g><g class="axes"><g class="x-axis"><g class="title" transform="translate(500 400)"><text class="lab" text-anchor="middle" transform="translate(0 -11)">Genome position</text></g><line class="ax-line" x1="20" x2="980" y1="363.2" y2="363.2"/><g class="ticks"><g class="tick" transform="translate(20 363.2)"><line x1="0" x2="0" y1="0" y2="5"/><g transform="translate(0 6)"><text class="lab">0</text></g></g><g class="tick" transform="translate(980 363.2)"><line x1="0" x2="0" y1="0" y2="5"/><g transform="translate(0 6)"><text class="lab">1000</text></g></g></g><g class="site s0" transform="translate(62.24 363.2)"><line class="sym" x1="0" x2="0" y1="0" y2="-10"/><g class="mut m0"><polyline class="sym" points="2.5,-6.5 0,-1.5 -2.5,-6.5"/></g></g><g class="site s1" transform="translate(252.32 363.2)"><line class="sym" x1="0" x2="0" y1="0" y2="-10"/><g class="mut m1"><polyline class="sym" points="2.5,-6.5 0,-1.5 -2.5,-6.5"/></g></g><g class="site s2" transform="translate(896.48 363.2)"><line class="sym" x1="0" x2="0" y1="0" y2="-10"/><g class="mut m2"><polyline class="sym" points="2.5,-6.5 0,-1.5 -2.5,-6.5"/></g></g><g class="site s3" transform="translate(903.2 363.2)"><line class="sym" x1="0" x2="0" y1="0" y2="-10"/><g class="mut m3"><polyline class="sym" points="2.5,-6.5 0,-1.5 -2.5,-6.5"/></g></g><g class="site s4" transform="translate(911.84 363.2)"><line class="sym" x1="0" x2="0" y1="0" y2="-10"/><g class="mut m4"><polyline class="sym" points="2.5,-6.5 0,-1.5 -2.5,-6.5"/></g></g></g></g><g class="plotbox trees"><g class="tree t0" transform="translate(20 0)"><g class="plotbox"><g class="c2 node n38 p0 root" transform="translate(685.922 26.8)"><g class="a38 c2 node n33 p0" transform="translate(208.078 247.184)"><g class="a33 i3 leaf node n3 p1 sample" transform="translate(-23 47.4158)"><path class="edge" d="M 0 0 V -47.4158 H 23"/><rect class="sym" height="6" width="6" x="-3" y="-3"/><text class="lab" transform="translate(0 11)">3</text></g><g class="a33 i7 leaf node n7 p1 sample" transform="translate(23 47.4158)"><path class="edge" d="M 0 0 V -47.4158 H -23"/><rect class="sym" height="6" width="6" x="-3" y="-3"/><text class="lab" transform="translate(0 11)">7</text></g><path class="edge" d="M 0 0 V -247.184 H -208.078"/><circle class="sym" cx="0" cy="0" r="3"/><text class="lab rgt" transform="translate(3 -7)">33</text></g><g class="a38 c2 m0 m1 m2 node n37 p0 s0 s1 s2" transform="translate(-208.078 237.507)"><g class="a37 c2 node n34 p0" transform="translate(-212.031 7.48388)"><g class="a34 i12 leaf node n12 p2 sample" transform="translate(53.1875 49.6087)"><path class="edge" d="M 0 0 V -49.6087 H -53.1875"/><rect class="sym" height="6" width="6" x="-3" y="-3"/><text class="lab" transform="translate(0 11)">12</text></g><g class="a34 c2 node n32 p0" transform="translate(-53.1875 2.94045)"><g class="a32 i6 leaf m4 node n6 p1 s4 sample" transform="translate(60.375 46.6682)"><path class="edge" d="M 0 0 V -46.6682 H -60.375"/><g class="mut m4 s4" transform="translate(0 -23.0683)"><line x1="0" x2="0" y1="0" y2="23.0683"/><path class="sym" d="M -3,-3 l 6,6 M -3,3 l 6,-6"/><text class="lab rgt" transform="translate(5 0)">4</text></g><rect class="sym" height="6" width="6" x="-3" y="-3"/><text class="lab" transform="translate(0 11)">6</text></g><g class="a32 c2 node n31 p2" transform="translate(-60.375 18.1431)"><g class="a31 c2 node n20 p1" transform="translate(51.75 27.7566)"><g class="a20 i4 leaf node n4 p1 sample" transform="translate(-23 0.768566)"><path class="edge" d="M 0 0 V -0.768566 H 23"/><rect class="sym" height="6" width="6" x="-3" y="-3"/><text class="lab" transform="translate(0 11)">4</text></g><g class="a20 i14 leaf node n14 p2 sample" transform="translate(23 0.768566)"><path class="edge" d="M 0 0 V -0.768566 H -23"/><rect class="sym" height="6" width="6" x="-3" y="-3"/><text class="lab" transform="translate(0 11)">14</text></g><path class="edge" d="M 0 0 V -27.7566 H -51.75"/><circle class="sym" cx="0" cy="0" r="3"/><text class="lab rgt" transform="translate(3 -7)">20</text></g><g class="a31 c2 node n27 p1" transform="translate(-51.75 16.1641)"><g class="a27 i2 leaf m3 node n2 p1 s3 sample" transform="translate(34.5 12.361)"><path class="edge" d="M 0 0 V -12.361 H -34.5"/><g class="mut m3 s3" transform="translate(0 -9.55749)"><line x1="0" x2="0" y1="0" y2="9.55749"/><path class="sym" d="M -3,-3 l 6,6 M -3,3 l 6,-6"/><text class="lab rgt" transform="translate(5 0)">3</text></g><rect class="sym" height="6" width="6" x="-3" y="-3"/><text class="lab" transform="translate(0 11)">2</text></g><g class="a27 c2 node n25 p1" transform="translate(-34.5 6.8899)"><g class="a25 i0 leaf node n0 p1 sample" transform="translate(-23 5.47111)"><path class="edge" d="M 0 0 V -5.47111 H 23"/><rect class="sym" height="6" width="6" x="-3" y="-3"/><text class="lab" transform="translate(0 11)">0</text></g><g class="a25 i8 leaf node n8 p1 sample" transform="translate(23 5.47111)"><path class="edge" d="M 0 0 V -5.47111 H -23"/><rect class="sym" height="6" width="6" x="-3" y="-3"/><text class="lab" transform="translate(0 11)">8</text></g><path class="edge" d="M 0 0 V -6.8899 H 34.5"/><circle class="sym" cx="0" cy="0" r="3"/><text class="lab lft" transform="translate(-3 -7)">25</text></g><path class="edge" d="M 0 0 V -16.1641 H 51.75"/><circle class="sym" cx="0" cy="0" r="3"/><text class="lab lft" transform="translate(-3 -7)">27</text></g><path class="edge" d="M 0 0 V -18.1431 H 60.375"/><circle class="sym" cx="0" cy="0" r="3"/><text class="lab lft" transform="translate(-3 -7)">31</text></g><path class="edge" d="M 0 0 V -2.94045 H 53.1875"/><circle class="sym" cx="0" cy="0" r="3"/><text class="lab lft" transform="translate(-3 -7)">32</text></g><path class="edge" d="M 0 0 V -7.48388 H 212.031"/><circle class="sym" cx="0" cy="0" r="3"/><text class="lab lft" transform="translate(-3 -7)">34</text></g><g class="a37 c2 node n36 p0" transform="translate(212.031 2.40552)"><g class="a36 c2 node n29 p2" transform="translate(112.125 41.6995)"><g class="a29 i9 leaf node n9 p1 sample" transform="translate(-23 12.9876)"><path class="edge" d="M 0 0 V -12.9876 H 23"/><rect class="sym" height="6" width="6" x="-3" y="-3"/><text class="lab" transform="translate(0 11)">9</text></g><g class="a29 i16 leaf node n16 p2 sample" transform="translate(23 12.9876)"><path class="edge" d="M 0 0 V -12.9876 H -23"/><rect class="sym" height="6" width="6" x="-3" y="-3"/><text class="lab" transform="translate(0 11)">16</text></g><path class="edge" d="M 0 0 V -41.6995 H -112.125"/><circle class="sym" cx="0" cy="0" r="3"/><text class="lab rgt" transform="translate(3 -7)">29</text></g><g class="a36 c2 node n35 p0" transform="translate(-112.125 3.99499)"><g class="a35 c2 node n24 p1" transform="translate(97.75 45.5171)"><g class="a24 i11 leaf node n11 p2 sample" transform="translate(-34.5 5.17499)"><path class="edge" d="M 0 0 V -5.17499 H 34.5"/><rect class="sym" height="6" width="6" x="-3" y="-3"/><text class="lab" transform="translate(0 11)">11</text></g><g class="a24 c2 node n22 p1" transform="translate(34.5 1.95636)"><g class="a22 i15 leaf node n15 p2 sample" transform="translate(-23 3.21863)"><path class="edge" d="M 0 0 V -3.21863 H 23"/><rect class="sym" height="6" width="6" x="-3" y="-3"/><text class="lab" transform="translate(0 11)">15</text></g><g class="a22 i17 leaf node n17 p2 sample" transform="translate(23 3.21863)"><path class="edge" d="M 0 0 V -3.21863 H -23"/><rect class="sym" height="6" width="6" x="-3" y="-3"/><text class="lab" transform="translate(0 11)">17</text></g><path class="edge" d="M 0 0 V -1.95636 H -34.5"/><circle class="sym" cx="0" cy="0" r="3"/><text class="lab rgt" transform="translate(3 -7)">22</text></g><path class="edge" d="M 0 0 V -45.5171 H -97.75"/><circle class="sym" cx="0" cy="0" r="3"/><text class="lab rgt" transform="translate(3 -7)">24</text></g><g class="a35 c2 node n30 p1" transform="translate(-97.75 23.4633)"><g class="a30 c2 node n26 p1" transform="translate(80.5 20.3508)"><g class="a26 i19 leaf node n19 p2 sample" transform="translate(34.5 6.87797)"><path class="edge" d="M 0 0 V -6.87797 H -34.5"/><rect class="sym" height="6" width="6" x="-3" y="-3"/><text class="lab" transform="translate(0 11)">19</text></g><g class="a26 c2 node n23 p1" transform="translate(-34.5 3.59627)"><g class="a23 i5 leaf node n5 p1 sample" transform="translate(-23 3.28169)"><path class="edge" d="M 0 0 V -3.28169 H 23"/><rect class="sym" height="6" width="6" x="-3" y="-3"/><text class="lab" transform="translate(0 11)">5</text></g><g class="a23 i18 leaf node n18 p2 sample" transform="translate(23 3.28169)"><path class="edge" d="M 0 0 V -3.28169 H -23"/><rect class="sym" height="6" width="6" x="-3" y="-3"/><text class="lab" transform="translate(0 11)">18</text></g><path class="edge" d="M 0 0 V -3.59627 H 34.5"/><circle class="sym" cx="0" cy="0" r="3"/><text class="lab lft" transform="translate(-3 -7)">23</text></g><path class="edge" d="M 0 0 V -20.3508 H -80.5"/><circle class="sym" cx="0" cy="0" r="3"/><text class="lab rgt" transform="translate(3 -7)">26</text></g><g class="a30 c2 node n28 p1" transform="translate(-80.5 14.8407)"><g class="a28 i1 leaf node n1 p1 sample" transform="translate(-34.5 12.3881)"><path class="edge" d="M 0 0 V -12.3881 H 34.5"/><rect class="sym" height="6" width="6" x="-3" y="-3"/><text class="lab" transform="translate(0 11)">1</text></g><g class="a28 c2 node n21 p2" transform="translate(34.5 11.0582)"><g class="a21 i10 leaf node n10 p2 sample" transform="translate(-23 1.3298)"><path class="edge" d="M 0 0 V -1.3298 H 23"/><rect class="sym" height="6" width="6" x="-3" y="-3"/><text class="lab" transform="translate(0 11)">10</text></g><g class="a21 i13 leaf node n13 p2 sample" transform="translate(23 1.3298)"><path class="edge" d="M 0 0 V -1.3298 H -23"/><rect class="sym" height="6" width="6" x="-3" y="-3"/><text class="lab" transform="translate(0 11)">13</text></g><path class="edge" d="M 0 0 V -11.0582 H -34.5"/><circle class="sym" cx="0" cy="0" r="3"/><text class="lab rgt" transform="translate(3 -7)">21</text></g><path class="edge" d="M 0 0 V -14.8407 H 80.5"/><circle class="sym" cx="0" cy="0" r="3"/><text class="lab lft" transform="translate(-3 -7)">28</text></g><path class="edge" d="M 0 0 V -23.4633 H 97.75"/><circle class="sym" cx="0" cy="0" r="3"/><text class="lab lft" transform="translate(-3 -7)">30</text></g><path class="edge" d="M 0 0 V -3.99499 H 112.125"/><circle class="sym" cx="0" cy="0" r="3"/><text class="lab lft" transform="translate(-3 -7)">35</text></g><path class="edge" d="M 0 0 V -2.40552 H -212.031"/><circle class="sym" cx="0" cy="0" r="3"/><text class="lab rgt" transform="translate(3 -7)">36</text></g><path class="edge" d="M 0 0 V -237.507 H 208.078"/><g class="mut m2 s2" transform="translate(0 -193.813)"><line x1="0" x2="0" y1="0" y2="193.813"/><path class="sym" d="M -3,-3 l 6,6 M -3,3 l 6,-6"/><text class="lab lft" transform="translate(-5 0)">2</text></g><g class="mut m0 s0" transform="translate(0 -92.5183)"><line x1="0" x2="0" y1="0" y2="92.5183"/><path class="sym" d="M -3,-3 l 6,6 M -3,3 l 6,-6"/><text class="lab lft" transform="translate(-5 0)">0</text></g><g class="mut m1 s1" transform="translate(0 -86.4306)"><line x1="0" x2="0" y1="0" y2="86.4306"/><path class="sym" d="M -3,-3 l 6,6 M -3,3 l 6,-6"/><text class="lab lft" transform="translate(-5 0)">1</text></g><circle class="sym" cx="0" cy="0" r="3"/><text class="lab lft" transform="translate(-3 -7)">37</text></g><circle class="sym" cx="0" cy="0" r="3"/><text class="lab" transform="translate(0 -11)">38</text></g></g></g></g></g></svg>