<svg baseProfile="full" height="400" version="1.1" width="1000" xmlns="http://www.w3.org/2000/svg" xmlns:ev="http://www.w3.org/2001/xml-events" xmlns:xlink="http://www.w3.org/1999/xlink"><defs><style type="text/css"><![CDATA[.background path {fill: #808080; fill-opacity: 0}.background path:nth-child(odd) {fill-opacity: .1}.x-regions rect {fill: yellow; stroke: black; opacity: 0.5}.axes {font-size: 14px}.x-axis .tick .lab {font-weight: bold; dominant-baseline: hanging}.axes, .tree {font-size: 14px; text-anchor: middle}.axes line, .edge {stroke: black; fill: none}.axes .ax-skip {stroke-dasharray: 4}.y-axis .grid {stroke: #FAFAFA}.node > .sym {fill: black; stroke: none}.site > .sym {stroke: black}.mut text {fill: red; font-style: italic}.mut.extra text {fill: hotpink}.mut line {fill: none; stroke: none}.mut .sym {fill: none; stroke: red}.mut.extra .sym {stroke: hotpink}.node .mut .sym {stroke-width: 1.5px}.tree text, .tree-sequence text {dominant-baseline: central}.plotbox .lab.lft {text-anchor: end}.plotbox .lab.rgt {text-anchor: start}.polytomy line {stroke: black; stroke-dasharray: 1px, 1px}.polytomy text {paint-order:stroke;stroke-width:0.3em;stroke:white}]]></style></defs><g class="tree-sequence"><g class="background"><path d="M20,0 l960,0 l0,338.2 l0,25 l0,5 l-960,0 l0,-5 l0,-25 l0,-338.2z"/></g><g class="axes"><g class="x-axis"><g class="title" transform="translate(500 400)"><text class="lab" text-anchor="middle" transform="translate(0 -11)">Genome position</text></g><line class="ax-line" x1="20" x2="980" y1="363.2" y2="363.2"/><g class="ticks"><g class="tick" transform="translate(20 363.2)"><line x1="0" x2="0" y1="0" y2="5"/><g transform="translate(0 6)"><text class="lab">0</text></g></g><g class="tick" transform="translate(980 363.2)"><line x1="0" x2="0" y1="0" y2="5"/><g transform="translate(0 6)"><text class="lab">1000</text></g></g></g><g class="site s0" transform="translate(189.92 363.2)"><line class="sym" x1="0" x2="0" y1="0" y2="-10"/><g class="mut m0"><polyline class="sym" points="2.5,-6.5 0,-1.5 -2.5,-6.5"/></g></g><g class="site s1" transform="translate(278.24 363.2)"><line class="sym" x1="0" x2="0" y1="0" y2="-10"/><g class="mut m1"><polyline class="sym" points="2.5,-6.5 0,-1.5 -2.5,-6.5"/></g></g><g class="site s2" transform="translate(734.24 363.2)"><line class="sym" x1="0" x2="0" y1="0" y2="-10"/><g class="mut m2"><polyline class="sym" points="2.5,-6.5 0,-1.5 -2.5,-6.5"/></g></g></g></g><g class="plotbox trees"><g class="tree t0" transform="translate(20 0)"><g class="plotbox"><g class="c2 node n38 p2 root" transform="translate(724.555 26.8)"><g class="a38 c2 node n27 p2" transform="translate(134.945 284.597)"><g class="a27 i1 leaf node n1 p1 sample" transform="translate(-34.5 10.0029)"><path class="edge" d="M 0 0 V -10.0029 H 34.5"/><rect class="sym" height="6" width="6" x="-3" y="-3"/><text class="lab" transform="translate(0 11)">1</text></g><g class="a27 c2 node n24 p1" transform="translate(34.5 4.14925)"><g class="a24 i3 leaf node n3 p1 sample" transform="translate(-23 5.85362)"><path class="edge" d="M 0 0 V -5.85362 H 23"/><rect class="sym" height="6" width="6" x="-3" y="-3"/><text class="lab" transform="translate(0 11)">3</text></g><g class="a24 i6 leaf node n6 p1 sample" transform="translate(23 5.85362)"><path class="edge" d="M 0 0 V -5.85362 H -23"/><rect class="sym" height="6" width="6" x="-3" y="-3"/><text class="lab" transform="translate(0 11)">6</text></g><path class="edge" d="M 0 0 V -4.14925 H -34.5"/><circle class="sym" cx="0" cy="0" r="3"/><text class="lab rgt" transform="translate(3 -7)">24</text></g><path class="edge" d="M 0 0 V -284.597 H -134.945"/><circle class="sym" cx="0" cy="0" r="3"/><text class="lab rgt" transform="translate(3 -7)">27</text></g><g class="a38 c2 m2 node n37 p2 s2" transform="translate(-134.945 171.106)"><g class="a37 i10 leaf m1 node n10 p2 s1 sample" transform="translate(189.391 123.494)"><path class="edge" d="M 0 0 V -123.494 H -189.391"/><g class="mut m1 s1" transform="translate(0 -109.824)"><line x1="0" x2="0" y1="0" y2="109.824"/><path class="sym" d="M -3,-3 l 6,6 M -3,3 l 6,-6"/><text class="lab rgt" transform="translate(5 0)">1</text></g><rect class="sym" height="6" width="6" x="-3" y="-3"/><text class="lab" transform="translate(0 11)">10</text></g><g class="a37 c2 m0 node n36 p1 s0" transform="translate(-189.391 54.0345)"><g class="a36 c2 node n34 p2" transform="translate(210.594 44.039)"><g class="a34 c2 node n29 p1" transform="translate(-87.6875 12.3229)"><g class="a29 i17 leaf node n17 p2 sample" transform="translate(71.875 13.097)"><path class="edge" d="M 0 0 V -13.097 H -71.875"/><rect class="sym" height="6" width="6" x="-3" y="-3"/><text class="lab" transform="translate(0 11)">17</text></g><g class="a29 c2 node n26 p2" transform="translate(-71.875 3.60704)"><g class="a26 c2 node n22 p1" transform="translate(-63.25 4.43964)"><g class="a22 i5 leaf node n5 p1 sample" transform="translate(-23 5.05036)"><path class="edge" d="M 0 0 V -5.05036 H 23"/><rect class="sym" height="6" width="6" x="-3" y="-3"/><text class="lab" transform="translate(0 11)">5</text></g><g class="a22 i9 leaf node n9 p1 sample" transform="translate(23 5.05036)"><path class="edge" d="M 0 0 V -5.05036 H -23"/><rect class="sym" height="6" width="6" x="-3" y="-3"/><text class="lab" transform="translate(0 11)">9</text></g><path class="edge" d="M 0 0 V -4.43964 H 63.25"/><circle class="sym" cx="0" cy="0" r="3"/><text class="lab lft" transform="translate(-3 -7)">22</text></g><g class="a26 c2 node n23 p1" transform="translate(63.25 3.83287)"><g class="a23 i8 leaf node n8 p1 sample" transform="translate(34.5 5.65714)"><path class="edge" d="M 0 0 V -5.65714 H -34.5"/><rect class="sym" height="6" width="6" x="-3" y="-3"/><text class="lab" transform="translate(0 11)">8</text></g><g class="a23 c2 node n21 p2" transform="translate(-34.5 3.08532)"><g class="a21 i7 leaf node n7 p1 sample" transform="translate(-23 2.57182)"><path class="edge" d="M 0 0 V -2.57182 H 23"/><rect class="sym" height="6" width="6" x="-3" y="-3"/><text class="lab" transform="translate(0 11)">7</text></g><g class="a21 i18 leaf node n18 p2 sample" transform="translate(23 2.57182)"><path class="edge" d="M 0 0 V -2.57182 H -23"/><rect class="sym" height="6" width="6" x="-3" y="-3"/><text class="lab" transform="translate(0 11)">18</text></g><path class="edge" d="M 0 0 V -3.08532 H 34.5"/><circle class="sym" cx="0" cy="0" r="3"/><text class="lab lft" transform="translate(-3 -7)">21</text></g><path class="edge" d="M 0 0 V -3.83287 H -63.25"/><circle class="sym" cx="0" cy="0" r="3"/><text class="lab rgt" transform="translate(3 -7)">23</text></g><path class="edge" d="M 0 0 V -3.60704 H 71.875"/><circle class="sym" cx="0" cy="0" r="3"/><text class="lab lft" transform="translate(-3 -7)">26</text></g><path class="edge" d="M 0 0 V -12.3229 H 87.6875"/><circle class="sym" cx="0" cy="0" r="3"/><text class="lab lft" transform="translate(-3 -7)">29</text></g><g class="a34 c2 node n33 p2" transform="translate(87.6875 5.76493)"><g class="a33 i15 leaf node n15 p2 sample" transform="translate(34.5 19.6551)"><path class="edge" d="M 0 0 V -19.6551 H -34.5"/><rect class="sym" height="6" width="6" x="-3" y="-3"/><text class="lab" transform="translate(0 11)">15</text></g><g class="a33 c2 node n30 p1" transform="translate(-34.5 5.60657)"><g class="a30 i14 leaf node n14 p2 sample" transform="translate(-23 14.0485)"><path class="edge" d="M 0 0 V -14.0485 H 23"/><rect class="sym" height="6" width="6" x="-3" y="-3"/><text class="lab" transform="translate(0 11)">14</text></g><g class="a30 i16 leaf node n16 p2 sample" transform="translate(23 14.0485)"><path class="edge" d="M 0 0 V -14.0485 H -23"/><rect class="sym" height="6" width="6" x="-3" y="-3"/><text class="lab" transform="translate(0 11)">16</text></g><path class="edge" d="M 0 0 V -5.60657 H 34.5"/><circle class="sym" cx="0" cy="0" r="3"/><text class="lab lft" transform="translate(-3 -7)">30</text></g><path class="edge" d="M 0 0 V -5.76493 H -87.6875"/><circle class="sym" cx="0" cy="0" r="3"/><text class="lab rgt" transform="translate(3 -7)">33</text></g><path class="edge" d="M 0 0 V -44.039 H -210.594"/><circle class="sym" cx="0" cy="0" r="3"/><text class="lab rgt" transform="translate(3 -7)">34</text></g><g class="a36 c2 node n35 p2" transform="translate(-210.594 38.7856)"><g class="a35 c2 node n31 p1" transform="translate(94.875 12.3144)"><g class="a31 i12 leaf node n12 p2 sample" transform="translate(34.5 18.359)"><path class="edge" d="M 0 0 V -18.359 H -34.5"/><rect class="sym" height="6" width="6" x="-3" y="-3"/><text class="lab" transform="translate(0 11)">12</text></g><g class="a31 c2 node n25 p1" transform="translate(-34.5 11.8994)"><g class="a25 i4 leaf node n4 p1 sample" transform="translate(-23 6.45959)"><path class="edge" d="M 0 0 V -6.45959 H 23"/><rect class="sym" height="6" width="6" x="-3" y="-3"/><text class="lab" transform="translate(0 11)">4</text></g><g class="a25 i19 leaf node n19 p2 sample" transform="translate(23 6.45959)"><path class="edge" d="M 0 0 V -6.45959 H -23"/><rect class="sym" height="6" width="6" x="-3" y="-3"/><text class="lab" transform="translate(0 11)">19</text></g><path class="edge" d="M 0 0 V -11.8994 H 34.5"/><circle class="sym" cx="0" cy="0" r="3"/><text class="lab lft" transform="translate(-3 -7)">25</text></g><path class="edge" d="M 0 0 V -12.3144 H -94.875"/><circle class="sym" cx="0" cy="0" r="3"/><text class="lab rgt" transform="translate(3 -7)">31</text></g><g class="a35 c2 node n32 p2" transform="translate(-94.875 12.0666)"><g class="a32 i0 leaf node n0 p1 sample" transform="translate(-51.75 18.6068)"><path class="edge" d="M 0 0 V -18.6068 H 51.75"/><rect class="sym" height="6" width="6" x="-3" y="-3"/><text class="lab" transform="translate(0 11)">0</text></g><g class="a32 c2 node n28 p2" transform="translate(51.75 6.77048)"><g class="a28 i13 leaf node n13 p2 sample" transform="translate(34.5 11.8363)"><path class="edge" d="M 0 0 V -11.8363 H -34.5"/><rect class="sym" height="6" width="6" x="-3" y="-3"/><text class="lab" transform="translate(0 11)">13</text></g><g class="a28 c2 node n20 p2" transform="translate(-34.5 11.5331)"><g class="a20 i2 leaf node n2 p1 sample" transform="translate(-23 0.303175)"><path class="edge" d="M 0 0 V -0.303175 H 23"/><rect class="sym" height="6" width="6" x="-3" y="-3"/><text class="lab" transform="translate(0 11)">2</text></g><g class="a20 i11 leaf node n11 p2 sample" transform="translate(23 0.303175)"><path class="edge" d="M 0 0 V -0.303175 H -23"/><rect class="sym" height="6" width="6" x="-3" y="-3"/><text class="lab" transform="translate(0 11)">11</text></g><path class="edge" d="M 0 0 V -11.5331 H 34.5"/><circle class="sym" cx="0" cy="0" r="3"/><text class="lab lft" transform="translate(-3 -7)">20</text></g><path class="edge" d="M 0 0 V -6.77048 H -51.75"/><circle class="sym" cx="0" cy="0" r="3"/><text class="lab rgt" transform="translate(3 -7)">28</text></g><path class="edge" d="M 0 0 V -12.0666 H 94.875"/><circle class="sym" cx="0" cy="0" r="3"/><text class="lab lft" transform="translate(-3 -7)">32</text></g><path class="edge" d="M 0 0 V -38.7856 H 210.594"/><circle class="sym" cx="0" cy="0" r="3"/><text class="lab lft" transform="translate(-3 -7)">35</text></g><path class="edge" d="M 0 0 V -54.0345 H 189.391"/><g class="mut m0 s0" transform="translate(0 -11.6377)"><line x1="0" x2="0" y1="0" y2="11.6377"/><path class="sym" d="M -3,-3 l 6,6 M -3,3 l 6,-6"/><text class="lab lft" transform="translate(-5 0)">0</text></g><circle class="sym" cx="0" cy="0" r="3"/><text class="lab lft" transform="translate(-3 -7)">36</text></g><path class="edge" d="M 0 0 V -171.106 H 134.945"/><g class="mut m2 s2" transform="translate(0 -167.763)"><line x1="0" x2="0" y1="0" y2="167.763"/><path class="sym" d="M -3,-3 l 6,6 M -3,3 l 6,-6"/><text class="lab lft" transform="translate(-5 0)">2</text></g><circle class="sym" cx="0" cy="0" r="3"/><text class="lab lft" transform="translate(-3 -7)">37</text></g><circle class="sym" cx="0" cy="0" r="3"/><text class="lab" transform="translate(0 -11)">38</text></g></g></g></g></g></svg>