<svg baseProfile="full" height="400" version="1.1" width="1000" xmlns="http://www.w3.org/2000/svg" xmlns:ev="http://www.w3.org/2001/xml-events" xmlns:xlink="http://www.w3.org/1999/xlink"><defs><style type="text/css"><![CDATA[.background path {fill: #808080; fill-opacity: 0}.background path:nth-child(odd) {fill-opacity: .1}.x-regions rect {fill: yellow; stroke: black; opacity: 0.5}.axes {font-size: 14px}.x-axis .tick .lab {font-weight: bold; dominant-baseline: hanging}.axes, .tree {font-size: 14px; text-anchor: middle}.axes line, .edge {stroke: black; fill: none}.axes .ax-skip {stroke-dasharray: 4}.y-axis .grid {stroke: #FAFAFA}.node > .sym {fill: black; stroke: none}.site > .sym {stroke: black}.mut text {fill: red; font-style: italic}.mut.extra text {fill: hotpink}.mut line {fill: none; stroke: none}.mut .sym {fill: none; stroke: red}.mut.extra .sym {stroke: hotpink}.node .mut .sym {stroke-width: 1.5px}.tree text, .tree-sequence text {dominant-baseline: central}.plotbox .lab.lft {text-anchor: end}.plotbox .lab.rgt {text-anchor: start}.polytomy line {stroke: black; stroke-dasharray: 1px, 1px}.polytomy text {paint-order:stroke;stroke-width:0.3em;stroke:white}]]></style></defs><g class="tree-sequence"><g class="background"><path d="M20,0 l960,0 l0,338.2 l0,25 l0,5 l-960,0 l0,-5 l0,-25 l0,-338.2z"/></g><g class="axes"><g class="x-axis"><g class="title" transform="translate(500 400)"><text class="lab" text-anchor="middle" transform="translate(0 -11)">Genome position</text></g><line class="ax-line" x1="20" x2="980" y1="363.2" y2="363.2"/><g class="ticks"><g class="tick" transform="translate(20 363.2)"><line x1="0" x2="0" y1="0" y2="5"/><g transform="translate(0 6)"><text class="lab">0</text></g></g><g class="tick" transform="translate(980 363.2)"><line x1="0" x2="0" y1="0" y2="5"/><g transform="translate(0 6)"><text class="lab">1000</text></g></g></g><g class="site s0" transform="translate(346.4 363.2)"><line class="sym" x1="0" x2="0" y1="0" y2="-10"/><g class="mut m0"><polyline class="sym" points="2.5,-6.5 0,-1.5 -2.5,-6.5"/></g></g><g class="site s1" transform="translate(738.08 363.2)"><line class="sym" x1="0" x2="0" y1="0" y2="-10"/><g class="mut m1"><polyline class="sym" points="2.5,-6.5 0,-1.5 -2.5,-6.5"/></g></g></g></g><g class="plotbox trees"><g class="tree t0" transform="translate(20 0)"><g class="plotbox"><g class="c2 node n38 p0 root" transform="translate(493.207 26.8)"><g class="a38 c2 node n35 p1" transform="translate(-315.082 229.183)"><g class="a35 i15 leaf node n15 p2 sample" transform="translate(48.875 65.4166)"><path class="edge" d="M 0 0 V -65.4166 H -48.875"/><rect class="sym" height="6" width="6" x="-3" y="-3"/><text class="lab" transform="translate(0 11)">15</text></g><g class="a35 c2 node n33 p2" transform="translate(-48.875 10.7407)"><g class="a33 i13 leaf node n13 p2 sample" transform="translate(51.75 54.6758)"><path class="edge" d="M 0 0 V -54.6758 H -51.75"/><rect class="sym" height="6" width="6" x="-3" y="-3"/><text class="lab" transform="translate(0 11)">13</text></g><g class="a33 c2 node n27 p1" transform="translate(-51.75 40.9771)"><g class="a27 i0 leaf node n0 p1 sample" transform="translate(-34.5 13.6987)"><path class="edge" d="M 0 0 V -13.6987 H 34.5"/><rect class="sym" height="6" width="6" x="-3" y="-3"/><text class="lab" transform="translate(0 11)">0</text></g><g class="a27 c2 node n26 p1" transform="translate(34.5 4.33672)"><g class="a26 i1 leaf node n1 p1 sample" transform="translate(-23 9.36202)"><path class="edge" d="M 0 0 V -9.36202 H 23"/><rect class="sym" height="6" width="6" x="-3" y="-3"/><text class="lab" transform="translate(0 11)">1</text></g><g class="a26 i12 leaf node n12 p2 sample" transform="translate(23 9.36202)"><path class="edge" d="M 0 0 V -9.36202 H -23"/><rect class="sym" height="6" width="6" x="-3" y="-3"/><text class="lab" transform="translate(0 11)">12</text></g><path class="edge" d="M 0 0 V -4.33672 H -34.5"/><circle class="sym" cx="0" cy="0" r="3"/><text class="lab rgt" transform="translate(3 -7)">26</text></g><path class="edge" d="M 0 0 V -40.9771 H 51.75"/><circle class="sym" cx="0" cy="0" r="3"/><text class="lab lft" transform="translate(-3 -7)">27</text></g><path class="edge" d="M 0 0 V -10.7407 H 48.875"/><circle class="sym" cx="0" cy="0" r="3"/><text class="lab lft" transform="translate(-3 -7)">33</text></g><path class="edge" d="M 0 0 V -229.183 H 315.082"/><circle class="sym" cx="0" cy="0" r="3"/><text class="lab lft" transform="translate(-3 -7)">35</text></g><g class="a38 c2 node n37 p2" transform="translate(315.082 213.438)"><g class="a37 c2 m1 node n28 p1 s1" transform="translate(85.7109 67.4224)"><g class="a28 i4 leaf node n4 p1 sample" transform="translate(-23 13.7395)"><path class="edge" d="M 0 0 V -13.7395 H 23"/><rect class="sym" height="6" width="6" x="-3" y="-3"/><text class="lab" transform="translate(0 11)">4</text></g><g class="a28 i19 leaf node n19 p2 sample" transform="translate(23 13.7395)"><path class="edge" d="M 0 0 V -13.7395 H -23"/><rect class="sym" height="6" width="6" x="-3" y="-3"/><text class="lab" transform="translate(0 11)">19</text></g><path class="edge" d="M 0 0 V -67.4224 H -85.7109"/><g class="mut m1 s1" transform="translate(0 -2.47589)"><line x1="0" x2="0" y1="0" y2="2.47589"/><path class="sym" d="M -3,-3 l 6,6 M -3,3 l 6,-6"/><text class="lab rgt" transform="translate(5 0)">1</text></g><circle class="sym" cx="0" cy="0" r="3"/><text class="lab rgt" transform="translate(3 -7)">28</text></g><g class="a37 c2 node n36 p1" transform="translate(-85.7109 4.56877)"><g class="a36 c2 node n32 p2" transform="translate(79.4219 27.4886)"><g class="a32 i6 leaf node n6 p1 sample" transform="translate(-23 49.1045)"><path class="edge" d="M 0 0 V -49.1045 H 23"/><rect class="sym" height="6" width="6" x="-3" y="-3"/><text class="lab" transform="translate(0 11)">6</text></g><g class="a32 i16 leaf node n16 p2 sample" transform="translate(23 49.1045)"><path class="edge" d="M 0 0 V -49.1045 H -23"/><rect class="sym" height="6" width="6" x="-3" y="-3"/><text class="lab" transform="translate(0 11)">16</text></g><path class="edge" d="M 0 0 V -27.4886 H -79.4219"/><circle class="sym" cx="0" cy="0" r="3"/><text class="lab rgt" transform="translate(3 -7)">32</text></g><g class="a36 c2 node n34 p1" transform="translate(-79.4219 19.2171)"><g class="a34 i14 leaf m0 node n14 p2 s0 sample" transform="translate(89.8438 57.3761)"><path class="edge" d="M 0 0 V -57.3761 H -89.8438"/><g class="mut m0 s0" transform="translate(0 -39.6013)"><line x1="0" x2="0" y1="0" y2="39.6013"/><path class="sym" d="M -3,-3 l 6,6 M -3,3 l 6,-6"/><text class="lab rgt" transform="translate(5 0)">0</text></g><rect class="sym" height="6" width="6" x="-3" y="-3"/><text class="lab" transform="translate(0 11)">14</text></g><g class="a34 c2 node n31 p1" transform="translate(-89.8438 24.6924)"><g class="a31 c2 node n29 p2" transform="translate(110.688 15.0505)"><g class="a29 i10 leaf node n10 p2 sample" transform="translate(-23 17.6332)"><path class="edge" d="M 0 0 V -17.6332 H 23"/><rect class="sym" height="6" width="6" x="-3" y="-3"/><text class="lab" transform="translate(0 11)">10</text></g><g class="a29 i17 leaf node n17 p2 sample" transform="translate(23 17.6332)"><path class="edge" d="M 0 0 V -17.6332 H -23"/><rect class="sym" height="6" width="6" x="-3" y="-3"/><text class="lab" transform="translate(0 11)">17</text></g><path class="edge" d="M 0 0 V -15.0505 H -110.688"/><circle class="sym" cx="0" cy="0" r="3"/><text class="lab rgt" transform="translate(3 -7)">29</text></g><g class="a31 c2 node n30 p1" transform="translate(-110.688 8.34888)"><g class="a30 c2 node n24 p1" transform="translate(-83.375 16.4295)"><g class="a24 i18 leaf node n18 p2 sample" transform="translate(51.75 7.90527)"><path class="edge" d="M 0 0 V -7.90527 H -51.75"/><rect class="sym" height="6" width="6" x="-3" y="-3"/><text class="lab" transform="translate(0 11)">18</text></g><g class="a24 c2 node n21 p2" transform="translate(-51.75 3.75541)"><g class="a21 i2 leaf node n2 p1 sample" transform="translate(-34.5 4.14986)"><path class="edge" d="M 0 0 V -4.14986 H 34.5"/><rect class="sym" height="6" width="6" x="-3" y="-3"/><text class="lab" transform="translate(0 11)">2</text></g><g class="a21 c2 node n20 p1" transform="translate(34.5 2.56779)"><g class="a20 i3 leaf node n3 p1 sample" transform="translate(-23 1.58207)"><path class="edge" d="M 0 0 V -1.58207 H 23"/><rect class="sym" height="6" width="6" x="-3" y="-3"/><text class="lab" transform="translate(0 11)">3</text></g><g class="a20 i9 leaf node n9 p1 sample" transform="translate(23 1.58207)"><path class="edge" d="M 0 0 V -1.58207 H -23"/><rect class="sym" height="6" width="6" x="-3" y="-3"/><text class="lab" transform="translate(0 11)">9</text></g><path class="edge" d="M 0 0 V -2.56779 H -34.5"/><circle class="sym" cx="0" cy="0" r="3"/><text class="lab rgt" transform="translate(3 -7)">20</text></g><path class="edge" d="M 0 0 V -3.75541 H 51.75"/><circle class="sym" cx="0" cy="0" r="3"/><text class="lab lft" transform="translate(-3 -7)">21</text></g><path class="edge" d="M 0 0 V -16.4295 H 83.375"/><circle class="sym" cx="0" cy="0" r="3"/><text class="lab lft" transform="translate(-3 -7)">24</text></g><g class="a30 c2 node n25 p1" transform="translate(83.375 15.6675)"><g class="a25 c2 node n22 p1" transform="translate(46 4.43065)"><g class="a22 i7 leaf node n7 p1 sample" transform="translate(-23 4.23665)"><path class="edge" d="M 0 0 V -4.23665 H 23"/><rect class="sym" height="6" width="6" x="-3" y="-3"/><text class="lab" transform="translate(0 11)">7</text></g><g class="a22 i8 leaf node n8 p1 sample" transform="translate(23 4.23665)"><path class="edge" d="M 0 0 V -4.23665 H -23"/><rect class="sym" height="6" width="6" x="-3" y="-3"/><text class="lab" transform="translate(0 11)">8</text></g><path class="edge" d="M 0 0 V -4.43065 H -46"/><circle class="sym" cx="0" cy="0" r="3"/><text class="lab rgt" transform="translate(3 -7)">22</text></g><g class="a25 c2 node n23 p1" transform="translate(-46 3.93254)"><g class="a23 i5 leaf node n5 p1 sample" transform="translate(-23 4.73476)"><path class="edge" d="M 0 0 V -4.73476 H 23"/><rect class="sym" height="6" width="6" x="-3" y="-3"/><text class="lab" transform="translate(0 11)">5</text></g><g class="a23 i11 leaf node n11 p2 sample" transform="translate(23 4.73476)"><path class="edge" d="M 0 0 V -4.73476 H -23"/><rect class="sym" height="6" width="6" x="-3" y="-3"/><text class="lab" transform="translate(0 11)">11</text></g><path class="edge" d="M 0 0 V -3.93254 H 46"/><circle class="sym" cx="0" cy="0" r="3"/><text class="lab lft" transform="translate(-3 -7)">23</text></g><path class="edge" d="M 0 0 V -15.6675 H -83.375"/><circle class="sym" cx="0" cy="0" r="3"/><text class="lab rgt" transform="translate(3 -7)">25</text></g><path class="edge" d="M 0 0 V -8.34888 H 110.688"/><circle class="sym" cx="0" cy="0" r="3"/><text class="lab lft" transform="translate(-3 -7)">30</text></g><path class="edge" d="M 0 0 V -24.6924 H 89.8438"/><circle class="sym" cx="0" cy="0" r="3"/><text class="lab lft" transform="translate(-3 -7)">31</text></g><path class="edge" d="M 0 0 V -19.2171 H 79.4219"/><circle class="sym" cx="0" cy="0" r="3"/><text class="lab lft" transform="translate(-3 -7)">34</text></g><path class="edge" d="M 0 0 V -4.56877 H 85.7109"/><circle class="sym" cx="0" cy="0" r="3"/><text class="lab lft" transform="translate(-3 -7)">36</text></g><path class="edge" d="M 0 0 V -213.438 H -315.082"/><circle class="sym" cx="0" cy="0" r="3"/><text class="lab rgt" transform="translate(3 -7)">37</text></g><circle class="sym" cx="0" cy="0" r="3"/><text class="lab" transform="translate(0 -11)">38</text></g></g></g></g></g></svg>