<svg baseProfile="full" height="400" version="1.1" width="1000" xmlns="http://www.w3.org/2000/svg" xmlns:ev="http://www.w3.org/2001/xml-events" xmlns:xlink="http://www.w3.org/1999/xlink"><defs><style type="text/css"><![CDATA[.background path {fill: #808080; fill-opacity: 0}.background path:nth-child(odd) {fill-opacity: .1}.x-regions rect {fill: yellow; stroke: black; opacity: 0.5}.axes {font-size: 14px}.x-axis .tick .lab {font-weight: bold; dominant-baseline: hanging}.axes, .tree {font-size: 14px; text-anchor: middle}.axes line, .edge {stroke: black; fill: none}.axes .ax-skip {stroke-dasharray: 4}.y-axis .grid {stroke: #FAFAFA}.node > .sym {fill: black; stroke: none}.site > .sym {stroke: black}.mut text {fill: red; font-style: italic}.mut.extra text {fill: hotpink}.mut line {fill: none; stroke: none}.mut .sym {fill: none; stroke: red}.mut.extra .sym {stroke: hotpink}.node .mut .sym {stroke-width: 1.5px}.tree text, .tree-sequence text {dominant-baseline: central}.plotbox .lab.lft {text-anchor: end}.plotbox .lab.rgt {text-anchor: start}.polytomy line {stroke: black; stroke-dasharray: 1px, 1px}.polytomy text {paint-order:stroke;stroke-width:0.3em;stroke:white}]]></style></defs><g class="tree-sequence"><g class="background"><path d="M20,0 l960,0 l0,338.2 l0,25 l0,5 l-960,0 l0,-5 l0,-25 l0,-338.2z"/></g><g class="axes"><g class="x-axis"><g class="title" transform="translate(500 400)"><text class="lab" text-anchor="middle" transform="translate(0 -11)">Genome position</text></g><line class="ax-line" x1="20" x2="980" y1="363.2" y2="363.2"/><g class="ticks"><g class="tick" transform="translate(20 363.2)"><line x1="0" x2="0" y1="0" y2="5"/><g transform="translate(0 6)"><text class="lab">0</text></g></g><g class="tick" transform="translate(980 363.2)"><line x1="0" x2="0" y1="0" y2="5"/><g transform="translate(0 6)"><text class="lab">1000</text></g></g></g><g class="site s0" transform="translate(364.64 363.2)"><line class="sym" x1="0" x2="0" y1="0" y2="-10"/><g class="mut m0"><polyline class="sym" points="2.5,-6.5 0,-1.5 -2.5,-6.5"/></g></g><g class="site s1" transform="translate(645.92 363.2)"><line class="sym" x1="0" x2="0" y1="0" y2="-10"/><g class="mut m1"><polyline class="sym" points="2.5,-6.5 0,-1.5 -2.5,-6.5"/></g></g><g class="site s2" transform="translate(929.12 363.2)"><line class="sym" x1="0" x2="0" y1="0" y2="-10"/><g class="mut m2"><polyline class="sym" points="2.5,-6.5 0,-1.5 -2.5,-6.5"/></g></g></g></g><g class="plotbox trees"><g class="tree t0" transform="translate(20 0)"><g class="plotbox"><g class="c2 node n38 p2 root" transform="translate(681.07 26.8)"><g class="a38 c2 m2 node n34 p2 s2" transform="translate(178.43 172.057)"><g class="a34 i9 leaf node n9 p1 sample" transform="translate(-34.5 122.543)"><path class="edge" d="M 0 0 V -122.543 H 34.5"/><rect class="sym" height="6" width="6" x="-3" y="-3"/><text class="lab" transform="translate(0 11)">9</text></g><g class="a34 c2 m0 node n32 p2 s0" transform="translate(34.5 41.507)"><g class="a32 i10 leaf node n10 p2 sample" transform="translate(-23 81.0365)"><path class="edge" d="M 0 0 V -81.0365 H 23"/><rect class="sym" height="6" width="6" x="-3" y="-3"/><text class="lab" transform="translate(0 11)">10</text></g><g class="a32 i11 leaf node n11 p2 sample" transform="translate(23 81.0365)"><path class="edge" d="M 0 0 V -81.0365 H -23"/><rect class="sym" height="6" width="6" x="-3" y="-3"/><text class="lab" transform="translate(0 11)">11</text></g><path class="edge" d="M 0 0 V -41.507 H -34.5"/><g class="mut m0 s0" transform="translate(0 -35.9683)"><line x1="0" x2="0" y1="0" y2="35.9683"/><path class="sym" d="M -3,-3 l 6,6 M -3,3 l 6,-6"/><text class="lab rgt" transform="translate(5 0)">0</text></g><circle class="sym" cx="0" cy="0" r="3"/><text class="lab rgt" transform="translate(3 -7)">32</text></g><path class="edge" d="M 0 0 V -172.057 H -178.43"/><g class="mut m2 s2" transform="translate(0 -94.0772)"><line x1="0" x2="0" y1="0" y2="94.0772"/><path class="sym" d="M -3,-3 l 6,6 M -3,3 l 6,-6"/><text class="lab rgt" transform="translate(5 0)">2</text></g><circle class="sym" cx="0" cy="0" r="3"/><text class="lab rgt" transform="translate(3 -7)">34</text></g><g class="a38 c2 node n37 p1" transform="translate(-178.43 89.9052)"><g class="a37 c2 node n24 p2" transform="translate(253.359 189.251)"><g class="a24 i7 leaf node n7 p1 sample" transform="translate(-23 15.4433)"><path class="edge" d="M 0 0 V -15.4433 H 23"/><rect class="sym" height="6" width="6" x="-3" y="-3"/><text class="lab" transform="translate(0 11)">7</text></g><g class="a24 i13 leaf node n13 p2 sample" transform="translate(23 15.4433)"><path class="edge" d="M 0 0 V -15.4433 H -23"/><rect class="sym" height="6" width="6" x="-3" y="-3"/><text class="lab" transform="translate(0 11)">13</text></g><path class="edge" d="M 0 0 V -189.251 H -253.359"/><circle class="sym" cx="0" cy="0" r="3"/><text class="lab rgt" transform="translate(3 -7)">24</text></g><g class="a37 c2 node n36 p2" transform="translate(-253.359 58.3471)"><g class="a36 c2 node n33 p2" transform="translate(148.781 54.2879)"><g class="a33 c2 node n29 p2" transform="translate(159.562 50.3306)"><g class="a29 c2 node n27 p1" transform="translate(89.125 17.1364)"><g class="a27 i14 leaf node n14 p2 sample" transform="translate(40.25 24.5929)"><path class="edge" d="M 0 0 V -24.5929 H -40.25"/><rect class="sym" height="6" width="6" x="-3" y="-3"/><text class="lab" transform="translate(0 11)">14</text></g><g class="a27 c2 node n26 p2" transform="translate(-40.25 2.02887)"><g class="a26 i17 leaf node n17 p2 sample" transform="translate(34.5 22.564)"><path class="edge" d="M 0 0 V -22.564 H -34.5"/><rect class="sym" height="6" width="6" x="-3" y="-3"/><text class="lab" transform="translate(0 11)">17</text></g><g class="a26 c2 node n23 p2" transform="translate(-34.5 12.1169)"><g class="a23 i12 leaf node n12 p2 sample" transform="translate(-23 10.4471)"><path class="edge" d="M 0 0 V -10.4471 H 23"/><rect class="sym" height="6" width="6" x="-3" y="-3"/><text class="lab" transform="translate(0 11)">12</text></g><g class="a23 i16 leaf m1 node n16 p2 s1 sample" transform="translate(23 10.4471)"><path class="edge" d="M 0 0 V -10.4471 H -23"/><g class="mut m1 s1" transform="translate(0 -1.34207)"><line x1="0" x2="0" y1="0" y2="1.34207"/><path class="sym" d="M -3,-3 l 6,6 M -3,3 l 6,-6"/><text class="lab rgt" transform="translate(5 0)">1</text></g><rect class="sym" height="6" width="6" x="-3" y="-3"/><text class="lab" transform="translate(0 11)">16</text></g><path class="edge" d="M 0 0 V -12.1169 H 34.5"/><circle class="sym" cx="0" cy="0" r="3"/><text class="lab lft" transform="translate(-3 -7)">23</text></g><path class="edge" d="M 0 0 V -2.02887 H 40.25"/><circle class="sym" cx="0" cy="0" r="3"/><text class="lab lft" transform="translate(-3 -7)">26</text></g><path class="edge" d="M 0 0 V -17.1364 H -89.125"/><circle class="sym" cx="0" cy="0" r="3"/><text class="lab rgt" transform="translate(3 -7)">27</text></g><g class="a29 c2 node n28 p1" transform="translate(-89.125 10.9367)"><g class="a28 i15 leaf node n15 p2 sample" transform="translate(34.5 30.7925)"><path class="edge" d="M 0 0 V -30.7925 H -34.5"/><rect class="sym" height="6" width="6" x="-3" y="-3"/><text class="lab" transform="translate(0 11)">15</text></g><g class="a28 c2 node n21 p1" transform="translate(-34.5 26.4772)"><g class="a21 i4 leaf node n4 p1 sample" transform="translate(-23 4.31531)"><path class="edge" d="M 0 0 V -4.31531 H 23"/><rect class="sym" height="6" width="6" x="-3" y="-3"/><text class="lab" transform="translate(0 11)">4</text></g><g class="a21 i18 leaf node n18 p2 sample" transform="translate(23 4.31531)"><path class="edge" d="M 0 0 V -4.31531 H -23"/><rect class="sym" height="6" width="6" x="-3" y="-3"/><text class="lab" transform="translate(0 11)">18</text></g><path class="edge" d="M 0 0 V -26.4772 H 34.5"/><circle class="sym" cx="0" cy="0" r="3"/><text class="lab lft" transform="translate(-3 -7)">21</text></g><path class="edge" d="M 0 0 V -10.9367 H 89.125"/><circle class="sym" cx="0" cy="0" r="3"/><text class="lab lft" transform="translate(-3 -7)">28</text></g><path class="edge" d="M 0 0 V -50.3306 H -159.562"/><circle class="sym" cx="0" cy="0" r="3"/><text class="lab rgt" transform="translate(3 -7)">29</text></g><g class="a33 c2 node n30 p1" transform="translate(-159.562 44.4616)"><g class="a30 i1 leaf node n1 p1 sample" transform="translate(-57.5 47.5982)"><path class="edge" d="M 0 0 V -47.5982 H 57.5"/><rect class="sym" height="6" width="6" x="-3" y="-3"/><text class="lab" transform="translate(0 11)">1</text></g><g class="a30 c2 node n25 p1" transform="translate(57.5 30.7966)"><g class="a25 c2 node n20 p1" transform="translate(-46 12.9056)"><g class="a20 i2 leaf node n2 p1 sample" transform="translate(-23 3.89608)"><path class="edge" d="M 0 0 V -3.89608 H 23"/><rect class="sym" height="6" width="6" x="-3" y="-3"/><text class="lab" transform="translate(0 11)">2</text></g><g class="a20 i19 leaf node n19 p2 sample" transform="translate(23 3.89608)"><path class="edge" d="M 0 0 V -3.89608 H -23"/><rect class="sym" height="6" width="6" x="-3" y="-3"/><text class="lab" transform="translate(0 11)">19</text></g><path class="edge" d="M 0 0 V -12.9056 H 46"/><circle class="sym" cx="0" cy="0" r="3"/><text class="lab lft" transform="translate(-3 -7)">20</text></g><g class="a25 c2 node n22 p1" transform="translate(46 11.7558)"><g class="a22 i3 leaf node n3 p1 sample" transform="translate(-23 5.04582)"><path class="edge" d="M 0 0 V -5.04582 H 23"/><rect class="sym" height="6" width="6" x="-3" y="-3"/><text class="lab" transform="translate(0 11)">3</text></g><g class="a22 i6 leaf node n6 p1 sample" transform="translate(23 5.04582)"><path class="edge" d="M 0 0 V -5.04582 H -23"/><rect class="sym" height="6" width="6" x="-3" y="-3"/><text class="lab" transform="translate(0 11)">6</text></g><path class="edge" d="M 0 0 V -11.7558 H -46"/><circle class="sym" cx="0" cy="0" r="3"/><text class="lab rgt" transform="translate(3 -7)">22</text></g><path class="edge" d="M 0 0 V -30.7966 H -57.5"/><circle class="sym" cx="0" cy="0" r="3"/><text class="lab rgt" transform="translate(3 -7)">25</text></g><path class="edge" d="M 0 0 V -44.4616 H 159.562"/><circle class="sym" cx="0" cy="0" r="3"/><text class="lab lft" transform="translate(-3 -7)">30</text></g><path class="edge" d="M 0 0 V -54.2879 H -148.781"/><circle class="sym" cx="0" cy="0" r="3"/><text class="lab rgt" transform="translate(3 -7)">33</text></g><g class="a36 c2 node n35 p2" transform="translate(-148.781 13.6052)"><g class="a35 i8 leaf node n8 p1 sample" transform="translate(34.5 132.743)"><path class="edge" d="M 0 0 V -132.743 H -34.5"/><rect class="sym" height="6" width="6" x="-3" y="-3"/><text class="lab" transform="translate(0 11)">8</text></g><g class="a35 c2 node n31 p1" transform="translate(-34.5 72.9433)"><g class="a31 i0 leaf node n0 p1 sample" transform="translate(-23 59.7993)"><path class="edge" d="M 0 0 V -59.7993 H 23"/><rect class="sym" height="6" width="6" x="-3" y="-3"/><text class="lab" transform="translate(0 11)">0</text></g><g class="a31 i5 leaf node n5 p1 sample" transform="translate(23 59.7993)"><path class="edge" d="M 0 0 V -59.7993 H -23"/><rect class="sym" height="6" width="6" x="-3" y="-3"/><text class="lab" transform="translate(0 11)">5</text></g><path class="edge" d="M 0 0 V -72.9433 H 34.5"/><circle class="sym" cx="0" cy="0" r="3"/><text class="lab lft" transform="translate(-3 -7)">31</text></g><path class="edge" d="M 0 0 V -13.6052 H 148.781"/><circle class="sym" cx="0" cy="0" r="3"/><text class="lab lft" transform="translate(-3 -7)">35</text></g><path class="edge" d="M 0 0 V -58.3471 H 253.359"/><circle class="sym" cx="0" cy="0" r="3"/><text class="lab lft" transform="translate(-3 -7)">36</text></g><path class="edge" d="M 0 0 V -89.9052 H 178.43"/><circle class="sym" cx="0" cy="0" r="3"/><text class="lab lft" transform="translate(-3 -7)">37</text></g><circle class="sym" cx="0" cy="0" r="3"/><text class="lab" transform="translate(0 -11)">38</text></g></g></g></g></g></svg>