<svg baseProfile="full" height="400" version="1.1" width="1000" xmlns="http://www.w3.org/2000/svg" xmlns:ev="http://www.w3.org/2001/xml-events" xmlns:xlink="http://www.w3.org/1999/xlink"><defs><style type="text/css"><![CDATA[.background path {fill: #808080; fill-opacity: 0}.background path:nth-child(odd) {fill-opacity: .1}.x-regions rect {fill: yellow; stroke: black; opacity: 0.5}.axes {font-size: 14px}.x-axis .tick .lab {font-weight: bold; dominant-baseline: hanging}.axes, .tree {font-size: 14px; text-anchor: middle}.axes line, .edge {stroke: black; fill: none}.axes .ax-skip {stroke-dasharray: 4}.y-axis .grid {stroke: #FAFAFA}.node > .sym {fill: black; stroke: none}.site > .sym {stroke: black}.mut text {fill: red; font-style: italic}.mut.extra text {fill: hotpink}.mut line {fill: none; stroke: none}.mut .sym {fill: none; stroke: red}.mut.extra .sym {stroke: hotpink}.node .mut .sym {stroke-width: 1.5px}.tree text, .tree-sequence text {dominant-baseline: central}.plotbox .lab.lft {text-anchor: end}.plotbox .lab.rgt {text-anchor: start}.polytomy line {stroke: black; stroke-dasharray: 1px, 1px}.polytomy text {paint-order:stroke;stroke-width:0.3em;stroke:white}]]></style></defs><g class="tree-sequence"><g class="background"><path d="M20,0 l960,0 l0,338.2 l0,25 l0,5 l-960,0 l0,-5 l0,-25 l0,-338.2z"/></g><g class="axes"><g class="x-axis"><g class="title" transform="translate(500 400)"><text class="lab" text-anchor="middle" transform="translate(0 -11)">Genome position</text></g><line class="ax-line" x1="20" x2="980" y1="363.2" y2="363.2"/><g class="ticks"><g class="tick" transform="translate(20 363.2)"><line x1="0" x2="0" y1="0" y2="5"/><g transform="translate(0 6)"><text class="lab">0</text></g></g><g class="tick" transform="translate(980 363.2)"><line x1="0" x2="0" y1="0" y2="5"/><g transform="translate(0 6)"><text class="lab">1000</text></g></g></g><g class="site s0" transform="translate(46.88 363.2)"><line class="sym" x1="0" x2="0" y1="0" y2="-10"/><g class="mut m0"><polyline class="sym" points="2.5,-6.5 0,-1.5 -2.5,-6.5"/></g></g><g class="site s1" transform="translate(356 363.2)"><line class="sym" x1="0" x2="0" y1="0" y2="-10"/><g class="mut m1"><polyline class="sym" points="2.5,-6.5 0,-1.5 -2.5,-6.5"/></g></g><g class="site s2" transform="translate(409.76 363.2)"><line class="sym" x1="0" x2="0" y1="0" y2="-10"/><g class="mut m2"><polyline class="sym" points="2.5,-6.5 0,-1.5 -2.5,-6.5"/></g></g></g></g><g class="plotbox trees"><g class="tree t0" transform="translate(20 0)"><g class="plotbox"><g class="c2 node n38 p0 root" transform="translate(773.34 26.8)"><g class="a38 i14 leaf m0 m1 node n14 p2 s0 s1 sample" transform="translate(143.66 294.6)"><path class="edge" d="M 0 0 V -294.6 H -143.66"/><g class="mut m0 s0" transform="translate(0 -195.356)"><line x1="0" x2="0" y1="0" y2="195.356"/><path class="sym" d="M -3,-3 l 6,6 M -3,3 l 6,-6"/><text class="lab rgt" transform="translate(5 0)">0</text></g><g class="mut m1 s1" transform="translate(0 -182.691)"><line x1="0" x2="0" y1="0" y2="182.691"/><path class="sym" d="M -3,-3 l 6,6 M -3,3 l 6,-6"/><text class="lab rgt" transform="translate(5 0)">1</text></g><rect class="sym" height="6" width="6" x="-3" y="-3"/><text class="lab" transform="translate(0 11)">14</text></g><g class="a38 c2 node n37 p0" transform="translate(-143.66 151.979)"><g class="a37 c2 m2 node n32 p1 s2" transform="translate(132.07 110.407)"><g class="a32 c2 node n22 p1" transform="translate(-51.75 28.514)"><g class="a22 i6 leaf node n6 p1 sample" transform="translate(-23 3.69997)"><path class="edge" d="M 0 0 V -3.69997 H 23"/><rect class="sym" height="6" width="6" x="-3" y="-3"/><text class="lab" transform="translate(0 11)">6</text></g><g class="a22 i11 leaf node n11 p2 sample" transform="translate(23 3.69997)"><path class="edge" d="M 0 0 V -3.69997 H -23"/><rect class="sym" height="6" width="6" x="-3" y="-3"/><text class="lab" transform="translate(0 11)">11</text></g><path class="edge" d="M 0 0 V -28.514 H 51.75"/><circle class="sym" cx="0" cy="0" r="3"/><text class="lab lft" transform="translate(-3 -7)">22</text></g><g class="a32 c2 node n24 p2" transform="translate(51.75 28.0175)"><g class="a24 i7 leaf node n7 p1 sample" transform="translate(-34.5 4.19654)"><path class="edge" d="M 0 0 V -4.19654 H 34.5"/><rect class="sym" height="6" width="6" x="-3" y="-3"/><text class="lab" transform="translate(0 11)">7</text></g><g class="a24 c2 node n20 p2" transform="translate(34.5 3.66679)"><g class="a20 i10 leaf node n10 p2 sample" transform="translate(-23 0.529754)"><path class="edge" d="M 0 0 V -0.529754 H 23"/><rect class="sym" height="6" width="6" x="-3" y="-3"/><text class="lab" transform="translate(0 11)">10</text></g><g class="a20 i17 leaf node n17 p2 sample" transform="translate(23 0.529754)"><path class="edge" d="M 0 0 V -0.529754 H -23"/><rect class="sym" height="6" width="6" x="-3" y="-3"/><text class="lab" transform="translate(0 11)">17</text></g><path class="edge" d="M 0 0 V -3.66679 H -34.5"/><circle class="sym" cx="0" cy="0" r="3"/><text class="lab rgt" transform="translate(3 -7)">20</text></g><path class="edge" d="M 0 0 V -28.0175 H -51.75"/><circle class="sym" cx="0" cy="0" r="3"/><text class="lab rgt" transform="translate(3 -7)">24</text></g><path class="edge" d="M 0 0 V -110.407 H -132.07"/><g class="mut m2 s2" transform="translate(0 -106.966)"><line x1="0" x2="0" y1="0" y2="106.966"/><path class="sym" d="M -3,-3 l 6,6 M -3,3 l 6,-6"/><text class="lab rgt" transform="translate(5 0)">2</text></g><circle class="sym" cx="0" cy="0" r="3"/><text class="lab rgt" transform="translate(3 -7)">32</text></g><g class="a37 c2 node n36 p0" transform="translate(-132.07 42.0309)"><g class="a36 c2 node n31 p2" transform="translate(120.391 71.0219)"><g class="a31 i4 leaf node n4 p1 sample" transform="translate(-23 29.5683)"><path class="edge" d="M 0 0 V -29.5683 H 23"/><rect class="sym" height="6" width="6" x="-3" y="-3"/><text class="lab" transform="translate(0 11)">4</text></g><g class="a31 i8 leaf node n8 p1 sample" transform="translate(23 29.5683)"><path class="edge" d="M 0 0 V -29.5683 H -23"/><rect class="sym" height="6" width="6" x="-3" y="-3"/><text class="lab" transform="translate(0 11)">8</text></g><path class="edge" d="M 0 0 V -71.0219 H -120.391"/><circle class="sym" cx="0" cy="0" r="3"/><text class="lab rgt" transform="translate(3 -7)">31</text></g><g class="a36 c2 node n35 p0" transform="translate(-120.391 25.9577)"><g class="a35 c2 node n27 p2" transform="translate(148.781 60.2256)"><g class="a27 i2 leaf node n2 p1 sample" transform="translate(-23 14.4068)"><path class="edge" d="M 0 0 V -14.4068 H 23"/><rect class="sym" height="6" width="6" x="-3" y="-3"/><text class="lab" transform="translate(0 11)">2</text></g><g class="a27 i18 leaf node n18 p2 sample" transform="translate(23 14.4068)"><path class="edge" d="M 0 0 V -14.4068 H -23"/><rect class="sym" height="6" width="6" x="-3" y="-3"/><text class="lab" transform="translate(0 11)">18</text></g><path class="edge" d="M 0 0 V -60.2256 H -148.781"/><circle class="sym" cx="0" cy="0" r="3"/><text class="lab rgt" transform="translate(3 -7)">27</text></g><g class="a35 c2 node n34 p0" transform="translate(-148.781 9.2994)"><g class="a34 c2 node n30 p2" transform="translate(127.938 40.4751)"><g class="a30 c2 node n26 p2" transform="translate(-77.625 13.8168)"><g class="a26 c2 node n23 p1" transform="translate(63.25 7.07443)"><g class="a23 i13 leaf node n13 p2 sample" transform="translate(-23 3.96677)"><path class="edge" d="M 0 0 V -3.96677 H 23"/><rect class="sym" height="6" width="6" x="-3" y="-3"/><text class="lab" transform="translate(0 11)">13</text></g><g class="a23 i15 leaf node n15 p2 sample" transform="translate(23 3.96677)"><path class="edge" d="M 0 0 V -3.96677 H -23"/><rect class="sym" height="6" width="6" x="-3" y="-3"/><text class="lab" transform="translate(0 11)">15</text></g><path class="edge" d="M 0 0 V -7.07443 H -63.25"/><circle class="sym" cx="0" cy="0" r="3"/><text class="lab rgt" transform="translate(3 -7)">23</text></g><g class="a26 c2 node n25 p2" transform="translate(-63.25 2.10118)"><g class="a25 i1 leaf node n1 p1 sample" transform="translate(-34.5 8.94002)"><path class="edge" d="M 0 0 V -8.94002 H 34.5"/><rect class="sym" height="6" width="6" x="-3" y="-3"/><text class="lab" transform="translate(0 11)">1</text></g><g class="a25 c2 node n21 p1" transform="translate(34.5 6.5811)"><g class="a21 i9 leaf node n9 p1 sample" transform="translate(-23 2.35892)"><path class="edge" d="M 0 0 V -2.35892 H 23"/><rect class="sym" height="6" width="6" x="-3" y="-3"/><text class="lab" transform="translate(0 11)">9</text></g><g class="a21 i19 leaf node n19 p2 sample" transform="translate(23 2.35892)"><path class="edge" d="M 0 0 V -2.35892 H -23"/><rect class="sym" height="6" width="6" x="-3" y="-3"/><text class="lab" transform="translate(0 11)">19</text></g><path class="edge" d="M 0 0 V -6.5811 H -34.5"/><circle class="sym" cx="0" cy="0" r="3"/><text class="lab rgt" transform="translate(3 -7)">21</text></g><path class="edge" d="M 0 0 V -2.10118 H 63.25"/><circle class="sym" cx="0" cy="0" r="3"/><text class="lab lft" transform="translate(-3 -7)">25</text></g><path class="edge" d="M 0 0 V -13.8168 H 77.625"/><circle class="sym" cx="0" cy="0" r="3"/><text class="lab lft" transform="translate(-3 -7)">26</text></g><g class="a30 c2 node n29 p1" transform="translate(77.625 4.06539)"><g class="a29 i3 leaf node n3 p1 sample" transform="translate(-23 20.7926)"><path class="edge" d="M 0 0 V -20.7926 H 23"/><rect class="sym" height="6" width="6" x="-3" y="-3"/><text class="lab" transform="translate(0 11)">3</text></g><g class="a29 i16 leaf node n16 p2 sample" transform="translate(23 20.7926)"><path class="edge" d="M 0 0 V -20.7926 H -23"/><rect class="sym" height="6" width="6" x="-3" y="-3"/><text class="lab" transform="translate(0 11)">16</text></g><path class="edge" d="M 0 0 V -4.06539 H -77.625"/><circle class="sym" cx="0" cy="0" r="3"/><text class="lab rgt" transform="translate(3 -7)">29</text></g><path class="edge" d="M 0 0 V -40.4751 H -127.938"/><circle class="sym" cx="0" cy="0" r="3"/><text class="lab rgt" transform="translate(3 -7)">30</text></g><g class="a34 c2 node n33 p1" transform="translate(-127.938 28.6264)"><g class="a33 i12 leaf node n12 p2 sample" transform="translate(34.5 36.7067)"><path class="edge" d="M 0 0 V -36.7067 H -34.5"/><rect class="sym" height="6" width="6" x="-3" y="-3"/><text class="lab" transform="translate(0 11)">12</text></g><g class="a33 c2 node n28 p1" transform="translate(-34.5 16.5929)"><g class="a28 i0 leaf node n0 p1 sample" transform="translate(-23 20.1138)"><path class="edge" d="M 0 0 V -20.1138 H 23"/><rect class="sym" height="6" width="6" x="-3" y="-3"/><text class="lab" transform="translate(0 11)">0</text></g><g class="a28 i5 leaf node n5 p1 sample" transform="translate(23 20.1138)"><path class="edge" d="M 0 0 V -20.1138 H -23"/><rect class="sym" height="6" width="6" x="-3" y="-3"/><text class="lab" transform="translate(0 11)">5</text></g><path class="edge" d="M 0 0 V -16.5929 H 34.5"/><circle class="sym" cx="0" cy="0" r="3"/><text class="lab lft" transform="translate(-3 -7)">28</text></g><path class="edge" d="M 0 0 V -28.6264 H 127.938"/><circle class="sym" cx="0" cy="0" r="3"/><text class="lab lft" transform="translate(-3 -7)">33</text></g><path class="edge" d="M 0 0 V -9.2994 H 148.781"/><circle class="sym" cx="0" cy="0" r="3"/><text class="lab lft" transform="translate(-3 -7)">34</text></g><path class="edge" d="M 0 0 V -25.9577 H 120.391"/><circle class="sym" cx="0" cy="0" r="3"/><text class="lab lft" transform="translate(-3 -7)">35</text></g><path class="edge" d="M 0 0 V -42.0309 H 132.07"/><circle class="sym" cx="0" cy="0" r="3"/><text class="lab lft" transform="translate(-3 -7)">36</text></g><path class="edge" d="M 0 0 V -151.979 H 143.66"/><circle class="sym" cx="0" cy="0" r="3"/><text class="lab lft" transform="translate(-3 -7)">37</text></g><circle class="sym" cx="0" cy="0" r="3"/><text class="lab" transform="translate(0 -11)">38</text></g></g></g></g></g></svg>