<svg baseProfile="full" height="400" version="1.1" width="1000" xmlns="http://www.w3.org/2000/svg" xmlns:ev="http://www.w3.org/2001/xml-events" xmlns:xlink="http://www.w3.org/1999/xlink"><defs><style type="text/css"><![CDATA[.background path {fill: #808080; fill-opacity: 0}.background path:nth-child(odd) {fill-opacity: .1}.x-regions rect {fill: yellow; stroke: black; opacity: 0.5}.axes {font-size: 14px}.x-axis .tick .lab {font-weight: bold; dominant-baseline: hanging}.axes, .tree {font-size: 14px; text-anchor: middle}.axes line, .edge {stroke: black; fill: none}.axes .ax-skip {stroke-dasharray: 4}.y-axis .grid {stroke: #FAFAFA}.node > .sym {fill: black; stroke: none}.site > .sym {stroke: black}.mut text {fill: red; font-style: italic}.mut.extra text {fill: hotpink}.mut line {fill: none; stroke: none}.mut .sym {fill: none; stroke: red}.mut.extra .sym {stroke: hotpink}.node .mut .sym {stroke-width: 1.5px}.tree text, .tree-sequence text {dominant-baseline: central}.plotbox .lab.lft {text-anchor: end}.plotbox .lab.rgt {text-anchor: start}.polytomy line {stroke: black; stroke-dasharray: 1px, 1px}.polytomy text {paint-order:stroke;stroke-width:0.3em;stroke:white}]]></style></defs><g class="tree-sequence"><g class="background"><path d="M20,0 l960,0 l0,338.2 l0,25 l0,5 l-960,0 l0,-5 l0,-25 l0,-338.2z"/></g><g class="axes"><g class="x-axis"><g class="title" transform="translate(500 400)"><text class="lab" text-anchor="middle" transform="translate(0 -11)">Genome position</text></g><line class="ax-line" x1="20" x2="980" y1="363.2" y2="363.2"/><g class="ticks"><g class="tick" transform="translate(20 363.2)"><line x1="0" x2="0" y1="0" y2="5"/><g transform="translate(0 6)"><text class="lab">0</text></g></g><g class="tick" transform="translate(980 363.2)"><line x1="0" x2="0" y1="0" y2="5"/><g transform="translate(0 6)"><text class="lab">1000</text></g></g></g><g class="site s0" transform="translate(105.44 363.2)"><line class="sym" x1="0" x2="0" y1="0" y2="-10"/><g class="mut m0"><polyline class="sym" points="2.5,-6.5 0,-1.5 -2.5,-6.5"/></g></g><g class="site s1" transform="translate(210.08 363.2)"><line class="sym" x1="0" x2="0" y1="0" y2="-10"/><g class="mut m1"><polyline class="sym" points="2.5,-6.5 0,-1.5 -2.5,-6.5"/></g></g><g class="site s2" transform="translate(235.04 363.2)"><line class="sym" x1="0" x2="0" y1="0" y2="-10"/><g class="mut m2"><polyline class="sym" points="2.5,-6.5 0,-1.5 -2.5,-6.5"/></g></g><g class="site s3" transform="translate(353.12 363.2)"><line class="sym" x1="0" x2="0" y1="0" y2="-10"/><g class="mut m3"><polyline class="sym" points="2.5,-6.5 0,-1.5 -2.5,-6.5"/></g></g><g class="site s4" transform="translate(470.24 363.2)"><line class="sym" x1="0" x2="0" y1="0" y2="-10"/><g class="mut m4"><polyline class="sym" points="2.5,-6.5 0,-1.5 -2.5,-6.5"/></g></g></g></g><g class="plotbox trees"><g class="tree t0" transform="translate(20 0)"><g class="plotbox"><g class="c2 node n38 p0 root" transform="translate(783.784 26.8)"><g class="a38 c2 m1 node n36 p2 s1" transform="translate(110.216 209.942)"><g class="a36 i6 leaf node n6 p1 sample" transform="translate(-23 84.6584)"><path class="edge" d="M 0 0 V -84.6584 H 23"/><rect class="sym" height="6" width="6" x="-3" y="-3"/><text class="lab" transform="translate(0 11)">6</text></g><g class="a36 i14 leaf m2 node n14 p2 s2 sample" transform="translate(23 84.6584)"><path class="edge" d="M 0 0 V -84.6584 H -23"/><g class="mut m2 s2" transform="translate(0 -80.9675)"><line x1="0" x2="0" y1="0" y2="80.9675"/><path class="sym" d="M -3,-3 l 6,6 M -3,3 l 6,-6"/><text class="lab rgt" transform="translate(5 0)">2</text></g><rect class="sym" height="6" width="6" x="-3" y="-3"/><text class="lab" transform="translate(0 11)">14</text></g><path class="edge" d="M 0 0 V -209.942 H -110.216"/><g class="mut m1 s1" transform="translate(0 -105.199)"><line x1="0" x2="0" y1="0" y2="105.199"/><path class="sym" d="M -3,-3 l 6,6 M -3,3 l 6,-6"/><text class="lab rgt" transform="translate(5 0)">1</text></g><circle class="sym" cx="0" cy="0" r="3"/><text class="lab rgt" transform="translate(3 -7)">36</text></g><g class="a38 c2 node n37 p0" transform="translate(-110.216 96.4825)"><g class="a37 c2 node n31 p1" transform="translate(93.9316 165.728)"><g class="a31 i2 leaf node n2 p1 sample" transform="translate(-34.5 32.3892)"><path class="edge" d="M 0 0 V -32.3892 H 34.5"/><rect class="sym" height="6" width="6" x="-3" y="-3"/><text class="lab" transform="translate(0 11)">2</text></g><g class="a31 c2 node n25 p1" transform="translate(34.5 24.0565)"><g class="a25 i9 leaf node n9 p1 sample" transform="translate(-23 8.33267)"><path class="edge" d="M 0 0 V -8.33267 H 23"/><rect class="sym" height="6" width="6" x="-3" y="-3"/><text class="lab" transform="translate(0 11)">9</text></g><g class="a25 i11 leaf node n11 p2 sample" transform="translate(23 8.33267)"><path class="edge" d="M 0 0 V -8.33267 H -23"/><rect class="sym" height="6" width="6" x="-3" y="-3"/><text class="lab" transform="translate(0 11)">11</text></g><path class="edge" d="M 0 0 V -24.0565 H -34.5"/><circle class="sym" cx="0" cy="0" r="3"/><text class="lab rgt" transform="translate(3 -7)">25</text></g><path class="edge" d="M 0 0 V -165.728 H -93.9316"/><circle class="sym" cx="0" cy="0" r="3"/><text class="lab rgt" transform="translate(3 -7)">31</text></g><g class="a37 c2 node n35 p1" transform="translate(-93.9316 137.112)"><g class="a35 i10 leaf node n10 p2 sample" transform="translate(107.363 61.006)"><path class="edge" d="M 0 0 V -61.006 H -107.363"/><rect class="sym" height="6" width="6" x="-3" y="-3"/><text class="lab" transform="translate(0 11)">10</text></g><g class="a35 c2 node n34 p1" transform="translate(-107.363 14.0998)"><g class="a34 c2 node n32 p1" transform="translate(99.7266 6.74866)"><g class="a32 c2 node n23 p1" transform="translate(-46 35.7269)"><g class="a23 i3 leaf node n3 p1 sample" transform="translate(-23 4.43062)"><path class="edge" d="M 0 0 V -4.43062 H 23"/><rect class="sym" height="6" width="6" x="-3" y="-3"/><text class="lab" transform="translate(0 11)">3</text></g><g class="a23 i17 leaf node n17 p2 sample" transform="translate(23 4.43062)"><path class="edge" d="M 0 0 V -4.43062 H -23"/><rect class="sym" height="6" width="6" x="-3" y="-3"/><text class="lab" transform="translate(0 11)">17</text></g><path class="edge" d="M 0 0 V -35.7269 H 46"/><circle class="sym" cx="0" cy="0" r="3"/><text class="lab lft" transform="translate(-3 -7)">23</text></g><g class="a32 c2 node n26 p2" transform="translate(46 27.1018)"><g class="a26 i4 leaf node n4 p1 sample" transform="translate(-23 13.0558)"><path class="edge" d="M 0 0 V -13.0558 H 23"/><rect class="sym" height="6" width="6" x="-3" y="-3"/><text class="lab" transform="translate(0 11)">4</text></g><g class="a26 i12 leaf node n12 p2 sample" transform="translate(23 13.0558)"><path class="edge" d="M 0 0 V -13.0558 H -23"/><rect class="sym" height="6" width="6" x="-3" y="-3"/><text class="lab" transform="translate(0 11)">12</text></g><path class="edge" d="M 0 0 V -27.1018 H -46"/><circle class="sym" cx="0" cy="0" r="3"/><text class="lab rgt" transform="translate(3 -7)">26</text></g><path class="edge" d="M 0 0 V -6.74866 H -99.7266"/><circle class="sym" cx="0" cy="0" r="3"/><text class="lab rgt" transform="translate(3 -7)">32</text></g><g class="a34 c2 node n33 p2" transform="translate(-99.7266 0.573491)"><g class="a33 i1 leaf m0 m3 node n1 p1 s0 s3 sample" transform="translate(84.4531 46.3327)"><path class="edge" d="M 0 0 V -46.3327 H -84.4531"/><g class="mut m3 s3" transform="translate(0 -30.9565)"><line x1="0" x2="0" y1="0" y2="30.9565"/><path class="sym" d="M -3,-3 l 6,6 M -3,3 l 6,-6"/><text class="lab rgt" transform="translate(5 0)">3</text></g><g class="mut m0 s0" transform="translate(0 -29.8848)"><line x1="0" x2="0" y1="0" y2="29.8848"/><path class="sym" d="M -3,-3 l 6,6 M -3,3 l 6,-6"/><text class="lab rgt" transform="translate(5 0)">0</text></g><rect class="sym" height="6" width="6" x="-3" y="-3"/><text class="lab" transform="translate(0 11)">1</text></g><g class="a33 c2 node n30 p2" transform="translate(-84.4531 27.3789)"><g class="a30 i18 leaf m4 node n18 p2 s4 sample" transform="translate(122.906 18.9538)"><path class="edge" d="M 0 0 V -18.9538 H -122.906"/><g class="mut m4 s4" transform="translate(0 -3.12008)"><line x1="0" x2="0" y1="0" y2="3.12008"/><path class="sym" d="M -3,-3 l 6,6 M -3,3 l 6,-6"/><text class="lab rgt" transform="translate(5 0)">4</text></g><rect class="sym" height="6" width="6" x="-3" y="-3"/><text class="lab" transform="translate(0 11)">18</text></g><g class="a30 c2 node n29 p2" transform="translate(-122.906 0.811406)"><g class="a29 c2 node n24 p2" transform="translate(-99.1875 10.8316)"><g class="a24 i0 leaf node n0 p1 sample" transform="translate(-23 7.3108)"><path class="edge" d="M 0 0 V -7.3108 H 23"/><rect class="sym" height="6" width="6" x="-3" y="-3"/><text class="lab" transform="translate(0 11)">0</text></g><g class="a24 i8 leaf node n8 p1 sample" transform="translate(23 7.3108)"><path class="edge" d="M 0 0 V -7.3108 H -23"/><rect class="sym" height="6" width="6" x="-3" y="-3"/><text class="lab" transform="translate(0 11)">8</text></g><path class="edge" d="M 0 0 V -10.8316 H 99.1875"/><circle class="sym" cx="0" cy="0" r="3"/><text class="lab lft" transform="translate(-3 -7)">24</text></g><g class="a29 c2 node n28 p1" transform="translate(99.1875 4.35186)"><g class="a28 c2 node n21 p1" transform="translate(77.625 10.8619)"><g class="a21 i15 leaf node n15 p2 sample" transform="translate(-23 2.9286)"><path class="edge" d="M 0 0 V -2.9286 H 23"/><rect class="sym" height="6" width="6" x="-3" y="-3"/><text class="lab" transform="translate(0 11)">15</text></g><g class="a21 i19 leaf node n19 p2 sample" transform="translate(23 2.9286)"><path class="edge" d="M 0 0 V -2.9286 H -23"/><rect class="sym" height="6" width="6" x="-3" y="-3"/><text class="lab" transform="translate(0 11)">19</text></g><path class="edge" d="M 0 0 V -10.8619 H -77.625"/><circle class="sym" cx="0" cy="0" r="3"/><text class="lab rgt" transform="translate(3 -7)">21</text></g><g class="a28 c2 node n27 p1" transform="translate(-77.625 0.095171)"><g class="a27 i5 leaf node n5 p1 sample" transform="translate(-51.75 13.6953)"><path class="edge" d="M 0 0 V -13.6953 H 51.75"/><rect class="sym" height="6" width="6" x="-3" y="-3"/><text class="lab" transform="translate(0 11)">5</text></g><g class="a27 c2 node n22 p1" transform="translate(51.75 9.54672)"><g class="a22 i16 leaf node n16 p2 sample" transform="translate(34.5 4.1486)"><path class="edge" d="M 0 0 V -4.1486 H -34.5"/><rect class="sym" height="6" width="6" x="-3" y="-3"/><text class="lab" transform="translate(0 11)">16</text></g><g class="a22 c2 node n20 p2" transform="translate(-34.5 2.5855)"><g class="a20 i7 leaf node n7 p1 sample" transform="translate(-23 1.5631)"><path class="edge" d="M 0 0 V -1.5631 H 23"/><rect class="sym" height="6" width="6" x="-3" y="-3"/><text class="lab" transform="translate(0 11)">7</text></g><g class="a20 i13 leaf node n13 p2 sample" transform="translate(23 1.5631)"><path class="edge" d="M 0 0 V -1.5631 H -23"/><rect class="sym" height="6" width="6" x="-3" y="-3"/><text class="lab" transform="translate(0 11)">13</text></g><path class="edge" d="M 0 0 V -2.5855 H 34.5"/><circle class="sym" cx="0" cy="0" r="3"/><text class="lab lft" transform="translate(-3 -7)">20</text></g><path class="edge" d="M 0 0 V -9.54672 H -51.75"/><circle class="sym" cx="0" cy="0" r="3"/><text class="lab rgt" transform="translate(3 -7)">22</text></g><path class="edge" d="M 0 0 V -0.095171 H 77.625"/><circle class="sym" cx="0" cy="0" r="3"/><text class="lab lft" transform="translate(-3 -7)">27</text></g><path class="edge" d="M 0 0 V -4.35186 H -99.1875"/><circle class="sym" cx="0" cy="0" r="3"/><text class="lab rgt" transform="translate(3 -7)">28</text></g><path class="edge" d="M 0 0 V -0.811406 H 122.906"/><circle class="sym" cx="0" cy="0" r="3"/><text class="lab lft" transform="translate(-3 -7)">29</text></g><path class="edge" d="M 0 0 V -27.3789 H 84.4531"/><circle class="sym" cx="0" cy="0" r="3"/><text class="lab lft" transform="translate(-3 -7)">30</text></g><path class="edge" d="M 0 0 V -0.573491 H 99.7266"/><circle class="sym" cx="0" cy="0" r="3"/><text class="lab lft" transform="translate(-3 -7)">33</text></g><path class="edge" d="M 0 0 V -14.0998 H 107.363"/><circle class="sym" cx="0" cy="0" r="3"/><text class="lab lft" transform="translate(-3 -7)">34</text></g><path class="edge" d="M 0 0 V -137.112 H 93.9316"/><circle class="sym" cx="0" cy="0" r="3"/><text class="lab lft" transform="translate(-3 -7)">35</text></g><path class="edge" d="M 0 0 V -96.4825 H 110.216"/><circle class="sym" cx="0" cy="0" r="3"/><text class="lab lft" transform="translate(-3 -7)">37</text></g><circle class="sym" cx="0" cy="0" r="3"/><text class="lab" transform="translate(0 -11)">38</text></g></g></g></g></g></svg>