<svg baseProfile="full" height="400" version="1.1" width="1000" xmlns="http://www.w3.org/2000/svg" xmlns:ev="http://www.w3.org/2001/xml-events" xmlns:xlink="http://www.w3.org/1999/xlink"><defs><style type="text/css"><![CDATA[.background path {fill: #808080; fill-opacity: 0}.background path:nth-child(odd) {fill-opacity: .1}.x-regions rect {fill: yellow; stroke: black; opacity: 0.5}.axes {font-size: 14px}.x-axis .tick .lab {font-weight: bold; dominant-baseline: hanging}.axes, .tree {font-size: 14px; text-anchor: middle}.axes line, .edge {stroke: black; fill: none}.axes .ax-skip {stroke-dasharray: 4}.y-axis .grid {stroke: #FAFAFA}.node > .sym {fill: black; stroke: none}.site > .sym {stroke: black}.mut text {fill: red; font-style: italic}.mut.extra text {fill: hotpink}.mut line {fill: none; stroke: none}.mut .sym {fill: none; stroke: red}.mut.extra .sym {stroke: hotpink}.node .mut .sym {stroke-width: 1.5px}.tree text, .tree-sequence text {dominant-baseline: central}.plotbox .lab.lft {text-anchor: end}.plotbox .lab.rgt {text-anchor: start}.polytomy line {stroke: black; stroke-dasharray: 1px, 1px}.polytomy text {paint-order:stroke;stroke-width:0.3em;stroke:white}]]></style></defs><g class="tree-sequence"><g class="background"><path d="M20,0 l960,0 l0,338.2 l0,25 l0,5 l-960,0 l0,-5 l0,-25 l0,-338.2z"/></g><g class="axes"><g class="x-axis"><g class="title" transform="translate(500 400)"><text class="lab" text-anchor="middle" transform="translate(0 -11)">Genome position</text></g><line class="ax-line" x1="20" x2="980" y1="363.2" y2="363.2"/><g class="ticks"><g class="tick" transform="translate(20 363.2)"><line x1="0" x2="0" y1="0" y2="5"/><g transform="translate(0 6)"><text class="lab">0</text></g></g><g class="tick" transform="translate(980 363.2)"><line x1="0" x2="0" y1="0" y2="5"/><g transform="translate(0 6)"><text class="lab">1000</text></g></g></g><g class="site s0" transform="translate(125.6 363.2)"><line class="sym" x1="0" x2="0" y1="0" y2="-10"/><g class="mut m0"><polyline class="sym" points="2.5,-6.5 0,-1.5 -2.5,-6.5"/></g></g><g class="site s1" transform="translate(483.68 363.2)"><line class="sym" x1="0" x2="0" y1="0" y2="-10"/><g class="mut m1"><polyline class="sym" points="2.5,-6.5 0,-1.5 -2.5,-6.5"/></g></g><g class="site s2" transform="translate(584.48 363.2)"><line class="sym" x1="0" x2="0" y1="0" y2="-10"/><g class="mut m2"><polyline class="sym" points="2.5,-6.5 0,-1.5 -2.5,-6.5"/></g></g><g class="site s3" transform="translate(958.88 363.2)"><line class="sym" x1="0" x2="0" y1="0" y2="-10"/><g class="mut m3"><polyline class="sym" points="2.5,-6.5 0,-1.5 -2.5,-6.5"/></g></g></g></g><g class="plotbox trees"><g class="tree t0" transform="translate(20 0)"><g class="plotbox"><g class="c2 node n38 p0 root" transform="translate(659.508 26.8)"><g class="a38 c2 m2 node n36 p2 s2" transform="translate(195.68 215.009)"><g class="a36 i13 leaf node n13 p2 sample" transform="translate(61.8125 79.5915)"><path class="edge" d="M 0 0 V -79.5915 H -61.8125"/><rect class="sym" height="6" width="6" x="-3" y="-3"/><text class="lab" transform="translate(0 11)">13</text></g><g class="a36 c2 node n33 p1" transform="translate(-61.8125 39.6714)"><g class="a33 c2 node n20 p2" transform="translate(54.625 38.7972)"><g class="a20 i7 leaf node n7 p1 sample" transform="translate(-23 1.12286)"><path class="edge" d="M 0 0 V -1.12286 H 23"/><rect class="sym" height="6" width="6" x="-3" y="-3"/><text class="lab" transform="translate(0 11)">7</text></g><g class="a20 i8 leaf node n8 p1 sample" transform="translate(23 1.12286)"><path class="edge" d="M 0 0 V -1.12286 H -23"/><rect class="sym" height="6" width="6" x="-3" y="-3"/><text class="lab" transform="translate(0 11)">8</text></g><path class="edge" d="M 0 0 V -38.7972 H -54.625"/><circle class="sym" cx="0" cy="0" r="3"/><text class="lab rgt" transform="translate(3 -7)">20</text></g><g class="a33 c2 node n32 p1" transform="translate(-54.625 7.88876)"><g class="a32 i11 leaf node n11 p2 sample" transform="translate(40.25 32.0313)"><path class="edge" d="M 0 0 V -32.0313 H -40.25"/><rect class="sym" height="6" width="6" x="-3" y="-3"/><text class="lab" transform="translate(0 11)">11</text></g><g class="a32 c2 node n31 p2" transform="translate(-40.25 11.5802)"><g class="a31 i5 leaf node n5 p1 sample" transform="translate(34.5 20.4511)"><path class="edge" d="M 0 0 V -20.4511 H -34.5"/><rect class="sym" height="6" width="6" x="-3" y="-3"/><text class="lab" transform="translate(0 11)">5</text></g><g class="a31 c2 node n23 p2" transform="translate(-34.5 19.0167)"><g class="a23 i1 leaf node n1 p1 sample" transform="translate(-23 1.43441)"><path class="edge" d="M 0 0 V -1.43441 H 23"/><rect class="sym" height="6" width="6" x="-3" y="-3"/><text class="lab" transform="translate(0 11)">1</text></g><g class="a23 i9 leaf node n9 p1 sample" transform="translate(23 1.43441)"><path class="edge" d="M 0 0 V -1.43441 H -23"/><rect class="sym" height="6" width="6" x="-3" y="-3"/><text class="lab" transform="translate(0 11)">9</text></g><path class="edge" d="M 0 0 V -19.0167 H 34.5"/><circle class="sym" cx="0" cy="0" r="3"/><text class="lab lft" transform="translate(-3 -7)">23</text></g><path class="edge" d="M 0 0 V -11.5802 H 40.25"/><circle class="sym" cx="0" cy="0" r="3"/><text class="lab lft" transform="translate(-3 -7)">31</text></g><path class="edge" d="M 0 0 V -7.88876 H 54.625"/><circle class="sym" cx="0" cy="0" r="3"/><text class="lab lft" transform="translate(-3 -7)">32</text></g><path class="edge" d="M 0 0 V -39.6714 H 61.8125"/><circle class="sym" cx="0" cy="0" r="3"/><text class="lab lft" transform="translate(-3 -7)">33</text></g><path class="edge" d="M 0 0 V -215.009 H -195.68"/><g class="mut m2 s2" transform="translate(0 -104.068)"><line x1="0" x2="0" y1="0" y2="104.068"/><path class="sym" d="M -3,-3 l 6,6 M -3,3 l 6,-6"/><text class="lab rgt" transform="translate(5 0)">2</text></g><circle class="sym" cx="0" cy="0" r="3"/><text class="lab rgt" transform="translate(3 -7)">36</text></g><g class="a38 c2 node n37 p0" transform="translate(-195.68 45.5313)"><g class="a37 c2 m3 node n34 p2 s3" transform="translate(96.6719 194.493)"><g class="a34 i10 leaf node n10 p2 sample" transform="translate(34.5 54.5756)"><path class="edge" d="M 0 0 V -54.5756 H -34.5"/><rect class="sym" height="6" width="6" x="-3" y="-3"/><text class="lab" transform="translate(0 11)">10</text></g><g class="a34 c2 node n21 p1" transform="translate(-34.5 53.1953)"><g class="a21 i2 leaf node n2 p1 sample" transform="translate(-23 1.38024)"><path class="edge" d="M 0 0 V -1.38024 H 23"/><rect class="sym" height="6" width="6" x="-3" y="-3"/><text class="lab" transform="translate(0 11)">2</text></g><g class="a21 i19 leaf node n19 p2 sample" transform="translate(23 1.38024)"><path class="edge" d="M 0 0 V -1.38024 H -23"/><rect class="sym" height="6" width="6" x="-3" y="-3"/><text class="lab" transform="translate(0 11)">19</text></g><path class="edge" d="M 0 0 V -53.1953 H 34.5"/><circle class="sym" cx="0" cy="0" r="3"/><text class="lab lft" transform="translate(-3 -7)">21</text></g><path class="edge" d="M 0 0 V -194.493 H -96.6719"/><g class="mut m3 s3" transform="translate(0 -132.815)"><line x1="0" x2="0" y1="0" y2="132.815"/><path class="sym" d="M -3,-3 l 6,6 M -3,3 l 6,-6"/><text class="lab rgt" transform="translate(5 0)">3</text></g><circle class="sym" cx="0" cy="0" r="3"/><text class="lab rgt" transform="translate(3 -7)">34</text></g><g class="a37 c2 node n35 p1" transform="translate(-96.6719 185.488)"><g class="a35 i12 leaf m1 node n12 p2 s1 sample" transform="translate(89.8438 63.5808)"><path class="edge" d="M 0 0 V -63.5808 H -89.8438"/><g class="mut m1 s1" transform="translate(0 -25.4328)"><line x1="0" x2="0" y1="0" y2="25.4328"/><path class="sym" d="M -3,-3 l 6,6 M -3,3 l 6,-6"/><text class="lab rgt" transform="translate(5 0)">1</text></g><rect class="sym" height="6" width="6" x="-3" y="-3"/><text class="lab" transform="translate(0 11)">12</text></g><g class="a35 c2 m0 node n30 p2 s0" transform="translate(-89.8438 47.7184)"><g class="a30 c2 node n28 p1" transform="translate(76.1875 2.46875)"><g class="a28 i4 leaf node n4 p1 sample" transform="translate(-34.5 13.3936)"><path class="edge" d="M 0 0 V -13.3936 H 34.5"/><rect class="sym" height="6" width="6" x="-3" y="-3"/><text class="lab" transform="translate(0 11)">4</text></g><g class="a28 c2 node n22 p1" transform="translate(34.5 11.9631)"><g class="a22 i6 leaf node n6 p1 sample" transform="translate(-23 1.43057)"><path class="edge" d="M 0 0 V -1.43057 H 23"/><rect class="sym" height="6" width="6" x="-3" y="-3"/><text class="lab" transform="translate(0 11)">6</text></g><g class="a22 i14 leaf node n14 p2 sample" transform="translate(23 1.43057)"><path class="edge" d="M 0 0 V -1.43057 H -23"/><rect class="sym" height="6" width="6" x="-3" y="-3"/><text class="lab" transform="translate(0 11)">14</text></g><path class="edge" d="M 0 0 V -11.9631 H -34.5"/><circle class="sym" cx="0" cy="0" r="3"/><text class="lab rgt" transform="translate(3 -7)">22</text></g><path class="edge" d="M 0 0 V -2.46875 H -76.1875"/><circle class="sym" cx="0" cy="0" r="3"/><text class="lab rgt" transform="translate(3 -7)">28</text></g><g class="a30 c2 node n29 p1" transform="translate(-76.1875 1.75611)"><g class="a29 i15 leaf node n15 p2 sample" transform="translate(71.875 14.1063)"><path class="edge" d="M 0 0 V -14.1063 H -71.875"/><rect class="sym" height="6" width="6" x="-3" y="-3"/><text class="lab" transform="translate(0 11)">15</text></g><g class="a29 c2 node n27 p2" transform="translate(-71.875 3.45961)"><g class="a27 c2 node n25 p1" transform="translate(-63.25 7.25885)"><g class="a25 i0 leaf node n0 p1 sample" transform="translate(-23 3.38779)"><path class="edge" d="M 0 0 V -3.38779 H 23"/><rect class="sym" height="6" width="6" x="-3" y="-3"/><text class="lab" transform="translate(0 11)">0</text></g><g class="a25 i18 leaf node n18 p2 sample" transform="translate(23 3.38779)"><path class="edge" d="M 0 0 V -3.38779 H -23"/><rect class="sym" height="6" width="6" x="-3" y="-3"/><text class="lab" transform="translate(0 11)">18</text></g><path class="edge" d="M 0 0 V -7.25885 H 63.25"/><circle class="sym" cx="0" cy="0" r="3"/><text class="lab lft" transform="translate(-3 -7)">25</text></g><g class="a27 c2 node n26 p2" transform="translate(63.25 6.39856)"><g class="a26 i16 leaf node n16 p2 sample" transform="translate(34.5 4.24808)"><path class="edge" d="M 0 0 V -4.24808 H -34.5"/><rect class="sym" height="6" width="6" x="-3" y="-3"/><text class="lab" transform="translate(0 11)">16</text></g><g class="a26 c2 node n24 p1" transform="translate(-34.5 1.57383)"><g class="a24 i3 leaf node n3 p1 sample" transform="translate(-23 2.67426)"><path class="edge" d="M 0 0 V -2.67426 H 23"/><rect class="sym" height="6" width="6" x="-3" y="-3"/><text class="lab" transform="translate(0 11)">3</text></g><g class="a24 i17 leaf node n17 p2 sample" transform="translate(23 2.67426)"><path class="edge" d="M 0 0 V -2.67426 H -23"/><rect class="sym" height="6" width="6" x="-3" y="-3"/><text class="lab" transform="translate(0 11)">17</text></g><path class="edge" d="M 0 0 V -1.57383 H 34.5"/><circle class="sym" cx="0" cy="0" r="3"/><text class="lab lft" transform="translate(-3 -7)">24</text></g><path class="edge" d="M 0 0 V -6.39856 H -63.25"/><circle class="sym" cx="0" cy="0" r="3"/><text class="lab rgt" transform="translate(3 -7)">26</text></g><path class="edge" d="M 0 0 V -3.45961 H 71.875"/><circle class="sym" cx="0" cy="0" r="3"/><text class="lab lft" transform="translate(-3 -7)">27</text></g><path class="edge" d="M 0 0 V -1.75611 H 76.1875"/><circle class="sym" cx="0" cy="0" r="3"/><text class="lab lft" transform="translate(-3 -7)">29</text></g><path class="edge" d="M 0 0 V -47.7184 H 89.8438"/><g class="mut m0 s0" transform="translate(0 -33.3546)"><line x1="0" x2="0" y1="0" y2="33.3546"/><path class="sym" d="M -3,-3 l 6,6 M -3,3 l 6,-6"/><text class="lab lft" transform="translate(-5 0)">0</text></g><circle class="sym" cx="0" cy="0" r="3"/><text class="lab lft" transform="translate(-3 -7)">30</text></g><path class="edge" d="M 0 0 V -185.488 H 96.6719"/><circle class="sym" cx="0" cy="0" r="3"/><text class="lab lft" transform="translate(-3 -7)">35</text></g><path class="edge" d="M 0 0 V -45.5313 H 195.68"/><circle class="sym" cx="0" cy="0" r="3"/><text class="lab lft" transform="translate(-3 -7)">37</text></g><circle class="sym" cx="0" cy="0" r="3"/><text class="lab" transform="translate(0 -11)">38</text></g></g></g></g></g></svg>