<svg baseProfile="full" height="400" version="1.1" width="1000" xmlns="http://www.w3.org/2000/svg" xmlns:ev="http://www.w3.org/2001/xml-events" xmlns:xlink="http://www.w3.org/1999/xlink"><defs><style type="text/css"><![CDATA[.background path {fill: #808080; fill-opacity: 0}.background path:nth-child(odd) {fill-opacity: .1}.x-regions rect {fill: yellow; stroke: black; opacity: 0.5}.axes {font-size: 14px}.x-axis .tick .lab {font-weight: bold; dominant-baseline: hanging}.axes, .tree {font-size: 14px; text-anchor: middle}.axes line, .edge {stroke: black; fill: none}.axes .ax-skip {stroke-dasharray: 4}.y-axis .grid {stroke: #FAFAFA}.node > .sym {fill: black; stroke: none}.site > .sym {stroke: black}.mut text {fill: red; font-style: italic}.mut.extra text {fill: hotpink}.mut line {fill: none; stroke: none}.mut .sym {fill: none; stroke: red}.mut.extra .sym {stroke: hotpink}.node .mut .sym {stroke-width: 1.5px}.tree text, .tree-sequence text {dominant-baseline: central}.plotbox .lab.lft {text-anchor: end}.plotbox .lab.rgt {text-anchor: start}.polytomy line {stroke: black; stroke-dasharray: 1px, 1px}.polytomy text {paint-order:stroke;stroke-width:0.3em;stroke:white}]]></style></defs><g class="tree-sequence"><g class="background"><path d="M20,0 l960,0 l0,338.2 l0,25 l0,5 l-960,0 l0,-5 l0,-25 l0,-338.2z"/></g><g class="axes"><g class="x-axis"><g class="title" transform="translate(500 400)"><text class="lab" text-anchor="middle" transform="translate(0 -11)">Genome position</text></g><line class="ax-line" x1="20" x2="980" y1="363.2" y2="363.2"/><g class="ticks"><g class="tick" transform="translate(20 363.2)"><line x1="0" x2="0" y1="0" y2="5"/><g transform="translate(0 6)"><text class="lab">0</text></g></g><g class="tick" transform="translate(980 363.2)"><line x1="0" x2="0" y1="0" y2="5"/><g transform="translate(0 6)"><text class="lab">1000</text></g></g></g><g class="site s0" transform="translate(337.76 363.2)"><line class="sym" x1="0" x2="0" y1="0" y2="-10"/><g class="mut m0"><polyline class="sym" points="2.5,-6.5 0,-1.5 -2.5,-6.5"/></g></g><g class="site s1" transform="translate(764.96 363.2)"><line class="sym" x1="0" x2="0" y1="0" y2="-10"/><g class="mut m1"><polyline class="sym" points="2.5,-6.5 0,-1.5 -2.5,-6.5"/></g></g></g></g><g class="plotbox trees"><g class="tree t0" transform="translate(20 0)"><g class="plotbox"><g class="c2 node n38 p0 root" transform="translate(745.848 26.8)"><g class="a38 c2 node n36 p1" transform="translate(136.652 137.533)"><g class="a36 i12 leaf node n12 p2 sample" transform="translate(34.5 157.067)"><path class="edge" d="M 0 0 V -157.067 H -34.5"/><rect class="sym" height="6" width="6" x="-3" y="-3"/><text class="lab" transform="translate(0 11)">12</text></g><g class="a36 c2 node n24 p1" transform="translate(-34.5 152.724)"><g class="a24 i2 leaf node n2 p1 sample" transform="translate(-23 4.34395)"><path class="edge" d="M 0 0 V -4.34395 H 23"/><rect class="sym" height="6" width="6" x="-3" y="-3"/><text class="lab" transform="translate(0 11)">2</text></g><g class="a24 i11 leaf node n11 p2 sample" transform="translate(23 4.34395)"><path class="edge" d="M 0 0 V -4.34395 H -23"/><rect class="sym" height="6" width="6" x="-3" y="-3"/><text class="lab" transform="translate(0 11)">11</text></g><path class="edge" d="M 0 0 V -152.724 H 34.5"/><circle class="sym" cx="0" cy="0" r="3"/><text class="lab lft" transform="translate(-3 -7)">24</text></g><path class="edge" d="M 0 0 V -137.533 H -136.652"/><circle class="sym" cx="0" cy="0" r="3"/><text class="lab rgt" transform="translate(3 -7)">36</text></g><g class="a38 c2 node n37 p0" transform="translate(-136.652 73.6984)"><g class="a37 c2 node n34 p2" transform="translate(-135.305 190.55)"><g class="a34 c2 node n31 p2" transform="translate(-144.109 4.85422)"><g class="a31 c2 node n29 p1" transform="translate(-160.281 7.55264)"><g class="a29 i18 leaf node n18 p2 sample" transform="translate(57.5 17.9452)"><path class="edge" d="M 0 0 V -17.9452 H -57.5"/><rect class="sym" height="6" width="6" x="-3" y="-3"/><text class="lab" transform="translate(0 11)">18</text></g><g class="a29 c2 node n26 p1" transform="translate(-57.5 10.2921)"><g class="a26 c2 node n21 p2" transform="translate(46 7.26421)"><g class="a21 i10 leaf node n10 p2 sample" transform="translate(-23 0.388855)"><path class="edge" d="M 0 0 V -0.388855 H 23"/><rect class="sym" height="6" width="6" x="-3" y="-3"/><text class="lab" transform="translate(0 11)">10</text></g><g class="a21 i16 leaf node n16 p2 sample" transform="translate(23 0.388855)"><path class="edge" d="M 0 0 V -0.388855 H -23"/><rect class="sym" height="6" width="6" x="-3" y="-3"/><text class="lab" transform="translate(0 11)">16</text></g><path class="edge" d="M 0 0 V -7.26421 H -46"/><circle class="sym" cx="0" cy="0" r="3"/><text class="lab rgt" transform="translate(3 -7)">21</text></g><g class="a26 c2 node n25 p2" transform="translate(-46 2.70706)"><g class="a25 i0 leaf node n0 p1 sample" transform="translate(-23 4.94601)"><path class="edge" d="M 0 0 V -4.94601 H 23"/><rect class="sym" height="6" width="6" x="-3" y="-3"/><text class="lab" transform="translate(0 11)">0</text></g><g class="a25 i8 leaf node n8 p1 sample" transform="translate(23 4.94601)"><path class="edge" d="M 0 0 V -4.94601 H -23"/><rect class="sym" height="6" width="6" x="-3" y="-3"/><text class="lab" transform="translate(0 11)">8</text></g><path class="edge" d="M 0 0 V -2.70706 H 46"/><circle class="sym" cx="0" cy="0" r="3"/><text class="lab lft" transform="translate(-3 -7)">25</text></g><path class="edge" d="M 0 0 V -10.2921 H 57.5"/><circle class="sym" cx="0" cy="0" r="3"/><text class="lab lft" transform="translate(-3 -7)">26</text></g><path class="edge" d="M 0 0 V -7.55264 H 160.281"/><circle class="sym" cx="0" cy="0" r="3"/><text class="lab lft" transform="translate(-3 -7)">29</text></g><g class="a31 c2 node n30 p1" transform="translate(160.281 7.1207)"><g class="a30 i15 leaf node n15 p2 sample" transform="translate(58.9375 18.3771)"><path class="edge" d="M 0 0 V -18.3771 H -58.9375"/><rect class="sym" height="6" width="6" x="-3" y="-3"/><text class="lab" transform="translate(0 11)">15</text></g><g class="a30 c2 node n28 p1" transform="translate(-58.9375 5.33518)"><g class="a28 i5 leaf node n5 p1 sample" transform="translate(71.875 13.0419)"><path class="edge" d="M 0 0 V -13.0419 H -71.875"/><rect class="sym" height="6" width="6" x="-3" y="-3"/><text class="lab" transform="translate(0 11)">5</text></g><g class="a28 c2 node n27 p2" transform="translate(-71.875 1.47689)"><g class="a27 c2 m0 node n20 p1 s0" transform="translate(-63.25 11.441)"><g class="a20 i3 leaf node n3 p1 sample" transform="translate(-23 0.124031)"><path class="edge" d="M 0 0 V -0.124031 H 23"/><rect class="sym" height="6" width="6" x="-3" y="-3"/><text class="lab" transform="translate(0 11)">3</text></g><g class="a20 i7 leaf node n7 p1 sample" transform="translate(23 0.124031)"><path class="edge" d="M 0 0 V -0.124031 H -23"/><rect class="sym" height="6" width="6" x="-3" y="-3"/><text class="lab" transform="translate(0 11)">7</text></g><path class="edge" d="M 0 0 V -11.441 H 63.25"/><g class="mut m0 s0" transform="translate(0 -10.2035)"><line x1="0" x2="0" y1="0" y2="10.2035"/><path class="sym" d="M -3,-3 l 6,6 M -3,3 l 6,-6"/><text class="lab lft" transform="translate(-5 0)">0</text></g><circle class="sym" cx="0" cy="0" r="3"/><text class="lab lft" transform="translate(-3 -7)">20</text></g><g class="a27 c2 node n23 p2" transform="translate(63.25 10.5692)"><g class="a23 i17 leaf node n17 p2 sample" transform="translate(34.5 0.995846)"><path class="edge" d="M 0 0 V -0.995846 H -34.5"/><rect class="sym" height="6" width="6" x="-3" y="-3"/><text class="lab" transform="translate(0 11)">17</text></g><g class="a23 c2 node n22 p2" transform="translate(-34.5 0.00537315)"><g class="a22 i13 leaf node n13 p2 sample" transform="translate(-23 0.990472)"><path class="edge" d="M 0 0 V -0.990472 H 23"/><rect class="sym" height="6" width="6" x="-3" y="-3"/><text class="lab" transform="translate(0 11)">13</text></g><g class="a22 i14 leaf node n14 p2 sample" transform="translate(23 0.990472)"><path class="edge" d="M 0 0 V -0.990472 H -23"/><rect class="sym" height="6" width="6" x="-3" y="-3"/><text class="lab" transform="translate(0 11)">14</text></g><path class="edge" d="M 0 0 V -0.00537315 H 34.5"/><circle class="sym" cx="0" cy="0" r="3"/><text class="lab lft" transform="translate(-3 -7)">22</text></g><path class="edge" d="M 0 0 V -10.5692 H -63.25"/><circle class="sym" cx="0" cy="0" r="3"/><text class="lab rgt" transform="translate(3 -7)">23</text></g><path class="edge" d="M 0 0 V -1.47689 H 71.875"/><circle class="sym" cx="0" cy="0" r="3"/><text class="lab lft" transform="translate(-3 -7)">27</text></g><path class="edge" d="M 0 0 V -5.33518 H 58.9375"/><circle class="sym" cx="0" cy="0" r="3"/><text class="lab lft" transform="translate(-3 -7)">28</text></g><path class="edge" d="M 0 0 V -7.1207 H -160.281"/><circle class="sym" cx="0" cy="0" r="3"/><text class="lab rgt" transform="translate(3 -7)">30</text></g><path class="edge" d="M 0 0 V -4.85422 H 144.109"/><circle class="sym" cx="0" cy="0" r="3"/><text class="lab lft" transform="translate(-3 -7)">31</text></g><g class="a34 c2 node n33 p1" transform="translate(144.109 0.639009)"><g class="a33 i1 leaf node n1 p1 sample" transform="translate(-23 29.713)"><path class="edge" d="M 0 0 V -29.713 H 23"/><rect class="sym" height="6" width="6" x="-3" y="-3"/><text class="lab" transform="translate(0 11)">1</text></g><g class="a33 i6 leaf node n6 p1 sample" transform="translate(23 29.713)"><path class="edge" d="M 0 0 V -29.713 H -23"/><rect class="sym" height="6" width="6" x="-3" y="-3"/><text class="lab" transform="translate(0 11)">6</text></g><path class="edge" d="M 0 0 V -0.639009 H -144.109"/><circle class="sym" cx="0" cy="0" r="3"/><text class="lab rgt" transform="translate(3 -7)">33</text></g><path class="edge" d="M 0 0 V -190.55 H 135.305"/><circle class="sym" cx="0" cy="0" r="3"/><text class="lab lft" transform="translate(-3 -7)">34</text></g><g class="a37 c2 m1 node n35 p2 s1" transform="translate(135.305 182.112)"><g class="a35 i19 leaf node n19 p2 sample" transform="translate(34.5 38.7892)"><path class="edge" d="M 0 0 V -38.7892 H -34.5"/><rect class="sym" height="6" width="6" x="-3" y="-3"/><text class="lab" transform="translate(0 11)">19</text></g><g class="a35 c2 node n32 p1" transform="translate(-34.5 12.4827)"><g class="a32 i4 leaf node n4 p1 sample" transform="translate(-23 26.3065)"><path class="edge" d="M 0 0 V -26.3065 H 23"/><rect class="sym" height="6" width="6" x="-3" y="-3"/><text class="lab" transform="translate(0 11)">4</text></g><g class="a32 i9 leaf node n9 p1 sample" transform="translate(23 26.3065)"><path class="edge" d="M 0 0 V -26.3065 H -23"/><rect class="sym" height="6" width="6" x="-3" y="-3"/><text class="lab" transform="translate(0 11)">9</text></g><path class="edge" d="M 0 0 V -12.4827 H 34.5"/><circle class="sym" cx="0" cy="0" r="3"/><text class="lab lft" transform="translate(-3 -7)">32</text></g><path class="edge" d="M 0 0 V -182.112 H -135.305"/><g class="mut m1 s1" transform="translate(0 -100.608)"><line x1="0" x2="0" y1="0" y2="100.608"/><path class="sym" d="M -3,-3 l 6,6 M -3,3 l 6,-6"/><text class="lab rgt" transform="translate(5 0)">1</text></g><circle class="sym" cx="0" cy="0" r="3"/><text class="lab rgt" transform="translate(3 -7)">35</text></g><path class="edge" d="M 0 0 V -73.6984 H 136.652"/><circle class="sym" cx="0" cy="0" r="3"/><text class="lab lft" transform="translate(-3 -7)">37</text></g><circle class="sym" cx="0" cy="0" r="3"/><text class="lab" transform="translate(0 -11)">38</text></g></g></g></g></g></svg>