<svg baseProfile="full" height="400" version="1.1" width="1000" xmlns="http://www.w3.org/2000/svg" xmlns:ev="http://www.w3.org/2001/xml-events" xmlns:xlink="http://www.w3.org/1999/xlink"><defs><style type="text/css"><![CDATA[.background path {fill: #808080; fill-opacity: 0}.background path:nth-child(odd) {fill-opacity: .1}.x-regions rect {fill: yellow; stroke: black; opacity: 0.5}.axes {font-size: 14px}.x-axis .tick .lab {font-weight: bold; dominant-baseline: hanging}.axes, .tree {font-size: 14px; text-anchor: middle}.axes line, .edge {stroke: black; fill: none}.axes .ax-skip {stroke-dasharray: 4}.y-axis .grid {stroke: #FAFAFA}.node > .sym {fill: black; stroke: none}.site > .sym {stroke: black}.mut text {fill: red; font-style: italic}.mut.extra text {fill: hotpink}.mut line {fill: none; stroke: none}.mut .sym {fill: none; stroke: red}.mut.extra .sym {stroke: hotpink}.node .mut .sym {stroke-width: 1.5px}.tree text, .tree-sequence text {dominant-baseline: central}.plotbox .lab.lft {text-anchor: end}.plotbox .lab.rgt {text-anchor: start}.polytomy line {stroke: black; stroke-dasharray: 1px, 1px}.polytomy text {paint-order:stroke;stroke-width:0.3em;stroke:white}]]></style></defs><g class="tree-sequence"><g class="background"><path d="M20,0 l960,0 l0,338.2 l0,25 l0,5 l-960,0 l0,-5 l0,-25 l0,-338.2z"/></g><g class="axes"><g class="x-axis"><g class="title" transform="translate(500 400)"><text class="lab" text-anchor="middle" transform="translate(0 -11)">Genome position</text></g><line class="ax-line" x1="20" x2="980" y1="363.2" y2="363.2"/><g class="ticks"><g class="tick" transform="translate(20 363.2)"><line x1="0" x2="0" y1="0" y2="5"/><g transform="translate(0 6)"><text class="lab">0</text></g></g><g class="tick" transform="translate(980 363.2)"><line x1="0" x2="0" y1="0" y2="5"/><g transform="translate(0 6)"><text class="lab">1000</text></g></g></g><g class="site s0" transform="translate(109.28 363.2)"><line class="sym" x1="0" x2="0" y1="0" y2="-10"/><g class="mut m0"><polyline class="sym" points="2.5,-6.5 0,-1.5 -2.5,-6.5"/></g></g><g class="site s1" transform="translate(257.12 363.2)"><line class="sym" x1="0" x2="0" y1="0" y2="-10"/><g class="mut m1"><polyline class="sym" points="2.5,-6.5 0,-1.5 -2.5,-6.5"/></g></g><g class="site s2" transform="translate(285.92 363.2)"><line class="sym" x1="0" x2="0" y1="0" y2="-10"/><g class="mut m2"><polyline class="sym" points="2.5,-6.5 0,-1.5 -2.5,-6.5"/></g></g><g class="site s3" transform="translate(554.72 363.2)"><line class="sym" x1="0" x2="0" y1="0" y2="-10"/><g class="mut m3"><polyline class="sym" points="2.5,-6.5 0,-1.5 -2.5,-6.5"/></g></g><g class="site s4" transform="translate(580.64 363.2)"><line class="sym" x1="0" x2="0" y1="0" y2="-10"/><g class="mut m4"><polyline class="sym" points="2.5,-6.5 0,-1.5 -2.5,-6.5"/></g></g><g class="site s5" transform="translate(775.52 363.2)"><line class="sym" x1="0" x2="0" y1="0" y2="-10"/><g class="mut m5"><polyline class="sym" points="2.5,-6.5 0,-1.5 -2.5,-6.5"/></g></g><g class="site s6" transform="translate(812.96 363.2)"><line class="sym" x1="0" x2="0" y1="0" y2="-10"/><g class="mut m6"><polyline class="sym" points="2.5,-6.5 0,-1.5 -2.5,-6.5"/></g></g></g></g><g class="plotbox trees"><g class="tree t0" transform="translate(20 0)"><g class="plotbox"><g class="c2 node n38 p2 root" transform="translate(534.625 26.8)"><g class="a38 c2 m0 m2 node n33 p2 s0 s2" transform="translate(301.156 234.013)"><g class="a33 i8 leaf node n8 p1 sample" transform="translate(81.2188 60.5868)"><path class="edge" d="M 0 0 V -60.5868 H -81.2188"/><rect class="sym" height="6" width="6" x="-3" y="-3"/><text class="lab" transform="translate(0 11)">8</text></g><g class="a33 c2 node n32 p1" transform="translate(-81.2188 26.2382)"><g class="a32 c2 node n23 p2" transform="translate(93.4375 32.4705)"><g class="a23 i14 leaf node n14 p2 sample" transform="translate(-23 1.878)"><path class="edge" d="M 0 0 V -1.878 H 23"/><rect class="sym" height="6" width="6" x="-3" y="-3"/><text class="lab" transform="translate(0 11)">14</text></g><g class="a23 i16 leaf node n16 p2 sample" transform="translate(23 1.878)"><path class="edge" d="M 0 0 V -1.878 H -23"/><rect class="sym" height="6" width="6" x="-3" y="-3"/><text class="lab" transform="translate(0 11)">16</text></g><path class="edge" d="M 0 0 V -32.4705 H -93.4375"/><circle class="sym" cx="0" cy="0" r="3"/><text class="lab rgt" transform="translate(3 -7)">23</text></g><g class="a32 c2 node n31 p2" transform="translate(-93.4375 6.97094)"><g class="a31 i1 leaf node n1 p1 sample" transform="translate(-66.125 27.3776)"><path class="edge" d="M 0 0 V -27.3776 H 66.125"/><rect class="sym" height="6" width="6" x="-3" y="-3"/><text class="lab" transform="translate(0 11)">1</text></g><g class="a31 c2 node n26 p2" transform="translate(66.125 13.5599)"><g class="a26 i12 leaf m4 node n12 p2 s4 sample" transform="translate(51.75 13.8177)"><path class="edge" d="M 0 0 V -13.8177 H -51.75"/><g class="mut m4 s4" transform="translate(0 -12.0784)"><line x1="0" x2="0" y1="0" y2="12.0784"/><path class="sym" d="M -3,-3 l 6,6 M -3,3 l 6,-6"/><text class="lab rgt" transform="translate(5 0)">4</text></g><rect class="sym" height="6" width="6" x="-3" y="-3"/><text class="lab" transform="translate(0 11)">12</text></g><g class="a26 c2 node n24 p2" transform="translate(-51.75 10.3958)"><g class="a24 i3 leaf node n3 p1 sample" transform="translate(-34.5 3.42186)"><path class="edge" d="M 0 0 V -3.42186 H 34.5"/><rect class="sym" height="6" width="6" x="-3" y="-3"/><text class="lab" transform="translate(0 11)">3</text></g><g class="a24 c2 node n21 p2" transform="translate(34.5 2.3469)"><g class="a21 i17 leaf node n17 p2 sample" transform="translate(-23 1.07497)"><path class="edge" d="M 0 0 V -1.07497 H 23"/><rect class="sym" height="6" width="6" x="-3" y="-3"/><text class="lab" transform="translate(0 11)">17</text></g><g class="a21 i19 leaf node n19 p2 sample" transform="translate(23 1.07497)"><path class="edge" d="M 0 0 V -1.07497 H -23"/><rect class="sym" height="6" width="6" x="-3" y="-3"/><text class="lab" transform="translate(0 11)">19</text></g><path class="edge" d="M 0 0 V -2.3469 H -34.5"/><circle class="sym" cx="0" cy="0" r="3"/><text class="lab rgt" transform="translate(3 -7)">21</text></g><path class="edge" d="M 0 0 V -10.3958 H 51.75"/><circle class="sym" cx="0" cy="0" r="3"/><text class="lab lft" transform="translate(-3 -7)">24</text></g><path class="edge" d="M 0 0 V -13.5599 H -66.125"/><circle class="sym" cx="0" cy="0" r="3"/><text class="lab rgt" transform="translate(3 -7)">26</text></g><path class="edge" d="M 0 0 V -6.97094 H 93.4375"/><circle class="sym" cx="0" cy="0" r="3"/><text class="lab lft" transform="translate(-3 -7)">31</text></g><path class="edge" d="M 0 0 V -26.2382 H 81.2188"/><circle class="sym" cx="0" cy="0" r="3"/><text class="lab lft" transform="translate(-3 -7)">32</text></g><path class="edge" d="M 0 0 V -234.013 H -301.156"/><g class="mut m0 s0" transform="translate(0 -105.13)"><line x1="0" x2="0" y1="0" y2="105.13"/><path class="sym" d="M -3,-3 l 6,6 M -3,3 l 6,-6"/><text class="lab rgt" transform="translate(5 0)">0</text></g><g class="mut m2 s2" transform="translate(0 -22.9157)"><line x1="0" x2="0" y1="0" y2="22.9157"/><path class="sym" d="M -3,-3 l 6,6 M -3,3 l 6,-6"/><text class="lab rgt" transform="translate(5 0)">2</text></g><circle class="sym" cx="0" cy="0" r="3"/><text class="lab rgt" transform="translate(3 -7)">33</text></g><g class="a38 c2 node n37 p1" transform="translate(-301.156 65.4276)"><g class="a37 c2 m3 node n35 p2 s3" transform="translate(-167.469 122.232)"><g class="a35 i0 leaf m1 node n0 p1 s1 sample" transform="translate(-23 106.94)"><path class="edge" d="M 0 0 V -106.94 H 23"/><g class="mut m1 s1" transform="translate(0 -78.2405)"><line x1="0" x2="0" y1="0" y2="78.2405"/><path class="sym" d="M -3,-3 l 6,6 M -3,3 l 6,-6"/><text class="lab lft" transform="translate(-5 0)">1</text></g><rect class="sym" height="6" width="6" x="-3" y="-3"/><text class="lab" transform="translate(0 11)">0</text></g><g class="a35 i2 leaf node n2 p1 sample" transform="translate(23 106.94)"><path class="edge" d="M 0 0 V -106.94 H -23"/><rect class="sym" height="6" width="6" x="-3" y="-3"/><text class="lab" transform="translate(0 11)">2</text></g><path class="edge" d="M 0 0 V -122.232 H 167.469"/><g class="mut m3 s3" transform="translate(0 -59.7487)"><line x1="0" x2="0" y1="0" y2="59.7487"/><path class="sym" d="M -3,-3 l 6,6 M -3,3 l 6,-6"/><text class="lab lft" transform="translate(-5 0)">3</text></g><circle class="sym" cx="0" cy="0" r="3"/><text class="lab lft" transform="translate(-3 -7)">35</text></g><g class="a37 c2 node n36 p1" transform="translate(167.469 103.753)"><g class="a36 c2 node n20 p2" transform="translate(125.062 124.665)"><g class="a20 i5 leaf node n5 p1 sample" transform="translate(-23 0.753936)"><path class="edge" d="M 0 0 V -0.753936 H 23"/><rect class="sym" height="6" width="6" x="-3" y="-3"/><text class="lab" transform="translate(0 11)">5</text></g><g class="a20 i18 leaf node n18 p2 sample" transform="translate(23 0.753936)"><path class="edge" d="M 0 0 V -0.753936 H -23"/><rect class="sym" height="6" width="6" x="-3" y="-3"/><text class="lab" transform="translate(0 11)">18</text></g><path class="edge" d="M 0 0 V -124.665 H -125.062"/><circle class="sym" cx="0" cy="0" r="3"/><text class="lab rgt" transform="translate(3 -7)">20</text></g><g class="a36 c2 node n34 p2" transform="translate(-125.062 57.1374)"><g class="a34 c2 node n29 p1" transform="translate(-83.375 46.2798)"><g class="a29 i15 leaf node n15 p2 sample" transform="translate(34.5 22.002)"><path class="edge" d="M 0 0 V -22.002 H -34.5"/><rect class="sym" height="6" width="6" x="-3" y="-3"/><text class="lab" transform="translate(0 11)">15</text></g><g class="a29 c2 node n25 p2" transform="translate(-34.5 12.6181)"><g class="a25 i4 leaf node n4 p1 sample" transform="translate(-23 9.38391)"><path class="edge" d="M 0 0 V -9.38391 H 23"/><rect class="sym" height="6" width="6" x="-3" y="-3"/><text class="lab" transform="translate(0 11)">4</text></g><g class="a25 i7 leaf node n7 p1 sample" transform="translate(23 9.38391)"><path class="edge" d="M 0 0 V -9.38391 H -23"/><rect class="sym" height="6" width="6" x="-3" y="-3"/><text class="lab" transform="translate(0 11)">7</text></g><path class="edge" d="M 0 0 V -12.6181 H 34.5"/><circle class="sym" cx="0" cy="0" r="3"/><text class="lab lft" transform="translate(-3 -7)">25</text></g><path class="edge" d="M 0 0 V -46.2798 H 83.375"/><circle class="sym" cx="0" cy="0" r="3"/><text class="lab lft" transform="translate(-3 -7)">29</text></g><g class="a34 c2 m5 node n30 p1 s5" transform="translate(83.375 41.9708)"><g class="a30 c2 node n27 p1" transform="translate(63.25 12.3088)"><g class="a27 i13 leaf node n13 p2 sample" transform="translate(34.5 14.0021)"><path class="edge" d="M 0 0 V -14.0021 H -34.5"/><rect class="sym" height="6" width="6" x="-3" y="-3"/><text class="lab" transform="translate(0 11)">13</text></g><g class="a27 c2 node n22 p1" transform="translate(-34.5 12.6167)"><g class="a22 i9 leaf node n9 p1 sample" transform="translate(-23 1.38539)"><path class="edge" d="M 0 0 V -1.38539 H 23"/><rect class="sym" height="6" width="6" x="-3" y="-3"/><text class="lab" transform="translate(0 11)">9</text></g><g class="a22 i10 leaf node n10 p2 sample" transform="translate(23 1.38539)"><path class="edge" d="M 0 0 V -1.38539 H -23"/><rect class="sym" height="6" width="6" x="-3" y="-3"/><text class="lab" transform="translate(0 11)">10</text></g><path class="edge" d="M 0 0 V -12.6167 H 34.5"/><circle class="sym" cx="0" cy="0" r="3"/><text class="lab lft" transform="translate(-3 -7)">22</text></g><path class="edge" d="M 0 0 V -12.3088 H -63.25"/><circle class="sym" cx="0" cy="0" r="3"/><text class="lab rgt" transform="translate(3 -7)">27</text></g><g class="a30 c2 node n28 p1" transform="translate(-63.25 7.0897)"><g class="a28 i6 leaf node n6 p1 sample" transform="translate(-23 19.2212)"><path class="edge" d="M 0 0 V -19.2212 H 23"/><rect class="sym" height="6" width="6" x="-3" y="-3"/><text class="lab" transform="translate(0 11)">6</text></g><g class="a28 i11 leaf m6 node n11 p2 s6 sample" transform="translate(23 19.2212)"><path class="edge" d="M 0 0 V -19.2212 H -23"/><g class="mut m6 s6" transform="translate(0 -0.464457)"><line x1="0" x2="0" y1="0" y2="0.464457"/><path class="sym" d="M -3,-3 l 6,6 M -3,3 l 6,-6"/><text class="lab rgt" transform="translate(5 0)">6</text></g><rect class="sym" height="6" width="6" x="-3" y="-3"/><text class="lab" transform="translate(0 11)">11</text></g><path class="edge" d="M 0 0 V -7.0897 H 63.25"/><circle class="sym" cx="0" cy="0" r="3"/><text class="lab lft" transform="translate(-3 -7)">28</text></g><path class="edge" d="M 0 0 V -41.9708 H -83.375"/><g class="mut m5 s5" transform="translate(0 -20.2058)"><line x1="0" x2="0" y1="0" y2="20.2058"/><path class="sym" d="M -3,-3 l 6,6 M -3,3 l 6,-6"/><text class="lab rgt" transform="translate(5 0)">5</text></g><circle class="sym" cx="0" cy="0" r="3"/><text class="lab rgt" transform="translate(3 -7)">30</text></g><path class="edge" d="M 0 0 V -57.1374 H 125.062"/><circle class="sym" cx="0" cy="0" r="3"/><text class="lab lft" transform="translate(-3 -7)">34</text></g><path class="edge" d="M 0 0 V -103.753 H -167.469"/><circle class="sym" cx="0" cy="0" r="3"/><text class="lab rgt" transform="translate(3 -7)">36</text></g><path class="edge" d="M 0 0 V -65.4276 H 301.156"/><circle class="sym" cx="0" cy="0" r="3"/><text class="lab lft" transform="translate(-3 -7)">37</text></g><circle class="sym" cx="0" cy="0" r="3"/><text class="lab" transform="translate(0 -11)">38</text></g></g></g></g></g></svg>