<svg baseProfile="full" height="400" version="1.1" width="1000" xmlns="http://www.w3.org/2000/svg" xmlns:ev="http://www.w3.org/2001/xml-events" xmlns:xlink="http://www.w3.org/1999/xlink"><defs><style type="text/css"><![CDATA[.background path {fill: #808080; fill-opacity: 0}.background path:nth-child(odd) {fill-opacity: .1}.x-regions rect {fill: yellow; stroke: black; opacity: 0.5}.axes {font-size: 14px}.x-axis .tick .lab {font-weight: bold; dominant-baseline: hanging}.axes, .tree {font-size: 14px; text-anchor: middle}.axes line, .edge {stroke: black; fill: none}.axes .ax-skip {stroke-dasharray: 4}.y-axis .grid {stroke: #FAFAFA}.node > .sym {fill: black; stroke: none}.site > .sym {stroke: black}.mut text {fill: red; font-style: italic}.mut.extra text {fill: hotpink}.mut line {fill: none; stroke: none}.mut .sym {fill: none; stroke: red}.mut.extra .sym {stroke: hotpink}.node .mut .sym {stroke-width: 1.5px}.tree text, .tree-sequence text {dominant-baseline: central}.plotbox .lab.lft {text-anchor: end}.plotbox .lab.rgt {text-anchor: start}.polytomy line {stroke: black; stroke-dasharray: 1px, 1px}.polytomy text {paint-order:stroke;stroke-width:0.3em;stroke:white}]]></style></defs><g class="tree-sequence"><g class="background"><path d="M20,0 l960,0 l0,338.2 l0,25 l0,5 l-960,0 l0,-5 l0,-25 l0,-338.2z"/></g><g class="axes"><g class="x-axis"><g class="title" transform="translate(500 400)"><text class="lab" text-anchor="middle" transform="translate(0 -11)">Genome position</text></g><line class="ax-line" x1="20" x2="980" y1="363.2" y2="363.2"/><g class="ticks"><g class="tick" transform="translate(20 363.2)"><line x1="0" x2="0" y1="0" y2="5"/><g transform="translate(0 6)"><text class="lab">0</text></g></g><g class="tick" transform="translate(980 363.2)"><line x1="0" x2="0" y1="0" y2="5"/><g transform="translate(0 6)"><text class="lab">1000</text></g></g></g><g class="site s0" transform="translate(411.68 363.2)"><line class="sym" x1="0" x2="0" y1="0" y2="-10"/><g class="mut m0"><polyline class="sym" points="2.5,-6.5 0,-1.5 -2.5,-6.5"/></g></g><g class="site s1" transform="translate(647.84 363.2)"><line class="sym" x1="0" x2="0" y1="0" y2="-10"/><g class="mut m1"><polyline class="sym" points="2.5,-6.5 0,-1.5 -2.5,-6.5"/></g></g><g class="site s2" transform="translate(710.24 363.2)"><line class="sym" x1="0" x2="0" y1="0" y2="-10"/><g class="mut m2"><polyline class="sym" points="2.5,-6.5 0,-1.5 -2.5,-6.5"/></g></g><g class="site s3" transform="translate(730.4 363.2)"><line class="sym" x1="0" x2="0" y1="0" y2="-10"/><g class="mut m3"><polyline class="sym" points="2.5,-6.5 0,-1.5 -2.5,-6.5"/></g></g><g class="site s4" transform="translate(769.76 363.2)"><line class="sym" x1="0" x2="0" y1="0" y2="-10"/><g class="mut m4"><polyline class="sym" points="2.5,-6.5 0,-1.5 -2.5,-6.5"/></g></g></g></g><g class="plotbox trees"><g class="tree t0" transform="translate(20 0)"><g class="plotbox"><g class="c2 node n38 p0 root" transform="translate(506.773 26.8)"><g class="a38 c2 node n35 p2" transform="translate(-230.539 218.405)"><g class="a35 c2 m2 node n23 p2 s2" transform="translate(-181.484 70.5984)"><g class="a23 i0 leaf node n0 p1 sample" transform="translate(-51.75 5.59676)"><path class="edge" d="M 0 0 V -5.59676 H 51.75"/><rect class="sym" height="6" width="6" x="-3" y="-3"/><text class="lab" transform="translate(0 11)">0</text></g><g class="a23 c2 node n22 p2" transform="translate(51.75 2.1345)"><g class="a22 i6 leaf node n6 p1 sample" transform="translate(34.5 3.46226)"><path class="edge" d="M 0 0 V -3.46226 H -34.5"/><rect class="sym" height="6" width="6" x="-3" y="-3"/><text class="lab" transform="translate(0 11)">6</text></g><g class="a22 c2 node n20 p2" transform="translate(-34.5 3.1224)"><g class="a20 i4 leaf node n4 p1 sample" transform="translate(-23 0.339854)"><path class="edge" d="M 0 0 V -0.339854 H 23"/><rect class="sym" height="6" width="6" x="-3" y="-3"/><text class="lab" transform="translate(0 11)">4</text></g><g class="a20 i10 leaf node n10 p2 sample" transform="translate(23 0.339854)"><path class="edge" d="M 0 0 V -0.339854 H -23"/><rect class="sym" height="6" width="6" x="-3" y="-3"/><text class="lab" transform="translate(0 11)">10</text></g><path class="edge" d="M 0 0 V -3.1224 H 34.5"/><circle class="sym" cx="0" cy="0" r="3"/><text class="lab lft" transform="translate(-3 -7)">20</text></g><path class="edge" d="M 0 0 V -2.1345 H -51.75"/><circle class="sym" cx="0" cy="0" r="3"/><text class="lab rgt" transform="translate(3 -7)">22</text></g><path class="edge" d="M 0 0 V -70.5984 H 181.484"/><g class="mut m2 s2" transform="translate(0 -27.3045)"><line x1="0" x2="0" y1="0" y2="27.3045"/><path class="sym" d="M -3,-3 l 6,6 M -3,3 l 6,-6"/><text class="lab lft" transform="translate(-5 0)">2</text></g><circle class="sym" cx="0" cy="0" r="3"/><text class="lab lft" transform="translate(-3 -7)">23</text></g><g class="a35 c2 m3 node n31 p2 s3" transform="translate(181.484 41.541)"><g class="a31 i11 leaf node n11 p2 sample" transform="translate(45.2812 34.6541)"><path class="edge" d="M 0 0 V -34.6541 H -45.2812"/><rect class="sym" height="6" width="6" x="-3" y="-3"/><text class="lab" transform="translate(0 11)">11</text></g><g class="a31 c2 node n30 p1" transform="translate(-45.2812 17.6493)"><g class="a30 i2 leaf node n2 p1 sample" transform="translate(44.5625 17.0048)"><path class="edge" d="M 0 0 V -17.0048 H -44.5625"/><rect class="sym" height="6" width="6" x="-3" y="-3"/><text class="lab" transform="translate(0 11)">2</text></g><g class="a30 c2 node n28 p1" transform="translate(-44.5625 2.60043)"><g class="a28 i3 leaf node n3 p1 sample" transform="translate(43.125 14.4043)"><path class="edge" d="M 0 0 V -14.4043 H -43.125"/><rect class="sym" height="6" width="6" x="-3" y="-3"/><text class="lab" transform="translate(0 11)">3</text></g><g class="a28 c2 node n26 p1" transform="translate(-43.125 4.5531)"><g class="a26 i19 leaf node n19 p2 sample" transform="translate(40.25 9.85124)"><path class="edge" d="M 0 0 V -9.85124 H -40.25"/><rect class="sym" height="6" width="6" x="-3" y="-3"/><text class="lab" transform="translate(0 11)">19</text></g><g class="a26 c2 node n25 p1" transform="translate(-40.25 0.094301)"><g class="a25 i18 leaf m4 node n18 p2 s4 sample" transform="translate(34.5 9.75694)"><path class="edge" d="M 0 0 V -9.75694 H -34.5"/><g class="mut m4 s4" transform="translate(0 -8.80027)"><line x1="0" x2="0" y1="0" y2="8.80027"/><path class="sym" d="M -3,-3 l 6,6 M -3,3 l 6,-6"/><text class="lab rgt" transform="translate(5 0)">4</text></g><rect class="sym" height="6" width="6" x="-3" y="-3"/><text class="lab" transform="translate(0 11)">18</text></g><g class="a25 c2 node n24 p2" transform="translate(-34.5 3.9079)"><g class="a24 i1 leaf node n1 p1 sample" transform="translate(-23 5.84903)"><path class="edge" d="M 0 0 V -5.84903 H 23"/><rect class="sym" height="6" width="6" x="-3" y="-3"/><text class="lab" transform="translate(0 11)">1</text></g><g class="a24 i16 leaf node n16 p2 sample" transform="translate(23 5.84903)"><path class="edge" d="M 0 0 V -5.84903 H -23"/><rect class="sym" height="6" width="6" x="-3" y="-3"/><text class="lab" transform="translate(0 11)">16</text></g><path class="edge" d="M 0 0 V -3.9079 H 34.5"/><circle class="sym" cx="0" cy="0" r="3"/><text class="lab lft" transform="translate(-3 -7)">24</text></g><path class="edge" d="M 0 0 V -0.094301 H 40.25"/><circle class="sym" cx="0" cy="0" r="3"/><text class="lab lft" transform="translate(-3 -7)">25</text></g><path class="edge" d="M 0 0 V -4.5531 H 43.125"/><circle class="sym" cx="0" cy="0" r="3"/><text class="lab lft" transform="translate(-3 -7)">26</text></g><path class="edge" d="M 0 0 V -2.60043 H 44.5625"/><circle class="sym" cx="0" cy="0" r="3"/><text class="lab lft" transform="translate(-3 -7)">28</text></g><path class="edge" d="M 0 0 V -17.6493 H 45.2812"/><circle class="sym" cx="0" cy="0" r="3"/><text class="lab lft" transform="translate(-3 -7)">30</text></g><path class="edge" d="M 0 0 V -41.541 H -181.484"/><g class="mut m3 s3" transform="translate(0 -24.6459)"><line x1="0" x2="0" y1="0" y2="24.6459"/><path class="sym" d="M -3,-3 l 6,6 M -3,3 l 6,-6"/><text class="lab rgt" transform="translate(5 0)">3</text></g><circle class="sym" cx="0" cy="0" r="3"/><text class="lab rgt" transform="translate(3 -7)">31</text></g><path class="edge" d="M 0 0 V -218.405 H 230.539"/><circle class="sym" cx="0" cy="0" r="3"/><text class="lab lft" transform="translate(-3 -7)">35</text></g><g class="a38 c2 node n37 p2" transform="translate(230.539 169.788)"><g class="a37 c2 node n34 p1" transform="translate(-136.562 55.1392)"><g class="a34 i5 leaf node n5 p1 sample" transform="translate(-51.75 69.673)"><path class="edge" d="M 0 0 V -69.673 H 51.75"/><rect class="sym" height="6" width="6" x="-3" y="-3"/><text class="lab" transform="translate(0 11)">5</text></g><g class="a34 c2 node n27 p1" transform="translate(51.75 57.629)"><g class="a27 i14 leaf node n14 p2 sample" transform="translate(34.5 12.044)"><path class="edge" d="M 0 0 V -12.044 H -34.5"/><rect class="sym" height="6" width="6" x="-3" y="-3"/><text class="lab" transform="translate(0 11)">14</text></g><g class="a27 c2 node n21 p2" transform="translate(-34.5 9.21079)"><g class="a21 i8 leaf node n8 p1 sample" transform="translate(-23 2.83319)"><path class="edge" d="M 0 0 V -2.83319 H 23"/><rect class="sym" height="6" width="6" x="-3" y="-3"/><text class="lab" transform="translate(0 11)">8</text></g><g class="a21 i9 leaf node n9 p1 sample" transform="translate(23 2.83319)"><path class="edge" d="M 0 0 V -2.83319 H -23"/><rect class="sym" height="6" width="6" x="-3" y="-3"/><text class="lab" transform="translate(0 11)">9</text></g><path class="edge" d="M 0 0 V -9.21079 H 34.5"/><circle class="sym" cx="0" cy="0" r="3"/><text class="lab lft" transform="translate(-3 -7)">21</text></g><path class="edge" d="M 0 0 V -57.629 H -51.75"/><circle class="sym" cx="0" cy="0" r="3"/><text class="lab rgt" transform="translate(3 -7)">27</text></g><path class="edge" d="M 0 0 V -55.1392 H 136.562"/><circle class="sym" cx="0" cy="0" r="3"/><text class="lab lft" transform="translate(-3 -7)">34</text></g><g class="a37 c2 node n36 p2" transform="translate(136.562 22.0427)"><g class="a36 i13 leaf m0 node n13 p2 s0 sample" transform="translate(43.125 102.77)"><path class="edge" d="M 0 0 V -102.77 H -43.125"/><g class="mut m0 s0" transform="translate(0 -7.23275)"><line x1="0" x2="0" y1="0" y2="7.23275"/><path class="sym" d="M -3,-3 l 6,6 M -3,3 l 6,-6"/><text class="lab rgt" transform="translate(5 0)">0</text></g><rect class="sym" height="6" width="6" x="-3" y="-3"/><text class="lab" transform="translate(0 11)">13</text></g><g class="a36 c2 m1 node n33 p1 s1" transform="translate(-43.125 43.8057)"><g class="a33 i15 leaf node n15 p2 sample" transform="translate(40.25 58.9638)"><path class="edge" d="M 0 0 V -58.9638 H -40.25"/><rect class="sym" height="6" width="6" x="-3" y="-3"/><text class="lab" transform="translate(0 11)">15</text></g><g class="a33 c2 node n32 p1" transform="translate(-40.25 19.213)"><g class="a32 i17 leaf node n17 p2 sample" transform="translate(34.5 39.7508)"><path class="edge" d="M 0 0 V -39.7508 H -34.5"/><rect class="sym" height="6" width="6" x="-3" y="-3"/><text class="lab" transform="translate(0 11)">17</text></g><g class="a32 c2 node n29 p2" transform="translate(-34.5 23.2586)"><g class="a29 i7 leaf node n7 p1 sample" transform="translate(-23 16.4922)"><path class="edge" d="M 0 0 V -16.4922 H 23"/><rect class="sym" height="6" width="6" x="-3" y="-3"/><text class="lab" transform="translate(0 11)">7</text></g><g class="a29 i12 leaf node n12 p2 sample" transform="translate(23 16.4922)"><path class="edge" d="M 0 0 V -16.4922 H -23"/><rect class="sym" height="6" width="6" x="-3" y="-3"/><text class="lab" transform="translate(0 11)">12</text></g><path class="edge" d="M 0 0 V -23.2586 H 34.5"/><circle class="sym" cx="0" cy="0" r="3"/><text class="lab lft" transform="translate(-3 -7)">29</text></g><path class="edge" d="M 0 0 V -19.213 H 40.25"/><circle class="sym" cx="0" cy="0" r="3"/><text class="lab lft" transform="translate(-3 -7)">32</text></g><path class="edge" d="M 0 0 V -43.8057 H 43.125"/><g class="mut m1 s1" transform="translate(0 -25.8415)"><line x1="0" x2="0" y1="0" y2="25.8415"/><path class="sym" d="M -3,-3 l 6,6 M -3,3 l 6,-6"/><text class="lab lft" transform="translate(-5 0)">1</text></g><circle class="sym" cx="0" cy="0" r="3"/><text class="lab lft" transform="translate(-3 -7)">33</text></g><path class="edge" d="M 0 0 V -22.0427 H -136.562"/><circle class="sym" cx="0" cy="0" r="3"/><text class="lab rgt" transform="translate(3 -7)">36</text></g><path class="edge" d="M 0 0 V -169.788 H -230.539"/><circle class="sym" cx="0" cy="0" r="3"/><text class="lab rgt" transform="translate(3 -7)">37</text></g><circle class="sym" cx="0" cy="0" r="3"/><text class="lab" transform="translate(0 -11)">38</text></g></g></g></g></g></svg>