<svg baseProfile="full" height="400" version="1.1" width="1000" xmlns="http://www.w3.org/2000/svg" xmlns:ev="http://www.w3.org/2001/xml-events" xmlns:xlink="http://www.w3.org/1999/xlink"><defs><style type="text/css"><![CDATA[.background path {fill: #808080; fill-opacity: 0}.background path:nth-child(odd) {fill-opacity: .1}.x-regions rect {fill: yellow; stroke: black; opacity: 0.5}.axes {font-size: 14px}.x-axis .tick .lab {font-weight: bold; dominant-baseline: hanging}.axes, .tree {font-size: 14px; text-anchor: middle}.axes line, .edge {stroke: black; fill: none}.axes .ax-skip {stroke-dasharray: 4}.y-axis .grid {stroke: #FAFAFA}.node > .sym {fill: black; stroke: none}.site > .sym {stroke: black}.mut text {fill: red; font-style: italic}.mut.extra text {fill: hotpink}.mut line {fill: none; stroke: none}.mut .sym {fill: none; stroke: red}.mut.extra .sym {stroke: hotpink}.node .mut .sym {stroke-width: 1.5px}.tree text, .tree-sequence text {dominant-baseline: central}.plotbox .lab.lft {text-anchor: end}.plotbox .lab.rgt {text-anchor: start}.polytomy line {stroke: black; stroke-dasharray: 1px, 1px}.polytomy text {paint-order:stroke;stroke-width:0.3em;stroke:white}]]></style></defs><g class="tree-sequence"><g class="background"><path d="M20,0 l960,0 l0,338.2 l0,25 l0,5 l-960,0 l0,-5 l0,-25 l0,-338.2z"/></g><g class="axes"><g class="x-axis"><g class="title" transform="translate(500 400)"><text class="lab" text-anchor="middle" transform="translate(0 -11)">Genome position</text></g><line class="ax-line" x1="20" x2="980" y1="363.2" y2="363.2"/><g class="ticks"><g class="tick" transform="translate(20 363.2)"><line x1="0" x2="0" y1="0" y2="5"/><g transform="translate(0 6)"><text class="lab">0</text></g></g><g class="tick" transform="translate(980 363.2)"><line x1="0" x2="0" y1="0" y2="5"/><g transform="translate(0 6)"><text class="lab">1000</text></g></g></g><g class="site s0" transform="translate(276.32 363.2)"><line class="sym" x1="0" x2="0" y1="0" y2="-10"/><g class="mut m0"><polyline class="sym" points="2.5,-6.5 0,-1.5 -2.5,-6.5"/></g></g></g></g><g class="plotbox trees"><g class="tree t0" transform="translate(20 0)"><g class="plotbox"><g class="c2 node n38 p2 root" transform="translate(462.031 26.8)"><g class="a38 c2 node n35 p1" transform="translate(-309.062 256.956)"><g class="a35 i0 leaf node n0 p1 sample" transform="translate(-109.969 37.6444)"><path class="edge" d="M 0 0 V -37.6444 H 109.969"/><rect class="sym" height="6" width="6" x="-3" y="-3"/><text class="lab" transform="translate(0 11)">0</text></g><g class="a35 c2 node n33 p2" transform="translate(109.969 8.38818)"><g class="a33 i11 leaf node n11 p2 sample" transform="translate(56.0625 29.2563)"><path class="edge" d="M 0 0 V -29.2563 H -56.0625"/><rect class="sym" height="6" width="6" x="-3" y="-3"/><text class="lab" transform="translate(0 11)">11</text></g><g class="a33 c2 node n28 p1" transform="translate(-56.0625 17.7332)"><g class="a28 i10 leaf node n10 p2 sample" transform="translate(66.125 11.523)"><path class="edge" d="M 0 0 V -11.523 H -66.125"/><rect class="sym" height="6" width="6" x="-3" y="-3"/><text class="lab" transform="translate(0 11)">10</text></g><g class="a28 c2 node n27 p2" transform="translate(-66.125 2.06037)"><g class="a27 i3 leaf node n3 p1 sample" transform="translate(-51.75 9.46263)"><path class="edge" d="M 0 0 V -9.46263 H 51.75"/><rect class="sym" height="6" width="6" x="-3" y="-3"/><text class="lab" transform="translate(0 11)">3</text></g><g class="a27 c2 node n25 p1" transform="translate(51.75 1.40637)"><g class="a25 i17 leaf node n17 p2 sample" transform="translate(34.5 8.05626)"><path class="edge" d="M 0 0 V -8.05626 H -34.5"/><rect class="sym" height="6" width="6" x="-3" y="-3"/><text class="lab" transform="translate(0 11)">17</text></g><g class="a25 c2 node n24 p2" transform="translate(-34.5 0.781579)"><g class="a24 i6 leaf node n6 p1 sample" transform="translate(-23 7.27469)"><path class="edge" d="M 0 0 V -7.27469 H 23"/><rect class="sym" height="6" width="6" x="-3" y="-3"/><text class="lab" transform="translate(0 11)">6</text></g><g class="a24 i19 leaf node n19 p2 sample" transform="translate(23 7.27469)"><path class="edge" d="M 0 0 V -7.27469 H -23"/><rect class="sym" height="6" width="6" x="-3" y="-3"/><text class="lab" transform="translate(0 11)">19</text></g><path class="edge" d="M 0 0 V -0.781579 H 34.5"/><circle class="sym" cx="0" cy="0" r="3"/><text class="lab lft" transform="translate(-3 -7)">24</text></g><path class="edge" d="M 0 0 V -1.40637 H -51.75"/><circle class="sym" cx="0" cy="0" r="3"/><text class="lab rgt" transform="translate(3 -7)">25</text></g><path class="edge" d="M 0 0 V -2.06037 H 66.125"/><circle class="sym" cx="0" cy="0" r="3"/><text class="lab lft" transform="translate(-3 -7)">27</text></g><path class="edge" d="M 0 0 V -17.7332 H 56.0625"/><circle class="sym" cx="0" cy="0" r="3"/><text class="lab lft" transform="translate(-3 -7)">28</text></g><path class="edge" d="M 0 0 V -8.38818 H -109.969"/><circle class="sym" cx="0" cy="0" r="3"/><text class="lab rgt" transform="translate(3 -7)">33</text></g><path class="edge" d="M 0 0 V -256.956 H 309.062"/><circle class="sym" cx="0" cy="0" r="3"/><text class="lab lft" transform="translate(-3 -7)">35</text></g><g class="a38 c2 node n37 p1" transform="translate(309.062 181.174)"><g class="a37 i12 leaf node n12 p2 sample" transform="translate(145.906 113.426)"><path class="edge" d="M 0 0 V -113.426 H -145.906"/><rect class="sym" height="6" width="6" x="-3" y="-3"/><text class="lab" transform="translate(0 11)">12</text></g><g class="a37 c2 node n36 p1" transform="translate(-145.906 21.5733)"><g class="a36 c2 m0 node n30 p1 s0" transform="translate(74.75 75.5834)"><g class="a30 i4 leaf node n4 p1 sample" transform="translate(-58.9375 16.2694)"><path class="edge" d="M 0 0 V -16.2694 H 58.9375"/><rect class="sym" height="6" width="6" x="-3" y="-3"/><text class="lab" transform="translate(0 11)">4</text></g><g class="a30 c2 node n26 p2" transform="translate(58.9375 8.13818)"><g class="a26 i8 leaf node n8 p1 sample" transform="translate(-71.875 8.13119)"><path class="edge" d="M 0 0 V -8.13119 H 71.875"/><rect class="sym" height="6" width="6" x="-3" y="-3"/><text class="lab" transform="translate(0 11)">8</text></g><g class="a26 c2 node n22 p2" transform="translate(71.875 5.05111)"><g class="a22 i15 leaf node n15 p2 sample" transform="translate(40.25 3.08008)"><path class="edge" d="M 0 0 V -3.08008 H -40.25"/><rect class="sym" height="6" width="6" x="-3" y="-3"/><text class="lab" transform="translate(0 11)">15</text></g><g class="a22 c2 node n21 p2" transform="translate(-40.25 0.593752)"><g class="a21 i18 leaf node n18 p2 sample" transform="translate(34.5 2.48632)"><path class="edge" d="M 0 0 V -2.48632 H -34.5"/><rect class="sym" height="6" width="6" x="-3" y="-3"/><text class="lab" transform="translate(0 11)">18</text></g><g class="a21 c2 node n20 p2" transform="translate(-34.5 2.42573)"><g class="a20 i14 leaf node n14 p2 sample" transform="translate(-23 0.0605969)"><path class="edge" d="M 0 0 V -0.0605969 H 23"/><rect class="sym" height="6" width="6" x="-3" y="-3"/><text class="lab" transform="translate(0 11)">14</text></g><g class="a20 i16 leaf node n16 p2 sample" transform="translate(23 0.0605969)"><path class="edge" d="M 0 0 V -0.0605969 H -23"/><rect class="sym" height="6" width="6" x="-3" y="-3"/><text class="lab" transform="translate(0 11)">16</text></g><path class="edge" d="M 0 0 V -2.42573 H 34.5"/><circle class="sym" cx="0" cy="0" r="3"/><text class="lab lft" transform="translate(-3 -7)">20</text></g><path class="edge" d="M 0 0 V -0.593752 H 40.25"/><circle class="sym" cx="0" cy="0" r="3"/><text class="lab lft" transform="translate(-3 -7)">21</text></g><path class="edge" d="M 0 0 V -5.05111 H -71.875"/><circle class="sym" cx="0" cy="0" r="3"/><text class="lab rgt" transform="translate(3 -7)">22</text></g><path class="edge" d="M 0 0 V -8.13818 H -58.9375"/><circle class="sym" cx="0" cy="0" r="3"/><text class="lab rgt" transform="translate(3 -7)">26</text></g><path class="edge" d="M 0 0 V -75.5834 H -74.75"/><g class="mut m0 s0" transform="translate(0 -15.6566)"><line x1="0" x2="0" y1="0" y2="15.6566"/><path class="sym" d="M -3,-3 l 6,6 M -3,3 l 6,-6"/><text class="lab rgt" transform="translate(5 0)">0</text></g><circle class="sym" cx="0" cy="0" r="3"/><text class="lab rgt" transform="translate(3 -7)">30</text></g><g class="a36 c2 node n34 p1" transform="translate(-74.75 58.8086)"><g class="a34 i13 leaf node n13 p2 sample" transform="translate(44.5625 33.0441)"><path class="edge" d="M 0 0 V -33.0441 H -44.5625"/><rect class="sym" height="6" width="6" x="-3" y="-3"/><text class="lab" transform="translate(0 11)">13</text></g><g class="a34 c2 node n32 p1" transform="translate(-44.5625 8.50945)"><g class="a32 i7 leaf node n7 p1 sample" transform="translate(43.125 24.5347)"><path class="edge" d="M 0 0 V -24.5347 H -43.125"/><rect class="sym" height="6" width="6" x="-3" y="-3"/><text class="lab" transform="translate(0 11)">7</text></g><g class="a32 c2 node n31 p1" transform="translate(-43.125 4.56884)"><g class="a31 i9 leaf node n9 p1 sample" transform="translate(40.25 19.9658)"><path class="edge" d="M 0 0 V -19.9658 H -40.25"/><rect class="sym" height="6" width="6" x="-3" y="-3"/><text class="lab" transform="translate(0 11)">9</text></g><g class="a31 c2 node n29 p2" transform="translate(-40.25 8.30857)"><g class="a29 i5 leaf node n5 p1 sample" transform="translate(34.5 11.6573)"><path class="edge" d="M 0 0 V -11.6573 H -34.5"/><rect class="sym" height="6" width="6" x="-3" y="-3"/><text class="lab" transform="translate(0 11)">5</text></g><g class="a29 c2 node n23 p2" transform="translate(-34.5 6.39096)"><g class="a23 i1 leaf node n1 p1 sample" transform="translate(-23 5.2663)"><path class="edge" d="M 0 0 V -5.2663 H 23"/><rect class="sym" height="6" width="6" x="-3" y="-3"/><text class="lab" transform="translate(0 11)">1</text></g><g class="a23 i2 leaf node n2 p1 sample" transform="translate(23 5.2663)"><path class="edge" d="M 0 0 V -5.2663 H -23"/><rect class="sym" height="6" width="6" x="-3" y="-3"/><text class="lab" transform="translate(0 11)">2</text></g><path class="edge" d="M 0 0 V -6.39096 H 34.5"/><circle class="sym" cx="0" cy="0" r="3"/><text class="lab lft" transform="translate(-3 -7)">23</text></g><path class="edge" d="M 0 0 V -8.30857 H 40.25"/><circle class="sym" cx="0" cy="0" r="3"/><text class="lab lft" transform="translate(-3 -7)">29</text></g><path class="edge" d="M 0 0 V -4.56884 H 43.125"/><circle class="sym" cx="0" cy="0" r="3"/><text class="lab lft" transform="translate(-3 -7)">31</text></g><path class="edge" d="M 0 0 V -8.50945 H 44.5625"/><circle class="sym" cx="0" cy="0" r="3"/><text class="lab lft" transform="translate(-3 -7)">32</text></g><path class="edge" d="M 0 0 V -58.8086 H 74.75"/><circle class="sym" cx="0" cy="0" r="3"/><text class="lab lft" transform="translate(-3 -7)">34</text></g><path class="edge" d="M 0 0 V -21.5733 H 145.906"/><circle class="sym" cx="0" cy="0" r="3"/><text class="lab lft" transform="translate(-3 -7)">36</text></g><path class="edge" d="M 0 0 V -181.174 H -309.062"/><circle class="sym" cx="0" cy="0" r="3"/><text class="lab rgt" transform="translate(3 -7)">37</text></g><circle class="sym" cx="0" cy="0" r="3"/><text class="lab" transform="translate(0 -11)">38</text></g></g></g></g></g></svg>