<svg baseProfile="full" height="400" version="1.1" width="1000" xmlns="http://www.w3.org/2000/svg" xmlns:ev="http://www.w3.org/2001/xml-events" xmlns:xlink="http://www.w3.org/1999/xlink"><defs><style type="text/css"><![CDATA[.background path {fill: #808080; fill-opacity: 0}.background path:nth-child(odd) {fill-opacity: .1}.x-regions rect {fill: yellow; stroke: black; opacity: 0.5}.axes {font-size: 14px}.x-axis .tick .lab {font-weight: bold; dominant-baseline: hanging}.axes, .tree {font-size: 14px; text-anchor: middle}.axes line, .edge {stroke: black; fill: none}.axes .ax-skip {stroke-dasharray: 4}.y-axis .grid {stroke: #FAFAFA}.node > .sym {fill: black; stroke: none}.site > .sym {stroke: black}.mut text {fill: red; font-style: italic}.mut.extra text {fill: hotpink}.mut line {fill: none; stroke: none}.mut .sym {fill: none; stroke: red}.mut.extra .sym {stroke: hotpink}.node .mut .sym {stroke-width: 1.5px}.tree text, .tree-sequence text {dominant-baseline: central}.plotbox .lab.lft {text-anchor: end}.plotbox .lab.rgt {text-anchor: start}.polytomy line {stroke: black; stroke-dasharray: 1px, 1px}.polytomy text {paint-order:stroke;stroke-width:0.3em;stroke:white}]]></style></defs><g class="tree-sequence"><g class="background"><path d="M20,0 l960,0 l0,338.2 l0,25 l0,5 l-960,0 l0,-5 l0,-25 l0,-338.2z"/></g><g class="axes"><g class="x-axis"><g class="title" transform="translate(500 400)"><text class="lab" text-anchor="middle" transform="translate(0 -11)">Genome position</text></g><line class="ax-line" x1="20" x2="980" y1="363.2" y2="363.2"/><g class="ticks"><g class="tick" transform="translate(20 363.2)"><line x1="0" x2="0" y1="0" y2="5"/><g transform="translate(0 6)"><text class="lab">0</text></g></g><g class="tick" transform="translate(980 363.2)"><line x1="0" x2="0" y1="0" y2="5"/><g transform="translate(0 6)"><text class="lab">1000</text></g></g></g><g class="site s0" transform="translate(326.24 363.2)"><line class="sym" x1="0" x2="0" y1="0" y2="-10"/><g class="mut m0"><polyline class="sym" points="2.5,-6.5 0,-1.5 -2.5,-6.5"/></g></g><g class="site s1" transform="translate(593.12 363.2)"><line class="sym" x1="0" x2="0" y1="0" y2="-10"/><g class="mut m1"><polyline class="sym" points="2.5,-6.5 0,-1.5 -2.5,-6.5"/></g></g><g class="site s2" transform="translate(923.36 363.2)"><line class="sym" x1="0" x2="0" y1="0" y2="-10"/><g class="mut m2"><polyline class="sym" points="2.5,-6.5 0,-1.5 -2.5,-6.5"/></g></g></g></g><g class="plotbox trees"><g class="tree t0" transform="translate(20 0)"><g class="plotbox"><g class="c2 node n38 p2 root" transform="translate(635.969 26.8)"><g class="a38 c2 node n36 p1" transform="translate(-203.406 238.062)"><g class="a36 c2 node n33 p1" transform="translate(168.188 36.6706)"><g class="a33 i17 leaf node n17 p2 sample" transform="translate(40.25 19.8672)"><path class="edge" d="M 0 0 V -19.8672 H -40.25"/><rect class="sym" height="6" width="6" x="-3" y="-3"/><text class="lab" transform="translate(0 11)">17</text></g><g class="a33 c2 node n30 p1" transform="translate(-40.25 3.74848)"><g class="a30 i13 leaf node n13 p2 sample" transform="translate(34.5 16.1188)"><path class="edge" d="M 0 0 V -16.1188 H -34.5"/><rect class="sym" height="6" width="6" x="-3" y="-3"/><text class="lab" transform="translate(0 11)">13</text></g><g class="a30 c2 node n27 p2" transform="translate(-34.5 8.99001)"><g class="a27 i3 leaf node n3 p1 sample" transform="translate(-23 7.12875)"><path class="edge" d="M 0 0 V -7.12875 H 23"/><rect class="sym" height="6" width="6" x="-3" y="-3"/><text class="lab" transform="translate(0 11)">3</text></g><g class="a27 i14 leaf node n14 p2 sample" transform="translate(23 7.12875)"><path class="edge" d="M 0 0 V -7.12875 H -23"/><rect class="sym" height="6" width="6" x="-3" y="-3"/><text class="lab" transform="translate(0 11)">14</text></g><path class="edge" d="M 0 0 V -8.99001 H 34.5"/><circle class="sym" cx="0" cy="0" r="3"/><text class="lab lft" transform="translate(-3 -7)">27</text></g><path class="edge" d="M 0 0 V -3.74848 H 40.25"/><circle class="sym" cx="0" cy="0" r="3"/><text class="lab lft" transform="translate(-3 -7)">30</text></g><path class="edge" d="M 0 0 V -36.6706 H -168.188"/><circle class="sym" cx="0" cy="0" r="3"/><text class="lab rgt" transform="translate(3 -7)">33</text></g><g class="a36 c2 node n34 p2" transform="translate(-168.188 12.1282)"><g class="a34 c2 m0 node n31 p1 s0" transform="translate(94.875 27.1711)"><g class="a31 c2 node n24 p1" transform="translate(-63.25 12.1195)"><g class="a24 i2 leaf node n2 p1 sample" transform="translate(-23 5.11911)"><path class="edge" d="M 0 0 V -5.11911 H 23"/><rect class="sym" height="6" width="6" x="-3" y="-3"/><text class="lab" transform="translate(0 11)">2</text></g><g class="a24 i7 leaf node n7 p1 sample" transform="translate(23 5.11911)"><path class="edge" d="M 0 0 V -5.11911 H -23"/><rect class="sym" height="6" width="6" x="-3" y="-3"/><text class="lab" transform="translate(0 11)">7</text></g><path class="edge" d="M 0 0 V -12.1195 H 63.25"/><circle class="sym" cx="0" cy="0" r="3"/><text class="lab lft" transform="translate(-3 -7)">24</text></g><g class="a31 c2 node n29 p1" transform="translate(63.25 2.88191)"><g class="a29 i18 leaf node n18 p2 sample" transform="translate(34.5 14.3567)"><path class="edge" d="M 0 0 V -14.3567 H -34.5"/><rect class="sym" height="6" width="6" x="-3" y="-3"/><text class="lab" transform="translate(0 11)">18</text></g><g class="a29 c2 node n22 p2" transform="translate(-34.5 11.3883)"><g class="a22 i4 leaf node n4 p1 sample" transform="translate(-23 2.96839)"><path class="edge" d="M 0 0 V -2.96839 H 23"/><rect class="sym" height="6" width="6" x="-3" y="-3"/><text class="lab" transform="translate(0 11)">4</text></g><g class="a22 i6 leaf node n6 p1 sample" transform="translate(23 2.96839)"><path class="edge" d="M 0 0 V -2.96839 H -23"/><rect class="sym" height="6" width="6" x="-3" y="-3"/><text class="lab" transform="translate(0 11)">6</text></g><path class="edge" d="M 0 0 V -11.3883 H 34.5"/><circle class="sym" cx="0" cy="0" r="3"/><text class="lab lft" transform="translate(-3 -7)">22</text></g><path class="edge" d="M 0 0 V -2.88191 H -63.25"/><circle class="sym" cx="0" cy="0" r="3"/><text class="lab rgt" transform="translate(3 -7)">29</text></g><path class="edge" d="M 0 0 V -27.1711 H -94.875"/><g class="mut m0 s0" transform="translate(0 -0.939078)"><line x1="0" x2="0" y1="0" y2="0.939078"/><path class="sym" d="M -3,-3 l 6,6 M -3,3 l 6,-6"/><text class="lab rgt" transform="translate(5 0)">0</text></g><circle class="sym" cx="0" cy="0" r="3"/><text class="lab rgt" transform="translate(3 -7)">31</text></g><g class="a34 c2 node n32 p2" transform="translate(-94.875 25.3966)"><g class="a32 i10 leaf node n10 p2 sample" transform="translate(57.5 19.0131)"><path class="edge" d="M 0 0 V -19.0131 H -57.5"/><rect class="sym" height="6" width="6" x="-3" y="-3"/><text class="lab" transform="translate(0 11)">10</text></g><g class="a32 c2 m2 node n28 p2 s2" transform="translate(-57.5 9.32123)"><g class="a28 c2 node n20 p2" transform="translate(-46 7.64492)"><g class="a20 i0 leaf node n0 p1 sample" transform="translate(-23 2.04697)"><path class="edge" d="M 0 0 V -2.04697 H 23"/><rect class="sym" height="6" width="6" x="-3" y="-3"/><text class="lab" transform="translate(0 11)">0</text></g><g class="a20 i19 leaf node n19 p2 sample" transform="translate(23 2.04697)"><path class="edge" d="M 0 0 V -2.04697 H -23"/><rect class="sym" height="6" width="6" x="-3" y="-3"/><text class="lab" transform="translate(0 11)">19</text></g><path class="edge" d="M 0 0 V -7.64492 H 46"/><circle class="sym" cx="0" cy="0" r="3"/><text class="lab lft" transform="translate(-3 -7)">20</text></g><g class="a28 c2 node n26 p1" transform="translate(46 3.25189)"><g class="a26 i12 leaf node n12 p2 sample" transform="translate(-23 6.44)"><path class="edge" d="M 0 0 V -6.44 H 23"/><rect class="sym" height="6" width="6" x="-3" y="-3"/><text class="lab" transform="translate(0 11)">12</text></g><g class="a26 i15 leaf node n15 p2 sample" transform="translate(23 6.44)"><path class="edge" d="M 0 0 V -6.44 H -23"/><rect class="sym" height="6" width="6" x="-3" y="-3"/><text class="lab" transform="translate(0 11)">15</text></g><path class="edge" d="M 0 0 V -3.25189 H -46"/><circle class="sym" cx="0" cy="0" r="3"/><text class="lab rgt" transform="translate(3 -7)">26</text></g><path class="edge" d="M 0 0 V -9.32123 H 57.5"/><g class="mut m2 s2" transform="translate(0 -4.57205)"><line x1="0" x2="0" y1="0" y2="4.57205"/><path class="sym" d="M -3,-3 l 6,6 M -3,3 l 6,-6"/><text class="lab lft" transform="translate(-5 0)">2</text></g><circle class="sym" cx="0" cy="0" r="3"/><text class="lab lft" transform="translate(-3 -7)">28</text></g><path class="edge" d="M 0 0 V -25.3966 H 94.875"/><circle class="sym" cx="0" cy="0" r="3"/><text class="lab lft" transform="translate(-3 -7)">32</text></g><path class="edge" d="M 0 0 V -12.1282 H 168.188"/><circle class="sym" cx="0" cy="0" r="3"/><text class="lab lft" transform="translate(-3 -7)">34</text></g><path class="edge" d="M 0 0 V -238.062 H 203.406"/><circle class="sym" cx="0" cy="0" r="3"/><text class="lab lft" transform="translate(-3 -7)">36</text></g><g class="a38 c2 node n37 p2" transform="translate(203.406 212.693)"><g class="a37 i16 leaf node n16 p2 sample" transform="translate(77.625 81.9069)"><path class="edge" d="M 0 0 V -81.9069 H -77.625"/><rect class="sym" height="6" width="6" x="-3" y="-3"/><text class="lab" transform="translate(0 11)">16</text></g><g class="a37 c2 m1 node n35 p2 s1" transform="translate(-77.625 33.556)"><g class="a35 c2 node n23 p2" transform="translate(-51.75 44.4611)"><g class="a23 i1 leaf node n1 p1 sample" transform="translate(-23 3.88972)"><path class="edge" d="M 0 0 V -3.88972 H 23"/><rect class="sym" height="6" width="6" x="-3" y="-3"/><text class="lab" transform="translate(0 11)">1</text></g><g class="a23 i11 leaf node n11 p2 sample" transform="translate(23 3.88972)"><path class="edge" d="M 0 0 V -3.88972 H -23"/><rect class="sym" height="6" width="6" x="-3" y="-3"/><text class="lab" transform="translate(0 11)">11</text></g><path class="edge" d="M 0 0 V -44.4611 H 51.75"/><circle class="sym" cx="0" cy="0" r="3"/><text class="lab lft" transform="translate(-3 -7)">23</text></g><g class="a35 c2 node n25 p1" transform="translate(51.75 42.5575)"><g class="a25 i5 leaf node n5 p1 sample" transform="translate(-34.5 5.79337)"><path class="edge" d="M 0 0 V -5.79337 H 34.5"/><rect class="sym" height="6" width="6" x="-3" y="-3"/><text class="lab" transform="translate(0 11)">5</text></g><g class="a25 c2 node n21 p2" transform="translate(34.5 3.46351)"><g class="a21 i8 leaf node n8 p1 sample" transform="translate(-23 2.32987)"><path class="edge" d="M 0 0 V -2.32987 H 23"/><rect class="sym" height="6" width="6" x="-3" y="-3"/><text class="lab" transform="translate(0 11)">8</text></g><g class="a21 i9 leaf node n9 p1 sample" transform="translate(23 2.32987)"><path class="edge" d="M 0 0 V -2.32987 H -23"/><rect class="sym" height="6" width="6" x="-3" y="-3"/><text class="lab" transform="translate(0 11)">9</text></g><path class="edge" d="M 0 0 V -3.46351 H -34.5"/><circle class="sym" cx="0" cy="0" r="3"/><text class="lab rgt" transform="translate(3 -7)">21</text></g><path class="edge" d="M 0 0 V -42.5575 H -51.75"/><circle class="sym" cx="0" cy="0" r="3"/><text class="lab rgt" transform="translate(3 -7)">25</text></g><path class="edge" d="M 0 0 V -33.556 H 77.625"/><g class="mut m1 s1" transform="translate(0 -8.05933)"><line x1="0" x2="0" y1="0" y2="8.05933"/><path class="sym" d="M -3,-3 l 6,6 M -3,3 l 6,-6"/><text class="lab lft" transform="translate(-5 0)">1</text></g><circle class="sym" cx="0" cy="0" r="3"/><text class="lab lft" transform="translate(-3 -7)">35</text></g><path class="edge" d="M 0 0 V -212.693 H -203.406"/><circle class="sym" cx="0" cy="0" r="3"/><text class="lab rgt" transform="translate(3 -7)">37</text></g><circle class="sym" cx="0" cy="0" r="3"/><text class="lab" transform="translate(0 -11)">38</text></g></g></g></g></g></svg>