<svg baseProfile="full" height="400" version="1.1" width="1000" xmlns="http://www.w3.org/2000/svg" xmlns:ev="http://www.w3.org/2001/xml-events" xmlns:xlink="http://www.w3.org/1999/xlink"><defs><style type="text/css"><![CDATA[.background path {fill: #808080; fill-opacity: 0}.background path:nth-child(odd) {fill-opacity: .1}.x-regions rect {fill: yellow; stroke: black; opacity: 0.5}.axes {font-size: 14px}.x-axis .tick .lab {font-weight: bold; dominant-baseline: hanging}.axes, .tree {font-size: 14px; text-anchor: middle}.axes line, .edge {stroke: black; fill: none}.axes .ax-skip {stroke-dasharray: 4}.y-axis .grid {stroke: #FAFAFA}.node > .sym {fill: black; stroke: none}.site > .sym {stroke: black}.mut text {fill: red; font-style: italic}.mut.extra text {fill: hotpink}.mut line {fill: none; stroke: none}.mut .sym {fill: none; stroke: red}.mut.extra .sym {stroke: hotpink}.node .mut .sym {stroke-width: 1.5px}.tree text, .tree-sequence text {dominant-baseline: central}.plotbox .lab.lft {text-anchor: end}.plotbox .lab.rgt {text-anchor: start}.polytomy line {stroke: black; stroke-dasharray: 1px, 1px}.polytomy text {paint-order:stroke;stroke-width:0.3em;stroke:white}]]></style></defs><g class="tree-sequence"><g class="background"><path d="M20,0 l960,0 l0,338.2 l0,25 l0,5 l-960,0 l0,-5 l0,-25 l0,-338.2z"/></g><g class="axes"><g class="x-axis"><g class="title" transform="translate(500 400)"><text class="lab" text-anchor="middle" transform="translate(0 -11)">Genome position</text></g><line class="ax-line" x1="20" x2="980" y1="363.2" y2="363.2"/><g class="ticks"><g class="tick" transform="translate(20 363.2)"><line x1="0" x2="0" y1="0" y2="5"/><g transform="translate(0 6)"><text class="lab">0</text></g></g><g class="tick" transform="translate(980 363.2)"><line x1="0" x2="0" y1="0" y2="5"/><g transform="translate(0 6)"><text class="lab">1000</text></g></g></g><g class="site s0" transform="translate(102.56 363.2)"><line class="sym" x1="0" x2="0" y1="0" y2="-10"/><g class="mut m0"><polyline class="sym" points="2.5,-6.5 0,-1.5 -2.5,-6.5"/></g></g><g class="site s1" transform="translate(672.8 363.2)"><line class="sym" x1="0" x2="0" y1="0" y2="-10"/><g class="mut m1"><polyline class="sym" points="2.5,-6.5 0,-1.5 -2.5,-6.5"/></g></g><g class="site s2" transform="translate(728.48 363.2)"><line class="sym" x1="0" x2="0" y1="0" y2="-10"/><g class="mut m2"><polyline class="sym" points="2.5,-6.5 0,-1.5 -2.5,-6.5"/></g></g><g class="site s3" transform="translate(894.56 363.2)"><line class="sym" x1="0" x2="0" y1="0" y2="-10"/><g class="mut m3"><polyline class="sym" points="2.5,-6.5 0,-1.5 -2.5,-6.5"/></g></g><g class="site s4" transform="translate(918.56 363.2)"><line class="sym" x1="0" x2="0" y1="0" y2="-10"/><g class="mut m4"><polyline class="sym" points="2.5,-6.5 0,-1.5 -2.5,-6.5"/></g></g></g></g><g class="plotbox trees"><g class="tree t0" transform="translate(20 0)"><g class="plotbox"><g class="c2 node n38 p0 root" transform="translate(625.277 26.8)"><g class="a38 c2 m4 node n36 p0 s4" transform="translate(-205.473 159.195)"><g class="a36 c2 m2 node n32 p1 s2" transform="translate(-152.195 74.8393)"><g class="a32 c2 node n27 p2" transform="translate(-172.859 30.6741)"><g class="a27 i0 leaf node n0 p1 sample" transform="translate(-51.75 29.8913)"><path class="edge" d="M 0 0 V -29.8913 H 51.75"/><rect class="sym" height="6" width="6" x="-3" y="-3"/><text class="lab" transform="translate(0 11)">0</text></g><g class="a27 c2 node n24 p2" transform="translate(51.75 19.9292)"><g class="a24 i8 leaf node n8 p1 sample" transform="translate(34.5 9.96209)"><path class="edge" d="M 0 0 V -9.96209 H -34.5"/><rect class="sym" height="6" width="6" x="-3" y="-3"/><text class="lab" transform="translate(0 11)">8</text></g><g class="a24 c2 node n23 p1" transform="translate(-34.5 1.24934)"><g class="a23 i3 leaf node n3 p1 sample" transform="translate(-23 8.71275)"><path class="edge" d="M 0 0 V -8.71275 H 23"/><rect class="sym" height="6" width="6" x="-3" y="-3"/><text class="lab" transform="translate(0 11)">3</text></g><g class="a23 i14 leaf node n14 p2 sample" transform="translate(23 8.71275)"><path class="edge" d="M 0 0 V -8.71275 H -23"/><rect class="sym" height="6" width="6" x="-3" y="-3"/><text class="lab" transform="translate(0 11)">14</text></g><path class="edge" d="M 0 0 V -1.24934 H 34.5"/><circle class="sym" cx="0" cy="0" r="3"/><text class="lab lft" transform="translate(-3 -7)">23</text></g><path class="edge" d="M 0 0 V -19.9292 H -51.75"/><circle class="sym" cx="0" cy="0" r="3"/><text class="lab rgt" transform="translate(3 -7)">24</text></g><path class="edge" d="M 0 0 V -30.6741 H 172.859"/><circle class="sym" cx="0" cy="0" r="3"/><text class="lab lft" transform="translate(-3 -7)">27</text></g><g class="a32 c2 node n31 p2" transform="translate(172.859 9.69927)"><g class="a31 i5 leaf node n5 p1 sample" transform="translate(62.5312 50.8661)"><path class="edge" d="M 0 0 V -50.8661 H -62.5312"/><rect class="sym" height="6" width="6" x="-3" y="-3"/><text class="lab" transform="translate(0 11)">5</text></g><g class="a31 c2 node n30 p1" transform="translate(-62.5312 8.41415)"><g class="a30 i2 leaf m3 node n2 p1 s3 sample" transform="translate(79.0625 42.452)"><path class="edge" d="M 0 0 V -42.452 H -79.0625"/><g class="mut m3 s3" transform="translate(0 -5.4974)"><line x1="0" x2="0" y1="0" y2="5.4974"/><path class="sym" d="M -3,-3 l 6,6 M -3,3 l 6,-6"/><text class="lab rgt" transform="translate(5 0)">3</text></g><rect class="sym" height="6" width="6" x="-3" y="-3"/><text class="lab" transform="translate(0 11)">2</text></g><g class="a30 c2 node n28 p1" transform="translate(-79.0625 11.9462)"><g class="a28 i1 leaf node n1 p1 sample" transform="translate(-71.875 30.5057)"><path class="edge" d="M 0 0 V -30.5057 H 71.875"/><rect class="sym" height="6" width="6" x="-3" y="-3"/><text class="lab" transform="translate(0 11)">1</text></g><g class="a28 c2 node n26 p1" transform="translate(71.875 5.94115)"><g class="a26 i11 leaf node n11 p2 sample" transform="translate(40.25 24.5646)"><path class="edge" d="M 0 0 V -24.5646 H -40.25"/><rect class="sym" height="6" width="6" x="-3" y="-3"/><text class="lab" transform="translate(0 11)">11</text></g><g class="a26 c2 node n22 p2" transform="translate(-40.25 17.2499)"><g class="a22 i16 leaf node n16 p2 sample" transform="translate(34.5 7.31468)"><path class="edge" d="M 0 0 V -7.31468 H -34.5"/><rect class="sym" height="6" width="6" x="-3" y="-3"/><text class="lab" transform="translate(0 11)">16</text></g><g class="a22 c2 node n21 p2" transform="translate(-34.5 4.58055)"><g class="a21 i6 leaf node n6 p1 sample" transform="translate(-23 2.73413)"><path class="edge" d="M 0 0 V -2.73413 H 23"/><rect class="sym" height="6" width="6" x="-3" y="-3"/><text class="lab" transform="translate(0 11)">6</text></g><g class="a21 i9 leaf node n9 p1 sample" transform="translate(23 2.73413)"><path class="edge" d="M 0 0 V -2.73413 H -23"/><rect class="sym" height="6" width="6" x="-3" y="-3"/><text class="lab" transform="translate(0 11)">9</text></g><path class="edge" d="M 0 0 V -4.58055 H 34.5"/><circle class="sym" cx="0" cy="0" r="3"/><text class="lab lft" transform="translate(-3 -7)">21</text></g><path class="edge" d="M 0 0 V -17.2499 H 40.25"/><circle class="sym" cx="0" cy="0" r="3"/><text class="lab lft" transform="translate(-3 -7)">22</text></g><path class="edge" d="M 0 0 V -5.94115 H -71.875"/><circle class="sym" cx="0" cy="0" r="3"/><text class="lab rgt" transform="translate(3 -7)">26</text></g><path class="edge" d="M 0 0 V -11.9462 H 79.0625"/><circle class="sym" cx="0" cy="0" r="3"/><text class="lab lft" transform="translate(-3 -7)">28</text></g><path class="edge" d="M 0 0 V -8.41415 H 62.5312"/><circle class="sym" cx="0" cy="0" r="3"/><text class="lab lft" transform="translate(-3 -7)">30</text></g><path class="edge" d="M 0 0 V -9.69927 H -172.859"/><circle class="sym" cx="0" cy="0" r="3"/><text class="lab rgt" transform="translate(3 -7)">31</text></g><path class="edge" d="M 0 0 V -74.8393 H 152.195"/><g class="mut m2 s2" transform="translate(0 -23.7384)"><line x1="0" x2="0" y1="0" y2="23.7384"/><path class="sym" d="M -3,-3 l 6,6 M -3,3 l 6,-6"/><text class="lab lft" transform="translate(-5 0)">2</text></g><circle class="sym" cx="0" cy="0" r="3"/><text class="lab lft" transform="translate(-3 -7)">32</text></g><g class="a36 c2 node n35 p1" transform="translate(152.195 4.91673)"><g class="a35 i12 leaf node n12 p2 sample" transform="translate(-23 130.488)"><path class="edge" d="M 0 0 V -130.488 H 23"/><rect class="sym" height="6" width="6" x="-3" y="-3"/><text class="lab" transform="translate(0 11)">12</text></g><g class="a35 i17 leaf node n17 p2 sample" transform="translate(23 130.488)"><path class="edge" d="M 0 0 V -130.488 H -23"/><rect class="sym" height="6" width="6" x="-3" y="-3"/><text class="lab" transform="translate(0 11)">17</text></g><path class="edge" d="M 0 0 V -4.91673 H -152.195"/><circle class="sym" cx="0" cy="0" r="3"/><text class="lab rgt" transform="translate(3 -7)">35</text></g><path class="edge" d="M 0 0 V -159.195 H 205.473"/><g class="mut m4 s4" transform="translate(0 -95.9814)"><line x1="0" x2="0" y1="0" y2="95.9814"/><path class="sym" d="M -3,-3 l 6,6 M -3,3 l 6,-6"/><text class="lab lft" transform="translate(-5 0)">4</text></g><circle class="sym" cx="0" cy="0" r="3"/><text class="lab lft" transform="translate(-3 -7)">36</text></g><g class="a38 c2 node n37 p0" transform="translate(205.473 84.3304)"><g class="a37 c2 m1 node n29 p2 s1" transform="translate(63.25 177.001)"><g class="a29 i7 leaf node n7 p1 sample" transform="translate(-23 33.2683)"><path class="edge" d="M 0 0 V -33.2683 H 23"/><rect class="sym" height="6" width="6" x="-3" y="-3"/><text class="lab" transform="translate(0 11)">7</text></g><g class="a29 i10 leaf node n10 p2 sample" transform="translate(23 33.2683)"><path class="edge" d="M 0 0 V -33.2683 H -23"/><rect class="sym" height="6" width="6" x="-3" y="-3"/><text class="lab" transform="translate(0 11)">10</text></g><path class="edge" d="M 0 0 V -177.001 H -63.25"/><g class="mut m1 s1" transform="translate(0 -92.1555)"><line x1="0" x2="0" y1="0" y2="92.1555"/><path class="sym" d="M -3,-3 l 6,6 M -3,3 l 6,-6"/><text class="lab rgt" transform="translate(5 0)">1</text></g><circle class="sym" cx="0" cy="0" r="3"/><text class="lab rgt" transform="translate(3 -7)">29</text></g><g class="a37 c2 node n34 p1" transform="translate(-63.25 110.73)"><g class="a34 i19 leaf node n19 p2 sample" transform="translate(57.5 99.5393)"><path class="edge" d="M 0 0 V -99.5393 H -57.5"/><rect class="sym" height="6" width="6" x="-3" y="-3"/><text class="lab" transform="translate(0 11)">19</text></g><g class="a34 c2 node n33 p2" transform="translate(-57.5 23.6366)"><g class="a33 c2 m0 node n20 p1 s0" transform="translate(46 73.3616)"><g class="a20 i15 leaf node n15 p2 sample" transform="translate(-23 2.54108)"><path class="edge" d="M 0 0 V -2.54108 H 23"/><rect class="sym" height="6" width="6" x="-3" y="-3"/><text class="lab" transform="translate(0 11)">15</text></g><g class="a20 i18 leaf node n18 p2 sample" transform="translate(23 2.54108)"><path class="edge" d="M 0 0 V -2.54108 H -23"/><rect class="sym" height="6" width="6" x="-3" y="-3"/><text class="lab" transform="translate(0 11)">18</text></g><path class="edge" d="M 0 0 V -73.3616 H -46"/><g class="mut m0 s0" transform="translate(0 -1.42063)"><line x1="0" x2="0" y1="0" y2="1.42063"/><path class="sym" d="M -3,-3 l 6,6 M -3,3 l 6,-6"/><text class="lab rgt" transform="translate(5 0)">0</text></g><circle class="sym" cx="0" cy="0" r="3"/><text class="lab rgt" transform="translate(3 -7)">20</text></g><g class="a33 c2 node n25 p1" transform="translate(-46 54.3272)"><g class="a25 i4 leaf node n4 p1 sample" transform="translate(-23 21.5755)"><path class="edge" d="M 0 0 V -21.5755 H 23"/><rect class="sym" height="6" width="6" x="-3" y="-3"/><text class="lab" transform="translate(0 11)">4</text></g><g class="a25 i13 leaf node n13 p2 sample" transform="translate(23 21.5755)"><path class="edge" d="M 0 0 V -21.5755 H -23"/><rect class="sym" height="6" width="6" x="-3" y="-3"/><text class="lab" transform="translate(0 11)">13</text></g><path class="edge" d="M 0 0 V -54.3272 H 46"/><circle class="sym" cx="0" cy="0" r="3"/><text class="lab lft" transform="translate(-3 -7)">25</text></g><path class="edge" d="M 0 0 V -23.6366 H 57.5"/><circle class="sym" cx="0" cy="0" r="3"/><text class="lab lft" transform="translate(-3 -7)">33</text></g><path class="edge" d="M 0 0 V -110.73 H 63.25"/><circle class="sym" cx="0" cy="0" r="3"/><text class="lab lft" transform="translate(-3 -7)">34</text></g><path class="edge" d="M 0 0 V -84.3304 H -205.473"/><circle class="sym" cx="0" cy="0" r="3"/><text class="lab rgt" transform="translate(3 -7)">37</text></g><circle class="sym" cx="0" cy="0" r="3"/><text class="lab" transform="translate(0 -11)">38</text></g></g></g></g></g></svg>