<svg baseProfile="full" height="400" version="1.1" width="1000" xmlns="http://www.w3.org/2000/svg" xmlns:ev="http://www.w3.org/2001/xml-events" xmlns:xlink="http://www.w3.org/1999/xlink"><defs><style type="text/css"><![CDATA[.background path {fill: #808080; fill-opacity: 0}.background path:nth-child(odd) {fill-opacity: .1}.x-regions rect {fill: yellow; stroke: black; opacity: 0.5}.axes {font-size: 14px}.x-axis .tick .lab {font-weight: bold; dominant-baseline: hanging}.axes, .tree {font-size: 14px; text-anchor: middle}.axes line, .edge {stroke: black; fill: none}.axes .ax-skip {stroke-dasharray: 4}.y-axis .grid {stroke: #FAFAFA}.node > .sym {fill: black; stroke: none}.site > .sym {stroke: black}.mut text {fill: red; font-style: italic}.mut.extra text {fill: hotpink}.mut line {fill: none; stroke: none}.mut .sym {fill: none; stroke: red}.mut.extra .sym {stroke: hotpink}.node .mut .sym {stroke-width: 1.5px}.tree text, .tree-sequence text {dominant-baseline: central}.plotbox .lab.lft {text-anchor: end}.plotbox .lab.rgt {text-anchor: start}.polytomy line {stroke: black; stroke-dasharray: 1px, 1px}.polytomy text {paint-order:stroke;stroke-width:0.3em;stroke:white}]]></style></defs><g class="tree-sequence"><g class="background"><path d="M20,0 l960,0 l0,338.2 l0,25 l0,5 l-960,0 l0,-5 l0,-25 l0,-338.2z"/></g><g class="axes"><g class="x-axis"><g class="title" transform="translate(500 400)"><text class="lab" text-anchor="middle" transform="translate(0 -11)">Genome position</text></g><line class="ax-line" x1="20" x2="980" y1="363.2" y2="363.2"/><g class="ticks"><g class="tick" transform="translate(20 363.2)"><line x1="0" x2="0" y1="0" y2="5"/><g transform="translate(0 6)"><text class="lab">0</text></g></g><g class="tick" transform="translate(980 363.2)"><line x1="0" x2="0" y1="0" y2="5"/><g transform="translate(0 6)"><text class="lab">1000</text></g></g></g><g class="site s0" transform="translate(528.8 363.2)"><line class="sym" x1="0" x2="0" y1="0" y2="-10"/><g class="mut m0"><polyline class="sym" points="2.5,-6.5 0,-1.5 -2.5,-6.5"/></g></g></g></g><g class="plotbox trees"><g class="tree t0" transform="translate(20 0)"><g class="plotbox"><g class="c2 node n38 p2 root" transform="translate(540.016 26.8)"><g class="a38 c2 node n36 p1" transform="translate(-181.484 115.735)"><g class="a36 c2 node n26 p2" transform="translate(132.969 164.724)"><g class="a26 i6 leaf node n6 p1 sample" transform="translate(-34.5 14.1408)"><path class="edge" d="M 0 0 V -14.1408 H 34.5"/><rect class="sym" height="6" width="6" x="-3" y="-3"/><text class="lab" transform="translate(0 11)">6</text></g><g class="a26 c2 node n24 p2" transform="translate(34.5 4.73216)"><g class="a24 i10 leaf node n10 p2 sample" transform="translate(-23 9.40859)"><path class="edge" d="M 0 0 V -9.40859 H 23"/><rect class="sym" height="6" width="6" x="-3" y="-3"/><text class="lab" transform="translate(0 11)">10</text></g><g class="a24 i13 leaf node n13 p2 sample" transform="translate(23 9.40859)"><path class="edge" d="M 0 0 V -9.40859 H -23"/><rect class="sym" height="6" width="6" x="-3" y="-3"/><text class="lab" transform="translate(0 11)">13</text></g><path class="edge" d="M 0 0 V -4.73216 H -34.5"/><circle class="sym" cx="0" cy="0" r="3"/><text class="lab rgt" transform="translate(3 -7)">24</text></g><path class="edge" d="M 0 0 V -164.724 H -132.969"/><circle class="sym" cx="0" cy="0" r="3"/><text class="lab rgt" transform="translate(3 -7)">26</text></g><g class="a36 c2 node n35 p1" transform="translate(-132.969 97.9971)"><g class="a35 c2 node n29 p2" transform="translate(-125.062 42.2504)"><g class="a29 i14 leaf node n14 p2 sample" transform="translate(34.5 38.6178)"><path class="edge" d="M 0 0 V -38.6178 H -34.5"/><rect class="sym" height="6" width="6" x="-3" y="-3"/><text class="lab" transform="translate(0 11)">14</text></g><g class="a29 c2 node n22 p1" transform="translate(-34.5 34.7863)"><g class="a22 i0 leaf node n0 p1 sample" transform="translate(-23 3.8314)"><path class="edge" d="M 0 0 V -3.8314 H 23"/><rect class="sym" height="6" width="6" x="-3" y="-3"/><text class="lab" transform="translate(0 11)">0</text></g><g class="a22 i18 leaf node n18 p2 sample" transform="translate(23 3.8314)"><path class="edge" d="M 0 0 V -3.8314 H -23"/><rect class="sym" height="6" width="6" x="-3" y="-3"/><text class="lab" transform="translate(0 11)">18</text></g><path class="edge" d="M 0 0 V -34.7863 H 34.5"/><circle class="sym" cx="0" cy="0" r="3"/><text class="lab lft" transform="translate(-3 -7)">22</text></g><path class="edge" d="M 0 0 V -42.2504 H 125.062"/><circle class="sym" cx="0" cy="0" r="3"/><text class="lab lft" transform="translate(-3 -7)">29</text></g><g class="a35 c2 node n34 p2" transform="translate(125.062 1.68101)"><g class="a34 i17 leaf node n17 p2 sample" transform="translate(60.375 79.1871)"><path class="edge" d="M 0 0 V -79.1871 H -60.375"/><rect class="sym" height="6" width="6" x="-3" y="-3"/><text class="lab" transform="translate(0 11)">17</text></g><g class="a34 c2 node n32 p2" transform="translate(-60.375 24.4511)"><g class="a32 c2 node n27 p2" transform="translate(-51.75 40.4179)"><g class="a27 i3 leaf node n3 p1 sample" transform="translate(34.5 14.3182)"><path class="edge" d="M 0 0 V -14.3182 H -34.5"/><rect class="sym" height="6" width="6" x="-3" y="-3"/><text class="lab" transform="translate(0 11)">3</text></g><g class="a27 c2 node n25 p2" transform="translate(-34.5 3.16876)"><g class="a25 i2 leaf node n2 p1 sample" transform="translate(-23 11.1494)"><path class="edge" d="M 0 0 V -11.1494 H 23"/><rect class="sym" height="6" width="6" x="-3" y="-3"/><text class="lab" transform="translate(0 11)">2</text></g><g class="a25 i19 leaf node n19 p2 sample" transform="translate(23 11.1494)"><path class="edge" d="M 0 0 V -11.1494 H -23"/><rect class="sym" height="6" width="6" x="-3" y="-3"/><text class="lab" transform="translate(0 11)">19</text></g><path class="edge" d="M 0 0 V -3.16876 H 34.5"/><circle class="sym" cx="0" cy="0" r="3"/><text class="lab lft" transform="translate(-3 -7)">25</text></g><path class="edge" d="M 0 0 V -40.4179 H 51.75"/><circle class="sym" cx="0" cy="0" r="3"/><text class="lab lft" transform="translate(-3 -7)">27</text></g><g class="a32 c2 node n31 p1" transform="translate(51.75 11.8312)"><g class="a31 i4 leaf node n4 p1 sample" transform="translate(-23 42.9048)"><path class="edge" d="M 0 0 V -42.9048 H 23"/><rect class="sym" height="6" width="6" x="-3" y="-3"/><text class="lab" transform="translate(0 11)">4</text></g><g class="a31 i11 leaf node n11 p2 sample" transform="translate(23 42.9048)"><path class="edge" d="M 0 0 V -42.9048 H -23"/><rect class="sym" height="6" width="6" x="-3" y="-3"/><text class="lab" transform="translate(0 11)">11</text></g><path class="edge" d="M 0 0 V -11.8312 H -51.75"/><circle class="sym" cx="0" cy="0" r="3"/><text class="lab rgt" transform="translate(3 -7)">31</text></g><path class="edge" d="M 0 0 V -24.4511 H 60.375"/><circle class="sym" cx="0" cy="0" r="3"/><text class="lab lft" transform="translate(-3 -7)">32</text></g><path class="edge" d="M 0 0 V -1.68101 H -125.062"/><circle class="sym" cx="0" cy="0" r="3"/><text class="lab rgt" transform="translate(3 -7)">34</text></g><path class="edge" d="M 0 0 V -97.9971 H 132.969"/><circle class="sym" cx="0" cy="0" r="3"/><text class="lab lft" transform="translate(-3 -7)">35</text></g><path class="edge" d="M 0 0 V -115.735 H 181.484"/><circle class="sym" cx="0" cy="0" r="3"/><text class="lab lft" transform="translate(-3 -7)">36</text></g><g class="a38 c2 node n37 p1" transform="translate(181.484 58.8738)"><g class="a37 c2 node n20 p2" transform="translate(-103.5 233.706)"><g class="a20 i1 leaf node n1 p1 sample" transform="translate(-23 2.01973)"><path class="edge" d="M 0 0 V -2.01973 H 23"/><rect class="sym" height="6" width="6" x="-3" y="-3"/><text class="lab" transform="translate(0 11)">1</text></g><g class="a20 i16 leaf node n16 p2 sample" transform="translate(23 2.01973)"><path class="edge" d="M 0 0 V -2.01973 H -23"/><rect class="sym" height="6" width="6" x="-3" y="-3"/><text class="lab" transform="translate(0 11)">16</text></g><path class="edge" d="M 0 0 V -233.706 H 103.5"/><circle class="sym" cx="0" cy="0" r="3"/><text class="lab lft" transform="translate(-3 -7)">20</text></g><g class="a37 c2 m0 node n33 p2 s0" transform="translate(103.5 170.973)"><g class="a33 c2 node n21 p1" transform="translate(69 62.0633)"><g class="a21 i7 leaf node n7 p1 sample" transform="translate(-23 2.6899)"><path class="edge" d="M 0 0 V -2.6899 H 23"/><rect class="sym" height="6" width="6" x="-3" y="-3"/><text class="lab" transform="translate(0 11)">7</text></g><g class="a21 i15 leaf node n15 p2 sample" transform="translate(23 2.6899)"><path class="edge" d="M 0 0 V -2.6899 H -23"/><rect class="sym" height="6" width="6" x="-3" y="-3"/><text class="lab" transform="translate(0 11)">15</text></g><path class="edge" d="M 0 0 V -62.0633 H -69"/><circle class="sym" cx="0" cy="0" r="3"/><text class="lab rgt" transform="translate(3 -7)">21</text></g><g class="a33 c2 node n30 p1" transform="translate(-69 26.0325)"><g class="a30 c2 node n23 p1" transform="translate(46 32.6581)"><g class="a23 i8 leaf node n8 p1 sample" transform="translate(-23 6.06265)"><path class="edge" d="M 0 0 V -6.06265 H 23"/><rect class="sym" height="6" width="6" x="-3" y="-3"/><text class="lab" transform="translate(0 11)">8</text></g><g class="a23 i9 leaf node n9 p1 sample" transform="translate(23 6.06265)"><path class="edge" d="M 0 0 V -6.06265 H -23"/><rect class="sym" height="6" width="6" x="-3" y="-3"/><text class="lab" transform="translate(0 11)">9</text></g><path class="edge" d="M 0 0 V -32.6581 H -46"/><circle class="sym" cx="0" cy="0" r="3"/><text class="lab rgt" transform="translate(3 -7)">23</text></g><g class="a30 c2 node n28 p1" transform="translate(-46 5.8255)"><g class="a28 i5 leaf node n5 p1 sample" transform="translate(-23 32.8952)"><path class="edge" d="M 0 0 V -32.8952 H 23"/><rect class="sym" height="6" width="6" x="-3" y="-3"/><text class="lab" transform="translate(0 11)">5</text></g><g class="a28 i12 leaf node n12 p2 sample" transform="translate(23 32.8952)"><path class="edge" d="M 0 0 V -32.8952 H -23"/><rect class="sym" height="6" width="6" x="-3" y="-3"/><text class="lab" transform="translate(0 11)">12</text></g><path class="edge" d="M 0 0 V -5.8255 H 46"/><circle class="sym" cx="0" cy="0" r="3"/><text class="lab lft" transform="translate(-3 -7)">28</text></g><path class="edge" d="M 0 0 V -26.0325 H 69"/><circle class="sym" cx="0" cy="0" r="3"/><text class="lab lft" transform="translate(-3 -7)">30</text></g><path class="edge" d="M 0 0 V -170.973 H -103.5"/><g class="mut m0 s0" transform="translate(0 -117.754)"><line x1="0" x2="0" y1="0" y2="117.754"/><path class="sym" d="M -3,-3 l 6,6 M -3,3 l 6,-6"/><text class="lab rgt" transform="translate(5 0)">0</text></g><circle class="sym" cx="0" cy="0" r="3"/><text class="lab rgt" transform="translate(3 -7)">33</text></g><path class="edge" d="M 0 0 V -58.8738 H -181.484"/><circle class="sym" cx="0" cy="0" r="3"/><text class="lab rgt" transform="translate(3 -7)">37</text></g><circle class="sym" cx="0" cy="0" r="3"/><text class="lab" transform="translate(0 -11)">38</text></g></g></g></g></g></svg>