<svg baseProfile="full" height="400" version="1.1" width="1000" xmlns="http://www.w3.org/2000/svg" xmlns:ev="http://www.w3.org/2001/xml-events" xmlns:xlink="http://www.w3.org/1999/xlink"><defs><style type="text/css"><![CDATA[.background path {fill: #808080; fill-opacity: 0}.background path:nth-child(odd) {fill-opacity: .1}.x-regions rect {fill: yellow; stroke: black; opacity: 0.5}.axes {font-size: 14px}.x-axis .tick .lab {font-weight: bold; dominant-baseline: hanging}.axes, .tree {font-size: 14px; text-anchor: middle}.axes line, .edge {stroke: black; fill: none}.axes .ax-skip {stroke-dasharray: 4}.y-axis .grid {stroke: #FAFAFA}.node > .sym {fill: black; stroke: none}.site > .sym {stroke: black}.mut text {fill: red; font-style: italic}.mut.extra text {fill: hotpink}.mut line {fill: none; stroke: none}.mut .sym {fill: none; stroke: red}.mut.extra .sym {stroke: hotpink}.node .mut .sym {stroke-width: 1.5px}.tree text, .tree-sequence text {dominant-baseline: central}.plotbox .lab.lft {text-anchor: end}.plotbox .lab.rgt {text-anchor: start}.polytomy line {stroke: black; stroke-dasharray: 1px, 1px}.polytomy text {paint-order:stroke;stroke-width:0.3em;stroke:white}]]></style></defs><g class="tree-sequence"><g class="background"><path d="M20,0 l960,0 l0,338.2 l0,25 l0,5 l-960,0 l0,-5 l0,-25 l0,-338.2z"/></g><g class="axes"><g class="x-axis"><g class="title" transform="translate(500 400)"><text class="lab" text-anchor="middle" transform="translate(0 -11)">Genome position</text></g><line class="ax-line" x1="20" x2="980" y1="363.2" y2="363.2"/><g class="ticks"><g class="tick" transform="translate(20 363.2)"><line x1="0" x2="0" y1="0" y2="5"/><g transform="translate(0 6)"><text class="lab">0</text></g></g><g class="tick" transform="translate(980 363.2)"><line x1="0" x2="0" y1="0" y2="5"/><g transform="translate(0 6)"><text class="lab">1000</text></g></g></g><g class="site s0" transform="translate(104.48 363.2)"><line class="sym" x1="0" x2="0" y1="0" y2="-10"/><g class="mut m0"><polyline class="sym" points="2.5,-6.5 0,-1.5 -2.5,-6.5"/></g></g><g class="site s1" transform="translate(707.36 363.2)"><line class="sym" x1="0" x2="0" y1="0" y2="-10"/><g class="mut m1"><polyline class="sym" points="2.5,-6.5 0,-1.5 -2.5,-6.5"/></g></g></g></g><g class="plotbox trees"><g class="tree t0" transform="translate(20 0)"><g class="plotbox"><g class="c2 node n38 p2 root" transform="translate(493.836 26.8)"><g class="a38 c2 node n35 p1" transform="translate(-280.852 205.103)"><g class="a35 i0 leaf node n0 p1 sample" transform="translate(-169.984 89.4967)"><path class="edge" d="M 0 0 V -89.4967 H 169.984"/><rect class="sym" height="6" width="6" x="-3" y="-3"/><text class="lab" transform="translate(0 11)">0</text></g><g class="a35 c2 node n34 p2" transform="translate(169.984 1.09934)"><g class="a34 i6 leaf node n6 p1 sample" transform="translate(120.031 88.3973)"><path class="edge" d="M 0 0 V -88.3973 H -120.031"/><rect class="sym" height="6" width="6" x="-3" y="-3"/><text class="lab" transform="translate(0 11)">6</text></g><g class="a34 c2 node n33 p2" transform="translate(-120.031 7.2931)"><g class="a33 c2 node n28 p1" transform="translate(-116.438 62.5896)"><g class="a28 i4 leaf node n4 p1 sample" transform="translate(34.5 18.5146)"><path class="edge" d="M 0 0 V -18.5146 H -34.5"/><rect class="sym" height="6" width="6" x="-3" y="-3"/><text class="lab" transform="translate(0 11)">4</text></g><g class="a28 c2 node n21 p1" transform="translate(-34.5 12.5345)"><g class="a21 i3 leaf node n3 p1 sample" transform="translate(-23 5.98014)"><path class="edge" d="M 0 0 V -5.98014 H 23"/><rect class="sym" height="6" width="6" x="-3" y="-3"/><text class="lab" transform="translate(0 11)">3</text></g><g class="a21 i18 leaf node n18 p2 sample" transform="translate(23 5.98014)"><path class="edge" d="M 0 0 V -5.98014 H -23"/><rect class="sym" height="6" width="6" x="-3" y="-3"/><text class="lab" transform="translate(0 11)">18</text></g><path class="edge" d="M 0 0 V -12.5345 H 34.5"/><circle class="sym" cx="0" cy="0" r="3"/><text class="lab lft" transform="translate(-3 -7)">21</text></g><path class="edge" d="M 0 0 V -62.5896 H 116.438"/><circle class="sym" cx="0" cy="0" r="3"/><text class="lab lft" transform="translate(-3 -7)">28</text></g><g class="a33 c2 node n30 p2" transform="translate(116.438 43.8492)"><g class="a30 c2 node n24 p2" transform="translate(54.625 27.0673)"><g class="a24 i10 leaf node n10 p2 sample" transform="translate(-23 10.1878)"><path class="edge" d="M 0 0 V -10.1878 H 23"/><rect class="sym" height="6" width="6" x="-3" y="-3"/><text class="lab" transform="translate(0 11)">10</text></g><g class="a24 i14 leaf node n14 p2 sample" transform="translate(23 10.1878)"><path class="edge" d="M 0 0 V -10.1878 H -23"/><rect class="sym" height="6" width="6" x="-3" y="-3"/><text class="lab" transform="translate(0 11)">14</text></g><path class="edge" d="M 0 0 V -27.0673 H -54.625"/><circle class="sym" cx="0" cy="0" r="3"/><text class="lab rgt" transform="translate(3 -7)">24</text></g><g class="a30 c2 node n27 p2" transform="translate(-54.625 20.3281)"><g class="a27 i11 leaf node n11 p2 sample" transform="translate(40.25 16.927)"><path class="edge" d="M 0 0 V -16.927 H -40.25"/><rect class="sym" height="6" width="6" x="-3" y="-3"/><text class="lab" transform="translate(0 11)">11</text></g><g class="a27 c2 node n23 p2" transform="translate(-40.25 8.85636)"><g class="a23 i16 leaf node n16 p2 sample" transform="translate(34.5 8.07066)"><path class="edge" d="M 0 0 V -8.07066 H -34.5"/><rect class="sym" height="6" width="6" x="-3" y="-3"/><text class="lab" transform="translate(0 11)">16</text></g><g class="a23 c2 node n20 p2" transform="translate(-34.5 5.40494)"><g class="a20 i5 leaf node n5 p1 sample" transform="translate(-23 2.66571)"><path class="edge" d="M 0 0 V -2.66571 H 23"/><rect class="sym" height="6" width="6" x="-3" y="-3"/><text class="lab" transform="translate(0 11)">5</text></g><g class="a20 i9 leaf node n9 p1 sample" transform="translate(23 2.66571)"><path class="edge" d="M 0 0 V -2.66571 H -23"/><rect class="sym" height="6" width="6" x="-3" y="-3"/><text class="lab" transform="translate(0 11)">9</text></g><path class="edge" d="M 0 0 V -5.40494 H 34.5"/><circle class="sym" cx="0" cy="0" r="3"/><text class="lab lft" transform="translate(-3 -7)">20</text></g><path class="edge" d="M 0 0 V -8.85636 H 40.25"/><circle class="sym" cx="0" cy="0" r="3"/><text class="lab lft" transform="translate(-3 -7)">23</text></g><path class="edge" d="M 0 0 V -20.3281 H 54.625"/><circle class="sym" cx="0" cy="0" r="3"/><text class="lab lft" transform="translate(-3 -7)">27</text></g><path class="edge" d="M 0 0 V -43.8492 H -116.438"/><circle class="sym" cx="0" cy="0" r="3"/><text class="lab rgt" transform="translate(3 -7)">30</text></g><path class="edge" d="M 0 0 V -7.2931 H 120.031"/><circle class="sym" cx="0" cy="0" r="3"/><text class="lab lft" transform="translate(-3 -7)">33</text></g><path class="edge" d="M 0 0 V -1.09934 H -169.984"/><circle class="sym" cx="0" cy="0" r="3"/><text class="lab rgt" transform="translate(3 -7)">34</text></g><path class="edge" d="M 0 0 V -205.103 H 280.852"/><circle class="sym" cx="0" cy="0" r="3"/><text class="lab lft" transform="translate(-3 -7)">35</text></g><g class="a38 c2 node n37 p2" transform="translate(280.852 51.3047)"><g class="a37 c2 m0 m1 node n32 p2 s0 s1" transform="translate(-119.312 170.447)"><g class="a32 c2 node n29 p1" transform="translate(83.375 47.5321)"><g class="a29 c2 node n22 p2" transform="translate(63.25 19.034)"><g class="a22 i12 leaf node n12 p2 sample" transform="translate(-23 6.28194)"><path class="edge" d="M 0 0 V -6.28194 H 23"/><rect class="sym" height="6" width="6" x="-3" y="-3"/><text class="lab" transform="translate(0 11)">12</text></g><g class="a22 i13 leaf node n13 p2 sample" transform="translate(23 6.28194)"><path class="edge" d="M 0 0 V -6.28194 H -23"/><rect class="sym" height="6" width="6" x="-3" y="-3"/><text class="lab" transform="translate(0 11)">13</text></g><path class="edge" d="M 0 0 V -19.034 H -63.25"/><circle class="sym" cx="0" cy="0" r="3"/><text class="lab rgt" transform="translate(3 -7)">22</text></g><g class="a29 c2 node n26 p1" transform="translate(-63.25 8.5693)"><g class="a26 i7 leaf node n7 p1 sample" transform="translate(-34.5 16.7467)"><path class="edge" d="M 0 0 V -16.7467 H 34.5"/><rect class="sym" height="6" width="6" x="-3" y="-3"/><text class="lab" transform="translate(0 11)">7</text></g><g class="a26 c2 node n25 p2" transform="translate(34.5 5.95708)"><g class="a25 i8 leaf node n8 p1 sample" transform="translate(-23 10.7896)"><path class="edge" d="M 0 0 V -10.7896 H 23"/><rect class="sym" height="6" width="6" x="-3" y="-3"/><text class="lab" transform="translate(0 11)">8</text></g><g class="a25 i15 leaf node n15 p2 sample" transform="translate(23 10.7896)"><path class="edge" d="M 0 0 V -10.7896 H -23"/><rect class="sym" height="6" width="6" x="-3" y="-3"/><text class="lab" transform="translate(0 11)">15</text></g><path class="edge" d="M 0 0 V -5.95708 H -34.5"/><circle class="sym" cx="0" cy="0" r="3"/><text class="lab rgt" transform="translate(3 -7)">25</text></g><path class="edge" d="M 0 0 V -8.5693 H 63.25"/><circle class="sym" cx="0" cy="0" r="3"/><text class="lab lft" transform="translate(-3 -7)">26</text></g><path class="edge" d="M 0 0 V -47.5321 H -83.375"/><circle class="sym" cx="0" cy="0" r="3"/><text class="lab rgt" transform="translate(3 -7)">29</text></g><g class="a32 c2 node n31 p2" transform="translate(-83.375 22.5853)"><g class="a31 i1 leaf node n1 p1 sample" transform="translate(-23 50.2628)"><path class="edge" d="M 0 0 V -50.2628 H 23"/><rect class="sym" height="6" width="6" x="-3" y="-3"/><text class="lab" transform="translate(0 11)">1</text></g><g class="a31 i2 leaf node n2 p1 sample" transform="translate(23 50.2628)"><path class="edge" d="M 0 0 V -50.2628 H -23"/><rect class="sym" height="6" width="6" x="-3" y="-3"/><text class="lab" transform="translate(0 11)">2</text></g><path class="edge" d="M 0 0 V -22.5853 H 83.375"/><circle class="sym" cx="0" cy="0" r="3"/><text class="lab lft" transform="translate(-3 -7)">31</text></g><path class="edge" d="M 0 0 V -170.447 H 119.312"/><g class="mut m1 s1" transform="translate(0 -144.447)"><line x1="0" x2="0" y1="0" y2="144.447"/><path class="sym" d="M -3,-3 l 6,6 M -3,3 l 6,-6"/><text class="lab lft" transform="translate(-5 0)">1</text></g><g class="mut m0 s0" transform="translate(0 -76.3785)"><line x1="0" x2="0" y1="0" y2="76.3785"/><path class="sym" d="M -3,-3 l 6,6 M -3,3 l 6,-6"/><text class="lab lft" transform="translate(-5 0)">0</text></g><circle class="sym" cx="0" cy="0" r="3"/><text class="lab lft" transform="translate(-3 -7)">32</text></g><g class="a37 c2 node n36 p2" transform="translate(119.312 24.9956)"><g class="a36 i17 leaf node n17 p2 sample" transform="translate(-23 218.3)"><path class="edge" d="M 0 0 V -218.3 H 23"/><rect class="sym" height="6" width="6" x="-3" y="-3"/><text class="lab" transform="translate(0 11)">17</text></g><g class="a36 i19 leaf node n19 p2 sample" transform="translate(23 218.3)"><path class="edge" d="M 0 0 V -218.3 H -23"/><rect class="sym" height="6" width="6" x="-3" y="-3"/><text class="lab" transform="translate(0 11)">19</text></g><path class="edge" d="M 0 0 V -24.9956 H -119.312"/><circle class="sym" cx="0" cy="0" r="3"/><text class="lab rgt" transform="translate(3 -7)">36</text></g><path class="edge" d="M 0 0 V -51.3047 H -280.852"/><circle class="sym" cx="0" cy="0" r="3"/><text class="lab rgt" transform="translate(3 -7)">37</text></g><circle class="sym" cx="0" cy="0" r="3"/><text class="lab" transform="translate(0 -11)">38</text></g></g></g></g></g></svg>