<svg baseProfile="full" height="400" version="1.1" width="1000" xmlns="http://www.w3.org/2000/svg" xmlns:ev="http://www.w3.org/2001/xml-events" xmlns:xlink="http://www.w3.org/1999/xlink"><defs><style type="text/css"><![CDATA[.background path {fill: #808080; fill-opacity: 0}.background path:nth-child(odd) {fill-opacity: .1}.x-regions rect {fill: yellow; stroke: black; opacity: 0.5}.axes {font-size: 14px}.x-axis .tick .lab {font-weight: bold; dominant-baseline: hanging}.axes, .tree {font-size: 14px; text-anchor: middle}.axes line, .edge {stroke: black; fill: none}.axes .ax-skip {stroke-dasharray: 4}.y-axis .grid {stroke: #FAFAFA}.node > .sym {fill: black; stroke: none}.site > .sym {stroke: black}.mut text {fill: red; font-style: italic}.mut.extra text {fill: hotpink}.mut line {fill: none; stroke: none}.mut .sym {fill: none; stroke: red}.mut.extra .sym {stroke: hotpink}.node .mut .sym {stroke-width: 1.5px}.tree text, .tree-sequence text {dominant-baseline: central}.plotbox .lab.lft {text-anchor: end}.plotbox .lab.rgt {text-anchor: start}.polytomy line {stroke: black; stroke-dasharray: 1px, 1px}.polytomy text {paint-order:stroke;stroke-width:0.3em;stroke:white}]]></style></defs><g class="tree-sequence"><g class="background"><path d="M20,0 l960,0 l0,338.2 l0,25 l0,5 l-960,0 l0,-5 l0,-25 l0,-338.2z"/></g><g class="axes"><g class="x-axis"><g class="title" transform="translate(500 400)"><text class="lab" text-anchor="middle" transform="translate(0 -11)">Genome position</text></g><line class="ax-line" x1="20" x2="980" y1="363.2" y2="363.2"/><g class="ticks"><g class="tick" transform="translate(20 363.2)"><line x1="0" x2="0" y1="0" y2="5"/><g transform="translate(0 6)"><text class="lab">0</text></g></g><g class="tick" transform="translate(980 363.2)"><line x1="0" x2="0" y1="0" y2="5"/><g transform="translate(0 6)"><text class="lab">1000</text></g></g></g><g class="site s0" transform="translate(563.36 363.2)"><line class="sym" x1="0" x2="0" y1="0" y2="-10"/><g class="mut m0"><polyline class="sym" points="2.5,-6.5 0,-1.5 -2.5,-6.5"/></g></g><g class="site s1" transform="translate(770.72 363.2)"><line class="sym" x1="0" x2="0" y1="0" y2="-10"/><g class="mut m1"><polyline class="sym" points="2.5,-6.5 0,-1.5 -2.5,-6.5"/></g></g><g class="site s2" transform="translate(832.16 363.2)"><line class="sym" x1="0" x2="0" y1="0" y2="-10"/><g class="mut m2"><polyline class="sym" points="2.5,-6.5 0,-1.5 -2.5,-6.5"/></g></g></g></g><g class="plotbox trees"><g class="tree t0" transform="translate(20 0)"><g class="plotbox"><g class="c2 node n38 p2 root" transform="translate(732.82 26.8)"><g class="a38 c2 node n20 p2" transform="translate(161.18 294.001)"><g class="a20 i14 leaf node n14 p2 sample" transform="translate(-23 0.599368)"><path class="edge" d="M 0 0 V -0.599368 H 23"/><rect class="sym" height="6" width="6" x="-3" y="-3"/><text class="lab" transform="translate(0 11)">14</text></g><g class="a20 i17 leaf node n17 p2 sample" transform="translate(23 0.599368)"><path class="edge" d="M 0 0 V -0.599368 H -23"/><rect class="sym" height="6" width="6" x="-3" y="-3"/><text class="lab" transform="translate(0 11)">17</text></g><path class="edge" d="M 0 0 V -294.001 H -161.18"/><circle class="sym" cx="0" cy="0" r="3"/><text class="lab rgt" transform="translate(3 -7)">20</text></g><g class="a38 c2 m2 node n37 p1 s2" transform="translate(-161.18 186.587)"><g class="a37 c2 node n34 p1" transform="translate(-213.109 65.5788)"><g class="a34 c2 node n29 p2" transform="translate(-210.594 22.4858)"><g class="a29 i0 leaf node n0 p1 sample" transform="translate(-104.938 19.9489)"><path class="edge" d="M 0 0 V -19.9489 H 104.938"/><rect class="sym" height="6" width="6" x="-3" y="-3"/><text class="lab" transform="translate(0 11)">0</text></g><g class="a29 c2 node n28 p1" transform="translate(104.938 2.16538)"><g class="a28 c2 node n23 p1" transform="translate(77.625 13.4961)"><g class="a23 i19 leaf node n19 p2 sample" transform="translate(34.5 4.2874)"><path class="edge" d="M 0 0 V -4.2874 H -34.5"/><rect class="sym" height="6" width="6" x="-3" y="-3"/><text class="lab" transform="translate(0 11)">19</text></g><g class="a23 c2 node n21 p1" transform="translate(-34.5 1.69975)"><g class="a21 i3 leaf node n3 p1 sample" transform="translate(-23 2.58765)"><path class="edge" d="M 0 0 V -2.58765 H 23"/><rect class="sym" height="6" width="6" x="-3" y="-3"/><text class="lab" transform="translate(0 11)">3</text></g><g class="a21 i13 leaf node n13 p2 sample" transform="translate(23 2.58765)"><path class="edge" d="M 0 0 V -2.58765 H -23"/><rect class="sym" height="6" width="6" x="-3" y="-3"/><text class="lab" transform="translate(0 11)">13</text></g><path class="edge" d="M 0 0 V -1.69975 H 34.5"/><circle class="sym" cx="0" cy="0" r="3"/><text class="lab lft" transform="translate(-3 -7)">21</text></g><path class="edge" d="M 0 0 V -13.4961 H -77.625"/><circle class="sym" cx="0" cy="0" r="3"/><text class="lab rgt" transform="translate(3 -7)">23</text></g><g class="a28 c2 node n27 p2" transform="translate(-77.625 3.3989)"><g class="a27 i5 leaf node n5 p1 sample" transform="translate(51.75 14.3846)"><path class="edge" d="M 0 0 V -14.3846 H -51.75"/><rect class="sym" height="6" width="6" x="-3" y="-3"/><text class="lab" transform="translate(0 11)">5</text></g><g class="a27 c2 node n25 p2" transform="translate(-51.75 9.02943)"><g class="a25 i1 leaf node n1 p1 sample" transform="translate(-34.5 5.35519)"><path class="edge" d="M 0 0 V -5.35519 H 34.5"/><rect class="sym" height="6" width="6" x="-3" y="-3"/><text class="lab" transform="translate(0 11)">1</text></g><g class="a25 c2 node n24 p2" transform="translate(34.5 0.0789501)"><g class="a24 i9 leaf node n9 p1 sample" transform="translate(-23 5.27624)"><path class="edge" d="M 0 0 V -5.27624 H 23"/><rect class="sym" height="6" width="6" x="-3" y="-3"/><text class="lab" transform="translate(0 11)">9</text></g><g class="a24 i12 leaf node n12 p2 sample" transform="translate(23 5.27624)"><path class="edge" d="M 0 0 V -5.27624 H -23"/><rect class="sym" height="6" width="6" x="-3" y="-3"/><text class="lab" transform="translate(0 11)">12</text></g><path class="edge" d="M 0 0 V -0.0789501 H -34.5"/><circle class="sym" cx="0" cy="0" r="3"/><text class="lab rgt" transform="translate(3 -7)">24</text></g><path class="edge" d="M 0 0 V -9.02943 H 51.75"/><circle class="sym" cx="0" cy="0" r="3"/><text class="lab lft" transform="translate(-3 -7)">25</text></g><path class="edge" d="M 0 0 V -3.3989 H 77.625"/><circle class="sym" cx="0" cy="0" r="3"/><text class="lab lft" transform="translate(-3 -7)">27</text></g><path class="edge" d="M 0 0 V -2.16538 H -104.938"/><circle class="sym" cx="0" cy="0" r="3"/><text class="lab rgt" transform="translate(3 -7)">28</text></g><path class="edge" d="M 0 0 V -22.4858 H 210.594"/><circle class="sym" cx="0" cy="0" r="3"/><text class="lab lft" transform="translate(-3 -7)">29</text></g><g class="a34 c2 node n33 p2" transform="translate(210.594 8.06878)"><g class="a33 i11 leaf m1 node n11 p2 s1 sample" transform="translate(71.875 34.3659)"><path class="edge" d="M 0 0 V -34.3659 H -71.875"/><g class="mut m1 s1" transform="translate(0 -14.5571)"><line x1="0" x2="0" y1="0" y2="14.5571"/><path class="sym" d="M -3,-3 l 6,6 M -3,3 l 6,-6"/><text class="lab rgt" transform="translate(5 0)">1</text></g><rect class="sym" height="6" width="6" x="-3" y="-3"/><text class="lab" transform="translate(0 11)">11</text></g><g class="a33 c2 node n32 p1" transform="translate(-71.875 0.305279)"><g class="a32 c2 node n26 p1" transform="translate(63.25 27.9838)"><g class="a26 i15 leaf node n15 p2 sample" transform="translate(34.5 6.07675)"><path class="edge" d="M 0 0 V -6.07675 H -34.5"/><rect class="sym" height="6" width="6" x="-3" y="-3"/><text class="lab" transform="translate(0 11)">15</text></g><g class="a26 c2 node n22 p1" transform="translate(-34.5 2.90672)"><g class="a22 i10 leaf node n10 p2 sample" transform="translate(-23 3.17002)"><path class="edge" d="M 0 0 V -3.17002 H 23"/><rect class="sym" height="6" width="6" x="-3" y="-3"/><text class="lab" transform="translate(0 11)">10</text></g><g class="a22 i16 leaf node n16 p2 sample" transform="translate(23 3.17002)"><path class="edge" d="M 0 0 V -3.17002 H -23"/><rect class="sym" height="6" width="6" x="-3" y="-3"/><text class="lab" transform="translate(0 11)">16</text></g><path class="edge" d="M 0 0 V -2.90672 H 34.5"/><circle class="sym" cx="0" cy="0" r="3"/><text class="lab lft" transform="translate(-3 -7)">22</text></g><path class="edge" d="M 0 0 V -27.9838 H -63.25"/><circle class="sym" cx="0" cy="0" r="3"/><text class="lab rgt" transform="translate(3 -7)">26</text></g><g class="a32 c2 node n31 p2" transform="translate(-63.25 1.51098)"><g class="a31 i6 leaf node n6 p1 sample" transform="translate(-23 32.5496)"><path class="edge" d="M 0 0 V -32.5496 H 23"/><rect class="sym" height="6" width="6" x="-3" y="-3"/><text class="lab" transform="translate(0 11)">6</text></g><g class="a31 i7 leaf m0 node n7 p1 s0 sample" transform="translate(23 32.5496)"><path class="edge" d="M 0 0 V -32.5496 H -23"/><g class="mut m0 s0" transform="translate(0 -32.3616)"><line x1="0" x2="0" y1="0" y2="32.3616"/><path class="sym" d="M -3,-3 l 6,6 M -3,3 l 6,-6"/><text class="lab rgt" transform="translate(5 0)">0</text></g><rect class="sym" height="6" width="6" x="-3" y="-3"/><text class="lab" transform="translate(0 11)">7</text></g><path class="edge" d="M 0 0 V -1.51098 H 63.25"/><circle class="sym" cx="0" cy="0" r="3"/><text class="lab lft" transform="translate(-3 -7)">31</text></g><path class="edge" d="M 0 0 V -0.305279 H 71.875"/><circle class="sym" cx="0" cy="0" r="3"/><text class="lab lft" transform="translate(-3 -7)">32</text></g><path class="edge" d="M 0 0 V -8.06878 H -210.594"/><circle class="sym" cx="0" cy="0" r="3"/><text class="lab rgt" transform="translate(3 -7)">33</text></g><path class="edge" d="M 0 0 V -65.5788 H 213.109"/><circle class="sym" cx="0" cy="0" r="3"/><text class="lab lft" transform="translate(-3 -7)">34</text></g><g class="a37 c2 node n36 p2" transform="translate(213.109 7.04125)"><g class="a36 i8 leaf node n8 p1 sample" transform="translate(40.25 100.972)"><path class="edge" d="M 0 0 V -100.972 H -40.25"/><rect class="sym" height="6" width="6" x="-3" y="-3"/><text class="lab" transform="translate(0 11)">8</text></g><g class="a36 c2 node n35 p1" transform="translate(-40.25 22.509)"><g class="a35 i18 leaf node n18 p2 sample" transform="translate(34.5 78.4632)"><path class="edge" d="M 0 0 V -78.4632 H -34.5"/><rect class="sym" height="6" width="6" x="-3" y="-3"/><text class="lab" transform="translate(0 11)">18</text></g><g class="a35 c2 node n30 p2" transform="translate(-34.5 54.3332)"><g class="a30 i2 leaf node n2 p1 sample" transform="translate(-23 24.13)"><path class="edge" d="M 0 0 V -24.13 H 23"/><rect class="sym" height="6" width="6" x="-3" y="-3"/><text class="lab" transform="translate(0 11)">2</text></g><g class="a30 i4 leaf node n4 p1 sample" transform="translate(23 24.13)"><path class="edge" d="M 0 0 V -24.13 H -23"/><rect class="sym" height="6" width="6" x="-3" y="-3"/><text class="lab" transform="translate(0 11)">4</text></g><path class="edge" d="M 0 0 V -54.3332 H 34.5"/><circle class="sym" cx="0" cy="0" r="3"/><text class="lab lft" transform="translate(-3 -7)">30</text></g><path class="edge" d="M 0 0 V -22.509 H 40.25"/><circle class="sym" cx="0" cy="0" r="3"/><text class="lab lft" transform="translate(-3 -7)">35</text></g><path class="edge" d="M 0 0 V -7.04125 H -213.109"/><circle class="sym" cx="0" cy="0" r="3"/><text class="lab rgt" transform="translate(3 -7)">36</text></g><path class="edge" d="M 0 0 V -186.587 H 161.18"/><g class="mut m2 s2" transform="translate(0 -132.967)"><line x1="0" x2="0" y1="0" y2="132.967"/><path class="sym" d="M -3,-3 l 6,6 M -3,3 l 6,-6"/><text class="lab lft" transform="translate(-5 0)">2</text></g><circle class="sym" cx="0" cy="0" r="3"/><text class="lab lft" transform="translate(-3 -7)">37</text></g><circle class="sym" cx="0" cy="0" r="3"/><text class="lab" transform="translate(0 -11)">38</text></g></g></g></g></g></svg>