<svg baseProfile="full" height="400" version="1.1" width="1000" xmlns="http://www.w3.org/2000/svg" xmlns:ev="http://www.w3.org/2001/xml-events" xmlns:xlink="http://www.w3.org/1999/xlink"><defs><style type="text/css"><![CDATA[.background path {fill: #808080; fill-opacity: 0}.background path:nth-child(odd) {fill-opacity: .1}.x-regions rect {fill: yellow; stroke: black; opacity: 0.5}.axes {font-size: 14px}.x-axis .tick .lab {font-weight: bold; dominant-baseline: hanging}.axes, .tree {font-size: 14px; text-anchor: middle}.axes line, .edge {stroke: black; fill: none}.axes .ax-skip {stroke-dasharray: 4}.y-axis .grid {stroke: #FAFAFA}.node > .sym {fill: black; stroke: none}.site > .sym {stroke: black}.mut text {fill: red; font-style: italic}.mut.extra text {fill: hotpink}.mut line {fill: none; stroke: none}.mut .sym {fill: none; stroke: red}.mut.extra .sym {stroke: hotpink}.node .mut .sym {stroke-width: 1.5px}.tree text, .tree-sequence text {dominant-baseline: central}.plotbox .lab.lft {text-anchor: end}.plotbox .lab.rgt {text-anchor: start}.polytomy line {stroke: black; stroke-dasharray: 1px, 1px}.polytomy text {paint-order:stroke;stroke-width:0.3em;stroke:white}]]></style></defs><g class="tree-sequence"><g class="background"><path d="M20,0 l960,0 l0,338.2 l0,25 l0,5 l-960,0 l0,-5 l0,-25 l0,-338.2z"/></g><g class="axes"><g class="x-axis"><g class="title" transform="translate(500 400)"><text class="lab" text-anchor="middle" transform="translate(0 -11)">Genome position</text></g><line class="ax-line" x1="20" x2="980" y1="363.2" y2="363.2"/><g class="ticks"><g class="tick" transform="translate(20 363.2)"><line x1="0" x2="0" y1="0" y2="5"/><g transform="translate(0 6)"><text class="lab">0</text></g></g><g class="tick" transform="translate(980 363.2)"><line x1="0" x2="0" y1="0" y2="5"/><g transform="translate(0 6)"><text class="lab">1000</text></g></g></g><g class="site s0" transform="translate(100.64 363.2)"><line class="sym" x1="0" x2="0" y1="0" y2="-10"/><g class="mut m0"><polyline class="sym" points="2.5,-6.5 0,-1.5 -2.5,-6.5"/></g></g><g class="site s1" transform="translate(200.48 363.2)"><line class="sym" x1="0" x2="0" y1="0" y2="-10"/><g class="mut m1"><polyline class="sym" points="2.5,-6.5 0,-1.5 -2.5,-6.5"/></g></g><g class="site s2" transform="translate(885.92 363.2)"><line class="sym" x1="0" x2="0" y1="0" y2="-10"/><g class="mut m2"><polyline class="sym" points="2.5,-6.5 0,-1.5 -2.5,-6.5"/></g></g></g></g><g class="plotbox trees"><g class="tree t0" transform="translate(20 0)"><g class="plotbox"><g class="c2 node n38 p1 root" transform="translate(477.305 26.8)"><g class="a38 c2 m1 m2 node n36 p2 s1 s2" transform="translate(264.68 218.658)"><g class="a36 c2 node n34 p2" transform="translate(117.516 20.3177)"><g class="a34 i17 leaf node n17 p2 sample" transform="translate(57.5 55.6244)"><path class="edge" d="M 0 0 V -55.6244 H -57.5"/><rect class="sym" height="6" width="6" x="-3" y="-3"/><text class="lab" transform="translate(0 11)">17</text></g><g class="a34 c2 node n25 p1" transform="translate(-57.5 45.2233)"><g class="a25 c2 node n23 p1" transform="translate(46 4.46019)"><g class="a23 i9 leaf node n9 p1 sample" transform="translate(-23 5.94097)"><path class="edge" d="M 0 0 V -5.94097 H 23"/><rect class="sym" height="6" width="6" x="-3" y="-3"/><text class="lab" transform="translate(0 11)">9</text></g><g class="a23 i14 leaf node n14 p2 sample" transform="translate(23 5.94097)"><path class="edge" d="M 0 0 V -5.94097 H -23"/><rect class="sym" height="6" width="6" x="-3" y="-3"/><text class="lab" transform="translate(0 11)">14</text></g><path class="edge" d="M 0 0 V -4.46019 H -46"/><circle class="sym" cx="0" cy="0" r="3"/><text class="lab rgt" transform="translate(3 -7)">23</text></g><g class="a25 c2 node n24 p2" transform="translate(-46 4.01923)"><g class="a24 i8 leaf node n8 p1 sample" transform="translate(-23 6.38193)"><path class="edge" d="M 0 0 V -6.38193 H 23"/><rect class="sym" height="6" width="6" x="-3" y="-3"/><text class="lab" transform="translate(0 11)">8</text></g><g class="a24 i10 leaf node n10 p2 sample" transform="translate(23 6.38193)"><path class="edge" d="M 0 0 V -6.38193 H -23"/><rect class="sym" height="6" width="6" x="-3" y="-3"/><text class="lab" transform="translate(0 11)">10</text></g><path class="edge" d="M 0 0 V -4.01923 H 46"/><circle class="sym" cx="0" cy="0" r="3"/><text class="lab lft" transform="translate(-3 -7)">24</text></g><path class="edge" d="M 0 0 V -45.2233 H 57.5"/><circle class="sym" cx="0" cy="0" r="3"/><text class="lab lft" transform="translate(-3 -7)">25</text></g><path class="edge" d="M 0 0 V -20.3177 H -117.516"/><circle class="sym" cx="0" cy="0" r="3"/><text class="lab rgt" transform="translate(3 -7)">34</text></g><g class="a36 c2 node n35 p1" transform="translate(-117.516 13.2469)"><g class="a35 i4 leaf node n4 p1 sample" transform="translate(62.5312 62.6952)"><path class="edge" d="M 0 0 V -62.6952 H -62.5312"/><rect class="sym" height="6" width="6" x="-3" y="-3"/><text class="lab" transform="translate(0 11)">4</text></g><g class="a35 c2 node n33 p2" transform="translate(-62.5312 21.0494)"><g class="a33 c2 node n27 p1" transform="translate(56.0625 24.7925)"><g class="a27 i7 leaf node n7 p1 sample" transform="translate(-23 16.8533)"><path class="edge" d="M 0 0 V -16.8533 H 23"/><rect class="sym" height="6" width="6" x="-3" y="-3"/><text class="lab" transform="translate(0 11)">7</text></g><g class="a27 i13 leaf node n13 p2 sample" transform="translate(23 16.8533)"><path class="edge" d="M 0 0 V -16.8533 H -23"/><rect class="sym" height="6" width="6" x="-3" y="-3"/><text class="lab" transform="translate(0 11)">13</text></g><path class="edge" d="M 0 0 V -24.7925 H -56.0625"/><circle class="sym" cx="0" cy="0" r="3"/><text class="lab rgt" transform="translate(3 -7)">27</text></g><g class="a33 c2 m0 node n30 p1 s0" transform="translate(-56.0625 16.1993)"><g class="a30 i6 leaf node n6 p1 sample" transform="translate(43.125 25.4465)"><path class="edge" d="M 0 0 V -25.4465 H -43.125"/><rect class="sym" height="6" width="6" x="-3" y="-3"/><text class="lab" transform="translate(0 11)">6</text></g><g class="a30 c2 node n29 p2" transform="translate(-43.125 1.97316)"><g class="a29 i11 leaf node n11 p2 sample" transform="translate(40.25 23.4734)"><path class="edge" d="M 0 0 V -23.4734 H -40.25"/><rect class="sym" height="6" width="6" x="-3" y="-3"/><text class="lab" transform="translate(0 11)">11</text></g><g class="a29 c2 node n28 p1" transform="translate(-40.25 5.0555)"><g class="a28 i19 leaf node n19 p2 sample" transform="translate(34.5 18.4179)"><path class="edge" d="M 0 0 V -18.4179 H -34.5"/><rect class="sym" height="6" width="6" x="-3" y="-3"/><text class="lab" transform="translate(0 11)">19</text></g><g class="a28 c2 node n21 p2" transform="translate(-34.5 16.8139)"><g class="a21 i1 leaf node n1 p1 sample" transform="translate(-23 1.60394)"><path class="edge" d="M 0 0 V -1.60394 H 23"/><rect class="sym" height="6" width="6" x="-3" y="-3"/><text class="lab" transform="translate(0 11)">1</text></g><g class="a21 i16 leaf node n16 p2 sample" transform="translate(23 1.60394)"><path class="edge" d="M 0 0 V -1.60394 H -23"/><rect class="sym" height="6" width="6" x="-3" y="-3"/><text class="lab" transform="translate(0 11)">16</text></g><path class="edge" d="M 0 0 V -16.8139 H 34.5"/><circle class="sym" cx="0" cy="0" r="3"/><text class="lab lft" transform="translate(-3 -7)">21</text></g><path class="edge" d="M 0 0 V -5.0555 H 40.25"/><circle class="sym" cx="0" cy="0" r="3"/><text class="lab lft" transform="translate(-3 -7)">28</text></g><path class="edge" d="M 0 0 V -1.97316 H 43.125"/><circle class="sym" cx="0" cy="0" r="3"/><text class="lab lft" transform="translate(-3 -7)">29</text></g><path class="edge" d="M 0 0 V -16.1993 H 56.0625"/><g class="mut m0 s0" transform="translate(0 -6.91578)"><line x1="0" x2="0" y1="0" y2="6.91578"/><path class="sym" d="M -3,-3 l 6,6 M -3,3 l 6,-6"/><text class="lab lft" transform="translate(-5 0)">0</text></g><circle class="sym" cx="0" cy="0" r="3"/><text class="lab lft" transform="translate(-3 -7)">30</text></g><path class="edge" d="M 0 0 V -21.0494 H 62.5312"/><circle class="sym" cx="0" cy="0" r="3"/><text class="lab lft" transform="translate(-3 -7)">33</text></g><path class="edge" d="M 0 0 V -13.2469 H 117.516"/><circle class="sym" cx="0" cy="0" r="3"/><text class="lab lft" transform="translate(-3 -7)">35</text></g><path class="edge" d="M 0 0 V -218.658 H -264.68"/><g class="mut m2 s2" transform="translate(0 -213.974)"><line x1="0" x2="0" y1="0" y2="213.974"/><path class="sym" d="M -3,-3 l 6,6 M -3,3 l 6,-6"/><text class="lab rgt" transform="translate(5 0)">2</text></g><g class="mut m1 s1" transform="translate(0 -46.0341)"><line x1="0" x2="0" y1="0" y2="46.0341"/><path class="sym" d="M -3,-3 l 6,6 M -3,3 l 6,-6"/><text class="lab rgt" transform="translate(5 0)">1</text></g><circle class="sym" cx="0" cy="0" r="3"/><text class="lab rgt" transform="translate(3 -7)">36</text></g><g class="a38 c2 node n37 p1" transform="translate(-264.68 94.3239)"><g class="a37 c2 node n26 p2" transform="translate(71.875 189.002)"><g class="a26 i18 leaf node n18 p2 sample" transform="translate(34.5 11.2738)"><path class="edge" d="M 0 0 V -11.2738 H -34.5"/><rect class="sym" height="6" width="6" x="-3" y="-3"/><text class="lab" transform="translate(0 11)">18</text></g><g class="a26 c2 node n22 p2" transform="translate(-34.5 9.15008)"><g class="a22 i3 leaf node n3 p1 sample" transform="translate(-23 2.12376)"><path class="edge" d="M 0 0 V -2.12376 H 23"/><rect class="sym" height="6" width="6" x="-3" y="-3"/><text class="lab" transform="translate(0 11)">3</text></g><g class="a22 i12 leaf node n12 p2 sample" transform="translate(23 2.12376)"><path class="edge" d="M 0 0 V -2.12376 H -23"/><rect class="sym" height="6" width="6" x="-3" y="-3"/><text class="lab" transform="translate(0 11)">12</text></g><path class="edge" d="M 0 0 V -9.15008 H 34.5"/><circle class="sym" cx="0" cy="0" r="3"/><text class="lab lft" transform="translate(-3 -7)">22</text></g><path class="edge" d="M 0 0 V -189.002 H -71.875"/><circle class="sym" cx="0" cy="0" r="3"/><text class="lab rgt" transform="translate(3 -7)">26</text></g><g class="a37 c2 node n32 p2" transform="translate(-71.875 166.172)"><g class="a32 i15 leaf node n15 p2 sample" transform="translate(40.25 34.1038)"><path class="edge" d="M 0 0 V -34.1038 H -40.25"/><rect class="sym" height="6" width="6" x="-3" y="-3"/><text class="lab" transform="translate(0 11)">15</text></g><g class="a32 c2 node n31 p2" transform="translate(-40.25 8.24034)"><g class="a31 i2 leaf node n2 p1 sample" transform="translate(34.5 25.8635)"><path class="edge" d="M 0 0 V -25.8635 H -34.5"/><rect class="sym" height="6" width="6" x="-3" y="-3"/><text class="lab" transform="translate(0 11)">2</text></g><g class="a31 c2 node n20 p1" transform="translate(-34.5 25.0461)"><g class="a20 i0 leaf node n0 p1 sample" transform="translate(-23 0.817393)"><path class="edge" d="M 0 0 V -0.817393 H 23"/><rect class="sym" height="6" width="6" x="-3" y="-3"/><text class="lab" transform="translate(0 11)">0</text></g><g class="a20 i5 leaf node n5 p1 sample" transform="translate(23 0.817393)"><path class="edge" d="M 0 0 V -0.817393 H -23"/><rect class="sym" height="6" width="6" x="-3" y="-3"/><text class="lab" transform="translate(0 11)">5</text></g><path class="edge" d="M 0 0 V -25.0461 H 34.5"/><circle class="sym" cx="0" cy="0" r="3"/><text class="lab lft" transform="translate(-3 -7)">20</text></g><path class="edge" d="M 0 0 V -8.24034 H 40.25"/><circle class="sym" cx="0" cy="0" r="3"/><text class="lab lft" transform="translate(-3 -7)">31</text></g><path class="edge" d="M 0 0 V -166.172 H 71.875"/><circle class="sym" cx="0" cy="0" r="3"/><text class="lab lft" transform="translate(-3 -7)">32</text></g><path class="edge" d="M 0 0 V -94.3239 H 264.68"/><circle class="sym" cx="0" cy="0" r="3"/><text class="lab lft" transform="translate(-3 -7)">37</text></g><circle class="sym" cx="0" cy="0" r="3"/><text class="lab" transform="translate(0 -11)">38</text></g></g></g></g></g></svg>