<svg baseProfile="full" height="400" version="1.1" width="1000" xmlns="http://www.w3.org/2000/svg" xmlns:ev="http://www.w3.org/2001/xml-events" xmlns:xlink="http://www.w3.org/1999/xlink"><defs><style type="text/css"><![CDATA[.background path {fill: #808080; fill-opacity: 0}.background path:nth-child(odd) {fill-opacity: .1}.x-regions rect {fill: yellow; stroke: black; opacity: 0.5}.axes {font-size: 14px}.x-axis .tick .lab {font-weight: bold; dominant-baseline: hanging}.axes, .tree {font-size: 14px; text-anchor: middle}.axes line, .edge {stroke: black; fill: none}.axes .ax-skip {stroke-dasharray: 4}.y-axis .grid {stroke: #FAFAFA}.node > .sym {fill: black; stroke: none}.site > .sym {stroke: black}.mut text {fill: red; font-style: italic}.mut.extra text {fill: hotpink}.mut line {fill: none; stroke: none}.mut .sym {fill: none; stroke: red}.mut.extra .sym {stroke: hotpink}.node .mut .sym {stroke-width: 1.5px}.tree text, .tree-sequence text {dominant-baseline: central}.plotbox .lab.lft {text-anchor: end}.plotbox .lab.rgt {text-anchor: start}.polytomy line {stroke: black; stroke-dasharray: 1px, 1px}.polytomy text {paint-order:stroke;stroke-width:0.3em;stroke:white}]]></style></defs><g class="tree-sequence"><g class="background"><path d="M20,0 l960,0 l0,338.2 l0,25 l0,5 l-960,0 l0,-5 l0,-25 l0,-338.2z"/></g><g class="axes"><g class="x-axis"><g class="title" transform="translate(500 400)"><text class="lab" text-anchor="middle" transform="translate(0 -11)">Genome position</text></g><line class="ax-line" x1="20" x2="980" y1="363.2" y2="363.2"/><g class="ticks"><g class="tick" transform="translate(20 363.2)"><line x1="0" x2="0" y1="0" y2="5"/><g transform="translate(0 6)"><text class="lab">0</text></g></g><g class="tick" transform="translate(980 363.2)"><line x1="0" x2="0" y1="0" y2="5"/><g transform="translate(0 6)"><text class="lab">1000</text></g></g></g><g class="site s0" transform="translate(177.44 363.2)"><line class="sym" x1="0" x2="0" y1="0" y2="-10"/><g class="mut m0"><polyline class="sym" points="2.5,-6.5 0,-1.5 -2.5,-6.5"/></g></g><g class="site s1" transform="translate(509.6 363.2)"><line class="sym" x1="0" x2="0" y1="0" y2="-10"/><g class="mut m1"><polyline class="sym" points="2.5,-6.5 0,-1.5 -2.5,-6.5"/></g></g><g class="site s2" transform="translate(701.6 363.2)"><line class="sym" x1="0" x2="0" y1="0" y2="-10"/><g class="mut m2"><polyline class="sym" points="2.5,-6.5 0,-1.5 -2.5,-6.5"/></g></g></g></g><g class="plotbox trees"><g class="tree t0" transform="translate(20 0)"><g class="plotbox"><g class="c2 node n38 p2 root" transform="translate(593.562 26.8)"><g class="a38 c2 node n34 p2" transform="translate(175.375 224.165)"><g class="a34 i1 leaf node n1 p1 sample" transform="translate(-81.9375 70.4354)"><path class="edge" d="M 0 0 V -70.4354 H 81.9375"/><rect class="sym" height="6" width="6" x="-3" y="-3"/><text class="lab" transform="translate(0 11)">1</text></g><g class="a34 c2 node n30 p1" transform="translate(81.9375 52.8214)"><g class="a30 i12 leaf node n12 p2 sample" transform="translate(66.125 17.614)"><path class="edge" d="M 0 0 V -17.614 H -66.125"/><rect class="sym" height="6" width="6" x="-3" y="-3"/><text class="lab" transform="translate(0 11)">12</text></g><g class="a30 c2 node n29 p1" transform="translate(-66.125 1.22383)"><g class="a29 i5 leaf node n5 p1 sample" transform="translate(-51.75 16.3902)"><path class="edge" d="M 0 0 V -16.3902 H 51.75"/><rect class="sym" height="6" width="6" x="-3" y="-3"/><text class="lab" transform="translate(0 11)">5</text></g><g class="a29 c2 node n25 p2" transform="translate(51.75 4.35053)"><g class="a25 i14 leaf node n14 p2 sample" transform="translate(34.5 12.0396)"><path class="edge" d="M 0 0 V -12.0396 H -34.5"/><rect class="sym" height="6" width="6" x="-3" y="-3"/><text class="lab" transform="translate(0 11)">14</text></g><g class="a25 c2 node n21 p2" transform="translate(-34.5 7.24021)"><g class="a21 i7 leaf node n7 p1 sample" transform="translate(-23 4.79943)"><path class="edge" d="M 0 0 V -4.79943 H 23"/><rect class="sym" height="6" width="6" x="-3" y="-3"/><text class="lab" transform="translate(0 11)">7</text></g><g class="a21 i9 leaf node n9 p1 sample" transform="translate(23 4.79943)"><path class="edge" d="M 0 0 V -4.79943 H -23"/><rect class="sym" height="6" width="6" x="-3" y="-3"/><text class="lab" transform="translate(0 11)">9</text></g><path class="edge" d="M 0 0 V -7.24021 H 34.5"/><circle class="sym" cx="0" cy="0" r="3"/><text class="lab lft" transform="translate(-3 -7)">21</text></g><path class="edge" d="M 0 0 V -4.35053 H -51.75"/><circle class="sym" cx="0" cy="0" r="3"/><text class="lab rgt" transform="translate(3 -7)">25</text></g><path class="edge" d="M 0 0 V -1.22383 H 66.125"/><circle class="sym" cx="0" cy="0" r="3"/><text class="lab lft" transform="translate(-3 -7)">29</text></g><path class="edge" d="M 0 0 V -52.8214 H -81.9375"/><circle class="sym" cx="0" cy="0" r="3"/><text class="lab rgt" transform="translate(3 -7)">30</text></g><path class="edge" d="M 0 0 V -224.165 H -175.375"/><circle class="sym" cx="0" cy="0" r="3"/><text class="lab rgt" transform="translate(3 -7)">34</text></g><g class="a38 c2 m2 node n37 p1 s2" transform="translate(-175.375 159.375)"><g class="a37 c2 node n32 p1" transform="translate(-162.438 93.2807)"><g class="a32 c2 node n27 p1" transform="translate(-86.25 27.7873)"><g class="a27 c2 node n24 p1" transform="translate(69 3.55936)"><g class="a24 i4 leaf node n4 p1 sample" transform="translate(34.5 10.5979)"><path class="edge" d="M 0 0 V -10.5979 H -34.5"/><rect class="sym" height="6" width="6" x="-3" y="-3"/><text class="lab" transform="translate(0 11)">4</text></g><g class="a24 c2 node n22 p2" transform="translate(-34.5 5.48673)"><g class="a22 i2 leaf node n2 p1 sample" transform="translate(-23 5.11114)"><path class="edge" d="M 0 0 V -5.11114 H 23"/><rect class="sym" height="6" width="6" x="-3" y="-3"/><text class="lab" transform="translate(0 11)">2</text></g><g class="a22 i15 leaf node n15 p2 sample" transform="translate(23 5.11114)"><path class="edge" d="M 0 0 V -5.11114 H -23"/><rect class="sym" height="6" width="6" x="-3" y="-3"/><text class="lab" transform="translate(0 11)">15</text></g><path class="edge" d="M 0 0 V -5.48673 H 34.5"/><circle class="sym" cx="0" cy="0" r="3"/><text class="lab lft" transform="translate(-3 -7)">22</text></g><path class="edge" d="M 0 0 V -3.55936 H -69"/><circle class="sym" cx="0" cy="0" r="3"/><text class="lab rgt" transform="translate(3 -7)">24</text></g><g class="a27 c2 node n26 p1" transform="translate(-69 0.813659)"><g class="a26 i3 leaf node n3 p1 sample" transform="translate(34.5 13.3436)"><path class="edge" d="M 0 0 V -13.3436 H -34.5"/><rect class="sym" height="6" width="6" x="-3" y="-3"/><text class="lab" transform="translate(0 11)">3</text></g><g class="a26 c2 node n20 p2" transform="translate(-34.5 11.4871)"><g class="a20 i0 leaf node n0 p1 sample" transform="translate(-23 1.85652)"><path class="edge" d="M 0 0 V -1.85652 H 23"/><rect class="sym" height="6" width="6" x="-3" y="-3"/><text class="lab" transform="translate(0 11)">0</text></g><g class="a20 i18 leaf node n18 p2 sample" transform="translate(23 1.85652)"><path class="edge" d="M 0 0 V -1.85652 H -23"/><rect class="sym" height="6" width="6" x="-3" y="-3"/><text class="lab" transform="translate(0 11)">18</text></g><path class="edge" d="M 0 0 V -11.4871 H 34.5"/><circle class="sym" cx="0" cy="0" r="3"/><text class="lab lft" transform="translate(-3 -7)">20</text></g><path class="edge" d="M 0 0 V -0.813659 H 69"/><circle class="sym" cx="0" cy="0" r="3"/><text class="lab lft" transform="translate(-3 -7)">26</text></g><path class="edge" d="M 0 0 V -27.7873 H 86.25"/><circle class="sym" cx="0" cy="0" r="3"/><text class="lab lft" transform="translate(-3 -7)">27</text></g><g class="a32 c2 node n28 p1" transform="translate(86.25 26.929)"><g class="a28 i16 leaf node n16 p2 sample" transform="translate(-23 15.0156)"><path class="edge" d="M 0 0 V -15.0156 H 23"/><rect class="sym" height="6" width="6" x="-3" y="-3"/><text class="lab" transform="translate(0 11)">16</text></g><g class="a28 i19 leaf node n19 p2 sample" transform="translate(23 15.0156)"><path class="edge" d="M 0 0 V -15.0156 H -23"/><rect class="sym" height="6" width="6" x="-3" y="-3"/><text class="lab" transform="translate(0 11)">19</text></g><path class="edge" d="M 0 0 V -26.929 H -86.25"/><circle class="sym" cx="0" cy="0" r="3"/><text class="lab rgt" transform="translate(3 -7)">28</text></g><path class="edge" d="M 0 0 V -93.2807 H 162.438"/><circle class="sym" cx="0" cy="0" r="3"/><text class="lab lft" transform="translate(-3 -7)">32</text></g><g class="a37 c2 m1 node n36 p1 s1" transform="translate(162.438 42.7498)"><g class="a36 i10 leaf node n10 p2 sample" transform="translate(60.375 92.4755)"><path class="edge" d="M 0 0 V -92.4755 H -60.375"/><rect class="sym" height="6" width="6" x="-3" y="-3"/><text class="lab" transform="translate(0 11)">10</text></g><g class="a36 c2 node n35 p2" transform="translate(-60.375 13.2915)"><g class="a35 c2 node n31 p1" transform="translate(-51.75 40.5892)"><g class="a31 i11 leaf node n11 p2 sample" transform="translate(34.5 38.5948)"><path class="edge" d="M 0 0 V -38.5948 H -34.5"/><rect class="sym" height="6" width="6" x="-3" y="-3"/><text class="lab" transform="translate(0 11)">11</text></g><g class="a31 c2 node n23 p1" transform="translate(-34.5 29.197)"><g class="a23 i6 leaf node n6 p1 sample" transform="translate(-23 9.39783)"><path class="edge" d="M 0 0 V -9.39783 H 23"/><rect class="sym" height="6" width="6" x="-3" y="-3"/><text class="lab" transform="translate(0 11)">6</text></g><g class="a23 i8 leaf node n8 p1 sample" transform="translate(23 9.39783)"><path class="edge" d="M 0 0 V -9.39783 H -23"/><rect class="sym" height="6" width="6" x="-3" y="-3"/><text class="lab" transform="translate(0 11)">8</text></g><path class="edge" d="M 0 0 V -29.197 H 34.5"/><circle class="sym" cx="0" cy="0" r="3"/><text class="lab lft" transform="translate(-3 -7)">23</text></g><path class="edge" d="M 0 0 V -40.5892 H 51.75"/><circle class="sym" cx="0" cy="0" r="3"/><text class="lab lft" transform="translate(-3 -7)">31</text></g><g class="a35 c2 node n33 p2" transform="translate(51.75 12.5272)"><g class="a33 i13 leaf m0 node n13 p2 s0 sample" transform="translate(-23 66.6568)"><path class="edge" d="M 0 0 V -66.6568 H 23"/><g class="mut m0 s0" transform="translate(0 -24.3374)"><line x1="0" x2="0" y1="0" y2="24.3374"/><path class="sym" d="M -3,-3 l 6,6 M -3,3 l 6,-6"/><text class="lab lft" transform="translate(-5 0)">0</text></g><rect class="sym" height="6" width="6" x="-3" y="-3"/><text class="lab" transform="translate(0 11)">13</text></g><g class="a33 i17 leaf node n17 p2 sample" transform="translate(23 66.6568)"><path class="edge" d="M 0 0 V -66.6568 H -23"/><rect class="sym" height="6" width="6" x="-3" y="-3"/><text class="lab" transform="translate(0 11)">17</text></g><path class="edge" d="M 0 0 V -12.5272 H -51.75"/><circle class="sym" cx="0" cy="0" r="3"/><text class="lab rgt" transform="translate(3 -7)">33</text></g><path class="edge" d="M 0 0 V -13.2915 H 60.375"/><circle class="sym" cx="0" cy="0" r="3"/><text class="lab lft" transform="translate(-3 -7)">35</text></g><path class="edge" d="M 0 0 V -42.7498 H -162.438"/><g class="mut m1 s1" transform="translate(0 -4.81645)"><line x1="0" x2="0" y1="0" y2="4.81645"/><path class="sym" d="M -3,-3 l 6,6 M -3,3 l 6,-6"/><text class="lab rgt" transform="translate(5 0)">1</text></g><circle class="sym" cx="0" cy="0" r="3"/><text class="lab rgt" transform="translate(3 -7)">36</text></g><path class="edge" d="M 0 0 V -159.375 H 175.375"/><g class="mut m2 s2" transform="translate(0 -25.2842)"><line x1="0" x2="0" y1="0" y2="25.2842"/><path class="sym" d="M -3,-3 l 6,6 M -3,3 l 6,-6"/><text class="lab lft" transform="translate(-5 0)">2</text></g><circle class="sym" cx="0" cy="0" r="3"/><text class="lab lft" transform="translate(-3 -7)">37</text></g><circle class="sym" cx="0" cy="0" r="3"/><text class="lab" transform="translate(0 -11)">38</text></g></g></g></g></g></svg>