<svg baseProfile="full" height="400" version="1.1" width="1000" xmlns="http://www.w3.org/2000/svg" xmlns:ev="http://www.w3.org/2001/xml-events" xmlns:xlink="http://www.w3.org/1999/xlink"><defs><style type="text/css"><![CDATA[.background path {fill: #808080; fill-opacity: 0}.background path:nth-child(odd) {fill-opacity: .1}.x-regions rect {fill: yellow; stroke: black; opacity: 0.5}.axes {font-size: 14px}.x-axis .tick .lab {font-weight: bold; dominant-baseline: hanging}.axes, .tree {font-size: 14px; text-anchor: middle}.axes line, .edge {stroke: black; fill: none}.axes .ax-skip {stroke-dasharray: 4}.y-axis .grid {stroke: #FAFAFA}.node > .sym {fill: black; stroke: none}.site > .sym {stroke: black}.mut text {fill: red; font-style: italic}.mut.extra text {fill: hotpink}.mut line {fill: none; stroke: none}.mut .sym {fill: none; stroke: red}.mut.extra .sym {stroke: hotpink}.node .mut .sym {stroke-width: 1.5px}.tree text, .tree-sequence text {dominant-baseline: central}.plotbox .lab.lft {text-anchor: end}.plotbox .lab.rgt {text-anchor: start}.polytomy line {stroke: black; stroke-dasharray: 1px, 1px}.polytomy text {paint-order:stroke;stroke-width:0.3em;stroke:white}]]></style></defs><g class="tree-sequence"><g class="background"><path d="M20,0 l960,0 l0,338.2 l0,25 l0,5 l-960,0 l0,-5 l0,-25 l0,-338.2z"/></g><g class="axes"><g class="x-axis"><g class="title" transform="translate(500 400)"><text class="lab" text-anchor="middle" transform="translate(0 -11)">Genome position</text></g><line class="ax-line" x1="20" x2="980" y1="363.2" y2="363.2"/><g class="ticks"><g class="tick" transform="translate(20 363.2)"><line x1="0" x2="0" y1="0" y2="5"/><g transform="translate(0 6)"><text class="lab">0</text></g></g><g class="tick" transform="translate(980 363.2)"><line x1="0" x2="0" y1="0" y2="5"/><g transform="translate(0 6)"><text class="lab">1000</text></g></g></g><g class="site s0" transform="translate(43.04 363.2)"><line class="sym" x1="0" x2="0" y1="0" y2="-10"/><g class="mut m0"><polyline class="sym" points="2.5,-6.5 0,-1.5 -2.5,-6.5"/></g></g><g class="site s1" transform="translate(65.12 363.2)"><line class="sym" x1="0" x2="0" y1="0" y2="-10"/><g class="mut m1"><polyline class="sym" points="2.5,-6.5 0,-1.5 -2.5,-6.5"/></g></g><g class="site s2" transform="translate(270.56 363.2)"><line class="sym" x1="0" x2="0" y1="0" y2="-10"/><g class="mut m2"><polyline class="sym" points="2.5,-6.5 0,-1.5 -2.5,-6.5"/></g></g><g class="site s3" transform="translate(395.36 363.2)"><line class="sym" x1="0" x2="0" y1="0" y2="-10"/><g class="mut m3"><polyline class="sym" points="2.5,-6.5 0,-1.5 -2.5,-6.5"/></g></g></g></g><g class="plotbox trees"><g class="tree t0" transform="translate(20 0)"><g class="plotbox"><g class="c2 node n38 p0 root" transform="translate(707.664 26.8)"><g class="a38 c2 node n33 p0" transform="translate(151.836 227.043)"><g class="a33 i3 leaf node n3 p1 sample" transform="translate(-34.5 67.557)"><path class="edge" d="M 0 0 V -67.557 H 34.5"/><rect class="sym" height="6" width="6" x="-3" y="-3"/><text class="lab" transform="translate(0 11)">3</text></g><g class="a33 c2 node n25 p1" transform="translate(34.5 54.7523)"><g class="a25 i8 leaf node n8 p1 sample" transform="translate(-23 12.8047)"><path class="edge" d="M 0 0 V -12.8047 H 23"/><rect class="sym" height="6" width="6" x="-3" y="-3"/><text class="lab" transform="translate(0 11)">8</text></g><g class="a25 i10 leaf node n10 p2 sample" transform="translate(23 12.8047)"><path class="edge" d="M 0 0 V -12.8047 H -23"/><rect class="sym" height="6" width="6" x="-3" y="-3"/><text class="lab" transform="translate(0 11)">10</text></g><path class="edge" d="M 0 0 V -54.7523 H -34.5"/><circle class="sym" cx="0" cy="0" r="3"/><text class="lab rgt" transform="translate(3 -7)">25</text></g><path class="edge" d="M 0 0 V -227.043 H -151.836"/><circle class="sym" cx="0" cy="0" r="3"/><text class="lab rgt" transform="translate(3 -7)">33</text></g><g class="a38 c2 node n37 p0" transform="translate(-151.836 110.647)"><g class="a37 c2 node n34 p0" transform="translate(-157.047 104.377)"><g class="a34 c2 node n28 p1" transform="translate(127.219 55.6746)"><g class="a28 i14 leaf node n14 p2 sample" transform="translate(-23 23.9008)"><path class="edge" d="M 0 0 V -23.9008 H 23"/><rect class="sym" height="6" width="6" x="-3" y="-3"/><text class="lab" transform="translate(0 11)">14</text></g><g class="a28 i18 leaf node n18 p2 sample" transform="translate(23 23.9008)"><path class="edge" d="M 0 0 V -23.9008 H -23"/><rect class="sym" height="6" width="6" x="-3" y="-3"/><text class="lab" transform="translate(0 11)">18</text></g><path class="edge" d="M 0 0 V -55.6746 H -127.219"/><circle class="sym" cx="0" cy="0" r="3"/><text class="lab rgt" transform="translate(3 -7)">28</text></g><g class="a34 c2 node n31 p0" transform="translate(-127.219 20.1238)"><g class="a31 c2 node n27 p1" transform="translate(-110.688 40.4963)"><g class="a27 i15 leaf node n15 p2 sample" transform="translate(66.125 18.9554)"><path class="edge" d="M 0 0 V -18.9554 H -66.125"/><rect class="sym" height="6" width="6" x="-3" y="-3"/><text class="lab" transform="translate(0 11)">15</text></g><g class="a27 c2 node n26 p2" transform="translate(-66.125 5.59081)"><g class="a26 i0 leaf node n0 p1 sample" transform="translate(-51.75 13.3646)"><path class="edge" d="M 0 0 V -13.3646 H 51.75"/><rect class="sym" height="6" width="6" x="-3" y="-3"/><text class="lab" transform="translate(0 11)">0</text></g><g class="a26 c2 node n21 p2" transform="translate(51.75 11.8978)"><g class="a21 i11 leaf node n11 p2 sample" transform="translate(34.5 1.46674)"><path class="edge" d="M 0 0 V -1.46674 H -34.5"/><rect class="sym" height="6" width="6" x="-3" y="-3"/><text class="lab" transform="translate(0 11)">11</text></g><g class="a21 c2 node n20 p1" transform="translate(-34.5 0.192791)"><g class="a20 i4 leaf node n4 p1 sample" transform="translate(-23 1.27395)"><path class="edge" d="M 0 0 V -1.27395 H 23"/><rect class="sym" height="6" width="6" x="-3" y="-3"/><text class="lab" transform="translate(0 11)">4</text></g><g class="a20 i17 leaf node n17 p2 sample" transform="translate(23 1.27395)"><path class="edge" d="M 0 0 V -1.27395 H -23"/><rect class="sym" height="6" width="6" x="-3" y="-3"/><text class="lab" transform="translate(0 11)">17</text></g><path class="edge" d="M 0 0 V -0.192791 H 34.5"/><circle class="sym" cx="0" cy="0" r="3"/><text class="lab lft" transform="translate(-3 -7)">20</text></g><path class="edge" d="M 0 0 V -11.8978 H -51.75"/><circle class="sym" cx="0" cy="0" r="3"/><text class="lab rgt" transform="translate(3 -7)">21</text></g><path class="edge" d="M 0 0 V -5.59081 H 66.125"/><circle class="sym" cx="0" cy="0" r="3"/><text class="lab lft" transform="translate(-3 -7)">26</text></g><path class="edge" d="M 0 0 V -40.4963 H 110.688"/><circle class="sym" cx="0" cy="0" r="3"/><text class="lab lft" transform="translate(-3 -7)">27</text></g><g class="a31 c2 node n30 p2" transform="translate(110.688 7.01254)"><g class="a30 c2 node n23 p2" transform="translate(-51.75 49.112)"><g class="a23 i9 leaf node n9 p1 sample" transform="translate(34.5 3.32713)"><path class="edge" d="M 0 0 V -3.32713 H -34.5"/><rect class="sym" height="6" width="6" x="-3" y="-3"/><text class="lab" transform="translate(0 11)">9</text></g><g class="a23 c2 node n22 p2" transform="translate(-34.5 0.225666)"><g class="a22 i1 leaf node n1 p1 sample" transform="translate(-23 3.10146)"><path class="edge" d="M 0 0 V -3.10146 H 23"/><rect class="sym" height="6" width="6" x="-3" y="-3"/><text class="lab" transform="translate(0 11)">1</text></g><g class="a22 i16 leaf node n16 p2 sample" transform="translate(23 3.10146)"><path class="edge" d="M 0 0 V -3.10146 H -23"/><rect class="sym" height="6" width="6" x="-3" y="-3"/><text class="lab" transform="translate(0 11)">16</text></g><path class="edge" d="M 0 0 V -0.225666 H 34.5"/><circle class="sym" cx="0" cy="0" r="3"/><text class="lab lft" transform="translate(-3 -7)">22</text></g><path class="edge" d="M 0 0 V -49.112 H 51.75"/><circle class="sym" cx="0" cy="0" r="3"/><text class="lab lft" transform="translate(-3 -7)">23</text></g><g class="a30 c2 node n24 p1" transform="translate(51.75 47.2729)"><g class="a24 i2 leaf node n2 p1 sample" transform="translate(-23 5.16621)"><path class="edge" d="M 0 0 V -5.16621 H 23"/><rect class="sym" height="6" width="6" x="-3" y="-3"/><text class="lab" transform="translate(0 11)">2</text></g><g class="a24 i12 leaf node n12 p2 sample" transform="translate(23 5.16621)"><path class="edge" d="M 0 0 V -5.16621 H -23"/><rect class="sym" height="6" width="6" x="-3" y="-3"/><text class="lab" transform="translate(0 11)">12</text></g><path class="edge" d="M 0 0 V -47.2729 H -51.75"/><circle class="sym" cx="0" cy="0" r="3"/><text class="lab rgt" transform="translate(3 -7)">24</text></g><path class="edge" d="M 0 0 V -7.01254 H -110.688"/><circle class="sym" cx="0" cy="0" r="3"/><text class="lab rgt" transform="translate(3 -7)">30</text></g><path class="edge" d="M 0 0 V -20.1238 H 127.219"/><circle class="sym" cx="0" cy="0" r="3"/><text class="lab lft" transform="translate(-3 -7)">31</text></g><path class="edge" d="M 0 0 V -104.377 H 157.047"/><circle class="sym" cx="0" cy="0" r="3"/><text class="lab lft" transform="translate(-3 -7)">34</text></g><g class="a37 c2 node n36 p0" transform="translate(157.047 43.481)"><g class="a36 i19 leaf m2 node n19 p2 s2 sample" transform="translate(66.125 140.472)"><path class="edge" d="M 0 0 V -140.472 H -66.125"/><g class="mut m2 s2" transform="translate(0 -131.055)"><line x1="0" x2="0" y1="0" y2="131.055"/><path class="sym" d="M -3,-3 l 6,6 M -3,3 l 6,-6"/><text class="lab rgt" transform="translate(5 0)">2</text></g><rect class="sym" height="6" width="6" x="-3" y="-3"/><text class="lab" transform="translate(0 11)">19</text></g><g class="a36 c2 node n35 p0" transform="translate(-66.125 20.9948)"><g class="a35 i5 leaf node n5 p1 sample" transform="translate(-51.75 119.477)"><path class="edge" d="M 0 0 V -119.477 H 51.75"/><rect class="sym" height="6" width="6" x="-3" y="-3"/><text class="lab" transform="translate(0 11)">5</text></g><g class="a35 c2 m0 m3 node n32 p0 s0 s3" transform="translate(51.75 54.2145)"><g class="a32 i13 leaf m1 node n13 p2 s1 sample" transform="translate(34.5 65.2624)"><path class="edge" d="M 0 0 V -65.2624 H -34.5"/><g class="mut m1 s1" transform="translate(0 -61.9878)"><line x1="0" x2="0" y1="0" y2="61.9878"/><path class="sym" d="M -3,-3 l 6,6 M -3,3 l 6,-6"/><text class="lab rgt" transform="translate(5 0)">1</text></g><rect class="sym" height="6" width="6" x="-3" y="-3"/><text class="lab" transform="translate(0 11)">13</text></g><g class="a32 c2 node n29 p2" transform="translate(-34.5 38.3351)"><g class="a29 i6 leaf node n6 p1 sample" transform="translate(-23 26.9272)"><path class="edge" d="M 0 0 V -26.9272 H 23"/><rect class="sym" height="6" width="6" x="-3" y="-3"/><text class="lab" transform="translate(0 11)">6</text></g><g class="a29 i7 leaf node n7 p1 sample" transform="translate(23 26.9272)"><path class="edge" d="M 0 0 V -26.9272 H -23"/><rect class="sym" height="6" width="6" x="-3" y="-3"/><text class="lab" transform="translate(0 11)">7</text></g><path class="edge" d="M 0 0 V -38.3351 H 34.5"/><circle class="sym" cx="0" cy="0" r="3"/><text class="lab lft" transform="translate(-3 -7)">29</text></g><path class="edge" d="M 0 0 V -54.2145 H -51.75"/><g class="mut m0 s0" transform="translate(0 -41.8067)"><line x1="0" x2="0" y1="0" y2="41.8067"/><path class="sym" d="M -3,-3 l 6,6 M -3,3 l 6,-6"/><text class="lab rgt" transform="translate(5 0)">0</text></g><g class="mut m3 s3" transform="translate(0 -10.7382)"><line x1="0" x2="0" y1="0" y2="10.7382"/><path class="sym" d="M -3,-3 l 6,6 M -3,3 l 6,-6"/><text class="lab rgt" transform="translate(5 0)">3</text></g><circle class="sym" cx="0" cy="0" r="3"/><text class="lab rgt" transform="translate(3 -7)">32</text></g><path class="edge" d="M 0 0 V -20.9948 H 66.125"/><circle class="sym" cx="0" cy="0" r="3"/><text class="lab lft" transform="translate(-3 -7)">35</text></g><path class="edge" d="M 0 0 V -43.481 H -157.047"/><circle class="sym" cx="0" cy="0" r="3"/><text class="lab rgt" transform="translate(3 -7)">36</text></g><path class="edge" d="M 0 0 V -110.647 H 151.836"/><circle class="sym" cx="0" cy="0" r="3"/><text class="lab lft" transform="translate(-3 -7)">37</text></g><circle class="sym" cx="0" cy="0" r="3"/><text class="lab" transform="translate(0 -11)">38</text></g></g></g></g></g></svg>