<svg baseProfile="full" height="400" version="1.1" width="1000" xmlns="http://www.w3.org/2000/svg" xmlns:ev="http://www.w3.org/2001/xml-events" xmlns:xlink="http://www.w3.org/1999/xlink"><defs><style type="text/css"><![CDATA[.background path {fill: #808080; fill-opacity: 0}.background path:nth-child(odd) {fill-opacity: .1}.x-regions rect {fill: yellow; stroke: black; opacity: 0.5}.axes {font-size: 14px}.x-axis .tick .lab {font-weight: bold; dominant-baseline: hanging}.axes, .tree {font-size: 14px; text-anchor: middle}.axes line, .edge {stroke: black; fill: none}.axes .ax-skip {stroke-dasharray: 4}.y-axis .grid {stroke: #FAFAFA}.node > .sym {fill: black; stroke: none}.site > .sym {stroke: black}.mut text {fill: red; font-style: italic}.mut.extra text {fill: hotpink}.mut line {fill: none; stroke: none}.mut .sym {fill: none; stroke: red}.mut.extra .sym {stroke: hotpink}.node .mut .sym {stroke-width: 1.5px}.tree text, .tree-sequence text {dominant-baseline: central}.plotbox .lab.lft {text-anchor: end}.plotbox .lab.rgt {text-anchor: start}.polytomy line {stroke: black; stroke-dasharray: 1px, 1px}.polytomy text {paint-order:stroke;stroke-width:0.3em;stroke:white}]]></style></defs><g class="tree-sequence"><g class="background"><path d="M20,0 l960,0 l0,338.2 l0,25 l0,5 l-960,0 l0,-5 l0,-25 l0,-338.2z"/></g><g class="axes"><g class="x-axis"><g class="title" transform="translate(500 400)"><text class="lab" text-anchor="middle" transform="translate(0 -11)">Genome position</text></g><line class="ax-line" x1="20" x2="980" y1="363.2" y2="363.2"/><g class="ticks"><g class="tick" transform="translate(20 363.2)"><line x1="0" x2="0" y1="0" y2="5"/><g transform="translate(0 6)"><text class="lab">0</text></g></g><g class="tick" transform="translate(980 363.2)"><line x1="0" x2="0" y1="0" y2="5"/><g transform="translate(0 6)"><text class="lab">1000</text></g></g></g><g class="site s0" transform="translate(275.36 363.2)"><line class="sym" x1="0" x2="0" y1="0" y2="-10"/><g class="mut m0"><polyline class="sym" points="2.5,-6.5 0,-1.5 -2.5,-6.5"/></g></g><g class="site s1" transform="translate(337.76 363.2)"><line class="sym" x1="0" x2="0" y1="0" y2="-10"/><g class="mut m1"><polyline class="sym" points="2.5,-6.5 0,-1.5 -2.5,-6.5"/></g></g><g class="site s2" transform="translate(527.84 363.2)"><line class="sym" x1="0" x2="0" y1="0" y2="-10"/><g class="mut m2"><polyline class="sym" points="2.5,-6.5 0,-1.5 -2.5,-6.5"/></g></g><g class="site s3" transform="translate(677.6 363.2)"><line class="sym" x1="0" x2="0" y1="0" y2="-10"/><g class="mut m3"><polyline class="sym" points="2.5,-6.5 0,-1.5 -2.5,-6.5"/></g></g></g></g><g class="plotbox trees"><g class="tree t0" transform="translate(20 0)"><g class="plotbox"><g class="c2 node n38 p2 root" transform="translate(258.984 26.8)"><g class="a38 i0 leaf node n0 p1 sample" transform="translate(-215.984 294.6)"><path class="edge" d="M 0 0 V -294.6 H 215.984"/><rect class="sym" height="6" width="6" x="-3" y="-3"/><text class="lab" transform="translate(0 11)">0</text></g><g class="a38 c2 m2 node n37 p1 s2" transform="translate(215.984 55.2261)"><g class="a37 c2 node n35 p2" transform="translate(-259.469 118.161)"><g class="a35 c2 node n27 p1" transform="translate(-69 105.271)"><g class="a27 i12 leaf node n12 p2 sample" transform="translate(34.5 15.9419)"><path class="edge" d="M 0 0 V -15.9419 H -34.5"/><rect class="sym" height="6" width="6" x="-3" y="-3"/><text class="lab" transform="translate(0 11)">12</text></g><g class="a27 c2 node n20 p1" transform="translate(-34.5 14.7363)"><g class="a20 i1 leaf node n1 p1 sample" transform="translate(-23 1.20556)"><path class="edge" d="M 0 0 V -1.20556 H 23"/><rect class="sym" height="6" width="6" x="-3" y="-3"/><text class="lab" transform="translate(0 11)">1</text></g><g class="a20 i19 leaf node n19 p2 sample" transform="translate(23 1.20556)"><path class="edge" d="M 0 0 V -1.20556 H -23"/><rect class="sym" height="6" width="6" x="-3" y="-3"/><text class="lab" transform="translate(0 11)">19</text></g><path class="edge" d="M 0 0 V -14.7363 H 34.5"/><circle class="sym" cx="0" cy="0" r="3"/><text class="lab lft" transform="translate(-3 -7)">20</text></g><path class="edge" d="M 0 0 V -105.271 H 69"/><circle class="sym" cx="0" cy="0" r="3"/><text class="lab lft" transform="translate(-3 -7)">27</text></g><g class="a35 c2 node n30 p1" transform="translate(69 82.7138)"><g class="a30 i4 leaf node n4 p1 sample" transform="translate(34.5 38.4993)"><path class="edge" d="M 0 0 V -38.4993 H -34.5"/><rect class="sym" height="6" width="6" x="-3" y="-3"/><text class="lab" transform="translate(0 11)">4</text></g><g class="a30 c2 node n24 p2" transform="translate(-34.5 29.3939)"><g class="a24 i3 leaf node n3 p1 sample" transform="translate(-23 9.10546)"><path class="edge" d="M 0 0 V -9.10546 H 23"/><rect class="sym" height="6" width="6" x="-3" y="-3"/><text class="lab" transform="translate(0 11)">3</text></g><g class="a24 i16 leaf node n16 p2 sample" transform="translate(23 9.10546)"><path class="edge" d="M 0 0 V -9.10546 H -23"/><rect class="sym" height="6" width="6" x="-3" y="-3"/><text class="lab" transform="translate(0 11)">16</text></g><path class="edge" d="M 0 0 V -29.3939 H 34.5"/><circle class="sym" cx="0" cy="0" r="3"/><text class="lab lft" transform="translate(-3 -7)">24</text></g><path class="edge" d="M 0 0 V -82.7138 H -69"/><circle class="sym" cx="0" cy="0" r="3"/><text class="lab rgt" transform="translate(3 -7)">30</text></g><path class="edge" d="M 0 0 V -118.161 H 259.469"/><circle class="sym" cx="0" cy="0" r="3"/><text class="lab lft" transform="translate(-3 -7)">35</text></g><g class="a37 c2 node n36 p2" transform="translate(259.469 92.402)"><g class="a36 c2 node n32 p1" transform="translate(107.812 79.0732)"><g class="a32 c2 node n26 p1" transform="translate(51.75 56.0318)"><g class="a26 i10 leaf node n10 p2 sample" transform="translate(-23 11.8669)"><path class="edge" d="M 0 0 V -11.8669 H 23"/><rect class="sym" height="6" width="6" x="-3" y="-3"/><text class="lab" transform="translate(0 11)">10</text></g><g class="a26 i17 leaf node n17 p2 sample" transform="translate(23 11.8669)"><path class="edge" d="M 0 0 V -11.8669 H -23"/><rect class="sym" height="6" width="6" x="-3" y="-3"/><text class="lab" transform="translate(0 11)">17</text></g><path class="edge" d="M 0 0 V -56.0318 H -51.75"/><circle class="sym" cx="0" cy="0" r="3"/><text class="lab rgt" transform="translate(3 -7)">26</text></g><g class="a32 c2 node n29 p2" transform="translate(-51.75 31.9784)"><g class="a29 i14 leaf node n14 p2 sample" transform="translate(34.5 35.9204)"><path class="edge" d="M 0 0 V -35.9204 H -34.5"/><rect class="sym" height="6" width="6" x="-3" y="-3"/><text class="lab" transform="translate(0 11)">14</text></g><g class="a29 c2 node n22 p2" transform="translate(-34.5 31.2675)"><g class="a22 i7 leaf node n7 p1 sample" transform="translate(-23 4.65288)"><path class="edge" d="M 0 0 V -4.65288 H 23"/><rect class="sym" height="6" width="6" x="-3" y="-3"/><text class="lab" transform="translate(0 11)">7</text></g><g class="a22 i13 leaf node n13 p2 sample" transform="translate(23 4.65288)"><path class="edge" d="M 0 0 V -4.65288 H -23"/><rect class="sym" height="6" width="6" x="-3" y="-3"/><text class="lab" transform="translate(0 11)">13</text></g><path class="edge" d="M 0 0 V -31.2675 H 34.5"/><circle class="sym" cx="0" cy="0" r="3"/><text class="lab lft" transform="translate(-3 -7)">22</text></g><path class="edge" d="M 0 0 V -31.9784 H 51.75"/><circle class="sym" cx="0" cy="0" r="3"/><text class="lab lft" transform="translate(-3 -7)">29</text></g><path class="edge" d="M 0 0 V -79.0732 H -107.812"/><circle class="sym" cx="0" cy="0" r="3"/><text class="lab rgt" transform="translate(3 -7)">32</text></g><g class="a36 c2 node n34 p1" transform="translate(-107.812 46.4023)"><g class="a34 i5 leaf m1 node n5 p1 s1 sample" transform="translate(60.375 100.57)"><path class="edge" d="M 0 0 V -100.57 H -60.375"/><g class="mut m1 s1" transform="translate(0 -96.708)"><line x1="0" x2="0" y1="0" y2="96.708"/><path class="sym" d="M -3,-3 l 6,6 M -3,3 l 6,-6"/><text class="lab rgt" transform="translate(5 0)">1</text></g><rect class="sym" height="6" width="6" x="-3" y="-3"/><text class="lab" transform="translate(0 11)">5</text></g><g class="a34 c2 node n33 p2" transform="translate(-60.375 19.4729)"><g class="a33 i9 leaf m0 m3 node n9 p1 s0 s3 sample" transform="translate(74.75 81.0967)"><path class="edge" d="M 0 0 V -81.0967 H -74.75"/><g class="mut m0 s0" transform="translate(0 -48.3598)"><line x1="0" x2="0" y1="0" y2="48.3598"/><path class="sym" d="M -3,-3 l 6,6 M -3,3 l 6,-6"/><text class="lab rgt" transform="translate(5 0)">0</text></g><g class="mut m3 s3" transform="translate(0 -28.7594)"><line x1="0" x2="0" y1="0" y2="28.7594"/><path class="sym" d="M -3,-3 l 6,6 M -3,3 l 6,-6"/><text class="lab rgt" transform="translate(5 0)">3</text></g><rect class="sym" height="6" width="6" x="-3" y="-3"/><text class="lab" transform="translate(0 11)">9</text></g><g class="a33 c2 node n31 p2" transform="translate(-74.75 23.5851)"><g class="a31 c2 node n25 p2" transform="translate(69 47.0046)"><g class="a25 i8 leaf node n8 p1 sample" transform="translate(34.5 10.5071)"><path class="edge" d="M 0 0 V -10.5071 H -34.5"/><rect class="sym" height="6" width="6" x="-3" y="-3"/><text class="lab" transform="translate(0 11)">8</text></g><g class="a25 c2 node n21 p1" transform="translate(-34.5 9.08036)"><g class="a21 i6 leaf node n6 p1 sample" transform="translate(-23 1.4267)"><path class="edge" d="M 0 0 V -1.4267 H 23"/><rect class="sym" height="6" width="6" x="-3" y="-3"/><text class="lab" transform="translate(0 11)">6</text></g><g class="a21 i11 leaf node n11 p2 sample" transform="translate(23 1.4267)"><path class="edge" d="M 0 0 V -1.4267 H -23"/><rect class="sym" height="6" width="6" x="-3" y="-3"/><text class="lab" transform="translate(0 11)">11</text></g><path class="edge" d="M 0 0 V -9.08036 H 34.5"/><circle class="sym" cx="0" cy="0" r="3"/><text class="lab lft" transform="translate(-3 -7)">21</text></g><path class="edge" d="M 0 0 V -47.0046 H -69"/><circle class="sym" cx="0" cy="0" r="3"/><text class="lab rgt" transform="translate(3 -7)">25</text></g><g class="a31 c2 node n28 p1" transform="translate(-69 35.3647)"><g class="a28 i18 leaf node n18 p2 sample" transform="translate(34.5 22.147)"><path class="edge" d="M 0 0 V -22.147 H -34.5"/><rect class="sym" height="6" width="6" x="-3" y="-3"/><text class="lab" transform="translate(0 11)">18</text></g><g class="a28 c2 node n23 p2" transform="translate(-34.5 16.5171)"><g class="a23 i2 leaf node n2 p1 sample" transform="translate(-23 5.62986)"><path class="edge" d="M 0 0 V -5.62986 H 23"/><rect class="sym" height="6" width="6" x="-3" y="-3"/><text class="lab" transform="translate(0 11)">2</text></g><g class="a23 i15 leaf node n15 p2 sample" transform="translate(23 5.62986)"><path class="edge" d="M 0 0 V -5.62986 H -23"/><rect class="sym" height="6" width="6" x="-3" y="-3"/><text class="lab" transform="translate(0 11)">15</text></g><path class="edge" d="M 0 0 V -16.5171 H 34.5"/><circle class="sym" cx="0" cy="0" r="3"/><text class="lab lft" transform="translate(-3 -7)">23</text></g><path class="edge" d="M 0 0 V -35.3647 H 69"/><circle class="sym" cx="0" cy="0" r="3"/><text class="lab lft" transform="translate(-3 -7)">28</text></g><path class="edge" d="M 0 0 V -23.5851 H 74.75"/><circle class="sym" cx="0" cy="0" r="3"/><text class="lab lft" transform="translate(-3 -7)">31</text></g><path class="edge" d="M 0 0 V -19.4729 H 60.375"/><circle class="sym" cx="0" cy="0" r="3"/><text class="lab lft" transform="translate(-3 -7)">33</text></g><path class="edge" d="M 0 0 V -46.4023 H 107.812"/><circle class="sym" cx="0" cy="0" r="3"/><text class="lab lft" transform="translate(-3 -7)">34</text></g><path class="edge" d="M 0 0 V -92.402 H -259.469"/><circle class="sym" cx="0" cy="0" r="3"/><text class="lab rgt" transform="translate(3 -7)">36</text></g><path class="edge" d="M 0 0 V -55.2261 H -215.984"/><g class="mut m2 s2" transform="translate(0 -11.1648)"><line x1="0" x2="0" y1="0" y2="11.1648"/><path class="sym" d="M -3,-3 l 6,6 M -3,3 l 6,-6"/><text class="lab rgt" transform="translate(5 0)">2</text></g><circle class="sym" cx="0" cy="0" r="3"/><text class="lab rgt" transform="translate(3 -7)">37</text></g><circle class="sym" cx="0" cy="0" r="3"/><text class="lab" transform="translate(0 -11)">38</text></g></g></g></g></g></svg>