<svg baseProfile="full" height="400" version="1.1" width="1000" xmlns="http://www.w3.org/2000/svg" xmlns:ev="http://www.w3.org/2001/xml-events" xmlns:xlink="http://www.w3.org/1999/xlink"><defs><style type="text/css"><![CDATA[.background path {fill: #808080; fill-opacity: 0}.background path:nth-child(odd) {fill-opacity: .1}.x-regions rect {fill: yellow; stroke: black; opacity: 0.5}.axes {font-size: 14px}.x-axis .tick .lab {font-weight: bold; dominant-baseline: hanging}.axes, .tree {font-size: 14px; text-anchor: middle}.axes line, .edge {stroke: black; fill: none}.axes .ax-skip {stroke-dasharray: 4}.y-axis .grid {stroke: #FAFAFA}.node > .sym {fill: black; stroke: none}.site > .sym {stroke: black}.mut text {fill: red; font-style: italic}.mut.extra text {fill: hotpink}.mut line {fill: none; stroke: none}.mut .sym {fill: none; stroke: red}.mut.extra .sym {stroke: hotpink}.node .mut .sym {stroke-width: 1.5px}.tree text, .tree-sequence text {dominant-baseline: central}.plotbox .lab.lft {text-anchor: end}.plotbox .lab.rgt {text-anchor: start}.polytomy line {stroke: black; stroke-dasharray: 1px, 1px}.polytomy text {paint-order:stroke;stroke-width:0.3em;stroke:white}]]></style></defs><g class="tree-sequence"><g class="background"><path d="M20,0 l960,0 l0,338.2 l0,25 l0,5 l-960,0 l0,-5 l0,-25 l0,-338.2z"/></g><g class="axes"><g class="x-axis"><g class="title" transform="translate(500 400)"><text class="lab" text-anchor="middle" transform="translate(0 -11)">Genome position</text></g><line class="ax-line" x1="20" x2="980" y1="363.2" y2="363.2"/><g class="ticks"><g class="tick" transform="translate(20 363.2)"><line x1="0" x2="0" y1="0" y2="5"/><g transform="translate(0 6)"><text class="lab">0</text></g></g><g class="tick" transform="translate(980 363.2)"><line x1="0" x2="0" y1="0" y2="5"/><g transform="translate(0 6)"><text class="lab">1000</text></g></g></g><g class="site s0" transform="translate(32.48 363.2)"><line class="sym" x1="0" x2="0" y1="0" y2="-10"/><g class="mut m0"><polyline class="sym" points="2.5,-6.5 0,-1.5 -2.5,-6.5"/></g></g><g class="site s1" transform="translate(951.2 363.2)"><line class="sym" x1="0" x2="0" y1="0" y2="-10"/><g class="mut m1"><polyline class="sym" points="2.5,-6.5 0,-1.5 -2.5,-6.5"/></g></g></g></g><g class="plotbox trees"><g class="tree t0" transform="translate(20 0)"><g class="plotbox"><g class="c2 node n38 p1 root" transform="translate(621.953 26.8)"><g class="a38 c2 node n35 p2" transform="translate(243.297 246.621)"><g class="a35 i13 leaf node n13 p2 sample" transform="translate(51.75 47.9789)"><path class="edge" d="M 0 0 V -47.9789 H -51.75"/><rect class="sym" height="6" width="6" x="-3" y="-3"/><text class="lab" transform="translate(0 11)">13</text></g><g class="a35 c2 node n29 p2" transform="translate(-51.75 37.1575)"><g class="a29 i2 leaf node n2 p1 sample" transform="translate(-34.5 10.8214)"><path class="edge" d="M 0 0 V -10.8214 H 34.5"/><rect class="sym" height="6" width="6" x="-3" y="-3"/><text class="lab" transform="translate(0 11)">2</text></g><g class="a29 c2 node n25 p1" transform="translate(34.5 8.66612)"><g class="a25 i6 leaf node n6 p1 sample" transform="translate(-23 2.15531)"><path class="edge" d="M 0 0 V -2.15531 H 23"/><rect class="sym" height="6" width="6" x="-3" y="-3"/><text class="lab" transform="translate(0 11)">6</text></g><g class="a25 i15 leaf node n15 p2 sample" transform="translate(23 2.15531)"><path class="edge" d="M 0 0 V -2.15531 H -23"/><rect class="sym" height="6" width="6" x="-3" y="-3"/><text class="lab" transform="translate(0 11)">15</text></g><path class="edge" d="M 0 0 V -8.66612 H -34.5"/><circle class="sym" cx="0" cy="0" r="3"/><text class="lab rgt" transform="translate(3 -7)">25</text></g><path class="edge" d="M 0 0 V -37.1575 H 51.75"/><circle class="sym" cx="0" cy="0" r="3"/><text class="lab lft" transform="translate(-3 -7)">29</text></g><path class="edge" d="M 0 0 V -246.621 H -243.297"/><circle class="sym" cx="0" cy="0" r="3"/><text class="lab rgt" transform="translate(3 -7)">35</text></g><g class="a38 c2 node n37 p2" transform="translate(-243.297 157.322)"><g class="a37 c2 m0 node n34 p1 s0" transform="translate(209.156 108.147)"><g class="a34 c2 node n31 p1" transform="translate(-104.938 12.7356)"><g class="a31 i14 leaf node n14 p2 sample" transform="translate(66.125 16.3956)"><path class="edge" d="M 0 0 V -16.3956 H -66.125"/><rect class="sym" height="6" width="6" x="-3" y="-3"/><text class="lab" transform="translate(0 11)">14</text></g><g class="a31 c2 node n30 p1" transform="translate(-66.125 4.26253)"><g class="a30 c2 node n23 p2" transform="translate(-63.25 10.7315)"><g class="a23 i1 leaf node n1 p1 sample" transform="translate(-34.5 1.40158)"><path class="edge" d="M 0 0 V -1.40158 H 34.5"/><rect class="sym" height="6" width="6" x="-3" y="-3"/><text class="lab" transform="translate(0 11)">1</text></g><g class="a23 c2 node n22 p1" transform="translate(34.5 0.393565)"><g class="a22 i3 leaf node n3 p1 sample" transform="translate(-23 1.00802)"><path class="edge" d="M 0 0 V -1.00802 H 23"/><rect class="sym" height="6" width="6" x="-3" y="-3"/><text class="lab" transform="translate(0 11)">3</text></g><g class="a22 i11 leaf node n11 p2 sample" transform="translate(23 1.00802)"><path class="edge" d="M 0 0 V -1.00802 H -23"/><rect class="sym" height="6" width="6" x="-3" y="-3"/><text class="lab" transform="translate(0 11)">11</text></g><path class="edge" d="M 0 0 V -0.393565 H -34.5"/><circle class="sym" cx="0" cy="0" r="3"/><text class="lab rgt" transform="translate(3 -7)">22</text></g><path class="edge" d="M 0 0 V -10.7315 H 63.25"/><circle class="sym" cx="0" cy="0" r="3"/><text class="lab lft" transform="translate(-3 -7)">23</text></g><g class="a30 c2 node n24 p2" transform="translate(63.25 10.1298)"><g class="a24 i16 leaf node n16 p2 sample" transform="translate(-23 2.00324)"><path class="edge" d="M 0 0 V -2.00324 H 23"/><rect class="sym" height="6" width="6" x="-3" y="-3"/><text class="lab" transform="translate(0 11)">16</text></g><g class="a24 i19 leaf node n19 p2 sample" transform="translate(23 2.00324)"><path class="edge" d="M 0 0 V -2.00324 H -23"/><rect class="sym" height="6" width="6" x="-3" y="-3"/><text class="lab" transform="translate(0 11)">19</text></g><path class="edge" d="M 0 0 V -10.1298 H -63.25"/><circle class="sym" cx="0" cy="0" r="3"/><text class="lab rgt" transform="translate(3 -7)">24</text></g><path class="edge" d="M 0 0 V -4.26253 H 66.125"/><circle class="sym" cx="0" cy="0" r="3"/><text class="lab lft" transform="translate(-3 -7)">30</text></g><path class="edge" d="M 0 0 V -12.7356 H 104.938"/><circle class="sym" cx="0" cy="0" r="3"/><text class="lab lft" transform="translate(-3 -7)">31</text></g><g class="a34 c2 node n33 p1" transform="translate(104.938 3.94129)"><g class="a33 i12 leaf node n12 p2 sample" transform="translate(40.25 25.1899)"><path class="edge" d="M 0 0 V -25.1899 H -40.25"/><rect class="sym" height="6" width="6" x="-3" y="-3"/><text class="lab" transform="translate(0 11)">12</text></g><g class="a33 c2 node n26 p2" transform="translate(-40.25 22.3025)"><g class="a26 i17 leaf node n17 p2 sample" transform="translate(34.5 2.88746)"><path class="edge" d="M 0 0 V -2.88746 H -34.5"/><rect class="sym" height="6" width="6" x="-3" y="-3"/><text class="lab" transform="translate(0 11)">17</text></g><g class="a26 c2 node n20 p2" transform="translate(-34.5 2.76313)"><g class="a20 i7 leaf node n7 p1 sample" transform="translate(-23 0.124334)"><path class="edge" d="M 0 0 V -0.124334 H 23"/><rect class="sym" height="6" width="6" x="-3" y="-3"/><text class="lab" transform="translate(0 11)">7</text></g><g class="a20 i8 leaf node n8 p1 sample" transform="translate(23 0.124334)"><path class="edge" d="M 0 0 V -0.124334 H -23"/><rect class="sym" height="6" width="6" x="-3" y="-3"/><text class="lab" transform="translate(0 11)">8</text></g><path class="edge" d="M 0 0 V -2.76313 H 34.5"/><circle class="sym" cx="0" cy="0" r="3"/><text class="lab lft" transform="translate(-3 -7)">20</text></g><path class="edge" d="M 0 0 V -22.3025 H 40.25"/><circle class="sym" cx="0" cy="0" r="3"/><text class="lab lft" transform="translate(-3 -7)">26</text></g><path class="edge" d="M 0 0 V -3.94129 H -104.938"/><circle class="sym" cx="0" cy="0" r="3"/><text class="lab rgt" transform="translate(3 -7)">33</text></g><path class="edge" d="M 0 0 V -108.147 H -209.156"/><g class="mut m0 s0" transform="translate(0 -15.914)"><line x1="0" x2="0" y1="0" y2="15.914"/><path class="sym" d="M -3,-3 l 6,6 M -3,3 l 6,-6"/><text class="lab rgt" transform="translate(5 0)">0</text></g><circle class="sym" cx="0" cy="0" r="3"/><text class="lab rgt" transform="translate(3 -7)">34</text></g><g class="a37 c2 node n36 p2" transform="translate(-209.156 75.8385)"><g class="a36 c2 m1 node n28 p2 s1" transform="translate(69 55.407)"><g class="a28 i10 leaf node n10 p2 sample" transform="translate(34.5 6.03289)"><path class="edge" d="M 0 0 V -6.03289 H -34.5"/><rect class="sym" height="6" width="6" x="-3" y="-3"/><text class="lab" transform="translate(0 11)">10</text></g><g class="a28 c2 node n21 p1" transform="translate(-34.5 5.90344)"><g class="a21 i9 leaf node n9 p1 sample" transform="translate(-23 0.12945)"><path class="edge" d="M 0 0 V -0.12945 H 23"/><rect class="sym" height="6" width="6" x="-3" y="-3"/><text class="lab" transform="translate(0 11)">9</text></g><g class="a21 i18 leaf node n18 p2 sample" transform="translate(23 0.12945)"><path class="edge" d="M 0 0 V -0.12945 H -23"/><rect class="sym" height="6" width="6" x="-3" y="-3"/><text class="lab" transform="translate(0 11)">18</text></g><path class="edge" d="M 0 0 V -5.90344 H 34.5"/><circle class="sym" cx="0" cy="0" r="3"/><text class="lab lft" transform="translate(-3 -7)">21</text></g><path class="edge" d="M 0 0 V -55.407 H -69"/><g class="mut m1 s1" transform="translate(0 -45.1413)"><line x1="0" x2="0" y1="0" y2="45.1413"/><path class="sym" d="M -3,-3 l 6,6 M -3,3 l 6,-6"/><text class="lab rgt" transform="translate(5 0)">1</text></g><circle class="sym" cx="0" cy="0" r="3"/><text class="lab rgt" transform="translate(3 -7)">28</text></g><g class="a36 c2 node n32 p2" transform="translate(-69 40.9536)"><g class="a32 i4 leaf node n4 p1 sample" transform="translate(34.5 20.4863)"><path class="edge" d="M 0 0 V -20.4863 H -34.5"/><rect class="sym" height="6" width="6" x="-3" y="-3"/><text class="lab" transform="translate(0 11)">4</text></g><g class="a32 c2 node n27 p2" transform="translate(-34.5 16.1097)"><g class="a27 i0 leaf node n0 p1 sample" transform="translate(-23 4.37659)"><path class="edge" d="M 0 0 V -4.37659 H 23"/><rect class="sym" height="6" width="6" x="-3" y="-3"/><text class="lab" transform="translate(0 11)">0</text></g><g class="a27 i5 leaf node n5 p1 sample" transform="translate(23 4.37659)"><path class="edge" d="M 0 0 V -4.37659 H -23"/><rect class="sym" height="6" width="6" x="-3" y="-3"/><text class="lab" transform="translate(0 11)">5</text></g><path class="edge" d="M 0 0 V -16.1097 H 34.5"/><circle class="sym" cx="0" cy="0" r="3"/><text class="lab lft" transform="translate(-3 -7)">27</text></g><path class="edge" d="M 0 0 V -40.9536 H 69"/><circle class="sym" cx="0" cy="0" r="3"/><text class="lab lft" transform="translate(-3 -7)">32</text></g><path class="edge" d="M 0 0 V -75.8385 H 209.156"/><circle class="sym" cx="0" cy="0" r="3"/><text class="lab lft" transform="translate(-3 -7)">36</text></g><path class="edge" d="M 0 0 V -157.322 H 243.297"/><circle class="sym" cx="0" cy="0" r="3"/><text class="lab lft" transform="translate(-3 -7)">37</text></g><circle class="sym" cx="0" cy="0" r="3"/><text class="lab" transform="translate(0 -11)">38</text></g></g></g></g></g></svg>