<svg baseProfile="full" height="400" version="1.1" width="1000" xmlns="http://www.w3.org/2000/svg" xmlns:ev="http://www.w3.org/2001/xml-events" xmlns:xlink="http://www.w3.org/1999/xlink"><defs><style type="text/css"><![CDATA[.background path {fill: #808080; fill-opacity: 0}.background path:nth-child(odd) {fill-opacity: .1}.x-regions rect {fill: yellow; stroke: black; opacity: 0.5}.axes {font-size: 14px}.x-axis .tick .lab {font-weight: bold; dominant-baseline: hanging}.axes, .tree {font-size: 14px; text-anchor: middle}.axes line, .edge {stroke: black; fill: none}.axes .ax-skip {stroke-dasharray: 4}.y-axis .grid {stroke: #FAFAFA}.node > .sym {fill: black; stroke: none}.site > .sym {stroke: black}.mut text {fill: red; font-style: italic}.mut.extra text {fill: hotpink}.mut line {fill: none; stroke: none}.mut .sym {fill: none; stroke: red}.mut.extra .sym {stroke: hotpink}.node .mut .sym {stroke-width: 1.5px}.tree text, .tree-sequence text {dominant-baseline: central}.plotbox .lab.lft {text-anchor: end}.plotbox .lab.rgt {text-anchor: start}.polytomy line {stroke: black; stroke-dasharray: 1px, 1px}.polytomy text {paint-order:stroke;stroke-width:0.3em;stroke:white}]]></style></defs><g class="tree-sequence"><g class="background"><path d="M20,0 l960,0 l0,338.2 l0,25 l0,5 l-960,0 l0,-5 l0,-25 l0,-338.2z"/></g><g class="axes"><g class="x-axis"><g class="title" transform="translate(500 400)"><text class="lab" text-anchor="middle" transform="translate(0 -11)">Genome position</text></g><line class="ax-line" x1="20" x2="980" y1="363.2" y2="363.2"/><g class="ticks"><g class="tick" transform="translate(20 363.2)"><line x1="0" x2="0" y1="0" y2="5"/><g transform="translate(0 6)"><text class="lab">0</text></g></g><g class="tick" transform="translate(980 363.2)"><line x1="0" x2="0" y1="0" y2="5"/><g transform="translate(0 6)"><text class="lab">1000</text></g></g></g><g class="site s0" transform="translate(335.84 363.2)"><line class="sym" x1="0" x2="0" y1="0" y2="-10"/><g class="mut m0"><polyline class="sym" points="2.5,-6.5 0,-1.5 -2.5,-6.5"/></g></g><g class="site s1" transform="translate(396.32 363.2)"><line class="sym" x1="0" x2="0" y1="0" y2="-10"/><g class="mut m1"><polyline class="sym" points="2.5,-6.5 0,-1.5 -2.5,-6.5"/></g></g><g class="site s2" transform="translate(647.84 363.2)"><line class="sym" x1="0" x2="0" y1="0" y2="-10"/><g class="mut m2"><polyline class="sym" points="2.5,-6.5 0,-1.5 -2.5,-6.5"/></g></g></g></g><g class="plotbox trees"><g class="tree t0" transform="translate(20 0)"><g class="plotbox"><g class="c2 node n38 p1 root" transform="translate(669.75 26.8)"><g class="a38 c2 node n30 p2" transform="translate(178.25 244.568)"><g class="a30 c2 node n25 p1" transform="translate(46 30.2316)"><g class="a25 i11 leaf node n11 p2 sample" transform="translate(-23 19.8006)"><path class="edge" d="M 0 0 V -19.8006 H 23"/><rect class="sym" height="6" width="6" x="-3" y="-3"/><text class="lab" transform="translate(0 11)">11</text></g><g class="a25 i19 leaf node n19 p2 sample" transform="translate(23 19.8006)"><path class="edge" d="M 0 0 V -19.8006 H -23"/><rect class="sym" height="6" width="6" x="-3" y="-3"/><text class="lab" transform="translate(0 11)">19</text></g><path class="edge" d="M 0 0 V -30.2316 H -46"/><circle class="sym" cx="0" cy="0" r="3"/><text class="lab rgt" transform="translate(3 -7)">25</text></g><g class="a30 c2 node n26 p2" transform="translate(-46 29.4116)"><g class="a26 i2 leaf node n2 p1 sample" transform="translate(-23 20.6206)"><path class="edge" d="M 0 0 V -20.6206 H 23"/><rect class="sym" height="6" width="6" x="-3" y="-3"/><text class="lab" transform="translate(0 11)">2</text></g><g class="a26 i8 leaf node n8 p1 sample" transform="translate(23 20.6206)"><path class="edge" d="M 0 0 V -20.6206 H -23"/><rect class="sym" height="6" width="6" x="-3" y="-3"/><text class="lab" transform="translate(0 11)">8</text></g><path class="edge" d="M 0 0 V -29.4116 H 46"/><circle class="sym" cx="0" cy="0" r="3"/><text class="lab lft" transform="translate(-3 -7)">26</text></g><path class="edge" d="M 0 0 V -244.568 H -178.25"/><circle class="sym" cx="0" cy="0" r="3"/><text class="lab rgt" transform="translate(3 -7)">30</text></g><g class="a38 c2 node n37 p1" transform="translate(-178.25 92.689)"><g class="a37 c2 m2 node n35 p2 s2" transform="translate(-172.5 105.158)"><g class="a35 c2 node n33 p1" transform="translate(106.375 17.9819)"><g class="a33 c2 node n24 p1" transform="translate(-83.375 62.9158)"><g class="a24 i1 leaf node n1 p1 sample" transform="translate(-23 15.8549)"><path class="edge" d="M 0 0 V -15.8549 H 23"/><rect class="sym" height="6" width="6" x="-3" y="-3"/><text class="lab" transform="translate(0 11)">1</text></g><g class="a24 i17 leaf node n17 p2 sample" transform="translate(23 15.8549)"><path class="edge" d="M 0 0 V -15.8549 H -23"/><rect class="sym" height="6" width="6" x="-3" y="-3"/><text class="lab" transform="translate(0 11)">17</text></g><path class="edge" d="M 0 0 V -62.9158 H 83.375"/><circle class="sym" cx="0" cy="0" r="3"/><text class="lab lft" transform="translate(-3 -7)">24</text></g><g class="a33 c2 node n31 p1" transform="translate(83.375 19.6847)"><g class="a31 i15 leaf node n15 p2 sample" transform="translate(40.25 59.086)"><path class="edge" d="M 0 0 V -59.086 H -40.25"/><rect class="sym" height="6" width="6" x="-3" y="-3"/><text class="lab" transform="translate(0 11)">15</text></g><g class="a31 c2 node n29 p2" transform="translate(-40.25 10.9167)"><g class="a29 i18 leaf node n18 p2 sample" transform="translate(34.5 48.1692)"><path class="edge" d="M 0 0 V -48.1692 H -34.5"/><rect class="sym" height="6" width="6" x="-3" y="-3"/><text class="lab" transform="translate(0 11)">18</text></g><g class="a29 c2 node n21 p1" transform="translate(-34.5 43.6423)"><g class="a21 i3 leaf node n3 p1 sample" transform="translate(-23 4.52695)"><path class="edge" d="M 0 0 V -4.52695 H 23"/><rect class="sym" height="6" width="6" x="-3" y="-3"/><text class="lab" transform="translate(0 11)">3</text></g><g class="a21 i9 leaf node n9 p1 sample" transform="translate(23 4.52695)"><path class="edge" d="M 0 0 V -4.52695 H -23"/><rect class="sym" height="6" width="6" x="-3" y="-3"/><text class="lab" transform="translate(0 11)">9</text></g><path class="edge" d="M 0 0 V -43.6423 H 34.5"/><circle class="sym" cx="0" cy="0" r="3"/><text class="lab lft" transform="translate(-3 -7)">21</text></g><path class="edge" d="M 0 0 V -10.9167 H 40.25"/><circle class="sym" cx="0" cy="0" r="3"/><text class="lab lft" transform="translate(-3 -7)">29</text></g><path class="edge" d="M 0 0 V -19.6847 H -83.375"/><circle class="sym" cx="0" cy="0" r="3"/><text class="lab rgt" transform="translate(3 -7)">31</text></g><path class="edge" d="M 0 0 V -17.9819 H -106.375"/><circle class="sym" cx="0" cy="0" r="3"/><text class="lab rgt" transform="translate(3 -7)">33</text></g><g class="a35 c2 node n34 p1" transform="translate(-106.375 14.5173)"><g class="a34 i12 leaf node n12 p2 sample" transform="translate(60.375 82.2353)"><path class="edge" d="M 0 0 V -82.2353 H -60.375"/><rect class="sym" height="6" width="6" x="-3" y="-3"/><text class="lab" transform="translate(0 11)">12</text></g><g class="a34 c2 node n32 p2" transform="translate(-60.375 22.3081)"><g class="a32 c2 node n23 p2" transform="translate(-51.75 45.4078)"><g class="a23 i14 leaf m0 node n14 p2 s0 sample" transform="translate(34.5 14.5194)"><path class="edge" d="M 0 0 V -14.5194 H -34.5"/><g class="mut m0 s0" transform="translate(0 -3.41081)"><line x1="0" x2="0" y1="0" y2="3.41081"/><path class="sym" d="M -3,-3 l 6,6 M -3,3 l 6,-6"/><text class="lab rgt" transform="translate(5 0)">0</text></g><rect class="sym" height="6" width="6" x="-3" y="-3"/><text class="lab" transform="translate(0 11)">14</text></g><g class="a23 c2 node n22 p1" transform="translate(-34.5 7.00288)"><g class="a22 i0 leaf node n0 p1 sample" transform="translate(-23 7.51648)"><path class="edge" d="M 0 0 V -7.51648 H 23"/><rect class="sym" height="6" width="6" x="-3" y="-3"/><text class="lab" transform="translate(0 11)">0</text></g><g class="a22 i5 leaf node n5 p1 sample" transform="translate(23 7.51648)"><path class="edge" d="M 0 0 V -7.51648 H -23"/><rect class="sym" height="6" width="6" x="-3" y="-3"/><text class="lab" transform="translate(0 11)">5</text></g><path class="edge" d="M 0 0 V -7.00288 H 34.5"/><circle class="sym" cx="0" cy="0" r="3"/><text class="lab lft" transform="translate(-3 -7)">22</text></g><path class="edge" d="M 0 0 V -45.4078 H 51.75"/><circle class="sym" cx="0" cy="0" r="3"/><text class="lab lft" transform="translate(-3 -7)">23</text></g><g class="a32 c2 node n27 p1" transform="translate(51.75 29.4309)"><g class="a27 i7 leaf m1 node n7 p1 s1 sample" transform="translate(-23 30.4962)"><path class="edge" d="M 0 0 V -30.4962 H 23"/><g class="mut m1 s1" transform="translate(0 -27.6562)"><line x1="0" x2="0" y1="0" y2="27.6562"/><path class="sym" d="M -3,-3 l 6,6 M -3,3 l 6,-6"/><text class="lab lft" transform="translate(-5 0)">1</text></g><rect class="sym" height="6" width="6" x="-3" y="-3"/><text class="lab" transform="translate(0 11)">7</text></g><g class="a27 i16 leaf node n16 p2 sample" transform="translate(23 30.4962)"><path class="edge" d="M 0 0 V -30.4962 H -23"/><rect class="sym" height="6" width="6" x="-3" y="-3"/><text class="lab" transform="translate(0 11)">16</text></g><path class="edge" d="M 0 0 V -29.4309 H -51.75"/><circle class="sym" cx="0" cy="0" r="3"/><text class="lab rgt" transform="translate(3 -7)">27</text></g><path class="edge" d="M 0 0 V -22.3081 H 60.375"/><circle class="sym" cx="0" cy="0" r="3"/><text class="lab lft" transform="translate(-3 -7)">32</text></g><path class="edge" d="M 0 0 V -14.5173 H 106.375"/><circle class="sym" cx="0" cy="0" r="3"/><text class="lab lft" transform="translate(-3 -7)">34</text></g><path class="edge" d="M 0 0 V -105.158 H 172.5"/><g class="mut m2 s2" transform="translate(0 -51.1252)"><line x1="0" x2="0" y1="0" y2="51.1252"/><path class="sym" d="M -3,-3 l 6,6 M -3,3 l 6,-6"/><text class="lab lft" transform="translate(-5 0)">2</text></g><circle class="sym" cx="0" cy="0" r="3"/><text class="lab lft" transform="translate(-3 -7)">35</text></g><g class="a37 c2 node n36 p2" transform="translate(172.5 58.1043)"><g class="a36 c2 node n20 p1" transform="translate(46 143.405)"><g class="a20 i6 leaf node n6 p1 sample" transform="translate(-23 0.402069)"><path class="edge" d="M 0 0 V -0.402069 H 23"/><rect class="sym" height="6" width="6" x="-3" y="-3"/><text class="lab" transform="translate(0 11)">6</text></g><g class="a20 i10 leaf node n10 p2 sample" transform="translate(23 0.402069)"><path class="edge" d="M 0 0 V -0.402069 H -23"/><rect class="sym" height="6" width="6" x="-3" y="-3"/><text class="lab" transform="translate(0 11)">10</text></g><path class="edge" d="M 0 0 V -143.405 H -46"/><circle class="sym" cx="0" cy="0" r="3"/><text class="lab rgt" transform="translate(3 -7)">20</text></g><g class="a36 c2 node n28 p2" transform="translate(-46 108.428)"><g class="a28 i4 leaf node n4 p1 sample" transform="translate(-23 35.3782)"><path class="edge" d="M 0 0 V -35.3782 H 23"/><rect class="sym" height="6" width="6" x="-3" y="-3"/><text class="lab" transform="translate(0 11)">4</text></g><g class="a28 i13 leaf node n13 p2 sample" transform="translate(23 35.3782)"><path class="edge" d="M 0 0 V -35.3782 H -23"/><rect class="sym" height="6" width="6" x="-3" y="-3"/><text class="lab" transform="translate(0 11)">13</text></g><path class="edge" d="M 0 0 V -108.428 H 46"/><circle class="sym" cx="0" cy="0" r="3"/><text class="lab lft" transform="translate(-3 -7)">28</text></g><path class="edge" d="M 0 0 V -58.1043 H -172.5"/><circle class="sym" cx="0" cy="0" r="3"/><text class="lab rgt" transform="translate(3 -7)">36</text></g><path class="edge" d="M 0 0 V -92.689 H 178.25"/><circle class="sym" cx="0" cy="0" r="3"/><text class="lab lft" transform="translate(-3 -7)">37</text></g><circle class="sym" cx="0" cy="0" r="3"/><text class="lab" transform="translate(0 -11)">38</text></g></g></g></g></g></svg>