<svg baseProfile="full" height="400" version="1.1" width="1000" xmlns="http://www.w3.org/2000/svg" xmlns:ev="http://www.w3.org/2001/xml-events" xmlns:xlink="http://www.w3.org/1999/xlink"><defs><style type="text/css"><![CDATA[.background path {fill: #808080; fill-opacity: 0}.background path:nth-child(odd) {fill-opacity: .1}.x-regions rect {fill: yellow; stroke: black; opacity: 0.5}.axes {font-size: 14px}.x-axis .tick .lab {font-weight: bold; dominant-baseline: hanging}.axes, .tree {font-size: 14px; text-anchor: middle}.axes line, .edge {stroke: black; fill: none}.axes .ax-skip {stroke-dasharray: 4}.y-axis .grid {stroke: #FAFAFA}.node > .sym {fill: black; stroke: none}.site > .sym {stroke: black}.mut text {fill: red; font-style: italic}.mut.extra text {fill: hotpink}.mut line {fill: none; stroke: none}.mut .sym {fill: none; stroke: red}.mut.extra .sym {stroke: hotpink}.node .mut .sym {stroke-width: 1.5px}.tree text, .tree-sequence text {dominant-baseline: central}.plotbox .lab.lft {text-anchor: end}.plotbox .lab.rgt {text-anchor: start}.polytomy line {stroke: black; stroke-dasharray: 1px, 1px}.polytomy text {paint-order:stroke;stroke-width:0.3em;stroke:white}]]></style></defs><g class="tree-sequence"><g class="background"><path d="M20,0 l960,0 l0,338.2 l0,25 l0,5 l-960,0 l0,-5 l0,-25 l0,-338.2z"/></g><g class="axes"><g class="x-axis"><g class="title" transform="translate(500 400)"><text class="lab" text-anchor="middle" transform="translate(0 -11)">Genome position</text></g><line class="ax-line" x1="20" x2="980" y1="363.2" y2="363.2"/><g class="ticks"><g class="tick" transform="translate(20 363.2)"><line x1="0" x2="0" y1="0" y2="5"/><g transform="translate(0 6)"><text class="lab">0</text></g></g><g class="tick" transform="translate(980 363.2)"><line x1="0" x2="0" y1="0" y2="5"/><g transform="translate(0 6)"><text class="lab">1000</text></g></g></g><g class="site s0" transform="translate(203.36 363.2)"><line class="sym" x1="0" x2="0" y1="0" y2="-10"/><g class="mut m0"><polyline class="sym" points="2.5,-6.5 0,-1.5 -2.5,-6.5"/></g></g><g class="site s1" transform="translate(476.96 363.2)"><line class="sym" x1="0" x2="0" y1="0" y2="-10"/><g class="mut m1"><polyline class="sym" points="2.5,-6.5 0,-1.5 -2.5,-6.5"/></g></g><g class="site s2" transform="translate(500 363.2)"><line class="sym" x1="0" x2="0" y1="0" y2="-10"/><g class="mut m2"><polyline class="sym" points="2.5,-6.5 0,-1.5 -2.5,-6.5"/></g></g><g class="site s3" transform="translate(591.2 363.2)"><line class="sym" x1="0" x2="0" y1="0" y2="-10"/><g class="mut m3"><polyline class="sym" points="2.5,-6.5 0,-1.5 -2.5,-6.5"/></g></g><g class="site s4" transform="translate(644 363.2)"><line class="sym" x1="0" x2="0" y1="0" y2="-10"/><g class="mut m4"><polyline class="sym" points="2.5,-6.5 0,-1.5 -2.5,-6.5"/></g></g><g class="site s5" transform="translate(687.2 363.2)"><line class="sym" x1="0" x2="0" y1="0" y2="-10"/><g class="mut m5"><polyline class="sym" points="2.5,-6.5 0,-1.5 -2.5,-6.5"/></g></g></g></g><g class="plotbox trees"><g class="tree t0" transform="translate(20 0)"><g class="plotbox"><g class="c2 node n38 p2 root" transform="translate(551.875 26.8)"><g class="a38 c2 m1 node n36 p2 s1" transform="translate(-274.562 264.733)"><g class="a36 c2 node n29 p1" transform="translate(-122.188 22.3116)"><g class="a29 i14 leaf node n14 p2 sample" transform="translate(71.875 7.55536)"><path class="edge" d="M 0 0 V -7.55536 H -71.875"/><rect class="sym" height="6" width="6" x="-3" y="-3"/><text class="lab" transform="translate(0 11)">14</text></g><g class="a29 c2 node n25 p2" transform="translate(-71.875 6.48979)"><g class="a25 i0 leaf node n0 p1 sample" transform="translate(-40.25 1.06557)"><path class="edge" d="M 0 0 V -1.06557 H 40.25"/><rect class="sym" height="6" width="6" x="-3" y="-3"/><text class="lab" transform="translate(0 11)">0</text></g><g class="a25 c2 node n21 p1" transform="translate(40.25 0.316725)"><g class="a21 i6 leaf node n6 p1 sample" transform="translate(-34.5 0.748843)"><path class="edge" d="M 0 0 V -0.748843 H 34.5"/><rect class="sym" height="6" width="6" x="-3" y="-3"/><text class="lab" transform="translate(0 11)">6</text></g><g class="a21 c2 node n20 p1" transform="translate(34.5 0.571287)"><g class="a20 i9 leaf node n9 p1 sample" transform="translate(-23 0.177556)"><path class="edge" d="M 0 0 V -0.177556 H 23"/><rect class="sym" height="6" width="6" x="-3" y="-3"/><text class="lab" transform="translate(0 11)">9</text></g><g class="a20 i16 leaf node n16 p2 sample" transform="translate(23 0.177556)"><path class="edge" d="M 0 0 V -0.177556 H -23"/><rect class="sym" height="6" width="6" x="-3" y="-3"/><text class="lab" transform="translate(0 11)">16</text></g><path class="edge" d="M 0 0 V -0.571287 H -34.5"/><circle class="sym" cx="0" cy="0" r="3"/><text class="lab rgt" transform="translate(3 -7)">20</text></g><path class="edge" d="M 0 0 V -0.316725 H -40.25"/><circle class="sym" cx="0" cy="0" r="3"/><text class="lab rgt" transform="translate(3 -7)">21</text></g><path class="edge" d="M 0 0 V -6.48979 H 71.875"/><circle class="sym" cx="0" cy="0" r="3"/><text class="lab lft" transform="translate(-3 -7)">25</text></g><path class="edge" d="M 0 0 V -22.3116 H 122.188"/><circle class="sym" cx="0" cy="0" r="3"/><text class="lab lft" transform="translate(-3 -7)">29</text></g><g class="a36 c2 node n30 p2" transform="translate(122.188 18.88)"><g class="a30 c2 node n24 p2" transform="translate(-69 9.93913)"><g class="a24 i7 leaf node n7 p1 sample" transform="translate(34.5 1.04786)"><path class="edge" d="M 0 0 V -1.04786 H -34.5"/><rect class="sym" height="6" width="6" x="-3" y="-3"/><text class="lab" transform="translate(0 11)">7</text></g><g class="a24 c2 node n23 p2" transform="translate(-34.5 0.217637)"><g class="a23 i5 leaf node n5 p1 sample" transform="translate(-23 0.830226)"><path class="edge" d="M 0 0 V -0.830226 H 23"/><rect class="sym" height="6" width="6" x="-3" y="-3"/><text class="lab" transform="translate(0 11)">5</text></g><g class="a23 i17 leaf node n17 p2 sample" transform="translate(23 0.830226)"><path class="edge" d="M 0 0 V -0.830226 H -23"/><rect class="sym" height="6" width="6" x="-3" y="-3"/><text class="lab" transform="translate(0 11)">17</text></g><path class="edge" d="M 0 0 V -0.217637 H 34.5"/><circle class="sym" cx="0" cy="0" r="3"/><text class="lab lft" transform="translate(-3 -7)">23</text></g><path class="edge" d="M 0 0 V -9.93913 H 69"/><circle class="sym" cx="0" cy="0" r="3"/><text class="lab lft" transform="translate(-3 -7)">24</text></g><g class="a30 c2 node n28 p2" transform="translate(69 3.52915)"><g class="a28 i18 leaf node n18 p2 sample" transform="translate(34.5 7.45784)"><path class="edge" d="M 0 0 V -7.45784 H -34.5"/><rect class="sym" height="6" width="6" x="-3" y="-3"/><text class="lab" transform="translate(0 11)">18</text></g><g class="a28 c2 node n27 p1" transform="translate(-34.5 0.17861)"><g class="a27 i8 leaf node n8 p1 sample" transform="translate(-23 7.27923)"><path class="edge" d="M 0 0 V -7.27923 H 23"/><rect class="sym" height="6" width="6" x="-3" y="-3"/><text class="lab" transform="translate(0 11)">8</text></g><g class="a27 i10 leaf node n10 p2 sample" transform="translate(23 7.27923)"><path class="edge" d="M 0 0 V -7.27923 H -23"/><rect class="sym" height="6" width="6" x="-3" y="-3"/><text class="lab" transform="translate(0 11)">10</text></g><path class="edge" d="M 0 0 V -0.17861 H 34.5"/><circle class="sym" cx="0" cy="0" r="3"/><text class="lab lft" transform="translate(-3 -7)">27</text></g><path class="edge" d="M 0 0 V -3.52915 H -69"/><circle class="sym" cx="0" cy="0" r="3"/><text class="lab rgt" transform="translate(3 -7)">28</text></g><path class="edge" d="M 0 0 V -18.88 H -122.188"/><circle class="sym" cx="0" cy="0" r="3"/><text class="lab rgt" transform="translate(3 -7)">30</text></g><path class="edge" d="M 0 0 V -264.733 H 274.562"/><g class="mut m1 s1" transform="translate(0 -174.4)"><line x1="0" x2="0" y1="0" y2="174.4"/><path class="sym" d="M -3,-3 l 6,6 M -3,3 l 6,-6"/><text class="lab lft" transform="translate(-5 0)">1</text></g><circle class="sym" cx="0" cy="0" r="3"/><text class="lab lft" transform="translate(-3 -7)">36</text></g><g class="a38 c2 m0 m3 node n37 p2 s0 s3" transform="translate(274.562 175.042)"><g class="a37 i4 leaf m2 m5 node n4 p1 s2 s5 sample" transform="translate(90.5625 119.558)"><path class="edge" d="M 0 0 V -119.558 H -90.5625"/><g class="mut m2 s2" transform="translate(0 -111.816)"><line x1="0" x2="0" y1="0" y2="111.816"/><path class="sym" d="M -3,-3 l 6,6 M -3,3 l 6,-6"/><text class="lab rgt" transform="translate(5 0)">2</text></g><g class="mut m5 s5" transform="translate(0 -103.83)"><line x1="0" x2="0" y1="0" y2="103.83"/><path class="sym" d="M -3,-3 l 6,6 M -3,3 l 6,-6"/><text class="lab rgt" transform="translate(5 0)">5</text></g><rect class="sym" height="6" width="6" x="-3" y="-3"/><text class="lab" transform="translate(0 11)">4</text></g><g class="a37 c2 node n35 p2" transform="translate(-90.5625 91.5535)"><g class="a35 c2 node n33 p2" transform="translate(-100.625 7.61338)"><g class="a33 c2 node n31 p1" transform="translate(-63.25 9.06476)"><g class="a31 i1 leaf node n1 p1 sample" transform="translate(-23 11.3267)"><path class="edge" d="M 0 0 V -11.3267 H 23"/><rect class="sym" height="6" width="6" x="-3" y="-3"/><text class="lab" transform="translate(0 11)">1</text></g><g class="a31 i12 leaf m4 node n12 p2 s4 sample" transform="translate(23 11.3267)"><path class="edge" d="M 0 0 V -11.3267 H -23"/><g class="mut m4 s4" transform="translate(0 -11.0979)"><line x1="0" x2="0" y1="0" y2="11.0979"/><path class="sym" d="M -3,-3 l 6,6 M -3,3 l 6,-6"/><text class="lab rgt" transform="translate(5 0)">4</text></g><rect class="sym" height="6" width="6" x="-3" y="-3"/><text class="lab" transform="translate(0 11)">12</text></g><path class="edge" d="M 0 0 V -9.06476 H 63.25"/><circle class="sym" cx="0" cy="0" r="3"/><text class="lab lft" transform="translate(-3 -7)">31</text></g><g class="a33 c2 node n32 p1" transform="translate(63.25 7.42459)"><g class="a32 i19 leaf node n19 p2 sample" transform="translate(34.5 12.9668)"><path class="edge" d="M 0 0 V -12.9668 H -34.5"/><rect class="sym" height="6" width="6" x="-3" y="-3"/><text class="lab" transform="translate(0 11)">19</text></g><g class="a32 c2 node n22 p1" transform="translate(-34.5 12.2115)"><g class="a22 i3 leaf node n3 p1 sample" transform="translate(-23 0.75532)"><path class="edge" d="M 0 0 V -0.75532 H 23"/><rect class="sym" height="6" width="6" x="-3" y="-3"/><text class="lab" transform="translate(0 11)">3</text></g><g class="a22 i11 leaf node n11 p2 sample" transform="translate(23 0.75532)"><path class="edge" d="M 0 0 V -0.75532 H -23"/><rect class="sym" height="6" width="6" x="-3" y="-3"/><text class="lab" transform="translate(0 11)">11</text></g><path class="edge" d="M 0 0 V -12.2115 H 34.5"/><circle class="sym" cx="0" cy="0" r="3"/><text class="lab lft" transform="translate(-3 -7)">22</text></g><path class="edge" d="M 0 0 V -7.42459 H -63.25"/><circle class="sym" cx="0" cy="0" r="3"/><text class="lab rgt" transform="translate(3 -7)">32</text></g><path class="edge" d="M 0 0 V -7.61338 H 100.625"/><circle class="sym" cx="0" cy="0" r="3"/><text class="lab lft" transform="translate(-3 -7)">33</text></g><g class="a35 c2 node n34 p2" transform="translate(100.625 7.45023)"><g class="a34 i13 leaf node n13 p2 sample" transform="translate(34.5 20.5546)"><path class="edge" d="M 0 0 V -20.5546 H -34.5"/><rect class="sym" height="6" width="6" x="-3" y="-3"/><text class="lab" transform="translate(0 11)">13</text></g><g class="a34 c2 node n26 p2" transform="translate(-34.5 16.8469)"><g class="a26 i2 leaf node n2 p1 sample" transform="translate(-23 3.70764)"><path class="edge" d="M 0 0 V -3.70764 H 23"/><rect class="sym" height="6" width="6" x="-3" y="-3"/><text class="lab" transform="translate(0 11)">2</text></g><g class="a26 i15 leaf node n15 p2 sample" transform="translate(23 3.70764)"><path class="edge" d="M 0 0 V -3.70764 H -23"/><rect class="sym" height="6" width="6" x="-3" y="-3"/><text class="lab" transform="translate(0 11)">15</text></g><path class="edge" d="M 0 0 V -16.8469 H 34.5"/><circle class="sym" cx="0" cy="0" r="3"/><text class="lab lft" transform="translate(-3 -7)">26</text></g><path class="edge" d="M 0 0 V -7.45023 H -100.625"/><circle class="sym" cx="0" cy="0" r="3"/><text class="lab rgt" transform="translate(3 -7)">34</text></g><path class="edge" d="M 0 0 V -91.5535 H 90.5625"/><circle class="sym" cx="0" cy="0" r="3"/><text class="lab lft" transform="translate(-3 -7)">35</text></g><path class="edge" d="M 0 0 V -175.042 H -274.562"/><g class="mut m3 s3" transform="translate(0 -128.334)"><line x1="0" x2="0" y1="0" y2="128.334"/><path class="sym" d="M -3,-3 l 6,6 M -3,3 l 6,-6"/><text class="lab rgt" transform="translate(5 0)">3</text></g><g class="mut m0 s0" transform="translate(0 -111.335)"><line x1="0" x2="0" y1="0" y2="111.335"/><path class="sym" d="M -3,-3 l 6,6 M -3,3 l 6,-6"/><text class="lab rgt" transform="translate(5 0)">0</text></g><circle class="sym" cx="0" cy="0" r="3"/><text class="lab rgt" transform="translate(3 -7)">37</text></g><circle class="sym" cx="0" cy="0" r="3"/><text class="lab" transform="translate(0 -11)">38</text></g></g></g></g></g></svg>