<svg baseProfile="full" height="400" version="1.1" width="1000" xmlns="http://www.w3.org/2000/svg" xmlns:ev="http://www.w3.org/2001/xml-events" xmlns:xlink="http://www.w3.org/1999/xlink"><defs><style type="text/css"><![CDATA[.background path {fill: #808080; fill-opacity: 0}.background path:nth-child(odd) {fill-opacity: .1}.x-regions rect {fill: yellow; stroke: black; opacity: 0.5}.axes {font-size: 14px}.x-axis .tick .lab {font-weight: bold; dominant-baseline: hanging}.axes, .tree {font-size: 14px; text-anchor: middle}.axes line, .edge {stroke: black; fill: none}.axes .ax-skip {stroke-dasharray: 4}.y-axis .grid {stroke: #FAFAFA}.node > .sym {fill: black; stroke: none}.site > .sym {stroke: black}.mut text {fill: red; font-style: italic}.mut.extra text {fill: hotpink}.mut line {fill: none; stroke: none}.mut .sym {fill: none; stroke: red}.mut.extra .sym {stroke: hotpink}.node .mut .sym {stroke-width: 1.5px}.tree text, .tree-sequence text {dominant-baseline: central}.plotbox .lab.lft {text-anchor: end}.plotbox .lab.rgt {text-anchor: start}.polytomy line {stroke: black; stroke-dasharray: 1px, 1px}.polytomy text {paint-order:stroke;stroke-width:0.3em;stroke:white}]]></style></defs><g class="tree-sequence"><g class="background"><path d="M20,0 l960,0 l0,338.2 l0,25 l0,5 l-960,0 l0,-5 l0,-25 l0,-338.2z"/></g><g class="axes"><g class="x-axis"><g class="title" transform="translate(500 400)"><text class="lab" text-anchor="middle" transform="translate(0 -11)">Genome position</text></g><line class="ax-line" x1="20" x2="980" y1="363.2" y2="363.2"/><g class="ticks"><g class="tick" transform="translate(20 363.2)"><line x1="0" x2="0" y1="0" y2="5"/><g transform="translate(0 6)"><text class="lab">0</text></g></g><g class="tick" transform="translate(980 363.2)"><line x1="0" x2="0" y1="0" y2="5"/><g transform="translate(0 6)"><text class="lab">1000</text></g></g></g><g class="site s0" transform="translate(32.48 363.2)"><line class="sym" x1="0" x2="0" y1="0" y2="-10"/><g class="mut m0"><polyline class="sym" points="2.5,-6.5 0,-1.5 -2.5,-6.5"/></g></g><g class="site s1" transform="translate(260 363.2)"><line class="sym" x1="0" x2="0" y1="0" y2="-10"/><g class="mut m1"><polyline class="sym" points="2.5,-6.5 0,-1.5 -2.5,-6.5"/></g></g></g></g><g class="plotbox trees"><g class="tree t0" transform="translate(20 0)"><g class="plotbox"><g class="c2 node n38 p1 root" transform="translate(509.379 26.8)"><g class="a38 c2 node n36 p2" transform="translate(296.754 244.707)"><g class="a36 c2 node n32 p2" transform="translate(87.8672 31.327)"><g class="a32 i2 leaf node n2 p1 sample" transform="translate(-23 18.5656)"><path class="edge" d="M 0 0 V -18.5656 H 23"/><rect class="sym" height="6" width="6" x="-3" y="-3"/><text class="lab" transform="translate(0 11)">2</text></g><g class="a32 i14 leaf node n14 p2 sample" transform="translate(23 18.5656)"><path class="edge" d="M 0 0 V -18.5656 H -23"/><rect class="sym" height="6" width="6" x="-3" y="-3"/><text class="lab" transform="translate(0 11)">14</text></g><path class="edge" d="M 0 0 V -31.327 H -87.8672"/><circle class="sym" cx="0" cy="0" r="3"/><text class="lab rgt" transform="translate(3 -7)">32</text></g><g class="a36 c2 node n35 p2" transform="translate(-87.8672 0.277524)"><g class="a35 c2 node n29 p2" transform="translate(83.7344 42.7596)"><g class="a29 i10 leaf node n10 p2 sample" transform="translate(-23 6.85552)"><path class="edge" d="M 0 0 V -6.85552 H 23"/><rect class="sym" height="6" width="6" x="-3" y="-3"/><text class="lab" transform="translate(0 11)">10</text></g><g class="a29 i16 leaf node n16 p2 sample" transform="translate(23 6.85552)"><path class="edge" d="M 0 0 V -6.85552 H -23"/><rect class="sym" height="6" width="6" x="-3" y="-3"/><text class="lab" transform="translate(0 11)">16</text></g><path class="edge" d="M 0 0 V -42.7596 H -83.7344"/><circle class="sym" cx="0" cy="0" r="3"/><text class="lab rgt" transform="translate(3 -7)">29</text></g><g class="a35 c2 node n34 p1" transform="translate(-83.7344 24.4274)"><g class="a34 c2 node n21 p2" transform="translate(75.4688 24.3059)"><g class="a21 i4 leaf node n4 p1 sample" transform="translate(-23 0.881876)"><path class="edge" d="M 0 0 V -0.881876 H 23"/><rect class="sym" height="6" width="6" x="-3" y="-3"/><text class="lab" transform="translate(0 11)">4</text></g><g class="a21 i8 leaf node n8 p1 sample" transform="translate(23 0.881876)"><path class="edge" d="M 0 0 V -0.881876 H -23"/><rect class="sym" height="6" width="6" x="-3" y="-3"/><text class="lab" transform="translate(0 11)">8</text></g><path class="edge" d="M 0 0 V -24.3059 H -75.4688"/><circle class="sym" cx="0" cy="0" r="3"/><text class="lab rgt" transform="translate(3 -7)">21</text></g><g class="a34 c2 node n33 p2" transform="translate(-75.4688 5.44421)"><g class="a33 c2 node n30 p1" transform="translate(58.9375 8.56298)"><g class="a30 i5 leaf node n5 p1 sample" transform="translate(-23 11.1806)"><path class="edge" d="M 0 0 V -11.1806 H 23"/><rect class="sym" height="6" width="6" x="-3" y="-3"/><text class="lab" transform="translate(0 11)">5</text></g><g class="a30 i6 leaf node n6 p1 sample" transform="translate(23 11.1806)"><path class="edge" d="M 0 0 V -11.1806 H -23"/><rect class="sym" height="6" width="6" x="-3" y="-3"/><text class="lab" transform="translate(0 11)">6</text></g><path class="edge" d="M 0 0 V -8.56298 H -58.9375"/><circle class="sym" cx="0" cy="0" r="3"/><text class="lab rgt" transform="translate(3 -7)">30</text></g><g class="a33 c2 node n31 p2" transform="translate(-58.9375 4.88589)"><g class="a31 i13 leaf node n13 p2 sample" transform="translate(48.875 14.8577)"><path class="edge" d="M 0 0 V -14.8577 H -48.875"/><rect class="sym" height="6" width="6" x="-3" y="-3"/><text class="lab" transform="translate(0 11)">13</text></g><g class="a31 c2 node n28 p1" transform="translate(-48.875 8.00315)"><g class="a28 i17 leaf node n17 p2 sample" transform="translate(51.75 6.85451)"><path class="edge" d="M 0 0 V -6.85451 H -51.75"/><rect class="sym" height="6" width="6" x="-3" y="-3"/><text class="lab" transform="translate(0 11)">17</text></g><g class="a28 c2 node n22 p2" transform="translate(-51.75 3.98686)"><g class="a22 i1 leaf node n1 p1 sample" transform="translate(-34.5 2.86764)"><path class="edge" d="M 0 0 V -2.86764 H 34.5"/><rect class="sym" height="6" width="6" x="-3" y="-3"/><text class="lab" transform="translate(0 11)">1</text></g><g class="a22 c2 node n20 p2" transform="translate(34.5 2.51994)"><g class="a20 i3 leaf node n3 p1 sample" transform="translate(-23 0.3477)"><path class="edge" d="M 0 0 V -0.3477 H 23"/><rect class="sym" height="6" width="6" x="-3" y="-3"/><text class="lab" transform="translate(0 11)">3</text></g><g class="a20 i18 leaf node n18 p2 sample" transform="translate(23 0.3477)"><path class="edge" d="M 0 0 V -0.3477 H -23"/><rect class="sym" height="6" width="6" x="-3" y="-3"/><text class="lab" transform="translate(0 11)">18</text></g><path class="edge" d="M 0 0 V -2.51994 H -34.5"/><circle class="sym" cx="0" cy="0" r="3"/><text class="lab rgt" transform="translate(3 -7)">20</text></g><path class="edge" d="M 0 0 V -3.98686 H 51.75"/><circle class="sym" cx="0" cy="0" r="3"/><text class="lab lft" transform="translate(-3 -7)">22</text></g><path class="edge" d="M 0 0 V -8.00315 H 48.875"/><circle class="sym" cx="0" cy="0" r="3"/><text class="lab lft" transform="translate(-3 -7)">28</text></g><path class="edge" d="M 0 0 V -4.88589 H 58.9375"/><circle class="sym" cx="0" cy="0" r="3"/><text class="lab lft" transform="translate(-3 -7)">31</text></g><path class="edge" d="M 0 0 V -5.44421 H 75.4688"/><circle class="sym" cx="0" cy="0" r="3"/><text class="lab lft" transform="translate(-3 -7)">33</text></g><path class="edge" d="M 0 0 V -24.4274 H 83.7344"/><circle class="sym" cx="0" cy="0" r="3"/><text class="lab lft" transform="translate(-3 -7)">34</text></g><path class="edge" d="M 0 0 V -0.277524 H 87.8672"/><circle class="sym" cx="0" cy="0" r="3"/><text class="lab lft" transform="translate(-3 -7)">35</text></g><path class="edge" d="M 0 0 V -244.707 H -296.754"/><circle class="sym" cx="0" cy="0" r="3"/><text class="lab rgt" transform="translate(3 -7)">36</text></g><g class="a38 c2 m0 m1 node n37 p2 s0 s1" transform="translate(-296.754 142.044)"><g class="a37 c2 node n25 p1" transform="translate(83.375 148.868)"><g class="a25 i12 leaf node n12 p2 sample" transform="translate(-23 3.6886)"><path class="edge" d="M 0 0 V -3.6886 H 23"/><rect class="sym" height="6" width="6" x="-3" y="-3"/><text class="lab" transform="translate(0 11)">12</text></g><g class="a25 i19 leaf node n19 p2 sample" transform="translate(23 3.6886)"><path class="edge" d="M 0 0 V -3.6886 H -23"/><rect class="sym" height="6" width="6" x="-3" y="-3"/><text class="lab" transform="translate(0 11)">19</text></g><path class="edge" d="M 0 0 V -148.868 H -83.375"/><circle class="sym" cx="0" cy="0" r="3"/><text class="lab rgt" transform="translate(3 -7)">25</text></g><g class="a37 c2 node n27 p1" transform="translate(-83.375 147.745)"><g class="a27 c2 node n23 p1" transform="translate(-63.25 1.36965)"><g class="a23 i0 leaf node n0 p1 sample" transform="translate(-23 3.44142)"><path class="edge" d="M 0 0 V -3.44142 H 23"/><rect class="sym" height="6" width="6" x="-3" y="-3"/><text class="lab" transform="translate(0 11)">0</text></g><g class="a23 i9 leaf node n9 p1 sample" transform="translate(23 3.44142)"><path class="edge" d="M 0 0 V -3.44142 H -23"/><rect class="sym" height="6" width="6" x="-3" y="-3"/><text class="lab" transform="translate(0 11)">9</text></g><path class="edge" d="M 0 0 V -1.36965 H 63.25"/><circle class="sym" cx="0" cy="0" r="3"/><text class="lab lft" transform="translate(-3 -7)">23</text></g><g class="a27 c2 node n26 p1" transform="translate(63.25 0.567129)"><g class="a26 i15 leaf node n15 p2 sample" transform="translate(34.5 4.24393)"><path class="edge" d="M 0 0 V -4.24393 H -34.5"/><rect class="sym" height="6" width="6" x="-3" y="-3"/><text class="lab" transform="translate(0 11)">15</text></g><g class="a26 c2 node n24 p1" transform="translate(-34.5 0.647979)"><g class="a24 i7 leaf node n7 p1 sample" transform="translate(-23 3.59596)"><path class="edge" d="M 0 0 V -3.59596 H 23"/><rect class="sym" height="6" width="6" x="-3" y="-3"/><text class="lab" transform="translate(0 11)">7</text></g><g class="a24 i11 leaf node n11 p2 sample" transform="translate(23 3.59596)"><path class="edge" d="M 0 0 V -3.59596 H -23"/><rect class="sym" height="6" width="6" x="-3" y="-3"/><text class="lab" transform="translate(0 11)">11</text></g><path class="edge" d="M 0 0 V -0.647979 H 34.5"/><circle class="sym" cx="0" cy="0" r="3"/><text class="lab lft" transform="translate(-3 -7)">24</text></g><path class="edge" d="M 0 0 V -0.567129 H -63.25"/><circle class="sym" cx="0" cy="0" r="3"/><text class="lab rgt" transform="translate(3 -7)">26</text></g><path class="edge" d="M 0 0 V -147.745 H 83.375"/><circle class="sym" cx="0" cy="0" r="3"/><text class="lab lft" transform="translate(-3 -7)">27</text></g><path class="edge" d="M 0 0 V -142.044 H 296.754"/><g class="mut m1 s1" transform="translate(0 -50.6101)"><line x1="0" x2="0" y1="0" y2="50.6101"/><path class="sym" d="M -3,-3 l 6,6 M -3,3 l 6,-6"/><text class="lab lft" transform="translate(-5 0)">1</text></g><g class="mut m0 s0" transform="translate(0 -16.9664)"><line x1="0" x2="0" y1="0" y2="16.9664"/><path class="sym" d="M -3,-3 l 6,6 M -3,3 l 6,-6"/><text class="lab lft" transform="translate(-5 0)">0</text></g><circle class="sym" cx="0" cy="0" r="3"/><text class="lab lft" transform="translate(-3 -7)">37</text></g><circle class="sym" cx="0" cy="0" r="3"/><text class="lab" transform="translate(0 -11)">38</text></g></g></g></g></g></svg>