<svg baseProfile="full" height="400" version="1.1" width="1000" xmlns="http://www.w3.org/2000/svg" xmlns:ev="http://www.w3.org/2001/xml-events" xmlns:xlink="http://www.w3.org/1999/xlink"><defs><style type="text/css"><![CDATA[.background path {fill: #808080; fill-opacity: 0}.background path:nth-child(odd) {fill-opacity: .1}.x-regions rect {fill: yellow; stroke: black; opacity: 0.5}.axes {font-size: 14px}.x-axis .tick .lab {font-weight: bold; dominant-baseline: hanging}.axes, .tree {font-size: 14px; text-anchor: middle}.axes line, .edge {stroke: black; fill: none}.axes .ax-skip {stroke-dasharray: 4}.y-axis .grid {stroke: #FAFAFA}.node > .sym {fill: black; stroke: none}.site > .sym {stroke: black}.mut text {fill: red; font-style: italic}.mut.extra text {fill: hotpink}.mut line {fill: none; stroke: none}.mut .sym {fill: none; stroke: red}.mut.extra .sym {stroke: hotpink}.node .mut .sym {stroke-width: 1.5px}.tree text, .tree-sequence text {dominant-baseline: central}.plotbox .lab.lft {text-anchor: end}.plotbox .lab.rgt {text-anchor: start}.polytomy line {stroke: black; stroke-dasharray: 1px, 1px}.polytomy text {paint-order:stroke;stroke-width:0.3em;stroke:white}]]></style></defs><g class="tree-sequence"><g class="background"><path d="M20,0 l960,0 l0,338.2 l0,25 l0,5 l-960,0 l0,-5 l0,-25 l0,-338.2z"/></g><g class="axes"><g class="x-axis"><g class="title" transform="translate(500 400)"><text class="lab" text-anchor="middle" transform="translate(0 -11)">Genome position</text></g><line class="ax-line" x1="20" x2="980" y1="363.2" y2="363.2"/><g class="ticks"><g class="tick" transform="translate(20 363.2)"><line x1="0" x2="0" y1="0" y2="5"/><g transform="translate(0 6)"><text class="lab">0</text></g></g><g class="tick" transform="translate(980 363.2)"><line x1="0" x2="0" y1="0" y2="5"/><g transform="translate(0 6)"><text class="lab">1000</text></g></g></g><g class="site s0" transform="translate(861.92 363.2)"><line class="sym" x1="0" x2="0" y1="0" y2="-10"/><g class="mut m0"><polyline class="sym" points="2.5,-6.5 0,-1.5 -2.5,-6.5"/></g></g><g class="site s1" transform="translate(961.76 363.2)"><line class="sym" x1="0" x2="0" y1="0" y2="-10"/><g class="mut m1"><polyline class="sym" points="2.5,-6.5 0,-1.5 -2.5,-6.5"/></g></g></g></g><g class="plotbox trees"><g class="tree t0" transform="translate(20 0)"><g class="plotbox"><g class="c2 node n38 p0 root" transform="translate(541.992 26.8)"><g class="a38 c2 m1 node n28 p1 s1" transform="translate(323.258 238.773)"><g class="a28 i13 leaf node n13 p2 sample" transform="translate(51.75 55.8267)"><path class="edge" d="M 0 0 V -55.8267 H -51.75"/><rect class="sym" height="6" width="6" x="-3" y="-3"/><text class="lab" transform="translate(0 11)">13</text></g><g class="a28 c2 node n26 p1" transform="translate(-51.75 40.0909)"><g class="a26 i5 leaf node n5 p1 sample" transform="translate(-34.5 15.7358)"><path class="edge" d="M 0 0 V -15.7358 H 34.5"/><rect class="sym" height="6" width="6" x="-3" y="-3"/><text class="lab" transform="translate(0 11)">5</text></g><g class="a26 c2 node n23 p1" transform="translate(34.5 9.56671)"><g class="a23 i8 leaf node n8 p1 sample" transform="translate(-23 6.16908)"><path class="edge" d="M 0 0 V -6.16908 H 23"/><rect class="sym" height="6" width="6" x="-3" y="-3"/><text class="lab" transform="translate(0 11)">8</text></g><g class="a23 i10 leaf node n10 p2 sample" transform="translate(23 6.16908)"><path class="edge" d="M 0 0 V -6.16908 H -23"/><rect class="sym" height="6" width="6" x="-3" y="-3"/><text class="lab" transform="translate(0 11)">10</text></g><path class="edge" d="M 0 0 V -9.56671 H -34.5"/><circle class="sym" cx="0" cy="0" r="3"/><text class="lab rgt" transform="translate(3 -7)">23</text></g><path class="edge" d="M 0 0 V -40.0909 H 51.75"/><circle class="sym" cx="0" cy="0" r="3"/><text class="lab lft" transform="translate(-3 -7)">26</text></g><path class="edge" d="M 0 0 V -238.773 H -323.258"/><g class="mut m1 s1" transform="translate(0 -126.537)"><line x1="0" x2="0" y1="0" y2="126.537"/><path class="sym" d="M -3,-3 l 6,6 M -3,3 l 6,-6"/><text class="lab rgt" transform="translate(5 0)">1</text></g><circle class="sym" cx="0" cy="0" r="3"/><text class="lab rgt" transform="translate(3 -7)">28</text></g><g class="a38 c2 node n37 p0" transform="translate(-323.258 41.6204)"><g class="a37 c2 node n25 p2" transform="translate(-152.734 240.442)"><g class="a25 i0 leaf node n0 p1 sample" transform="translate(-23 12.538)"><path class="edge" d="M 0 0 V -12.538 H 23"/><rect class="sym" height="6" width="6" x="-3" y="-3"/><text class="lab" transform="translate(0 11)">0</text></g><g class="a25 i7 leaf node n7 p1 sample" transform="translate(23 12.538)"><path class="edge" d="M 0 0 V -12.538 H -23"/><rect class="sym" height="6" width="6" x="-3" y="-3"/><text class="lab" transform="translate(0 11)">7</text></g><path class="edge" d="M 0 0 V -240.442 H 152.734"/><circle class="sym" cx="0" cy="0" r="3"/><text class="lab lft" transform="translate(-3 -7)">25</text></g><g class="a37 c2 node n36 p0" transform="translate(152.734 90.3655)"><g class="a36 c2 node n34 p0" transform="translate(167.469 8.72556)"><g class="a34 c2 node n32 p0" transform="translate(-142.312 3.26271)"><g class="a32 c2 node n30 p1" transform="translate(-54.625 83.1966)"><g class="a30 i2 leaf node n2 p1 sample" transform="translate(-23 67.4292)"><path class="edge" d="M 0 0 V -67.4292 H 23"/><rect class="sym" height="6" width="6" x="-3" y="-3"/><text class="lab" transform="translate(0 11)">2</text></g><g class="a30 i6 leaf m0 node n6 p1 s0 sample" transform="translate(23 67.4292)"><path class="edge" d="M 0 0 V -67.4292 H -23"/><g class="mut m0 s0" transform="translate(0 -40.9641)"><line x1="0" x2="0" y1="0" y2="40.9641"/><path class="sym" d="M -3,-3 l 6,6 M -3,3 l 6,-6"/><text class="lab rgt" transform="translate(5 0)">0</text></g><rect class="sym" height="6" width="6" x="-3" y="-3"/><text class="lab" transform="translate(0 11)">6</text></g><path class="edge" d="M 0 0 V -83.1966 H 54.625"/><circle class="sym" cx="0" cy="0" r="3"/><text class="lab lft" transform="translate(-3 -7)">30</text></g><g class="a32 c2 node n31 p1" transform="translate(54.625 48.5036)"><g class="a31 i4 leaf node n4 p1 sample" transform="translate(-40.25 102.122)"><path class="edge" d="M 0 0 V -102.122 H 40.25"/><rect class="sym" height="6" width="6" x="-3" y="-3"/><text class="lab" transform="translate(0 11)">4</text></g><g class="a31 c2 node n24 p2" transform="translate(40.25 93.7506)"><g class="a24 i14 leaf node n14 p2 sample" transform="translate(-34.5 8.37156)"><path class="edge" d="M 0 0 V -8.37156 H 34.5"/><rect class="sym" height="6" width="6" x="-3" y="-3"/><text class="lab" transform="translate(0 11)">14</text></g><g class="a24 c2 node n21 p2" transform="translate(34.5 6.19499)"><g class="a21 i15 leaf node n15 p2 sample" transform="translate(-23 2.17657)"><path class="edge" d="M 0 0 V -2.17657 H 23"/><rect class="sym" height="6" width="6" x="-3" y="-3"/><text class="lab" transform="translate(0 11)">15</text></g><g class="a21 i18 leaf node n18 p2 sample" transform="translate(23 2.17657)"><path class="edge" d="M 0 0 V -2.17657 H -23"/><rect class="sym" height="6" width="6" x="-3" y="-3"/><text class="lab" transform="translate(0 11)">18</text></g><path class="edge" d="M 0 0 V -6.19499 H -34.5"/><circle class="sym" cx="0" cy="0" r="3"/><text class="lab rgt" transform="translate(3 -7)">21</text></g><path class="edge" d="M 0 0 V -93.7506 H -40.25"/><circle class="sym" cx="0" cy="0" r="3"/><text class="lab rgt" transform="translate(3 -7)">24</text></g><path class="edge" d="M 0 0 V -48.5036 H -54.625"/><circle class="sym" cx="0" cy="0" r="3"/><text class="lab rgt" transform="translate(3 -7)">31</text></g><path class="edge" d="M 0 0 V -3.26271 H 142.312"/><circle class="sym" cx="0" cy="0" r="3"/><text class="lab lft" transform="translate(-3 -7)">32</text></g><g class="a34 c2 node n33 p0" transform="translate(142.312 1.40602)"><g class="a33 i9 leaf node n9 p1 sample" transform="translate(51.75 152.482)"><path class="edge" d="M 0 0 V -152.482 H -51.75"/><rect class="sym" height="6" width="6" x="-3" y="-3"/><text class="lab" transform="translate(0 11)">9</text></g><g class="a33 c2 node n29 p2" transform="translate(-51.75 87.7916)"><g class="a29 i3 leaf node n3 p1 sample" transform="translate(-34.5 64.6909)"><path class="edge" d="M 0 0 V -64.6909 H 34.5"/><rect class="sym" height="6" width="6" x="-3" y="-3"/><text class="lab" transform="translate(0 11)">3</text></g><g class="a29 c2 node n20 p2" transform="translate(34.5 64.2619)"><g class="a20 i12 leaf node n12 p2 sample" transform="translate(-23 0.429037)"><path class="edge" d="M 0 0 V -0.429037 H 23"/><rect class="sym" height="6" width="6" x="-3" y="-3"/><text class="lab" transform="translate(0 11)">12</text></g><g class="a20 i16 leaf node n16 p2 sample" transform="translate(23 0.429037)"><path class="edge" d="M 0 0 V -0.429037 H -23"/><rect class="sym" height="6" width="6" x="-3" y="-3"/><text class="lab" transform="translate(0 11)">16</text></g><path class="edge" d="M 0 0 V -64.2619 H -34.5"/><circle class="sym" cx="0" cy="0" r="3"/><text class="lab rgt" transform="translate(3 -7)">20</text></g><path class="edge" d="M 0 0 V -87.7916 H 51.75"/><circle class="sym" cx="0" cy="0" r="3"/><text class="lab lft" transform="translate(-3 -7)">29</text></g><path class="edge" d="M 0 0 V -1.40602 H -142.312"/><circle class="sym" cx="0" cy="0" r="3"/><text class="lab rgt" transform="translate(3 -7)">33</text></g><path class="edge" d="M 0 0 V -8.72556 H -167.469"/><circle class="sym" cx="0" cy="0" r="3"/><text class="lab rgt" transform="translate(3 -7)">34</text></g><g class="a36 c2 node n35 p0" transform="translate(-167.469 7.07085)"><g class="a35 c2 node n22 p2" transform="translate(-46 153.132)"><g class="a22 i1 leaf node n1 p1 sample" transform="translate(-23 2.41159)"><path class="edge" d="M 0 0 V -2.41159 H 23"/><rect class="sym" height="6" width="6" x="-3" y="-3"/><text class="lab" transform="translate(0 11)">1</text></g><g class="a22 i11 leaf node n11 p2 sample" transform="translate(23 2.41159)"><path class="edge" d="M 0 0 V -2.41159 H -23"/><rect class="sym" height="6" width="6" x="-3" y="-3"/><text class="lab" transform="translate(0 11)">11</text></g><path class="edge" d="M 0 0 V -153.132 H 46"/><circle class="sym" cx="0" cy="0" r="3"/><text class="lab lft" transform="translate(-3 -7)">22</text></g><g class="a35 c2 node n27 p1" transform="translate(46 111.92)"><g class="a27 i17 leaf node n17 p2 sample" transform="translate(-23 43.6236)"><path class="edge" d="M 0 0 V -43.6236 H 23"/><rect class="sym" height="6" width="6" x="-3" y="-3"/><text class="lab" transform="translate(0 11)">17</text></g><g class="a27 i19 leaf node n19 p2 sample" transform="translate(23 43.6236)"><path class="edge" d="M 0 0 V -43.6236 H -23"/><rect class="sym" height="6" width="6" x="-3" y="-3"/><text class="lab" transform="translate(0 11)">19</text></g><path class="edge" d="M 0 0 V -111.92 H -46"/><circle class="sym" cx="0" cy="0" r="3"/><text class="lab rgt" transform="translate(3 -7)">27</text></g><path class="edge" d="M 0 0 V -7.07085 H 167.469"/><circle class="sym" cx="0" cy="0" r="3"/><text class="lab lft" transform="translate(-3 -7)">35</text></g><path class="edge" d="M 0 0 V -90.3655 H -152.734"/><circle class="sym" cx="0" cy="0" r="3"/><text class="lab rgt" transform="translate(3 -7)">36</text></g><path class="edge" d="M 0 0 V -41.6204 H 323.258"/><circle class="sym" cx="0" cy="0" r="3"/><text class="lab lft" transform="translate(-3 -7)">37</text></g><circle class="sym" cx="0" cy="0" r="3"/><text class="lab" transform="translate(0 -11)">38</text></g></g></g></g></g></svg>