<svg baseProfile="full" height="400" version="1.1" width="1000" xmlns="http://www.w3.org/2000/svg" xmlns:ev="http://www.w3.org/2001/xml-events" xmlns:xlink="http://www.w3.org/1999/xlink"><defs><style type="text/css"><![CDATA[.background path {fill: #808080; fill-opacity: 0}.background path:nth-child(odd) {fill-opacity: .1}.x-regions rect {fill: yellow; stroke: black; opacity: 0.5}.axes {font-size: 14px}.x-axis .tick .lab {font-weight: bold; dominant-baseline: hanging}.axes, .tree {font-size: 14px; text-anchor: middle}.axes line, .edge {stroke: black; fill: none}.axes .ax-skip {stroke-dasharray: 4}.y-axis .grid {stroke: #FAFAFA}.node > .sym {fill: black; stroke: none}.site > .sym {stroke: black}.mut text {fill: red; font-style: italic}.mut.extra text {fill: hotpink}.mut line {fill: none; stroke: none}.mut .sym {fill: none; stroke: red}.mut.extra .sym {stroke: hotpink}.node .mut .sym {stroke-width: 1.5px}.tree text, .tree-sequence text {dominant-baseline: central}.plotbox .lab.lft {text-anchor: end}.plotbox .lab.rgt {text-anchor: start}.polytomy line {stroke: black; stroke-dasharray: 1px, 1px}.polytomy text {paint-order:stroke;stroke-width:0.3em;stroke:white}]]></style></defs><g class="tree-sequence"><g class="background"><path d="M20,0 l960,0 l0,338.2 l0,25 l0,5 l-960,0 l0,-5 l0,-25 l0,-338.2z"/></g><g class="axes"><g class="x-axis"><g class="title" transform="translate(500 400)"><text class="lab" text-anchor="middle" transform="translate(0 -11)">Genome position</text></g><line class="ax-line" x1="20" x2="980" y1="363.2" y2="363.2"/><g class="ticks"><g class="tick" transform="translate(20 363.2)"><line x1="0" x2="0" y1="0" y2="5"/><g transform="translate(0 6)"><text class="lab">0</text></g></g><g class="tick" transform="translate(980 363.2)"><line x1="0" x2="0" y1="0" y2="5"/><g transform="translate(0 6)"><text class="lab">1000</text></g></g></g><g class="site s0" transform="translate(67.04 363.2)"><line class="sym" x1="0" x2="0" y1="0" y2="-10"/><g class="mut m0"><polyline class="sym" points="2.5,-6.5 0,-1.5 -2.5,-6.5"/></g></g><g class="site s1" transform="translate(601.76 363.2)"><line class="sym" x1="0" x2="0" y1="0" y2="-10"/><g class="mut m1"><polyline class="sym" points="2.5,-6.5 0,-1.5 -2.5,-6.5"/></g></g></g></g><g class="plotbox trees"><g class="tree t0" transform="translate(20 0)"><g class="plotbox"><g class="c2 node n38 p0 root" transform="translate(686.641 26.8)"><g class="a38 c2 node n26 p1" transform="translate(144.109 279.707)"><g class="a26 i8 leaf node n8 p1 sample" transform="translate(-51.75 14.8926)"><path class="edge" d="M 0 0 V -14.8926 H 51.75"/><rect class="sym" height="6" width="6" x="-3" y="-3"/><text class="lab" transform="translate(0 11)">8</text></g><g class="a26 c2 node n22 p1" transform="translate(51.75 12.5996)"><g class="a22 i12 leaf node n12 p2 sample" transform="translate(34.5 2.29293)"><path class="edge" d="M 0 0 V -2.29293 H -34.5"/><rect class="sym" height="6" width="6" x="-3" y="-3"/><text class="lab" transform="translate(0 11)">12</text></g><g class="a22 c2 node n20 p2" transform="translate(-34.5 1.87399)"><g class="a20 i11 leaf node n11 p2 sample" transform="translate(-23 0.41894)"><path class="edge" d="M 0 0 V -0.41894 H 23"/><rect class="sym" height="6" width="6" x="-3" y="-3"/><text class="lab" transform="translate(0 11)">11</text></g><g class="a20 i15 leaf node n15 p2 sample" transform="translate(23 0.41894)"><path class="edge" d="M 0 0 V -0.41894 H -23"/><rect class="sym" height="6" width="6" x="-3" y="-3"/><text class="lab" transform="translate(0 11)">15</text></g><path class="edge" d="M 0 0 V -1.87399 H 34.5"/><circle class="sym" cx="0" cy="0" r="3"/><text class="lab lft" transform="translate(-3 -7)">20</text></g><path class="edge" d="M 0 0 V -12.5996 H -51.75"/><circle class="sym" cx="0" cy="0" r="3"/><text class="lab rgt" transform="translate(3 -7)">22</text></g><path class="edge" d="M 0 0 V -279.707 H -144.109"/><circle class="sym" cx="0" cy="0" r="3"/><text class="lab rgt" transform="translate(3 -7)">26</text></g><g class="a38 c2 node n37 p0" transform="translate(-144.109 43.3228)"><g class="a37 c2 node n35 p0" transform="translate(132.969 167.635)"><g class="a35 i1 leaf m1 node n1 p1 s1 sample" transform="translate(-34.5 83.6427)"><path class="edge" d="M 0 0 V -83.6427 H 34.5"/><g class="mut m1 s1" transform="translate(0 -72.7689)"><line x1="0" x2="0" y1="0" y2="72.7689"/><path class="sym" d="M -3,-3 l 6,6 M -3,3 l 6,-6"/><text class="lab lft" transform="translate(-5 0)">1</text></g><rect class="sym" height="6" width="6" x="-3" y="-3"/><text class="lab" transform="translate(0 11)">1</text></g><g class="a35 c2 node n30 p2" transform="translate(34.5 37.6002)"><g class="a30 i9 leaf node n9 p1 sample" transform="translate(-23 46.0424)"><path class="edge" d="M 0 0 V -46.0424 H 23"/><rect class="sym" height="6" width="6" x="-3" y="-3"/><text class="lab" transform="translate(0 11)">9</text></g><g class="a30 i14 leaf node n14 p2 sample" transform="translate(23 46.0424)"><path class="edge" d="M 0 0 V -46.0424 H -23"/><rect class="sym" height="6" width="6" x="-3" y="-3"/><text class="lab" transform="translate(0 11)">14</text></g><path class="edge" d="M 0 0 V -37.6002 H -34.5"/><circle class="sym" cx="0" cy="0" r="3"/><text class="lab rgt" transform="translate(3 -7)">30</text></g><path class="edge" d="M 0 0 V -167.635 H -132.969"/><circle class="sym" cx="0" cy="0" r="3"/><text class="lab rgt" transform="translate(3 -7)">35</text></g><g class="a37 c2 node n36 p0" transform="translate(-132.969 138.175)"><g class="a36 c2 m0 node n32 p2 s0" transform="translate(162.438 48.6107)"><g class="a32 i3 leaf node n3 p1 sample" transform="translate(-23 64.4918)"><path class="edge" d="M 0 0 V -64.4918 H 23"/><rect class="sym" height="6" width="6" x="-3" y="-3"/><text class="lab" transform="translate(0 11)">3</text></g><g class="a32 i6 leaf node n6 p1 sample" transform="translate(23 64.4918)"><path class="edge" d="M 0 0 V -64.4918 H -23"/><rect class="sym" height="6" width="6" x="-3" y="-3"/><text class="lab" transform="translate(0 11)">6</text></g><path class="edge" d="M 0 0 V -48.6107 H -162.438"/><g class="mut m0 s0" transform="translate(0 -40.1548)"><line x1="0" x2="0" y1="0" y2="40.1548"/><path class="sym" d="M -3,-3 l 6,6 M -3,3 l 6,-6"/><text class="lab rgt" transform="translate(5 0)">0</text></g><circle class="sym" cx="0" cy="0" r="3"/><text class="lab rgt" transform="translate(3 -7)">32</text></g><g class="a36 c2 node n34 p1" transform="translate(-162.438 39.7487)"><g class="a34 c2 node n31 p1" transform="translate(117.875 23.6527)"><g class="a31 c2 node n25 p1" transform="translate(-69 35.083)"><g class="a25 i5 leaf node n5 p1 sample" transform="translate(-23 14.618)"><path class="edge" d="M 0 0 V -14.618 H 23"/><rect class="sym" height="6" width="6" x="-3" y="-3"/><text class="lab" transform="translate(0 11)">5</text></g><g class="a25 i7 leaf node n7 p1 sample" transform="translate(23 14.618)"><path class="edge" d="M 0 0 V -14.618 H -23"/><rect class="sym" height="6" width="6" x="-3" y="-3"/><text class="lab" transform="translate(0 11)">7</text></g><path class="edge" d="M 0 0 V -35.083 H 69"/><circle class="sym" cx="0" cy="0" r="3"/><text class="lab lft" transform="translate(-3 -7)">25</text></g><g class="a31 c2 node n29 p1" transform="translate(69 5.15115)"><g class="a29 c2 node n23 p1" transform="translate(46 34.0859)"><g class="a23 i17 leaf node n17 p2 sample" transform="translate(-23 10.464)"><path class="edge" d="M 0 0 V -10.464 H 23"/><rect class="sym" height="6" width="6" x="-3" y="-3"/><text class="lab" transform="translate(0 11)">17</text></g><g class="a23 i18 leaf node n18 p2 sample" transform="translate(23 10.464)"><path class="edge" d="M 0 0 V -10.464 H -23"/><rect class="sym" height="6" width="6" x="-3" y="-3"/><text class="lab" transform="translate(0 11)">18</text></g><path class="edge" d="M 0 0 V -34.0859 H -46"/><circle class="sym" cx="0" cy="0" r="3"/><text class="lab rgt" transform="translate(3 -7)">23</text></g><g class="a29 c2 node n27 p2" transform="translate(-46 25.9039)"><g class="a27 i10 leaf node n10 p2 sample" transform="translate(-23 18.646)"><path class="edge" d="M 0 0 V -18.646 H 23"/><rect class="sym" height="6" width="6" x="-3" y="-3"/><text class="lab" transform="translate(0 11)">10</text></g><g class="a27 i13 leaf node n13 p2 sample" transform="translate(23 18.646)"><path class="edge" d="M 0 0 V -18.646 H -23"/><rect class="sym" height="6" width="6" x="-3" y="-3"/><text class="lab" transform="translate(0 11)">13</text></g><path class="edge" d="M 0 0 V -25.9039 H 46"/><circle class="sym" cx="0" cy="0" r="3"/><text class="lab lft" transform="translate(-3 -7)">27</text></g><path class="edge" d="M 0 0 V -5.15115 H -69"/><circle class="sym" cx="0" cy="0" r="3"/><text class="lab rgt" transform="translate(3 -7)">29</text></g><path class="edge" d="M 0 0 V -23.6527 H -117.875"/><circle class="sym" cx="0" cy="0" r="3"/><text class="lab rgt" transform="translate(3 -7)">31</text></g><g class="a34 c2 node n33 p1" transform="translate(-117.875 7.59341)"><g class="a33 c2 node n24 p1" transform="translate(63.25 51.4187)"><g class="a24 i16 leaf node n16 p2 sample" transform="translate(34.5 14.3416)"><path class="edge" d="M 0 0 V -14.3416 H -34.5"/><rect class="sym" height="6" width="6" x="-3" y="-3"/><text class="lab" transform="translate(0 11)">16</text></g><g class="a24 c2 node n21 p2" transform="translate(-34.5 12.4986)"><g class="a21 i2 leaf node n2 p1 sample" transform="translate(-23 1.84299)"><path class="edge" d="M 0 0 V -1.84299 H 23"/><rect class="sym" height="6" width="6" x="-3" y="-3"/><text class="lab" transform="translate(0 11)">2</text></g><g class="a21 i4 leaf node n4 p1 sample" transform="translate(23 1.84299)"><path class="edge" d="M 0 0 V -1.84299 H -23"/><rect class="sym" height="6" width="6" x="-3" y="-3"/><text class="lab" transform="translate(0 11)">4</text></g><path class="edge" d="M 0 0 V -12.4986 H 34.5"/><circle class="sym" cx="0" cy="0" r="3"/><text class="lab lft" transform="translate(-3 -7)">21</text></g><path class="edge" d="M 0 0 V -51.4187 H -63.25"/><circle class="sym" cx="0" cy="0" r="3"/><text class="lab rgt" transform="translate(3 -7)">24</text></g><g class="a33 c2 node n28 p2" transform="translate(-63.25 36.1586)"><g class="a28 i0 leaf node n0 p1 sample" transform="translate(-23 29.6017)"><path class="edge" d="M 0 0 V -29.6017 H 23"/><rect class="sym" height="6" width="6" x="-3" y="-3"/><text class="lab" transform="translate(0 11)">0</text></g><g class="a28 i19 leaf node n19 p2 sample" transform="translate(23 29.6017)"><path class="edge" d="M 0 0 V -29.6017 H -23"/><rect class="sym" height="6" width="6" x="-3" y="-3"/><text class="lab" transform="translate(0 11)">19</text></g><path class="edge" d="M 0 0 V -36.1586 H 63.25"/><circle class="sym" cx="0" cy="0" r="3"/><text class="lab lft" transform="translate(-3 -7)">28</text></g><path class="edge" d="M 0 0 V -7.59341 H 117.875"/><circle class="sym" cx="0" cy="0" r="3"/><text class="lab lft" transform="translate(-3 -7)">33</text></g><path class="edge" d="M 0 0 V -39.7487 H 162.438"/><circle class="sym" cx="0" cy="0" r="3"/><text class="lab lft" transform="translate(-3 -7)">34</text></g><path class="edge" d="M 0 0 V -138.175 H 132.969"/><circle class="sym" cx="0" cy="0" r="3"/><text class="lab lft" transform="translate(-3 -7)">36</text></g><path class="edge" d="M 0 0 V -43.3228 H 144.109"/><circle class="sym" cx="0" cy="0" r="3"/><text class="lab lft" transform="translate(-3 -7)">37</text></g><circle class="sym" cx="0" cy="0" r="3"/><text class="lab" transform="translate(0 -11)">38</text></g></g></g></g></g></svg>