<svg baseProfile="full" height="400" version="1.1" width="1000" xmlns="http://www.w3.org/2000/svg" xmlns:ev="http://www.w3.org/2001/xml-events" xmlns:xlink="http://www.w3.org/1999/xlink"><defs><style type="text/css"><![CDATA[.background path {fill: #808080; fill-opacity: 0}.background path:nth-child(odd) {fill-opacity: .1}.x-regions rect {fill: yellow; stroke: black; opacity: 0.5}.axes {font-size: 14px}.x-axis .tick .lab {font-weight: bold; dominant-baseline: hanging}.axes, .tree {font-size: 14px; text-anchor: middle}.axes line, .edge {stroke: black; fill: none}.axes .ax-skip {stroke-dasharray: 4}.y-axis .grid {stroke: #FAFAFA}.node > .sym {fill: black; stroke: none}.site > .sym {stroke: black}.mut text {fill: red; font-style: italic}.mut.extra text {fill: hotpink}.mut line {fill: none; stroke: none}.mut .sym {fill: none; stroke: red}.mut.extra .sym {stroke: hotpink}.node .mut .sym {stroke-width: 1.5px}.tree text, .tree-sequence text {dominant-baseline: central}.plotbox .lab.lft {text-anchor: end}.plotbox .lab.rgt {text-anchor: start}.polytomy line {stroke: black; stroke-dasharray: 1px, 1px}.polytomy text {paint-order:stroke;stroke-width:0.3em;stroke:white}]]></style></defs><g class="tree-sequence"><g class="background"><path d="M20,0 l960,0 l0,338.2 l0,25 l0,5 l-960,0 l0,-5 l0,-25 l0,-338.2z"/></g><g class="axes"><g class="x-axis"><g class="title" transform="translate(500 400)"><text class="lab" text-anchor="middle" transform="translate(0 -11)">Genome position</text></g><line class="ax-line" x1="20" x2="980" y1="363.2" y2="363.2"/><g class="ticks"><g class="tick" transform="translate(20 363.2)"><line x1="0" x2="0" y1="0" y2="5"/><g transform="translate(0 6)"><text class="lab">0</text></g></g><g class="tick" transform="translate(980 363.2)"><line x1="0" x2="0" y1="0" y2="5"/><g transform="translate(0 6)"><text class="lab">1000</text></g></g></g><g class="site s0" transform="translate(209.12 363.2)"><line class="sym" x1="0" x2="0" y1="0" y2="-10"/><g class="mut m0"><polyline class="sym" points="2.5,-6.5 0,-1.5 -2.5,-6.5"/></g></g><g class="site s1" transform="translate(317.6 363.2)"><line class="sym" x1="0" x2="0" y1="0" y2="-10"/><g class="mut m1"><polyline class="sym" points="2.5,-6.5 0,-1.5 -2.5,-6.5"/></g></g><g class="site s2" transform="translate(432.8 363.2)"><line class="sym" x1="0" x2="0" y1="0" y2="-10"/><g class="mut m2"><polyline class="sym" points="2.5,-6.5 0,-1.5 -2.5,-6.5"/></g></g><g class="site s3" transform="translate(947.36 363.2)"><line class="sym" x1="0" x2="0" y1="0" y2="-10"/><g class="mut m3"><polyline class="sym" points="2.5,-6.5 0,-1.5 -2.5,-6.5"/></g></g></g></g><g class="plotbox trees"><g class="tree t0" transform="translate(20 0)"><g class="plotbox"><g class="c2 node n38 p1 root" transform="translate(380.094 26.8)"><g class="a38 c2 node n36 p1" transform="translate(167.469 232.687)"><g class="a36 c2 node n27 p2" transform="translate(-205.562 54.126)"><g class="a27 i2 leaf node n2 p1 sample" transform="translate(-23 7.78688)"><path class="edge" d="M 0 0 V -7.78688 H 23"/><rect class="sym" height="6" width="6" x="-3" y="-3"/><text class="lab" transform="translate(0 11)">2</text></g><g class="a27 i18 leaf node n18 p2 sample" transform="translate(23 7.78688)"><path class="edge" d="M 0 0 V -7.78688 H -23"/><rect class="sym" height="6" width="6" x="-3" y="-3"/><text class="lab" transform="translate(0 11)">18</text></g><path class="edge" d="M 0 0 V -54.126 H 205.562"/><circle class="sym" cx="0" cy="0" r="3"/><text class="lab lft" transform="translate(-3 -7)">27</text></g><g class="a36 c2 node n35 p2" transform="translate(205.562 26.9038)"><g class="a35 c2 node n31 p1" transform="translate(106.375 21.755)"><g class="a31 i6 leaf node n6 p1 sample" transform="translate(-34.5 13.254)"><path class="edge" d="M 0 0 V -13.254 H 34.5"/><rect class="sym" height="6" width="6" x="-3" y="-3"/><text class="lab" transform="translate(0 11)">6</text></g><g class="a31 c2 node n23 p1" transform="translate(34.5 10.7113)"><g class="a23 i10 leaf node n10 p2 sample" transform="translate(-23 2.54272)"><path class="edge" d="M 0 0 V -2.54272 H 23"/><rect class="sym" height="6" width="6" x="-3" y="-3"/><text class="lab" transform="translate(0 11)">10</text></g><g class="a23 i19 leaf node n19 p2 sample" transform="translate(23 2.54272)"><path class="edge" d="M 0 0 V -2.54272 H -23"/><rect class="sym" height="6" width="6" x="-3" y="-3"/><text class="lab" transform="translate(0 11)">19</text></g><path class="edge" d="M 0 0 V -10.7113 H -34.5"/><circle class="sym" cx="0" cy="0" r="3"/><text class="lab rgt" transform="translate(3 -7)">23</text></g><path class="edge" d="M 0 0 V -21.755 H -106.375"/><circle class="sym" cx="0" cy="0" r="3"/><text class="lab rgt" transform="translate(3 -7)">31</text></g><g class="a35 c2 node n34 p2" transform="translate(-106.375 13.3765)"><g class="a34 c2 node n28 p2" transform="translate(97.75 11.2803)"><g class="a28 i17 leaf node n17 p2 sample" transform="translate(34.5 10.3522)"><path class="edge" d="M 0 0 V -10.3522 H -34.5"/><rect class="sym" height="6" width="6" x="-3" y="-3"/><text class="lab" transform="translate(0 11)">17</text></g><g class="a28 c2 node n22 p2" transform="translate(-34.5 8.55227)"><g class="a22 i5 leaf node n5 p1 sample" transform="translate(-23 1.79988)"><path class="edge" d="M 0 0 V -1.79988 H 23"/><rect class="sym" height="6" width="6" x="-3" y="-3"/><text class="lab" transform="translate(0 11)">5</text></g><g class="a22 i7 leaf node n7 p1 sample" transform="translate(23 1.79988)"><path class="edge" d="M 0 0 V -1.79988 H -23"/><rect class="sym" height="6" width="6" x="-3" y="-3"/><text class="lab" transform="translate(0 11)">7</text></g><path class="edge" d="M 0 0 V -8.55227 H 34.5"/><circle class="sym" cx="0" cy="0" r="3"/><text class="lab lft" transform="translate(-3 -7)">22</text></g><path class="edge" d="M 0 0 V -11.2803 H -97.75"/><circle class="sym" cx="0" cy="0" r="3"/><text class="lab rgt" transform="translate(3 -7)">28</text></g><g class="a34 c2 node n33 p1" transform="translate(-97.75 3.06419)"><g class="a33 c2 node n29 p2" transform="translate(69 7.28375)"><g class="a29 i11 leaf node n11 p2 sample" transform="translate(-23 11.2846)"><path class="edge" d="M 0 0 V -11.2846 H 23"/><rect class="sym" height="6" width="6" x="-3" y="-3"/><text class="lab" transform="translate(0 11)">11</text></g><g class="a29 i14 leaf m3 node n14 p2 s3 sample" transform="translate(23 11.2846)"><path class="edge" d="M 0 0 V -11.2846 H -23"/><g class="mut m3 s3" transform="translate(0 -9.71204)"><line x1="0" x2="0" y1="0" y2="9.71204"/><path class="sym" d="M -3,-3 l 6,6 M -3,3 l 6,-6"/><text class="lab rgt" transform="translate(5 0)">3</text></g><rect class="sym" height="6" width="6" x="-3" y="-3"/><text class="lab" transform="translate(0 11)">14</text></g><path class="edge" d="M 0 0 V -7.28375 H -69"/><circle class="sym" cx="0" cy="0" r="3"/><text class="lab rgt" transform="translate(3 -7)">29</text></g><g class="a33 c2 node n32 p1" transform="translate(-69 3.55938)"><g class="a32 c2 node n21 p1" transform="translate(46 14.6588)"><g class="a21 i8 leaf node n8 p1 sample" transform="translate(-23 0.350184)"><path class="edge" d="M 0 0 V -0.350184 H 23"/><rect class="sym" height="6" width="6" x="-3" y="-3"/><text class="lab" transform="translate(0 11)">8</text></g><g class="a21 i12 leaf node n12 p2 sample" transform="translate(23 0.350184)"><path class="edge" d="M 0 0 V -0.350184 H -23"/><rect class="sym" height="6" width="6" x="-3" y="-3"/><text class="lab" transform="translate(0 11)">12</text></g><path class="edge" d="M 0 0 V -14.6588 H -46"/><circle class="sym" cx="0" cy="0" r="3"/><text class="lab rgt" transform="translate(3 -7)">21</text></g><g class="a32 c2 node n30 p1" transform="translate(-46 3.49186)"><g class="a30 i4 leaf node n4 p1 sample" transform="translate(-23 11.5171)"><path class="edge" d="M 0 0 V -11.5171 H 23"/><rect class="sym" height="6" width="6" x="-3" y="-3"/><text class="lab" transform="translate(0 11)">4</text></g><g class="a30 i16 leaf node n16 p2 sample" transform="translate(23 11.5171)"><path class="edge" d="M 0 0 V -11.5171 H -23"/><rect class="sym" height="6" width="6" x="-3" y="-3"/><text class="lab" transform="translate(0 11)">16</text></g><path class="edge" d="M 0 0 V -3.49186 H 46"/><circle class="sym" cx="0" cy="0" r="3"/><text class="lab lft" transform="translate(-3 -7)">30</text></g><path class="edge" d="M 0 0 V -3.55938 H 69"/><circle class="sym" cx="0" cy="0" r="3"/><text class="lab lft" transform="translate(-3 -7)">32</text></g><path class="edge" d="M 0 0 V -3.06419 H 97.75"/><circle class="sym" cx="0" cy="0" r="3"/><text class="lab lft" transform="translate(-3 -7)">33</text></g><path class="edge" d="M 0 0 V -13.3765 H 106.375"/><circle class="sym" cx="0" cy="0" r="3"/><text class="lab lft" transform="translate(-3 -7)">34</text></g><path class="edge" d="M 0 0 V -26.9038 H -205.562"/><circle class="sym" cx="0" cy="0" r="3"/><text class="lab rgt" transform="translate(3 -7)">35</text></g><path class="edge" d="M 0 0 V -232.687 H -167.469"/><circle class="sym" cx="0" cy="0" r="3"/><text class="lab rgt" transform="translate(3 -7)">36</text></g><g class="a38 c2 m0 node n37 p1 s0" transform="translate(-167.469 172.407)"><g class="a37 i15 leaf m1 node n15 p2 s1 sample" transform="translate(60.375 122.193)"><path class="edge" d="M 0 0 V -122.193 H -60.375"/><g class="mut m1 s1" transform="translate(0 -59.6179)"><line x1="0" x2="0" y1="0" y2="59.6179"/><path class="sym" d="M -3,-3 l 6,6 M -3,3 l 6,-6"/><text class="lab rgt" transform="translate(5 0)">1</text></g><rect class="sym" height="6" width="6" x="-3" y="-3"/><text class="lab" transform="translate(0 11)">15</text></g><g class="a37 c2 node n26 p1" transform="translate(-60.375 114.716)"><g class="a26 c2 node n24 p2" transform="translate(-51.75 2.41025)"><g class="a24 i13 leaf m2 node n13 p2 s2 sample" transform="translate(34.5 5.06716)"><path class="edge" d="M 0 0 V -5.06716 H -34.5"/><g class="mut m2 s2" transform="translate(0 -0.526206)"><line x1="0" x2="0" y1="0" y2="0.526206"/><path class="sym" d="M -3,-3 l 6,6 M -3,3 l 6,-6"/><text class="lab rgt" transform="translate(5 0)">2</text></g><rect class="sym" height="6" width="6" x="-3" y="-3"/><text class="lab" transform="translate(0 11)">13</text></g><g class="a24 c2 node n20 p1" transform="translate(-34.5 5.05248)"><g class="a20 i0 leaf node n0 p1 sample" transform="translate(-23 0.0146815)"><path class="edge" d="M 0 0 V -0.0146815 H 23"/><rect class="sym" height="6" width="6" x="-3" y="-3"/><text class="lab" transform="translate(0 11)">0</text></g><g class="a20 i9 leaf node n9 p1 sample" transform="translate(23 0.0146815)"><path class="edge" d="M 0 0 V -0.0146815 H -23"/><rect class="sym" height="6" width="6" x="-3" y="-3"/><text class="lab" transform="translate(0 11)">9</text></g><path class="edge" d="M 0 0 V -5.05248 H 34.5"/><circle class="sym" cx="0" cy="0" r="3"/><text class="lab lft" transform="translate(-3 -7)">20</text></g><path class="edge" d="M 0 0 V -2.41025 H 51.75"/><circle class="sym" cx="0" cy="0" r="3"/><text class="lab lft" transform="translate(-3 -7)">24</text></g><g class="a26 c2 node n25 p2" transform="translate(51.75 2.01275)"><g class="a25 i1 leaf node n1 p1 sample" transform="translate(-23 5.46465)"><path class="edge" d="M 0 0 V -5.46465 H 23"/><rect class="sym" height="6" width="6" x="-3" y="-3"/><text class="lab" transform="translate(0 11)">1</text></g><g class="a25 i3 leaf node n3 p1 sample" transform="translate(23 5.46465)"><path class="edge" d="M 0 0 V -5.46465 H -23"/><rect class="sym" height="6" width="6" x="-3" y="-3"/><text class="lab" transform="translate(0 11)">3</text></g><path class="edge" d="M 0 0 V -2.01275 H -51.75"/><circle class="sym" cx="0" cy="0" r="3"/><text class="lab rgt" transform="translate(3 -7)">25</text></g><path class="edge" d="M 0 0 V -114.716 H 60.375"/><circle class="sym" cx="0" cy="0" r="3"/><text class="lab lft" transform="translate(-3 -7)">26</text></g><path class="edge" d="M 0 0 V -172.407 H 167.469"/><g class="mut m0 s0" transform="translate(0 -36.5837)"><line x1="0" x2="0" y1="0" y2="36.5837"/><path class="sym" d="M -3,-3 l 6,6 M -3,3 l 6,-6"/><text class="lab lft" transform="translate(-5 0)">0</text></g><circle class="sym" cx="0" cy="0" r="3"/><text class="lab lft" transform="translate(-3 -7)">37</text></g><circle class="sym" cx="0" cy="0" r="3"/><text class="lab" transform="translate(0 -11)">38</text></g></g></g></g></g></svg>