<svg baseProfile="full" height="400" version="1.1" width="1000" xmlns="http://www.w3.org/2000/svg" xmlns:ev="http://www.w3.org/2001/xml-events" xmlns:xlink="http://www.w3.org/1999/xlink"><defs><style type="text/css"><![CDATA[.background path {fill: #808080; fill-opacity: 0}.background path:nth-child(odd) {fill-opacity: .1}.x-regions rect {fill: yellow; stroke: black; opacity: 0.5}.axes {font-size: 14px}.x-axis .tick .lab {font-weight: bold; dominant-baseline: hanging}.axes, .tree {font-size: 14px; text-anchor: middle}.axes line, .edge {stroke: black; fill: none}.axes .ax-skip {stroke-dasharray: 4}.y-axis .grid {stroke: #FAFAFA}.node > .sym {fill: black; stroke: none}.site > .sym {stroke: black}.mut text {fill: red; font-style: italic}.mut.extra text {fill: hotpink}.mut line {fill: none; stroke: none}.mut .sym {fill: none; stroke: red}.mut.extra .sym {stroke: hotpink}.node .mut .sym {stroke-width: 1.5px}.tree text, .tree-sequence text {dominant-baseline: central}.plotbox .lab.lft {text-anchor: end}.plotbox .lab.rgt {text-anchor: start}.polytomy line {stroke: black; stroke-dasharray: 1px, 1px}.polytomy text {paint-order:stroke;stroke-width:0.3em;stroke:white}]]></style></defs><g class="tree-sequence"><g class="background"><path d="M20,0 l960,0 l0,338.2 l0,25 l0,5 l-960,0 l0,-5 l0,-25 l0,-338.2z"/></g><g class="axes"><g class="x-axis"><g class="title" transform="translate(500 400)"><text class="lab" text-anchor="middle" transform="translate(0 -11)">Genome position</text></g><line class="ax-line" x1="20" x2="980" y1="363.2" y2="363.2"/><g class="ticks"><g class="tick" transform="translate(20 363.2)"><line x1="0" x2="0" y1="0" y2="5"/><g transform="translate(0 6)"><text class="lab">0</text></g></g><g class="tick" transform="translate(980 363.2)"><line x1="0" x2="0" y1="0" y2="5"/><g transform="translate(0 6)"><text class="lab">1000</text></g></g></g><g class="site s0" transform="translate(91.04 363.2)"><line class="sym" x1="0" x2="0" y1="0" y2="-10"/><g class="mut m0"><polyline class="sym" points="2.5,-6.5 0,-1.5 -2.5,-6.5"/></g></g><g class="site s1" transform="translate(276.32 363.2)"><line class="sym" x1="0" x2="0" y1="0" y2="-10"/><g class="mut m1"><polyline class="sym" points="2.5,-6.5 0,-1.5 -2.5,-6.5"/></g></g><g class="site s2" transform="translate(631.52 363.2)"><line class="sym" x1="0" x2="0" y1="0" y2="-10"/><g class="mut m2"><polyline class="sym" points="2.5,-6.5 0,-1.5 -2.5,-6.5"/></g></g><g class="site s3" transform="translate(764.96 363.2)"><line class="sym" x1="0" x2="0" y1="0" y2="-10"/><g class="mut m3"><polyline class="sym" points="2.5,-6.5 0,-1.5 -2.5,-6.5"/></g></g></g></g><g class="plotbox trees"><g class="tree t0" transform="translate(20 0)"><g class="plotbox"><g class="c2 node n38 p2 root" transform="translate(629.859 26.8)"><g class="a38 c2 node n28 p1" transform="translate(215.266 281.276)"><g class="a28 i2 leaf node n2 p1 sample" transform="translate(71.875 13.3243)"><path class="edge" d="M 0 0 V -13.3243 H -71.875"/><rect class="sym" height="6" width="6" x="-3" y="-3"/><text class="lab" transform="translate(0 11)">2</text></g><g class="a28 c2 node n24 p1" transform="translate(-71.875 7.05837)"><g class="a24 i1 leaf node n1 p1 sample" transform="translate(-40.25 6.26594)"><path class="edge" d="M 0 0 V -6.26594 H 40.25"/><rect class="sym" height="6" width="6" x="-3" y="-3"/><text class="lab" transform="translate(0 11)">1</text></g><g class="a24 c2 node n22 p2" transform="translate(40.25 2.61771)"><g class="a22 i7 leaf node n7 p1 sample" transform="translate(-34.5 3.64824)"><path class="edge" d="M 0 0 V -3.64824 H 34.5"/><rect class="sym" height="6" width="6" x="-3" y="-3"/><text class="lab" transform="translate(0 11)">7</text></g><g class="a22 c2 node n20 p2" transform="translate(34.5 2.05792)"><g class="a20 i13 leaf node n13 p2 sample" transform="translate(-23 1.59031)"><path class="edge" d="M 0 0 V -1.59031 H 23"/><rect class="sym" height="6" width="6" x="-3" y="-3"/><text class="lab" transform="translate(0 11)">13</text></g><g class="a20 i17 leaf node n17 p2 sample" transform="translate(23 1.59031)"><path class="edge" d="M 0 0 V -1.59031 H -23"/><rect class="sym" height="6" width="6" x="-3" y="-3"/><text class="lab" transform="translate(0 11)">17</text></g><path class="edge" d="M 0 0 V -2.05792 H -34.5"/><circle class="sym" cx="0" cy="0" r="3"/><text class="lab rgt" transform="translate(3 -7)">20</text></g><path class="edge" d="M 0 0 V -2.61771 H -40.25"/><circle class="sym" cx="0" cy="0" r="3"/><text class="lab rgt" transform="translate(3 -7)">22</text></g><path class="edge" d="M 0 0 V -7.05837 H 71.875"/><circle class="sym" cx="0" cy="0" r="3"/><text class="lab lft" transform="translate(-3 -7)">24</text></g><path class="edge" d="M 0 0 V -281.276 H -215.266"/><circle class="sym" cx="0" cy="0" r="3"/><text class="lab rgt" transform="translate(3 -7)">28</text></g><g class="a38 c2 node n37 p2" transform="translate(-215.266 164.317)"><g class="a37 c2 node n35 p2" transform="translate(214.906 57.7892)"><g class="a35 i12 leaf node n12 p2 sample" transform="translate(57.5 72.4938)"><path class="edge" d="M 0 0 V -72.4938 H -57.5"/><rect class="sym" height="6" width="6" x="-3" y="-3"/><text class="lab" transform="translate(0 11)">12</text></g><g class="a35 c2 node n31 p1" transform="translate(-57.5 35.1757)"><g class="a31 c2 node n23 p2" transform="translate(-46 32.8158)"><g class="a23 i5 leaf node n5 p1 sample" transform="translate(-23 4.50224)"><path class="edge" d="M 0 0 V -4.50224 H 23"/><rect class="sym" height="6" width="6" x="-3" y="-3"/><text class="lab" transform="translate(0 11)">5</text></g><g class="a23 i18 leaf node n18 p2 sample" transform="translate(23 4.50224)"><path class="edge" d="M 0 0 V -4.50224 H -23"/><rect class="sym" height="6" width="6" x="-3" y="-3"/><text class="lab" transform="translate(0 11)">18</text></g><path class="edge" d="M 0 0 V -32.8158 H 46"/><circle class="sym" cx="0" cy="0" r="3"/><text class="lab lft" transform="translate(-3 -7)">23</text></g><g class="a31 c2 node n25 p1" transform="translate(46 29.3573)"><g class="a25 i9 leaf node n9 p1 sample" transform="translate(-23 7.96081)"><path class="edge" d="M 0 0 V -7.96081 H 23"/><rect class="sym" height="6" width="6" x="-3" y="-3"/><text class="lab" transform="translate(0 11)">9</text></g><g class="a25 i16 leaf node n16 p2 sample" transform="translate(23 7.96081)"><path class="edge" d="M 0 0 V -7.96081 H -23"/><rect class="sym" height="6" width="6" x="-3" y="-3"/><text class="lab" transform="translate(0 11)">16</text></g><path class="edge" d="M 0 0 V -29.3573 H -46"/><circle class="sym" cx="0" cy="0" r="3"/><text class="lab rgt" transform="translate(3 -7)">25</text></g><path class="edge" d="M 0 0 V -35.1757 H 57.5"/><circle class="sym" cx="0" cy="0" r="3"/><text class="lab lft" transform="translate(-3 -7)">31</text></g><path class="edge" d="M 0 0 V -57.7892 H -214.906"/><circle class="sym" cx="0" cy="0" r="3"/><text class="lab rgt" transform="translate(3 -7)">35</text></g><g class="a37 c2 node n36 p1" transform="translate(-214.906 15.2835)"><g class="a36 c2 m0 m3 node n26 p2 s0 s3" transform="translate(-133.688 104.73)"><g class="a26 i0 leaf node n0 p1 sample" transform="translate(-23 10.2699)"><path class="edge" d="M 0 0 V -10.2699 H 23"/><rect class="sym" height="6" width="6" x="-3" y="-3"/><text class="lab" transform="translate(0 11)">0</text></g><g class="a26 i19 leaf node n19 p2 sample" transform="translate(23 10.2699)"><path class="edge" d="M 0 0 V -10.2699 H -23"/><rect class="sym" height="6" width="6" x="-3" y="-3"/><text class="lab" transform="translate(0 11)">19</text></g><path class="edge" d="M 0 0 V -104.73 H 133.688"/><g class="mut m3 s3" transform="translate(0 -91.0388)"><line x1="0" x2="0" y1="0" y2="91.0388"/><path class="sym" d="M -3,-3 l 6,6 M -3,3 l 6,-6"/><text class="lab lft" transform="translate(-5 0)">3</text></g><g class="mut m0 s0" transform="translate(0 -9.05298)"><line x1="0" x2="0" y1="0" y2="9.05298"/><path class="sym" d="M -3,-3 l 6,6 M -3,3 l 6,-6"/><text class="lab lft" transform="translate(-5 0)">0</text></g><circle class="sym" cx="0" cy="0" r="3"/><text class="lab lft" transform="translate(-3 -7)">26</text></g><g class="a36 c2 node n34 p1" transform="translate(133.688 62.9383)"><g class="a34 c2 node n32 p2" transform="translate(89.125 12.2597)"><g class="a32 i15 leaf node n15 p2 sample" transform="translate(34.5 39.8014)"><path class="edge" d="M 0 0 V -39.8014 H -34.5"/><rect class="sym" height="6" width="6" x="-3" y="-3"/><text class="lab" transform="translate(0 11)">15</text></g><g class="a32 c2 m1 node n21 p2 s1" transform="translate(-34.5 38.1024)"><g class="a21 i6 leaf node n6 p1 sample" transform="translate(-23 1.69903)"><path class="edge" d="M 0 0 V -1.69903 H 23"/><rect class="sym" height="6" width="6" x="-3" y="-3"/><text class="lab" transform="translate(0 11)">6</text></g><g class="a21 i11 leaf node n11 p2 sample" transform="translate(23 1.69903)"><path class="edge" d="M 0 0 V -1.69903 H -23"/><rect class="sym" height="6" width="6" x="-3" y="-3"/><text class="lab" transform="translate(0 11)">11</text></g><path class="edge" d="M 0 0 V -38.1024 H 34.5"/><g class="mut m1 s1" transform="translate(0 -28.1004)"><line x1="0" x2="0" y1="0" y2="28.1004"/><path class="sym" d="M -3,-3 l 6,6 M -3,3 l 6,-6"/><text class="lab lft" transform="translate(-5 0)">1</text></g><circle class="sym" cx="0" cy="0" r="3"/><text class="lab lft" transform="translate(-3 -7)">21</text></g><path class="edge" d="M 0 0 V -12.2597 H -89.125"/><circle class="sym" cx="0" cy="0" r="3"/><text class="lab rgt" transform="translate(3 -7)">32</text></g><g class="a34 c2 node n33 p1" transform="translate(-89.125 2.12754)"><g class="a33 c2 node n27 p2" transform="translate(51.75 37.3905)"><g class="a27 i8 leaf node n8 p1 sample" transform="translate(-23 12.5431)"><path class="edge" d="M 0 0 V -12.5431 H 23"/><rect class="sym" height="6" width="6" x="-3" y="-3"/><text class="lab" transform="translate(0 11)">8</text></g><g class="a27 i14 leaf m2 node n14 p2 s2 sample" transform="translate(23 12.5431)"><path class="edge" d="M 0 0 V -12.5431 H -23"/><g class="mut m2 s2" transform="translate(0 -9.87271)"><line x1="0" x2="0" y1="0" y2="9.87271"/><path class="sym" d="M -3,-3 l 6,6 M -3,3 l 6,-6"/><text class="lab rgt" transform="translate(5 0)">2</text></g><rect class="sym" height="6" width="6" x="-3" y="-3"/><text class="lab" transform="translate(0 11)">14</text></g><path class="edge" d="M 0 0 V -37.3905 H -51.75"/><circle class="sym" cx="0" cy="0" r="3"/><text class="lab rgt" transform="translate(3 -7)">27</text></g><g class="a33 c2 node n30 p1" transform="translate(-51.75 32.0627)"><g class="a30 i4 leaf node n4 p1 sample" transform="translate(34.5 17.8709)"><path class="edge" d="M 0 0 V -17.8709 H -34.5"/><rect class="sym" height="6" width="6" x="-3" y="-3"/><text class="lab" transform="translate(0 11)">4</text></g><g class="a30 c2 node n29 p1" transform="translate(-34.5 4.14868)"><g class="a29 i3 leaf node n3 p1 sample" transform="translate(-23 13.7222)"><path class="edge" d="M 0 0 V -13.7222 H 23"/><rect class="sym" height="6" width="6" x="-3" y="-3"/><text class="lab" transform="translate(0 11)">3</text></g><g class="a29 i10 leaf node n10 p2 sample" transform="translate(23 13.7222)"><path class="edge" d="M 0 0 V -13.7222 H -23"/><rect class="sym" height="6" width="6" x="-3" y="-3"/><text class="lab" transform="translate(0 11)">10</text></g><path class="edge" d="M 0 0 V -4.14868 H 34.5"/><circle class="sym" cx="0" cy="0" r="3"/><text class="lab lft" transform="translate(-3 -7)">29</text></g><path class="edge" d="M 0 0 V -32.0627 H 51.75"/><circle class="sym" cx="0" cy="0" r="3"/><text class="lab lft" transform="translate(-3 -7)">30</text></g><path class="edge" d="M 0 0 V -2.12754 H 89.125"/><circle class="sym" cx="0" cy="0" r="3"/><text class="lab lft" transform="translate(-3 -7)">33</text></g><path class="edge" d="M 0 0 V -62.9383 H -133.688"/><circle class="sym" cx="0" cy="0" r="3"/><text class="lab rgt" transform="translate(3 -7)">34</text></g><path class="edge" d="M 0 0 V -15.2835 H 214.906"/><circle class="sym" cx="0" cy="0" r="3"/><text class="lab lft" transform="translate(-3 -7)">36</text></g><path class="edge" d="M 0 0 V -164.317 H 215.266"/><circle class="sym" cx="0" cy="0" r="3"/><text class="lab lft" transform="translate(-3 -7)">37</text></g><circle class="sym" cx="0" cy="0" r="3"/><text class="lab" transform="translate(0 -11)">38</text></g></g></g></g></g></svg>