<svg baseProfile="full" height="400" version="1.1" width="1000" xmlns="http://www.w3.org/2000/svg" xmlns:ev="http://www.w3.org/2001/xml-events" xmlns:xlink="http://www.w3.org/1999/xlink"><defs><style type="text/css"><![CDATA[.background path {fill: #808080; fill-opacity: 0}.background path:nth-child(odd) {fill-opacity: .1}.x-regions rect {fill: yellow; stroke: black; opacity: 0.5}.axes {font-size: 14px}.x-axis .tick .lab {font-weight: bold; dominant-baseline: hanging}.axes, .tree {font-size: 14px; text-anchor: middle}.axes line, .edge {stroke: black; fill: none}.axes .ax-skip {stroke-dasharray: 4}.y-axis .grid {stroke: #FAFAFA}.node > .sym {fill: black; stroke: none}.site > .sym {stroke: black}.mut text {fill: red; font-style: italic}.mut.extra text {fill: hotpink}.mut line {fill: none; stroke: none}.mut .sym {fill: none; stroke: red}.mut.extra .sym {stroke: hotpink}.node .mut .sym {stroke-width: 1.5px}.tree text, .tree-sequence text {dominant-baseline: central}.plotbox .lab.lft {text-anchor: end}.plotbox .lab.rgt {text-anchor: start}.polytomy line {stroke: black; stroke-dasharray: 1px, 1px}.polytomy text {paint-order:stroke;stroke-width:0.3em;stroke:white}]]></style></defs><g class="tree-sequence"><g class="background"><path d="M20,0 l960,0 l0,338.2 l0,25 l0,5 l-960,0 l0,-5 l0,-25 l0,-338.2z"/></g><g class="axes"><g class="x-axis"><g class="title" transform="translate(500 400)"><text class="lab" text-anchor="middle" transform="translate(0 -11)">Genome position</text></g><line class="ax-line" x1="20" x2="980" y1="363.2" y2="363.2"/><g class="ticks"><g class="tick" transform="translate(20 363.2)"><line x1="0" x2="0" y1="0" y2="5"/><g transform="translate(0 6)"><text class="lab">0</text></g></g><g class="tick" transform="translate(980 363.2)"><line x1="0" x2="0" y1="0" y2="5"/><g transform="translate(0 6)"><text class="lab">1000</text></g></g></g><g class="site s0" transform="translate(72.8 363.2)"><line class="sym" x1="0" x2="0" y1="0" y2="-10"/><g class="mut m0"><polyline class="sym" points="2.5,-6.5 0,-1.5 -2.5,-6.5"/></g></g><g class="site s1" transform="translate(352.16 363.2)"><line class="sym" x1="0" x2="0" y1="0" y2="-10"/><g class="mut m1"><polyline class="sym" points="2.5,-6.5 0,-1.5 -2.5,-6.5"/></g></g><g class="site s2" transform="translate(682.4 363.2)"><line class="sym" x1="0" x2="0" y1="0" y2="-10"/><g class="mut m2"><polyline class="sym" points="2.5,-6.5 0,-1.5 -2.5,-6.5"/></g></g><g class="site s3" transform="translate(896.48 363.2)"><line class="sym" x1="0" x2="0" y1="0" y2="-10"/><g class="mut m3"><polyline class="sym" points="2.5,-6.5 0,-1.5 -2.5,-6.5"/></g></g></g></g><g class="plotbox trees"><g class="tree t0" transform="translate(20 0)"><g class="plotbox"><g class="c2 node n38 p0 root" transform="translate(653.578 26.8)"><g class="a38 c2 node n36 p1" transform="translate(218.859 203.368)"><g class="a36 i19 leaf node n19 p2 sample" transform="translate(44.5625 91.2319)"><path class="edge" d="M 0 0 V -91.2319 H -44.5625"/><rect class="sym" height="6" width="6" x="-3" y="-3"/><text class="lab" transform="translate(0 11)">19</text></g><g class="a36 c2 node n35 p1" transform="translate(-44.5625 4.69928)"><g class="a35 i2 leaf node n2 p1 sample" transform="translate(43.125 86.5326)"><path class="edge" d="M 0 0 V -86.5326 H -43.125"/><rect class="sym" height="6" width="6" x="-3" y="-3"/><text class="lab" transform="translate(0 11)">2</text></g><g class="a35 c2 node n32 p2" transform="translate(-43.125 38.2761)"><g class="a32 i9 leaf m0 node n9 p1 s0 sample" transform="translate(40.25 48.2565)"><path class="edge" d="M 0 0 V -48.2565 H -40.25"/><g class="mut m0 s0" transform="translate(0 -23.6605)"><line x1="0" x2="0" y1="0" y2="23.6605"/><path class="sym" d="M -3,-3 l 6,6 M -3,3 l 6,-6"/><text class="lab rgt" transform="translate(5 0)">0</text></g><rect class="sym" height="6" width="6" x="-3" y="-3"/><text class="lab" transform="translate(0 11)">9</text></g><g class="a32 c2 node n30 p2" transform="translate(-40.25 21.041)"><g class="a30 i10 leaf node n10 p2 sample" transform="translate(34.5 27.2155)"><path class="edge" d="M 0 0 V -27.2155 H -34.5"/><rect class="sym" height="6" width="6" x="-3" y="-3"/><text class="lab" transform="translate(0 11)">10</text></g><g class="a30 c2 node n29 p1" transform="translate(-34.5 3.80187)"><g class="a29 i1 leaf node n1 p1 sample" transform="translate(-23 23.4136)"><path class="edge" d="M 0 0 V -23.4136 H 23"/><rect class="sym" height="6" width="6" x="-3" y="-3"/><text class="lab" transform="translate(0 11)">1</text></g><g class="a29 i8 leaf node n8 p1 sample" transform="translate(23 23.4136)"><path class="edge" d="M 0 0 V -23.4136 H -23"/><rect class="sym" height="6" width="6" x="-3" y="-3"/><text class="lab" transform="translate(0 11)">8</text></g><path class="edge" d="M 0 0 V -3.80187 H 34.5"/><circle class="sym" cx="0" cy="0" r="3"/><text class="lab lft" transform="translate(-3 -7)">29</text></g><path class="edge" d="M 0 0 V -21.041 H 40.25"/><circle class="sym" cx="0" cy="0" r="3"/><text class="lab lft" transform="translate(-3 -7)">30</text></g><path class="edge" d="M 0 0 V -38.2761 H 43.125"/><circle class="sym" cx="0" cy="0" r="3"/><text class="lab lft" transform="translate(-3 -7)">32</text></g><path class="edge" d="M 0 0 V -4.69928 H 44.5625"/><circle class="sym" cx="0" cy="0" r="3"/><text class="lab lft" transform="translate(-3 -7)">35</text></g><path class="edge" d="M 0 0 V -203.368 H -218.859"/><circle class="sym" cx="0" cy="0" r="3"/><text class="lab rgt" transform="translate(3 -7)">36</text></g><g class="a38 c2 node n37 p0" transform="translate(-218.859 45.2768)"><g class="a37 c2 node n33 p2" transform="translate(171.781 184.283)"><g class="a33 i14 leaf m1 m2 node n14 p2 s1 s2 sample" transform="translate(34.5 65.0402)"><path class="edge" d="M 0 0 V -65.0402 H -34.5"/><g class="mut m2 s2" transform="translate(0 -22.9524)"><line x1="0" x2="0" y1="0" y2="22.9524"/><path class="sym" d="M -3,-3 l 6,6 M -3,3 l 6,-6"/><text class="lab rgt" transform="translate(5 0)">2</text></g><g class="mut m1 s1" transform="translate(0 -6.65238)"><line x1="0" x2="0" y1="0" y2="6.65238"/><path class="sym" d="M -3,-3 l 6,6 M -3,3 l 6,-6"/><text class="lab rgt" transform="translate(5 0)">1</text></g><rect class="sym" height="6" width="6" x="-3" y="-3"/><text class="lab" transform="translate(0 11)">14</text></g><g class="a33 c2 node n28 p2" transform="translate(-34.5 53.453)"><g class="a28 i4 leaf node n4 p1 sample" transform="translate(-23 11.5872)"><path class="edge" d="M 0 0 V -11.5872 H 23"/><rect class="sym" height="6" width="6" x="-3" y="-3"/><text class="lab" transform="translate(0 11)">4</text></g><g class="a28 i17 leaf node n17 p2 sample" transform="translate(23 11.5872)"><path class="edge" d="M 0 0 V -11.5872 H -23"/><rect class="sym" height="6" width="6" x="-3" y="-3"/><text class="lab" transform="translate(0 11)">17</text></g><path class="edge" d="M 0 0 V -53.453 H 34.5"/><circle class="sym" cx="0" cy="0" r="3"/><text class="lab lft" transform="translate(-3 -7)">28</text></g><path class="edge" d="M 0 0 V -184.283 H -171.781"/><circle class="sym" cx="0" cy="0" r="3"/><text class="lab rgt" transform="translate(3 -7)">33</text></g><g class="a37 c2 m3 node n34 p1 s3" transform="translate(-171.781 163.811)"><g class="a34 c2 node n27 p2" transform="translate(-133.688 79.516)"><g class="a27 i7 leaf node n7 p1 sample" transform="translate(51.75 5.99572)"><path class="edge" d="M 0 0 V -5.99572 H -51.75"/><rect class="sym" height="6" width="6" x="-3" y="-3"/><text class="lab" transform="translate(0 11)">7</text></g><g class="a27 c2 node n22 p1" transform="translate(-51.75 2.11153)"><g class="a22 i0 leaf node n0 p1 sample" transform="translate(-34.5 3.88419)"><path class="edge" d="M 0 0 V -3.88419 H 34.5"/><rect class="sym" height="6" width="6" x="-3" y="-3"/><text class="lab" transform="translate(0 11)">0</text></g><g class="a22 c2 node n20 p2" transform="translate(34.5 2.82401)"><g class="a20 i5 leaf node n5 p1 sample" transform="translate(-23 1.06018)"><path class="edge" d="M 0 0 V -1.06018 H 23"/><rect class="sym" height="6" width="6" x="-3" y="-3"/><text class="lab" transform="translate(0 11)">5</text></g><g class="a20 i15 leaf node n15 p2 sample" transform="translate(23 1.06018)"><path class="edge" d="M 0 0 V -1.06018 H -23"/><rect class="sym" height="6" width="6" x="-3" y="-3"/><text class="lab" transform="translate(0 11)">15</text></g><path class="edge" d="M 0 0 V -2.82401 H -34.5"/><circle class="sym" cx="0" cy="0" r="3"/><text class="lab rgt" transform="translate(3 -7)">20</text></g><path class="edge" d="M 0 0 V -2.11153 H 51.75"/><circle class="sym" cx="0" cy="0" r="3"/><text class="lab lft" transform="translate(-3 -7)">22</text></g><path class="edge" d="M 0 0 V -79.516 H 133.688"/><circle class="sym" cx="0" cy="0" r="3"/><text class="lab lft" transform="translate(-3 -7)">27</text></g><g class="a34 c2 node n31 p1" transform="translate(133.688 41.0401)"><g class="a31 c2 node n25 p2" transform="translate(83.375 39.4928)"><g class="a25 i6 leaf node n6 p1 sample" transform="translate(-23 4.97886)"><path class="edge" d="M 0 0 V -4.97886 H 23"/><rect class="sym" height="6" width="6" x="-3" y="-3"/><text class="lab" transform="translate(0 11)">6</text></g><g class="a25 i16 leaf node n16 p2 sample" transform="translate(23 4.97886)"><path class="edge" d="M 0 0 V -4.97886 H -23"/><rect class="sym" height="6" width="6" x="-3" y="-3"/><text class="lab" transform="translate(0 11)">16</text></g><path class="edge" d="M 0 0 V -39.4928 H -83.375"/><circle class="sym" cx="0" cy="0" r="3"/><text class="lab rgt" transform="translate(3 -7)">25</text></g><g class="a31 c2 node n26 p1" transform="translate(-83.375 39.411)"><g class="a26 c2 node n21 p1" transform="translate(-63.25 3.59509)"><g class="a21 i3 leaf node n3 p1 sample" transform="translate(-23 1.46557)"><path class="edge" d="M 0 0 V -1.46557 H 23"/><rect class="sym" height="6" width="6" x="-3" y="-3"/><text class="lab" transform="translate(0 11)">3</text></g><g class="a21 i18 leaf node n18 p2 sample" transform="translate(23 1.46557)"><path class="edge" d="M 0 0 V -1.46557 H -23"/><rect class="sym" height="6" width="6" x="-3" y="-3"/><text class="lab" transform="translate(0 11)">18</text></g><path class="edge" d="M 0 0 V -3.59509 H 63.25"/><circle class="sym" cx="0" cy="0" r="3"/><text class="lab lft" transform="translate(-3 -7)">21</text></g><g class="a26 c2 node n24 p2" transform="translate(63.25 0.520851)"><g class="a24 i12 leaf node n12 p2 sample" transform="translate(34.5 4.5398)"><path class="edge" d="M 0 0 V -4.5398 H -34.5"/><rect class="sym" height="6" width="6" x="-3" y="-3"/><text class="lab" transform="translate(0 11)">12</text></g><g class="a24 c2 node n23 p1" transform="translate(-34.5 0.275828)"><g class="a23 i11 leaf node n11 p2 sample" transform="translate(-23 4.26398)"><path class="edge" d="M 0 0 V -4.26398 H 23"/><rect class="sym" height="6" width="6" x="-3" y="-3"/><text class="lab" transform="translate(0 11)">11</text></g><g class="a23 i13 leaf node n13 p2 sample" transform="translate(23 4.26398)"><path class="edge" d="M 0 0 V -4.26398 H -23"/><rect class="sym" height="6" width="6" x="-3" y="-3"/><text class="lab" transform="translate(0 11)">13</text></g><path class="edge" d="M 0 0 V -0.275828 H 34.5"/><circle class="sym" cx="0" cy="0" r="3"/><text class="lab lft" transform="translate(-3 -7)">23</text></g><path class="edge" d="M 0 0 V -0.520851 H -63.25"/><circle class="sym" cx="0" cy="0" r="3"/><text class="lab rgt" transform="translate(3 -7)">24</text></g><path class="edge" d="M 0 0 V -39.411 H 83.375"/><circle class="sym" cx="0" cy="0" r="3"/><text class="lab lft" transform="translate(-3 -7)">26</text></g><path class="edge" d="M 0 0 V -41.0401 H -133.688"/><circle class="sym" cx="0" cy="0" r="3"/><text class="lab rgt" transform="translate(3 -7)">31</text></g><path class="edge" d="M 0 0 V -163.811 H 171.781"/><g class="mut m3 s3" transform="translate(0 -109.004)"><line x1="0" x2="0" y1="0" y2="109.004"/><path class="sym" d="M -3,-3 l 6,6 M -3,3 l 6,-6"/><text class="lab lft" transform="translate(-5 0)">3</text></g><circle class="sym" cx="0" cy="0" r="3"/><text class="lab lft" transform="translate(-3 -7)">34</text></g><path class="edge" d="M 0 0 V -45.2768 H 218.859"/><circle class="sym" cx="0" cy="0" r="3"/><text class="lab lft" transform="translate(-3 -7)">37</text></g><circle class="sym" cx="0" cy="0" r="3"/><text class="lab" transform="translate(0 -11)">38</text></g></g></g></g></g></svg>