<svg baseProfile="full" height="400" version="1.1" width="1000" xmlns="http://www.w3.org/2000/svg" xmlns:ev="http://www.w3.org/2001/xml-events" xmlns:xlink="http://www.w3.org/1999/xlink"><defs><style type="text/css"><![CDATA[.background path {fill: #808080; fill-opacity: 0}.background path:nth-child(odd) {fill-opacity: .1}.x-regions rect {fill: yellow; stroke: black; opacity: 0.5}.axes {font-size: 14px}.x-axis .tick .lab {font-weight: bold; dominant-baseline: hanging}.axes, .tree {font-size: 14px; text-anchor: middle}.axes line, .edge {stroke: black; fill: none}.axes .ax-skip {stroke-dasharray: 4}.y-axis .grid {stroke: #FAFAFA}.node > .sym {fill: black; stroke: none}.site > .sym {stroke: black}.mut text {fill: red; font-style: italic}.mut.extra text {fill: hotpink}.mut line {fill: none; stroke: none}.mut .sym {fill: none; stroke: red}.mut.extra .sym {stroke: hotpink}.node .mut .sym {stroke-width: 1.5px}.tree text, .tree-sequence text {dominant-baseline: central}.plotbox .lab.lft {text-anchor: end}.plotbox .lab.rgt {text-anchor: start}.polytomy line {stroke: black; stroke-dasharray: 1px, 1px}.polytomy text {paint-order:stroke;stroke-width:0.3em;stroke:white}]]></style></defs><g class="tree-sequence"><g class="background"><path d="M20,0 l960,0 l0,338.2 l0,25 l0,5 l-960,0 l0,-5 l0,-25 l0,-338.2z"/></g><g class="axes"><g class="x-axis"><g class="title" transform="translate(500 400)"><text class="lab" text-anchor="middle" transform="translate(0 -11)">Genome position</text></g><line class="ax-line" x1="20" x2="980" y1="363.2" y2="363.2"/><g class="ticks"><g class="tick" transform="translate(20 363.2)"><line x1="0" x2="0" y1="0" y2="5"/><g transform="translate(0 6)"><text class="lab">0</text></g></g><g class="tick" transform="translate(980 363.2)"><line x1="0" x2="0" y1="0" y2="5"/><g transform="translate(0 6)"><text class="lab">1000</text></g></g></g><g class="site s0" transform="translate(738.08 363.2)"><line class="sym" x1="0" x2="0" y1="0" y2="-10"/><g class="mut m0"><polyline class="sym" points="2.5,-6.5 0,-1.5 -2.5,-6.5"/></g></g></g></g><g class="plotbox trees"><g class="tree t0" transform="translate(20 0)"><g class="plotbox"><g class="c2 node n38 p0 root" transform="translate(703.891 26.8)"><g class="a38 c2 m0 node n29 p1 s0" transform="translate(190.109 256.905)"><g class="a29 i9 leaf node n9 p1 sample" transform="translate(-23 37.6953)"><path class="edge" d="M 0 0 V -37.6953 H 23"/><rect class="sym" height="6" width="6" x="-3" y="-3"/><text class="lab" transform="translate(0 11)">9</text></g><g class="a29 i12 leaf node n12 p2 sample" transform="translate(23 37.6953)"><path class="edge" d="M 0 0 V -37.6953 H -23"/><rect class="sym" height="6" width="6" x="-3" y="-3"/><text class="lab" transform="translate(0 11)">12</text></g><path class="edge" d="M 0 0 V -256.905 H -190.109"/><g class="mut m0 s0" transform="translate(0 -176.232)"><line x1="0" x2="0" y1="0" y2="176.232"/><path class="sym" d="M -3,-3 l 6,6 M -3,3 l 6,-6"/><text class="lab rgt" transform="translate(5 0)">0</text></g><circle class="sym" cx="0" cy="0" r="3"/><text class="lab rgt" transform="translate(3 -7)">29</text></g><g class="a38 c2 node n37 p0" transform="translate(-190.109 0.535809)"><g class="a37 c2 node n35 p2" transform="translate(-216.344 200.322)"><g class="a35 i19 leaf node n19 p2 sample" transform="translate(113.562 93.7425)"><path class="edge" d="M 0 0 V -93.7425 H -113.562"/><rect class="sym" height="6" width="6" x="-3" y="-3"/><text class="lab" transform="translate(0 11)">19</text></g><g class="a35 c2 node n34 p1" transform="translate(-113.562 11.2928)"><g class="a34 c2 node n26 p2" transform="translate(-83.375 70.7889)"><g class="a26 i14 leaf node n14 p2 sample" transform="translate(34.5 11.6609)"><path class="edge" d="M 0 0 V -11.6609 H -34.5"/><rect class="sym" height="6" width="6" x="-3" y="-3"/><text class="lab" transform="translate(0 11)">14</text></g><g class="a26 c2 node n23 p1" transform="translate(-34.5 4.6051)"><g class="a23 i0 leaf node n0 p1 sample" transform="translate(-23 7.05577)"><path class="edge" d="M 0 0 V -7.05577 H 23"/><rect class="sym" height="6" width="6" x="-3" y="-3"/><text class="lab" transform="translate(0 11)">0</text></g><g class="a23 i5 leaf node n5 p1 sample" transform="translate(23 7.05577)"><path class="edge" d="M 0 0 V -7.05577 H -23"/><rect class="sym" height="6" width="6" x="-3" y="-3"/><text class="lab" transform="translate(0 11)">5</text></g><path class="edge" d="M 0 0 V -4.6051 H 34.5"/><circle class="sym" cx="0" cy="0" r="3"/><text class="lab lft" transform="translate(-3 -7)">23</text></g><path class="edge" d="M 0 0 V -70.7889 H 83.375"/><circle class="sym" cx="0" cy="0" r="3"/><text class="lab lft" transform="translate(-3 -7)">26</text></g><g class="a34 c2 node n33 p2" transform="translate(83.375 26.8643)"><g class="a33 c2 node n30 p1" transform="translate(-63.25 17.837)"><g class="a30 i2 leaf node n2 p1 sample" transform="translate(-23 37.7484)"><path class="edge" d="M 0 0 V -37.7484 H 23"/><rect class="sym" height="6" width="6" x="-3" y="-3"/><text class="lab" transform="translate(0 11)">2</text></g><g class="a30 i16 leaf node n16 p2 sample" transform="translate(23 37.7484)"><path class="edge" d="M 0 0 V -37.7484 H -23"/><rect class="sym" height="6" width="6" x="-3" y="-3"/><text class="lab" transform="translate(0 11)">16</text></g><path class="edge" d="M 0 0 V -17.837 H 63.25"/><circle class="sym" cx="0" cy="0" r="3"/><text class="lab lft" transform="translate(-3 -7)">30</text></g><g class="a33 c2 node n32 p2" transform="translate(63.25 0.460164)"><g class="a32 i18 leaf node n18 p2 sample" transform="translate(34.5 55.1253)"><path class="edge" d="M 0 0 V -55.1253 H -34.5"/><rect class="sym" height="6" width="6" x="-3" y="-3"/><text class="lab" transform="translate(0 11)">18</text></g><g class="a32 c2 node n31 p1" transform="translate(-34.5 8.24312)"><g class="a31 i7 leaf node n7 p1 sample" transform="translate(-23 46.8822)"><path class="edge" d="M 0 0 V -46.8822 H 23"/><rect class="sym" height="6" width="6" x="-3" y="-3"/><text class="lab" transform="translate(0 11)">7</text></g><g class="a31 i11 leaf node n11 p2 sample" transform="translate(23 46.8822)"><path class="edge" d="M 0 0 V -46.8822 H -23"/><rect class="sym" height="6" width="6" x="-3" y="-3"/><text class="lab" transform="translate(0 11)">11</text></g><path class="edge" d="M 0 0 V -8.24312 H 34.5"/><circle class="sym" cx="0" cy="0" r="3"/><text class="lab lft" transform="translate(-3 -7)">31</text></g><path class="edge" d="M 0 0 V -0.460164 H -63.25"/><circle class="sym" cx="0" cy="0" r="3"/><text class="lab rgt" transform="translate(3 -7)">32</text></g><path class="edge" d="M 0 0 V -26.8643 H -83.375"/><circle class="sym" cx="0" cy="0" r="3"/><text class="lab rgt" transform="translate(3 -7)">33</text></g><path class="edge" d="M 0 0 V -11.2928 H 113.562"/><circle class="sym" cx="0" cy="0" r="3"/><text class="lab lft" transform="translate(-3 -7)">34</text></g><path class="edge" d="M 0 0 V -200.322 H 216.344"/><circle class="sym" cx="0" cy="0" r="3"/><text class="lab lft" transform="translate(-3 -7)">35</text></g><g class="a37 c2 node n36 p0" transform="translate(216.344 46.025)"><g class="a36 c2 node n24 p1" transform="translate(71.875 240.589)"><g class="a24 i6 leaf node n6 p1 sample" transform="translate(-23 7.44999)"><path class="edge" d="M 0 0 V -7.44999 H 23"/><rect class="sym" height="6" width="6" x="-3" y="-3"/><text class="lab" transform="translate(0 11)">6</text></g><g class="a24 i13 leaf node n13 p2 sample" transform="translate(23 7.44999)"><path class="edge" d="M 0 0 V -7.44999 H -23"/><rect class="sym" height="6" width="6" x="-3" y="-3"/><text class="lab" transform="translate(0 11)">13</text></g><path class="edge" d="M 0 0 V -240.589 H -71.875"/><circle class="sym" cx="0" cy="0" r="3"/><text class="lab rgt" transform="translate(3 -7)">24</text></g><g class="a36 c2 node n28 p2" transform="translate(-71.875 218.886)"><g class="a28 i15 leaf node n15 p2 sample" transform="translate(74.75 29.1534)"><path class="edge" d="M 0 0 V -29.1534 H -74.75"/><rect class="sym" height="6" width="6" x="-3" y="-3"/><text class="lab" transform="translate(0 11)">15</text></g><g class="a28 c2 node n27 p2" transform="translate(-74.75 3.82037)"><g class="a27 c2 node n22 p2" transform="translate(-69 18.2774)"><g class="a22 i17 leaf node n17 p2 sample" transform="translate(34.5 7.0557)"><path class="edge" d="M 0 0 V -7.0557 H -34.5"/><rect class="sym" height="6" width="6" x="-3" y="-3"/><text class="lab" transform="translate(0 11)">17</text></g><g class="a22 c2 node n21 p1" transform="translate(-34.5 1.05034)"><g class="a21 i1 leaf node n1 p1 sample" transform="translate(-23 6.00536)"><path class="edge" d="M 0 0 V -6.00536 H 23"/><rect class="sym" height="6" width="6" x="-3" y="-3"/><text class="lab" transform="translate(0 11)">1</text></g><g class="a21 i10 leaf node n10 p2 sample" transform="translate(23 6.00536)"><path class="edge" d="M 0 0 V -6.00536 H -23"/><rect class="sym" height="6" width="6" x="-3" y="-3"/><text class="lab" transform="translate(0 11)">10</text></g><path class="edge" d="M 0 0 V -1.05034 H 34.5"/><circle class="sym" cx="0" cy="0" r="3"/><text class="lab lft" transform="translate(-3 -7)">21</text></g><path class="edge" d="M 0 0 V -18.2774 H 69"/><circle class="sym" cx="0" cy="0" r="3"/><text class="lab lft" transform="translate(-3 -7)">22</text></g><g class="a27 c2 node n25 p1" transform="translate(69 16.5579)"><g class="a25 i4 leaf node n4 p1 sample" transform="translate(34.5 8.77519)"><path class="edge" d="M 0 0 V -8.77519 H -34.5"/><rect class="sym" height="6" width="6" x="-3" y="-3"/><text class="lab" transform="translate(0 11)">4</text></g><g class="a25 c2 node n20 p1" transform="translate(-34.5 6.67922)"><g class="a20 i3 leaf node n3 p1 sample" transform="translate(-23 2.09597)"><path class="edge" d="M 0 0 V -2.09597 H 23"/><rect class="sym" height="6" width="6" x="-3" y="-3"/><text class="lab" transform="translate(0 11)">3</text></g><g class="a20 i8 leaf node n8 p1 sample" transform="translate(23 2.09597)"><path class="edge" d="M 0 0 V -2.09597 H -23"/><rect class="sym" height="6" width="6" x="-3" y="-3"/><text class="lab" transform="translate(0 11)">8</text></g><path class="edge" d="M 0 0 V -6.67922 H 34.5"/><circle class="sym" cx="0" cy="0" r="3"/><text class="lab lft" transform="translate(-3 -7)">20</text></g><path class="edge" d="M 0 0 V -16.5579 H -69"/><circle class="sym" cx="0" cy="0" r="3"/><text class="lab rgt" transform="translate(3 -7)">25</text></g><path class="edge" d="M 0 0 V -3.82037 H 74.75"/><circle class="sym" cx="0" cy="0" r="3"/><text class="lab lft" transform="translate(-3 -7)">27</text></g><path class="edge" d="M 0 0 V -218.886 H 71.875"/><circle class="sym" cx="0" cy="0" r="3"/><text class="lab lft" transform="translate(-3 -7)">28</text></g><path class="edge" d="M 0 0 V -46.025 H -216.344"/><circle class="sym" cx="0" cy="0" r="3"/><text class="lab rgt" transform="translate(3 -7)">36</text></g><path class="edge" d="M 0 0 V -0.535809 H 190.109"/><circle class="sym" cx="0" cy="0" r="3"/><text class="lab lft" transform="translate(-3 -7)">37</text></g><circle class="sym" cx="0" cy="0" r="3"/><text class="lab" transform="translate(0 -11)">38</text></g></g></g></g></g></svg>