<svg baseProfile="full" height="400" version="1.1" width="1000" xmlns="http://www.w3.org/2000/svg" xmlns:ev="http://www.w3.org/2001/xml-events" xmlns:xlink="http://www.w3.org/1999/xlink"><defs><style type="text/css"><![CDATA[.background path {fill: #808080; fill-opacity: 0}.background path:nth-child(odd) {fill-opacity: .1}.x-regions rect {fill: yellow; stroke: black; opacity: 0.5}.axes {font-size: 14px}.x-axis .tick .lab {font-weight: bold; dominant-baseline: hanging}.axes, .tree {font-size: 14px; text-anchor: middle}.axes line, .edge {stroke: black; fill: none}.axes .ax-skip {stroke-dasharray: 4}.y-axis .grid {stroke: #FAFAFA}.node > .sym {fill: black; stroke: none}.site > .sym {stroke: black}.mut text {fill: red; font-style: italic}.mut.extra text {fill: hotpink}.mut line {fill: none; stroke: none}.mut .sym {fill: none; stroke: red}.mut.extra .sym {stroke: hotpink}.node .mut .sym {stroke-width: 1.5px}.tree text, .tree-sequence text {dominant-baseline: central}.plotbox .lab.lft {text-anchor: end}.plotbox .lab.rgt {text-anchor: start}.polytomy line {stroke: black; stroke-dasharray: 1px, 1px}.polytomy text {paint-order:stroke;stroke-width:0.3em;stroke:white}]]></style></defs><g class="tree-sequence"><g class="background"><path d="M20,0 l960,0 l0,338.2 l0,25 l0,5 l-960,0 l0,-5 l0,-25 l0,-338.2z"/></g><g class="axes"><g class="x-axis"><g class="title" transform="translate(500 400)"><text class="lab" text-anchor="middle" transform="translate(0 -11)">Genome position</text></g><line class="ax-line" x1="20" x2="980" y1="363.2" y2="363.2"/><g class="ticks"><g class="tick" transform="translate(20 363.2)"><line x1="0" x2="0" y1="0" y2="5"/><g transform="translate(0 6)"><text class="lab">0</text></g></g><g class="tick" transform="translate(980 363.2)"><line x1="0" x2="0" y1="0" y2="5"/><g transform="translate(0 6)"><text class="lab">1000</text></g></g></g><g class="site s0" transform="translate(427.04 363.2)"><line class="sym" x1="0" x2="0" y1="0" y2="-10"/><g class="mut m0"><polyline class="sym" points="2.5,-6.5 0,-1.5 -2.5,-6.5"/></g></g><g class="site s1" transform="translate(620 363.2)"><line class="sym" x1="0" x2="0" y1="0" y2="-10"/><g class="mut m1"><polyline class="sym" points="2.5,-6.5 0,-1.5 -2.5,-6.5"/></g></g><g class="site s2" transform="translate(780.32 363.2)"><line class="sym" x1="0" x2="0" y1="0" y2="-10"/><g class="mut m2"><polyline class="sym" points="2.5,-6.5 0,-1.5 -2.5,-6.5"/></g></g></g></g><g class="plotbox trees"><g class="tree t0" transform="translate(20 0)"><g class="plotbox"><g class="c2 node n38 p0 root" transform="translate(510.727 26.8)"><g class="a38 c2 node n34 p1" transform="translate(-245.273 231.602)"><g class="a34 c2 node n31 p1" transform="translate(164.953 37.2981)"><g class="a31 i3 leaf node n3 p1 sample" transform="translate(72.5938 25.7002)"><path class="edge" d="M 0 0 V -25.7002 H -72.5938"/><rect class="sym" height="6" width="6" x="-3" y="-3"/><text class="lab" transform="translate(0 11)">3</text></g><g class="a31 c2 node n30 p2" transform="translate(-72.5938 1.10256)"><g class="a30 i7 leaf node n7 p1 sample" transform="translate(99.1875 24.5976)"><path class="edge" d="M 0 0 V -24.5976 H -99.1875"/><rect class="sym" height="6" width="6" x="-3" y="-3"/><text class="lab" transform="translate(0 11)">7</text></g><g class="a30 c2 node n29 p2" transform="translate(-99.1875 8.86635)"><g class="a29 i1 leaf node n1 p1 sample" transform="translate(-77.625 15.7313)"><path class="edge" d="M 0 0 V -15.7313 H 77.625"/><rect class="sym" height="6" width="6" x="-3" y="-3"/><text class="lab" transform="translate(0 11)">1</text></g><g class="a29 c2 node n27 p1" transform="translate(77.625 4.97803)"><g class="a27 c2 node n23 p1" transform="translate(-51.75 5.58213)"><g class="a23 i16 leaf node n16 p2 sample" transform="translate(34.5 5.17112)"><path class="edge" d="M 0 0 V -5.17112 H -34.5"/><rect class="sym" height="6" width="6" x="-3" y="-3"/><text class="lab" transform="translate(0 11)">16</text></g><g class="a23 c2 node n21 p1" transform="translate(-34.5 1.70903)"><g class="a21 i10 leaf node n10 p2 sample" transform="translate(-23 3.46209)"><path class="edge" d="M 0 0 V -3.46209 H 23"/><rect class="sym" height="6" width="6" x="-3" y="-3"/><text class="lab" transform="translate(0 11)">10</text></g><g class="a21 i17 leaf node n17 p2 sample" transform="translate(23 3.46209)"><path class="edge" d="M 0 0 V -3.46209 H -23"/><rect class="sym" height="6" width="6" x="-3" y="-3"/><text class="lab" transform="translate(0 11)">17</text></g><path class="edge" d="M 0 0 V -1.70903 H 34.5"/><circle class="sym" cx="0" cy="0" r="3"/><text class="lab lft" transform="translate(-3 -7)">21</text></g><path class="edge" d="M 0 0 V -5.58213 H 51.75"/><circle class="sym" cx="0" cy="0" r="3"/><text class="lab lft" transform="translate(-3 -7)">23</text></g><g class="a27 c2 node n26 p1" transform="translate(51.75 2.86078)"><g class="a26 i12 leaf node n12 p2 sample" transform="translate(-23 7.89248)"><path class="edge" d="M 0 0 V -7.89248 H 23"/><rect class="sym" height="6" width="6" x="-3" y="-3"/><text class="lab" transform="translate(0 11)">12</text></g><g class="a26 i13 leaf node n13 p2 sample" transform="translate(23 7.89248)"><path class="edge" d="M 0 0 V -7.89248 H -23"/><rect class="sym" height="6" width="6" x="-3" y="-3"/><text class="lab" transform="translate(0 11)">13</text></g><path class="edge" d="M 0 0 V -2.86078 H -51.75"/><circle class="sym" cx="0" cy="0" r="3"/><text class="lab rgt" transform="translate(3 -7)">26</text></g><path class="edge" d="M 0 0 V -4.97803 H -77.625"/><circle class="sym" cx="0" cy="0" r="3"/><text class="lab rgt" transform="translate(3 -7)">27</text></g><path class="edge" d="M 0 0 V -8.86635 H 99.1875"/><circle class="sym" cx="0" cy="0" r="3"/><text class="lab lft" transform="translate(-3 -7)">29</text></g><path class="edge" d="M 0 0 V -1.10256 H 72.5938"/><circle class="sym" cx="0" cy="0" r="3"/><text class="lab lft" transform="translate(-3 -7)">30</text></g><path class="edge" d="M 0 0 V -37.2981 H -164.953"/><circle class="sym" cx="0" cy="0" r="3"/><text class="lab rgt" transform="translate(3 -7)">31</text></g><g class="a34 c2 node n32 p1" transform="translate(-164.953 30.1476)"><g class="a32 i15 leaf node n15 p2 sample" transform="translate(34.5 32.8507)"><path class="edge" d="M 0 0 V -32.8507 H -34.5"/><rect class="sym" height="6" width="6" x="-3" y="-3"/><text class="lab" transform="translate(0 11)">15</text></g><g class="a32 c2 node n24 p1" transform="translate(-34.5 27.6742)"><g class="a24 i0 leaf node n0 p1 sample" transform="translate(-23 5.1765)"><path class="edge" d="M 0 0 V -5.1765 H 23"/><rect class="sym" height="6" width="6" x="-3" y="-3"/><text class="lab" transform="translate(0 11)">0</text></g><g class="a24 i6 leaf node n6 p1 sample" transform="translate(23 5.1765)"><path class="edge" d="M 0 0 V -5.1765 H -23"/><rect class="sym" height="6" width="6" x="-3" y="-3"/><text class="lab" transform="translate(0 11)">6</text></g><path class="edge" d="M 0 0 V -27.6742 H 34.5"/><circle class="sym" cx="0" cy="0" r="3"/><text class="lab lft" transform="translate(-3 -7)">24</text></g><path class="edge" d="M 0 0 V -30.1476 H 164.953"/><circle class="sym" cx="0" cy="0" r="3"/><text class="lab lft" transform="translate(-3 -7)">32</text></g><path class="edge" d="M 0 0 V -231.602 H 245.273"/><circle class="sym" cx="0" cy="0" r="3"/><text class="lab lft" transform="translate(-3 -7)">34</text></g><g class="a38 c2 node n37 p1" transform="translate(245.273 172.261)"><g class="a37 c2 node n33 p2" transform="translate(-109.25 85.2078)"><g class="a33 c2 node n25 p1" transform="translate(-63.25 29.7888)"><g class="a25 i2 leaf node n2 p1 sample" transform="translate(-34.5 7.34233)"><path class="edge" d="M 0 0 V -7.34233 H 34.5"/><rect class="sym" height="6" width="6" x="-3" y="-3"/><text class="lab" transform="translate(0 11)">2</text></g><g class="a25 c2 node n20 p2" transform="translate(34.5 5.86445)"><g class="a20 i4 leaf node n4 p1 sample" transform="translate(-23 1.47788)"><path class="edge" d="M 0 0 V -1.47788 H 23"/><rect class="sym" height="6" width="6" x="-3" y="-3"/><text class="lab" transform="translate(0 11)">4</text></g><g class="a20 i9 leaf node n9 p1 sample" transform="translate(23 1.47788)"><path class="edge" d="M 0 0 V -1.47788 H -23"/><rect class="sym" height="6" width="6" x="-3" y="-3"/><text class="lab" transform="translate(0 11)">9</text></g><path class="edge" d="M 0 0 V -5.86445 H -34.5"/><circle class="sym" cx="0" cy="0" r="3"/><text class="lab rgt" transform="translate(3 -7)">20</text></g><path class="edge" d="M 0 0 V -29.7888 H 63.25"/><circle class="sym" cx="0" cy="0" r="3"/><text class="lab lft" transform="translate(-3 -7)">25</text></g><g class="a33 c2 m1 node n28 p2 s1" transform="translate(63.25 24.2875)"><g class="a28 i14 leaf node n14 p2 sample" transform="translate(-23 12.8437)"><path class="edge" d="M 0 0 V -12.8437 H 23"/><rect class="sym" height="6" width="6" x="-3" y="-3"/><text class="lab" transform="translate(0 11)">14</text></g><g class="a28 i19 leaf node n19 p2 sample" transform="translate(23 12.8437)"><path class="edge" d="M 0 0 V -12.8437 H -23"/><rect class="sym" height="6" width="6" x="-3" y="-3"/><text class="lab" transform="translate(0 11)">19</text></g><path class="edge" d="M 0 0 V -24.2875 H -63.25"/><g class="mut m1 s1" transform="translate(0 -19.7149)"><line x1="0" x2="0" y1="0" y2="19.7149"/><path class="sym" d="M -3,-3 l 6,6 M -3,3 l 6,-6"/><text class="lab rgt" transform="translate(5 0)">1</text></g><circle class="sym" cx="0" cy="0" r="3"/><text class="lab rgt" transform="translate(3 -7)">28</text></g><path class="edge" d="M 0 0 V -85.2078 H 109.25"/><circle class="sym" cx="0" cy="0" r="3"/><text class="lab lft" transform="translate(-3 -7)">33</text></g><g class="a37 c2 node n36 p1" transform="translate(109.25 7.38033)"><g class="a36 i11 leaf m2 node n11 p2 s2 sample" transform="translate(51.75 114.959)"><path class="edge" d="M 0 0 V -114.959 H -51.75"/><g class="mut m2 s2" transform="translate(0 -48.8797)"><line x1="0" x2="0" y1="0" y2="48.8797"/><path class="sym" d="M -3,-3 l 6,6 M -3,3 l 6,-6"/><text class="lab rgt" transform="translate(5 0)">2</text></g><rect class="sym" height="6" width="6" x="-3" y="-3"/><text class="lab" transform="translate(0 11)">11</text></g><g class="a36 c2 node n35 p2" transform="translate(-51.75 35.9118)"><g class="a35 i5 leaf node n5 p1 sample" transform="translate(-34.5 79.0468)"><path class="edge" d="M 0 0 V -79.0468 H 34.5"/><rect class="sym" height="6" width="6" x="-3" y="-3"/><text class="lab" transform="translate(0 11)">5</text></g><g class="a35 c2 m0 node n22 p1 s0" transform="translate(34.5 74.5913)"><g class="a22 i8 leaf node n8 p1 sample" transform="translate(-23 4.45553)"><path class="edge" d="M 0 0 V -4.45553 H 23"/><rect class="sym" height="6" width="6" x="-3" y="-3"/><text class="lab" transform="translate(0 11)">8</text></g><g class="a22 i18 leaf node n18 p2 sample" transform="translate(23 4.45553)"><path class="edge" d="M 0 0 V -4.45553 H -23"/><rect class="sym" height="6" width="6" x="-3" y="-3"/><text class="lab" transform="translate(0 11)">18</text></g><path class="edge" d="M 0 0 V -74.5913 H -34.5"/><g class="mut m0 s0" transform="translate(0 -5.96733)"><line x1="0" x2="0" y1="0" y2="5.96733"/><path class="sym" d="M -3,-3 l 6,6 M -3,3 l 6,-6"/><text class="lab rgt" transform="translate(5 0)">0</text></g><circle class="sym" cx="0" cy="0" r="3"/><text class="lab rgt" transform="translate(3 -7)">22</text></g><path class="edge" d="M 0 0 V -35.9118 H 51.75"/><circle class="sym" cx="0" cy="0" r="3"/><text class="lab lft" transform="translate(-3 -7)">35</text></g><path class="edge" d="M 0 0 V -7.38033 H -109.25"/><circle class="sym" cx="0" cy="0" r="3"/><text class="lab rgt" transform="translate(3 -7)">36</text></g><path class="edge" d="M 0 0 V -172.261 H -245.273"/><circle class="sym" cx="0" cy="0" r="3"/><text class="lab rgt" transform="translate(3 -7)">37</text></g><circle class="sym" cx="0" cy="0" r="3"/><text class="lab" transform="translate(0 -11)">38</text></g></g></g></g></g></svg>