<svg baseProfile="full" height="400" version="1.1" width="1000" xmlns="http://www.w3.org/2000/svg" xmlns:ev="http://www.w3.org/2001/xml-events" xmlns:xlink="http://www.w3.org/1999/xlink"><defs><style type="text/css"><![CDATA[.background path {fill: #808080; fill-opacity: 0}.background path:nth-child(odd) {fill-opacity: .1}.x-regions rect {fill: yellow; stroke: black; opacity: 0.5}.axes {font-size: 14px}.x-axis .tick .lab {font-weight: bold; dominant-baseline: hanging}.axes, .tree {font-size: 14px; text-anchor: middle}.axes line, .edge {stroke: black; fill: none}.axes .ax-skip {stroke-dasharray: 4}.y-axis .grid {stroke: #FAFAFA}.node > .sym {fill: black; stroke: none}.site > .sym {stroke: black}.mut text {fill: red; font-style: italic}.mut.extra text {fill: hotpink}.mut line {fill: none; stroke: none}.mut .sym {fill: none; stroke: red}.mut.extra .sym {stroke: hotpink}.node .mut .sym {stroke-width: 1.5px}.tree text, .tree-sequence text {dominant-baseline: central}.plotbox .lab.lft {text-anchor: end}.plotbox .lab.rgt {text-anchor: start}.polytomy line {stroke: black; stroke-dasharray: 1px, 1px}.polytomy text {paint-order:stroke;stroke-width:0.3em;stroke:white}]]></style></defs><g class="tree-sequence"><g class="background"><path d="M20,0 l960,0 l0,338.2 l0,25 l0,5 l-960,0 l0,-5 l0,-25 l0,-338.2z"/></g><g class="axes"><g class="x-axis"><g class="title" transform="translate(500 400)"><text class="lab" text-anchor="middle" transform="translate(0 -11)">Genome position</text></g><line class="ax-line" x1="20" x2="980" y1="363.2" y2="363.2"/><g class="ticks"><g class="tick" transform="translate(20 363.2)"><line x1="0" x2="0" y1="0" y2="5"/><g transform="translate(0 6)"><text class="lab">0</text></g></g><g class="tick" transform="translate(980 363.2)"><line x1="0" x2="0" y1="0" y2="5"/><g transform="translate(0 6)"><text class="lab">1000</text></g></g></g><g class="site s0" transform="translate(315.68 363.2)"><line class="sym" x1="0" x2="0" y1="0" y2="-10"/><g class="mut m1"><polyline class="sym" points="2.5,-6.5 0,-1.5 -2.5,-6.5"/></g><g class="mut m0"><polyline class="sym" points="2.5,-10.5 0,-5.5 -2.5,-10.5"/></g></g><g class="site s1" transform="translate(786.08 363.2)"><line class="sym" x1="0" x2="0" y1="0" y2="-10"/><g class="mut m2"><polyline class="sym" points="2.5,-6.5 0,-1.5 -2.5,-6.5"/></g></g></g></g><g class="plotbox trees"><g class="tree t0" transform="translate(20 0)"><g class="plotbox"><g class="c2 node n38 p2 root" transform="translate(790.904 26.8)"><g class="a38 c2 m2 node n27 p2 s1" transform="translate(103.096 255.798)"><g class="a27 i14 leaf node n14 p2 sample" transform="translate(-23 38.8023)"><path class="edge" d="M 0 0 V -38.8023 H 23"/><rect class="sym" height="6" width="6" x="-3" y="-3"/><text class="lab" transform="translate(0 11)">14</text></g><g class="a27 i15 leaf node n15 p2 sample" transform="translate(23 38.8023)"><path class="edge" d="M 0 0 V -38.8023 H -23"/><rect class="sym" height="6" width="6" x="-3" y="-3"/><text class="lab" transform="translate(0 11)">15</text></g><path class="edge" d="M 0 0 V -255.798 H -103.096"/><g class="mut m2 s1" transform="translate(0 -254.03)"><line x1="0" x2="0" y1="0" y2="254.03"/><path class="sym" d="M -3,-3 l 6,6 M -3,3 l 6,-6"/><text class="lab rgt" transform="translate(5 0)">2</text></g><circle class="sym" cx="0" cy="0" r="3"/><text class="lab rgt" transform="translate(3 -7)">27</text></g><g class="a38 c2 m0 m1 node n37 p1 s0" transform="translate(-103.096 165.699)"><g class="a37 c2 node n34 p2" transform="translate(102.691 66.8852)"><g class="a34 i4 leaf node n4 p1 sample" transform="translate(34.5 62.0158)"><path class="edge" d="M 0 0 V -62.0158 H -34.5"/><rect class="sym" height="6" width="6" x="-3" y="-3"/><text class="lab" transform="translate(0 11)">4</text></g><g class="a34 c2 node n30 p1" transform="translate(-34.5 18.0288)"><g class="a30 i1 leaf node n1 p1 sample" transform="translate(-23 43.987)"><path class="edge" d="M 0 0 V -43.987 H 23"/><rect class="sym" height="6" width="6" x="-3" y="-3"/><text class="lab" transform="translate(0 11)">1</text></g><g class="a30 i10 leaf node n10 p2 sample" transform="translate(23 43.987)"><path class="edge" d="M 0 0 V -43.987 H -23"/><rect class="sym" height="6" width="6" x="-3" y="-3"/><text class="lab" transform="translate(0 11)">10</text></g><path class="edge" d="M 0 0 V -18.0288 H 34.5"/><circle class="sym" cx="0" cy="0" r="3"/><text class="lab lft" transform="translate(-3 -7)">30</text></g><path class="edge" d="M 0 0 V -66.8852 H -102.691"/><circle class="sym" cx="0" cy="0" r="3"/><text class="lab rgt" transform="translate(3 -7)">34</text></g><g class="a37 c2 node n36 p2" transform="translate(-102.691 29.9479)"><g class="a36 i2 leaf node n2 p1 sample" transform="translate(101.883 98.9532)"><path class="edge" d="M 0 0 V -98.9532 H -101.883"/><rect class="sym" height="6" width="6" x="-3" y="-3"/><text class="lab" transform="translate(0 11)">2</text></g><g class="a36 c2 node n35 p2" transform="translate(-101.883 6.11818)"><g class="a35 c2 node n32 p1" transform="translate(123.266 42.6668)"><g class="a32 i17 leaf node n17 p2 sample" transform="translate(34.5 50.1682)"><path class="edge" d="M 0 0 V -50.1682 H -34.5"/><rect class="sym" height="6" width="6" x="-3" y="-3"/><text class="lab" transform="translate(0 11)">17</text></g><g class="a32 c2 node n29 p1" transform="translate(-34.5 10.7172)"><g class="a29 i9 leaf node n9 p1 sample" transform="translate(-23 39.451)"><path class="edge" d="M 0 0 V -39.451 H 23"/><rect class="sym" height="6" width="6" x="-3" y="-3"/><text class="lab" transform="translate(0 11)">9</text></g><g class="a29 i16 leaf node n16 p2 sample" transform="translate(23 39.451)"><path class="edge" d="M 0 0 V -39.451 H -23"/><rect class="sym" height="6" width="6" x="-3" y="-3"/><text class="lab" transform="translate(0 11)">16</text></g><path class="edge" d="M 0 0 V -10.7172 H 34.5"/><circle class="sym" cx="0" cy="0" r="3"/><text class="lab lft" transform="translate(-3 -7)">29</text></g><path class="edge" d="M 0 0 V -42.6668 H -123.266"/><circle class="sym" cx="0" cy="0" r="3"/><text class="lab rgt" transform="translate(3 -7)">32</text></g><g class="a35 c2 node n33 p1" transform="translate(-123.266 41.6062)"><g class="a33 c2 node n24 p2" transform="translate(120.031 32.5933)"><g class="a24 i3 leaf node n3 p1 sample" transform="translate(-23 18.6355)"><path class="edge" d="M 0 0 V -18.6355 H 23"/><rect class="sym" height="6" width="6" x="-3" y="-3"/><text class="lab" transform="translate(0 11)">3</text></g><g class="a24 i8 leaf node n8 p1 sample" transform="translate(23 18.6355)"><path class="edge" d="M 0 0 V -18.6355 H -23"/><rect class="sym" height="6" width="6" x="-3" y="-3"/><text class="lab" transform="translate(0 11)">8</text></g><path class="edge" d="M 0 0 V -32.5933 H -120.031"/><circle class="sym" cx="0" cy="0" r="3"/><text class="lab rgt" transform="translate(3 -7)">24</text></g><g class="a33 c2 node n31 p2" transform="translate(-120.031 6.65292)"><g class="a31 c2 node n26 p2" transform="translate(-127.938 6.88297)"><g class="a26 c2 node n21 p2" transform="translate(-46 33.0421)"><g class="a21 i0 leaf node n0 p1 sample" transform="translate(-23 4.65087)"><path class="edge" d="M 0 0 V -4.65087 H 23"/><rect class="sym" height="6" width="6" x="-3" y="-3"/><text class="lab" transform="translate(0 11)">0</text></g><g class="a21 i19 leaf node n19 p2 sample" transform="translate(23 4.65087)"><path class="edge" d="M 0 0 V -4.65087 H -23"/><rect class="sym" height="6" width="6" x="-3" y="-3"/><text class="lab" transform="translate(0 11)">19</text></g><path class="edge" d="M 0 0 V -33.0421 H 46"/><circle class="sym" cx="0" cy="0" r="3"/><text class="lab lft" transform="translate(-3 -7)">21</text></g><g class="a26 c2 node n25 p2" transform="translate(46 17.3584)"><g class="a25 i13 leaf node n13 p2 sample" transform="translate(-23 20.3345)"><path class="edge" d="M 0 0 V -20.3345 H 23"/><rect class="sym" height="6" width="6" x="-3" y="-3"/><text class="lab" transform="translate(0 11)">13</text></g><g class="a25 i18 leaf node n18 p2 sample" transform="translate(23 20.3345)"><path class="edge" d="M 0 0 V -20.3345 H -23"/><rect class="sym" height="6" width="6" x="-3" y="-3"/><text class="lab" transform="translate(0 11)">18</text></g><path class="edge" d="M 0 0 V -17.3584 H -46"/><circle class="sym" cx="0" cy="0" r="3"/><text class="lab rgt" transform="translate(3 -7)">25</text></g><path class="edge" d="M 0 0 V -6.88297 H 127.938"/><circle class="sym" cx="0" cy="0" r="3"/><text class="lab lft" transform="translate(-3 -7)">26</text></g><g class="a31 c2 node n28 p2" transform="translate(127.938 5.75357)"><g class="a28 i12 leaf node n12 p2 sample" transform="translate(43.125 38.8223)"><path class="edge" d="M 0 0 V -38.8223 H -43.125"/><rect class="sym" height="6" width="6" x="-3" y="-3"/><text class="lab" transform="translate(0 11)">12</text></g><g class="a28 c2 node n23 p1" transform="translate(-43.125 22.692)"><g class="a23 i11 leaf node n11 p2 sample" transform="translate(40.25 16.1304)"><path class="edge" d="M 0 0 V -16.1304 H -40.25"/><rect class="sym" height="6" width="6" x="-3" y="-3"/><text class="lab" transform="translate(0 11)">11</text></g><g class="a23 c2 node n22 p2" transform="translate(-40.25 9.73883)"><g class="a22 i7 leaf node n7 p1 sample" transform="translate(34.5 6.39155)"><path class="edge" d="M 0 0 V -6.39155 H -34.5"/><rect class="sym" height="6" width="6" x="-3" y="-3"/><text class="lab" transform="translate(0 11)">7</text></g><g class="a22 c2 node n20 p1" transform="translate(-34.5 2.56384)"><g class="a20 i5 leaf node n5 p1 sample" transform="translate(-23 3.82771)"><path class="edge" d="M 0 0 V -3.82771 H 23"/><rect class="sym" height="6" width="6" x="-3" y="-3"/><text class="lab" transform="translate(0 11)">5</text></g><g class="a20 i6 leaf node n6 p1 sample" transform="translate(23 3.82771)"><path class="edge" d="M 0 0 V -3.82771 H -23"/><rect class="sym" height="6" width="6" x="-3" y="-3"/><text class="lab" transform="translate(0 11)">6</text></g><path class="edge" d="M 0 0 V -2.56384 H 34.5"/><circle class="sym" cx="0" cy="0" r="3"/><text class="lab lft" transform="translate(-3 -7)">20</text></g><path class="edge" d="M 0 0 V -9.73883 H 40.25"/><circle class="sym" cx="0" cy="0" r="3"/><text class="lab lft" transform="translate(-3 -7)">22</text></g><path class="edge" d="M 0 0 V -22.692 H 43.125"/><circle class="sym" cx="0" cy="0" r="3"/><text class="lab lft" transform="translate(-3 -7)">23</text></g><path class="edge" d="M 0 0 V -5.75357 H -127.938"/><circle class="sym" cx="0" cy="0" r="3"/><text class="lab rgt" transform="translate(3 -7)">28</text></g><path class="edge" d="M 0 0 V -6.65292 H 120.031"/><circle class="sym" cx="0" cy="0" r="3"/><text class="lab lft" transform="translate(-3 -7)">31</text></g><path class="edge" d="M 0 0 V -41.6062 H 123.266"/><circle class="sym" cx="0" cy="0" r="3"/><text class="lab lft" transform="translate(-3 -7)">33</text></g><path class="edge" d="M 0 0 V -6.11818 H 101.883"/><circle class="sym" cx="0" cy="0" r="3"/><text class="lab lft" transform="translate(-3 -7)">35</text></g><path class="edge" d="M 0 0 V -29.9479 H 102.691"/><circle class="sym" cx="0" cy="0" r="3"/><text class="lab lft" transform="translate(-3 -7)">36</text></g><path class="edge" d="M 0 0 V -165.699 H 103.096"/><g class="mut m0 s0" transform="translate(0 -140.08)"><line x1="0" x2="0" y1="0" y2="140.08"/><path class="sym" d="M -3,-3 l 6,6 M -3,3 l 6,-6"/><text class="lab lft" transform="translate(-5 0)">0</text></g><g class="mut m1 s0" transform="translate(0 -38.7654)"><line x1="0" x2="0" y1="0" y2="38.7654"/><path class="sym" d="M -3,-3 l 6,6 M -3,3 l 6,-6"/><text class="lab lft" transform="translate(-5 0)">1</text></g><circle class="sym" cx="0" cy="0" r="3"/><text class="lab lft" transform="translate(-3 -7)">37</text></g><circle class="sym" cx="0" cy="0" r="3"/><text class="lab" transform="translate(0 -11)">38</text></g></g></g></g></g></svg>