<svg baseProfile="full" height="400" version="1.1" width="1000" xmlns="http://www.w3.org/2000/svg" xmlns:ev="http://www.w3.org/2001/xml-events" xmlns:xlink="http://www.w3.org/1999/xlink"><defs><style type="text/css"><![CDATA[.background path {fill: #808080; fill-opacity: 0}.background path:nth-child(odd) {fill-opacity: .1}.x-regions rect {fill: yellow; stroke: black; opacity: 0.5}.axes {font-size: 14px}.x-axis .tick .lab {font-weight: bold; dominant-baseline: hanging}.axes, .tree {font-size: 14px; text-anchor: middle}.axes line, .edge {stroke: black; fill: none}.axes .ax-skip {stroke-dasharray: 4}.y-axis .grid {stroke: #FAFAFA}.node > .sym {fill: black; stroke: none}.site > .sym {stroke: black}.mut text {fill: red; font-style: italic}.mut.extra text {fill: hotpink}.mut line {fill: none; stroke: none}.mut .sym {fill: none; stroke: red}.mut.extra .sym {stroke: hotpink}.node .mut .sym {stroke-width: 1.5px}.tree text, .tree-sequence text {dominant-baseline: central}.plotbox .lab.lft {text-anchor: end}.plotbox .lab.rgt {text-anchor: start}.polytomy line {stroke: black; stroke-dasharray: 1px, 1px}.polytomy text {paint-order:stroke;stroke-width:0.3em;stroke:white}]]></style></defs><g class="tree-sequence"><g class="background"><path d="M20,0 l960,0 l0,338.2 l0,25 l0,5 l-960,0 l0,-5 l0,-25 l0,-338.2z"/></g><g class="axes"><g class="x-axis"><g class="title" transform="translate(500 400)"><text class="lab" text-anchor="middle" transform="translate(0 -11)">Genome position</text></g><line class="ax-line" x1="20" x2="980" y1="363.2" y2="363.2"/><g class="ticks"><g class="tick" transform="translate(20 363.2)"><line x1="0" x2="0" y1="0" y2="5"/><g transform="translate(0 6)"><text class="lab">0</text></g></g><g class="tick" transform="translate(980 363.2)"><line x1="0" x2="0" y1="0" y2="5"/><g transform="translate(0 6)"><text class="lab">1000</text></g></g></g><g class="site s0" transform="translate(349.28 363.2)"><line class="sym" x1="0" x2="0" y1="0" y2="-10"/><g class="mut m0"><polyline class="sym" points="2.5,-6.5 0,-1.5 -2.5,-6.5"/></g></g><g class="site s1" transform="translate(898.4 363.2)"><line class="sym" x1="0" x2="0" y1="0" y2="-10"/><g class="mut m1"><polyline class="sym" points="2.5,-6.5 0,-1.5 -2.5,-6.5"/></g></g><g class="site s2" transform="translate(924.32 363.2)"><line class="sym" x1="0" x2="0" y1="0" y2="-10"/><g class="mut m2"><polyline class="sym" points="2.5,-6.5 0,-1.5 -2.5,-6.5"/></g></g></g></g><g class="plotbox trees"><g class="tree t0" transform="translate(20 0)"><g class="plotbox"><g class="c2 node n38 p0 root" transform="translate(437.953 26.8)"><g class="a38 c2 node n31 p1" transform="translate(-297.203 262.807)"><g class="a31 c2 node n28 p1" transform="translate(-63.25 14.465)"><g class="a28 i0 leaf node n0 p1 sample" transform="translate(-34.5 17.3279)"><path class="edge" d="M 0 0 V -17.3279 H 34.5"/><rect class="sym" height="6" width="6" x="-3" y="-3"/><text class="lab" transform="translate(0 11)">0</text></g><g class="a28 c2 node n25 p1" transform="translate(34.5 5.18037)"><g class="a25 i10 leaf node n10 p2 sample" transform="translate(-23 12.1476)"><path class="edge" d="M 0 0 V -12.1476 H 23"/><rect class="sym" height="6" width="6" x="-3" y="-3"/><text class="lab" transform="translate(0 11)">10</text></g><g class="a25 i16 leaf node n16 p2 sample" transform="translate(23 12.1476)"><path class="edge" d="M 0 0 V -12.1476 H -23"/><rect class="sym" height="6" width="6" x="-3" y="-3"/><text class="lab" transform="translate(0 11)">16</text></g><path class="edge" d="M 0 0 V -5.18037 H -34.5"/><circle class="sym" cx="0" cy="0" r="3"/><text class="lab rgt" transform="translate(3 -7)">25</text></g><path class="edge" d="M 0 0 V -14.465 H 63.25"/><circle class="sym" cx="0" cy="0" r="3"/><text class="lab lft" transform="translate(-3 -7)">28</text></g><g class="a31 c2 node n30 p2" transform="translate(63.25 11.5379)"><g class="a30 i3 leaf node n3 p1 sample" transform="translate(-23 20.255)"><path class="edge" d="M 0 0 V -20.255 H 23"/><rect class="sym" height="6" width="6" x="-3" y="-3"/><text class="lab" transform="translate(0 11)">3</text></g><g class="a30 i19 leaf node n19 p2 sample" transform="translate(23 20.255)"><path class="edge" d="M 0 0 V -20.255 H -23"/><rect class="sym" height="6" width="6" x="-3" y="-3"/><text class="lab" transform="translate(0 11)">19</text></g><path class="edge" d="M 0 0 V -11.5379 H -63.25"/><circle class="sym" cx="0" cy="0" r="3"/><text class="lab rgt" transform="translate(3 -7)">30</text></g><path class="edge" d="M 0 0 V -262.807 H 297.203"/><circle class="sym" cx="0" cy="0" r="3"/><text class="lab lft" transform="translate(-3 -7)">31</text></g><g class="a38 c2 m0 node n37 p0 s0" transform="translate(297.203 117.27)"><g class="a37 c2 m2 node n35 p2 s2" transform="translate(-130.094 94.4238)"><g class="a35 i11 leaf m1 node n11 p2 s1 sample" transform="translate(127.938 82.9066)"><path class="edge" d="M 0 0 V -82.9066 H -127.938"/><g class="mut m1 s1" transform="translate(0 -78.6997)"><line x1="0" x2="0" y1="0" y2="78.6997"/><path class="sym" d="M -3,-3 l 6,6 M -3,3 l 6,-6"/><text class="lab rgt" transform="translate(5 0)">1</text></g><rect class="sym" height="6" width="6" x="-3" y="-3"/><text class="lab" transform="translate(0 11)">11</text></g><g class="a35 c2 node n34 p2" transform="translate(-127.938 3.80558)"><g class="a34 c2 node n26 p1" transform="translate(-106.375 65.9963)"><g class="a26 i17 leaf node n17 p2 sample" transform="translate(40.25 13.1047)"><path class="edge" d="M 0 0 V -13.1047 H -40.25"/><rect class="sym" height="6" width="6" x="-3" y="-3"/><text class="lab" transform="translate(0 11)">17</text></g><g class="a26 c2 node n21 p2" transform="translate(-40.25 11.589)"><g class="a21 i5 leaf node n5 p1 sample" transform="translate(34.5 1.51563)"><path class="edge" d="M 0 0 V -1.51563 H -34.5"/><rect class="sym" height="6" width="6" x="-3" y="-3"/><text class="lab" transform="translate(0 11)">5</text></g><g class="a21 c2 node n20 p2" transform="translate(-34.5 0.608152)"><g class="a20 i1 leaf node n1 p1 sample" transform="translate(-23 0.907481)"><path class="edge" d="M 0 0 V -0.907481 H 23"/><rect class="sym" height="6" width="6" x="-3" y="-3"/><text class="lab" transform="translate(0 11)">1</text></g><g class="a20 i4 leaf node n4 p1 sample" transform="translate(23 0.907481)"><path class="edge" d="M 0 0 V -0.907481 H -23"/><rect class="sym" height="6" width="6" x="-3" y="-3"/><text class="lab" transform="translate(0 11)">4</text></g><path class="edge" d="M 0 0 V -0.608152 H 34.5"/><circle class="sym" cx="0" cy="0" r="3"/><text class="lab lft" transform="translate(-3 -7)">20</text></g><path class="edge" d="M 0 0 V -11.589 H 40.25"/><circle class="sym" cx="0" cy="0" r="3"/><text class="lab lft" transform="translate(-3 -7)">21</text></g><path class="edge" d="M 0 0 V -65.9963 H 106.375"/><circle class="sym" cx="0" cy="0" r="3"/><text class="lab lft" transform="translate(-3 -7)">26</text></g><g class="a34 c2 node n33 p1" transform="translate(106.375 25.5152)"><g class="a33 c2 node n27 p2" transform="translate(-69 38.0558)"><g class="a27 i13 leaf node n13 p2 sample" transform="translate(34.5 15.53)"><path class="edge" d="M 0 0 V -15.53 H -34.5"/><rect class="sym" height="6" width="6" x="-3" y="-3"/><text class="lab" transform="translate(0 11)">13</text></g><g class="a27 c2 node n24 p1" transform="translate(-34.5 4.49223)"><g class="a24 i2 leaf node n2 p1 sample" transform="translate(-23 11.0378)"><path class="edge" d="M 0 0 V -11.0378 H 23"/><rect class="sym" height="6" width="6" x="-3" y="-3"/><text class="lab" transform="translate(0 11)">2</text></g><g class="a24 i12 leaf node n12 p2 sample" transform="translate(23 11.0378)"><path class="edge" d="M 0 0 V -11.0378 H -23"/><rect class="sym" height="6" width="6" x="-3" y="-3"/><text class="lab" transform="translate(0 11)">12</text></g><path class="edge" d="M 0 0 V -4.49223 H 34.5"/><circle class="sym" cx="0" cy="0" r="3"/><text class="lab lft" transform="translate(-3 -7)">24</text></g><path class="edge" d="M 0 0 V -38.0558 H 69"/><circle class="sym" cx="0" cy="0" r="3"/><text class="lab lft" transform="translate(-3 -7)">27</text></g><g class="a33 c2 node n29 p1" transform="translate(69 36.2433)"><g class="a29 i9 leaf node n9 p1 sample" transform="translate(34.5 17.3425)"><path class="edge" d="M 0 0 V -17.3425 H -34.5"/><rect class="sym" height="6" width="6" x="-3" y="-3"/><text class="lab" transform="translate(0 11)">9</text></g><g class="a29 c2 node n23 p2" transform="translate(-34.5 8.94435)"><g class="a23 i7 leaf node n7 p1 sample" transform="translate(-23 8.39817)"><path class="edge" d="M 0 0 V -8.39817 H 23"/><rect class="sym" height="6" width="6" x="-3" y="-3"/><text class="lab" transform="translate(0 11)">7</text></g><g class="a23 i14 leaf node n14 p2 sample" transform="translate(23 8.39817)"><path class="edge" d="M 0 0 V -8.39817 H -23"/><rect class="sym" height="6" width="6" x="-3" y="-3"/><text class="lab" transform="translate(0 11)">14</text></g><path class="edge" d="M 0 0 V -8.94435 H 34.5"/><circle class="sym" cx="0" cy="0" r="3"/><text class="lab lft" transform="translate(-3 -7)">23</text></g><path class="edge" d="M 0 0 V -36.2433 H -69"/><circle class="sym" cx="0" cy="0" r="3"/><text class="lab rgt" transform="translate(3 -7)">29</text></g><path class="edge" d="M 0 0 V -25.5152 H -106.375"/><circle class="sym" cx="0" cy="0" r="3"/><text class="lab rgt" transform="translate(3 -7)">33</text></g><path class="edge" d="M 0 0 V -3.80558 H 127.938"/><circle class="sym" cx="0" cy="0" r="3"/><text class="lab lft" transform="translate(-3 -7)">34</text></g><path class="edge" d="M 0 0 V -94.4238 H 130.094"/><g class="mut m2 s2" transform="translate(0 -67.7118)"><line x1="0" x2="0" y1="0" y2="67.7118"/><path class="sym" d="M -3,-3 l 6,6 M -3,3 l 6,-6"/><text class="lab lft" transform="translate(-5 0)">2</text></g><circle class="sym" cx="0" cy="0" r="3"/><text class="lab lft" transform="translate(-3 -7)">35</text></g><g class="a37 c2 node n36 p0" transform="translate(130.094 30.2988)"><g class="a36 i18 leaf node n18 p2 sample" transform="translate(51.75 147.032)"><path class="edge" d="M 0 0 V -147.032 H -51.75"/><rect class="sym" height="6" width="6" x="-3" y="-3"/><text class="lab" transform="translate(0 11)">18</text></g><g class="a36 c2 node n32 p2" transform="translate(-51.75 101.987)"><g class="a32 i6 leaf node n6 p1 sample" transform="translate(-34.5 45.0445)"><path class="edge" d="M 0 0 V -45.0445 H 34.5"/><rect class="sym" height="6" width="6" x="-3" y="-3"/><text class="lab" transform="translate(0 11)">6</text></g><g class="a32 c2 node n22 p2" transform="translate(34.5 42.7582)"><g class="a22 i8 leaf node n8 p1 sample" transform="translate(-23 2.28629)"><path class="edge" d="M 0 0 V -2.28629 H 23"/><rect class="sym" height="6" width="6" x="-3" y="-3"/><text class="lab" transform="translate(0 11)">8</text></g><g class="a22 i15 leaf node n15 p2 sample" transform="translate(23 2.28629)"><path class="edge" d="M 0 0 V -2.28629 H -23"/><rect class="sym" height="6" width="6" x="-3" y="-3"/><text class="lab" transform="translate(0 11)">15</text></g><path class="edge" d="M 0 0 V -42.7582 H -34.5"/><circle class="sym" cx="0" cy="0" r="3"/><text class="lab rgt" transform="translate(3 -7)">22</text></g><path class="edge" d="M 0 0 V -101.987 H 51.75"/><circle class="sym" cx="0" cy="0" r="3"/><text class="lab lft" transform="translate(-3 -7)">32</text></g><path class="edge" d="M 0 0 V -30.2988 H -130.094"/><circle class="sym" cx="0" cy="0" r="3"/><text class="lab rgt" transform="translate(3 -7)">36</text></g><path class="edge" d="M 0 0 V -117.27 H -297.203"/><g class="mut m0 s0" transform="translate(0 -77.994)"><line x1="0" x2="0" y1="0" y2="77.994"/><path class="sym" d="M -3,-3 l 6,6 M -3,3 l 6,-6"/><text class="lab rgt" transform="translate(5 0)">0</text></g><circle class="sym" cx="0" cy="0" r="3"/><text class="lab rgt" transform="translate(3 -7)">37</text></g><circle class="sym" cx="0" cy="0" r="3"/><text class="lab" transform="translate(0 -11)">38</text></g></g></g></g></g></svg>