<svg baseProfile="full" height="400" version="1.1" width="1000" xmlns="http://www.w3.org/2000/svg" xmlns:ev="http://www.w3.org/2001/xml-events" xmlns:xlink="http://www.w3.org/1999/xlink"><defs><style type="text/css"><![CDATA[.background path {fill: #808080; fill-opacity: 0}.background path:nth-child(odd) {fill-opacity: .1}.x-regions rect {fill: yellow; stroke: black; opacity: 0.5}.axes {font-size: 14px}.x-axis .tick .lab {font-weight: bold; dominant-baseline: hanging}.axes, .tree {font-size: 14px; text-anchor: middle}.axes line, .edge {stroke: black; fill: none}.axes .ax-skip {stroke-dasharray: 4}.y-axis .grid {stroke: #FAFAFA}.node > .sym {fill: black; stroke: none}.site > .sym {stroke: black}.mut text {fill: red; font-style: italic}.mut.extra text {fill: hotpink}.mut line {fill: none; stroke: none}.mut .sym {fill: none; stroke: red}.mut.extra .sym {stroke: hotpink}.node .mut .sym {stroke-width: 1.5px}.tree text, .tree-sequence text {dominant-baseline: central}.plotbox .lab.lft {text-anchor: end}.plotbox .lab.rgt {text-anchor: start}.polytomy line {stroke: black; stroke-dasharray: 1px, 1px}.polytomy text {paint-order:stroke;stroke-width:0.3em;stroke:white}]]></style></defs><g class="tree-sequence"><g class="background"><path d="M20,0 l960,0 l0,338.2 l0,25 l0,5 l-960,0 l0,-5 l0,-25 l0,-338.2z"/></g><g class="axes"><g class="x-axis"><g class="title" transform="translate(500 400)"><text class="lab" text-anchor="middle" transform="translate(0 -11)">Genome position</text></g><line class="ax-line" x1="20" x2="980" y1="363.2" y2="363.2"/><g class="ticks"><g class="tick" transform="translate(20 363.2)"><line x1="0" x2="0" y1="0" y2="5"/><g transform="translate(0 6)"><text class="lab">0</text></g></g><g class="tick" transform="translate(980 363.2)"><line x1="0" x2="0" y1="0" y2="5"/><g transform="translate(0 6)"><text class="lab">1000</text></g></g></g><g class="site s0" transform="translate(262.88 363.2)"><line class="sym" x1="0" x2="0" y1="0" y2="-10"/><g class="mut m0"><polyline class="sym" points="2.5,-6.5 0,-1.5 -2.5,-6.5"/></g></g><g class="site s1" transform="translate(734.24 363.2)"><line class="sym" x1="0" x2="0" y1="0" y2="-10"/><g class="mut m1"><polyline class="sym" points="2.5,-6.5 0,-1.5 -2.5,-6.5"/></g></g><g class="site s2" transform="translate(751.52 363.2)"><line class="sym" x1="0" x2="0" y1="0" y2="-10"/><g class="mut m2"><polyline class="sym" points="2.5,-6.5 0,-1.5 -2.5,-6.5"/></g></g><g class="site s3" transform="translate(899.36 363.2)"><line class="sym" x1="0" x2="0" y1="0" y2="-10"/><g class="mut m3"><polyline class="sym" points="2.5,-6.5 0,-1.5 -2.5,-6.5"/></g></g></g></g><g class="plotbox trees"><g class="tree t0" transform="translate(20 0)"><g class="plotbox"><g class="c2 node n38 p1 root" transform="translate(362.484 26.8)"><g class="a38 c2 m1 m2 node n35 p1 s1 s2" transform="translate(-178.609 237.303)"><g class="a35 c2 node n28 p2" transform="translate(-83.375 48.6641)"><g class="a28 i8 leaf node n8 p1 sample" transform="translate(34.5 8.63305)"><path class="edge" d="M 0 0 V -8.63305 H -34.5"/><rect class="sym" height="6" width="6" x="-3" y="-3"/><text class="lab" transform="translate(0 11)">8</text></g><g class="a28 c2 node n21 p1" transform="translate(-34.5 6.63808)"><g class="a21 i0 leaf node n0 p1 sample" transform="translate(-23 1.99496)"><path class="edge" d="M 0 0 V -1.99496 H 23"/><rect class="sym" height="6" width="6" x="-3" y="-3"/><text class="lab" transform="translate(0 11)">0</text></g><g class="a21 i16 leaf node n16 p2 sample" transform="translate(23 1.99496)"><path class="edge" d="M 0 0 V -1.99496 H -23"/><rect class="sym" height="6" width="6" x="-3" y="-3"/><text class="lab" transform="translate(0 11)">16</text></g><path class="edge" d="M 0 0 V -6.63808 H 34.5"/><circle class="sym" cx="0" cy="0" r="3"/><text class="lab lft" transform="translate(-3 -7)">21</text></g><path class="edge" d="M 0 0 V -48.6641 H 83.375"/><circle class="sym" cx="0" cy="0" r="3"/><text class="lab lft" transform="translate(-3 -7)">28</text></g><g class="a35 c2 node n32 p2" transform="translate(83.375 30.597)"><g class="a32 i7 leaf m0 node n7 p1 s0 sample" transform="translate(51.75 26.7002)"><path class="edge" d="M 0 0 V -26.7002 H -51.75"/><g class="mut m0 s0" transform="translate(0 -6.11483)"><line x1="0" x2="0" y1="0" y2="6.11483"/><path class="sym" d="M -3,-3 l 6,6 M -3,3 l 6,-6"/><text class="lab rgt" transform="translate(5 0)">0</text></g><rect class="sym" height="6" width="6" x="-3" y="-3"/><text class="lab" transform="translate(0 11)">7</text></g><g class="a32 c2 node n29 p1" transform="translate(-51.75 11.9464)"><g class="a29 i2 leaf node n2 p1 sample" transform="translate(-34.5 14.7537)"><path class="edge" d="M 0 0 V -14.7537 H 34.5"/><rect class="sym" height="6" width="6" x="-3" y="-3"/><text class="lab" transform="translate(0 11)">2</text></g><g class="a29 c2 node n24 p2" transform="translate(34.5 10.6147)"><g class="a24 i4 leaf node n4 p1 sample" transform="translate(-23 4.13905)"><path class="edge" d="M 0 0 V -4.13905 H 23"/><rect class="sym" height="6" width="6" x="-3" y="-3"/><text class="lab" transform="translate(0 11)">4</text></g><g class="a24 i9 leaf node n9 p1 sample" transform="translate(23 4.13905)"><path class="edge" d="M 0 0 V -4.13905 H -23"/><rect class="sym" height="6" width="6" x="-3" y="-3"/><text class="lab" transform="translate(0 11)">9</text></g><path class="edge" d="M 0 0 V -10.6147 H -34.5"/><circle class="sym" cx="0" cy="0" r="3"/><text class="lab rgt" transform="translate(3 -7)">24</text></g><path class="edge" d="M 0 0 V -11.9464 H 51.75"/><circle class="sym" cx="0" cy="0" r="3"/><text class="lab lft" transform="translate(-3 -7)">29</text></g><path class="edge" d="M 0 0 V -30.597 H -83.375"/><circle class="sym" cx="0" cy="0" r="3"/><text class="lab rgt" transform="translate(3 -7)">32</text></g><path class="edge" d="M 0 0 V -237.303 H 178.609"/><g class="mut m1 s1" transform="translate(0 -94.3711)"><line x1="0" x2="0" y1="0" y2="94.3711"/><path class="sym" d="M -3,-3 l 6,6 M -3,3 l 6,-6"/><text class="lab lft" transform="translate(-5 0)">1</text></g><g class="mut m2 s2" transform="translate(0 -17.2488)"><line x1="0" x2="0" y1="0" y2="17.2488"/><path class="sym" d="M -3,-3 l 6,6 M -3,3 l 6,-6"/><text class="lab lft" transform="translate(-5 0)">2</text></g><circle class="sym" cx="0" cy="0" r="3"/><text class="lab lft" transform="translate(-3 -7)">35</text></g><g class="a38 c2 m3 node n37 p1 s3" transform="translate(178.609 148.587)"><g class="a37 c2 node n31 p2" transform="translate(-153.094 120.639)"><g class="a31 i1 leaf node n1 p1 sample" transform="translate(-23 25.3734)"><path class="edge" d="M 0 0 V -25.3734 H 23"/><rect class="sym" height="6" width="6" x="-3" y="-3"/><text class="lab" transform="translate(0 11)">1</text></g><g class="a31 i3 leaf node n3 p1 sample" transform="translate(23 25.3734)"><path class="edge" d="M 0 0 V -25.3734 H -23"/><rect class="sym" height="6" width="6" x="-3" y="-3"/><text class="lab" transform="translate(0 11)">3</text></g><path class="edge" d="M 0 0 V -120.639 H 153.094"/><circle class="sym" cx="0" cy="0" r="3"/><text class="lab lft" transform="translate(-3 -7)">31</text></g><g class="a37 c2 node n36 p2" transform="translate(153.094 10.869)"><g class="a36 c2 node n27 p1" transform="translate(-96.3125 126.668)"><g class="a27 i6 leaf node n6 p1 sample" transform="translate(43.125 8.47555)"><path class="edge" d="M 0 0 V -8.47555 H -43.125"/><rect class="sym" height="6" width="6" x="-3" y="-3"/><text class="lab" transform="translate(0 11)">6</text></g><g class="a27 c2 node n25 p1" transform="translate(-43.125 3.04834)"><g class="a25 i13 leaf node n13 p2 sample" transform="translate(40.25 5.4272)"><path class="edge" d="M 0 0 V -5.4272 H -40.25"/><rect class="sym" height="6" width="6" x="-3" y="-3"/><text class="lab" transform="translate(0 11)">13</text></g><g class="a25 c2 node n23 p2" transform="translate(-40.25 2.4308)"><g class="a23 i14 leaf node n14 p2 sample" transform="translate(34.5 2.99641)"><path class="edge" d="M 0 0 V -2.99641 H -34.5"/><rect class="sym" height="6" width="6" x="-3" y="-3"/><text class="lab" transform="translate(0 11)">14</text></g><g class="a23 c2 node n22 p1" transform="translate(-34.5 0.530323)"><g class="a22 i5 leaf node n5 p1 sample" transform="translate(-23 2.46609)"><path class="edge" d="M 0 0 V -2.46609 H 23"/><rect class="sym" height="6" width="6" x="-3" y="-3"/><text class="lab" transform="translate(0 11)">5</text></g><g class="a22 i12 leaf node n12 p2 sample" transform="translate(23 2.46609)"><path class="edge" d="M 0 0 V -2.46609 H -23"/><rect class="sym" height="6" width="6" x="-3" y="-3"/><text class="lab" transform="translate(0 11)">12</text></g><path class="edge" d="M 0 0 V -0.530323 H 34.5"/><circle class="sym" cx="0" cy="0" r="3"/><text class="lab lft" transform="translate(-3 -7)">22</text></g><path class="edge" d="M 0 0 V -2.4308 H 40.25"/><circle class="sym" cx="0" cy="0" r="3"/><text class="lab lft" transform="translate(-3 -7)">23</text></g><path class="edge" d="M 0 0 V -3.04834 H 43.125"/><circle class="sym" cx="0" cy="0" r="3"/><text class="lab lft" transform="translate(-3 -7)">25</text></g><path class="edge" d="M 0 0 V -126.668 H 96.3125"/><circle class="sym" cx="0" cy="0" r="3"/><text class="lab lft" transform="translate(-3 -7)">27</text></g><g class="a36 c2 node n34 p2" transform="translate(96.3125 89.8513)"><g class="a34 c2 node n26 p2" transform="translate(69 37.3666)"><g class="a26 i11 leaf node n11 p2 sample" transform="translate(-34.5 7.92568)"><path class="edge" d="M 0 0 V -7.92568 H 34.5"/><rect class="sym" height="6" width="6" x="-3" y="-3"/><text class="lab" transform="translate(0 11)">11</text></g><g class="a26 c2 node n20 p1" transform="translate(34.5 7.81594)"><g class="a20 i17 leaf node n17 p2 sample" transform="translate(-23 0.109742)"><path class="edge" d="M 0 0 V -0.109742 H 23"/><rect class="sym" height="6" width="6" x="-3" y="-3"/><text class="lab" transform="translate(0 11)">17</text></g><g class="a20 i18 leaf node n18 p2 sample" transform="translate(23 0.109742)"><path class="edge" d="M 0 0 V -0.109742 H -23"/><rect class="sym" height="6" width="6" x="-3" y="-3"/><text class="lab" transform="translate(0 11)">18</text></g><path class="edge" d="M 0 0 V -7.81594 H -34.5"/><circle class="sym" cx="0" cy="0" r="3"/><text class="lab rgt" transform="translate(3 -7)">20</text></g><path class="edge" d="M 0 0 V -37.3666 H -69"/><circle class="sym" cx="0" cy="0" r="3"/><text class="lab rgt" transform="translate(3 -7)">26</text></g><g class="a34 c2 node n33 p1" transform="translate(-69 8.96659)"><g class="a33 i10 leaf node n10 p2 sample" transform="translate(-34.5 36.3257)"><path class="edge" d="M 0 0 V -36.3257 H 34.5"/><rect class="sym" height="6" width="6" x="-3" y="-3"/><text class="lab" transform="translate(0 11)">10</text></g><g class="a33 c2 node n30 p2" transform="translate(34.5 18.7666)"><g class="a30 i15 leaf node n15 p2 sample" transform="translate(-23 17.5591)"><path class="edge" d="M 0 0 V -17.5591 H 23"/><rect class="sym" height="6" width="6" x="-3" y="-3"/><text class="lab" transform="translate(0 11)">15</text></g><g class="a30 i19 leaf node n19 p2 sample" transform="translate(23 17.5591)"><path class="edge" d="M 0 0 V -17.5591 H -23"/><rect class="sym" height="6" width="6" x="-3" y="-3"/><text class="lab" transform="translate(0 11)">19</text></g><path class="edge" d="M 0 0 V -18.7666 H -34.5"/><circle class="sym" cx="0" cy="0" r="3"/><text class="lab rgt" transform="translate(3 -7)">30</text></g><path class="edge" d="M 0 0 V -8.96659 H 69"/><circle class="sym" cx="0" cy="0" r="3"/><text class="lab lft" transform="translate(-3 -7)">33</text></g><path class="edge" d="M 0 0 V -89.8513 H -96.3125"/><circle class="sym" cx="0" cy="0" r="3"/><text class="lab rgt" transform="translate(3 -7)">34</text></g><path class="edge" d="M 0 0 V -10.869 H -153.094"/><circle class="sym" cx="0" cy="0" r="3"/><text class="lab rgt" transform="translate(3 -7)">36</text></g><path class="edge" d="M 0 0 V -148.587 H -178.609"/><g class="mut m3 s3" transform="translate(0 -94.8589)"><line x1="0" x2="0" y1="0" y2="94.8589"/><path class="sym" d="M -3,-3 l 6,6 M -3,3 l 6,-6"/><text class="lab rgt" transform="translate(5 0)">3</text></g><circle class="sym" cx="0" cy="0" r="3"/><text class="lab rgt" transform="translate(3 -7)">37</text></g><circle class="sym" cx="0" cy="0" r="3"/><text class="lab" transform="translate(0 -11)">38</text></g></g></g></g></g></svg>