<svg baseProfile="full" height="400" version="1.1" width="1000" xmlns="http://www.w3.org/2000/svg" xmlns:ev="http://www.w3.org/2001/xml-events" xmlns:xlink="http://www.w3.org/1999/xlink"><defs><style type="text/css"><![CDATA[.background path {fill: #808080; fill-opacity: 0}.background path:nth-child(odd) {fill-opacity: .1}.x-regions rect {fill: yellow; stroke: black; opacity: 0.5}.axes {font-size: 14px}.x-axis .tick .lab {font-weight: bold; dominant-baseline: hanging}.axes, .tree {font-size: 14px; text-anchor: middle}.axes line, .edge {stroke: black; fill: none}.axes .ax-skip {stroke-dasharray: 4}.y-axis .grid {stroke: #FAFAFA}.node > .sym {fill: black; stroke: none}.site > .sym {stroke: black}.mut text {fill: red; font-style: italic}.mut.extra text {fill: hotpink}.mut line {fill: none; stroke: none}.mut .sym {fill: none; stroke: red}.mut.extra .sym {stroke: hotpink}.node .mut .sym {stroke-width: 1.5px}.tree text, .tree-sequence text {dominant-baseline: central}.plotbox .lab.lft {text-anchor: end}.plotbox .lab.rgt {text-anchor: start}.polytomy line {stroke: black; stroke-dasharray: 1px, 1px}.polytomy text {paint-order:stroke;stroke-width:0.3em;stroke:white}]]></style></defs><g class="tree-sequence"><g class="background"><path d="M20,0 l960,0 l0,338.2 l0,25 l0,5 l-960,0 l0,-5 l0,-25 l0,-338.2z"/></g><g class="axes"><g class="x-axis"><g class="title" transform="translate(500 400)"><text class="lab" text-anchor="middle" transform="translate(0 -11)">Genome position</text></g><line class="ax-line" x1="20" x2="980" y1="363.2" y2="363.2"/><g class="ticks"><g class="tick" transform="translate(20 363.2)"><line x1="0" x2="0" y1="0" y2="5"/><g transform="translate(0 6)"><text class="lab">0</text></g></g><g class="tick" transform="translate(980 363.2)"><line x1="0" x2="0" y1="0" y2="5"/><g transform="translate(0 6)"><text class="lab">1000</text></g></g></g><g class="site s0" transform="translate(140 363.2)"><line class="sym" x1="0" x2="0" y1="0" y2="-10"/><g class="mut m0"><polyline class="sym" points="2.5,-6.5 0,-1.5 -2.5,-6.5"/></g></g><g class="site s1" transform="translate(331.04 363.2)"><line class="sym" x1="0" x2="0" y1="0" y2="-10"/><g class="mut m1"><polyline class="sym" points="2.5,-6.5 0,-1.5 -2.5,-6.5"/></g></g><g class="site s2" transform="translate(428.96 363.2)"><line class="sym" x1="0" x2="0" y1="0" y2="-10"/><g class="mut m2"><polyline class="sym" points="2.5,-6.5 0,-1.5 -2.5,-6.5"/></g></g></g></g><g class="plotbox trees"><g class="tree t0" transform="translate(20 0)"><g class="plotbox"><g class="c2 node n38 p0 root" transform="translate(724.734 26.8)"><g class="a38 c2 m1 m2 node n21 p1 s1 s2" transform="translate(169.266 292.853)"><g class="a21 i15 leaf node n15 p2 sample" transform="translate(-23 1.74729)"><path class="edge" d="M 0 0 V -1.74729 H 23"/><rect class="sym" height="6" width="6" x="-3" y="-3"/><text class="lab" transform="translate(0 11)">15</text></g><g class="a21 i19 leaf node n19 p2 sample" transform="translate(23 1.74729)"><path class="edge" d="M 0 0 V -1.74729 H -23"/><rect class="sym" height="6" width="6" x="-3" y="-3"/><text class="lab" transform="translate(0 11)">19</text></g><path class="edge" d="M 0 0 V -292.853 H -169.266"/><g class="mut m2 s2" transform="translate(0 -274.867)"><line x1="0" x2="0" y1="0" y2="274.867"/><path class="sym" d="M -3,-3 l 6,6 M -3,3 l 6,-6"/><text class="lab rgt" transform="translate(5 0)">2</text></g><g class="mut m1 s1" transform="translate(0 -241.917)"><line x1="0" x2="0" y1="0" y2="241.917"/><path class="sym" d="M -3,-3 l 6,6 M -3,3 l 6,-6"/><text class="lab rgt" transform="translate(5 0)">1</text></g><circle class="sym" cx="0" cy="0" r="3"/><text class="lab rgt" transform="translate(3 -7)">21</text></g><g class="a38 c2 node n37 p1" transform="translate(-169.266 191.413)"><g class="a37 c2 node n34 p2" transform="translate(-214.188 75.1674)"><g class="a34 i5 leaf node n5 p1 sample" transform="translate(115.719 28.0195)"><path class="edge" d="M 0 0 V -28.0195 H -115.719"/><rect class="sym" height="6" width="6" x="-3" y="-3"/><text class="lab" transform="translate(0 11)">5</text></g><g class="a34 c2 node n33 p1" transform="translate(-115.719 0.788125)"><g class="a33 c2 node n31 p1" transform="translate(113.562 2.0446)"><g class="a31 i7 leaf node n7 p1 sample" transform="translate(71.875 25.1867)"><path class="edge" d="M 0 0 V -25.1867 H -71.875"/><rect class="sym" height="6" width="6" x="-3" y="-3"/><text class="lab" transform="translate(0 11)">7</text></g><g class="a31 c2 node n28 p1" transform="translate(-71.875 12.6101)"><g class="a28 i6 leaf node n6 p1 sample" transform="translate(-40.25 12.5766)"><path class="edge" d="M 0 0 V -12.5766 H 40.25"/><rect class="sym" height="6" width="6" x="-3" y="-3"/><text class="lab" transform="translate(0 11)">6</text></g><g class="a28 c2 node n27 p2" transform="translate(40.25 0.383169)"><g class="a27 i8 leaf node n8 p1 sample" transform="translate(-34.5 12.1935)"><path class="edge" d="M 0 0 V -12.1935 H 34.5"/><rect class="sym" height="6" width="6" x="-3" y="-3"/><text class="lab" transform="translate(0 11)">8</text></g><g class="a27 c2 node n24 p2" transform="translate(34.5 4.88031)"><g class="a24 i11 leaf node n11 p2 sample" transform="translate(-23 7.31316)"><path class="edge" d="M 0 0 V -7.31316 H 23"/><rect class="sym" height="6" width="6" x="-3" y="-3"/><text class="lab" transform="translate(0 11)">11</text></g><g class="a24 i14 leaf node n14 p2 sample" transform="translate(23 7.31316)"><path class="edge" d="M 0 0 V -7.31316 H -23"/><rect class="sym" height="6" width="6" x="-3" y="-3"/><text class="lab" transform="translate(0 11)">14</text></g><path class="edge" d="M 0 0 V -4.88031 H -34.5"/><circle class="sym" cx="0" cy="0" r="3"/><text class="lab rgt" transform="translate(3 -7)">24</text></g><path class="edge" d="M 0 0 V -0.383169 H -40.25"/><circle class="sym" cx="0" cy="0" r="3"/><text class="lab rgt" transform="translate(3 -7)">27</text></g><path class="edge" d="M 0 0 V -12.6101 H 71.875"/><circle class="sym" cx="0" cy="0" r="3"/><text class="lab lft" transform="translate(-3 -7)">28</text></g><path class="edge" d="M 0 0 V -2.0446 H -113.562"/><circle class="sym" cx="0" cy="0" r="3"/><text class="lab rgt" transform="translate(3 -7)">31</text></g><g class="a33 c2 node n32 p2" transform="translate(-113.562 0.384028)"><g class="a32 c2 node n29 p1" transform="translate(-46 9.45189)"><g class="a29 i0 leaf node n0 p1 sample" transform="translate(-23 17.3954)"><path class="edge" d="M 0 0 V -17.3954 H 23"/><rect class="sym" height="6" width="6" x="-3" y="-3"/><text class="lab" transform="translate(0 11)">0</text></g><g class="a29 i10 leaf node n10 p2 sample" transform="translate(23 17.3954)"><path class="edge" d="M 0 0 V -17.3954 H -23"/><rect class="sym" height="6" width="6" x="-3" y="-3"/><text class="lab" transform="translate(0 11)">10</text></g><path class="edge" d="M 0 0 V -9.45189 H 46"/><circle class="sym" cx="0" cy="0" r="3"/><text class="lab lft" transform="translate(-3 -7)">29</text></g><g class="a32 c2 node n30 p2" transform="translate(46 7.47534)"><g class="a30 i1 leaf node n1 p1 sample" transform="translate(-23 19.372)"><path class="edge" d="M 0 0 V -19.372 H 23"/><rect class="sym" height="6" width="6" x="-3" y="-3"/><text class="lab" transform="translate(0 11)">1</text></g><g class="a30 i12 leaf node n12 p2 sample" transform="translate(23 19.372)"><path class="edge" d="M 0 0 V -19.372 H -23"/><rect class="sym" height="6" width="6" x="-3" y="-3"/><text class="lab" transform="translate(0 11)">12</text></g><path class="edge" d="M 0 0 V -7.47534 H -46"/><circle class="sym" cx="0" cy="0" r="3"/><text class="lab rgt" transform="translate(3 -7)">30</text></g><path class="edge" d="M 0 0 V -0.384028 H 113.562"/><circle class="sym" cx="0" cy="0" r="3"/><text class="lab lft" transform="translate(-3 -7)">32</text></g><path class="edge" d="M 0 0 V -0.788125 H 115.719"/><circle class="sym" cx="0" cy="0" r="3"/><text class="lab lft" transform="translate(-3 -7)">33</text></g><path class="edge" d="M 0 0 V -75.1674 H 214.188"/><circle class="sym" cx="0" cy="0" r="3"/><text class="lab lft" transform="translate(-3 -7)">34</text></g><g class="a37 c2 m0 node n36 p1 s0" transform="translate(214.188 61.4958)"><g class="a36 i18 leaf node n18 p2 sample" transform="translate(55.3438 41.6911)"><path class="edge" d="M 0 0 V -41.6911 H -55.3438"/><rect class="sym" height="6" width="6" x="-3" y="-3"/><text class="lab" transform="translate(0 11)">18</text></g><g class="a36 c2 node n35 p1" transform="translate(-55.3438 12.0976)"><g class="a35 i3 leaf node n3 p1 sample" transform="translate(64.6875 29.5935)"><path class="edge" d="M 0 0 V -29.5935 H -64.6875"/><rect class="sym" height="6" width="6" x="-3" y="-3"/><text class="lab" transform="translate(0 11)">3</text></g><g class="a35 c2 node n26 p2" transform="translate(-64.6875 18.3026)"><g class="a26 c2 node n20 p1" transform="translate(60.375 9.68303)"><g class="a20 i9 leaf node n9 p1 sample" transform="translate(-23 1.60787)"><path class="edge" d="M 0 0 V -1.60787 H 23"/><rect class="sym" height="6" width="6" x="-3" y="-3"/><text class="lab" transform="translate(0 11)">9</text></g><g class="a20 i17 leaf node n17 p2 sample" transform="translate(23 1.60787)"><path class="edge" d="M 0 0 V -1.60787 H -23"/><rect class="sym" height="6" width="6" x="-3" y="-3"/><text class="lab" transform="translate(0 11)">17</text></g><path class="edge" d="M 0 0 V -9.68303 H -60.375"/><circle class="sym" cx="0" cy="0" r="3"/><text class="lab rgt" transform="translate(3 -7)">20</text></g><g class="a26 c2 node n25 p2" transform="translate(-60.375 2.17226)"><g class="a25 i16 leaf node n16 p2 sample" transform="translate(51.75 9.11863)"><path class="edge" d="M 0 0 V -9.11863 H -51.75"/><rect class="sym" height="6" width="6" x="-3" y="-3"/><text class="lab" transform="translate(0 11)">16</text></g><g class="a25 c2 node n23 p2" transform="translate(-51.75 2.03306)"><g class="a23 i2 leaf node n2 p1 sample" transform="translate(-34.5 7.08557)"><path class="edge" d="M 0 0 V -7.08557 H 34.5"/><rect class="sym" height="6" width="6" x="-3" y="-3"/><text class="lab" transform="translate(0 11)">2</text></g><g class="a23 c2 node n22 p2" transform="translate(34.5 0.35164)"><g class="a22 i4 leaf node n4 p1 sample" transform="translate(-23 6.73393)"><path class="edge" d="M 0 0 V -6.73393 H 23"/><rect class="sym" height="6" width="6" x="-3" y="-3"/><text class="lab" transform="translate(0 11)">4</text></g><g class="a22 i13 leaf node n13 p2 sample" transform="translate(23 6.73393)"><path class="edge" d="M 0 0 V -6.73393 H -23"/><rect class="sym" height="6" width="6" x="-3" y="-3"/><text class="lab" transform="translate(0 11)">13</text></g><path class="edge" d="M 0 0 V -0.35164 H -34.5"/><circle class="sym" cx="0" cy="0" r="3"/><text class="lab rgt" transform="translate(3 -7)">22</text></g><path class="edge" d="M 0 0 V -2.03306 H 51.75"/><circle class="sym" cx="0" cy="0" r="3"/><text class="lab lft" transform="translate(-3 -7)">23</text></g><path class="edge" d="M 0 0 V -2.17226 H 60.375"/><circle class="sym" cx="0" cy="0" r="3"/><text class="lab lft" transform="translate(-3 -7)">25</text></g><path class="edge" d="M 0 0 V -18.3026 H 64.6875"/><circle class="sym" cx="0" cy="0" r="3"/><text class="lab lft" transform="translate(-3 -7)">26</text></g><path class="edge" d="M 0 0 V -12.0976 H 55.3438"/><circle class="sym" cx="0" cy="0" r="3"/><text class="lab lft" transform="translate(-3 -7)">35</text></g><path class="edge" d="M 0 0 V -61.4958 H -214.188"/><g class="mut m0 s0" transform="translate(0 -8.71299)"><line x1="0" x2="0" y1="0" y2="8.71299"/><path class="sym" d="M -3,-3 l 6,6 M -3,3 l 6,-6"/><text class="lab rgt" transform="translate(5 0)">0</text></g><circle class="sym" cx="0" cy="0" r="3"/><text class="lab rgt" transform="translate(3 -7)">36</text></g><path class="edge" d="M 0 0 V -191.413 H 169.266"/><circle class="sym" cx="0" cy="0" r="3"/><text class="lab lft" transform="translate(-3 -7)">37</text></g><circle class="sym" cx="0" cy="0" r="3"/><text class="lab" transform="translate(0 -11)">38</text></g></g></g></g></g></svg>