<svg baseProfile="full" height="400" version="1.1" width="1000" xmlns="http://www.w3.org/2000/svg" xmlns:ev="http://www.w3.org/2001/xml-events" xmlns:xlink="http://www.w3.org/1999/xlink"><defs><style type="text/css"><![CDATA[.background path {fill: #808080; fill-opacity: 0}.background path:nth-child(odd) {fill-opacity: .1}.x-regions rect {fill: yellow; stroke: black; opacity: 0.5}.axes {font-size: 14px}.x-axis .tick .lab {font-weight: bold; dominant-baseline: hanging}.axes, .tree {font-size: 14px; text-anchor: middle}.axes line, .edge {stroke: black; fill: none}.axes .ax-skip {stroke-dasharray: 4}.y-axis .grid {stroke: #FAFAFA}.node > .sym {fill: black; stroke: none}.site > .sym {stroke: black}.mut text {fill: red; font-style: italic}.mut.extra text {fill: hotpink}.mut line {fill: none; stroke: none}.mut .sym {fill: none; stroke: red}.mut.extra .sym {stroke: hotpink}.node .mut .sym {stroke-width: 1.5px}.tree text, .tree-sequence text {dominant-baseline: central}.plotbox .lab.lft {text-anchor: end}.plotbox .lab.rgt {text-anchor: start}.polytomy line {stroke: black; stroke-dasharray: 1px, 1px}.polytomy text {paint-order:stroke;stroke-width:0.3em;stroke:white}]]></style></defs><g class="tree-sequence"><g class="background"><path d="M20,0 l960,0 l0,338.2 l0,25 l0,5 l-960,0 l0,-5 l0,-25 l0,-338.2z"/></g><g class="axes"><g class="x-axis"><g class="title" transform="translate(500 400)"><text class="lab" text-anchor="middle" transform="translate(0 -11)">Genome position</text></g><line class="ax-line" x1="20" x2="980" y1="363.2" y2="363.2"/><g class="ticks"><g class="tick" transform="translate(20 363.2)"><line x1="0" x2="0" y1="0" y2="5"/><g transform="translate(0 6)"><text class="lab">0</text></g></g><g class="tick" transform="translate(980 363.2)"><line x1="0" x2="0" y1="0" y2="5"/><g transform="translate(0 6)"><text class="lab">1000</text></g></g></g><g class="site s0" transform="translate(189.92 363.2)"><line class="sym" x1="0" x2="0" y1="0" y2="-10"/><g class="mut m0"><polyline class="sym" points="2.5,-6.5 0,-1.5 -2.5,-6.5"/></g></g><g class="site s1" transform="translate(193.76 363.2)"><line class="sym" x1="0" x2="0" y1="0" y2="-10"/><g class="mut m1"><polyline class="sym" points="2.5,-6.5 0,-1.5 -2.5,-6.5"/></g></g><g class="site s2" transform="translate(236.96 363.2)"><line class="sym" x1="0" x2="0" y1="0" y2="-10"/><g class="mut m2"><polyline class="sym" points="2.5,-6.5 0,-1.5 -2.5,-6.5"/></g></g><g class="site s3" transform="translate(282.08 363.2)"><line class="sym" x1="0" x2="0" y1="0" y2="-10"/><g class="mut m3"><polyline class="sym" points="2.5,-6.5 0,-1.5 -2.5,-6.5"/></g></g><g class="site s4" transform="translate(336.8 363.2)"><line class="sym" x1="0" x2="0" y1="0" y2="-10"/><g class="mut m4"><polyline class="sym" points="2.5,-6.5 0,-1.5 -2.5,-6.5"/></g></g><g class="site s5" transform="translate(435.68 363.2)"><line class="sym" x1="0" x2="0" y1="0" y2="-10"/><g class="mut m5"><polyline class="sym" points="2.5,-6.5 0,-1.5 -2.5,-6.5"/></g></g><g class="site s6" transform="translate(500.96 363.2)"><line class="sym" x1="0" x2="0" y1="0" y2="-10"/><g class="mut m6"><polyline class="sym" points="2.5,-6.5 0,-1.5 -2.5,-6.5"/></g></g><g class="site s7" transform="translate(675.68 363.2)"><line class="sym" x1="0" x2="0" y1="0" y2="-10"/><g class="mut m7"><polyline class="sym" points="2.5,-6.5 0,-1.5 -2.5,-6.5"/></g></g><g class="site s8" transform="translate(734.24 363.2)"><line class="sym" x1="0" x2="0" y1="0" y2="-10"/><g class="mut m8"><polyline class="sym" points="2.5,-6.5 0,-1.5 -2.5,-6.5"/></g></g><g class="site s9" transform="translate(893.6 363.2)"><line class="sym" x1="0" x2="0" y1="0" y2="-10"/><g class="mut m9"><polyline class="sym" points="2.5,-6.5 0,-1.5 -2.5,-6.5"/></g></g></g></g><g class="plotbox trees"><g class="tree t0" transform="translate(20 0)"><g class="plotbox"><g class="c2 node n38 p0 root" transform="translate(576.312 26.8)"><g class="a38 c2 m2 m9 node n32 p2 s2 s9" transform="translate(225.688 275.775)"><g class="a32 c2 node n23 p2" transform="translate(-80.5 16.1978)"><g class="a23 i3 leaf node n3 p1 sample" transform="translate(-34.5 2.62771)"><path class="edge" d="M 0 0 V -2.62771 H 34.5"/><rect class="sym" height="6" width="6" x="-3" y="-3"/><text class="lab" transform="translate(0 11)">3</text></g><g class="a23 c2 node n21 p1" transform="translate(34.5 0.978326)"><g class="a21 i11 leaf m6 node n11 p2 s6 sample" transform="translate(-23 1.64938)"><path class="edge" d="M 0 0 V -1.64938 H 23"/><g class="mut m6 s6" transform="translate(0 -0.54535)"><line x1="0" x2="0" y1="0" y2="0.54535"/><path class="sym" d="M -3,-3 l 6,6 M -3,3 l 6,-6"/><text class="lab lft" transform="translate(-5 0)">6</text></g><rect class="sym" height="6" width="6" x="-3" y="-3"/><text class="lab" transform="translate(0 11)">11</text></g><g class="a21 i13 leaf node n13 p2 sample" transform="translate(23 1.64938)"><path class="edge" d="M 0 0 V -1.64938 H -23"/><rect class="sym" height="6" width="6" x="-3" y="-3"/><text class="lab" transform="translate(0 11)">13</text></g><path class="edge" d="M 0 0 V -0.978326 H -34.5"/><circle class="sym" cx="0" cy="0" r="3"/><text class="lab rgt" transform="translate(3 -7)">21</text></g><path class="edge" d="M 0 0 V -16.1978 H 80.5"/><circle class="sym" cx="0" cy="0" r="3"/><text class="lab lft" transform="translate(-3 -7)">23</text></g><g class="a32 c2 node n24 p2" transform="translate(80.5 15.7888)"><g class="a24 i16 leaf node n16 p2 sample" transform="translate(34.5 3.03672)"><path class="edge" d="M 0 0 V -3.03672 H -34.5"/><rect class="sym" height="6" width="6" x="-3" y="-3"/><text class="lab" transform="translate(0 11)">16</text></g><g class="a24 c2 node n20 p2" transform="translate(-34.5 2.43682)"><g class="a20 i10 leaf node n10 p2 sample" transform="translate(-23 0.599898)"><path class="edge" d="M 0 0 V -0.599898 H 23"/><rect class="sym" height="6" width="6" x="-3" y="-3"/><text class="lab" transform="translate(0 11)">10</text></g><g class="a20 i17 leaf node n17 p2 sample" transform="translate(23 0.599898)"><path class="edge" d="M 0 0 V -0.599898 H -23"/><rect class="sym" height="6" width="6" x="-3" y="-3"/><text class="lab" transform="translate(0 11)">17</text></g><path class="edge" d="M 0 0 V -2.43682 H 34.5"/><circle class="sym" cx="0" cy="0" r="3"/><text class="lab lft" transform="translate(-3 -7)">20</text></g><path class="edge" d="M 0 0 V -15.7888 H -80.5"/><circle class="sym" cx="0" cy="0" r="3"/><text class="lab rgt" transform="translate(3 -7)">24</text></g><path class="edge" d="M 0 0 V -275.775 H -225.688"/><g class="mut m2 s2" transform="translate(0 -142.712)"><line x1="0" x2="0" y1="0" y2="142.712"/><path class="sym" d="M -3,-3 l 6,6 M -3,3 l 6,-6"/><text class="lab rgt" transform="translate(5 0)">2</text></g><g class="mut m9 s9" transform="translate(0 -23.3471)"><line x1="0" x2="0" y1="0" y2="23.3471"/><path class="sym" d="M -3,-3 l 6,6 M -3,3 l 6,-6"/><text class="lab rgt" transform="translate(5 0)">9</text></g><circle class="sym" cx="0" cy="0" r="3"/><text class="lab rgt" transform="translate(3 -7)">32</text></g><g class="a38 c2 m4 node n37 p2 s4" transform="translate(-225.688 197.146)"><g class="a37 c2 m0 node n35 p1 s0" transform="translate(-166.75 58.4774)"><g class="a35 i6 leaf node n6 p1 sample" transform="translate(43.125 38.9766)"><path class="edge" d="M 0 0 V -38.9766 H -43.125"/><rect class="sym" height="6" width="6" x="-3" y="-3"/><text class="lab" transform="translate(0 11)">6</text></g><g class="a35 c2 m1 node n34 p2 s1" transform="translate(-43.125 0.56431)"><g class="a34 i19 leaf m5 m8 node n19 p2 s5 s8 sample" transform="translate(40.25 38.4123)"><path class="edge" d="M 0 0 V -38.4123 H -40.25"/><g class="mut m5 s5" transform="translate(0 -29.3477)"><line x1="0" x2="0" y1="0" y2="29.3477"/><path class="sym" d="M -3,-3 l 6,6 M -3,3 l 6,-6"/><text class="lab rgt" transform="translate(5 0)">5</text></g><g class="mut m8 s8" transform="translate(0 -22.4575)"><line x1="0" x2="0" y1="0" y2="22.4575"/><path class="sym" d="M -3,-3 l 6,6 M -3,3 l 6,-6"/><text class="lab rgt" transform="translate(5 0)">8</text></g><rect class="sym" height="6" width="6" x="-3" y="-3"/><text class="lab" transform="translate(0 11)">19</text></g><g class="a34 c2 node n33 p1" transform="translate(-40.25 3.70329)"><g class="a33 i8 leaf node n8 p1 sample" transform="translate(34.5 34.709)"><path class="edge" d="M 0 0 V -34.709 H -34.5"/><rect class="sym" height="6" width="6" x="-3" y="-3"/><text class="lab" transform="translate(0 11)">8</text></g><g class="a33 c2 m3 node n29 p1 s3" transform="translate(-34.5 26.9867)"><g class="a29 i0 leaf node n0 p1 sample" transform="translate(-23 7.72228)"><path class="edge" d="M 0 0 V -7.72228 H 23"/><rect class="sym" height="6" width="6" x="-3" y="-3"/><text class="lab" transform="translate(0 11)">0</text></g><g class="a29 i18 leaf node n18 p2 sample" transform="translate(23 7.72228)"><path class="edge" d="M 0 0 V -7.72228 H -23"/><rect class="sym" height="6" width="6" x="-3" y="-3"/><text class="lab" transform="translate(0 11)">18</text></g><path class="edge" d="M 0 0 V -26.9867 H 34.5"/><g class="mut m3 s3" transform="translate(0 -16.7287)"><line x1="0" x2="0" y1="0" y2="16.7287"/><path class="sym" d="M -3,-3 l 6,6 M -3,3 l 6,-6"/><text class="lab lft" transform="translate(-5 0)">3</text></g><circle class="sym" cx="0" cy="0" r="3"/><text class="lab lft" transform="translate(-3 -7)">29</text></g><path class="edge" d="M 0 0 V -3.70329 H 40.25"/><circle class="sym" cx="0" cy="0" r="3"/><text class="lab lft" transform="translate(-3 -7)">33</text></g><path class="edge" d="M 0 0 V -0.56431 H 43.125"/><g class="mut m1 s1" transform="translate(0 -0.372853)"><line x1="0" x2="0" y1="0" y2="0.372853"/><path class="sym" d="M -3,-3 l 6,6 M -3,3 l 6,-6"/><text class="lab lft" transform="translate(-5 0)">1</text></g><circle class="sym" cx="0" cy="0" r="3"/><text class="lab lft" transform="translate(-3 -7)">34</text></g><path class="edge" d="M 0 0 V -58.4774 H 166.75"/><g class="mut m0 s0" transform="translate(0 -19.1822)"><line x1="0" x2="0" y1="0" y2="19.1822"/><path class="sym" d="M -3,-3 l 6,6 M -3,3 l 6,-6"/><text class="lab lft" transform="translate(-5 0)">0</text></g><circle class="sym" cx="0" cy="0" r="3"/><text class="lab lft" transform="translate(-3 -7)">35</text></g><g class="a37 c2 node n36 p1" transform="translate(166.75 36.9776)"><g class="a36 c2 node n30 p1" transform="translate(-100.625 50.7113)"><g class="a30 c2 node n26 p1" transform="translate(74.75 5.23377)"><g class="a26 i5 leaf node n5 p1 sample" transform="translate(-34.5 4.53138)"><path class="edge" d="M 0 0 V -4.53138 H 34.5"/><rect class="sym" height="6" width="6" x="-3" y="-3"/><text class="lab" transform="translate(0 11)">5</text></g><g class="a26 c2 node n25 p2" transform="translate(34.5 1.14339)"><g class="a25 i12 leaf node n12 p2 sample" transform="translate(-23 3.38799)"><path class="edge" d="M 0 0 V -3.38799 H 23"/><rect class="sym" height="6" width="6" x="-3" y="-3"/><text class="lab" transform="translate(0 11)">12</text></g><g class="a25 i14 leaf node n14 p2 sample" transform="translate(23 3.38799)"><path class="edge" d="M 0 0 V -3.38799 H -23"/><rect class="sym" height="6" width="6" x="-3" y="-3"/><text class="lab" transform="translate(0 11)">14</text></g><path class="edge" d="M 0 0 V -1.14339 H -34.5"/><circle class="sym" cx="0" cy="0" r="3"/><text class="lab rgt" transform="translate(3 -7)">25</text></g><path class="edge" d="M 0 0 V -5.23377 H -74.75"/><circle class="sym" cx="0" cy="0" r="3"/><text class="lab rgt" transform="translate(3 -7)">26</text></g><g class="a30 c2 node n28 p1" transform="translate(-74.75 2.68972)"><g class="a28 c2 node n22 p1" transform="translate(46 5.36322)"><g class="a22 i4 leaf node n4 p1 sample" transform="translate(-23 1.71222)"><path class="edge" d="M 0 0 V -1.71222 H 23"/><rect class="sym" height="6" width="6" x="-3" y="-3"/><text class="lab" transform="translate(0 11)">4</text></g><g class="a22 i9 leaf node n9 p1 sample" transform="translate(23 1.71222)"><path class="edge" d="M 0 0 V -1.71222 H -23"/><rect class="sym" height="6" width="6" x="-3" y="-3"/><text class="lab" transform="translate(0 11)">9</text></g><path class="edge" d="M 0 0 V -5.36322 H -46"/><circle class="sym" cx="0" cy="0" r="3"/><text class="lab rgt" transform="translate(3 -7)">22</text></g><g class="a28 c2 node n27 p2" transform="translate(-46 2.20718)"><g class="a27 i1 leaf m7 node n1 p1 s7 sample" transform="translate(-23 4.86825)"><path class="edge" d="M 0 0 V -4.86825 H 23"/><g class="mut m7 s7" transform="translate(0 -3.36497)"><line x1="0" x2="0" y1="0" y2="3.36497"/><path class="sym" d="M -3,-3 l 6,6 M -3,3 l 6,-6"/><text class="lab lft" transform="translate(-5 0)">7</text></g><rect class="sym" height="6" width="6" x="-3" y="-3"/><text class="lab" transform="translate(0 11)">1</text></g><g class="a27 i2 leaf node n2 p1 sample" transform="translate(23 4.86825)"><path class="edge" d="M 0 0 V -4.86825 H -23"/><rect class="sym" height="6" width="6" x="-3" y="-3"/><text class="lab" transform="translate(0 11)">2</text></g><path class="edge" d="M 0 0 V -2.20718 H 46"/><circle class="sym" cx="0" cy="0" r="3"/><text class="lab lft" transform="translate(-3 -7)">27</text></g><path class="edge" d="M 0 0 V -2.68972 H 74.75"/><circle class="sym" cx="0" cy="0" r="3"/><text class="lab lft" transform="translate(-3 -7)">28</text></g><path class="edge" d="M 0 0 V -50.7113 H 100.625"/><circle class="sym" cx="0" cy="0" r="3"/><text class="lab lft" transform="translate(-3 -7)">30</text></g><g class="a36 c2 node n31 p1" transform="translate(100.625 45.1108)"><g class="a31 i7 leaf node n7 p1 sample" transform="translate(-23 15.3656)"><path class="edge" d="M 0 0 V -15.3656 H 23"/><rect class="sym" height="6" width="6" x="-3" y="-3"/><text class="lab" transform="translate(0 11)">7</text></g><g class="a31 i15 leaf node n15 p2 sample" transform="translate(23 15.3656)"><path class="edge" d="M 0 0 V -15.3656 H -23"/><rect class="sym" height="6" width="6" x="-3" y="-3"/><text class="lab" transform="translate(0 11)">15</text></g><path class="edge" d="M 0 0 V -45.1108 H -100.625"/><circle class="sym" cx="0" cy="0" r="3"/><text class="lab rgt" transform="translate(3 -7)">31</text></g><path class="edge" d="M 0 0 V -36.9776 H -166.75"/><circle class="sym" cx="0" cy="0" r="3"/><text class="lab rgt" transform="translate(3 -7)">36</text></g><path class="edge" d="M 0 0 V -197.146 H 225.688"/><g class="mut m4 s4" transform="translate(0 -96.898)"><line x1="0" x2="0" y1="0" y2="96.898"/><path class="sym" d="M -3,-3 l 6,6 M -3,3 l 6,-6"/><text class="lab lft" transform="translate(-5 0)">4</text></g><circle class="sym" cx="0" cy="0" r="3"/><text class="lab lft" transform="translate(-3 -7)">37</text></g><circle class="sym" cx="0" cy="0" r="3"/><text class="lab" transform="translate(0 -11)">38</text></g></g></g></g></g></svg>