<svg baseProfile="full" height="400" version="1.1" width="1000" xmlns="http://www.w3.org/2000/svg" xmlns:ev="http://www.w3.org/2001/xml-events" xmlns:xlink="http://www.w3.org/1999/xlink"><defs><style type="text/css"><![CDATA[.background path {fill: #808080; fill-opacity: 0}.background path:nth-child(odd) {fill-opacity: .1}.x-regions rect {fill: yellow; stroke: black; opacity: 0.5}.axes {font-size: 14px}.x-axis .tick .lab {font-weight: bold; dominant-baseline: hanging}.axes, .tree {font-size: 14px; text-anchor: middle}.axes line, .edge {stroke: black; fill: none}.axes .ax-skip {stroke-dasharray: 4}.y-axis .grid {stroke: #FAFAFA}.node > .sym {fill: black; stroke: none}.site > .sym {stroke: black}.mut text {fill: red; font-style: italic}.mut.extra text {fill: hotpink}.mut line {fill: none; stroke: none}.mut .sym {fill: none; stroke: red}.mut.extra .sym {stroke: hotpink}.node .mut .sym {stroke-width: 1.5px}.tree text, .tree-sequence text {dominant-baseline: central}.plotbox .lab.lft {text-anchor: end}.plotbox .lab.rgt {text-anchor: start}.polytomy line {stroke: black; stroke-dasharray: 1px, 1px}.polytomy text {paint-order:stroke;stroke-width:0.3em;stroke:white}]]></style></defs><g class="tree-sequence"><g class="background"><path d="M20,0 l960,0 l0,338.2 l0,25 l0,5 l-960,0 l0,-5 l0,-25 l0,-338.2z"/></g><g class="axes"><g class="x-axis"><g class="title" transform="translate(500 400)"><text class="lab" text-anchor="middle" transform="translate(0 -11)">Genome position</text></g><line class="ax-line" x1="20" x2="980" y1="363.2" y2="363.2"/><g class="ticks"><g class="tick" transform="translate(20 363.2)"><line x1="0" x2="0" y1="0" y2="5"/><g transform="translate(0 6)"><text class="lab">0</text></g></g><g class="tick" transform="translate(980 363.2)"><line x1="0" x2="0" y1="0" y2="5"/><g transform="translate(0 6)"><text class="lab">1000</text></g></g></g><g class="site s0" transform="translate(128.48 363.2)"><line class="sym" x1="0" x2="0" y1="0" y2="-10"/><g class="mut m0"><polyline class="sym" points="2.5,-6.5 0,-1.5 -2.5,-6.5"/></g></g><g class="site s1" transform="translate(263.84 363.2)"><line class="sym" x1="0" x2="0" y1="0" y2="-10"/><g class="mut m1"><polyline class="sym" points="2.5,-6.5 0,-1.5 -2.5,-6.5"/></g></g><g class="site s2" transform="translate(290.72 363.2)"><line class="sym" x1="0" x2="0" y1="0" y2="-10"/><g class="mut m2"><polyline class="sym" points="2.5,-6.5 0,-1.5 -2.5,-6.5"/></g></g><g class="site s3" transform="translate(311.84 363.2)"><line class="sym" x1="0" x2="0" y1="0" y2="-10"/><g class="mut m3"><polyline class="sym" points="2.5,-6.5 0,-1.5 -2.5,-6.5"/></g></g><g class="site s4" transform="translate(397.28 363.2)"><line class="sym" x1="0" x2="0" y1="0" y2="-10"/><g class="mut m4"><polyline class="sym" points="2.5,-6.5 0,-1.5 -2.5,-6.5"/></g></g><g class="site s5" transform="translate(407.84 363.2)"><line class="sym" x1="0" x2="0" y1="0" y2="-10"/><g class="mut m5"><polyline class="sym" points="2.5,-6.5 0,-1.5 -2.5,-6.5"/></g></g><g class="site s6" transform="translate(597.92 363.2)"><line class="sym" x1="0" x2="0" y1="0" y2="-10"/><g class="mut m6"><polyline class="sym" points="2.5,-6.5 0,-1.5 -2.5,-6.5"/></g></g><g class="site s7" transform="translate(653.6 363.2)"><line class="sym" x1="0" x2="0" y1="0" y2="-10"/><g class="mut m7"><polyline class="sym" points="2.5,-6.5 0,-1.5 -2.5,-6.5"/></g></g><g class="site s8" transform="translate(823.52 363.2)"><line class="sym" x1="0" x2="0" y1="0" y2="-10"/><g class="mut m8"><polyline class="sym" points="2.5,-6.5 0,-1.5 -2.5,-6.5"/></g></g></g></g><g class="plotbox trees"><g class="tree t0" transform="translate(20 0)"><g class="plotbox"><g class="c2 node n38 p1 root" transform="translate(671.906 26.8)"><g class="a38 c2 m0 m5 m6 m7 node n28 p2 s0 s5 s6 s7" transform="translate(170.344 290.609)"><g class="a28 c2 node n21 p2" transform="translate(51.75 2.96347)"><g class="a21 i13 leaf node n13 p2 sample" transform="translate(-23 1.02801)"><path class="edge" d="M 0 0 V -1.02801 H 23"/><rect class="sym" height="6" width="6" x="-3" y="-3"/><text class="lab" transform="translate(0 11)">13</text></g><g class="a21 i16 leaf node n16 p2 sample" transform="translate(23 1.02801)"><path class="edge" d="M 0 0 V -1.02801 H -23"/><rect class="sym" height="6" width="6" x="-3" y="-3"/><text class="lab" transform="translate(0 11)">16</text></g><path class="edge" d="M 0 0 V -2.96347 H -51.75"/><circle class="sym" cx="0" cy="0" r="3"/><text class="lab rgt" transform="translate(3 -7)">21</text></g><g class="a28 c2 node n27 p2" transform="translate(-51.75 0.265093)"><g class="a27 i19 leaf node n19 p2 sample" transform="translate(34.5 3.72639)"><path class="edge" d="M 0 0 V -3.72639 H -34.5"/><rect class="sym" height="6" width="6" x="-3" y="-3"/><text class="lab" transform="translate(0 11)">19</text></g><g class="a27 c2 node n20 p2" transform="translate(-34.5 3.51489)"><g class="a20 i11 leaf node n11 p2 sample" transform="translate(-23 0.211507)"><path class="edge" d="M 0 0 V -0.211507 H 23"/><rect class="sym" height="6" width="6" x="-3" y="-3"/><text class="lab" transform="translate(0 11)">11</text></g><g class="a20 i18 leaf node n18 p2 sample" transform="translate(23 0.211507)"><path class="edge" d="M 0 0 V -0.211507 H -23"/><rect class="sym" height="6" width="6" x="-3" y="-3"/><text class="lab" transform="translate(0 11)">18</text></g><path class="edge" d="M 0 0 V -3.51489 H 34.5"/><circle class="sym" cx="0" cy="0" r="3"/><text class="lab lft" transform="translate(-3 -7)">20</text></g><path class="edge" d="M 0 0 V -0.265093 H 51.75"/><circle class="sym" cx="0" cy="0" r="3"/><text class="lab lft" transform="translate(-3 -7)">27</text></g><path class="edge" d="M 0 0 V -290.609 H -170.344"/><g class="mut m5 s5" transform="translate(0 -274.858)"><line x1="0" x2="0" y1="0" y2="274.858"/><path class="sym" d="M -3,-3 l 6,6 M -3,3 l 6,-6"/><text class="lab rgt" transform="translate(5 0)">5</text></g><g class="mut m6 s6" transform="translate(0 -226.759)"><line x1="0" x2="0" y1="0" y2="226.759"/><path class="sym" d="M -3,-3 l 6,6 M -3,3 l 6,-6"/><text class="lab rgt" transform="translate(5 0)">6</text></g><g class="mut m0 s0" transform="translate(0 -205.538)"><line x1="0" x2="0" y1="0" y2="205.538"/><path class="sym" d="M -3,-3 l 6,6 M -3,3 l 6,-6"/><text class="lab rgt" transform="translate(5 0)">0</text></g><g class="mut m7 s7" transform="translate(0 -198.072)"><line x1="0" x2="0" y1="0" y2="198.072"/><path class="sym" d="M -3,-3 l 6,6 M -3,3 l 6,-6"/><text class="lab rgt" transform="translate(5 0)">7</text></g><circle class="sym" cx="0" cy="0" r="3"/><text class="lab rgt" transform="translate(3 -7)">28</text></g><g class="a38 c2 m3 m8 node n37 p1 s3 s8" transform="translate(-170.344 245.803)"><g class="a37 c2 m1 node n35 p2 s1" transform="translate(110.688 26.0897)"><g class="a35 c2 node n31 p2" transform="translate(51.75 15.1143)"><g class="a31 i14 leaf node n14 p2 sample" transform="translate(-23 7.59283)"><path class="edge" d="M 0 0 V -7.59283 H 23"/><rect class="sym" height="6" width="6" x="-3" y="-3"/><text class="lab" transform="translate(0 11)">14</text></g><g class="a31 i15 leaf node n15 p2 sample" transform="translate(23 7.59283)"><path class="edge" d="M 0 0 V -7.59283 H -23"/><rect class="sym" height="6" width="6" x="-3" y="-3"/><text class="lab" transform="translate(0 11)">15</text></g><path class="edge" d="M 0 0 V -15.1143 H -51.75"/><circle class="sym" cx="0" cy="0" r="3"/><text class="lab rgt" transform="translate(3 -7)">31</text></g><g class="a35 c2 node n33 p2" transform="translate(-51.75 8.40049)"><g class="a33 i12 leaf m4 node n12 p2 s4 sample" transform="translate(34.5 14.3067)"><path class="edge" d="M 0 0 V -14.3067 H -34.5"/><g class="mut m4 s4" transform="translate(0 -10.2263)"><line x1="0" x2="0" y1="0" y2="10.2263"/><path class="sym" d="M -3,-3 l 6,6 M -3,3 l 6,-6"/><text class="lab rgt" transform="translate(5 0)">4</text></g><rect class="sym" height="6" width="6" x="-3" y="-3"/><text class="lab" transform="translate(0 11)">12</text></g><g class="a33 c2 node n30 p2" transform="translate(-34.5 8.83957)"><g class="a30 i10 leaf node n10 p2 sample" transform="translate(-23 5.4671)"><path class="edge" d="M 0 0 V -5.4671 H 23"/><rect class="sym" height="6" width="6" x="-3" y="-3"/><text class="lab" transform="translate(0 11)">10</text></g><g class="a30 i17 leaf node n17 p2 sample" transform="translate(23 5.4671)"><path class="edge" d="M 0 0 V -5.4671 H -23"/><rect class="sym" height="6" width="6" x="-3" y="-3"/><text class="lab" transform="translate(0 11)">17</text></g><path class="edge" d="M 0 0 V -8.83957 H 34.5"/><circle class="sym" cx="0" cy="0" r="3"/><text class="lab lft" transform="translate(-3 -7)">30</text></g><path class="edge" d="M 0 0 V -8.40049 H 51.75"/><circle class="sym" cx="0" cy="0" r="3"/><text class="lab lft" transform="translate(-3 -7)">33</text></g><path class="edge" d="M 0 0 V -26.0897 H -110.688"/><g class="mut m1 s1" transform="translate(0 -16.35)"><line x1="0" x2="0" y1="0" y2="16.35"/><path class="sym" d="M -3,-3 l 6,6 M -3,3 l 6,-6"/><text class="lab rgt" transform="translate(5 0)">1</text></g><circle class="sym" cx="0" cy="0" r="3"/><text class="lab rgt" transform="translate(3 -7)">35</text></g><g class="a37 c2 node n36 p1" transform="translate(-110.688 7.4882)"><g class="a36 i2 leaf m2 node n2 p1 s2 sample" transform="translate(66.125 41.3086)"><path class="edge" d="M 0 0 V -41.3086 H -66.125"/><g class="mut m2 s2" transform="translate(0 -11.1242)"><line x1="0" x2="0" y1="0" y2="11.1242"/><path class="sym" d="M -3,-3 l 6,6 M -3,3 l 6,-6"/><text class="lab rgt" transform="translate(5 0)">2</text></g><rect class="sym" height="6" width="6" x="-3" y="-3"/><text class="lab" transform="translate(0 11)">2</text></g><g class="a36 c2 node n34 p1" transform="translate(-66.125 20.4426)"><g class="a34 i7 leaf node n7 p1 sample" transform="translate(86.25 20.866)"><path class="edge" d="M 0 0 V -20.866 H -86.25"/><rect class="sym" height="6" width="6" x="-3" y="-3"/><text class="lab" transform="translate(0 11)">7</text></g><g class="a34 c2 node n32 p1" transform="translate(-86.25 13.0934)"><g class="a32 c2 node n26 p1" transform="translate(-69 4.19856)"><g class="a26 i8 leaf node n8 p1 sample" transform="translate(57.5 3.57403)"><path class="edge" d="M 0 0 V -3.57403 H -57.5"/><rect class="sym" height="6" width="6" x="-3" y="-3"/><text class="lab" transform="translate(0 11)">8</text></g><g class="a26 c2 node n25 p1" transform="translate(-57.5 0.193966)"><g class="a25 c2 node n22 p1" transform="translate(-46 1.53626)"><g class="a22 i0 leaf node n0 p1 sample" transform="translate(-23 1.8438)"><path class="edge" d="M 0 0 V -1.8438 H 23"/><rect class="sym" height="6" width="6" x="-3" y="-3"/><text class="lab" transform="translate(0 11)">0</text></g><g class="a22 i5 leaf node n5 p1 sample" transform="translate(23 1.8438)"><path class="edge" d="M 0 0 V -1.8438 H -23"/><rect class="sym" height="6" width="6" x="-3" y="-3"/><text class="lab" transform="translate(0 11)">5</text></g><path class="edge" d="M 0 0 V -1.53626 H 46"/><circle class="sym" cx="0" cy="0" r="3"/><text class="lab lft" transform="translate(-3 -7)">22</text></g><g class="a25 c2 node n24 p1" transform="translate(46 0.164347)"><g class="a24 i4 leaf node n4 p1 sample" transform="translate(-23 3.21572)"><path class="edge" d="M 0 0 V -3.21572 H 23"/><rect class="sym" height="6" width="6" x="-3" y="-3"/><text class="lab" transform="translate(0 11)">4</text></g><g class="a24 i6 leaf node n6 p1 sample" transform="translate(23 3.21572)"><path class="edge" d="M 0 0 V -3.21572 H -23"/><rect class="sym" height="6" width="6" x="-3" y="-3"/><text class="lab" transform="translate(0 11)">6</text></g><path class="edge" d="M 0 0 V -0.164347 H -46"/><circle class="sym" cx="0" cy="0" r="3"/><text class="lab rgt" transform="translate(3 -7)">24</text></g><path class="edge" d="M 0 0 V -0.193966 H 57.5"/><circle class="sym" cx="0" cy="0" r="3"/><text class="lab lft" transform="translate(-3 -7)">25</text></g><path class="edge" d="M 0 0 V -4.19856 H 69"/><circle class="sym" cx="0" cy="0" r="3"/><text class="lab lft" transform="translate(-3 -7)">26</text></g><g class="a32 c2 node n29 p1" transform="translate(69 2.67134)"><g class="a29 i1 leaf node n1 p1 sample" transform="translate(-34.5 5.10125)"><path class="edge" d="M 0 0 V -5.10125 H 34.5"/><rect class="sym" height="6" width="6" x="-3" y="-3"/><text class="lab" transform="translate(0 11)">1</text></g><g class="a29 c2 node n23 p1" transform="translate(34.5 2.0475)"><g class="a23 i3 leaf node n3 p1 sample" transform="translate(-23 3.05375)"><path class="edge" d="M 0 0 V -3.05375 H 23"/><rect class="sym" height="6" width="6" x="-3" y="-3"/><text class="lab" transform="translate(0 11)">3</text></g><g class="a23 i9 leaf node n9 p1 sample" transform="translate(23 3.05375)"><path class="edge" d="M 0 0 V -3.05375 H -23"/><rect class="sym" height="6" width="6" x="-3" y="-3"/><text class="lab" transform="translate(0 11)">9</text></g><path class="edge" d="M 0 0 V -2.0475 H -34.5"/><circle class="sym" cx="0" cy="0" r="3"/><text class="lab rgt" transform="translate(3 -7)">23</text></g><path class="edge" d="M 0 0 V -2.67134 H -69"/><circle class="sym" cx="0" cy="0" r="3"/><text class="lab rgt" transform="translate(3 -7)">29</text></g><path class="edge" d="M 0 0 V -13.0934 H 86.25"/><circle class="sym" cx="0" cy="0" r="3"/><text class="lab lft" transform="translate(-3 -7)">32</text></g><path class="edge" d="M 0 0 V -20.4426 H 66.125"/><circle class="sym" cx="0" cy="0" r="3"/><text class="lab lft" transform="translate(-3 -7)">34</text></g><path class="edge" d="M 0 0 V -7.4882 H 110.688"/><circle class="sym" cx="0" cy="0" r="3"/><text class="lab lft" transform="translate(-3 -7)">36</text></g><path class="edge" d="M 0 0 V -245.803 H 170.344"/><g class="mut m3 s3" transform="translate(0 -224.051)"><line x1="0" x2="0" y1="0" y2="224.051"/><path class="sym" d="M -3,-3 l 6,6 M -3,3 l 6,-6"/><text class="lab lft" transform="translate(-5 0)">3</text></g><g class="mut m8 s8" transform="translate(0 -179.267)"><line x1="0" x2="0" y1="0" y2="179.267"/><path class="sym" d="M -3,-3 l 6,6 M -3,3 l 6,-6"/><text class="lab lft" transform="translate(-5 0)">8</text></g><circle class="sym" cx="0" cy="0" r="3"/><text class="lab lft" transform="translate(-3 -7)">37</text></g><circle class="sym" cx="0" cy="0" r="3"/><text class="lab" transform="translate(0 -11)">38</text></g></g></g></g></g></svg>