<svg baseProfile="full" height="400" version="1.1" width="1000" xmlns="http://www.w3.org/2000/svg" xmlns:ev="http://www.w3.org/2001/xml-events" xmlns:xlink="http://www.w3.org/1999/xlink"><defs><style type="text/css"><![CDATA[.background path {fill: #808080; fill-opacity: 0}.background path:nth-child(odd) {fill-opacity: .1}.x-regions rect {fill: yellow; stroke: black; opacity: 0.5}.axes {font-size: 14px}.x-axis .tick .lab {font-weight: bold; dominant-baseline: hanging}.axes, .tree {font-size: 14px; text-anchor: middle}.axes line, .edge {stroke: black; fill: none}.axes .ax-skip {stroke-dasharray: 4}.y-axis .grid {stroke: #FAFAFA}.node > .sym {fill: black; stroke: none}.site > .sym {stroke: black}.mut text {fill: red; font-style: italic}.mut.extra text {fill: hotpink}.mut line {fill: none; stroke: none}.mut .sym {fill: none; stroke: red}.mut.extra .sym {stroke: hotpink}.node .mut .sym {stroke-width: 1.5px}.tree text, .tree-sequence text {dominant-baseline: central}.plotbox .lab.lft {text-anchor: end}.plotbox .lab.rgt {text-anchor: start}.polytomy line {stroke: black; stroke-dasharray: 1px, 1px}.polytomy text {paint-order:stroke;stroke-width:0.3em;stroke:white}]]></style></defs><g class="tree-sequence"><g class="background"><path d="M20,0 l960,0 l0,338.2 l0,25 l0,5 l-960,0 l0,-5 l0,-25 l0,-338.2z"/></g><g class="axes"><g class="x-axis"><g class="title" transform="translate(500 400)"><text class="lab" text-anchor="middle" transform="translate(0 -11)">Genome position</text></g><line class="ax-line" x1="20" x2="980" y1="363.2" y2="363.2"/><g class="ticks"><g class="tick" transform="translate(20 363.2)"><line x1="0" x2="0" y1="0" y2="5"/><g transform="translate(0 6)"><text class="lab">0</text></g></g><g class="tick" transform="translate(980 363.2)"><line x1="0" x2="0" y1="0" y2="5"/><g transform="translate(0 6)"><text class="lab">1000</text></g></g></g><g class="site s0" transform="translate(442.4 363.2)"><line class="sym" x1="0" x2="0" y1="0" y2="-10"/><g class="mut m0"><polyline class="sym" points="2.5,-6.5 0,-1.5 -2.5,-6.5"/></g></g><g class="site s1" transform="translate(638.24 363.2)"><line class="sym" x1="0" x2="0" y1="0" y2="-10"/><g class="mut m1"><polyline class="sym" points="2.5,-6.5 0,-1.5 -2.5,-6.5"/></g></g></g></g><g class="plotbox trees"><g class="tree t0" transform="translate(20 0)"><g class="plotbox"><g class="c2 node n38 p0 root" transform="translate(503.898 26.8)"><g class="a38 c2 node n36 p0" transform="translate(291.273 165.95)"><g class="a36 c2 node n23 p1" transform="translate(98.8281 124.585)"><g class="a23 i14 leaf node n14 p2 sample" transform="translate(-23 4.0649)"><path class="edge" d="M 0 0 V -4.0649 H 23"/><rect class="sym" height="6" width="6" x="-3" y="-3"/><text class="lab" transform="translate(0 11)">14</text></g><g class="a23 i16 leaf node n16 p2 sample" transform="translate(23 4.0649)"><path class="edge" d="M 0 0 V -4.0649 H -23"/><rect class="sym" height="6" width="6" x="-3" y="-3"/><text class="lab" transform="translate(0 11)">16</text></g><path class="edge" d="M 0 0 V -124.585 H -98.8281"/><circle class="sym" cx="0" cy="0" r="3"/><text class="lab rgt" transform="translate(3 -7)">23</text></g><g class="a36 c2 node n35 p0" transform="translate(-98.8281 9.09731)"><g class="a35 c2 m1 node n31 p2 s1" transform="translate(-94.1562 72.0773)"><g class="a31 i15 leaf node n15 p2 sample" transform="translate(84.8125 47.475)"><path class="edge" d="M 0 0 V -47.475 H -84.8125"/><rect class="sym" height="6" width="6" x="-3" y="-3"/><text class="lab" transform="translate(0 11)">15</text></g><g class="a31 c2 node n28 p2" transform="translate(-84.8125 27.9314)"><g class="a28 c2 node n25 p2" transform="translate(83.375 13.7974)"><g class="a25 i11 leaf node n11 p2 sample" transform="translate(40.25 5.7463)"><path class="edge" d="M 0 0 V -5.7463 H -40.25"/><rect class="sym" height="6" width="6" x="-3" y="-3"/><text class="lab" transform="translate(0 11)">11</text></g><g class="a25 c2 node n22 p2" transform="translate(-40.25 1.92185)"><g class="a22 i19 leaf node n19 p2 sample" transform="translate(34.5 3.82446)"><path class="edge" d="M 0 0 V -3.82446 H -34.5"/><rect class="sym" height="6" width="6" x="-3" y="-3"/><text class="lab" transform="translate(0 11)">19</text></g><g class="a22 c2 node n20 p1" transform="translate(-34.5 3.29317)"><g class="a20 i4 leaf node n4 p1 sample" transform="translate(-23 0.531284)"><path class="edge" d="M 0 0 V -0.531284 H 23"/><rect class="sym" height="6" width="6" x="-3" y="-3"/><text class="lab" transform="translate(0 11)">4</text></g><g class="a20 i10 leaf node n10 p2 sample" transform="translate(23 0.531284)"><path class="edge" d="M 0 0 V -0.531284 H -23"/><rect class="sym" height="6" width="6" x="-3" y="-3"/><text class="lab" transform="translate(0 11)">10</text></g><path class="edge" d="M 0 0 V -3.29317 H 34.5"/><circle class="sym" cx="0" cy="0" r="3"/><text class="lab lft" transform="translate(-3 -7)">20</text></g><path class="edge" d="M 0 0 V -1.92185 H 40.25"/><circle class="sym" cx="0" cy="0" r="3"/><text class="lab lft" transform="translate(-3 -7)">22</text></g><path class="edge" d="M 0 0 V -13.7974 H -83.375"/><circle class="sym" cx="0" cy="0" r="3"/><text class="lab rgt" transform="translate(3 -7)">25</text></g><g class="a28 c2 node n26 p1" transform="translate(-83.375 5.64978)"><g class="a26 i1 leaf node n1 p1 sample" transform="translate(-23 13.8939)"><path class="edge" d="M 0 0 V -13.8939 H 23"/><rect class="sym" height="6" width="6" x="-3" y="-3"/><text class="lab" transform="translate(0 11)">1</text></g><g class="a26 i2 leaf node n2 p1 sample" transform="translate(23 13.8939)"><path class="edge" d="M 0 0 V -13.8939 H -23"/><rect class="sym" height="6" width="6" x="-3" y="-3"/><text class="lab" transform="translate(0 11)">2</text></g><path class="edge" d="M 0 0 V -5.64978 H 83.375"/><circle class="sym" cx="0" cy="0" r="3"/><text class="lab lft" transform="translate(-3 -7)">26</text></g><path class="edge" d="M 0 0 V -27.9314 H 84.8125"/><circle class="sym" cx="0" cy="0" r="3"/><text class="lab lft" transform="translate(-3 -7)">28</text></g><path class="edge" d="M 0 0 V -72.0773 H 94.1562"/><g class="mut m1 s1" transform="translate(0 -68.6601)"><line x1="0" x2="0" y1="0" y2="68.6601"/><path class="sym" d="M -3,-3 l 6,6 M -3,3 l 6,-6"/><text class="lab lft" transform="translate(-5 0)">1</text></g><circle class="sym" cx="0" cy="0" r="3"/><text class="lab lft" transform="translate(-3 -7)">31</text></g><g class="a35 c2 node n33 p1" transform="translate(94.1562 47.7204)"><g class="a33 i18 leaf node n18 p2 sample" transform="translate(34.5 71.832)"><path class="edge" d="M 0 0 V -71.832 H -34.5"/><rect class="sym" height="6" width="6" x="-3" y="-3"/><text class="lab" transform="translate(0 11)">18</text></g><g class="a33 c2 node n29 p1" transform="translate(-34.5 42.7726)"><g class="a29 i7 leaf node n7 p1 sample" transform="translate(-23 29.0593)"><path class="edge" d="M 0 0 V -29.0593 H 23"/><rect class="sym" height="6" width="6" x="-3" y="-3"/><text class="lab" transform="translate(0 11)">7</text></g><g class="a29 i17 leaf node n17 p2 sample" transform="translate(23 29.0593)"><path class="edge" d="M 0 0 V -29.0593 H -23"/><rect class="sym" height="6" width="6" x="-3" y="-3"/><text class="lab" transform="translate(0 11)">17</text></g><path class="edge" d="M 0 0 V -42.7726 H 34.5"/><circle class="sym" cx="0" cy="0" r="3"/><text class="lab lft" transform="translate(-3 -7)">29</text></g><path class="edge" d="M 0 0 V -47.7204 H -94.1562"/><circle class="sym" cx="0" cy="0" r="3"/><text class="lab rgt" transform="translate(3 -7)">33</text></g><path class="edge" d="M 0 0 V -9.09731 H 98.8281"/><circle class="sym" cx="0" cy="0" r="3"/><text class="lab lft" transform="translate(-3 -7)">35</text></g><path class="edge" d="M 0 0 V -165.95 H -291.273"/><circle class="sym" cx="0" cy="0" r="3"/><text class="lab rgt" transform="translate(3 -7)">36</text></g><g class="a38 c2 node n37 p0" transform="translate(-291.273 157.744)"><g class="a37 c2 node n32 p1" transform="translate(-100.625 81.6213)"><g class="a32 c2 node n21 p1" transform="translate(-46 51.704)"><g class="a21 i0 leaf node n0 p1 sample" transform="translate(-23 3.53105)"><path class="edge" d="M 0 0 V -3.53105 H 23"/><rect class="sym" height="6" width="6" x="-3" y="-3"/><text class="lab" transform="translate(0 11)">0</text></g><g class="a21 i5 leaf node n5 p1 sample" transform="translate(23 3.53105)"><path class="edge" d="M 0 0 V -3.53105 H -23"/><rect class="sym" height="6" width="6" x="-3" y="-3"/><text class="lab" transform="translate(0 11)">5</text></g><path class="edge" d="M 0 0 V -51.704 H 46"/><circle class="sym" cx="0" cy="0" r="3"/><text class="lab lft" transform="translate(-3 -7)">21</text></g><g class="a32 c2 node n27 p1" transform="translate(46 40.6116)"><g class="a27 i3 leaf node n3 p1 sample" transform="translate(-23 14.6235)"><path class="edge" d="M 0 0 V -14.6235 H 23"/><rect class="sym" height="6" width="6" x="-3" y="-3"/><text class="lab" transform="translate(0 11)">3</text></g><g class="a27 i6 leaf node n6 p1 sample" transform="translate(23 14.6235)"><path class="edge" d="M 0 0 V -14.6235 H -23"/><rect class="sym" height="6" width="6" x="-3" y="-3"/><text class="lab" transform="translate(0 11)">6</text></g><path class="edge" d="M 0 0 V -40.6116 H -46"/><circle class="sym" cx="0" cy="0" r="3"/><text class="lab rgt" transform="translate(3 -7)">27</text></g><path class="edge" d="M 0 0 V -81.6213 H 100.625"/><circle class="sym" cx="0" cy="0" r="3"/><text class="lab lft" transform="translate(-3 -7)">32</text></g><g class="a37 c2 node n34 p1" transform="translate(100.625 49.0171)"><g class="a34 i13 leaf node n13 p2 sample" transform="translate(51.75 87.8393)"><path class="edge" d="M 0 0 V -87.8393 H -51.75"/><rect class="sym" height="6" width="6" x="-3" y="-3"/><text class="lab" transform="translate(0 11)">13</text></g><g class="a34 c2 node n30 p1" transform="translate(-51.75 57.673)"><g class="a30 i8 leaf m0 node n8 p1 s0 sample" transform="translate(-34.5 30.1663)"><path class="edge" d="M 0 0 V -30.1663 H 34.5"/><g class="mut m0 s0" transform="translate(0 -15.6674)"><line x1="0" x2="0" y1="0" y2="15.6674"/><path class="sym" d="M -3,-3 l 6,6 M -3,3 l 6,-6"/><text class="lab lft" transform="translate(-5 0)">0</text></g><rect class="sym" height="6" width="6" x="-3" y="-3"/><text class="lab" transform="translate(0 11)">8</text></g><g class="a30 c2 node n24 p1" transform="translate(34.5 25.757)"><g class="a24 i9 leaf node n9 p1 sample" transform="translate(-23 4.4093)"><path class="edge" d="M 0 0 V -4.4093 H 23"/><rect class="sym" height="6" width="6" x="-3" y="-3"/><text class="lab" transform="translate(0 11)">9</text></g><g class="a24 i12 leaf node n12 p2 sample" transform="translate(23 4.4093)"><path class="edge" d="M 0 0 V -4.4093 H -23"/><rect class="sym" height="6" width="6" x="-3" y="-3"/><text class="lab" transform="translate(0 11)">12</text></g><path class="edge" d="M 0 0 V -25.757 H -34.5"/><circle class="sym" cx="0" cy="0" r="3"/><text class="lab rgt" transform="translate(3 -7)">24</text></g><path class="edge" d="M 0 0 V -57.673 H 51.75"/><circle class="sym" cx="0" cy="0" r="3"/><text class="lab lft" transform="translate(-3 -7)">30</text></g><path class="edge" d="M 0 0 V -49.0171 H -100.625"/><circle class="sym" cx="0" cy="0" r="3"/><text class="lab rgt" transform="translate(3 -7)">34</text></g><path class="edge" d="M 0 0 V -157.744 H 291.273"/><circle class="sym" cx="0" cy="0" r="3"/><text class="lab lft" transform="translate(-3 -7)">37</text></g><circle class="sym" cx="0" cy="0" r="3"/><text class="lab" transform="translate(0 -11)">38</text></g></g></g></g></g></svg>