<svg baseProfile="full" height="400" version="1.1" width="1000" xmlns="http://www.w3.org/2000/svg" xmlns:ev="http://www.w3.org/2001/xml-events" xmlns:xlink="http://www.w3.org/1999/xlink"><defs><style type="text/css"><![CDATA[.background path {fill: #808080; fill-opacity: 0}.background path:nth-child(odd) {fill-opacity: .1}.x-regions rect {fill: yellow; stroke: black; opacity: 0.5}.axes {font-size: 14px}.x-axis .tick .lab {font-weight: bold; dominant-baseline: hanging}.axes, .tree {font-size: 14px; text-anchor: middle}.axes line, .edge {stroke: black; fill: none}.axes .ax-skip {stroke-dasharray: 4}.y-axis .grid {stroke: #FAFAFA}.node > .sym {fill: black; stroke: none}.site > .sym {stroke: black}.mut text {fill: red; font-style: italic}.mut.extra text {fill: hotpink}.mut line {fill: none; stroke: none}.mut .sym {fill: none; stroke: red}.mut.extra .sym {stroke: hotpink}.node .mut .sym {stroke-width: 1.5px}.tree text, .tree-sequence text {dominant-baseline: central}.plotbox .lab.lft {text-anchor: end}.plotbox .lab.rgt {text-anchor: start}.polytomy line {stroke: black; stroke-dasharray: 1px, 1px}.polytomy text {paint-order:stroke;stroke-width:0.3em;stroke:white}]]></style></defs><g class="tree-sequence"><g class="background"><path d="M20,0 l960,0 l0,338.2 l0,25 l0,5 l-960,0 l0,-5 l0,-25 l0,-338.2z"/></g><g class="axes"><g class="x-axis"><g class="title" transform="translate(500 400)"><text class="lab" text-anchor="middle" transform="translate(0 -11)">Genome position</text></g><line class="ax-line" x1="20" x2="980" y1="363.2" y2="363.2"/><g class="ticks"><g class="tick" transform="translate(20 363.2)"><line x1="0" x2="0" y1="0" y2="5"/><g transform="translate(0 6)"><text class="lab">0</text></g></g><g class="tick" transform="translate(980 363.2)"><line x1="0" x2="0" y1="0" y2="5"/><g transform="translate(0 6)"><text class="lab">1000</text></g></g></g><g class="site s0" transform="translate(124.64 363.2)"><line class="sym" x1="0" x2="0" y1="0" y2="-10"/><g class="mut m0"><polyline class="sym" points="2.5,-6.5 0,-1.5 -2.5,-6.5"/></g></g><g class="site s1" transform="translate(155.36 363.2)"><line class="sym" x1="0" x2="0" y1="0" y2="-10"/><g class="mut m1"><polyline class="sym" points="2.5,-6.5 0,-1.5 -2.5,-6.5"/></g></g><g class="site s2" transform="translate(197.6 363.2)"><line class="sym" x1="0" x2="0" y1="0" y2="-10"/><g class="mut m2"><polyline class="sym" points="2.5,-6.5 0,-1.5 -2.5,-6.5"/></g></g><g class="site s3" transform="translate(411.68 363.2)"><line class="sym" x1="0" x2="0" y1="0" y2="-10"/><g class="mut m3"><polyline class="sym" points="2.5,-6.5 0,-1.5 -2.5,-6.5"/></g></g><g class="site s4" transform="translate(693.92 363.2)"><line class="sym" x1="0" x2="0" y1="0" y2="-10"/><g class="mut m4"><polyline class="sym" points="2.5,-6.5 0,-1.5 -2.5,-6.5"/></g></g><g class="site s5" transform="translate(940.64 363.2)"><line class="sym" x1="0" x2="0" y1="0" y2="-10"/><g class="mut m5"><polyline class="sym" points="2.5,-6.5 0,-1.5 -2.5,-6.5"/></g></g></g></g><g class="plotbox trees"><g class="tree t0" transform="translate(20 0)"><g class="plotbox"><g class="c2 node n38 p0 root" transform="translate(633.633 26.8)"><g class="a38 c2 node n30 p2" transform="translate(260.367 256.092)"><g class="a30 i8 leaf node n8 p1 sample" transform="translate(-23 38.5076)"><path class="edge" d="M 0 0 V -38.5076 H 23"/><rect class="sym" height="6" width="6" x="-3" y="-3"/><text class="lab" transform="translate(0 11)">8</text></g><g class="a30 i13 leaf node n13 p2 sample" transform="translate(23 38.5076)"><path class="edge" d="M 0 0 V -38.5076 H -23"/><rect class="sym" height="6" width="6" x="-3" y="-3"/><text class="lab" transform="translate(0 11)">13</text></g><path class="edge" d="M 0 0 V -256.092 H -260.367"/><circle class="sym" cx="0" cy="0" r="3"/><text class="lab rgt" transform="translate(3 -7)">30</text></g><g class="a38 c2 m0 m1 m2 m4 m5 node n37 p2 s0 s1 s2 s4 s5" transform="translate(-260.367 136.449)"><g class="a37 c2 node n35 p1" transform="translate(-255.516 100.97)"><g class="a35 c2 node n32 p2" transform="translate(51.75 10.3595)"><g class="a32 i4 leaf node n4 p1 sample" transform="translate(-34.5 46.821)"><path class="edge" d="M 0 0 V -46.821 H 34.5"/><rect class="sym" height="6" width="6" x="-3" y="-3"/><text class="lab" transform="translate(0 11)">4</text></g><g class="a32 c2 node n23 p2" transform="translate(34.5 43.3957)"><g class="a23 i10 leaf node n10 p2 sample" transform="translate(-23 3.42535)"><path class="edge" d="M 0 0 V -3.42535 H 23"/><rect class="sym" height="6" width="6" x="-3" y="-3"/><text class="lab" transform="translate(0 11)">10</text></g><g class="a23 i18 leaf node n18 p2 sample" transform="translate(23 3.42535)"><path class="edge" d="M 0 0 V -3.42535 H -23"/><rect class="sym" height="6" width="6" x="-3" y="-3"/><text class="lab" transform="translate(0 11)">18</text></g><path class="edge" d="M 0 0 V -43.3957 H -34.5"/><circle class="sym" cx="0" cy="0" r="3"/><text class="lab rgt" transform="translate(3 -7)">23</text></g><path class="edge" d="M 0 0 V -10.3595 H -51.75"/><circle class="sym" cx="0" cy="0" r="3"/><text class="lab rgt" transform="translate(3 -7)">32</text></g><g class="a35 c2 node n34 p1" transform="translate(-51.75 1.69318)"><g class="a34 i0 leaf m3 node n0 p1 s3 sample" transform="translate(-23 55.4874)"><path class="edge" d="M 0 0 V -55.4874 H 23"/><g class="mut m3 s3" transform="translate(0 -12.3022)"><line x1="0" x2="0" y1="0" y2="12.3022"/><path class="sym" d="M -3,-3 l 6,6 M -3,3 l 6,-6"/><text class="lab lft" transform="translate(-5 0)">3</text></g><rect class="sym" height="6" width="6" x="-3" y="-3"/><text class="lab" transform="translate(0 11)">0</text></g><g class="a34 i6 leaf node n6 p1 sample" transform="translate(23 55.4874)"><path class="edge" d="M 0 0 V -55.4874 H -23"/><rect class="sym" height="6" width="6" x="-3" y="-3"/><text class="lab" transform="translate(0 11)">6</text></g><path class="edge" d="M 0 0 V -1.69318 H 51.75"/><circle class="sym" cx="0" cy="0" r="3"/><text class="lab lft" transform="translate(-3 -7)">34</text></g><path class="edge" d="M 0 0 V -100.97 H 255.516"/><circle class="sym" cx="0" cy="0" r="3"/><text class="lab lft" transform="translate(-3 -7)">35</text></g><g class="a37 c2 node n36 p2" transform="translate(255.516 94.9913)"><g class="a36 c2 node n31 p2" transform="translate(153.094 20.9119)"><g class="a31 i3 leaf node n3 p1 sample" transform="translate(43.125 42.2478)"><path class="edge" d="M 0 0 V -42.2478 H -43.125"/><rect class="sym" height="6" width="6" x="-3" y="-3"/><text class="lab" transform="translate(0 11)">3</text></g><g class="a31 c2 node n26 p1" transform="translate(-43.125 34.3343)"><g class="a26 i5 leaf node n5 p1 sample" transform="translate(40.25 7.91342)"><path class="edge" d="M 0 0 V -7.91342 H -40.25"/><rect class="sym" height="6" width="6" x="-3" y="-3"/><text class="lab" transform="translate(0 11)">5</text></g><g class="a26 c2 node n21 p1" transform="translate(-40.25 6.69388)"><g class="a21 i16 leaf node n16 p2 sample" transform="translate(34.5 1.21955)"><path class="edge" d="M 0 0 V -1.21955 H -34.5"/><rect class="sym" height="6" width="6" x="-3" y="-3"/><text class="lab" transform="translate(0 11)">16</text></g><g class="a21 c2 node n20 p2" transform="translate(-34.5 0.585978)"><g class="a20 i2 leaf node n2 p1 sample" transform="translate(-23 0.63357)"><path class="edge" d="M 0 0 V -0.63357 H 23"/><rect class="sym" height="6" width="6" x="-3" y="-3"/><text class="lab" transform="translate(0 11)">2</text></g><g class="a20 i11 leaf node n11 p2 sample" transform="translate(23 0.63357)"><path class="edge" d="M 0 0 V -0.63357 H -23"/><rect class="sym" height="6" width="6" x="-3" y="-3"/><text class="lab" transform="translate(0 11)">11</text></g><path class="edge" d="M 0 0 V -0.585978 H 34.5"/><circle class="sym" cx="0" cy="0" r="3"/><text class="lab lft" transform="translate(-3 -7)">20</text></g><path class="edge" d="M 0 0 V -6.69388 H 40.25"/><circle class="sym" cx="0" cy="0" r="3"/><text class="lab lft" transform="translate(-3 -7)">21</text></g><path class="edge" d="M 0 0 V -34.3343 H 43.125"/><circle class="sym" cx="0" cy="0" r="3"/><text class="lab lft" transform="translate(-3 -7)">26</text></g><path class="edge" d="M 0 0 V -20.9119 H -153.094"/><circle class="sym" cx="0" cy="0" r="3"/><text class="lab rgt" transform="translate(3 -7)">31</text></g><g class="a36 c2 node n33 p1" transform="translate(-153.094 11.3818)"><g class="a33 c2 node n28 p1" transform="translate(-61.8125 31.4407)"><g class="a28 i17 leaf node n17 p2 sample" transform="translate(43.125 20.3371)"><path class="edge" d="M 0 0 V -20.3371 H -43.125"/><rect class="sym" height="6" width="6" x="-3" y="-3"/><text class="lab" transform="translate(0 11)">17</text></g><g class="a28 c2 node n27 p2" transform="translate(-43.125 10.0405)"><g class="a27 i15 leaf node n15 p2 sample" transform="translate(40.25 10.2966)"><path class="edge" d="M 0 0 V -10.2966 H -40.25"/><rect class="sym" height="6" width="6" x="-3" y="-3"/><text class="lab" transform="translate(0 11)">15</text></g><g class="a27 c2 node n24 p1" transform="translate(-40.25 3.65448)"><g class="a24 i12 leaf node n12 p2 sample" transform="translate(34.5 6.64216)"><path class="edge" d="M 0 0 V -6.64216 H -34.5"/><rect class="sym" height="6" width="6" x="-3" y="-3"/><text class="lab" transform="translate(0 11)">12</text></g><g class="a24 c2 node n22 p1" transform="translate(-34.5 3.44886)"><g class="a22 i1 leaf node n1 p1 sample" transform="translate(-23 3.1933)"><path class="edge" d="M 0 0 V -3.1933 H 23"/><rect class="sym" height="6" width="6" x="-3" y="-3"/><text class="lab" transform="translate(0 11)">1</text></g><g class="a22 i14 leaf node n14 p2 sample" transform="translate(23 3.1933)"><path class="edge" d="M 0 0 V -3.1933 H -23"/><rect class="sym" height="6" width="6" x="-3" y="-3"/><text class="lab" transform="translate(0 11)">14</text></g><path class="edge" d="M 0 0 V -3.44886 H 34.5"/><circle class="sym" cx="0" cy="0" r="3"/><text class="lab lft" transform="translate(-3 -7)">22</text></g><path class="edge" d="M 0 0 V -3.65448 H 40.25"/><circle class="sym" cx="0" cy="0" r="3"/><text class="lab lft" transform="translate(-3 -7)">24</text></g><path class="edge" d="M 0 0 V -10.0405 H 43.125"/><circle class="sym" cx="0" cy="0" r="3"/><text class="lab lft" transform="translate(-3 -7)">27</text></g><path class="edge" d="M 0 0 V -31.4407 H 61.8125"/><circle class="sym" cx="0" cy="0" r="3"/><text class="lab lft" transform="translate(-3 -7)">28</text></g><g class="a33 c2 node n29 p2" transform="translate(61.8125 13.4906)"><g class="a29 i7 leaf node n7 p1 sample" transform="translate(-34.5 38.2872)"><path class="edge" d="M 0 0 V -38.2872 H 34.5"/><rect class="sym" height="6" width="6" x="-3" y="-3"/><text class="lab" transform="translate(0 11)">7</text></g><g class="a29 c2 node n25 p2" transform="translate(34.5 30.56)"><g class="a25 i9 leaf node n9 p1 sample" transform="translate(-23 7.72722)"><path class="edge" d="M 0 0 V -7.72722 H 23"/><rect class="sym" height="6" width="6" x="-3" y="-3"/><text class="lab" transform="translate(0 11)">9</text></g><g class="a25 i19 leaf node n19 p2 sample" transform="translate(23 7.72722)"><path class="edge" d="M 0 0 V -7.72722 H -23"/><rect class="sym" height="6" width="6" x="-3" y="-3"/><text class="lab" transform="translate(0 11)">19</text></g><path class="edge" d="M 0 0 V -30.56 H -34.5"/><circle class="sym" cx="0" cy="0" r="3"/><text class="lab rgt" transform="translate(3 -7)">25</text></g><path class="edge" d="M 0 0 V -13.4906 H -61.8125"/><circle class="sym" cx="0" cy="0" r="3"/><text class="lab rgt" transform="translate(3 -7)">29</text></g><path class="edge" d="M 0 0 V -11.3818 H 153.094"/><circle class="sym" cx="0" cy="0" r="3"/><text class="lab lft" transform="translate(-3 -7)">33</text></g><path class="edge" d="M 0 0 V -94.9913 H -255.516"/><circle class="sym" cx="0" cy="0" r="3"/><text class="lab rgt" transform="translate(3 -7)">36</text></g><path class="edge" d="M 0 0 V -136.449 H 260.367"/><g class="mut m2 s2" transform="translate(0 -132.197)"><line x1="0" x2="0" y1="0" y2="132.197"/><path class="sym" d="M -3,-3 l 6,6 M -3,3 l 6,-6"/><text class="lab lft" transform="translate(-5 0)">2</text></g><g class="mut m0 s0" transform="translate(0 -124.784)"><line x1="0" x2="0" y1="0" y2="124.784"/><path class="sym" d="M -3,-3 l 6,6 M -3,3 l 6,-6"/><text class="lab lft" transform="translate(-5 0)">0</text></g><g class="mut m1 s1" transform="translate(0 -105.232)"><line x1="0" x2="0" y1="0" y2="105.232"/><path class="sym" d="M -3,-3 l 6,6 M -3,3 l 6,-6"/><text class="lab lft" transform="translate(-5 0)">1</text></g><g class="mut m4 s4" transform="translate(0 -27.8823)"><line x1="0" x2="0" y1="0" y2="27.8823"/><path class="sym" d="M -3,-3 l 6,6 M -3,3 l 6,-6"/><text class="lab lft" transform="translate(-5 0)">4</text></g><g class="mut m5 s5" transform="translate(0 -20.2422)"><line x1="0" x2="0" y1="0" y2="20.2422"/><path class="sym" d="M -3,-3 l 6,6 M -3,3 l 6,-6"/><text class="lab lft" transform="translate(-5 0)">5</text></g><circle class="sym" cx="0" cy="0" r="3"/><text class="lab lft" transform="translate(-3 -7)">37</text></g><circle class="sym" cx="0" cy="0" r="3"/><text class="lab" transform="translate(0 -11)">38</text></g></g></g></g></g></svg>