<svg baseProfile="full" height="400" version="1.1" width="1000" xmlns="http://www.w3.org/2000/svg" xmlns:ev="http://www.w3.org/2001/xml-events" xmlns:xlink="http://www.w3.org/1999/xlink"><defs><style type="text/css"><![CDATA[.background path {fill: #808080; fill-opacity: 0}.background path:nth-child(odd) {fill-opacity: .1}.x-regions rect {fill: yellow; stroke: black; opacity: 0.5}.axes {font-size: 14px}.x-axis .tick .lab {font-weight: bold; dominant-baseline: hanging}.axes, .tree {font-size: 14px; text-anchor: middle}.axes line, .edge {stroke: black; fill: none}.axes .ax-skip {stroke-dasharray: 4}.y-axis .grid {stroke: #FAFAFA}.node > .sym {fill: black; stroke: none}.site > .sym {stroke: black}.mut text {fill: red; font-style: italic}.mut.extra text {fill: hotpink}.mut line {fill: none; stroke: none}.mut .sym {fill: none; stroke: red}.mut.extra .sym {stroke: hotpink}.node .mut .sym {stroke-width: 1.5px}.tree text, .tree-sequence text {dominant-baseline: central}.plotbox .lab.lft {text-anchor: end}.plotbox .lab.rgt {text-anchor: start}.polytomy line {stroke: black; stroke-dasharray: 1px, 1px}.polytomy text {paint-order:stroke;stroke-width:0.3em;stroke:white}]]></style></defs><g class="tree-sequence"><g class="background"><path d="M20,0 l960,0 l0,338.2 l0,25 l0,5 l-960,0 l0,-5 l0,-25 l0,-338.2z"/></g><g class="axes"><g class="x-axis"><g class="title" transform="translate(500 400)"><text class="lab" text-anchor="middle" transform="translate(0 -11)">Genome position</text></g><line class="ax-line" x1="20" x2="980" y1="363.2" y2="363.2"/><g class="ticks"><g class="tick" transform="translate(20 363.2)"><line x1="0" x2="0" y1="0" y2="5"/><g transform="translate(0 6)"><text class="lab">0</text></g></g><g class="tick" transform="translate(980 363.2)"><line x1="0" x2="0" y1="0" y2="5"/><g transform="translate(0 6)"><text class="lab">1000</text></g></g></g><g class="site s0" transform="translate(221.6 363.2)"><line class="sym" x1="0" x2="0" y1="0" y2="-10"/><g class="mut m0"><polyline class="sym" points="2.5,-6.5 0,-1.5 -2.5,-6.5"/></g></g><g class="site s1" transform="translate(386.72 363.2)"><line class="sym" x1="0" x2="0" y1="0" y2="-10"/><g class="mut m1"><polyline class="sym" points="2.5,-6.5 0,-1.5 -2.5,-6.5"/></g></g><g class="site s2" transform="translate(561.44 363.2)"><line class="sym" x1="0" x2="0" y1="0" y2="-10"/><g class="mut m2"><polyline class="sym" points="2.5,-6.5 0,-1.5 -2.5,-6.5"/></g></g><g class="site s3" transform="translate(630.56 363.2)"><line class="sym" x1="0" x2="0" y1="0" y2="-10"/><g class="mut m3"><polyline class="sym" points="2.5,-6.5 0,-1.5 -2.5,-6.5"/></g></g><g class="site s4" transform="translate(782.24 363.2)"><line class="sym" x1="0" x2="0" y1="0" y2="-10"/><g class="mut m4"><polyline class="sym" points="2.5,-6.5 0,-1.5 -2.5,-6.5"/></g></g></g></g><g class="plotbox trees"><g class="tree t0" transform="translate(20 0)"><g class="plotbox"><g class="c2 node n38 p0 root" transform="translate(419.984 26.8)"><g class="a38 c2 m2 node n32 p1 s2" transform="translate(-218.859 249.731)"><g class="a32 i17 leaf node n17 p2 sample" transform="translate(71.875 44.8694)"><path class="edge" d="M 0 0 V -44.8694 H -71.875"/><rect class="sym" height="6" width="6" x="-3" y="-3"/><text class="lab" transform="translate(0 11)">17</text></g><g class="a32 c2 node n27 p1" transform="translate(-71.875 30.0571)"><g class="a27 c2 node n22 p2" transform="translate(-63.25 11.971)"><g class="a22 i0 leaf node n0 p1 sample" transform="translate(-23 2.84128)"><path class="edge" d="M 0 0 V -2.84128 H 23"/><rect class="sym" height="6" width="6" x="-3" y="-3"/><text class="lab" transform="translate(0 11)">0</text></g><g class="a22 i2 leaf node n2 p1 sample" transform="translate(23 2.84128)"><path class="edge" d="M 0 0 V -2.84128 H -23"/><rect class="sym" height="6" width="6" x="-3" y="-3"/><text class="lab" transform="translate(0 11)">2</text></g><path class="edge" d="M 0 0 V -11.971 H 63.25"/><circle class="sym" cx="0" cy="0" r="3"/><text class="lab lft" transform="translate(-3 -7)">22</text></g><g class="a27 c2 node n25 p2" transform="translate(63.25 3.70086)"><g class="a25 i14 leaf node n14 p2 sample" transform="translate(34.5 11.1114)"><path class="edge" d="M 0 0 V -11.1114 H -34.5"/><rect class="sym" height="6" width="6" x="-3" y="-3"/><text class="lab" transform="translate(0 11)">14</text></g><g class="a25 c2 node n23 p1" transform="translate(-34.5 5.96649)"><g class="a23 i1 leaf node n1 p1 sample" transform="translate(-23 5.14494)"><path class="edge" d="M 0 0 V -5.14494 H 23"/><rect class="sym" height="6" width="6" x="-3" y="-3"/><text class="lab" transform="translate(0 11)">1</text></g><g class="a23 i10 leaf node n10 p2 sample" transform="translate(23 5.14494)"><path class="edge" d="M 0 0 V -5.14494 H -23"/><rect class="sym" height="6" width="6" x="-3" y="-3"/><text class="lab" transform="translate(0 11)">10</text></g><path class="edge" d="M 0 0 V -5.96649 H 34.5"/><circle class="sym" cx="0" cy="0" r="3"/><text class="lab lft" transform="translate(-3 -7)">23</text></g><path class="edge" d="M 0 0 V -3.70086 H -63.25"/><circle class="sym" cx="0" cy="0" r="3"/><text class="lab rgt" transform="translate(3 -7)">25</text></g><path class="edge" d="M 0 0 V -30.0571 H 71.875"/><circle class="sym" cx="0" cy="0" r="3"/><text class="lab lft" transform="translate(-3 -7)">27</text></g><path class="edge" d="M 0 0 V -249.731 H 218.859"/><g class="mut m2 s2" transform="translate(0 -47.9015)"><line x1="0" x2="0" y1="0" y2="47.9015"/><path class="sym" d="M -3,-3 l 6,6 M -3,3 l 6,-6"/><text class="lab lft" transform="translate(-5 0)">2</text></g><circle class="sym" cx="0" cy="0" r="3"/><text class="lab lft" transform="translate(-3 -7)">32</text></g><g class="a38 c2 m4 node n37 p0 s4" transform="translate(218.859 134.065)"><g class="a37 c2 node n35 p2" transform="translate(-140.156 79.128)"><g class="a35 c2 m0 node n26 p1 s0" transform="translate(107.812 70.0314)"><g class="a26 i15 leaf node n15 p2 sample" transform="translate(34.5 11.3757)"><path class="edge" d="M 0 0 V -11.3757 H -34.5"/><rect class="sym" height="6" width="6" x="-3" y="-3"/><text class="lab" transform="translate(0 11)">15</text></g><g class="a26 c2 node n24 p1" transform="translate(-34.5 1.50239)"><g class="a24 i7 leaf node n7 p1 sample" transform="translate(-23 9.87326)"><path class="edge" d="M 0 0 V -9.87326 H 23"/><rect class="sym" height="6" width="6" x="-3" y="-3"/><text class="lab" transform="translate(0 11)">7</text></g><g class="a24 i19 leaf node n19 p2 sample" transform="translate(23 9.87326)"><path class="edge" d="M 0 0 V -9.87326 H -23"/><rect class="sym" height="6" width="6" x="-3" y="-3"/><text class="lab" transform="translate(0 11)">19</text></g><path class="edge" d="M 0 0 V -1.50239 H 34.5"/><circle class="sym" cx="0" cy="0" r="3"/><text class="lab lft" transform="translate(-3 -7)">24</text></g><path class="edge" d="M 0 0 V -70.0314 H -107.812"/><g class="mut m0 s0" transform="translate(0 -10.3514)"><line x1="0" x2="0" y1="0" y2="10.3514"/><path class="sym" d="M -3,-3 l 6,6 M -3,3 l 6,-6"/><text class="lab rgt" transform="translate(5 0)">0</text></g><circle class="sym" cx="0" cy="0" r="3"/><text class="lab rgt" transform="translate(3 -7)">26</text></g><g class="a35 c2 node n34 p1" transform="translate(-107.812 25.6056)"><g class="a34 i3 leaf node n3 p1 sample" transform="translate(-71.875 55.8015)"><path class="edge" d="M 0 0 V -55.8015 H 71.875"/><rect class="sym" height="6" width="6" x="-3" y="-3"/><text class="lab" transform="translate(0 11)">3</text></g><g class="a34 c2 node n33 p1" transform="translate(71.875 9.27325)"><g class="a33 i12 leaf node n12 p2 sample" transform="translate(40.25 46.5282)"><path class="edge" d="M 0 0 V -46.5282 H -40.25"/><rect class="sym" height="6" width="6" x="-3" y="-3"/><text class="lab" transform="translate(0 11)">12</text></g><g class="a33 c2 node n31 p2" transform="translate(-40.25 8.10536)"><g class="a31 i6 leaf node n6 p1 sample" transform="translate(34.5 38.4229)"><path class="edge" d="M 0 0 V -38.4229 H -34.5"/><rect class="sym" height="6" width="6" x="-3" y="-3"/><text class="lab" transform="translate(0 11)">6</text></g><g class="a31 c2 node n29 p1" transform="translate(-34.5 17.3263)"><g class="a29 i4 leaf node n4 p1 sample" transform="translate(-23 21.0966)"><path class="edge" d="M 0 0 V -21.0966 H 23"/><rect class="sym" height="6" width="6" x="-3" y="-3"/><text class="lab" transform="translate(0 11)">4</text></g><g class="a29 i5 leaf node n5 p1 sample" transform="translate(23 21.0966)"><path class="edge" d="M 0 0 V -21.0966 H -23"/><rect class="sym" height="6" width="6" x="-3" y="-3"/><text class="lab" transform="translate(0 11)">5</text></g><path class="edge" d="M 0 0 V -17.3263 H 34.5"/><circle class="sym" cx="0" cy="0" r="3"/><text class="lab lft" transform="translate(-3 -7)">29</text></g><path class="edge" d="M 0 0 V -8.10536 H 40.25"/><circle class="sym" cx="0" cy="0" r="3"/><text class="lab lft" transform="translate(-3 -7)">31</text></g><path class="edge" d="M 0 0 V -9.27325 H -71.875"/><circle class="sym" cx="0" cy="0" r="3"/><text class="lab rgt" transform="translate(3 -7)">33</text></g><path class="edge" d="M 0 0 V -25.6056 H 107.812"/><circle class="sym" cx="0" cy="0" r="3"/><text class="lab lft" transform="translate(-3 -7)">34</text></g><path class="edge" d="M 0 0 V -79.128 H 140.156"/><circle class="sym" cx="0" cy="0" r="3"/><text class="lab lft" transform="translate(-3 -7)">35</text></g><g class="a37 c2 m3 node n36 p2 s3" transform="translate(140.156 60.7817)"><g class="a36 c2 node n20 p1" transform="translate(-69 99.7266)"><g class="a20 i8 leaf node n8 p1 sample" transform="translate(-23 0.026904)"><path class="edge" d="M 0 0 V -0.026904 H 23"/><rect class="sym" height="6" width="6" x="-3" y="-3"/><text class="lab" transform="translate(0 11)">8</text></g><g class="a20 i16 leaf node n16 p2 sample" transform="translate(23 0.026904)"><path class="edge" d="M 0 0 V -0.026904 H -23"/><rect class="sym" height="6" width="6" x="-3" y="-3"/><text class="lab" transform="translate(0 11)">16</text></g><path class="edge" d="M 0 0 V -99.7266 H 69"/><circle class="sym" cx="0" cy="0" r="3"/><text class="lab lft" transform="translate(-3 -7)">20</text></g><g class="a36 c2 m1 node n30 p1 s1" transform="translate(69 77.0057)"><g class="a30 c2 node n21 p1" transform="translate(46 22.4434)"><g class="a21 i11 leaf node n11 p2 sample" transform="translate(-23 0.304401)"><path class="edge" d="M 0 0 V -0.304401 H 23"/><rect class="sym" height="6" width="6" x="-3" y="-3"/><text class="lab" transform="translate(0 11)">11</text></g><g class="a21 i18 leaf node n18 p2 sample" transform="translate(23 0.304401)"><path class="edge" d="M 0 0 V -0.304401 H -23"/><rect class="sym" height="6" width="6" x="-3" y="-3"/><text class="lab" transform="translate(0 11)">18</text></g><path class="edge" d="M 0 0 V -22.4434 H -46"/><circle class="sym" cx="0" cy="0" r="3"/><text class="lab rgt" transform="translate(3 -7)">21</text></g><g class="a30 c2 node n28 p2" transform="translate(-46 2.5594)"><g class="a28 i9 leaf node n9 p1 sample" transform="translate(-23 20.1884)"><path class="edge" d="M 0 0 V -20.1884 H 23"/><rect class="sym" height="6" width="6" x="-3" y="-3"/><text class="lab" transform="translate(0 11)">9</text></g><g class="a28 i13 leaf node n13 p2 sample" transform="translate(23 20.1884)"><path class="edge" d="M 0 0 V -20.1884 H -23"/><rect class="sym" height="6" width="6" x="-3" y="-3"/><text class="lab" transform="translate(0 11)">13</text></g><path class="edge" d="M 0 0 V -2.5594 H 46"/><circle class="sym" cx="0" cy="0" r="3"/><text class="lab lft" transform="translate(-3 -7)">28</text></g><path class="edge" d="M 0 0 V -77.0057 H -69"/><g class="mut m1 s1" transform="translate(0 -1.77202)"><line x1="0" x2="0" y1="0" y2="1.77202"/><path class="sym" d="M -3,-3 l 6,6 M -3,3 l 6,-6"/><text class="lab rgt" transform="translate(5 0)">1</text></g><circle class="sym" cx="0" cy="0" r="3"/><text class="lab rgt" transform="translate(3 -7)">30</text></g><path class="edge" d="M 0 0 V -60.7817 H -140.156"/><g class="mut m3 s3" transform="translate(0 -54.2437)"><line x1="0" x2="0" y1="0" y2="54.2437"/><path class="sym" d="M -3,-3 l 6,6 M -3,3 l 6,-6"/><text class="lab rgt" transform="translate(5 0)">3</text></g><circle class="sym" cx="0" cy="0" r="3"/><text class="lab rgt" transform="translate(3 -7)">36</text></g><path class="edge" d="M 0 0 V -134.065 H -218.859"/><g class="mut m4 s4" transform="translate(0 -114.92)"><line x1="0" x2="0" y1="0" y2="114.92"/><path class="sym" d="M -3,-3 l 6,6 M -3,3 l 6,-6"/><text class="lab rgt" transform="translate(5 0)">4</text></g><circle class="sym" cx="0" cy="0" r="3"/><text class="lab rgt" transform="translate(3 -7)">37</text></g><circle class="sym" cx="0" cy="0" r="3"/><text class="lab" transform="translate(0 -11)">38</text></g></g></g></g></g></svg>