<svg baseProfile="full" height="400" version="1.1" width="1000" xmlns="http://www.w3.org/2000/svg" xmlns:ev="http://www.w3.org/2001/xml-events" xmlns:xlink="http://www.w3.org/1999/xlink"><defs><style type="text/css"><![CDATA[.background path {fill: #808080; fill-opacity: 0}.background path:nth-child(odd) {fill-opacity: .1}.x-regions rect {fill: yellow; stroke: black; opacity: 0.5}.axes {font-size: 14px}.x-axis .tick .lab {font-weight: bold; dominant-baseline: hanging}.axes, .tree {font-size: 14px; text-anchor: middle}.axes line, .edge {stroke: black; fill: none}.axes .ax-skip {stroke-dasharray: 4}.y-axis .grid {stroke: #FAFAFA}.node > .sym {fill: black; stroke: none}.site > .sym {stroke: black}.mut text {fill: red; font-style: italic}.mut.extra text {fill: hotpink}.mut line {fill: none; stroke: none}.mut .sym {fill: none; stroke: red}.mut.extra .sym {stroke: hotpink}.node .mut .sym {stroke-width: 1.5px}.tree text, .tree-sequence text {dominant-baseline: central}.plotbox .lab.lft {text-anchor: end}.plotbox .lab.rgt {text-anchor: start}.polytomy line {stroke: black; stroke-dasharray: 1px, 1px}.polytomy text {paint-order:stroke;stroke-width:0.3em;stroke:white}]]></style></defs><g class="tree-sequence"><g class="background"><path d="M20,0 l960,0 l0,338.2 l0,25 l0,5 l-960,0 l0,-5 l0,-25 l0,-338.2z"/></g><g class="axes"><g class="x-axis"><g class="title" transform="translate(500 400)"><text class="lab" text-anchor="middle" transform="translate(0 -11)">Genome position</text></g><line class="ax-line" x1="20" x2="980" y1="363.2" y2="363.2"/><g class="ticks"><g class="tick" transform="translate(20 363.2)"><line x1="0" x2="0" y1="0" y2="5"/><g transform="translate(0 6)"><text class="lab">0</text></g></g><g class="tick" transform="translate(980 363.2)"><line x1="0" x2="0" y1="0" y2="5"/><g transform="translate(0 6)"><text class="lab">1000</text></g></g></g><g class="site s0" transform="translate(384.8 363.2)"><line class="sym" x1="0" x2="0" y1="0" y2="-10"/><g class="mut m0"><polyline class="sym" points="2.5,-6.5 0,-1.5 -2.5,-6.5"/></g></g></g></g><g class="plotbox trees"><g class="tree t0" transform="translate(20 0)"><g class="plotbox"><g class="c2 node n38 p1 root" transform="translate(681.609 26.8)"><g class="a38 c2 node n36 p2" transform="translate(-192.266 52.2541)"><g class="a36 c2 node n33 p1" transform="translate(163.156 179.794)"><g class="a33 i14 leaf node n14 p2 sample" transform="translate(34.5 62.5519)"><path class="edge" d="M 0 0 V -62.5519 H -34.5"/><rect class="sym" height="6" width="6" x="-3" y="-3"/><text class="lab" transform="translate(0 11)">14</text></g><g class="a33 c2 node n22 p1" transform="translate(-34.5 51.0736)"><g class="a22 i3 leaf node n3 p1 sample" transform="translate(-23 11.4783)"><path class="edge" d="M 0 0 V -11.4783 H 23"/><rect class="sym" height="6" width="6" x="-3" y="-3"/><text class="lab" transform="translate(0 11)">3</text></g><g class="a22 i19 leaf node n19 p2 sample" transform="translate(23 11.4783)"><path class="edge" d="M 0 0 V -11.4783 H -23"/><rect class="sym" height="6" width="6" x="-3" y="-3"/><text class="lab" transform="translate(0 11)">19</text></g><path class="edge" d="M 0 0 V -51.0736 H 34.5"/><circle class="sym" cx="0" cy="0" r="3"/><text class="lab lft" transform="translate(-3 -7)">22</text></g><path class="edge" d="M 0 0 V -179.794 H -163.156"/><circle class="sym" cx="0" cy="0" r="3"/><text class="lab rgt" transform="translate(3 -7)">33</text></g><g class="a36 c2 node n34 p2" transform="translate(-163.156 162.282)"><g class="a34 c2 node n31 p2" transform="translate(-136.562 27.515)"><g class="a31 c2 node n26 p1" transform="translate(89.125 29.0455)"><g class="a26 i10 leaf node n10 p2 sample" transform="translate(40.25 23.5038)"><path class="edge" d="M 0 0 V -23.5038 H -40.25"/><rect class="sym" height="6" width="6" x="-3" y="-3"/><text class="lab" transform="translate(0 11)">10</text></g><g class="a26 c2 node n25 p1" transform="translate(-40.25 5.61211)"><g class="a25 i9 leaf node n9 p1 sample" transform="translate(34.5 17.8917)"><path class="edge" d="M 0 0 V -17.8917 H -34.5"/><rect class="sym" height="6" width="6" x="-3" y="-3"/><text class="lab" transform="translate(0 11)">9</text></g><g class="a25 c2 node n21 p2" transform="translate(-34.5 9.61996)"><g class="a21 i6 leaf node n6 p1 sample" transform="translate(-23 8.27174)"><path class="edge" d="M 0 0 V -8.27174 H 23"/><rect class="sym" height="6" width="6" x="-3" y="-3"/><text class="lab" transform="translate(0 11)">6</text></g><g class="a21 i18 leaf node n18 p2 sample" transform="translate(23 8.27174)"><path class="edge" d="M 0 0 V -8.27174 H -23"/><rect class="sym" height="6" width="6" x="-3" y="-3"/><text class="lab" transform="translate(0 11)">18</text></g><path class="edge" d="M 0 0 V -9.61996 H 34.5"/><circle class="sym" cx="0" cy="0" r="3"/><text class="lab lft" transform="translate(-3 -7)">21</text></g><path class="edge" d="M 0 0 V -5.61211 H 40.25"/><circle class="sym" cx="0" cy="0" r="3"/><text class="lab lft" transform="translate(-3 -7)">25</text></g><path class="edge" d="M 0 0 V -29.0455 H -89.125"/><circle class="sym" cx="0" cy="0" r="3"/><text class="lab rgt" transform="translate(3 -7)">26</text></g><g class="a31 c2 node n30 p2" transform="translate(-89.125 4.41867)"><g class="a30 i15 leaf node n15 p2 sample" transform="translate(34.5 48.1306)"><path class="edge" d="M 0 0 V -48.1306 H -34.5"/><rect class="sym" height="6" width="6" x="-3" y="-3"/><text class="lab" transform="translate(0 11)">15</text></g><g class="a30 c2 node n20 p2" transform="translate(-34.5 40.4771)"><g class="a20 i0 leaf node n0 p1 sample" transform="translate(-23 7.65348)"><path class="edge" d="M 0 0 V -7.65348 H 23"/><rect class="sym" height="6" width="6" x="-3" y="-3"/><text class="lab" transform="translate(0 11)">0</text></g><g class="a20 i12 leaf node n12 p2 sample" transform="translate(23 7.65348)"><path class="edge" d="M 0 0 V -7.65348 H -23"/><rect class="sym" height="6" width="6" x="-3" y="-3"/><text class="lab" transform="translate(0 11)">12</text></g><path class="edge" d="M 0 0 V -40.4771 H 34.5"/><circle class="sym" cx="0" cy="0" r="3"/><text class="lab lft" transform="translate(-3 -7)">20</text></g><path class="edge" d="M 0 0 V -4.41867 H 89.125"/><circle class="sym" cx="0" cy="0" r="3"/><text class="lab lft" transform="translate(-3 -7)">30</text></g><path class="edge" d="M 0 0 V -27.515 H 136.562"/><circle class="sym" cx="0" cy="0" r="3"/><text class="lab lft" transform="translate(-3 -7)">31</text></g><g class="a34 c2 node n32 p2" transform="translate(136.562 27.0137)"><g class="a32 c2 node n28 p2" transform="translate(63.25 7.14331)"><g class="a28 i8 leaf node n8 p1 sample" transform="translate(-23 45.9072)"><path class="edge" d="M 0 0 V -45.9072 H 23"/><rect class="sym" height="6" width="6" x="-3" y="-3"/><text class="lab" transform="translate(0 11)">8</text></g><g class="a28 i17 leaf node n17 p2 sample" transform="translate(23 45.9072)"><path class="edge" d="M 0 0 V -45.9072 H -23"/><rect class="sym" height="6" width="6" x="-3" y="-3"/><text class="lab" transform="translate(0 11)">17</text></g><path class="edge" d="M 0 0 V -7.14331 H -63.25"/><circle class="sym" cx="0" cy="0" r="3"/><text class="lab rgt" transform="translate(3 -7)">28</text></g><g class="a32 c2 node n29 p1" transform="translate(-63.25 7.07005)"><g class="a29 i1 leaf m0 node n1 p1 s0 sample" transform="translate(-34.5 45.9805)"><path class="edge" d="M 0 0 V -45.9805 H 34.5"/><g class="mut m0 s0" transform="translate(0 -11.6869)"><line x1="0" x2="0" y1="0" y2="11.6869"/><path class="sym" d="M -3,-3 l 6,6 M -3,3 l 6,-6"/><text class="lab lft" transform="translate(-5 0)">0</text></g><rect class="sym" height="6" width="6" x="-3" y="-3"/><text class="lab" transform="translate(0 11)">1</text></g><g class="a29 c2 node n27 p2" transform="translate(34.5 8.92172)"><g class="a27 i7 leaf node n7 p1 sample" transform="translate(-23 37.0588)"><path class="edge" d="M 0 0 V -37.0588 H 23"/><rect class="sym" height="6" width="6" x="-3" y="-3"/><text class="lab" transform="translate(0 11)">7</text></g><g class="a27 i13 leaf node n13 p2 sample" transform="translate(23 37.0588)"><path class="edge" d="M 0 0 V -37.0588 H -23"/><rect class="sym" height="6" width="6" x="-3" y="-3"/><text class="lab" transform="translate(0 11)">13</text></g><path class="edge" d="M 0 0 V -8.92172 H -34.5"/><circle class="sym" cx="0" cy="0" r="3"/><text class="lab rgt" transform="translate(3 -7)">27</text></g><path class="edge" d="M 0 0 V -7.07005 H 63.25"/><circle class="sym" cx="0" cy="0" r="3"/><text class="lab lft" transform="translate(-3 -7)">29</text></g><path class="edge" d="M 0 0 V -27.0137 H -136.562"/><circle class="sym" cx="0" cy="0" r="3"/><text class="lab rgt" transform="translate(3 -7)">32</text></g><path class="edge" d="M 0 0 V -162.282 H 163.156"/><circle class="sym" cx="0" cy="0" r="3"/><text class="lab lft" transform="translate(-3 -7)">34</text></g><path class="edge" d="M 0 0 V -52.2541 H 192.266"/><circle class="sym" cx="0" cy="0" r="3"/><text class="lab lft" transform="translate(-3 -7)">36</text></g><g class="a38 c2 node n37 p1" transform="translate(192.266 40.3134)"><g class="a37 i4 leaf node n4 p1 sample" transform="translate(43.125 254.287)"><path class="edge" d="M 0 0 V -254.287 H -43.125"/><rect class="sym" height="6" width="6" x="-3" y="-3"/><text class="lab" transform="translate(0 11)">4</text></g><g class="a37 c2 node n35 p1" transform="translate(-43.125 20.8939)"><g class="a35 i11 leaf node n11 p2 sample" transform="translate(40.25 233.393)"><path class="edge" d="M 0 0 V -233.393 H -40.25"/><rect class="sym" height="6" width="6" x="-3" y="-3"/><text class="lab" transform="translate(0 11)">11</text></g><g class="a35 c2 node n24 p1" transform="translate(-40.25 216.163)"><g class="a24 i5 leaf node n5 p1 sample" transform="translate(34.5 17.2296)"><path class="edge" d="M 0 0 V -17.2296 H -34.5"/><rect class="sym" height="6" width="6" x="-3" y="-3"/><text class="lab" transform="translate(0 11)">5</text></g><g class="a24 c2 node n23 p2" transform="translate(-34.5 3.76062)"><g class="a23 i2 leaf node n2 p1 sample" transform="translate(-23 13.469)"><path class="edge" d="M 0 0 V -13.469 H 23"/><rect class="sym" height="6" width="6" x="-3" y="-3"/><text class="lab" transform="translate(0 11)">2</text></g><g class="a23 i16 leaf node n16 p2 sample" transform="translate(23 13.469)"><path class="edge" d="M 0 0 V -13.469 H -23"/><rect class="sym" height="6" width="6" x="-3" y="-3"/><text class="lab" transform="translate(0 11)">16</text></g><path class="edge" d="M 0 0 V -3.76062 H 34.5"/><circle class="sym" cx="0" cy="0" r="3"/><text class="lab lft" transform="translate(-3 -7)">23</text></g><path class="edge" d="M 0 0 V -216.163 H 40.25"/><circle class="sym" cx="0" cy="0" r="3"/><text class="lab lft" transform="translate(-3 -7)">24</text></g><path class="edge" d="M 0 0 V -20.8939 H 43.125"/><circle class="sym" cx="0" cy="0" r="3"/><text class="lab lft" transform="translate(-3 -7)">35</text></g><path class="edge" d="M 0 0 V -40.3134 H -192.266"/><circle class="sym" cx="0" cy="0" r="3"/><text class="lab rgt" transform="translate(3 -7)">37</text></g><circle class="sym" cx="0" cy="0" r="3"/><text class="lab" transform="translate(0 -11)">38</text></g></g></g></g></g></svg>