<svg baseProfile="full" height="400" version="1.1" width="1000" xmlns="http://www.w3.org/2000/svg" xmlns:ev="http://www.w3.org/2001/xml-events" xmlns:xlink="http://www.w3.org/1999/xlink"><defs><style type="text/css"><![CDATA[.background path {fill: #808080; fill-opacity: 0}.background path:nth-child(odd) {fill-opacity: .1}.x-regions rect {fill: yellow; stroke: black; opacity: 0.5}.axes {font-size: 14px}.x-axis .tick .lab {font-weight: bold; dominant-baseline: hanging}.axes, .tree {font-size: 14px; text-anchor: middle}.axes line, .edge {stroke: black; fill: none}.axes .ax-skip {stroke-dasharray: 4}.y-axis .grid {stroke: #FAFAFA}.node > .sym {fill: black; stroke: none}.site > .sym {stroke: black}.mut text {fill: red; font-style: italic}.mut.extra text {fill: hotpink}.mut line {fill: none; stroke: none}.mut .sym {fill: none; stroke: red}.mut.extra .sym {stroke: hotpink}.node .mut .sym {stroke-width: 1.5px}.tree text, .tree-sequence text {dominant-baseline: central}.plotbox .lab.lft {text-anchor: end}.plotbox .lab.rgt {text-anchor: start}.polytomy line {stroke: black; stroke-dasharray: 1px, 1px}.polytomy text {paint-order:stroke;stroke-width:0.3em;stroke:white}]]></style></defs><g class="tree-sequence"><g class="background"><path d="M20,0 l960,0 l0,338.2 l0,25 l0,5 l-960,0 l0,-5 l0,-25 l0,-338.2z"/></g><g class="axes"><g class="x-axis"><g class="title" transform="translate(500 400)"><text class="lab" text-anchor="middle" transform="translate(0 -11)">Genome position</text></g><line class="ax-line" x1="20" x2="980" y1="363.2" y2="363.2"/><g class="ticks"><g class="tick" transform="translate(20 363.2)"><line x1="0" x2="0" y1="0" y2="5"/><g transform="translate(0 6)"><text class="lab">0</text></g></g><g class="tick" transform="translate(980 363.2)"><line x1="0" x2="0" y1="0" y2="5"/><g transform="translate(0 6)"><text class="lab">1000</text></g></g></g><g class="site s0" transform="translate(93.92 363.2)"><line class="sym" x1="0" x2="0" y1="0" y2="-10"/><g class="mut m0"><polyline class="sym" points="2.5,-6.5 0,-1.5 -2.5,-6.5"/></g></g><g class="site s1" transform="translate(337.76 363.2)"><line class="sym" x1="0" x2="0" y1="0" y2="-10"/><g class="mut m1"><polyline class="sym" points="2.5,-6.5 0,-1.5 -2.5,-6.5"/></g></g><g class="site s2" transform="translate(457.76 363.2)"><line class="sym" x1="0" x2="0" y1="0" y2="-10"/><g class="mut m2"><polyline class="sym" points="2.5,-6.5 0,-1.5 -2.5,-6.5"/></g></g><g class="site s3" transform="translate(586.4 363.2)"><line class="sym" x1="0" x2="0" y1="0" y2="-10"/><g class="mut m3"><polyline class="sym" points="2.5,-6.5 0,-1.5 -2.5,-6.5"/></g></g><g class="site s4" transform="translate(683.36 363.2)"><line class="sym" x1="0" x2="0" y1="0" y2="-10"/><g class="mut m4"><polyline class="sym" points="2.5,-6.5 0,-1.5 -2.5,-6.5"/></g></g><g class="site s5" transform="translate(721.76 363.2)"><line class="sym" x1="0" x2="0" y1="0" y2="-10"/><g class="mut m5"><polyline class="sym" points="2.5,-6.5 0,-1.5 -2.5,-6.5"/></g></g><g class="site s6" transform="translate(782.24 363.2)"><line class="sym" x1="0" x2="0" y1="0" y2="-10"/><g class="mut m6"><polyline class="sym" points="2.5,-6.5 0,-1.5 -2.5,-6.5"/></g></g><g class="site s7" transform="translate(928.16 363.2)"><line class="sym" x1="0" x2="0" y1="0" y2="-10"/><g class="mut m7"><polyline class="sym" points="2.5,-6.5 0,-1.5 -2.5,-6.5"/></g></g><g class="site s8" transform="translate(935.84 363.2)"><line class="sym" x1="0" x2="0" y1="0" y2="-10"/><g class="mut m8"><polyline class="sym" points="2.5,-6.5 0,-1.5 -2.5,-6.5"/></g></g></g></g><g class="plotbox trees"><g class="tree t0" transform="translate(20 0)"><g class="plotbox"><g class="c2 node n38 p2 root" transform="translate(831.109 26.8)"><g class="a38 i3 leaf m4 m6 m8 node n3 p1 s4 s6 s8 sample" transform="translate(85.8906 294.6)"><path class="edge" d="M 0 0 V -294.6 H -85.8906"/><g class="mut m6 s6" transform="translate(0 -279.725)"><line x1="0" x2="0" y1="0" y2="279.725"/><path class="sym" d="M -3,-3 l 6,6 M -3,3 l 6,-6"/><text class="lab rgt" transform="translate(5 0)">6</text></g><g class="mut m4 s4" transform="translate(0 -115.637)"><line x1="0" x2="0" y1="0" y2="115.637"/><path class="sym" d="M -3,-3 l 6,6 M -3,3 l 6,-6"/><text class="lab rgt" transform="translate(5 0)">4</text></g><g class="mut m8 s8" transform="translate(0 -95.769)"><line x1="0" x2="0" y1="0" y2="95.769"/><path class="sym" d="M -3,-3 l 6,6 M -3,3 l 6,-6"/><text class="lab rgt" transform="translate(5 0)">8</text></g><rect class="sym" height="6" width="6" x="-3" y="-3"/><text class="lab" transform="translate(0 11)">3</text></g><g class="a38 c2 m5 m7 node n37 p1 s5 s7" transform="translate(-85.8906 227.42)"><g class="a37 i7 leaf node n7 p1 sample" transform="translate(125.781 67.1796)"><path class="edge" d="M 0 0 V -67.1796 H -125.781"/><rect class="sym" height="6" width="6" x="-3" y="-3"/><text class="lab" transform="translate(0 11)">7</text></g><g class="a37 c2 node n36 p1" transform="translate(-125.781 0.319857)"><g class="a36 c2 m2 node n25 p2 s2" transform="translate(148.062 62.61)"><g class="a25 i13 leaf node n13 p2 sample" transform="translate(-34.5 4.24974)"><path class="edge" d="M 0 0 V -4.24974 H 34.5"/><rect class="sym" height="6" width="6" x="-3" y="-3"/><text class="lab" transform="translate(0 11)">13</text></g><g class="a25 c2 node n23 p2" transform="translate(34.5 2.06243)"><g class="a23 i14 leaf node n14 p2 sample" transform="translate(-23 2.18731)"><path class="edge" d="M 0 0 V -2.18731 H 23"/><rect class="sym" height="6" width="6" x="-3" y="-3"/><text class="lab" transform="translate(0 11)">14</text></g><g class="a23 i18 leaf node n18 p2 sample" transform="translate(23 2.18731)"><path class="edge" d="M 0 0 V -2.18731 H -23"/><rect class="sym" height="6" width="6" x="-3" y="-3"/><text class="lab" transform="translate(0 11)">18</text></g><path class="edge" d="M 0 0 V -2.06243 H -34.5"/><circle class="sym" cx="0" cy="0" r="3"/><text class="lab rgt" transform="translate(3 -7)">23</text></g><path class="edge" d="M 0 0 V -62.61 H -148.062"/><g class="mut m2 s2" transform="translate(0 -59.0589)"><line x1="0" x2="0" y1="0" y2="59.0589"/><path class="sym" d="M -3,-3 l 6,6 M -3,3 l 6,-6"/><text class="lab rgt" transform="translate(5 0)">2</text></g><circle class="sym" cx="0" cy="0" r="3"/><text class="lab rgt" transform="translate(3 -7)">25</text></g><g class="a36 c2 node n35 p2" transform="translate(-148.062 46.5791)"><g class="a35 c2 node n27 p2" transform="translate(192.625 15.016)"><g class="a27 i11 leaf node n11 p2 sample" transform="translate(-23 5.26471)"><path class="edge" d="M 0 0 V -5.26471 H 23"/><rect class="sym" height="6" width="6" x="-3" y="-3"/><text class="lab" transform="translate(0 11)">11</text></g><g class="a27 i16 leaf node n16 p2 sample" transform="translate(23 5.26471)"><path class="edge" d="M 0 0 V -5.26471 H -23"/><rect class="sym" height="6" width="6" x="-3" y="-3"/><text class="lab" transform="translate(0 11)">16</text></g><path class="edge" d="M 0 0 V -15.016 H -192.625"/><circle class="sym" cx="0" cy="0" r="3"/><text class="lab rgt" transform="translate(3 -7)">27</text></g><g class="a35 c2 node n34 p1" transform="translate(-192.625 0.912268)"><g class="a34 c2 node n29 p1" transform="translate(-166.75 9.69964)"><g class="a29 c2 node n21 p2" transform="translate(46 8.58692)"><g class="a21 i5 leaf node n5 p1 sample" transform="translate(-23 1.08187)"><path class="edge" d="M 0 0 V -1.08187 H 23"/><rect class="sym" height="6" width="6" x="-3" y="-3"/><text class="lab" transform="translate(0 11)">5</text></g><g class="a21 i15 leaf node n15 p2 sample" transform="translate(23 1.08187)"><path class="edge" d="M 0 0 V -1.08187 H -23"/><rect class="sym" height="6" width="6" x="-3" y="-3"/><text class="lab" transform="translate(0 11)">15</text></g><path class="edge" d="M 0 0 V -8.58692 H -46"/><circle class="sym" cx="0" cy="0" r="3"/><text class="lab rgt" transform="translate(3 -7)">21</text></g><g class="a29 c2 node n24 p2" transform="translate(-46 6.17235)"><g class="a24 i0 leaf node n0 p1 sample" transform="translate(-23 3.49645)"><path class="edge" d="M 0 0 V -3.49645 H 23"/><rect class="sym" height="6" width="6" x="-3" y="-3"/><text class="lab" transform="translate(0 11)">0</text></g><g class="a24 i1 leaf node n1 p1 sample" transform="translate(23 3.49645)"><path class="edge" d="M 0 0 V -3.49645 H -23"/><rect class="sym" height="6" width="6" x="-3" y="-3"/><text class="lab" transform="translate(0 11)">1</text></g><path class="edge" d="M 0 0 V -6.17235 H 46"/><circle class="sym" cx="0" cy="0" r="3"/><text class="lab lft" transform="translate(-3 -7)">24</text></g><path class="edge" d="M 0 0 V -9.69964 H 166.75"/><circle class="sym" cx="0" cy="0" r="3"/><text class="lab lft" transform="translate(-3 -7)">29</text></g><g class="a34 c2 node n33 p1" transform="translate(166.75 0.995002)"><g class="a33 c2 node n31 p2" transform="translate(92 4.40282)"><g class="a31 i8 leaf m3 node n8 p1 s3 sample" transform="translate(-34.5 13.9706)"><path class="edge" d="M 0 0 V -13.9706 H 34.5"/><g class="mut m3 s3" transform="translate(0 -6.90527)"><line x1="0" x2="0" y1="0" y2="6.90527"/><path class="sym" d="M -3,-3 l 6,6 M -3,3 l 6,-6"/><text class="lab lft" transform="translate(-5 0)">3</text></g><rect class="sym" height="6" width="6" x="-3" y="-3"/><text class="lab" transform="translate(0 11)">8</text></g><g class="a31 c2 m1 node n30 p1 s1" transform="translate(34.5 2.1949)"><g class="a30 i17 leaf node n17 p2 sample" transform="translate(-23 11.7757)"><path class="edge" d="M 0 0 V -11.7757 H 23"/><rect class="sym" height="6" width="6" x="-3" y="-3"/><text class="lab" transform="translate(0 11)">17</text></g><g class="a30 i19 leaf m0 node n19 p2 s0 sample" transform="translate(23 11.7757)"><path class="edge" d="M 0 0 V -11.7757 H -23"/><g class="mut m0 s0" transform="translate(0 -0.110622)"><line x1="0" x2="0" y1="0" y2="0.110622"/><path class="sym" d="M -3,-3 l 6,6 M -3,3 l 6,-6"/><text class="lab rgt" transform="translate(5 0)">0</text></g><rect class="sym" height="6" width="6" x="-3" y="-3"/><text class="lab" transform="translate(0 11)">19</text></g><path class="edge" d="M 0 0 V -2.1949 H -34.5"/><g class="mut m1 s1" transform="translate(0 -0.393122)"><line x1="0" x2="0" y1="0" y2="0.393122"/><path class="sym" d="M -3,-3 l 6,6 M -3,3 l 6,-6"/><text class="lab rgt" transform="translate(5 0)">1</text></g><circle class="sym" cx="0" cy="0" r="3"/><text class="lab rgt" transform="translate(3 -7)">30</text></g><path class="edge" d="M 0 0 V -4.40282 H -92"/><circle class="sym" cx="0" cy="0" r="3"/><text class="lab rgt" transform="translate(3 -7)">31</text></g><g class="a33 c2 node n32 p1" transform="translate(-92 2.87908)"><g class="a32 c2 node n22 p2" transform="translate(69 14.0415)"><g class="a22 i10 leaf node n10 p2 sample" transform="translate(34.5 1.45287)"><path class="edge" d="M 0 0 V -1.45287 H -34.5"/><rect class="sym" height="6" width="6" x="-3" y="-3"/><text class="lab" transform="translate(0 11)">10</text></g><g class="a22 c2 node n20 p1" transform="translate(-34.5 1.07229)"><g class="a20 i9 leaf node n9 p1 sample" transform="translate(-23 0.380581)"><path class="edge" d="M 0 0 V -0.380581 H 23"/><rect class="sym" height="6" width="6" x="-3" y="-3"/><text class="lab" transform="translate(0 11)">9</text></g><g class="a20 i12 leaf node n12 p2 sample" transform="translate(23 0.380581)"><path class="edge" d="M 0 0 V -0.380581 H -23"/><rect class="sym" height="6" width="6" x="-3" y="-3"/><text class="lab" transform="translate(0 11)">12</text></g><path class="edge" d="M 0 0 V -1.07229 H 34.5"/><circle class="sym" cx="0" cy="0" r="3"/><text class="lab lft" transform="translate(-3 -7)">20</text></g><path class="edge" d="M 0 0 V -14.0415 H -69"/><circle class="sym" cx="0" cy="0" r="3"/><text class="lab rgt" transform="translate(3 -7)">22</text></g><g class="a32 c2 node n28 p1" transform="translate(-69 7.7136)"><g class="a28 i4 leaf node n4 p1 sample" transform="translate(34.5 7.78075)"><path class="edge" d="M 0 0 V -7.78075 H -34.5"/><rect class="sym" height="6" width="6" x="-3" y="-3"/><text class="lab" transform="translate(0 11)">4</text></g><g class="a28 c2 node n26 p1" transform="translate(-34.5 2.69912)"><g class="a26 i2 leaf node n2 p1 sample" transform="translate(-23 5.08163)"><path class="edge" d="M 0 0 V -5.08163 H 23"/><rect class="sym" height="6" width="6" x="-3" y="-3"/><text class="lab" transform="translate(0 11)">2</text></g><g class="a26 i6 leaf node n6 p1 sample" transform="translate(23 5.08163)"><path class="edge" d="M 0 0 V -5.08163 H -23"/><rect class="sym" height="6" width="6" x="-3" y="-3"/><text class="lab" transform="translate(0 11)">6</text></g><path class="edge" d="M 0 0 V -2.69912 H 34.5"/><circle class="sym" cx="0" cy="0" r="3"/><text class="lab lft" transform="translate(-3 -7)">26</text></g><path class="edge" d="M 0 0 V -7.7136 H 69"/><circle class="sym" cx="0" cy="0" r="3"/><text class="lab lft" transform="translate(-3 -7)">28</text></g><path class="edge" d="M 0 0 V -2.87908 H 92"/><circle class="sym" cx="0" cy="0" r="3"/><text class="lab lft" transform="translate(-3 -7)">32</text></g><path class="edge" d="M 0 0 V -0.995002 H -166.75"/><circle class="sym" cx="0" cy="0" r="3"/><text class="lab rgt" transform="translate(3 -7)">33</text></g><path class="edge" d="M 0 0 V -0.912268 H 192.625"/><circle class="sym" cx="0" cy="0" r="3"/><text class="lab lft" transform="translate(-3 -7)">34</text></g><path class="edge" d="M 0 0 V -46.5791 H 148.062"/><circle class="sym" cx="0" cy="0" r="3"/><text class="lab lft" transform="translate(-3 -7)">35</text></g><path class="edge" d="M 0 0 V -0.319857 H 125.781"/><circle class="sym" cx="0" cy="0" r="3"/><text class="lab lft" transform="translate(-3 -7)">36</text></g><path class="edge" d="M 0 0 V -227.42 H 85.8906"/><g class="mut m5 s5" transform="translate(0 -60.5384)"><line x1="0" x2="0" y1="0" y2="60.5384"/><path class="sym" d="M -3,-3 l 6,6 M -3,3 l 6,-6"/><text class="lab lft" transform="translate(-5 0)">5</text></g><g class="mut m7 s7" transform="translate(0 -53.5841)"><line x1="0" x2="0" y1="0" y2="53.5841"/><path class="sym" d="M -3,-3 l 6,6 M -3,3 l 6,-6"/><text class="lab lft" transform="translate(-5 0)">7</text></g><circle class="sym" cx="0" cy="0" r="3"/><text class="lab lft" transform="translate(-3 -7)">37</text></g><circle class="sym" cx="0" cy="0" r="3"/><text class="lab" transform="translate(0 -11)">38</text></g></g></g></g></g></svg>