<svg baseProfile="full" height="400" version="1.1" width="1000" xmlns="http://www.w3.org/2000/svg" xmlns:ev="http://www.w3.org/2001/xml-events" xmlns:xlink="http://www.w3.org/1999/xlink"><defs><style type="text/css"><![CDATA[.background path {fill: #808080; fill-opacity: 0}.background path:nth-child(odd) {fill-opacity: .1}.x-regions rect {fill: yellow; stroke: black; opacity: 0.5}.axes {font-size: 14px}.x-axis .tick .lab {font-weight: bold; dominant-baseline: hanging}.axes, .tree {font-size: 14px; text-anchor: middle}.axes line, .edge {stroke: black; fill: none}.axes .ax-skip {stroke-dasharray: 4}.y-axis .grid {stroke: #FAFAFA}.node > .sym {fill: black; stroke: none}.site > .sym {stroke: black}.mut text {fill: red; font-style: italic}.mut.extra text {fill: hotpink}.mut line {fill: none; stroke: none}.mut .sym {fill: none; stroke: red}.mut.extra .sym {stroke: hotpink}.node .mut .sym {stroke-width: 1.5px}.tree text, .tree-sequence text {dominant-baseline: central}.plotbox .lab.lft {text-anchor: end}.plotbox .lab.rgt {text-anchor: start}.polytomy line {stroke: black; stroke-dasharray: 1px, 1px}.polytomy text {paint-order:stroke;stroke-width:0.3em;stroke:white}]]></style></defs><g class="tree-sequence"><g class="background"><path d="M20,0 l960,0 l0,338.2 l0,25 l0,5 l-960,0 l0,-5 l0,-25 l0,-338.2z"/></g><g class="axes"><g class="x-axis"><g class="title" transform="translate(500 400)"><text class="lab" text-anchor="middle" transform="translate(0 -11)">Genome position</text></g><line class="ax-line" x1="20" x2="980" y1="363.2" y2="363.2"/><g class="ticks"><g class="tick" transform="translate(20 363.2)"><line x1="0" x2="0" y1="0" y2="5"/><g transform="translate(0 6)"><text class="lab">0</text></g></g><g class="tick" transform="translate(980 363.2)"><line x1="0" x2="0" y1="0" y2="5"/><g transform="translate(0 6)"><text class="lab">1000</text></g></g></g><g class="site s0" transform="translate(35.36 363.2)"><line class="sym" x1="0" x2="0" y1="0" y2="-10"/><g class="mut m0"><polyline class="sym" points="2.5,-6.5 0,-1.5 -2.5,-6.5"/></g></g><g class="site s1" transform="translate(509.6 363.2)"><line class="sym" x1="0" x2="0" y1="0" y2="-10"/><g class="mut m1"><polyline class="sym" points="2.5,-6.5 0,-1.5 -2.5,-6.5"/></g></g></g></g><g class="plotbox trees"><g class="tree t0" transform="translate(20 0)"><g class="plotbox"><g class="c2 node n38 p1 root" transform="translate(393.031 26.8)"><g class="a38 c2 node n36 p1" transform="translate(171.781 29.2857)"><g class="a36 c2 node n32 p1" transform="translate(-176.812 172.748)"><g class="a32 c2 m1 node n20 p1 s1" transform="translate(46 89.4259)"><g class="a20 i3 leaf node n3 p1 sample" transform="translate(-23 3.14032)"><path class="edge" d="M 0 0 V -3.14032 H 23"/><rect class="sym" height="6" width="6" x="-3" y="-3"/><text class="lab" transform="translate(0 11)">3</text></g><g class="a20 i7 leaf node n7 p1 sample" transform="translate(23 3.14032)"><path class="edge" d="M 0 0 V -3.14032 H -23"/><rect class="sym" height="6" width="6" x="-3" y="-3"/><text class="lab" transform="translate(0 11)">7</text></g><path class="edge" d="M 0 0 V -89.4259 H -46"/><g class="mut m1 s1" transform="translate(0 -77.7482)"><line x1="0" x2="0" y1="0" y2="77.7482"/><path class="sym" d="M -3,-3 l 6,6 M -3,3 l 6,-6"/><text class="lab rgt" transform="translate(5 0)">1</text></g><circle class="sym" cx="0" cy="0" r="3"/><text class="lab rgt" transform="translate(3 -7)">20</text></g><g class="a32 c2 node n22 p1" transform="translate(-46 83.8586)"><g class="a22 i1 leaf node n1 p1 sample" transform="translate(-23 8.70759)"><path class="edge" d="M 0 0 V -8.70759 H 23"/><rect class="sym" height="6" width="6" x="-3" y="-3"/><text class="lab" transform="translate(0 11)">1</text></g><g class="a22 i14 leaf node n14 p2 sample" transform="translate(23 8.70759)"><path class="edge" d="M 0 0 V -8.70759 H -23"/><rect class="sym" height="6" width="6" x="-3" y="-3"/><text class="lab" transform="translate(0 11)">14</text></g><path class="edge" d="M 0 0 V -83.8586 H 46"/><circle class="sym" cx="0" cy="0" r="3"/><text class="lab lft" transform="translate(-3 -7)">22</text></g><path class="edge" d="M 0 0 V -172.748 H 176.812"/><circle class="sym" cx="0" cy="0" r="3"/><text class="lab lft" transform="translate(-3 -7)">32</text></g><g class="a36 c2 node n35 p2" transform="translate(176.812 90.0936)"><g class="a35 c2 node n30 p1" transform="translate(117.875 112.408)"><g class="a30 i15 leaf node n15 p2 sample" transform="translate(-34.5 62.8125)"><path class="edge" d="M 0 0 V -62.8125 H 34.5"/><rect class="sym" height="6" width="6" x="-3" y="-3"/><text class="lab" transform="translate(0 11)">15</text></g><g class="a30 c2 node n21 p1" transform="translate(34.5 56.8746)"><g class="a21 i17 leaf node n17 p2 sample" transform="translate(-23 5.93792)"><path class="edge" d="M 0 0 V -5.93792 H 23"/><rect class="sym" height="6" width="6" x="-3" y="-3"/><text class="lab" transform="translate(0 11)">17</text></g><g class="a21 i18 leaf node n18 p2 sample" transform="translate(23 5.93792)"><path class="edge" d="M 0 0 V -5.93792 H -23"/><rect class="sym" height="6" width="6" x="-3" y="-3"/><text class="lab" transform="translate(0 11)">18</text></g><path class="edge" d="M 0 0 V -56.8746 H -34.5"/><circle class="sym" cx="0" cy="0" r="3"/><text class="lab rgt" transform="translate(3 -7)">21</text></g><path class="edge" d="M 0 0 V -112.408 H -117.875"/><circle class="sym" cx="0" cy="0" r="3"/><text class="lab rgt" transform="translate(3 -7)">30</text></g><g class="a35 c2 node n31 p1" transform="translate(-117.875 92.8273)"><g class="a31 c2 node n27 p2" transform="translate(-86.25 43.2675)"><g class="a27 i2 leaf node n2 p1 sample" transform="translate(-34.5 39.126)"><path class="edge" d="M 0 0 V -39.126 H 34.5"/><rect class="sym" height="6" width="6" x="-3" y="-3"/><text class="lab" transform="translate(0 11)">2</text></g><g class="a27 c2 node n23 p2" transform="translate(34.5 22.798)"><g class="a23 i5 leaf node n5 p1 sample" transform="translate(-23 16.3279)"><path class="edge" d="M 0 0 V -16.3279 H 23"/><rect class="sym" height="6" width="6" x="-3" y="-3"/><text class="lab" transform="translate(0 11)">5</text></g><g class="a23 i16 leaf node n16 p2 sample" transform="translate(23 16.3279)"><path class="edge" d="M 0 0 V -16.3279 H -23"/><rect class="sym" height="6" width="6" x="-3" y="-3"/><text class="lab" transform="translate(0 11)">16</text></g><path class="edge" d="M 0 0 V -22.798 H -34.5"/><circle class="sym" cx="0" cy="0" r="3"/><text class="lab rgt" transform="translate(3 -7)">23</text></g><path class="edge" d="M 0 0 V -43.2675 H 86.25"/><circle class="sym" cx="0" cy="0" r="3"/><text class="lab lft" transform="translate(-3 -7)">27</text></g><g class="a31 c2 node n28 p1" transform="translate(86.25 41.8043)"><g class="a28 c2 node n24 p1" transform="translate(46 21.6896)"><g class="a24 i8 leaf node n8 p1 sample" transform="translate(-23 18.8995)"><path class="edge" d="M 0 0 V -18.8995 H 23"/><rect class="sym" height="6" width="6" x="-3" y="-3"/><text class="lab" transform="translate(0 11)">8</text></g><g class="a24 i11 leaf node n11 p2 sample" transform="translate(23 18.8995)"><path class="edge" d="M 0 0 V -18.8995 H -23"/><rect class="sym" height="6" width="6" x="-3" y="-3"/><text class="lab" transform="translate(0 11)">11</text></g><path class="edge" d="M 0 0 V -21.6896 H -46"/><circle class="sym" cx="0" cy="0" r="3"/><text class="lab rgt" transform="translate(3 -7)">24</text></g><g class="a28 c2 node n25 p2" transform="translate(-46 8.65899)"><g class="a25 i4 leaf node n4 p1 sample" transform="translate(-23 31.9301)"><path class="edge" d="M 0 0 V -31.9301 H 23"/><rect class="sym" height="6" width="6" x="-3" y="-3"/><text class="lab" transform="translate(0 11)">4</text></g><g class="a25 i19 leaf node n19 p2 sample" transform="translate(23 31.9301)"><path class="edge" d="M 0 0 V -31.9301 H -23"/><rect class="sym" height="6" width="6" x="-3" y="-3"/><text class="lab" transform="translate(0 11)">19</text></g><path class="edge" d="M 0 0 V -8.65899 H 46"/><circle class="sym" cx="0" cy="0" r="3"/><text class="lab lft" transform="translate(-3 -7)">25</text></g><path class="edge" d="M 0 0 V -41.8043 H -86.25"/><circle class="sym" cx="0" cy="0" r="3"/><text class="lab rgt" transform="translate(3 -7)">28</text></g><path class="edge" d="M 0 0 V -92.8273 H 117.875"/><circle class="sym" cx="0" cy="0" r="3"/><text class="lab lft" transform="translate(-3 -7)">31</text></g><path class="edge" d="M 0 0 V -90.0936 H -176.812"/><circle class="sym" cx="0" cy="0" r="3"/><text class="lab rgt" transform="translate(3 -7)">35</text></g><path class="edge" d="M 0 0 V -29.2857 H -171.781"/><circle class="sym" cx="0" cy="0" r="3"/><text class="lab rgt" transform="translate(3 -7)">36</text></g><g class="a38 c2 node n37 p2" transform="translate(-171.781 20.4593)"><g class="a37 i13 leaf node n13 p2 sample" transform="translate(51.75 274.141)"><path class="edge" d="M 0 0 V -274.141 H -51.75"/><rect class="sym" height="6" width="6" x="-3" y="-3"/><text class="lab" transform="translate(0 11)">13</text></g><g class="a37 c2 node n34 p2" transform="translate(-51.75 128.841)"><g class="a34 i6 leaf m0 node n6 p1 s0 sample" transform="translate(57.5 145.299)"><path class="edge" d="M 0 0 V -145.299 H -57.5"/><g class="mut m0 s0" transform="translate(0 -50.2609)"><line x1="0" x2="0" y1="0" y2="50.2609"/><path class="sym" d="M -3,-3 l 6,6 M -3,3 l 6,-6"/><text class="lab rgt" transform="translate(5 0)">0</text></g><rect class="sym" height="6" width="6" x="-3" y="-3"/><text class="lab" transform="translate(0 11)">6</text></g><g class="a34 c2 node n33 p1" transform="translate(-57.5 34.3251)"><g class="a33 c2 node n26 p1" transform="translate(46 75.6)"><g class="a26 i9 leaf node n9 p1 sample" transform="translate(-23 35.3741)"><path class="edge" d="M 0 0 V -35.3741 H 23"/><rect class="sym" height="6" width="6" x="-3" y="-3"/><text class="lab" transform="translate(0 11)">9</text></g><g class="a26 i10 leaf node n10 p2 sample" transform="translate(23 35.3741)"><path class="edge" d="M 0 0 V -35.3741 H -23"/><rect class="sym" height="6" width="6" x="-3" y="-3"/><text class="lab" transform="translate(0 11)">10</text></g><path class="edge" d="M 0 0 V -75.6 H -46"/><circle class="sym" cx="0" cy="0" r="3"/><text class="lab rgt" transform="translate(3 -7)">26</text></g><g class="a33 c2 node n29 p2" transform="translate(-46 63.3098)"><g class="a29 i0 leaf node n0 p1 sample" transform="translate(-23 47.6643)"><path class="edge" d="M 0 0 V -47.6643 H 23"/><rect class="sym" height="6" width="6" x="-3" y="-3"/><text class="lab" transform="translate(0 11)">0</text></g><g class="a29 i12 leaf node n12 p2 sample" transform="translate(23 47.6643)"><path class="edge" d="M 0 0 V -47.6643 H -23"/><rect class="sym" height="6" width="6" x="-3" y="-3"/><text class="lab" transform="translate(0 11)">12</text></g><path class="edge" d="M 0 0 V -63.3098 H 46"/><circle class="sym" cx="0" cy="0" r="3"/><text class="lab lft" transform="translate(-3 -7)">29</text></g><path class="edge" d="M 0 0 V -34.3251 H 57.5"/><circle class="sym" cx="0" cy="0" r="3"/><text class="lab lft" transform="translate(-3 -7)">33</text></g><path class="edge" d="M 0 0 V -128.841 H 51.75"/><circle class="sym" cx="0" cy="0" r="3"/><text class="lab lft" transform="translate(-3 -7)">34</text></g><path class="edge" d="M 0 0 V -20.4593 H 171.781"/><circle class="sym" cx="0" cy="0" r="3"/><text class="lab lft" transform="translate(-3 -7)">37</text></g><circle class="sym" cx="0" cy="0" r="3"/><text class="lab" transform="translate(0 -11)">38</text></g></g></g></g></g></svg>