<svg baseProfile="full" height="400" version="1.1" width="1000" xmlns="http://www.w3.org/2000/svg" xmlns:ev="http://www.w3.org/2001/xml-events" xmlns:xlink="http://www.w3.org/1999/xlink"><defs><style type="text/css"><![CDATA[.background path {fill: #808080; fill-opacity: 0}.background path:nth-child(odd) {fill-opacity: .1}.x-regions rect {fill: yellow; stroke: black; opacity: 0.5}.axes {font-size: 14px}.x-axis .tick .lab {font-weight: bold; dominant-baseline: hanging}.axes, .tree {font-size: 14px; text-anchor: middle}.axes line, .edge {stroke: black; fill: none}.axes .ax-skip {stroke-dasharray: 4}.y-axis .grid {stroke: #FAFAFA}.node > .sym {fill: black; stroke: none}.site > .sym {stroke: black}.mut text {fill: red; font-style: italic}.mut.extra text {fill: hotpink}.mut line {fill: none; stroke: none}.mut .sym {fill: none; stroke: red}.mut.extra .sym {stroke: hotpink}.node .mut .sym {stroke-width: 1.5px}.tree text, .tree-sequence text {dominant-baseline: central}.plotbox .lab.lft {text-anchor: end}.plotbox .lab.rgt {text-anchor: start}.polytomy line {stroke: black; stroke-dasharray: 1px, 1px}.polytomy text {paint-order:stroke;stroke-width:0.3em;stroke:white}]]></style></defs><g class="tree-sequence"><g class="background"><path d="M20,0 l960,0 l0,338.2 l0,25 l0,5 l-960,0 l0,-5 l0,-25 l0,-338.2z"/></g><g class="axes"><g class="x-axis"><g class="title" transform="translate(500 400)"><text class="lab" text-anchor="middle" transform="translate(0 -11)">Genome position</text></g><line class="ax-line" x1="20" x2="980" y1="363.2" y2="363.2"/><g class="ticks"><g class="tick" transform="translate(20 363.2)"><line x1="0" x2="0" y1="0" y2="5"/><g transform="translate(0 6)"><text class="lab">0</text></g></g><g class="tick" transform="translate(980 363.2)"><line x1="0" x2="0" y1="0" y2="5"/><g transform="translate(0 6)"><text class="lab">1000</text></g></g></g><g class="site s0" transform="translate(164.96 363.2)"><line class="sym" x1="0" x2="0" y1="0" y2="-10"/><g class="mut m0"><polyline class="sym" points="2.5,-6.5 0,-1.5 -2.5,-6.5"/></g></g><g class="site s1" transform="translate(649.76 363.2)"><line class="sym" x1="0" x2="0" y1="0" y2="-10"/><g class="mut m1"><polyline class="sym" points="2.5,-6.5 0,-1.5 -2.5,-6.5"/></g></g></g></g><g class="plotbox trees"><g class="tree t0" transform="translate(20 0)"><g class="plotbox"><g class="c2 node n38 p2 root" transform="translate(686.641 26.8)"><g class="a38 c2 node n32 p2" transform="translate(207.359 209.135)"><g class="a32 i7 leaf node n7 p1 sample" transform="translate(-23 85.4652)"><path class="edge" d="M 0 0 V -85.4652 H 23"/><rect class="sym" height="6" width="6" x="-3" y="-3"/><text class="lab" transform="translate(0 11)">7</text></g><g class="a32 i17 leaf node n17 p2 sample" transform="translate(23 85.4652)"><path class="edge" d="M 0 0 V -85.4652 H -23"/><rect class="sym" height="6" width="6" x="-3" y="-3"/><text class="lab" transform="translate(0 11)">17</text></g><path class="edge" d="M 0 0 V -209.135 H -207.359"/><circle class="sym" cx="0" cy="0" r="3"/><text class="lab rgt" transform="translate(3 -7)">32</text></g><g class="a38 c2 node n37 p1" transform="translate(-207.359 75.6711)"><g class="a37 c2 node n35 p2" transform="translate(145.906 81.4304)"><g class="a35 c2 node n30 p2" transform="translate(-87.6875 87.3187)"><g class="a30 i1 leaf node n1 p1 sample" transform="translate(-34.5 50.1798)"><path class="edge" d="M 0 0 V -50.1798 H 34.5"/><rect class="sym" height="6" width="6" x="-3" y="-3"/><text class="lab" transform="translate(0 11)">1</text></g><g class="a30 c2 m0 node n22 p1 s0" transform="translate(34.5 47.1472)"><g class="a22 i15 leaf node n15 p2 sample" transform="translate(-23 3.03255)"><path class="edge" d="M 0 0 V -3.03255 H 23"/><rect class="sym" height="6" width="6" x="-3" y="-3"/><text class="lab" transform="translate(0 11)">15</text></g><g class="a22 i18 leaf node n18 p2 sample" transform="translate(23 3.03255)"><path class="edge" d="M 0 0 V -3.03255 H -23"/><rect class="sym" height="6" width="6" x="-3" y="-3"/><text class="lab" transform="translate(0 11)">18</text></g><path class="edge" d="M 0 0 V -47.1472 H -34.5"/><g class="mut m0 s0" transform="translate(0 -3.95417)"><line x1="0" x2="0" y1="0" y2="3.95417"/><path class="sym" d="M -3,-3 l 6,6 M -3,3 l 6,-6"/><text class="lab rgt" transform="translate(5 0)">0</text></g><circle class="sym" cx="0" cy="0" r="3"/><text class="lab rgt" transform="translate(3 -7)">22</text></g><path class="edge" d="M 0 0 V -87.3187 H 87.6875"/><circle class="sym" cx="0" cy="0" r="3"/><text class="lab lft" transform="translate(-3 -7)">30</text></g><g class="a35 c2 node n34 p2" transform="translate(87.6875 29.5906)"><g class="a34 i2 leaf node n2 p1 sample" transform="translate(-71.875 107.908)"><path class="edge" d="M 0 0 V -107.908 H 71.875"/><rect class="sym" height="6" width="6" x="-3" y="-3"/><text class="lab" transform="translate(0 11)">2</text></g><g class="a34 c2 node n29 p2" transform="translate(71.875 62.4773)"><g class="a29 i16 leaf node n16 p2 sample" transform="translate(40.25 45.4306)"><path class="edge" d="M 0 0 V -45.4306 H -40.25"/><rect class="sym" height="6" width="6" x="-3" y="-3"/><text class="lab" transform="translate(0 11)">16</text></g><g class="a29 c2 node n28 p2" transform="translate(-40.25 9.2384)"><g class="a28 i19 leaf node n19 p2 sample" transform="translate(34.5 36.1922)"><path class="edge" d="M 0 0 V -36.1922 H -34.5"/><rect class="sym" height="6" width="6" x="-3" y="-3"/><text class="lab" transform="translate(0 11)">19</text></g><g class="a28 c2 node n20 p1" transform="translate(-34.5 35.1856)"><g class="a20 i6 leaf node n6 p1 sample" transform="translate(-23 1.00665)"><path class="edge" d="M 0 0 V -1.00665 H 23"/><rect class="sym" height="6" width="6" x="-3" y="-3"/><text class="lab" transform="translate(0 11)">6</text></g><g class="a20 i14 leaf node n14 p2 sample" transform="translate(23 1.00665)"><path class="edge" d="M 0 0 V -1.00665 H -23"/><rect class="sym" height="6" width="6" x="-3" y="-3"/><text class="lab" transform="translate(0 11)">14</text></g><path class="edge" d="M 0 0 V -35.1856 H 34.5"/><circle class="sym" cx="0" cy="0" r="3"/><text class="lab lft" transform="translate(-3 -7)">20</text></g><path class="edge" d="M 0 0 V -9.2384 H 40.25"/><circle class="sym" cx="0" cy="0" r="3"/><text class="lab lft" transform="translate(-3 -7)">28</text></g><path class="edge" d="M 0 0 V -62.4773 H -71.875"/><circle class="sym" cx="0" cy="0" r="3"/><text class="lab rgt" transform="translate(3 -7)">29</text></g><path class="edge" d="M 0 0 V -29.5906 H -87.6875"/><circle class="sym" cx="0" cy="0" r="3"/><text class="lab rgt" transform="translate(3 -7)">34</text></g><path class="edge" d="M 0 0 V -81.4304 H -145.906"/><circle class="sym" cx="0" cy="0" r="3"/><text class="lab rgt" transform="translate(3 -7)">35</text></g><g class="a37 c2 node n36 p2" transform="translate(-145.906 74.5299)"><g class="a36 c2 node n31 p1" transform="translate(-89.125 84.9113)"><g class="a31 i13 leaf node n13 p2 sample" transform="translate(74.75 59.4877)"><path class="edge" d="M 0 0 V -59.4877 H -74.75"/><rect class="sym" height="6" width="6" x="-3" y="-3"/><text class="lab" transform="translate(0 11)">13</text></g><g class="a31 c2 node n26 p2" transform="translate(-74.75 31.8724)"><g class="a26 c2 node n24 p1" transform="translate(69 19.1598)"><g class="a24 i12 leaf node n12 p2 sample" transform="translate(34.5 8.45541)"><path class="edge" d="M 0 0 V -8.45541 H -34.5"/><rect class="sym" height="6" width="6" x="-3" y="-3"/><text class="lab" transform="translate(0 11)">12</text></g><g class="a24 c2 node n21 p1" transform="translate(-34.5 7.12807)"><g class="a21 i4 leaf node n4 p1 sample" transform="translate(-23 1.32734)"><path class="edge" d="M 0 0 V -1.32734 H 23"/><rect class="sym" height="6" width="6" x="-3" y="-3"/><text class="lab" transform="translate(0 11)">4</text></g><g class="a21 i9 leaf node n9 p1 sample" transform="translate(23 1.32734)"><path class="edge" d="M 0 0 V -1.32734 H -23"/><rect class="sym" height="6" width="6" x="-3" y="-3"/><text class="lab" transform="translate(0 11)">9</text></g><path class="edge" d="M 0 0 V -7.12807 H 34.5"/><circle class="sym" cx="0" cy="0" r="3"/><text class="lab lft" transform="translate(-3 -7)">21</text></g><path class="edge" d="M 0 0 V -19.1598 H -69"/><circle class="sym" cx="0" cy="0" r="3"/><text class="lab rgt" transform="translate(3 -7)">24</text></g><g class="a26 c2 node n25 p1" transform="translate(-69 15.6254)"><g class="a25 i10 leaf node n10 p2 sample" transform="translate(34.5 11.9898)"><path class="edge" d="M 0 0 V -11.9898 H -34.5"/><rect class="sym" height="6" width="6" x="-3" y="-3"/><text class="lab" transform="translate(0 11)">10</text></g><g class="a25 c2 node n23 p2" transform="translate(-34.5 3.82217)"><g class="a23 i0 leaf node n0 p1 sample" transform="translate(-23 8.16763)"><path class="edge" d="M 0 0 V -8.16763 H 23"/><rect class="sym" height="6" width="6" x="-3" y="-3"/><text class="lab" transform="translate(0 11)">0</text></g><g class="a23 i5 leaf node n5 p1 sample" transform="translate(23 8.16763)"><path class="edge" d="M 0 0 V -8.16763 H -23"/><rect class="sym" height="6" width="6" x="-3" y="-3"/><text class="lab" transform="translate(0 11)">5</text></g><path class="edge" d="M 0 0 V -3.82217 H 34.5"/><circle class="sym" cx="0" cy="0" r="3"/><text class="lab lft" transform="translate(-3 -7)">23</text></g><path class="edge" d="M 0 0 V -15.6254 H 69"/><circle class="sym" cx="0" cy="0" r="3"/><text class="lab lft" transform="translate(-3 -7)">25</text></g><path class="edge" d="M 0 0 V -31.8724 H 74.75"/><circle class="sym" cx="0" cy="0" r="3"/><text class="lab lft" transform="translate(-3 -7)">26</text></g><path class="edge" d="M 0 0 V -84.9113 H 89.125"/><circle class="sym" cx="0" cy="0" r="3"/><text class="lab lft" transform="translate(-3 -7)">31</text></g><g class="a36 c2 node n33 p2" transform="translate(89.125 57.8553)"><g class="a33 i8 leaf node n8 p1 sample" transform="translate(34.5 86.5436)"><path class="edge" d="M 0 0 V -86.5436 H -34.5"/><rect class="sym" height="6" width="6" x="-3" y="-3"/><text class="lab" transform="translate(0 11)">8</text></g><g class="a33 c2 node n27 p1" transform="translate(-34.5 50.7378)"><g class="a27 i3 leaf m1 node n3 p1 s1 sample" transform="translate(-23 35.8059)"><path class="edge" d="M 0 0 V -35.8059 H 23"/><g class="mut m1 s1" transform="translate(0 -5.67262)"><line x1="0" x2="0" y1="0" y2="5.67262"/><path class="sym" d="M -3,-3 l 6,6 M -3,3 l 6,-6"/><text class="lab lft" transform="translate(-5 0)">1</text></g><rect class="sym" height="6" width="6" x="-3" y="-3"/><text class="lab" transform="translate(0 11)">3</text></g><g class="a27 i11 leaf node n11 p2 sample" transform="translate(23 35.8059)"><path class="edge" d="M 0 0 V -35.8059 H -23"/><rect class="sym" height="6" width="6" x="-3" y="-3"/><text class="lab" transform="translate(0 11)">11</text></g><path class="edge" d="M 0 0 V -50.7378 H 34.5"/><circle class="sym" cx="0" cy="0" r="3"/><text class="lab lft" transform="translate(-3 -7)">27</text></g><path class="edge" d="M 0 0 V -57.8553 H -89.125"/><circle class="sym" cx="0" cy="0" r="3"/><text class="lab rgt" transform="translate(3 -7)">33</text></g><path class="edge" d="M 0 0 V -74.5299 H 145.906"/><circle class="sym" cx="0" cy="0" r="3"/><text class="lab lft" transform="translate(-3 -7)">36</text></g><path class="edge" d="M 0 0 V -75.6711 H 207.359"/><circle class="sym" cx="0" cy="0" r="3"/><text class="lab lft" transform="translate(-3 -7)">37</text></g><circle class="sym" cx="0" cy="0" r="3"/><text class="lab" transform="translate(0 -11)">38</text></g></g></g></g></g></svg>