<svg baseProfile="full" height="400" version="1.1" width="1000" xmlns="http://www.w3.org/2000/svg" xmlns:ev="http://www.w3.org/2001/xml-events" xmlns:xlink="http://www.w3.org/1999/xlink"><defs><style type="text/css"><![CDATA[.background path {fill: #808080; fill-opacity: 0}.background path:nth-child(odd) {fill-opacity: .1}.x-regions rect {fill: yellow; stroke: black; opacity: 0.5}.axes {font-size: 14px}.x-axis .tick .lab {font-weight: bold; dominant-baseline: hanging}.axes, .tree {font-size: 14px; text-anchor: middle}.axes line, .edge {stroke: black; fill: none}.axes .ax-skip {stroke-dasharray: 4}.y-axis .grid {stroke: #FAFAFA}.node > .sym {fill: black; stroke: none}.site > .sym {stroke: black}.mut text {fill: red; font-style: italic}.mut.extra text {fill: hotpink}.mut line {fill: none; stroke: none}.mut .sym {fill: none; stroke: red}.mut.extra .sym {stroke: hotpink}.node .mut .sym {stroke-width: 1.5px}.tree text, .tree-sequence text {dominant-baseline: central}.plotbox .lab.lft {text-anchor: end}.plotbox .lab.rgt {text-anchor: start}.polytomy line {stroke: black; stroke-dasharray: 1px, 1px}.polytomy text {paint-order:stroke;stroke-width:0.3em;stroke:white}]]></style></defs><g class="tree-sequence"><g class="background"><path d="M20,0 l960,0 l0,338.2 l0,25 l0,5 l-960,0 l0,-5 l0,-25 l0,-338.2z"/></g><g class="axes"><g class="x-axis"><g class="title" transform="translate(500 400)"><text class="lab" text-anchor="middle" transform="translate(0 -11)">Genome position</text></g><line class="ax-line" x1="20" x2="980" y1="363.2" y2="363.2"/><g class="ticks"><g class="tick" transform="translate(20 363.2)"><line x1="0" x2="0" y1="0" y2="5"/><g transform="translate(0 6)"><text class="lab">0</text></g></g><g class="tick" transform="translate(980 363.2)"><line x1="0" x2="0" y1="0" y2="5"/><g transform="translate(0 6)"><text class="lab">1000</text></g></g></g><g class="site s0" transform="translate(243.68 363.2)"><line class="sym" x1="0" x2="0" y1="0" y2="-10"/><g class="mut m0"><polyline class="sym" points="2.5,-6.5 0,-1.5 -2.5,-6.5"/></g></g></g></g><g class="plotbox trees"><g class="tree t0" transform="translate(20 0)"><g class="plotbox"><g class="c2 node n38 p0 root" transform="translate(483.953 26.8)"><g class="a38 c2 node n33 p1" transform="translate(-271.328 253.321)"><g class="a33 i8 leaf node n8 p1 sample" transform="translate(60.375 41.2793)"><path class="edge" d="M 0 0 V -41.2793 H -60.375"/><rect class="sym" height="6" width="6" x="-3" y="-3"/><text class="lab" transform="translate(0 11)">8</text></g><g class="a33 c2 node n26 p2" transform="translate(-60.375 26.0005)"><g class="a26 c2 node n20 p1" transform="translate(51.75 15.1047)"><g class="a20 i14 leaf node n14 p2 sample" transform="translate(-23 0.174089)"><path class="edge" d="M 0 0 V -0.174089 H 23"/><rect class="sym" height="6" width="6" x="-3" y="-3"/><text class="lab" transform="translate(0 11)">14</text></g><g class="a20 i17 leaf node n17 p2 sample" transform="translate(23 0.174089)"><path class="edge" d="M 0 0 V -0.174089 H -23"/><rect class="sym" height="6" width="6" x="-3" y="-3"/><text class="lab" transform="translate(0 11)">17</text></g><path class="edge" d="M 0 0 V -15.1047 H -51.75"/><circle class="sym" cx="0" cy="0" r="3"/><text class="lab rgt" transform="translate(3 -7)">20</text></g><g class="a26 c2 node n25 p2" transform="translate(-51.75 7.3455)"><g class="a25 i5 leaf node n5 p1 sample" transform="translate(34.5 7.93325)"><path class="edge" d="M 0 0 V -7.93325 H -34.5"/><rect class="sym" height="6" width="6" x="-3" y="-3"/><text class="lab" transform="translate(0 11)">5</text></g><g class="a25 c2 node n23 p2" transform="translate(-34.5 2.81415)"><g class="a23 i0 leaf node n0 p1 sample" transform="translate(-23 5.1191)"><path class="edge" d="M 0 0 V -5.1191 H 23"/><rect class="sym" height="6" width="6" x="-3" y="-3"/><text class="lab" transform="translate(0 11)">0</text></g><g class="a23 i11 leaf node n11 p2 sample" transform="translate(23 5.1191)"><path class="edge" d="M 0 0 V -5.1191 H -23"/><rect class="sym" height="6" width="6" x="-3" y="-3"/><text class="lab" transform="translate(0 11)">11</text></g><path class="edge" d="M 0 0 V -2.81415 H 34.5"/><circle class="sym" cx="0" cy="0" r="3"/><text class="lab lft" transform="translate(-3 -7)">23</text></g><path class="edge" d="M 0 0 V -7.3455 H 51.75"/><circle class="sym" cx="0" cy="0" r="3"/><text class="lab lft" transform="translate(-3 -7)">25</text></g><path class="edge" d="M 0 0 V -26.0005 H 60.375"/><circle class="sym" cx="0" cy="0" r="3"/><text class="lab lft" transform="translate(-3 -7)">26</text></g><path class="edge" d="M 0 0 V -253.321 H 271.328"/><circle class="sym" cx="0" cy="0" r="3"/><text class="lab lft" transform="translate(-3 -7)">33</text></g><g class="a38 c2 node n37 p0" transform="translate(271.328 139.225)"><g class="a37 c2 m0 node n32 p2 s0" transform="translate(121.469 116.964)"><g class="a32 i7 leaf node n7 p1 sample" transform="translate(40.25 38.4103)"><path class="edge" d="M 0 0 V -38.4103 H -40.25"/><rect class="sym" height="6" width="6" x="-3" y="-3"/><text class="lab" transform="translate(0 11)">7</text></g><g class="a32 c2 node n29 p2" transform="translate(-40.25 13.6995)"><g class="a29 i4 leaf node n4 p1 sample" transform="translate(34.5 24.7108)"><path class="edge" d="M 0 0 V -24.7108 H -34.5"/><rect class="sym" height="6" width="6" x="-3" y="-3"/><text class="lab" transform="translate(0 11)">4</text></g><g class="a29 c2 node n22 p2" transform="translate(-34.5 21.0174)"><g class="a22 i3 leaf node n3 p1 sample" transform="translate(-23 3.69347)"><path class="edge" d="M 0 0 V -3.69347 H 23"/><rect class="sym" height="6" width="6" x="-3" y="-3"/><text class="lab" transform="translate(0 11)">3</text></g><g class="a22 i13 leaf node n13 p2 sample" transform="translate(23 3.69347)"><path class="edge" d="M 0 0 V -3.69347 H -23"/><rect class="sym" height="6" width="6" x="-3" y="-3"/><text class="lab" transform="translate(0 11)">13</text></g><path class="edge" d="M 0 0 V -21.0174 H 34.5"/><circle class="sym" cx="0" cy="0" r="3"/><text class="lab lft" transform="translate(-3 -7)">22</text></g><path class="edge" d="M 0 0 V -13.6995 H 40.25"/><circle class="sym" cx="0" cy="0" r="3"/><text class="lab lft" transform="translate(-3 -7)">29</text></g><path class="edge" d="M 0 0 V -116.964 H -121.469"/><g class="mut m0 s0" transform="translate(0 -47.479)"><line x1="0" x2="0" y1="0" y2="47.479"/><path class="sym" d="M -3,-3 l 6,6 M -3,3 l 6,-6"/><text class="lab rgt" transform="translate(5 0)">0</text></g><circle class="sym" cx="0" cy="0" r="3"/><text class="lab rgt" transform="translate(3 -7)">32</text></g><g class="a37 c2 node n36 p1" transform="translate(-121.469 72.9174)"><g class="a36 c2 node n31 p2" transform="translate(76.1875 54.6699)"><g class="a31 i9 leaf node n9 p1 sample" transform="translate(-23 27.7873)"><path class="edge" d="M 0 0 V -27.7873 H 23"/><rect class="sym" height="6" width="6" x="-3" y="-3"/><text class="lab" transform="translate(0 11)">9</text></g><g class="a31 i10 leaf node n10 p2 sample" transform="translate(23 27.7873)"><path class="edge" d="M 0 0 V -27.7873 H -23"/><rect class="sym" height="6" width="6" x="-3" y="-3"/><text class="lab" transform="translate(0 11)">10</text></g><path class="edge" d="M 0 0 V -54.6699 H -76.1875"/><circle class="sym" cx="0" cy="0" r="3"/><text class="lab rgt" transform="translate(3 -7)">31</text></g><g class="a36 c2 node n35 p2" transform="translate(-76.1875 24.8254)"><g class="a35 i2 leaf node n2 p1 sample" transform="translate(83.375 57.6318)"><path class="edge" d="M 0 0 V -57.6318 H -83.375"/><rect class="sym" height="6" width="6" x="-3" y="-3"/><text class="lab" transform="translate(0 11)">2</text></g><g class="a35 c2 node n34 p2" transform="translate(-83.375 16.1502)"><g class="a34 c2 node n28 p2" transform="translate(86.25 22.6515)"><g class="a28 i16 leaf node n16 p2 sample" transform="translate(34.5 18.8301)"><path class="edge" d="M 0 0 V -18.8301 H -34.5"/><rect class="sym" height="6" width="6" x="-3" y="-3"/><text class="lab" transform="translate(0 11)">16</text></g><g class="a28 c2 node n24 p2" transform="translate(-34.5 13.3252)"><g class="a24 i12 leaf node n12 p2 sample" transform="translate(-23 5.50498)"><path class="edge" d="M 0 0 V -5.50498 H 23"/><rect class="sym" height="6" width="6" x="-3" y="-3"/><text class="lab" transform="translate(0 11)">12</text></g><g class="a24 i18 leaf node n18 p2 sample" transform="translate(23 5.50498)"><path class="edge" d="M 0 0 V -5.50498 H -23"/><rect class="sym" height="6" width="6" x="-3" y="-3"/><text class="lab" transform="translate(0 11)">18</text></g><path class="edge" d="M 0 0 V -13.3252 H 34.5"/><circle class="sym" cx="0" cy="0" r="3"/><text class="lab lft" transform="translate(-3 -7)">24</text></g><path class="edge" d="M 0 0 V -22.6515 H -86.25"/><circle class="sym" cx="0" cy="0" r="3"/><text class="lab rgt" transform="translate(3 -7)">28</text></g><g class="a34 c2 node n30 p1" transform="translate(-86.25 15.272)"><g class="a30 c2 node n21 p1" transform="translate(-46 22.5624)"><g class="a21 i1 leaf node n1 p1 sample" transform="translate(-23 3.64729)"><path class="edge" d="M 0 0 V -3.64729 H 23"/><rect class="sym" height="6" width="6" x="-3" y="-3"/><text class="lab" transform="translate(0 11)">1</text></g><g class="a21 i15 leaf node n15 p2 sample" transform="translate(23 3.64729)"><path class="edge" d="M 0 0 V -3.64729 H -23"/><rect class="sym" height="6" width="6" x="-3" y="-3"/><text class="lab" transform="translate(0 11)">15</text></g><path class="edge" d="M 0 0 V -22.5624 H 46"/><circle class="sym" cx="0" cy="0" r="3"/><text class="lab lft" transform="translate(-3 -7)">21</text></g><g class="a30 c2 node n27 p2" transform="translate(46 7.42424)"><g class="a27 i6 leaf node n6 p1 sample" transform="translate(-23 18.7855)"><path class="edge" d="M 0 0 V -18.7855 H 23"/><rect class="sym" height="6" width="6" x="-3" y="-3"/><text class="lab" transform="translate(0 11)">6</text></g><g class="a27 i19 leaf node n19 p2 sample" transform="translate(23 18.7855)"><path class="edge" d="M 0 0 V -18.7855 H -23"/><rect class="sym" height="6" width="6" x="-3" y="-3"/><text class="lab" transform="translate(0 11)">19</text></g><path class="edge" d="M 0 0 V -7.42424 H -46"/><circle class="sym" cx="0" cy="0" r="3"/><text class="lab rgt" transform="translate(3 -7)">27</text></g><path class="edge" d="M 0 0 V -15.272 H 86.25"/><circle class="sym" cx="0" cy="0" r="3"/><text class="lab lft" transform="translate(-3 -7)">30</text></g><path class="edge" d="M 0 0 V -16.1502 H 83.375"/><circle class="sym" cx="0" cy="0" r="3"/><text class="lab lft" transform="translate(-3 -7)">34</text></g><path class="edge" d="M 0 0 V -24.8254 H 76.1875"/><circle class="sym" cx="0" cy="0" r="3"/><text class="lab lft" transform="translate(-3 -7)">35</text></g><path class="edge" d="M 0 0 V -72.9174 H 121.469"/><circle class="sym" cx="0" cy="0" r="3"/><text class="lab lft" transform="translate(-3 -7)">36</text></g><path class="edge" d="M 0 0 V -139.225 H -271.328"/><circle class="sym" cx="0" cy="0" r="3"/><text class="lab rgt" transform="translate(3 -7)">37</text></g><circle class="sym" cx="0" cy="0" r="3"/><text class="lab" transform="translate(0 -11)">38</text></g></g></g></g></g></svg>