<svg baseProfile="full" height="400" version="1.1" width="1000" xmlns="http://www.w3.org/2000/svg" xmlns:ev="http://www.w3.org/2001/xml-events" xmlns:xlink="http://www.w3.org/1999/xlink"><defs><style type="text/css"><![CDATA[.background path {fill: #808080; fill-opacity: 0}.background path:nth-child(odd) {fill-opacity: .1}.x-regions rect {fill: yellow; stroke: black; opacity: 0.5}.axes {font-size: 14px}.x-axis .tick .lab {font-weight: bold; dominant-baseline: hanging}.axes, .tree {font-size: 14px; text-anchor: middle}.axes line, .edge {stroke: black; fill: none}.axes .ax-skip {stroke-dasharray: 4}.y-axis .grid {stroke: #FAFAFA}.node > .sym {fill: black; stroke: none}.site > .sym {stroke: black}.mut text {fill: red; font-style: italic}.mut.extra text {fill: hotpink}.mut line {fill: none; stroke: none}.mut .sym {fill: none; stroke: red}.mut.extra .sym {stroke: hotpink}.node .mut .sym {stroke-width: 1.5px}.tree text, .tree-sequence text {dominant-baseline: central}.plotbox .lab.lft {text-anchor: end}.plotbox .lab.rgt {text-anchor: start}.polytomy line {stroke: black; stroke-dasharray: 1px, 1px}.polytomy text {paint-order:stroke;stroke-width:0.3em;stroke:white}]]></style></defs><g class="tree-sequence"><g class="background"><path d="M20,0 l960,0 l0,338.2 l0,25 l0,5 l-960,0 l0,-5 l0,-25 l0,-338.2z"/></g><g class="axes"><g class="x-axis"><g class="title" transform="translate(500 400)"><text class="lab" text-anchor="middle" transform="translate(0 -11)">Genome position</text></g><line class="ax-line" x1="20" x2="980" y1="363.2" y2="363.2"/><g class="ticks"><g class="tick" transform="translate(20 363.2)"><line x1="0" x2="0" y1="0" y2="5"/><g transform="translate(0 6)"><text class="lab">0</text></g></g><g class="tick" transform="translate(980 363.2)"><line x1="0" x2="0" y1="0" y2="5"/><g transform="translate(0 6)"><text class="lab">1000</text></g></g></g><g class="site s0" transform="translate(104.48 363.2)"><line class="sym" x1="0" x2="0" y1="0" y2="-10"/><g class="mut m0"><polyline class="sym" points="2.5,-6.5 0,-1.5 -2.5,-6.5"/></g></g><g class="site s1" transform="translate(308.96 363.2)"><line class="sym" x1="0" x2="0" y1="0" y2="-10"/><g class="mut m1"><polyline class="sym" points="2.5,-6.5 0,-1.5 -2.5,-6.5"/></g></g><g class="site s2" transform="translate(374.24 363.2)"><line class="sym" x1="0" x2="0" y1="0" y2="-10"/><g class="mut m2"><polyline class="sym" points="2.5,-6.5 0,-1.5 -2.5,-6.5"/></g></g><g class="site s3" transform="translate(849.44 363.2)"><line class="sym" x1="0" x2="0" y1="0" y2="-10"/><g class="mut m3"><polyline class="sym" points="2.5,-6.5 0,-1.5 -2.5,-6.5"/></g></g></g></g><g class="plotbox trees"><g class="tree t0" transform="translate(20 0)"><g class="plotbox"><g class="c2 node n38 p0 root" transform="translate(641.898 26.8)"><g class="a38 c2 m0 node n36 p1 s0" transform="translate(-211.852 218.657)"><g class="a36 c2 node n30 p1" transform="translate(95.9531 60.3207)"><g class="a30 i7 leaf node n7 p1 sample" transform="translate(-23 15.6224)"><path class="edge" d="M 0 0 V -15.6224 H 23"/><rect class="sym" height="6" width="6" x="-3" y="-3"/><text class="lab" transform="translate(0 11)">7</text></g><g class="a30 i10 leaf node n10 p2 sample" transform="translate(23 15.6224)"><path class="edge" d="M 0 0 V -15.6224 H -23"/><rect class="sym" height="6" width="6" x="-3" y="-3"/><text class="lab" transform="translate(0 11)">10</text></g><path class="edge" d="M 0 0 V -60.3207 H -95.9531"/><circle class="sym" cx="0" cy="0" r="3"/><text class="lab rgt" transform="translate(3 -7)">30</text></g><g class="a36 c2 node n34 p2" transform="translate(-95.9531 38.5838)"><g class="a34 c2 node n32 p2" transform="translate(88.4062 12.558)"><g class="a32 i17 leaf node n17 p2 sample" transform="translate(34.5 24.8014)"><path class="edge" d="M 0 0 V -24.8014 H -34.5"/><rect class="sym" height="6" width="6" x="-3" y="-3"/><text class="lab" transform="translate(0 11)">17</text></g><g class="a32 c2 node n29 p2" transform="translate(-34.5 10.0498)"><g class="a29 i6 leaf node n6 p1 sample" transform="translate(-23 14.7515)"><path class="edge" d="M 0 0 V -14.7515 H 23"/><rect class="sym" height="6" width="6" x="-3" y="-3"/><text class="lab" transform="translate(0 11)">6</text></g><g class="a29 i16 leaf node n16 p2 sample" transform="translate(23 14.7515)"><path class="edge" d="M 0 0 V -14.7515 H -23"/><rect class="sym" height="6" width="6" x="-3" y="-3"/><text class="lab" transform="translate(0 11)">16</text></g><path class="edge" d="M 0 0 V -10.0498 H 34.5"/><circle class="sym" cx="0" cy="0" r="3"/><text class="lab lft" transform="translate(-3 -7)">29</text></g><path class="edge" d="M 0 0 V -12.558 H -88.4062"/><circle class="sym" cx="0" cy="0" r="3"/><text class="lab rgt" transform="translate(3 -7)">32</text></g><g class="a34 c2 node n33 p1" transform="translate(-88.4062 1.60123)"><g class="a33 i2 leaf node n2 p1 sample" transform="translate(73.3125 35.7581)"><path class="edge" d="M 0 0 V -35.7581 H -73.3125"/><rect class="sym" height="6" width="6" x="-3" y="-3"/><text class="lab" transform="translate(0 11)">2</text></g><g class="a33 c2 node n28 p2" transform="translate(-73.3125 21.7624)"><g class="a28 c2 node n24 p1" transform="translate(77.625 9.77746)"><g class="a24 i5 leaf node n5 p1 sample" transform="translate(-23 4.21824)"><path class="edge" d="M 0 0 V -4.21824 H 23"/><rect class="sym" height="6" width="6" x="-3" y="-3"/><text class="lab" transform="translate(0 11)">5</text></g><g class="a24 i19 leaf node n19 p2 sample" transform="translate(23 4.21824)"><path class="edge" d="M 0 0 V -4.21824 H -23"/><rect class="sym" height="6" width="6" x="-3" y="-3"/><text class="lab" transform="translate(0 11)">19</text></g><path class="edge" d="M 0 0 V -9.77746 H -77.625"/><circle class="sym" cx="0" cy="0" r="3"/><text class="lab rgt" transform="translate(3 -7)">24</text></g><g class="a28 c2 node n25 p2" transform="translate(-77.625 4.86035)"><g class="a25 i0 leaf m1 node n0 p1 s1 sample" transform="translate(-51.75 9.13535)"><path class="edge" d="M 0 0 V -9.13535 H 51.75"/><g class="mut m1 s1" transform="translate(0 -0.977151)"><line x1="0" x2="0" y1="0" y2="0.977151"/><path class="sym" d="M -3,-3 l 6,6 M -3,3 l 6,-6"/><text class="lab lft" transform="translate(-5 0)">1</text></g><rect class="sym" height="6" width="6" x="-3" y="-3"/><text class="lab" transform="translate(0 11)">0</text></g><g class="a25 c2 node n23 p1" transform="translate(51.75 5.65986)"><g class="a23 i13 leaf node n13 p2 sample" transform="translate(34.5 3.47549)"><path class="edge" d="M 0 0 V -3.47549 H -34.5"/><rect class="sym" height="6" width="6" x="-3" y="-3"/><text class="lab" transform="translate(0 11)">13</text></g><g class="a23 c2 node n21 p2" transform="translate(-34.5 3.0381)"><g class="a21 i1 leaf node n1 p1 sample" transform="translate(-23 0.437395)"><path class="edge" d="M 0 0 V -0.437395 H 23"/><rect class="sym" height="6" width="6" x="-3" y="-3"/><text class="lab" transform="translate(0 11)">1</text></g><g class="a21 i12 leaf node n12 p2 sample" transform="translate(23 0.437395)"><path class="edge" d="M 0 0 V -0.437395 H -23"/><rect class="sym" height="6" width="6" x="-3" y="-3"/><text class="lab" transform="translate(0 11)">12</text></g><path class="edge" d="M 0 0 V -3.0381 H 34.5"/><circle class="sym" cx="0" cy="0" r="3"/><text class="lab lft" transform="translate(-3 -7)">21</text></g><path class="edge" d="M 0 0 V -5.65986 H -51.75"/><circle class="sym" cx="0" cy="0" r="3"/><text class="lab rgt" transform="translate(3 -7)">23</text></g><path class="edge" d="M 0 0 V -4.86035 H 77.625"/><circle class="sym" cx="0" cy="0" r="3"/><text class="lab lft" transform="translate(-3 -7)">25</text></g><path class="edge" d="M 0 0 V -21.7624 H 73.3125"/><circle class="sym" cx="0" cy="0" r="3"/><text class="lab lft" transform="translate(-3 -7)">28</text></g><path class="edge" d="M 0 0 V -1.60123 H 88.4062"/><circle class="sym" cx="0" cy="0" r="3"/><text class="lab lft" transform="translate(-3 -7)">33</text></g><path class="edge" d="M 0 0 V -38.5838 H 95.9531"/><circle class="sym" cx="0" cy="0" r="3"/><text class="lab lft" transform="translate(-3 -7)">34</text></g><path class="edge" d="M 0 0 V -218.657 H 211.852"/><g class="mut m0 s0" transform="translate(0 -130.072)"><line x1="0" x2="0" y1="0" y2="130.072"/><path class="sym" d="M -3,-3 l 6,6 M -3,3 l 6,-6"/><text class="lab lft" transform="translate(-5 0)">0</text></g><circle class="sym" cx="0" cy="0" r="3"/><text class="lab lft" transform="translate(-3 -7)">36</text></g><g class="a38 c2 m2 node n37 p1 s2" transform="translate(211.852 185.185)"><g class="a37 i15 leaf node n15 p2 sample" transform="translate(63.25 109.415)"><path class="edge" d="M 0 0 V -109.415 H -63.25"/><rect class="sym" height="6" width="6" x="-3" y="-3"/><text class="lab" transform="translate(0 11)">15</text></g><g class="a37 c2 node n35 p2" transform="translate(-63.25 63.688)"><g class="a35 i14 leaf m3 node n14 p2 s3 sample" transform="translate(80.5 45.7266)"><path class="edge" d="M 0 0 V -45.7266 H -80.5"/><g class="mut m3 s3" transform="translate(0 -1.03044)"><line x1="0" x2="0" y1="0" y2="1.03044"/><path class="sym" d="M -3,-3 l 6,6 M -3,3 l 6,-6"/><text class="lab rgt" transform="translate(5 0)">3</text></g><rect class="sym" height="6" width="6" x="-3" y="-3"/><text class="lab" transform="translate(0 11)">14</text></g><g class="a35 c2 node n31 p1" transform="translate(-80.5 22.6323)"><g class="a31 c2 node n26 p1" transform="translate(57.5 13.1857)"><g class="a26 i4 leaf node n4 p1 sample" transform="translate(-34.5 9.90857)"><path class="edge" d="M 0 0 V -9.90857 H 34.5"/><rect class="sym" height="6" width="6" x="-3" y="-3"/><text class="lab" transform="translate(0 11)">4</text></g><g class="a26 c2 node n20 p2" transform="translate(34.5 9.74526)"><g class="a20 i9 leaf node n9 p1 sample" transform="translate(-23 0.163304)"><path class="edge" d="M 0 0 V -0.163304 H 23"/><rect class="sym" height="6" width="6" x="-3" y="-3"/><text class="lab" transform="translate(0 11)">9</text></g><g class="a20 i11 leaf node n11 p2 sample" transform="translate(23 0.163304)"><path class="edge" d="M 0 0 V -0.163304 H -23"/><rect class="sym" height="6" width="6" x="-3" y="-3"/><text class="lab" transform="translate(0 11)">11</text></g><path class="edge" d="M 0 0 V -9.74526 H -34.5"/><circle class="sym" cx="0" cy="0" r="3"/><text class="lab rgt" transform="translate(3 -7)">20</text></g><path class="edge" d="M 0 0 V -13.1857 H -57.5"/><circle class="sym" cx="0" cy="0" r="3"/><text class="lab rgt" transform="translate(3 -7)">26</text></g><g class="a31 c2 node n27 p1" transform="translate(-57.5 11.4996)"><g class="a27 i8 leaf node n8 p1 sample" transform="translate(34.5 11.5946)"><path class="edge" d="M 0 0 V -11.5946 H -34.5"/><rect class="sym" height="6" width="6" x="-3" y="-3"/><text class="lab" transform="translate(0 11)">8</text></g><g class="a27 c2 node n22 p1" transform="translate(-34.5 10.1187)"><g class="a22 i3 leaf node n3 p1 sample" transform="translate(-23 1.4759)"><path class="edge" d="M 0 0 V -1.4759 H 23"/><rect class="sym" height="6" width="6" x="-3" y="-3"/><text class="lab" transform="translate(0 11)">3</text></g><g class="a22 i18 leaf node n18 p2 sample" transform="translate(23 1.4759)"><path class="edge" d="M 0 0 V -1.4759 H -23"/><rect class="sym" height="6" width="6" x="-3" y="-3"/><text class="lab" transform="translate(0 11)">18</text></g><path class="edge" d="M 0 0 V -10.1187 H 34.5"/><circle class="sym" cx="0" cy="0" r="3"/><text class="lab lft" transform="translate(-3 -7)">22</text></g><path class="edge" d="M 0 0 V -11.4996 H 57.5"/><circle class="sym" cx="0" cy="0" r="3"/><text class="lab lft" transform="translate(-3 -7)">27</text></g><path class="edge" d="M 0 0 V -22.6323 H 80.5"/><circle class="sym" cx="0" cy="0" r="3"/><text class="lab lft" transform="translate(-3 -7)">31</text></g><path class="edge" d="M 0 0 V -63.688 H 63.25"/><circle class="sym" cx="0" cy="0" r="3"/><text class="lab lft" transform="translate(-3 -7)">35</text></g><path class="edge" d="M 0 0 V -185.185 H -211.852"/><g class="mut m2 s2" transform="translate(0 -97.4319)"><line x1="0" x2="0" y1="0" y2="97.4319"/><path class="sym" d="M -3,-3 l 6,6 M -3,3 l 6,-6"/><text class="lab rgt" transform="translate(5 0)">2</text></g><circle class="sym" cx="0" cy="0" r="3"/><text class="lab rgt" transform="translate(3 -7)">37</text></g><circle class="sym" cx="0" cy="0" r="3"/><text class="lab" transform="translate(0 -11)">38</text></g></g></g></g></g></svg>