<svg baseProfile="full" height="400" version="1.1" width="1000" xmlns="http://www.w3.org/2000/svg" xmlns:ev="http://www.w3.org/2001/xml-events" xmlns:xlink="http://www.w3.org/1999/xlink"><defs><style type="text/css"><![CDATA[.background path {fill: #808080; fill-opacity: 0}.background path:nth-child(odd) {fill-opacity: .1}.x-regions rect {fill: yellow; stroke: black; opacity: 0.5}.axes {font-size: 14px}.x-axis .tick .lab {font-weight: bold; dominant-baseline: hanging}.axes, .tree {font-size: 14px; text-anchor: middle}.axes line, .edge {stroke: black; fill: none}.axes .ax-skip {stroke-dasharray: 4}.y-axis .grid {stroke: #FAFAFA}.node > .sym {fill: black; stroke: none}.site > .sym {stroke: black}.mut text {fill: red; font-style: italic}.mut.extra text {fill: hotpink}.mut line {fill: none; stroke: none}.mut .sym {fill: none; stroke: red}.mut.extra .sym {stroke: hotpink}.node .mut .sym {stroke-width: 1.5px}.tree text, .tree-sequence text {dominant-baseline: central}.plotbox .lab.lft {text-anchor: end}.plotbox .lab.rgt {text-anchor: start}.polytomy line {stroke: black; stroke-dasharray: 1px, 1px}.polytomy text {paint-order:stroke;stroke-width:0.3em;stroke:white}]]></style></defs><g class="tree-sequence"><g class="background"><path d="M20,0 l960,0 l0,338.2 l0,25 l0,5 l-960,0 l0,-5 l0,-25 l0,-338.2z"/></g><g class="axes"><g class="x-axis"><g class="title" transform="translate(500 400)"><text class="lab" text-anchor="middle" transform="translate(0 -11)">Genome position</text></g><line class="ax-line" x1="20" x2="980" y1="363.2" y2="363.2"/><g class="ticks"><g class="tick" transform="translate(20 363.2)"><line x1="0" x2="0" y1="0" y2="5"/><g transform="translate(0 6)"><text class="lab">0</text></g></g><g class="tick" transform="translate(980 363.2)"><line x1="0" x2="0" y1="0" y2="5"/><g transform="translate(0 6)"><text class="lab">1000</text></g></g></g><g class="site s0" transform="translate(122.72 363.2)"><line class="sym" x1="0" x2="0" y1="0" y2="-10"/><g class="mut m0"><polyline class="sym" points="2.5,-6.5 0,-1.5 -2.5,-6.5"/></g></g><g class="site s1" transform="translate(338.72 363.2)"><line class="sym" x1="0" x2="0" y1="0" y2="-10"/><g class="mut m1"><polyline class="sym" points="2.5,-6.5 0,-1.5 -2.5,-6.5"/></g></g><g class="site s2" transform="translate(505.76 363.2)"><line class="sym" x1="0" x2="0" y1="0" y2="-10"/><g class="mut m2"><polyline class="sym" points="2.5,-6.5 0,-1.5 -2.5,-6.5"/></g></g><g class="site s3" transform="translate(664.16 363.2)"><line class="sym" x1="0" x2="0" y1="0" y2="-10"/><g class="mut m3"><polyline class="sym" points="2.5,-6.5 0,-1.5 -2.5,-6.5"/></g></g></g></g><g class="plotbox trees"><g class="tree t0" transform="translate(20 0)"><g class="plotbox"><g class="c2 node n38 p1 root" transform="translate(515.578 26.8)"><g class="a38 c2 node n36 p2" transform="translate(277.078 195.247)"><g class="a36 c2 m0 node n24 p1 s0" transform="translate(89.8438 95.442)"><g class="a24 i9 leaf node n9 p1 sample" transform="translate(34.5 3.91107)"><path class="edge" d="M 0 0 V -3.91107 H -34.5"/><rect class="sym" height="6" width="6" x="-3" y="-3"/><text class="lab" transform="translate(0 11)">9</text></g><g class="a24 c2 node n23 p1" transform="translate(-34.5 0.249486)"><g class="a23 i8 leaf node n8 p1 sample" transform="translate(-23 3.66158)"><path class="edge" d="M 0 0 V -3.66158 H 23"/><rect class="sym" height="6" width="6" x="-3" y="-3"/><text class="lab" transform="translate(0 11)">8</text></g><g class="a23 i14 leaf node n14 p2 sample" transform="translate(23 3.66158)"><path class="edge" d="M 0 0 V -3.66158 H -23"/><rect class="sym" height="6" width="6" x="-3" y="-3"/><text class="lab" transform="translate(0 11)">14</text></g><path class="edge" d="M 0 0 V -0.249486 H 34.5"/><circle class="sym" cx="0" cy="0" r="3"/><text class="lab lft" transform="translate(-3 -7)">23</text></g><path class="edge" d="M 0 0 V -95.442 H -89.8438"/><g class="mut m0 s0" transform="translate(0 -71.7267)"><line x1="0" x2="0" y1="0" y2="71.7267"/><path class="sym" d="M -3,-3 l 6,6 M -3,3 l 6,-6"/><text class="lab rgt" transform="translate(5 0)">0</text></g><circle class="sym" cx="0" cy="0" r="3"/><text class="lab rgt" transform="translate(3 -7)">24</text></g><g class="a36 c2 node n35 p2" transform="translate(-89.8438 29.7743)"><g class="a35 i16 leaf node n16 p2 sample" transform="translate(76.1875 69.5788)"><path class="edge" d="M 0 0 V -69.5788 H -76.1875"/><rect class="sym" height="6" width="6" x="-3" y="-3"/><text class="lab" transform="translate(0 11)">16</text></g><g class="a35 c2 node n33 p2" transform="translate(-76.1875 26.1423)"><g class="a33 c2 m2 node n31 p1 s2" transform="translate(-71.875 14.5114)"><g class="a31 i3 leaf node n3 p1 sample" transform="translate(40.25 28.9251)"><path class="edge" d="M 0 0 V -28.9251 H -40.25"/><rect class="sym" height="6" width="6" x="-3" y="-3"/><text class="lab" transform="translate(0 11)">3</text></g><g class="a31 c2 node n25 p2" transform="translate(-40.25 24.5307)"><g class="a25 i12 leaf node n12 p2 sample" transform="translate(34.5 4.39436)"><path class="edge" d="M 0 0 V -4.39436 H -34.5"/><rect class="sym" height="6" width="6" x="-3" y="-3"/><text class="lab" transform="translate(0 11)">12</text></g><g class="a25 c2 node n21 p1" transform="translate(-34.5 2.65902)"><g class="a21 i2 leaf node n2 p1 sample" transform="translate(-23 1.73534)"><path class="edge" d="M 0 0 V -1.73534 H 23"/><rect class="sym" height="6" width="6" x="-3" y="-3"/><text class="lab" transform="translate(0 11)">2</text></g><g class="a21 i11 leaf node n11 p2 sample" transform="translate(23 1.73534)"><path class="edge" d="M 0 0 V -1.73534 H -23"/><rect class="sym" height="6" width="6" x="-3" y="-3"/><text class="lab" transform="translate(0 11)">11</text></g><path class="edge" d="M 0 0 V -2.65902 H 34.5"/><circle class="sym" cx="0" cy="0" r="3"/><text class="lab lft" transform="translate(-3 -7)">21</text></g><path class="edge" d="M 0 0 V -24.5307 H 40.25"/><circle class="sym" cx="0" cy="0" r="3"/><text class="lab lft" transform="translate(-3 -7)">25</text></g><path class="edge" d="M 0 0 V -14.5114 H 71.875"/><g class="mut m2 s2" transform="translate(0 -11.3495)"><line x1="0" x2="0" y1="0" y2="11.3495"/><path class="sym" d="M -3,-3 l 6,6 M -3,3 l 6,-6"/><text class="lab lft" transform="translate(-5 0)">2</text></g><circle class="sym" cx="0" cy="0" r="3"/><text class="lab lft" transform="translate(-3 -7)">31</text></g><g class="a33 c2 node n32 p1" transform="translate(71.875 14.3839)"><g class="a32 i15 leaf node n15 p2 sample" transform="translate(34.5 29.0526)"><path class="edge" d="M 0 0 V -29.0526 H -34.5"/><rect class="sym" height="6" width="6" x="-3" y="-3"/><text class="lab" transform="translate(0 11)">15</text></g><g class="a32 c2 node n29 p2" transform="translate(-34.5 7.72083)"><g class="a29 i7 leaf node n7 p1 sample" transform="translate(-23 21.3318)"><path class="edge" d="M 0 0 V -21.3318 H 23"/><rect class="sym" height="6" width="6" x="-3" y="-3"/><text class="lab" transform="translate(0 11)">7</text></g><g class="a29 i17 leaf node n17 p2 sample" transform="translate(23 21.3318)"><path class="edge" d="M 0 0 V -21.3318 H -23"/><rect class="sym" height="6" width="6" x="-3" y="-3"/><text class="lab" transform="translate(0 11)">17</text></g><path class="edge" d="M 0 0 V -7.72083 H 34.5"/><circle class="sym" cx="0" cy="0" r="3"/><text class="lab lft" transform="translate(-3 -7)">29</text></g><path class="edge" d="M 0 0 V -14.3839 H -71.875"/><circle class="sym" cx="0" cy="0" r="3"/><text class="lab rgt" transform="translate(3 -7)">32</text></g><path class="edge" d="M 0 0 V -26.1423 H 76.1875"/><circle class="sym" cx="0" cy="0" r="3"/><text class="lab lft" transform="translate(-3 -7)">33</text></g><path class="edge" d="M 0 0 V -29.7743 H 89.8438"/><circle class="sym" cx="0" cy="0" r="3"/><text class="lab lft" transform="translate(-3 -7)">35</text></g><path class="edge" d="M 0 0 V -195.247 H -277.078"/><circle class="sym" cx="0" cy="0" r="3"/><text class="lab rgt" transform="translate(3 -7)">36</text></g><g class="a38 c2 m3 node n37 p1 s3" transform="translate(-277.078 190.297)"><g class="a37 c2 node n30 p2" transform="translate(-120.75 79.1928)"><g class="a30 c2 node n26 p2" transform="translate(51.75 15.6553)"><g class="a26 i1 leaf node n1 p1 sample" transform="translate(-34.5 9.45529)"><path class="edge" d="M 0 0 V -9.45529 H 34.5"/><rect class="sym" height="6" width="6" x="-3" y="-3"/><text class="lab" transform="translate(0 11)">1</text></g><g class="a26 c2 node n20 p2" transform="translate(34.5 9.32434)"><g class="a20 i10 leaf node n10 p2 sample" transform="translate(-23 0.130953)"><path class="edge" d="M 0 0 V -0.130953 H 23"/><rect class="sym" height="6" width="6" x="-3" y="-3"/><text class="lab" transform="translate(0 11)">10</text></g><g class="a20 i18 leaf node n18 p2 sample" transform="translate(23 0.130953)"><path class="edge" d="M 0 0 V -0.130953 H -23"/><rect class="sym" height="6" width="6" x="-3" y="-3"/><text class="lab" transform="translate(0 11)">18</text></g><path class="edge" d="M 0 0 V -9.32434 H -34.5"/><circle class="sym" cx="0" cy="0" r="3"/><text class="lab rgt" transform="translate(3 -7)">20</text></g><path class="edge" d="M 0 0 V -15.6553 H -51.75"/><circle class="sym" cx="0" cy="0" r="3"/><text class="lab rgt" transform="translate(3 -7)">26</text></g><g class="a30 c2 node n28 p2" transform="translate(-51.75 11.0658)"><g class="a28 i0 leaf node n0 p1 sample" transform="translate(-23 14.0448)"><path class="edge" d="M 0 0 V -14.0448 H 23"/><rect class="sym" height="6" width="6" x="-3" y="-3"/><text class="lab" transform="translate(0 11)">0</text></g><g class="a28 i19 leaf node n19 p2 sample" transform="translate(23 14.0448)"><path class="edge" d="M 0 0 V -14.0448 H -23"/><rect class="sym" height="6" width="6" x="-3" y="-3"/><text class="lab" transform="translate(0 11)">19</text></g><path class="edge" d="M 0 0 V -11.0658 H 51.75"/><circle class="sym" cx="0" cy="0" r="3"/><text class="lab lft" transform="translate(-3 -7)">28</text></g><path class="edge" d="M 0 0 V -79.1928 H 120.75"/><circle class="sym" cx="0" cy="0" r="3"/><text class="lab lft" transform="translate(-3 -7)">30</text></g><g class="a37 c2 node n34 p1" transform="translate(120.75 39.3029)"><g class="a34 i5 leaf node n5 p1 sample" transform="translate(51.75 65.0004)"><path class="edge" d="M 0 0 V -65.0004 H -51.75"/><rect class="sym" height="6" width="6" x="-3" y="-3"/><text class="lab" transform="translate(0 11)">5</text></g><g class="a34 c2 node n27 p2" transform="translate(-51.75 54.383)"><g class="a27 i4 leaf m1 node n4 p1 s1 sample" transform="translate(-34.5 10.6174)"><path class="edge" d="M 0 0 V -10.6174 H 34.5"/><g class="mut m1 s1" transform="translate(0 -7.85385)"><line x1="0" x2="0" y1="0" y2="7.85385"/><path class="sym" d="M -3,-3 l 6,6 M -3,3 l 6,-6"/><text class="lab lft" transform="translate(-5 0)">1</text></g><rect class="sym" height="6" width="6" x="-3" y="-3"/><text class="lab" transform="translate(0 11)">4</text></g><g class="a27 c2 node n22 p1" transform="translate(34.5 8.47345)"><g class="a22 i6 leaf node n6 p1 sample" transform="translate(-23 2.14392)"><path class="edge" d="M 0 0 V -2.14392 H 23"/><rect class="sym" height="6" width="6" x="-3" y="-3"/><text class="lab" transform="translate(0 11)">6</text></g><g class="a22 i13 leaf node n13 p2 sample" transform="translate(23 2.14392)"><path class="edge" d="M 0 0 V -2.14392 H -23"/><rect class="sym" height="6" width="6" x="-3" y="-3"/><text class="lab" transform="translate(0 11)">13</text></g><path class="edge" d="M 0 0 V -8.47345 H -34.5"/><circle class="sym" cx="0" cy="0" r="3"/><text class="lab rgt" transform="translate(3 -7)">22</text></g><path class="edge" d="M 0 0 V -54.383 H 51.75"/><circle class="sym" cx="0" cy="0" r="3"/><text class="lab lft" transform="translate(-3 -7)">27</text></g><path class="edge" d="M 0 0 V -39.3029 H -120.75"/><circle class="sym" cx="0" cy="0" r="3"/><text class="lab rgt" transform="translate(3 -7)">34</text></g><path class="edge" d="M 0 0 V -190.297 H 277.078"/><g class="mut m3 s3" transform="translate(0 -180.878)"><line x1="0" x2="0" y1="0" y2="180.878"/><path class="sym" d="M -3,-3 l 6,6 M -3,3 l 6,-6"/><text class="lab lft" transform="translate(-5 0)">3</text></g><circle class="sym" cx="0" cy="0" r="3"/><text class="lab lft" transform="translate(-3 -7)">37</text></g><circle class="sym" cx="0" cy="0" r="3"/><text class="lab" transform="translate(0 -11)">38</text></g></g></g></g></g></svg>