<svg baseProfile="full" height="400" version="1.1" width="1000" xmlns="http://www.w3.org/2000/svg" xmlns:ev="http://www.w3.org/2001/xml-events" xmlns:xlink="http://www.w3.org/1999/xlink"><defs><style type="text/css"><![CDATA[.background path {fill: #808080; fill-opacity: 0}.background path:nth-child(odd) {fill-opacity: .1}.x-regions rect {fill: yellow; stroke: black; opacity: 0.5}.axes {font-size: 14px}.x-axis .tick .lab {font-weight: bold; dominant-baseline: hanging}.axes, .tree {font-size: 14px; text-anchor: middle}.axes line, .edge {stroke: black; fill: none}.axes .ax-skip {stroke-dasharray: 4}.y-axis .grid {stroke: #FAFAFA}.node > .sym {fill: black; stroke: none}.site > .sym {stroke: black}.mut text {fill: red; font-style: italic}.mut.extra text {fill: hotpink}.mut line {fill: none; stroke: none}.mut .sym {fill: none; stroke: red}.mut.extra .sym {stroke: hotpink}.node .mut .sym {stroke-width: 1.5px}.tree text, .tree-sequence text {dominant-baseline: central}.plotbox .lab.lft {text-anchor: end}.plotbox .lab.rgt {text-anchor: start}.polytomy line {stroke: black; stroke-dasharray: 1px, 1px}.polytomy text {paint-order:stroke;stroke-width:0.3em;stroke:white}]]></style></defs><g class="tree-sequence"><g class="background"><path d="M20,0 l960,0 l0,338.2 l0,25 l0,5 l-960,0 l0,-5 l0,-25 l0,-338.2z"/></g><g class="axes"><g class="x-axis"><g class="title" transform="translate(500 400)"><text class="lab" text-anchor="middle" transform="translate(0 -11)">Genome position</text></g><line class="ax-line" x1="20" x2="980" y1="363.2" y2="363.2"/><g class="ticks"><g class="tick" transform="translate(20 363.2)"><line x1="0" x2="0" y1="0" y2="5"/><g transform="translate(0 6)"><text class="lab">0</text></g></g><g class="tick" transform="translate(980 363.2)"><line x1="0" x2="0" y1="0" y2="5"/><g transform="translate(0 6)"><text class="lab">1000</text></g></g></g><g class="site s0" transform="translate(737.12 363.2)"><line class="sym" x1="0" x2="0" y1="0" y2="-10"/><g class="mut m0"><polyline class="sym" points="2.5,-6.5 0,-1.5 -2.5,-6.5"/></g></g></g></g><g class="plotbox trees"><g class="tree t0" transform="translate(20 0)"><g class="plotbox"><g class="c2 node n38 p0 root" transform="translate(458.078 26.8)"><g class="a38 c2 node n35 p0" transform="translate(294.328 195.199)"><g class="a35 i7 leaf node n7 p1 sample" transform="translate(164.594 99.4006)"><path class="edge" d="M 0 0 V -99.4006 H -164.594"/><rect class="sym" height="6" width="6" x="-3" y="-3"/><text class="lab" transform="translate(0 11)">7</text></g><g class="a35 c2 node n34 p0" transform="translate(-164.594 19.342)"><g class="a34 c2 node n31 p2" transform="translate(148.062 27.2887)"><g class="a31 c2 node n26 p2" transform="translate(-83.375 41.9062)"><g class="a26 i14 leaf node n14 p2 sample" transform="translate(34.5 10.8637)"><path class="edge" d="M 0 0 V -10.8637 H -34.5"/><rect class="sym" height="6" width="6" x="-3" y="-3"/><text class="lab" transform="translate(0 11)">14</text></g><g class="a26 c2 node n24 p1" transform="translate(-34.5 6.50912)"><g class="a24 i3 leaf node n3 p1 sample" transform="translate(-23 4.35462)"><path class="edge" d="M 0 0 V -4.35462 H 23"/><rect class="sym" height="6" width="6" x="-3" y="-3"/><text class="lab" transform="translate(0 11)">3</text></g><g class="a24 i4 leaf node n4 p1 sample" transform="translate(23 4.35462)"><path class="edge" d="M 0 0 V -4.35462 H -23"/><rect class="sym" height="6" width="6" x="-3" y="-3"/><text class="lab" transform="translate(0 11)">4</text></g><path class="edge" d="M 0 0 V -6.50912 H 34.5"/><circle class="sym" cx="0" cy="0" r="3"/><text class="lab lft" transform="translate(-3 -7)">24</text></g><path class="edge" d="M 0 0 V -41.9062 H 83.375"/><circle class="sym" cx="0" cy="0" r="3"/><text class="lab lft" transform="translate(-3 -7)">26</text></g><g class="a31 c2 node n29 p2" transform="translate(83.375 32.2346)"><g class="a29 i17 leaf m0 node n17 p2 s0 sample" transform="translate(51.75 20.5354)"><path class="edge" d="M 0 0 V -20.5354 H -51.75"/><g class="mut m0 s0" transform="translate(0 -14.8558)"><line x1="0" x2="0" y1="0" y2="14.8558"/><path class="sym" d="M -3,-3 l 6,6 M -3,3 l 6,-6"/><text class="lab rgt" transform="translate(5 0)">0</text></g><rect class="sym" height="6" width="6" x="-3" y="-3"/><text class="lab" transform="translate(0 11)">17</text></g><g class="a29 c2 node n23 p2" transform="translate(-51.75 16.9914)"><g class="a23 i9 leaf node n9 p1 sample" transform="translate(-34.5 3.54404)"><path class="edge" d="M 0 0 V -3.54404 H 34.5"/><rect class="sym" height="6" width="6" x="-3" y="-3"/><text class="lab" transform="translate(0 11)">9</text></g><g class="a23 c2 node n22 p2" transform="translate(34.5 2.02072)"><g class="a22 i13 leaf node n13 p2 sample" transform="translate(-23 1.52332)"><path class="edge" d="M 0 0 V -1.52332 H 23"/><rect class="sym" height="6" width="6" x="-3" y="-3"/><text class="lab" transform="translate(0 11)">13</text></g><g class="a22 i15 leaf node n15 p2 sample" transform="translate(23 1.52332)"><path class="edge" d="M 0 0 V -1.52332 H -23"/><rect class="sym" height="6" width="6" x="-3" y="-3"/><text class="lab" transform="translate(0 11)">15</text></g><path class="edge" d="M 0 0 V -2.02072 H -34.5"/><circle class="sym" cx="0" cy="0" r="3"/><text class="lab rgt" transform="translate(3 -7)">22</text></g><path class="edge" d="M 0 0 V -16.9914 H 51.75"/><circle class="sym" cx="0" cy="0" r="3"/><text class="lab lft" transform="translate(-3 -7)">23</text></g><path class="edge" d="M 0 0 V -32.2346 H -83.375"/><circle class="sym" cx="0" cy="0" r="3"/><text class="lab rgt" transform="translate(3 -7)">29</text></g><path class="edge" d="M 0 0 V -27.2887 H -148.062"/><circle class="sym" cx="0" cy="0" r="3"/><text class="lab rgt" transform="translate(3 -7)">31</text></g><g class="a34 c2 node n33 p1" transform="translate(-148.062 1.65213)"><g class="a33 c2 node n25 p2" transform="translate(51.75 71.1407)"><g class="a25 i5 leaf node n5 p1 sample" transform="translate(-34.5 7.26583)"><path class="edge" d="M 0 0 V -7.26583 H 34.5"/><rect class="sym" height="6" width="6" x="-3" y="-3"/><text class="lab" transform="translate(0 11)">5</text></g><g class="a25 c2 node n20 p2" transform="translate(34.5 7.22947)"><g class="a20 i10 leaf node n10 p2 sample" transform="translate(-23 0.0363617)"><path class="edge" d="M 0 0 V -0.0363617 H 23"/><rect class="sym" height="6" width="6" x="-3" y="-3"/><text class="lab" transform="translate(0 11)">10</text></g><g class="a20 i19 leaf node n19 p2 sample" transform="translate(23 0.0363617)"><path class="edge" d="M 0 0 V -0.0363617 H -23"/><rect class="sym" height="6" width="6" x="-3" y="-3"/><text class="lab" transform="translate(0 11)">19</text></g><path class="edge" d="M 0 0 V -7.22947 H -34.5"/><circle class="sym" cx="0" cy="0" r="3"/><text class="lab rgt" transform="translate(3 -7)">20</text></g><path class="edge" d="M 0 0 V -71.1407 H -51.75"/><circle class="sym" cx="0" cy="0" r="3"/><text class="lab rgt" transform="translate(3 -7)">25</text></g><g class="a33 c2 node n27 p2" transform="translate(-51.75 62.8133)"><g class="a27 i1 leaf node n1 p1 sample" transform="translate(-23 15.5932)"><path class="edge" d="M 0 0 V -15.5932 H 23"/><rect class="sym" height="6" width="6" x="-3" y="-3"/><text class="lab" transform="translate(0 11)">1</text></g><g class="a27 i16 leaf node n16 p2 sample" transform="translate(23 15.5932)"><path class="edge" d="M 0 0 V -15.5932 H -23"/><rect class="sym" height="6" width="6" x="-3" y="-3"/><text class="lab" transform="translate(0 11)">16</text></g><path class="edge" d="M 0 0 V -62.8133 H 51.75"/><circle class="sym" cx="0" cy="0" r="3"/><text class="lab lft" transform="translate(-3 -7)">27</text></g><path class="edge" d="M 0 0 V -1.65213 H 148.062"/><circle class="sym" cx="0" cy="0" r="3"/><text class="lab lft" transform="translate(-3 -7)">33</text></g><path class="edge" d="M 0 0 V -19.342 H 164.594"/><circle class="sym" cx="0" cy="0" r="3"/><text class="lab lft" transform="translate(-3 -7)">34</text></g><path class="edge" d="M 0 0 V -195.199 H -294.328"/><circle class="sym" cx="0" cy="0" r="3"/><text class="lab rgt" transform="translate(3 -7)">35</text></g><g class="a38 c2 node n37 p0" transform="translate(-294.328 159.62)"><g class="a37 c2 node n32 p1" transform="translate(86.25 68.9534)"><g class="a32 c2 node n21 p2" transform="translate(-46 64.8722)"><g class="a21 i8 leaf node n8 p1 sample" transform="translate(-23 1.15452)"><path class="edge" d="M 0 0 V -1.15452 H 23"/><rect class="sym" height="6" width="6" x="-3" y="-3"/><text class="lab" transform="translate(0 11)">8</text></g><g class="a21 i18 leaf node n18 p2 sample" transform="translate(23 1.15452)"><path class="edge" d="M 0 0 V -1.15452 H -23"/><rect class="sym" height="6" width="6" x="-3" y="-3"/><text class="lab" transform="translate(0 11)">18</text></g><path class="edge" d="M 0 0 V -64.8722 H 46"/><circle class="sym" cx="0" cy="0" r="3"/><text class="lab lft" transform="translate(-3 -7)">21</text></g><g class="a32 c2 node n28 p2" transform="translate(46 46.4222)"><g class="a28 i11 leaf node n11 p2 sample" transform="translate(-23 19.6046)"><path class="edge" d="M 0 0 V -19.6046 H 23"/><rect class="sym" height="6" width="6" x="-3" y="-3"/><text class="lab" transform="translate(0 11)">11</text></g><g class="a28 i12 leaf node n12 p2 sample" transform="translate(23 19.6046)"><path class="edge" d="M 0 0 V -19.6046 H -23"/><rect class="sym" height="6" width="6" x="-3" y="-3"/><text class="lab" transform="translate(0 11)">12</text></g><path class="edge" d="M 0 0 V -46.4222 H -46"/><circle class="sym" cx="0" cy="0" r="3"/><text class="lab rgt" transform="translate(3 -7)">28</text></g><path class="edge" d="M 0 0 V -68.9534 H -86.25"/><circle class="sym" cx="0" cy="0" r="3"/><text class="lab rgt" transform="translate(3 -7)">32</text></g><g class="a37 c2 node n36 p0" transform="translate(-86.25 20.6439)"><g class="a36 i0 leaf node n0 p1 sample" transform="translate(-34.5 114.336)"><path class="edge" d="M 0 0 V -114.336 H 34.5"/><rect class="sym" height="6" width="6" x="-3" y="-3"/><text class="lab" transform="translate(0 11)">0</text></g><g class="a36 c2 node n30 p1" transform="translate(34.5 68.1613)"><g class="a30 i2 leaf node n2 p1 sample" transform="translate(-23 46.175)"><path class="edge" d="M 0 0 V -46.175 H 23"/><rect class="sym" height="6" width="6" x="-3" y="-3"/><text class="lab" transform="translate(0 11)">2</text></g><g class="a30 i6 leaf node n6 p1 sample" transform="translate(23 46.175)"><path class="edge" d="M 0 0 V -46.175 H -23"/><rect class="sym" height="6" width="6" x="-3" y="-3"/><text class="lab" transform="translate(0 11)">6</text></g><path class="edge" d="M 0 0 V -68.1613 H -34.5"/><circle class="sym" cx="0" cy="0" r="3"/><text class="lab rgt" transform="translate(3 -7)">30</text></g><path class="edge" d="M 0 0 V -20.6439 H 86.25"/><circle class="sym" cx="0" cy="0" r="3"/><text class="lab lft" transform="translate(-3 -7)">36</text></g><path class="edge" d="M 0 0 V -159.62 H 294.328"/><circle class="sym" cx="0" cy="0" r="3"/><text class="lab lft" transform="translate(-3 -7)">37</text></g><circle class="sym" cx="0" cy="0" r="3"/><text class="lab" transform="translate(0 -11)">38</text></g></g></g></g></g></svg>