<svg baseProfile="full" height="400" version="1.1" width="1000" xmlns="http://www.w3.org/2000/svg" xmlns:ev="http://www.w3.org/2001/xml-events" xmlns:xlink="http://www.w3.org/1999/xlink"><defs><style type="text/css"><![CDATA[.background path {fill: #808080; fill-opacity: 0}.background path:nth-child(odd) {fill-opacity: .1}.x-regions rect {fill: yellow; stroke: black; opacity: 0.5}.axes {font-size: 14px}.x-axis .tick .lab {font-weight: bold; dominant-baseline: hanging}.axes, .tree {font-size: 14px; text-anchor: middle}.axes line, .edge {stroke: black; fill: none}.axes .ax-skip {stroke-dasharray: 4}.y-axis .grid {stroke: #FAFAFA}.node > .sym {fill: black; stroke: none}.site > .sym {stroke: black}.mut text {fill: red; font-style: italic}.mut.extra text {fill: hotpink}.mut line {fill: none; stroke: none}.mut .sym {fill: none; stroke: red}.mut.extra .sym {stroke: hotpink}.node .mut .sym {stroke-width: 1.5px}.tree text, .tree-sequence text {dominant-baseline: central}.plotbox .lab.lft {text-anchor: end}.plotbox .lab.rgt {text-anchor: start}.polytomy line {stroke: black; stroke-dasharray: 1px, 1px}.polytomy text {paint-order:stroke;stroke-width:0.3em;stroke:white}]]></style></defs><g class="tree-sequence"><g class="background"><path d="M20,0 l960,0 l0,338.2 l0,25 l0,5 l-960,0 l0,-5 l0,-25 l0,-338.2z"/></g><g class="axes"><g class="x-axis"><g class="title" transform="translate(500 400)"><text class="lab" text-anchor="middle" transform="translate(0 -11)">Genome position</text></g><line class="ax-line" x1="20" x2="980" y1="363.2" y2="363.2"/><g class="ticks"><g class="tick" transform="translate(20 363.2)"><line x1="0" x2="0" y1="0" y2="5"/><g transform="translate(0 6)"><text class="lab">0</text></g></g><g class="tick" transform="translate(980 363.2)"><line x1="0" x2="0" y1="0" y2="5"/><g transform="translate(0 6)"><text class="lab">1000</text></g></g></g><g class="site s0" transform="translate(29.6 363.2)"><line class="sym" x1="0" x2="0" y1="0" y2="-10"/><g class="mut m0"><polyline class="sym" points="2.5,-6.5 0,-1.5 -2.5,-6.5"/></g></g><g class="site s1" transform="translate(248.48 363.2)"><line class="sym" x1="0" x2="0" y1="0" y2="-10"/><g class="mut m1"><polyline class="sym" points="2.5,-6.5 0,-1.5 -2.5,-6.5"/></g></g></g></g><g class="plotbox trees"><g class="tree t0" transform="translate(20 0)"><g class="plotbox"><g class="c2 node n38 p0 root" transform="translate(658.43 26.8)"><g class="a38 c2 node n35 p1" transform="translate(206.82 232)"><g class="a35 i6 leaf node n6 p1 sample" transform="translate(51.75 62.6004)"><path class="edge" d="M 0 0 V -62.6004 H -51.75"/><rect class="sym" height="6" width="6" x="-3" y="-3"/><text class="lab" transform="translate(0 11)">6</text></g><g class="a35 c2 m0 node n31 p1 s0" transform="translate(-51.75 42.5701)"><g class="a31 i3 leaf node n3 p1 sample" transform="translate(-34.5 20.0303)"><path class="edge" d="M 0 0 V -20.0303 H 34.5"/><rect class="sym" height="6" width="6" x="-3" y="-3"/><text class="lab" transform="translate(0 11)">3</text></g><g class="a31 c2 node n25 p1" transform="translate(34.5 13.1671)"><g class="a25 i4 leaf node n4 p1 sample" transform="translate(-23 6.86322)"><path class="edge" d="M 0 0 V -6.86322 H 23"/><rect class="sym" height="6" width="6" x="-3" y="-3"/><text class="lab" transform="translate(0 11)">4</text></g><g class="a25 i16 leaf node n16 p2 sample" transform="translate(23 6.86322)"><path class="edge" d="M 0 0 V -6.86322 H -23"/><rect class="sym" height="6" width="6" x="-3" y="-3"/><text class="lab" transform="translate(0 11)">16</text></g><path class="edge" d="M 0 0 V -13.1671 H -34.5"/><circle class="sym" cx="0" cy="0" r="3"/><text class="lab rgt" transform="translate(3 -7)">25</text></g><path class="edge" d="M 0 0 V -42.5701 H 51.75"/><g class="mut m0 s0" transform="translate(0 -14.9696)"><line x1="0" x2="0" y1="0" y2="14.9696"/><path class="sym" d="M -3,-3 l 6,6 M -3,3 l 6,-6"/><text class="lab lft" transform="translate(-5 0)">0</text></g><circle class="sym" cx="0" cy="0" r="3"/><text class="lab lft" transform="translate(-3 -7)">31</text></g><path class="edge" d="M 0 0 V -232 H -206.82"/><circle class="sym" cx="0" cy="0" r="3"/><text class="lab rgt" transform="translate(3 -7)">35</text></g><g class="a38 c2 node n37 p1" transform="translate(-206.82 230.028)"><g class="a37 c2 node n34 p2" transform="translate(-159.203 20.5542)"><g class="a34 i17 leaf node n17 p2 sample" transform="translate(72.5938 44.0178)"><path class="edge" d="M 0 0 V -44.0178 H -72.5938"/><rect class="sym" height="6" width="6" x="-3" y="-3"/><text class="lab" transform="translate(0 11)">17</text></g><g class="a34 c2 node n33 p2" transform="translate(-72.5938 6.26296)"><g class="a33 i12 leaf m1 node n12 p2 s1 sample" transform="translate(99.1875 37.7549)"><path class="edge" d="M 0 0 V -37.7549 H -99.1875"/><g class="mut m1 s1" transform="translate(0 -1.84429)"><line x1="0" x2="0" y1="0" y2="1.84429"/><path class="sym" d="M -3,-3 l 6,6 M -3,3 l 6,-6"/><text class="lab rgt" transform="translate(5 0)">1</text></g><rect class="sym" height="6" width="6" x="-3" y="-3"/><text class="lab" transform="translate(0 11)">12</text></g><g class="a33 c2 node n28 p1" transform="translate(-99.1875 27.6915)"><g class="a28 i0 leaf node n0 p1 sample" transform="translate(-77.625 10.0634)"><path class="edge" d="M 0 0 V -10.0634 H 77.625"/><rect class="sym" height="6" width="6" x="-3" y="-3"/><text class="lab" transform="translate(0 11)">0</text></g><g class="a28 c2 node n24 p2" transform="translate(77.625 6.03219)"><g class="a24 c2 node n22 p2" transform="translate(51.75 1.4626)"><g class="a22 i8 leaf node n8 p1 sample" transform="translate(-23 2.56861)"><path class="edge" d="M 0 0 V -2.56861 H 23"/><rect class="sym" height="6" width="6" x="-3" y="-3"/><text class="lab" transform="translate(0 11)">8</text></g><g class="a22 i18 leaf node n18 p2 sample" transform="translate(23 2.56861)"><path class="edge" d="M 0 0 V -2.56861 H -23"/><rect class="sym" height="6" width="6" x="-3" y="-3"/><text class="lab" transform="translate(0 11)">18</text></g><path class="edge" d="M 0 0 V -1.4626 H -51.75"/><circle class="sym" cx="0" cy="0" r="3"/><text class="lab rgt" transform="translate(3 -7)">22</text></g><g class="a24 c2 node n23 p2" transform="translate(-51.75 0.517782)"><g class="a23 i5 leaf node n5 p1 sample" transform="translate(34.5 3.51343)"><path class="edge" d="M 0 0 V -3.51343 H -34.5"/><rect class="sym" height="6" width="6" x="-3" y="-3"/><text class="lab" transform="translate(0 11)">5</text></g><g class="a23 c2 node n21 p2" transform="translate(-34.5 1.61551)"><g class="a21 i1 leaf node n1 p1 sample" transform="translate(-23 1.89792)"><path class="edge" d="M 0 0 V -1.89792 H 23"/><rect class="sym" height="6" width="6" x="-3" y="-3"/><text class="lab" transform="translate(0 11)">1</text></g><g class="a21 i14 leaf node n14 p2 sample" transform="translate(23 1.89792)"><path class="edge" d="M 0 0 V -1.89792 H -23"/><rect class="sym" height="6" width="6" x="-3" y="-3"/><text class="lab" transform="translate(0 11)">14</text></g><path class="edge" d="M 0 0 V -1.61551 H 34.5"/><circle class="sym" cx="0" cy="0" r="3"/><text class="lab lft" transform="translate(-3 -7)">21</text></g><path class="edge" d="M 0 0 V -0.517782 H 51.75"/><circle class="sym" cx="0" cy="0" r="3"/><text class="lab lft" transform="translate(-3 -7)">23</text></g><path class="edge" d="M 0 0 V -6.03219 H -77.625"/><circle class="sym" cx="0" cy="0" r="3"/><text class="lab rgt" transform="translate(3 -7)">24</text></g><path class="edge" d="M 0 0 V -27.6915 H 99.1875"/><circle class="sym" cx="0" cy="0" r="3"/><text class="lab lft" transform="translate(-3 -7)">28</text></g><path class="edge" d="M 0 0 V -6.26296 H 72.5938"/><circle class="sym" cx="0" cy="0" r="3"/><text class="lab lft" transform="translate(-3 -7)">33</text></g><path class="edge" d="M 0 0 V -20.5542 H 159.203"/><circle class="sym" cx="0" cy="0" r="3"/><text class="lab lft" transform="translate(-3 -7)">34</text></g><g class="a37 c2 node n36 p1" transform="translate(159.203 1.16349)"><g class="a36 c2 node n30 p2" transform="translate(-64.6875 49.749)"><g class="a30 i11 leaf node n11 p2 sample" transform="translate(48.875 13.6595)"><path class="edge" d="M 0 0 V -13.6595 H -48.875"/><rect class="sym" height="6" width="6" x="-3" y="-3"/><text class="lab" transform="translate(0 11)">11</text></g><g class="a30 c2 node n29 p2" transform="translate(-48.875 2.50668)"><g class="a29 i19 leaf node n19 p2 sample" transform="translate(51.75 11.1528)"><path class="edge" d="M 0 0 V -11.1528 H -51.75"/><rect class="sym" height="6" width="6" x="-3" y="-3"/><text class="lab" transform="translate(0 11)">19</text></g><g class="a29 c2 node n26 p1" transform="translate(-51.75 2.36971)"><g class="a26 i2 leaf node n2 p1 sample" transform="translate(-34.5 8.78314)"><path class="edge" d="M 0 0 V -8.78314 H 34.5"/><rect class="sym" height="6" width="6" x="-3" y="-3"/><text class="lab" transform="translate(0 11)">2</text></g><g class="a26 c2 node n20 p2" transform="translate(34.5 8.47757)"><g class="a20 i10 leaf node n10 p2 sample" transform="translate(-23 0.30557)"><path class="edge" d="M 0 0 V -0.30557 H 23"/><rect class="sym" height="6" width="6" x="-3" y="-3"/><text class="lab" transform="translate(0 11)">10</text></g><g class="a20 i15 leaf node n15 p2 sample" transform="translate(23 0.30557)"><path class="edge" d="M 0 0 V -0.30557 H -23"/><rect class="sym" height="6" width="6" x="-3" y="-3"/><text class="lab" transform="translate(0 11)">15</text></g><path class="edge" d="M 0 0 V -8.47757 H -34.5"/><circle class="sym" cx="0" cy="0" r="3"/><text class="lab rgt" transform="translate(3 -7)">20</text></g><path class="edge" d="M 0 0 V -2.36971 H 51.75"/><circle class="sym" cx="0" cy="0" r="3"/><text class="lab lft" transform="translate(-3 -7)">26</text></g><path class="edge" d="M 0 0 V -2.50668 H 48.875"/><circle class="sym" cx="0" cy="0" r="3"/><text class="lab lft" transform="translate(-3 -7)">29</text></g><path class="edge" d="M 0 0 V -49.749 H 64.6875"/><circle class="sym" cx="0" cy="0" r="3"/><text class="lab lft" transform="translate(-3 -7)">30</text></g><g class="a36 c2 node n32 p1" transform="translate(64.6875 37.3611)"><g class="a32 i7 leaf node n7 p1 sample" transform="translate(-34.5 26.0474)"><path class="edge" d="M 0 0 V -26.0474 H 34.5"/><rect class="sym" height="6" width="6" x="-3" y="-3"/><text class="lab" transform="translate(0 11)">7</text></g><g class="a32 c2 node n27 p2" transform="translate(34.5 16.6146)"><g class="a27 i9 leaf node n9 p1 sample" transform="translate(-23 9.43278)"><path class="edge" d="M 0 0 V -9.43278 H 23"/><rect class="sym" height="6" width="6" x="-3" y="-3"/><text class="lab" transform="translate(0 11)">9</text></g><g class="a27 i13 leaf node n13 p2 sample" transform="translate(23 9.43278)"><path class="edge" d="M 0 0 V -9.43278 H -23"/><rect class="sym" height="6" width="6" x="-3" y="-3"/><text class="lab" transform="translate(0 11)">13</text></g><path class="edge" d="M 0 0 V -16.6146 H -34.5"/><circle class="sym" cx="0" cy="0" r="3"/><text class="lab rgt" transform="translate(3 -7)">27</text></g><path class="edge" d="M 0 0 V -37.3611 H -64.6875"/><circle class="sym" cx="0" cy="0" r="3"/><text class="lab rgt" transform="translate(3 -7)">32</text></g><path class="edge" d="M 0 0 V -1.16349 H -159.203"/><circle class="sym" cx="0" cy="0" r="3"/><text class="lab rgt" transform="translate(3 -7)">36</text></g><path class="edge" d="M 0 0 V -230.028 H 206.82"/><circle class="sym" cx="0" cy="0" r="3"/><text class="lab lft" transform="translate(-3 -7)">37</text></g><circle class="sym" cx="0" cy="0" r="3"/><text class="lab" transform="translate(0 -11)">38</text></g></g></g></g></g></svg>