<svg baseProfile="full" height="400" version="1.1" width="1000" xmlns="http://www.w3.org/2000/svg" xmlns:ev="http://www.w3.org/2001/xml-events" xmlns:xlink="http://www.w3.org/1999/xlink"><defs><style type="text/css"><![CDATA[.background path {fill: #808080; fill-opacity: 0}.background path:nth-child(odd) {fill-opacity: .1}.x-regions rect {fill: yellow; stroke: black; opacity: 0.5}.axes {font-size: 14px}.x-axis .tick .lab {font-weight: bold; dominant-baseline: hanging}.axes, .tree {font-size: 14px; text-anchor: middle}.axes line, .edge {stroke: black; fill: none}.axes .ax-skip {stroke-dasharray: 4}.y-axis .grid {stroke: #FAFAFA}.node > .sym {fill: black; stroke: none}.site > .sym {stroke: black}.mut text {fill: red; font-style: italic}.mut.extra text {fill: hotpink}.mut line {fill: none; stroke: none}.mut .sym {fill: none; stroke: red}.mut.extra .sym {stroke: hotpink}.node .mut .sym {stroke-width: 1.5px}.tree text, .tree-sequence text {dominant-baseline: central}.plotbox .lab.lft {text-anchor: end}.plotbox .lab.rgt {text-anchor: start}.polytomy line {stroke: black; stroke-dasharray: 1px, 1px}.polytomy text {paint-order:stroke;stroke-width:0.3em;stroke:white}]]></style></defs><g class="tree-sequence"><g class="background"><path d="M20,0 l960,0 l0,338.2 l0,25 l0,5 l-960,0 l0,-5 l0,-25 l0,-338.2z"/></g><g class="axes"><g class="x-axis"><g class="title" transform="translate(500 400)"><text class="lab" text-anchor="middle" transform="translate(0 -11)">Genome position</text></g><line class="ax-line" x1="20" x2="980" y1="363.2" y2="363.2"/><g class="ticks"><g class="tick" transform="translate(20 363.2)"><line x1="0" x2="0" y1="0" y2="5"/><g transform="translate(0 6)"><text class="lab">0</text></g></g><g class="tick" transform="translate(980 363.2)"><line x1="0" x2="0" y1="0" y2="5"/><g transform="translate(0 6)"><text class="lab">1000</text></g></g></g><g class="site s0" transform="translate(448.16 363.2)"><line class="sym" x1="0" x2="0" y1="0" y2="-10"/><g class="mut m0"><polyline class="sym" points="2.5,-6.5 0,-1.5 -2.5,-6.5"/></g></g><g class="site s1" transform="translate(685.28 363.2)"><line class="sym" x1="0" x2="0" y1="0" y2="-10"/><g class="mut m1"><polyline class="sym" points="2.5,-6.5 0,-1.5 -2.5,-6.5"/></g></g></g></g><g class="plotbox trees"><g class="tree t0" transform="translate(20 0)"><g class="plotbox"><g class="c2 node n38 p0 root" transform="translate(805.414 26.8)"><g class="a38 i13 leaf node n13 p2 sample" transform="translate(111.586 294.6)"><path class="edge" d="M 0 0 V -294.6 H -111.586"/><rect class="sym" height="6" width="6" x="-3" y="-3"/><text class="lab" transform="translate(0 11)">13</text></g><g class="a38 c2 node n37 p0" transform="translate(-111.586 7.43678)"><g class="a37 c2 node n25 p2" transform="translate(142.672 261.648)"><g class="a25 i5 leaf node n5 p1 sample" transform="translate(34.5 25.5148)"><path class="edge" d="M 0 0 V -25.5148 H -34.5"/><rect class="sym" height="6" width="6" x="-3" y="-3"/><text class="lab" transform="translate(0 11)">5</text></g><g class="a25 c2 node n24 p2" transform="translate(-34.5 1.70082)"><g class="a24 i1 leaf node n1 p1 sample" transform="translate(-23 23.8139)"><path class="edge" d="M 0 0 V -23.8139 H 23"/><rect class="sym" height="6" width="6" x="-3" y="-3"/><text class="lab" transform="translate(0 11)">1</text></g><g class="a24 i12 leaf node n12 p2 sample" transform="translate(23 23.8139)"><path class="edge" d="M 0 0 V -23.8139 H -23"/><rect class="sym" height="6" width="6" x="-3" y="-3"/><text class="lab" transform="translate(0 11)">12</text></g><path class="edge" d="M 0 0 V -1.70082 H 34.5"/><circle class="sym" cx="0" cy="0" r="3"/><text class="lab lft" transform="translate(-3 -7)">24</text></g><path class="edge" d="M 0 0 V -261.648 H -142.672"/><circle class="sym" cx="0" cy="0" r="3"/><text class="lab rgt" transform="translate(3 -7)">25</text></g><g class="a37 c2 node n36 p0" transform="translate(-142.672 77.3648)"><g class="a36 c2 node n30 p2" transform="translate(130.094 149.915)"><g class="a30 i14 leaf node n14 p2 sample" transform="translate(51.75 59.883)"><path class="edge" d="M 0 0 V -59.883 H -51.75"/><rect class="sym" height="6" width="6" x="-3" y="-3"/><text class="lab" transform="translate(0 11)">14</text></g><g class="a30 c2 node n28 p2" transform="translate(-51.75 13.602)"><g class="a28 i8 leaf node n8 p1 sample" transform="translate(-34.5 46.281)"><path class="edge" d="M 0 0 V -46.281 H 34.5"/><rect class="sym" height="6" width="6" x="-3" y="-3"/><text class="lab" transform="translate(0 11)">8</text></g><g class="a28 c2 node n23 p1" transform="translate(34.5 38.3257)"><g class="a23 i11 leaf node n11 p2 sample" transform="translate(-23 7.9553)"><path class="edge" d="M 0 0 V -7.9553 H 23"/><rect class="sym" height="6" width="6" x="-3" y="-3"/><text class="lab" transform="translate(0 11)">11</text></g><g class="a23 i18 leaf node n18 p2 sample" transform="translate(23 7.9553)"><path class="edge" d="M 0 0 V -7.9553 H -23"/><rect class="sym" height="6" width="6" x="-3" y="-3"/><text class="lab" transform="translate(0 11)">18</text></g><path class="edge" d="M 0 0 V -38.3257 H -34.5"/><circle class="sym" cx="0" cy="0" r="3"/><text class="lab rgt" transform="translate(3 -7)">23</text></g><path class="edge" d="M 0 0 V -13.602 H 51.75"/><circle class="sym" cx="0" cy="0" r="3"/><text class="lab lft" transform="translate(-3 -7)">28</text></g><path class="edge" d="M 0 0 V -149.915 H -130.094"/><circle class="sym" cx="0" cy="0" r="3"/><text class="lab rgt" transform="translate(3 -7)">30</text></g><g class="a36 c2 node n35 p0" transform="translate(-130.094 66.6315)"><g class="a35 i2 leaf node n2 p1 sample" transform="translate(127.938 143.167)"><path class="edge" d="M 0 0 V -143.167 H -127.938"/><rect class="sym" height="6" width="6" x="-3" y="-3"/><text class="lab" transform="translate(0 11)">2</text></g><g class="a35 c2 node n34 p0" transform="translate(-127.938 12.7549)"><g class="a34 c2 node n32 p1" transform="translate(-112.125 21.337)"><g class="a32 c2 m0 node n20 p1 s0" transform="translate(69 104.705)"><g class="a20 i4 leaf node n4 p1 sample" transform="translate(-23 4.3704)"><path class="edge" d="M 0 0 V -4.3704 H 23"/><rect class="sym" height="6" width="6" x="-3" y="-3"/><text class="lab" transform="translate(0 11)">4</text></g><g class="a20 i6 leaf node n6 p1 sample" transform="translate(23 4.3704)"><path class="edge" d="M 0 0 V -4.3704 H -23"/><rect class="sym" height="6" width="6" x="-3" y="-3"/><text class="lab" transform="translate(0 11)">6</text></g><path class="edge" d="M 0 0 V -104.705 H -69"/><g class="mut m0 s0" transform="translate(0 -33.3581)"><line x1="0" x2="0" y1="0" y2="33.3581"/><path class="sym" d="M -3,-3 l 6,6 M -3,3 l 6,-6"/><text class="lab rgt" transform="translate(5 0)">0</text></g><circle class="sym" cx="0" cy="0" r="3"/><text class="lab rgt" transform="translate(3 -7)">20</text></g><g class="a32 c2 node n26 p2" transform="translate(-69 74.4568)"><g class="a26 c2 node n21 p2" transform="translate(-46 29.0321)"><g class="a21 i0 leaf node n0 p1 sample" transform="translate(-23 5.58613)"><path class="edge" d="M 0 0 V -5.58613 H 23"/><rect class="sym" height="6" width="6" x="-3" y="-3"/><text class="lab" transform="translate(0 11)">0</text></g><g class="a21 i17 leaf node n17 p2 sample" transform="translate(23 5.58613)"><path class="edge" d="M 0 0 V -5.58613 H -23"/><rect class="sym" height="6" width="6" x="-3" y="-3"/><text class="lab" transform="translate(0 11)">17</text></g><path class="edge" d="M 0 0 V -29.0321 H 46"/><circle class="sym" cx="0" cy="0" r="3"/><text class="lab lft" transform="translate(-3 -7)">21</text></g><g class="a26 c2 node n22 p2" transform="translate(46 27.0355)"><g class="a22 i7 leaf node n7 p1 sample" transform="translate(-23 7.58273)"><path class="edge" d="M 0 0 V -7.58273 H 23"/><rect class="sym" height="6" width="6" x="-3" y="-3"/><text class="lab" transform="translate(0 11)">7</text></g><g class="a22 i9 leaf node n9 p1 sample" transform="translate(23 7.58273)"><path class="edge" d="M 0 0 V -7.58273 H -23"/><rect class="sym" height="6" width="6" x="-3" y="-3"/><text class="lab" transform="translate(0 11)">9</text></g><path class="edge" d="M 0 0 V -27.0355 H -46"/><circle class="sym" cx="0" cy="0" r="3"/><text class="lab rgt" transform="translate(3 -7)">22</text></g><path class="edge" d="M 0 0 V -74.4568 H 69"/><circle class="sym" cx="0" cy="0" r="3"/><text class="lab lft" transform="translate(-3 -7)">26</text></g><path class="edge" d="M 0 0 V -21.337 H 112.125"/><circle class="sym" cx="0" cy="0" r="3"/><text class="lab lft" transform="translate(-3 -7)">32</text></g><g class="a34 c2 node n33 p2" transform="translate(112.125 19.4493)"><g class="a33 c2 node n29 p1" transform="translate(63.25 63.9245)"><g class="a29 i15 leaf m1 node n15 p2 s1 sample" transform="translate(34.5 47.0382)"><path class="edge" d="M 0 0 V -47.0382 H -34.5"/><g class="mut m1 s1" transform="translate(0 -12.6712)"><line x1="0" x2="0" y1="0" y2="12.6712"/><path class="sym" d="M -3,-3 l 6,6 M -3,3 l 6,-6"/><text class="lab rgt" transform="translate(5 0)">1</text></g><rect class="sym" height="6" width="6" x="-3" y="-3"/><text class="lab" transform="translate(0 11)">15</text></g><g class="a29 c2 node n27 p1" transform="translate(-34.5 5.49629)"><g class="a27 i10 leaf node n10 p2 sample" transform="translate(-23 41.5419)"><path class="edge" d="M 0 0 V -41.5419 H 23"/><rect class="sym" height="6" width="6" x="-3" y="-3"/><text class="lab" transform="translate(0 11)">10</text></g><g class="a27 i19 leaf node n19 p2 sample" transform="translate(23 41.5419)"><path class="edge" d="M 0 0 V -41.5419 H -23"/><rect class="sym" height="6" width="6" x="-3" y="-3"/><text class="lab" transform="translate(0 11)">19</text></g><path class="edge" d="M 0 0 V -5.49629 H 34.5"/><circle class="sym" cx="0" cy="0" r="3"/><text class="lab lft" transform="translate(-3 -7)">27</text></g><path class="edge" d="M 0 0 V -63.9245 H -63.25"/><circle class="sym" cx="0" cy="0" r="3"/><text class="lab rgt" transform="translate(3 -7)">29</text></g><g class="a33 c2 node n31 p1" transform="translate(-63.25 20.0226)"><g class="a31 i3 leaf node n3 p1 sample" transform="translate(-23 90.9401)"><path class="edge" d="M 0 0 V -90.9401 H 23"/><rect class="sym" height="6" width="6" x="-3" y="-3"/><text class="lab" transform="translate(0 11)">3</text></g><g class="a31 i16 leaf node n16 p2 sample" transform="translate(23 90.9401)"><path class="edge" d="M 0 0 V -90.9401 H -23"/><rect class="sym" height="6" width="6" x="-3" y="-3"/><text class="lab" transform="translate(0 11)">16</text></g><path class="edge" d="M 0 0 V -20.0226 H 63.25"/><circle class="sym" cx="0" cy="0" r="3"/><text class="lab lft" transform="translate(-3 -7)">31</text></g><path class="edge" d="M 0 0 V -19.4493 H -112.125"/><circle class="sym" cx="0" cy="0" r="3"/><text class="lab rgt" transform="translate(3 -7)">33</text></g><path class="edge" d="M 0 0 V -12.7549 H 127.938"/><circle class="sym" cx="0" cy="0" r="3"/><text class="lab lft" transform="translate(-3 -7)">34</text></g><path class="edge" d="M 0 0 V -66.6315 H 130.094"/><circle class="sym" cx="0" cy="0" r="3"/><text class="lab lft" transform="translate(-3 -7)">35</text></g><path class="edge" d="M 0 0 V -77.3648 H 142.672"/><circle class="sym" cx="0" cy="0" r="3"/><text class="lab lft" transform="translate(-3 -7)">36</text></g><path class="edge" d="M 0 0 V -7.43678 H 111.586"/><circle class="sym" cx="0" cy="0" r="3"/><text class="lab lft" transform="translate(-3 -7)">37</text></g><circle class="sym" cx="0" cy="0" r="3"/><text class="lab" transform="translate(0 -11)">38</text></g></g></g></g></g></svg>