<svg baseProfile="full" height="400" version="1.1" width="1000" xmlns="http://www.w3.org/2000/svg" xmlns:ev="http://www.w3.org/2001/xml-events" xmlns:xlink="http://www.w3.org/1999/xlink"><defs><style type="text/css"><![CDATA[.background path {fill: #808080; fill-opacity: 0}.background path:nth-child(odd) {fill-opacity: .1}.x-regions rect {fill: yellow; stroke: black; opacity: 0.5}.axes {font-size: 14px}.x-axis .tick .lab {font-weight: bold; dominant-baseline: hanging}.axes, .tree {font-size: 14px; text-anchor: middle}.axes line, .edge {stroke: black; fill: none}.axes .ax-skip {stroke-dasharray: 4}.y-axis .grid {stroke: #FAFAFA}.node > .sym {fill: black; stroke: none}.site > .sym {stroke: black}.mut text {fill: red; font-style: italic}.mut.extra text {fill: hotpink}.mut line {fill: none; stroke: none}.mut .sym {fill: none; stroke: red}.mut.extra .sym {stroke: hotpink}.node .mut .sym {stroke-width: 1.5px}.tree text, .tree-sequence text {dominant-baseline: central}.plotbox .lab.lft {text-anchor: end}.plotbox .lab.rgt {text-anchor: start}.polytomy line {stroke: black; stroke-dasharray: 1px, 1px}.polytomy text {paint-order:stroke;stroke-width:0.3em;stroke:white}]]></style></defs><g class="tree-sequence"><g class="background"><path d="M20,0 l960,0 l0,338.2 l0,25 l0,5 l-960,0 l0,-5 l0,-25 l0,-338.2z"/></g><g class="axes"><g class="x-axis"><g class="title" transform="translate(500 400)"><text class="lab" text-anchor="middle" transform="translate(0 -11)">Genome position</text></g><line class="ax-line" x1="20" x2="980" y1="363.2" y2="363.2"/><g class="ticks"><g class="tick" transform="translate(20 363.2)"><line x1="0" x2="0" y1="0" y2="5"/><g transform="translate(0 6)"><text class="lab">0</text></g></g><g class="tick" transform="translate(980 363.2)"><line x1="0" x2="0" y1="0" y2="5"/><g transform="translate(0 6)"><text class="lab">1000</text></g></g></g><g class="site s0" transform="translate(444.32 363.2)"><line class="sym" x1="0" x2="0" y1="0" y2="-10"/><g class="mut m0"><polyline class="sym" points="2.5,-6.5 0,-1.5 -2.5,-6.5"/></g></g><g class="site s1" transform="translate(620.96 363.2)"><line class="sym" x1="0" x2="0" y1="0" y2="-10"/><g class="mut m1"><polyline class="sym" points="2.5,-6.5 0,-1.5 -2.5,-6.5"/></g></g><g class="site s2" transform="translate(676.64 363.2)"><line class="sym" x1="0" x2="0" y1="0" y2="-10"/><g class="mut m2"><polyline class="sym" points="2.5,-6.5 0,-1.5 -2.5,-6.5"/></g></g><g class="site s3" transform="translate(680.48 363.2)"><line class="sym" x1="0" x2="0" y1="0" y2="-10"/><g class="mut m3"><polyline class="sym" points="2.5,-6.5 0,-1.5 -2.5,-6.5"/></g></g></g></g><g class="plotbox trees"><g class="tree t0" transform="translate(20 0)"><g class="plotbox"><g class="c2 node n38 p2 root" transform="translate(794.79 26.8)"><g class="a38 i2 leaf m0 node n2 p1 s0 sample" transform="translate(122.21 294.6)"><path class="edge" d="M 0 0 V -294.6 H -122.21"/><g class="mut m0 s0" transform="translate(0 -118.067)"><line x1="0" x2="0" y1="0" y2="118.067"/><path class="sym" d="M -3,-3 l 6,6 M -3,3 l 6,-6"/><text class="lab rgt" transform="translate(5 0)">0</text></g><rect class="sym" height="6" width="6" x="-3" y="-3"/><text class="lab" transform="translate(0 11)">2</text></g><g class="a38 c2 node n37 p1" transform="translate(-122.21 52.9776)"><g class="a37 c2 node n34 p1" transform="translate(112.17 134.341)"><g class="a34 c2 node n26 p2" transform="translate(-63.25 79.7129)"><g class="a26 i1 leaf node n1 p1 sample" transform="translate(-34.5 27.5687)"><path class="edge" d="M 0 0 V -27.5687 H 34.5"/><rect class="sym" height="6" width="6" x="-3" y="-3"/><text class="lab" transform="translate(0 11)">1</text></g><g class="a26 c2 node n21 p2" transform="translate(34.5 24.0833)"><g class="a21 i6 leaf node n6 p1 sample" transform="translate(-23 3.48536)"><path class="edge" d="M 0 0 V -3.48536 H 23"/><rect class="sym" height="6" width="6" x="-3" y="-3"/><text class="lab" transform="translate(0 11)">6</text></g><g class="a21 i18 leaf node n18 p2 sample" transform="translate(23 3.48536)"><path class="edge" d="M 0 0 V -3.48536 H -23"/><rect class="sym" height="6" width="6" x="-3" y="-3"/><text class="lab" transform="translate(0 11)">18</text></g><path class="edge" d="M 0 0 V -24.0833 H -34.5"/><circle class="sym" cx="0" cy="0" r="3"/><text class="lab rgt" transform="translate(3 -7)">21</text></g><path class="edge" d="M 0 0 V -79.7129 H 63.25"/><circle class="sym" cx="0" cy="0" r="3"/><text class="lab lft" transform="translate(-3 -7)">26</text></g><g class="a34 c2 node n32 p1" transform="translate(63.25 21.9409)"><g class="a32 i10 leaf m2 m3 node n10 p2 s2 s3 sample" transform="translate(-23 85.3407)"><path class="edge" d="M 0 0 V -85.3407 H 23"/><g class="mut m3 s3" transform="translate(0 -61.0273)"><line x1="0" x2="0" y1="0" y2="61.0273"/><path class="sym" d="M -3,-3 l 6,6 M -3,3 l 6,-6"/><text class="lab lft" transform="translate(-5 0)">3</text></g><g class="mut m2 s2" transform="translate(0 -1.37278)"><line x1="0" x2="0" y1="0" y2="1.37278"/><path class="sym" d="M -3,-3 l 6,6 M -3,3 l 6,-6"/><text class="lab lft" transform="translate(-5 0)">2</text></g><rect class="sym" height="6" width="6" x="-3" y="-3"/><text class="lab" transform="translate(0 11)">10</text></g><g class="a32 i16 leaf m1 node n16 p2 s1 sample" transform="translate(23 85.3407)"><path class="edge" d="M 0 0 V -85.3407 H -23"/><g class="mut m1 s1" transform="translate(0 -70.1981)"><line x1="0" x2="0" y1="0" y2="70.1981"/><path class="sym" d="M -3,-3 l 6,6 M -3,3 l 6,-6"/><text class="lab rgt" transform="translate(5 0)">1</text></g><rect class="sym" height="6" width="6" x="-3" y="-3"/><text class="lab" transform="translate(0 11)">16</text></g><path class="edge" d="M 0 0 V -21.9409 H -63.25"/><circle class="sym" cx="0" cy="0" r="3"/><text class="lab rgt" transform="translate(3 -7)">32</text></g><path class="edge" d="M 0 0 V -134.341 H -112.17"/><circle class="sym" cx="0" cy="0" r="3"/><text class="lab rgt" transform="translate(3 -7)">34</text></g><g class="a37 c2 node n36 p2" transform="translate(-112.17 48.4467)"><g class="a36 i15 leaf node n15 p2 sample" transform="translate(80.5898 193.176)"><path class="edge" d="M 0 0 V -193.176 H -80.5898"/><rect class="sym" height="6" width="6" x="-3" y="-3"/><text class="lab" transform="translate(0 11)">15</text></g><g class="a36 c2 node n35 p2" transform="translate(-80.5898 56.2074)"><g class="a35 c2 node n31 p1" transform="translate(-92.1797 75.658)"><g class="a31 c2 node n25 p1" transform="translate(92.3594 34.9108)"><g class="a25 i3 leaf node n3 p1 sample" transform="translate(-23 26.3996)"><path class="edge" d="M 0 0 V -26.3996 H 23"/><rect class="sym" height="6" width="6" x="-3" y="-3"/><text class="lab" transform="translate(0 11)">3</text></g><g class="a25 i12 leaf node n12 p2 sample" transform="translate(23 26.3996)"><path class="edge" d="M 0 0 V -26.3996 H -23"/><rect class="sym" height="6" width="6" x="-3" y="-3"/><text class="lab" transform="translate(0 11)">12</text></g><path class="edge" d="M 0 0 V -34.9108 H -92.3594"/><circle class="sym" cx="0" cy="0" r="3"/><text class="lab rgt" transform="translate(3 -7)">25</text></g><g class="a31 c2 node n30 p2" transform="translate(-92.3594 13.8352)"><g class="a30 c2 node n20 p2" transform="translate(92.7188 45.9607)"><g class="a20 i9 leaf node n9 p1 sample" transform="translate(-23 1.51448)"><path class="edge" d="M 0 0 V -1.51448 H 23"/><rect class="sym" height="6" width="6" x="-3" y="-3"/><text class="lab" transform="translate(0 11)">9</text></g><g class="a20 i14 leaf node n14 p2 sample" transform="translate(23 1.51448)"><path class="edge" d="M 0 0 V -1.51448 H -23"/><rect class="sym" height="6" width="6" x="-3" y="-3"/><text class="lab" transform="translate(0 11)">14</text></g><path class="edge" d="M 0 0 V -45.9607 H -92.7188"/><circle class="sym" cx="0" cy="0" r="3"/><text class="lab rgt" transform="translate(3 -7)">20</text></g><g class="a30 c2 node n29 p1" transform="translate(-92.7188 3.1353)"><g class="a29 c2 node n27 p2" transform="translate(93.4375 13.7036)"><g class="a27 i5 leaf node n5 p1 sample" transform="translate(-23 30.6363)"><path class="edge" d="M 0 0 V -30.6363 H 23"/><rect class="sym" height="6" width="6" x="-3" y="-3"/><text class="lab" transform="translate(0 11)">5</text></g><g class="a27 i17 leaf node n17 p2 sample" transform="translate(23 30.6363)"><path class="edge" d="M 0 0 V -30.6363 H -23"/><rect class="sym" height="6" width="6" x="-3" y="-3"/><text class="lab" transform="translate(0 11)">17</text></g><path class="edge" d="M 0 0 V -13.7036 H -93.4375"/><circle class="sym" cx="0" cy="0" r="3"/><text class="lab rgt" transform="translate(3 -7)">27</text></g><g class="a29 c2 node n28 p1" transform="translate(-93.4375 6.95215)"><g class="a28 i0 leaf node n0 p1 sample" transform="translate(-66.125 37.3877)"><path class="edge" d="M 0 0 V -37.3877 H 66.125"/><rect class="sym" height="6" width="6" x="-3" y="-3"/><text class="lab" transform="translate(0 11)">0</text></g><g class="a28 c2 node n24 p1" transform="translate(66.125 17.1934)"><g class="a24 i11 leaf node n11 p2 sample" transform="translate(51.75 20.1943)"><path class="edge" d="M 0 0 V -20.1943 H -51.75"/><rect class="sym" height="6" width="6" x="-3" y="-3"/><text class="lab" transform="translate(0 11)">11</text></g><g class="a24 c2 node n23 p2" transform="translate(-51.75 1.64395)"><g class="a23 i7 leaf node n7 p1 sample" transform="translate(-34.5 18.5504)"><path class="edge" d="M 0 0 V -18.5504 H 34.5"/><rect class="sym" height="6" width="6" x="-3" y="-3"/><text class="lab" transform="translate(0 11)">7</text></g><g class="a23 c2 node n22 p2" transform="translate(34.5 14.0665)"><g class="a22 i13 leaf node n13 p2 sample" transform="translate(-23 4.48389)"><path class="edge" d="M 0 0 V -4.48389 H 23"/><rect class="sym" height="6" width="6" x="-3" y="-3"/><text class="lab" transform="translate(0 11)">13</text></g><g class="a22 i19 leaf node n19 p2 sample" transform="translate(23 4.48389)"><path class="edge" d="M 0 0 V -4.48389 H -23"/><rect class="sym" height="6" width="6" x="-3" y="-3"/><text class="lab" transform="translate(0 11)">19</text></g><path class="edge" d="M 0 0 V -14.0665 H -34.5"/><circle class="sym" cx="0" cy="0" r="3"/><text class="lab rgt" transform="translate(3 -7)">22</text></g><path class="edge" d="M 0 0 V -1.64395 H 51.75"/><circle class="sym" cx="0" cy="0" r="3"/><text class="lab lft" transform="translate(-3 -7)">23</text></g><path class="edge" d="M 0 0 V -17.1934 H -66.125"/><circle class="sym" cx="0" cy="0" r="3"/><text class="lab rgt" transform="translate(3 -7)">24</text></g><path class="edge" d="M 0 0 V -6.95215 H 93.4375"/><circle class="sym" cx="0" cy="0" r="3"/><text class="lab lft" transform="translate(-3 -7)">28</text></g><path class="edge" d="M 0 0 V -3.1353 H 92.7188"/><circle class="sym" cx="0" cy="0" r="3"/><text class="lab lft" transform="translate(-3 -7)">29</text></g><path class="edge" d="M 0 0 V -13.8352 H 92.3594"/><circle class="sym" cx="0" cy="0" r="3"/><text class="lab lft" transform="translate(-3 -7)">30</text></g><path class="edge" d="M 0 0 V -75.658 H 92.1797"/><circle class="sym" cx="0" cy="0" r="3"/><text class="lab lft" transform="translate(-3 -7)">31</text></g><g class="a35 c2 node n33 p2" transform="translate(92.1797 34.9251)"><g class="a33 i4 leaf node n4 p1 sample" transform="translate(-23 102.043)"><path class="edge" d="M 0 0 V -102.043 H 23"/><rect class="sym" height="6" width="6" x="-3" y="-3"/><text class="lab" transform="translate(0 11)">4</text></g><g class="a33 i8 leaf node n8 p1 sample" transform="translate(23 102.043)"><path class="edge" d="M 0 0 V -102.043 H -23"/><rect class="sym" height="6" width="6" x="-3" y="-3"/><text class="lab" transform="translate(0 11)">8</text></g><path class="edge" d="M 0 0 V -34.9251 H -92.1797"/><circle class="sym" cx="0" cy="0" r="3"/><text class="lab rgt" transform="translate(3 -7)">33</text></g><path class="edge" d="M 0 0 V -56.2074 H 80.5898"/><circle class="sym" cx="0" cy="0" r="3"/><text class="lab lft" transform="translate(-3 -7)">35</text></g><path class="edge" d="M 0 0 V -48.4467 H 112.17"/><circle class="sym" cx="0" cy="0" r="3"/><text class="lab lft" transform="translate(-3 -7)">36</text></g><path class="edge" d="M 0 0 V -52.9776 H 122.21"/><circle class="sym" cx="0" cy="0" r="3"/><text class="lab lft" transform="translate(-3 -7)">37</text></g><circle class="sym" cx="0" cy="0" r="3"/><text class="lab" transform="translate(0 -11)">38</text></g></g></g></g></g></svg>