<svg baseProfile="full" height="400" version="1.1" width="1000" xmlns="http://www.w3.org/2000/svg" xmlns:ev="http://www.w3.org/2001/xml-events" xmlns:xlink="http://www.w3.org/1999/xlink"><defs><style type="text/css"><![CDATA[.background path {fill: #808080; fill-opacity: 0}.background path:nth-child(odd) {fill-opacity: .1}.x-regions rect {fill: yellow; stroke: black; opacity: 0.5}.axes {font-size: 14px}.x-axis .tick .lab {font-weight: bold; dominant-baseline: hanging}.axes, .tree {font-size: 14px; text-anchor: middle}.axes line, .edge {stroke: black; fill: none}.axes .ax-skip {stroke-dasharray: 4}.y-axis .grid {stroke: #FAFAFA}.node > .sym {fill: black; stroke: none}.site > .sym {stroke: black}.mut text {fill: red; font-style: italic}.mut.extra text {fill: hotpink}.mut line {fill: none; stroke: none}.mut .sym {fill: none; stroke: red}.mut.extra .sym {stroke: hotpink}.node .mut .sym {stroke-width: 1.5px}.tree text, .tree-sequence text {dominant-baseline: central}.plotbox .lab.lft {text-anchor: end}.plotbox .lab.rgt {text-anchor: start}.polytomy line {stroke: black; stroke-dasharray: 1px, 1px}.polytomy text {paint-order:stroke;stroke-width:0.3em;stroke:white}]]></style></defs><g class="tree-sequence"><g class="background"><path d="M20,0 l960,0 l0,338.2 l0,25 l0,5 l-960,0 l0,-5 l0,-25 l0,-338.2z"/></g><g class="axes"><g class="x-axis"><g class="title" transform="translate(500 400)"><text class="lab" text-anchor="middle" transform="translate(0 -11)">Genome position</text></g><line class="ax-line" x1="20" x2="980" y1="363.2" y2="363.2"/><g class="ticks"><g class="tick" transform="translate(20 363.2)"><line x1="0" x2="0" y1="0" y2="5"/><g transform="translate(0 6)"><text class="lab">0</text></g></g><g class="tick" transform="translate(980 363.2)"><line x1="0" x2="0" y1="0" y2="5"/><g transform="translate(0 6)"><text class="lab">1000</text></g></g></g><g class="site s0" transform="translate(401.12 363.2)"><line class="sym" x1="0" x2="0" y1="0" y2="-10"/><g class="mut m0"><polyline class="sym" points="2.5,-6.5 0,-1.5 -2.5,-6.5"/></g></g><g class="site s1" transform="translate(783.2 363.2)"><line class="sym" x1="0" x2="0" y1="0" y2="-10"/><g class="mut m1"><polyline class="sym" points="2.5,-6.5 0,-1.5 -2.5,-6.5"/></g></g></g></g><g class="plotbox trees"><g class="tree t0" transform="translate(20 0)"><g class="plotbox"><g class="c2 node n38 p0 root" transform="translate(553.672 26.8)"><g class="a38 c2 node n36 p0" transform="translate(208.078 54.6679)"><g class="a36 c2 node n33 p0" transform="translate(-86.25 105.628)"><g class="a33 i19 leaf node n19 p2 sample" transform="translate(57.5 134.304)"><path class="edge" d="M 0 0 V -134.304 H -57.5"/><rect class="sym" height="6" width="6" x="-3" y="-3"/><text class="lab" transform="translate(0 11)">19</text></g><g class="a33 c2 m1 node n31 p2 s1" transform="translate(-57.5 66.6281)"><g class="a31 c2 node n20 p1" transform="translate(-46 66.0262)"><g class="a20 i1 leaf node n1 p1 sample" transform="translate(-23 1.64947)"><path class="edge" d="M 0 0 V -1.64947 H 23"/><rect class="sym" height="6" width="6" x="-3" y="-3"/><text class="lab" transform="translate(0 11)">1</text></g><g class="a20 i11 leaf node n11 p2 sample" transform="translate(23 1.64947)"><path class="edge" d="M 0 0 V -1.64947 H -23"/><rect class="sym" height="6" width="6" x="-3" y="-3"/><text class="lab" transform="translate(0 11)">11</text></g><path class="edge" d="M 0 0 V -66.0262 H 46"/><circle class="sym" cx="0" cy="0" r="3"/><text class="lab lft" transform="translate(-3 -7)">20</text></g><g class="a31 c2 node n29 p1" transform="translate(46 20.5601)"><g class="a29 i9 leaf node n9 p1 sample" transform="translate(-23 47.1156)"><path class="edge" d="M 0 0 V -47.1156 H 23"/><rect class="sym" height="6" width="6" x="-3" y="-3"/><text class="lab" transform="translate(0 11)">9</text></g><g class="a29 i14 leaf node n14 p2 sample" transform="translate(23 47.1156)"><path class="edge" d="M 0 0 V -47.1156 H -23"/><rect class="sym" height="6" width="6" x="-3" y="-3"/><text class="lab" transform="translate(0 11)">14</text></g><path class="edge" d="M 0 0 V -20.5601 H -46"/><circle class="sym" cx="0" cy="0" r="3"/><text class="lab rgt" transform="translate(3 -7)">29</text></g><path class="edge" d="M 0 0 V -66.6281 H 57.5"/><g class="mut m1 s1" transform="translate(0 -17.3657)"><line x1="0" x2="0" y1="0" y2="17.3657"/><path class="sym" d="M -3,-3 l 6,6 M -3,3 l 6,-6"/><text class="lab lft" transform="translate(-5 0)">1</text></g><circle class="sym" cx="0" cy="0" r="3"/><text class="lab lft" transform="translate(-3 -7)">31</text></g><path class="edge" d="M 0 0 V -105.628 H 86.25"/><circle class="sym" cx="0" cy="0" r="3"/><text class="lab lft" transform="translate(-3 -7)">33</text></g><g class="a36 c2 node n35 p0" transform="translate(86.25 81.4661)"><g class="a35 c2 m0 node n24 p2 s0" transform="translate(46 142.643)"><g class="a24 i10 leaf node n10 p2 sample" transform="translate(-23 15.8234)"><path class="edge" d="M 0 0 V -15.8234 H 23"/><rect class="sym" height="6" width="6" x="-3" y="-3"/><text class="lab" transform="translate(0 11)">10</text></g><g class="a24 i17 leaf node n17 p2 sample" transform="translate(23 15.8234)"><path class="edge" d="M 0 0 V -15.8234 H -23"/><rect class="sym" height="6" width="6" x="-3" y="-3"/><text class="lab" transform="translate(0 11)">17</text></g><path class="edge" d="M 0 0 V -142.643 H -46"/><g class="mut m0 s0" transform="translate(0 -141.687)"><line x1="0" x2="0" y1="0" y2="141.687"/><path class="sym" d="M -3,-3 l 6,6 M -3,3 l 6,-6"/><text class="lab rgt" transform="translate(5 0)">0</text></g><circle class="sym" cx="0" cy="0" r="3"/><text class="lab rgt" transform="translate(3 -7)">24</text></g><g class="a35 c2 node n26 p2" transform="translate(-46 129.912)"><g class="a26 i3 leaf node n3 p1 sample" transform="translate(-23 28.5541)"><path class="edge" d="M 0 0 V -28.5541 H 23"/><rect class="sym" height="6" width="6" x="-3" y="-3"/><text class="lab" transform="translate(0 11)">3</text></g><g class="a26 i18 leaf node n18 p2 sample" transform="translate(23 28.5541)"><path class="edge" d="M 0 0 V -28.5541 H -23"/><rect class="sym" height="6" width="6" x="-3" y="-3"/><text class="lab" transform="translate(0 11)">18</text></g><path class="edge" d="M 0 0 V -129.912 H 46"/><circle class="sym" cx="0" cy="0" r="3"/><text class="lab lft" transform="translate(-3 -7)">26</text></g><path class="edge" d="M 0 0 V -81.4661 H -86.25"/><circle class="sym" cx="0" cy="0" r="3"/><text class="lab rgt" transform="translate(3 -7)">35</text></g><path class="edge" d="M 0 0 V -54.6679 H -208.078"/><circle class="sym" cx="0" cy="0" r="3"/><text class="lab rgt" transform="translate(3 -7)">36</text></g><g class="a38 c2 node n37 p0" transform="translate(-208.078 6.16211)"><g class="a37 c2 node n32 p0" transform="translate(88.4062 179.159)"><g class="a32 c2 node n22 p2" transform="translate(46 102.269)"><g class="a22 i13 leaf node n13 p2 sample" transform="translate(-23 7.00959)"><path class="edge" d="M 0 0 V -7.00959 H 23"/><rect class="sym" height="6" width="6" x="-3" y="-3"/><text class="lab" transform="translate(0 11)">13</text></g><g class="a22 i15 leaf node n15 p2 sample" transform="translate(23 7.00959)"><path class="edge" d="M 0 0 V -7.00959 H -23"/><rect class="sym" height="6" width="6" x="-3" y="-3"/><text class="lab" transform="translate(0 11)">15</text></g><path class="edge" d="M 0 0 V -102.269 H -46"/><circle class="sym" cx="0" cy="0" r="3"/><text class="lab rgt" transform="translate(3 -7)">22</text></g><g class="a32 c2 node n25 p2" transform="translate(-46 92.0045)"><g class="a25 i2 leaf node n2 p1 sample" transform="translate(-23 17.2744)"><path class="edge" d="M 0 0 V -17.2744 H 23"/><rect class="sym" height="6" width="6" x="-3" y="-3"/><text class="lab" transform="translate(0 11)">2</text></g><g class="a25 i5 leaf node n5 p1 sample" transform="translate(23 17.2744)"><path class="edge" d="M 0 0 V -17.2744 H -23"/><rect class="sym" height="6" width="6" x="-3" y="-3"/><text class="lab" transform="translate(0 11)">5</text></g><path class="edge" d="M 0 0 V -92.0045 H 46"/><circle class="sym" cx="0" cy="0" r="3"/><text class="lab lft" transform="translate(-3 -7)">25</text></g><path class="edge" d="M 0 0 V -179.159 H -88.4062"/><circle class="sym" cx="0" cy="0" r="3"/><text class="lab rgt" transform="translate(3 -7)">32</text></g><g class="a37 c2 node n34 p0" transform="translate(-88.4062 135.939)"><g class="a34 i7 leaf node n7 p1 sample" transform="translate(61.8125 152.499)"><path class="edge" d="M 0 0 V -152.499 H -61.8125"/><rect class="sym" height="6" width="6" x="-3" y="-3"/><text class="lab" transform="translate(0 11)">7</text></g><g class="a34 c2 node n30 p2" transform="translate(-61.8125 102.474)"><g class="a30 i16 leaf node n16 p2 sample" transform="translate(77.625 50.0255)"><path class="edge" d="M 0 0 V -50.0255 H -77.625"/><rect class="sym" height="6" width="6" x="-3" y="-3"/><text class="lab" transform="translate(0 11)">16</text></g><g class="a30 c2 node n28 p1" transform="translate(-77.625 8.84602)"><g class="a28 c2 node n23 p2" transform="translate(51.75 26.8044)"><g class="a23 i6 leaf node n6 p1 sample" transform="translate(-34.5 14.375)"><path class="edge" d="M 0 0 V -14.375 H 34.5"/><rect class="sym" height="6" width="6" x="-3" y="-3"/><text class="lab" transform="translate(0 11)">6</text></g><g class="a23 c2 node n21 p1" transform="translate(34.5 7.48737)"><g class="a21 i8 leaf node n8 p1 sample" transform="translate(-23 6.88768)"><path class="edge" d="M 0 0 V -6.88768 H 23"/><rect class="sym" height="6" width="6" x="-3" y="-3"/><text class="lab" transform="translate(0 11)">8</text></g><g class="a21 i12 leaf node n12 p2 sample" transform="translate(23 6.88768)"><path class="edge" d="M 0 0 V -6.88768 H -23"/><rect class="sym" height="6" width="6" x="-3" y="-3"/><text class="lab" transform="translate(0 11)">12</text></g><path class="edge" d="M 0 0 V -7.48737 H -34.5"/><circle class="sym" cx="0" cy="0" r="3"/><text class="lab rgt" transform="translate(3 -7)">21</text></g><path class="edge" d="M 0 0 V -26.8044 H -51.75"/><circle class="sym" cx="0" cy="0" r="3"/><text class="lab rgt" transform="translate(3 -7)">23</text></g><g class="a28 c2 node n27 p2" transform="translate(-51.75 4.90104)"><g class="a27 i0 leaf node n0 p1 sample" transform="translate(-23 36.2784)"><path class="edge" d="M 0 0 V -36.2784 H 23"/><rect class="sym" height="6" width="6" x="-3" y="-3"/><text class="lab" transform="translate(0 11)">0</text></g><g class="a27 i4 leaf node n4 p1 sample" transform="translate(23 36.2784)"><path class="edge" d="M 0 0 V -36.2784 H -23"/><rect class="sym" height="6" width="6" x="-3" y="-3"/><text class="lab" transform="translate(0 11)">4</text></g><path class="edge" d="M 0 0 V -4.90104 H 51.75"/><circle class="sym" cx="0" cy="0" r="3"/><text class="lab lft" transform="translate(-3 -7)">27</text></g><path class="edge" d="M 0 0 V -8.84602 H 77.625"/><circle class="sym" cx="0" cy="0" r="3"/><text class="lab lft" transform="translate(-3 -7)">28</text></g><path class="edge" d="M 0 0 V -102.474 H 61.8125"/><circle class="sym" cx="0" cy="0" r="3"/><text class="lab lft" transform="translate(-3 -7)">30</text></g><path class="edge" d="M 0 0 V -135.939 H 88.4062"/><circle class="sym" cx="0" cy="0" r="3"/><text class="lab lft" transform="translate(-3 -7)">34</text></g><path class="edge" d="M 0 0 V -6.16211 H 208.078"/><circle class="sym" cx="0" cy="0" r="3"/><text class="lab lft" transform="translate(-3 -7)">37</text></g><circle class="sym" cx="0" cy="0" r="3"/><text class="lab" transform="translate(0 -11)">38</text></g></g></g></g></g></svg>