<svg baseProfile="full" height="400" version="1.1" width="1000" xmlns="http://www.w3.org/2000/svg" xmlns:ev="http://www.w3.org/2001/xml-events" xmlns:xlink="http://www.w3.org/1999/xlink"><defs><style type="text/css"><![CDATA[.background path {fill: #808080; fill-opacity: 0}.background path:nth-child(odd) {fill-opacity: .1}.x-regions rect {fill: yellow; stroke: black; opacity: 0.5}.axes {font-size: 14px}.x-axis .tick .lab {font-weight: bold; dominant-baseline: hanging}.axes, .tree {font-size: 14px; text-anchor: middle}.axes line, .edge {stroke: black; fill: none}.axes .ax-skip {stroke-dasharray: 4}.y-axis .grid {stroke: #FAFAFA}.node > .sym {fill: black; stroke: none}.site > .sym {stroke: black}.mut text {fill: red; font-style: italic}.mut.extra text {fill: hotpink}.mut line {fill: none; stroke: none}.mut .sym {fill: none; stroke: red}.mut.extra .sym {stroke: hotpink}.node .mut .sym {stroke-width: 1.5px}.tree text, .tree-sequence text {dominant-baseline: central}.plotbox .lab.lft {text-anchor: end}.plotbox .lab.rgt {text-anchor: start}.polytomy line {stroke: black; stroke-dasharray: 1px, 1px}.polytomy text {paint-order:stroke;stroke-width:0.3em;stroke:white}]]></style></defs><g class="tree-sequence"><g class="background"><path d="M20,0 l960,0 l0,338.2 l0,25 l0,5 l-960,0 l0,-5 l0,-25 l0,-338.2z"/></g><g class="axes"><g class="x-axis"><g class="title" transform="translate(500 400)"><text class="lab" text-anchor="middle" transform="translate(0 -11)">Genome position</text></g><line class="ax-line" x1="20" x2="980" y1="363.2" y2="363.2"/><g class="ticks"><g class="tick" transform="translate(20 363.2)"><line x1="0" x2="0" y1="0" y2="5"/><g transform="translate(0 6)"><text class="lab">0</text></g></g><g class="tick" transform="translate(980 363.2)"><line x1="0" x2="0" y1="0" y2="5"/><g transform="translate(0 6)"><text class="lab">1000</text></g></g></g><g class="site s0" transform="translate(111.2 363.2)"><line class="sym" x1="0" x2="0" y1="0" y2="-10"/><g class="mut m0"><polyline class="sym" points="2.5,-6.5 0,-1.5 -2.5,-6.5"/></g></g><g class="site s1" transform="translate(580.64 363.2)"><line class="sym" x1="0" x2="0" y1="0" y2="-10"/><g class="mut m1"><polyline class="sym" points="2.5,-6.5 0,-1.5 -2.5,-6.5"/></g></g></g></g><g class="plotbox trees"><g class="tree t0" transform="translate(20 0)"><g class="plotbox"><g class="c2 node n38 p1 root" transform="translate(492.219 26.8)"><g class="a38 c2 m0 m1 node n32 p1 s0 s1" transform="translate(-279.594 286.02)"><g class="a32 i3 leaf node n3 p1 sample" transform="translate(60.375 8.57953)"><path class="edge" d="M 0 0 V -8.57953 H -60.375"/><rect class="sym" height="6" width="6" x="-3" y="-3"/><text class="lab" transform="translate(0 11)">3</text></g><g class="a32 c2 node n29 p2" transform="translate(-60.375 1.92928)"><g class="a29 c2 node n20 p2" transform="translate(51.75 6.43035)"><g class="a20 i13 leaf node n13 p2 sample" transform="translate(-23 0.2199)"><path class="edge" d="M 0 0 V -0.2199 H 23"/><rect class="sym" height="6" width="6" x="-3" y="-3"/><text class="lab" transform="translate(0 11)">13</text></g><g class="a20 i16 leaf node n16 p2 sample" transform="translate(23 0.2199)"><path class="edge" d="M 0 0 V -0.2199 H -23"/><rect class="sym" height="6" width="6" x="-3" y="-3"/><text class="lab" transform="translate(0 11)">16</text></g><path class="edge" d="M 0 0 V -6.43035 H -51.75"/><circle class="sym" cx="0" cy="0" r="3"/><text class="lab rgt" transform="translate(3 -7)">20</text></g><g class="a29 c2 node n26 p1" transform="translate(-51.75 4.32691)"><g class="a26 i5 leaf node n5 p1 sample" transform="translate(34.5 2.32334)"><path class="edge" d="M 0 0 V -2.32334 H -34.5"/><rect class="sym" height="6" width="6" x="-3" y="-3"/><text class="lab" transform="translate(0 11)">5</text></g><g class="a26 c2 node n23 p2" transform="translate(-34.5 1.01031)"><g class="a23 i0 leaf node n0 p1 sample" transform="translate(-23 1.31304)"><path class="edge" d="M 0 0 V -1.31304 H 23"/><rect class="sym" height="6" width="6" x="-3" y="-3"/><text class="lab" transform="translate(0 11)">0</text></g><g class="a23 i14 leaf node n14 p2 sample" transform="translate(23 1.31304)"><path class="edge" d="M 0 0 V -1.31304 H -23"/><rect class="sym" height="6" width="6" x="-3" y="-3"/><text class="lab" transform="translate(0 11)">14</text></g><path class="edge" d="M 0 0 V -1.01031 H 34.5"/><circle class="sym" cx="0" cy="0" r="3"/><text class="lab lft" transform="translate(-3 -7)">23</text></g><path class="edge" d="M 0 0 V -4.32691 H 51.75"/><circle class="sym" cx="0" cy="0" r="3"/><text class="lab lft" transform="translate(-3 -7)">26</text></g><path class="edge" d="M 0 0 V -1.92928 H 60.375"/><circle class="sym" cx="0" cy="0" r="3"/><text class="lab lft" transform="translate(-3 -7)">29</text></g><path class="edge" d="M 0 0 V -286.02 H 279.594"/><g class="mut m1 s1" transform="translate(0 -132.416)"><line x1="0" x2="0" y1="0" y2="132.416"/><path class="sym" d="M -3,-3 l 6,6 M -3,3 l 6,-6"/><text class="lab lft" transform="translate(-5 0)">1</text></g><g class="mut m0 s0" transform="translate(0 -96.0248)"><line x1="0" x2="0" y1="0" y2="96.0248"/><path class="sym" d="M -3,-3 l 6,6 M -3,3 l 6,-6"/><text class="lab lft" transform="translate(-5 0)">0</text></g><circle class="sym" cx="0" cy="0" r="3"/><text class="lab lft" transform="translate(-3 -7)">32</text></g><g class="a38 c2 node n37 p2" transform="translate(279.594 257.458)"><g class="a37 i17 leaf node n17 p2 sample" transform="translate(145.188 37.1417)"><path class="edge" d="M 0 0 V -37.1417 H -145.188"/><rect class="sym" height="6" width="6" x="-3" y="-3"/><text class="lab" transform="translate(0 11)">17</text></g><g class="a37 c2 node n36 p1" transform="translate(-145.188 21.1497)"><g class="a36 c2 node n33 p1" transform="translate(-178.25 3.91114)"><g class="a33 c2 node n22 p1" transform="translate(-106.375 11.6903)"><g class="a22 i1 leaf node n1 p1 sample" transform="translate(-23 0.390597)"><path class="edge" d="M 0 0 V -0.390597 H 23"/><rect class="sym" height="6" width="6" x="-3" y="-3"/><text class="lab" transform="translate(0 11)">1</text></g><g class="a22 i7 leaf node n7 p1 sample" transform="translate(23 0.390597)"><path class="edge" d="M 0 0 V -0.390597 H -23"/><rect class="sym" height="6" width="6" x="-3" y="-3"/><text class="lab" transform="translate(0 11)">7</text></g><path class="edge" d="M 0 0 V -11.6903 H 106.375"/><circle class="sym" cx="0" cy="0" r="3"/><text class="lab lft" transform="translate(-3 -7)">22</text></g><g class="a33 c2 node n31 p2" transform="translate(106.375 5.25859)"><g class="a31 i10 leaf node n10 p2 sample" transform="translate(86.25 6.82228)"><path class="edge" d="M 0 0 V -6.82228 H -86.25"/><rect class="sym" height="6" width="6" x="-3" y="-3"/><text class="lab" transform="translate(0 11)">10</text></g><g class="a31 c2 node n30 p1" transform="translate(-86.25 0.0131453)"><g class="a30 i2 leaf node n2 p1 sample" transform="translate(-57.5 6.80913)"><path class="edge" d="M 0 0 V -6.80913 H 57.5"/><rect class="sym" height="6" width="6" x="-3" y="-3"/><text class="lab" transform="translate(0 11)">2</text></g><g class="a30 c2 node n28 p2" transform="translate(57.5 1.65581)"><g class="a28 c2 node n24 p1" transform="translate(-46 3.81412)"><g class="a24 i12 leaf node n12 p2 sample" transform="translate(-23 1.33921)"><path class="edge" d="M 0 0 V -1.33921 H 23"/><rect class="sym" height="6" width="6" x="-3" y="-3"/><text class="lab" transform="translate(0 11)">12</text></g><g class="a24 i19 leaf node n19 p2 sample" transform="translate(23 1.33921)"><path class="edge" d="M 0 0 V -1.33921 H -23"/><rect class="sym" height="6" width="6" x="-3" y="-3"/><text class="lab" transform="translate(0 11)">19</text></g><path class="edge" d="M 0 0 V -3.81412 H 46"/><circle class="sym" cx="0" cy="0" r="3"/><text class="lab lft" transform="translate(-3 -7)">24</text></g><g class="a28 c2 node n27 p2" transform="translate(46 0.826194)"><g class="a27 i15 leaf node n15 p2 sample" transform="translate(-23 4.32713)"><path class="edge" d="M 0 0 V -4.32713 H 23"/><rect class="sym" height="6" width="6" x="-3" y="-3"/><text class="lab" transform="translate(0 11)">15</text></g><g class="a27 i18 leaf node n18 p2 sample" transform="translate(23 4.32713)"><path class="edge" d="M 0 0 V -4.32713 H -23"/><rect class="sym" height="6" width="6" x="-3" y="-3"/><text class="lab" transform="translate(0 11)">18</text></g><path class="edge" d="M 0 0 V -0.826194 H -46"/><circle class="sym" cx="0" cy="0" r="3"/><text class="lab rgt" transform="translate(3 -7)">27</text></g><path class="edge" d="M 0 0 V -1.65581 H -57.5"/><circle class="sym" cx="0" cy="0" r="3"/><text class="lab rgt" transform="translate(3 -7)">28</text></g><path class="edge" d="M 0 0 V -0.0131453 H 86.25"/><circle class="sym" cx="0" cy="0" r="3"/><text class="lab lft" transform="translate(-3 -7)">30</text></g><path class="edge" d="M 0 0 V -5.25859 H -106.375"/><circle class="sym" cx="0" cy="0" r="3"/><text class="lab rgt" transform="translate(3 -7)">31</text></g><path class="edge" d="M 0 0 V -3.91114 H 178.25"/><circle class="sym" cx="0" cy="0" r="3"/><text class="lab lft" transform="translate(-3 -7)">33</text></g><g class="a36 c2 node n35 p1" transform="translate(178.25 0.935454)"><g class="a35 i6 leaf node n6 p1 sample" transform="translate(66.125 15.0566)"><path class="edge" d="M 0 0 V -15.0566 H -66.125"/><rect class="sym" height="6" width="6" x="-3" y="-3"/><text class="lab" transform="translate(0 11)">6</text></g><g class="a35 c2 node n34 p1" transform="translate(-66.125 2.46467)"><g class="a34 i4 leaf node n4 p1 sample" transform="translate(-51.75 12.5919)"><path class="edge" d="M 0 0 V -12.5919 H 51.75"/><rect class="sym" height="6" width="6" x="-3" y="-3"/><text class="lab" transform="translate(0 11)">4</text></g><g class="a34 c2 node n25 p2" transform="translate(51.75 10.8756)"><g class="a25 i11 leaf node n11 p2 sample" transform="translate(34.5 1.7163)"><path class="edge" d="M 0 0 V -1.7163 H -34.5"/><rect class="sym" height="6" width="6" x="-3" y="-3"/><text class="lab" transform="translate(0 11)">11</text></g><g class="a25 c2 node n21 p1" transform="translate(-34.5 1.44049)"><g class="a21 i8 leaf node n8 p1 sample" transform="translate(-23 0.275812)"><path class="edge" d="M 0 0 V -0.275812 H 23"/><rect class="sym" height="6" width="6" x="-3" y="-3"/><text class="lab" transform="translate(0 11)">8</text></g><g class="a21 i9 leaf node n9 p1 sample" transform="translate(23 0.275812)"><path class="edge" d="M 0 0 V -0.275812 H -23"/><rect class="sym" height="6" width="6" x="-3" y="-3"/><text class="lab" transform="translate(0 11)">9</text></g><path class="edge" d="M 0 0 V -1.44049 H 34.5"/><circle class="sym" cx="0" cy="0" r="3"/><text class="lab lft" transform="translate(-3 -7)">21</text></g><path class="edge" d="M 0 0 V -10.8756 H -51.75"/><circle class="sym" cx="0" cy="0" r="3"/><text class="lab rgt" transform="translate(3 -7)">25</text></g><path class="edge" d="M 0 0 V -2.46467 H 66.125"/><circle class="sym" cx="0" cy="0" r="3"/><text class="lab lft" transform="translate(-3 -7)">34</text></g><path class="edge" d="M 0 0 V -0.935454 H -178.25"/><circle class="sym" cx="0" cy="0" r="3"/><text class="lab rgt" transform="translate(3 -7)">35</text></g><path class="edge" d="M 0 0 V -21.1497 H 145.188"/><circle class="sym" cx="0" cy="0" r="3"/><text class="lab lft" transform="translate(-3 -7)">36</text></g><path class="edge" d="M 0 0 V -257.458 H -279.594"/><circle class="sym" cx="0" cy="0" r="3"/><text class="lab rgt" transform="translate(3 -7)">37</text></g><circle class="sym" cx="0" cy="0" r="3"/><text class="lab" transform="translate(0 -11)">38</text></g></g></g></g></g></svg>