<svg baseProfile="full" height="400" version="1.1" width="1000" xmlns="http://www.w3.org/2000/svg" xmlns:ev="http://www.w3.org/2001/xml-events" xmlns:xlink="http://www.w3.org/1999/xlink"><defs><style type="text/css"><![CDATA[.background path {fill: #808080; fill-opacity: 0}.background path:nth-child(odd) {fill-opacity: .1}.x-regions rect {fill: yellow; stroke: black; opacity: 0.5}.axes {font-size: 14px}.x-axis .tick .lab {font-weight: bold; dominant-baseline: hanging}.axes, .tree {font-size: 14px; text-anchor: middle}.axes line, .edge {stroke: black; fill: none}.axes .ax-skip {stroke-dasharray: 4}.y-axis .grid {stroke: #FAFAFA}.node > .sym {fill: black; stroke: none}.site > .sym {stroke: black}.mut text {fill: red; font-style: italic}.mut.extra text {fill: hotpink}.mut line {fill: none; stroke: none}.mut .sym {fill: none; stroke: red}.mut.extra .sym {stroke: hotpink}.node .mut .sym {stroke-width: 1.5px}.tree text, .tree-sequence text {dominant-baseline: central}.plotbox .lab.lft {text-anchor: end}.plotbox .lab.rgt {text-anchor: start}.polytomy line {stroke: black; stroke-dasharray: 1px, 1px}.polytomy text {paint-order:stroke;stroke-width:0.3em;stroke:white}]]></style></defs><g class="tree-sequence"><g class="background"><path d="M20,0 l960,0 l0,338.2 l0,25 l0,5 l-960,0 l0,-5 l0,-25 l0,-338.2z"/></g><g class="axes"><g class="x-axis"><g class="title" transform="translate(500 400)"><text class="lab" text-anchor="middle" transform="translate(0 -11)">Genome position</text></g><line class="ax-line" x1="20" x2="980" y1="363.2" y2="363.2"/><g class="ticks"><g class="tick" transform="translate(20 363.2)"><line x1="0" x2="0" y1="0" y2="5"/><g transform="translate(0 6)"><text class="lab">0</text></g></g><g class="tick" transform="translate(980 363.2)"><line x1="0" x2="0" y1="0" y2="5"/><g transform="translate(0 6)"><text class="lab">1000</text></g></g></g><g class="site s0" transform="translate(33.44 363.2)"><line class="sym" x1="0" x2="0" y1="0" y2="-10"/><g class="mut m0"><polyline class="sym" points="2.5,-6.5 0,-1.5 -2.5,-6.5"/></g></g><g class="site s1" transform="translate(314.72 363.2)"><line class="sym" x1="0" x2="0" y1="0" y2="-10"/><g class="mut m1"><polyline class="sym" points="2.5,-6.5 0,-1.5 -2.5,-6.5"/></g></g><g class="site s2" transform="translate(318.56 363.2)"><line class="sym" x1="0" x2="0" y1="0" y2="-10"/><g class="mut m2"><polyline class="sym" points="2.5,-6.5 0,-1.5 -2.5,-6.5"/></g></g><g class="site s3" transform="translate(634.4 363.2)"><line class="sym" x1="0" x2="0" y1="0" y2="-10"/><g class="mut m3"><polyline class="sym" points="2.5,-6.5 0,-1.5 -2.5,-6.5"/></g></g></g></g><g class="plotbox trees"><g class="tree t0" transform="translate(20 0)"><g class="plotbox"><g class="c2 node n38 p1 root" transform="translate(611.531 26.8)"><g class="a38 c2 m3 node n36 p2 s3" transform="translate(219.938 236.764)"><g class="a36 c2 node n28 p1" transform="translate(62.5312 47.1444)"><g class="a28 i5 leaf node n5 p1 sample" transform="translate(-23 10.6921)"><path class="edge" d="M 0 0 V -10.6921 H 23"/><rect class="sym" height="6" width="6" x="-3" y="-3"/><text class="lab" transform="translate(0 11)">5</text></g><g class="a28 i16 leaf node n16 p2 sample" transform="translate(23 10.6921)"><path class="edge" d="M 0 0 V -10.6921 H -23"/><rect class="sym" height="6" width="6" x="-3" y="-3"/><text class="lab" transform="translate(0 11)">16</text></g><path class="edge" d="M 0 0 V -47.1444 H -62.5312"/><circle class="sym" cx="0" cy="0" r="3"/><text class="lab rgt" transform="translate(3 -7)">28</text></g><g class="a36 c2 node n33 p1" transform="translate(-62.5312 24.1168)"><g class="a33 i12 leaf node n12 p2 sample" transform="translate(56.0625 33.7197)"><path class="edge" d="M 0 0 V -33.7197 H -56.0625"/><rect class="sym" height="6" width="6" x="-3" y="-3"/><text class="lab" transform="translate(0 11)">12</text></g><g class="a33 c2 m1 node n29 p2 s1" transform="translate(-56.0625 20.7069)"><g class="a29 i13 leaf node n13 p2 sample" transform="translate(66.125 13.0127)"><path class="edge" d="M 0 0 V -13.0127 H -66.125"/><rect class="sym" height="6" width="6" x="-3" y="-3"/><text class="lab" transform="translate(0 11)">13</text></g><g class="a29 c2 node n26 p1" transform="translate(-66.125 5.01692)"><g class="a26 i3 leaf node n3 p1 sample" transform="translate(-51.75 7.99582)"><path class="edge" d="M 0 0 V -7.99582 H 51.75"/><rect class="sym" height="6" width="6" x="-3" y="-3"/><text class="lab" transform="translate(0 11)">3</text></g><g class="a26 c2 node n24 p2" transform="translate(51.75 3.00978)"><g class="a24 i15 leaf node n15 p2 sample" transform="translate(34.5 4.98604)"><path class="edge" d="M 0 0 V -4.98604 H -34.5"/><rect class="sym" height="6" width="6" x="-3" y="-3"/><text class="lab" transform="translate(0 11)">15</text></g><g class="a24 c2 node n20 p2" transform="translate(-34.5 4.43444)"><g class="a20 i4 leaf node n4 p1 sample" transform="translate(-23 0.551605)"><path class="edge" d="M 0 0 V -0.551605 H 23"/><rect class="sym" height="6" width="6" x="-3" y="-3"/><text class="lab" transform="translate(0 11)">4</text></g><g class="a20 i18 leaf node n18 p2 sample" transform="translate(23 0.551605)"><path class="edge" d="M 0 0 V -0.551605 H -23"/><rect class="sym" height="6" width="6" x="-3" y="-3"/><text class="lab" transform="translate(0 11)">18</text></g><path class="edge" d="M 0 0 V -4.43444 H 34.5"/><circle class="sym" cx="0" cy="0" r="3"/><text class="lab lft" transform="translate(-3 -7)">20</text></g><path class="edge" d="M 0 0 V -3.00978 H -51.75"/><circle class="sym" cx="0" cy="0" r="3"/><text class="lab rgt" transform="translate(3 -7)">24</text></g><path class="edge" d="M 0 0 V -5.01692 H 66.125"/><circle class="sym" cx="0" cy="0" r="3"/><text class="lab lft" transform="translate(-3 -7)">26</text></g><path class="edge" d="M 0 0 V -20.7069 H 56.0625"/><g class="mut m1 s1" transform="translate(0 -8.20435)"><line x1="0" x2="0" y1="0" y2="8.20435"/><path class="sym" d="M -3,-3 l 6,6 M -3,3 l 6,-6"/><text class="lab lft" transform="translate(-5 0)">1</text></g><circle class="sym" cx="0" cy="0" r="3"/><text class="lab lft" transform="translate(-3 -7)">29</text></g><path class="edge" d="M 0 0 V -24.1168 H 62.5312"/><circle class="sym" cx="0" cy="0" r="3"/><text class="lab lft" transform="translate(-3 -7)">33</text></g><path class="edge" d="M 0 0 V -236.764 H -219.938"/><g class="mut m3 s3" transform="translate(0 -30.861)"><line x1="0" x2="0" y1="0" y2="30.861"/><path class="sym" d="M -3,-3 l 6,6 M -3,3 l 6,-6"/><text class="lab rgt" transform="translate(5 0)">3</text></g><circle class="sym" cx="0" cy="0" r="3"/><text class="lab rgt" transform="translate(3 -7)">36</text></g><g class="a38 c2 m0 node n37 p2 s0" transform="translate(-219.938 71.6443)"><g class="a37 c2 node n32 p2" transform="translate(105.656 195.965)"><g class="a32 i17 leaf node n17 p2 sample" transform="translate(51.75 26.9909)"><path class="edge" d="M 0 0 V -26.9909 H -51.75"/><rect class="sym" height="6" width="6" x="-3" y="-3"/><text class="lab" transform="translate(0 11)">17</text></g><g class="a32 c2 node n31 p1" transform="translate(-51.75 4.78073)"><g class="a31 i1 leaf node n1 p1 sample" transform="translate(-34.5 22.2102)"><path class="edge" d="M 0 0 V -22.2102 H 34.5"/><rect class="sym" height="6" width="6" x="-3" y="-3"/><text class="lab" transform="translate(0 11)">1</text></g><g class="a31 c2 node n25 p1" transform="translate(34.5 16.1783)"><g class="a25 i2 leaf node n2 p1 sample" transform="translate(-23 6.03195)"><path class="edge" d="M 0 0 V -6.03195 H 23"/><rect class="sym" height="6" width="6" x="-3" y="-3"/><text class="lab" transform="translate(0 11)">2</text></g><g class="a25 i9 leaf node n9 p1 sample" transform="translate(23 6.03195)"><path class="edge" d="M 0 0 V -6.03195 H -23"/><rect class="sym" height="6" width="6" x="-3" y="-3"/><text class="lab" transform="translate(0 11)">9</text></g><path class="edge" d="M 0 0 V -16.1783 H -34.5"/><circle class="sym" cx="0" cy="0" r="3"/><text class="lab rgt" transform="translate(3 -7)">25</text></g><path class="edge" d="M 0 0 V -4.78073 H 51.75"/><circle class="sym" cx="0" cy="0" r="3"/><text class="lab lft" transform="translate(-3 -7)">31</text></g><path class="edge" d="M 0 0 V -195.965 H -105.656"/><circle class="sym" cx="0" cy="0" r="3"/><text class="lab rgt" transform="translate(3 -7)">32</text></g><g class="a37 c2 node n35 p2" transform="translate(-105.656 167.559)"><g class="a35 i19 leaf node n19 p2 sample" transform="translate(79.0625 55.3963)"><path class="edge" d="M 0 0 V -55.3963 H -79.0625"/><rect class="sym" height="6" width="6" x="-3" y="-3"/><text class="lab" transform="translate(0 11)">19</text></g><g class="a35 c2 node n34 p1" transform="translate(-79.0625 0.605017)"><g class="a34 c2 node n23 p2" transform="translate(89.125 50.0447)"><g class="a23 i6 leaf node n6 p1 sample" transform="translate(-23 4.74667)"><path class="edge" d="M 0 0 V -4.74667 H 23"/><rect class="sym" height="6" width="6" x="-3" y="-3"/><text class="lab" transform="translate(0 11)">6</text></g><g class="a23 i10 leaf node n10 p2 sample" transform="translate(23 4.74667)"><path class="edge" d="M 0 0 V -4.74667 H -23"/><rect class="sym" height="6" width="6" x="-3" y="-3"/><text class="lab" transform="translate(0 11)">10</text></g><path class="edge" d="M 0 0 V -50.0447 H -89.125"/><circle class="sym" cx="0" cy="0" r="3"/><text class="lab rgt" transform="translate(3 -7)">23</text></g><g class="a34 c2 m2 node n30 p1 s2" transform="translate(-89.125 32.917)"><g class="a30 c2 node n22 p2" transform="translate(51.75 18.2073)"><g class="a22 i7 leaf node n7 p1 sample" transform="translate(-34.5 3.66708)"><path class="edge" d="M 0 0 V -3.66708 H 34.5"/><rect class="sym" height="6" width="6" x="-3" y="-3"/><text class="lab" transform="translate(0 11)">7</text></g><g class="a22 c2 node n21 p2" transform="translate(34.5 0.782027)"><g class="a21 i8 leaf node n8 p1 sample" transform="translate(-23 2.88506)"><path class="edge" d="M 0 0 V -2.88506 H 23"/><rect class="sym" height="6" width="6" x="-3" y="-3"/><text class="lab" transform="translate(0 11)">8</text></g><g class="a21 i11 leaf node n11 p2 sample" transform="translate(23 2.88506)"><path class="edge" d="M 0 0 V -2.88506 H -23"/><rect class="sym" height="6" width="6" x="-3" y="-3"/><text class="lab" transform="translate(0 11)">11</text></g><path class="edge" d="M 0 0 V -0.782027 H -34.5"/><circle class="sym" cx="0" cy="0" r="3"/><text class="lab rgt" transform="translate(3 -7)">21</text></g><path class="edge" d="M 0 0 V -18.2073 H -51.75"/><circle class="sym" cx="0" cy="0" r="3"/><text class="lab rgt" transform="translate(3 -7)">22</text></g><g class="a30 c2 node n27 p2" transform="translate(-51.75 13.6636)"><g class="a27 i0 leaf node n0 p1 sample" transform="translate(-23 8.21076)"><path class="edge" d="M 0 0 V -8.21076 H 23"/><rect class="sym" height="6" width="6" x="-3" y="-3"/><text class="lab" transform="translate(0 11)">0</text></g><g class="a27 i14 leaf node n14 p2 sample" transform="translate(23 8.21076)"><path class="edge" d="M 0 0 V -8.21076 H -23"/><rect class="sym" height="6" width="6" x="-3" y="-3"/><text class="lab" transform="translate(0 11)">14</text></g><path class="edge" d="M 0 0 V -13.6636 H 51.75"/><circle class="sym" cx="0" cy="0" r="3"/><text class="lab lft" transform="translate(-3 -7)">27</text></g><path class="edge" d="M 0 0 V -32.917 H 89.125"/><g class="mut m2 s2" transform="translate(0 -3.87452)"><line x1="0" x2="0" y1="0" y2="3.87452"/><path class="sym" d="M -3,-3 l 6,6 M -3,3 l 6,-6"/><text class="lab lft" transform="translate(-5 0)">2</text></g><circle class="sym" cx="0" cy="0" r="3"/><text class="lab lft" transform="translate(-3 -7)">30</text></g><path class="edge" d="M 0 0 V -0.605017 H 79.0625"/><circle class="sym" cx="0" cy="0" r="3"/><text class="lab lft" transform="translate(-3 -7)">34</text></g><path class="edge" d="M 0 0 V -167.559 H 105.656"/><circle class="sym" cx="0" cy="0" r="3"/><text class="lab lft" transform="translate(-3 -7)">35</text></g><path class="edge" d="M 0 0 V -71.6443 H 219.938"/><g class="mut m0 s0" transform="translate(0 -15.752)"><line x1="0" x2="0" y1="0" y2="15.752"/><path class="sym" d="M -3,-3 l 6,6 M -3,3 l 6,-6"/><text class="lab lft" transform="translate(-5 0)">0</text></g><circle class="sym" cx="0" cy="0" r="3"/><text class="lab lft" transform="translate(-3 -7)">37</text></g><circle class="sym" cx="0" cy="0" r="3"/><text class="lab" transform="translate(0 -11)">38</text></g></g></g></g></g></svg>