<svg baseProfile="full" height="400" version="1.1" width="1000" xmlns="http://www.w3.org/2000/svg" xmlns:ev="http://www.w3.org/2001/xml-events" xmlns:xlink="http://www.w3.org/1999/xlink"><defs><style type="text/css"><![CDATA[.background path {fill: #808080; fill-opacity: 0}.background path:nth-child(odd) {fill-opacity: .1}.x-regions rect {fill: yellow; stroke: black; opacity: 0.5}.axes {font-size: 14px}.x-axis .tick .lab {font-weight: bold; dominant-baseline: hanging}.axes, .tree {font-size: 14px; text-anchor: middle}.axes line, .edge {stroke: black; fill: none}.axes .ax-skip {stroke-dasharray: 4}.y-axis .grid {stroke: #FAFAFA}.node > .sym {fill: black; stroke: none}.site > .sym {stroke: black}.mut text {fill: red; font-style: italic}.mut.extra text {fill: hotpink}.mut line {fill: none; stroke: none}.mut .sym {fill: none; stroke: red}.mut.extra .sym {stroke: hotpink}.node .mut .sym {stroke-width: 1.5px}.tree text, .tree-sequence text {dominant-baseline: central}.plotbox .lab.lft {text-anchor: end}.plotbox .lab.rgt {text-anchor: start}.polytomy line {stroke: black; stroke-dasharray: 1px, 1px}.polytomy text {paint-order:stroke;stroke-width:0.3em;stroke:white}]]></style></defs><g class="tree-sequence"><g class="background"><path d="M20,0 l960,0 l0,338.2 l0,25 l0,5 l-960,0 l0,-5 l0,-25 l0,-338.2z"/></g><g class="axes"><g class="x-axis"><g class="title" transform="translate(500 400)"><text class="lab" text-anchor="middle" transform="translate(0 -11)">Genome position</text></g><line class="ax-line" x1="20" x2="980" y1="363.2" y2="363.2"/><g class="ticks"><g class="tick" transform="translate(20 363.2)"><line x1="0" x2="0" y1="0" y2="5"/><g transform="translate(0 6)"><text class="lab">0</text></g></g><g class="tick" transform="translate(980 363.2)"><line x1="0" x2="0" y1="0" y2="5"/><g transform="translate(0 6)"><text class="lab">1000</text></g></g></g><g class="site s0" transform="translate(27.68 363.2)"><line class="sym" x1="0" x2="0" y1="0" y2="-10"/><g class="mut m0"><polyline class="sym" points="2.5,-6.5 0,-1.5 -2.5,-6.5"/></g></g><g class="site s1" transform="translate(441.44 363.2)"><line class="sym" x1="0" x2="0" y1="0" y2="-10"/><g class="mut m1"><polyline class="sym" points="2.5,-6.5 0,-1.5 -2.5,-6.5"/></g></g><g class="site s2" transform="translate(729.44 363.2)"><line class="sym" x1="0" x2="0" y1="0" y2="-10"/><g class="mut m2"><polyline class="sym" points="2.5,-6.5 0,-1.5 -2.5,-6.5"/></g></g></g></g><g class="plotbox trees"><g class="tree t0" transform="translate(20 0)"><g class="plotbox"><g class="c2 node n38 p0 root" transform="translate(676.488 26.8)"><g class="a38 c2 m1 node n34 p1 s1" transform="translate(148.512 244.153)"><g class="a34 c2 node n32 p2" transform="translate(-69 18.0071)"><g class="a32 c2 node n21 p1" transform="translate(46 26.2916)"><g class="a21 i3 leaf node n3 p1 sample" transform="translate(-23 6.14842)"><path class="edge" d="M 0 0 V -6.14842 H 23"/><rect class="sym" height="6" width="6" x="-3" y="-3"/><text class="lab" transform="translate(0 11)">3</text></g><g class="a21 i17 leaf node n17 p2 sample" transform="translate(23 6.14842)"><path class="edge" d="M 0 0 V -6.14842 H -23"/><rect class="sym" height="6" width="6" x="-3" y="-3"/><text class="lab" transform="translate(0 11)">17</text></g><path class="edge" d="M 0 0 V -26.2916 H -46"/><circle class="sym" cx="0" cy="0" r="3"/><text class="lab rgt" transform="translate(3 -7)">21</text></g><g class="a32 c2 node n30 p1" transform="translate(-46 11.2255)"><g class="a30 i2 leaf node n2 p1 sample" transform="translate(-23 21.2146)"><path class="edge" d="M 0 0 V -21.2146 H 23"/><rect class="sym" height="6" width="6" x="-3" y="-3"/><text class="lab" transform="translate(0 11)">2</text></g><g class="a30 i14 leaf node n14 p2 sample" transform="translate(23 21.2146)"><path class="edge" d="M 0 0 V -21.2146 H -23"/><rect class="sym" height="6" width="6" x="-3" y="-3"/><text class="lab" transform="translate(0 11)">14</text></g><path class="edge" d="M 0 0 V -11.2255 H 46"/><circle class="sym" cx="0" cy="0" r="3"/><text class="lab lft" transform="translate(-3 -7)">30</text></g><path class="edge" d="M 0 0 V -18.0071 H 69"/><circle class="sym" cx="0" cy="0" r="3"/><text class="lab lft" transform="translate(-3 -7)">32</text></g><g class="a34 c2 node n33 p2" transform="translate(69 14.215)"><g class="a33 i9 leaf node n9 p1 sample" transform="translate(-23 36.2322)"><path class="edge" d="M 0 0 V -36.2322 H 23"/><rect class="sym" height="6" width="6" x="-3" y="-3"/><text class="lab" transform="translate(0 11)">9</text></g><g class="a33 i10 leaf node n10 p2 sample" transform="translate(23 36.2322)"><path class="edge" d="M 0 0 V -36.2322 H -23"/><rect class="sym" height="6" width="6" x="-3" y="-3"/><text class="lab" transform="translate(0 11)">10</text></g><path class="edge" d="M 0 0 V -14.215 H -69"/><circle class="sym" cx="0" cy="0" r="3"/><text class="lab rgt" transform="translate(3 -7)">33</text></g><path class="edge" d="M 0 0 V -244.153 H -148.512"/><g class="mut m1 s1" transform="translate(0 -33.0238)"><line x1="0" x2="0" y1="0" y2="33.0238"/><path class="sym" d="M -3,-3 l 6,6 M -3,3 l 6,-6"/><text class="lab rgt" transform="translate(5 0)">1</text></g><circle class="sym" cx="0" cy="0" r="3"/><text class="lab rgt" transform="translate(3 -7)">34</text></g><g class="a38 c2 m2 node n37 p1 s2" transform="translate(-148.512 191.895)"><g class="a37 c2 node n25 p1" transform="translate(90.0234 90.1818)"><g class="a25 i5 leaf node n5 p1 sample" transform="translate(-23 12.5229)"><path class="edge" d="M 0 0 V -12.5229 H 23"/><rect class="sym" height="6" width="6" x="-3" y="-3"/><text class="lab" transform="translate(0 11)">5</text></g><g class="a25 i12 leaf node n12 p2 sample" transform="translate(23 12.5229)"><path class="edge" d="M 0 0 V -12.5229 H -23"/><rect class="sym" height="6" width="6" x="-3" y="-3"/><text class="lab" transform="translate(0 11)">12</text></g><path class="edge" d="M 0 0 V -90.1818 H -90.0234"/><circle class="sym" cx="0" cy="0" r="3"/><text class="lab rgt" transform="translate(3 -7)">25</text></g><g class="a37 c2 node n36 p2" transform="translate(-90.0234 13.6674)"><g class="a36 i16 leaf node n16 p2 sample" transform="translate(111.047 89.0374)"><path class="edge" d="M 0 0 V -89.0374 H -111.047"/><rect class="sym" height="6" width="6" x="-3" y="-3"/><text class="lab" transform="translate(0 11)">16</text></g><g class="a36 c2 node n35 p2" transform="translate(-111.047 21.7431)"><g class="a35 c2 node n29 p1" transform="translate(118.594 47.7403)"><g class="a29 i8 leaf node n8 p1 sample" transform="translate(-34.5 19.5539)"><path class="edge" d="M 0 0 V -19.5539 H 34.5"/><rect class="sym" height="6" width="6" x="-3" y="-3"/><text class="lab" transform="translate(0 11)">8</text></g><g class="a29 c2 node n22 p1" transform="translate(34.5 12.4896)"><g class="a22 i13 leaf node n13 p2 sample" transform="translate(-23 7.0643)"><path class="edge" d="M 0 0 V -7.0643 H 23"/><rect class="sym" height="6" width="6" x="-3" y="-3"/><text class="lab" transform="translate(0 11)">13</text></g><g class="a22 i18 leaf node n18 p2 sample" transform="translate(23 7.0643)"><path class="edge" d="M 0 0 V -7.0643 H -23"/><rect class="sym" height="6" width="6" x="-3" y="-3"/><text class="lab" transform="translate(0 11)">18</text></g><path class="edge" d="M 0 0 V -12.4896 H -34.5"/><circle class="sym" cx="0" cy="0" r="3"/><text class="lab rgt" transform="translate(3 -7)">22</text></g><path class="edge" d="M 0 0 V -47.7403 H -118.594"/><circle class="sym" cx="0" cy="0" r="3"/><text class="lab rgt" transform="translate(3 -7)">29</text></g><g class="a35 c2 node n31 p2" transform="translate(-118.594 40.6189)"><g class="a31 c2 node n27 p2" transform="translate(107.812 7.84656)"><g class="a27 i11 leaf node n11 p2 sample" transform="translate(48.875 18.8288)"><path class="edge" d="M 0 0 V -18.8288 H -48.875"/><rect class="sym" height="6" width="6" x="-3" y="-3"/><text class="lab" transform="translate(0 11)">11</text></g><g class="a27 c2 node n24 p1" transform="translate(-48.875 9.30373)"><g class="a24 i6 leaf m0 node n6 p1 s0 sample" transform="translate(51.75 9.52511)"><path class="edge" d="M 0 0 V -9.52511 H -51.75"/><g class="mut m0 s0" transform="translate(0 -8.81539)"><line x1="0" x2="0" y1="0" y2="8.81539"/><path class="sym" d="M -3,-3 l 6,6 M -3,3 l 6,-6"/><text class="lab rgt" transform="translate(5 0)">0</text></g><rect class="sym" height="6" width="6" x="-3" y="-3"/><text class="lab" transform="translate(0 11)">6</text></g><g class="a24 c2 node n23 p1" transform="translate(-51.75 0.219644)"><g class="a23 i4 leaf node n4 p1 sample" transform="translate(-34.5 9.30547)"><path class="edge" d="M 0 0 V -9.30547 H 34.5"/><rect class="sym" height="6" width="6" x="-3" y="-3"/><text class="lab" transform="translate(0 11)">4</text></g><g class="a23 c2 node n20 p2" transform="translate(34.5 3.6555)"><g class="a20 i7 leaf node n7 p1 sample" transform="translate(-23 5.64996)"><path class="edge" d="M 0 0 V -5.64996 H 23"/><rect class="sym" height="6" width="6" x="-3" y="-3"/><text class="lab" transform="translate(0 11)">7</text></g><g class="a20 i15 leaf node n15 p2 sample" transform="translate(23 5.64996)"><path class="edge" d="M 0 0 V -5.64996 H -23"/><rect class="sym" height="6" width="6" x="-3" y="-3"/><text class="lab" transform="translate(0 11)">15</text></g><path class="edge" d="M 0 0 V -3.6555 H -34.5"/><circle class="sym" cx="0" cy="0" r="3"/><text class="lab rgt" transform="translate(3 -7)">20</text></g><path class="edge" d="M 0 0 V -0.219644 H 51.75"/><circle class="sym" cx="0" cy="0" r="3"/><text class="lab lft" transform="translate(-3 -7)">23</text></g><path class="edge" d="M 0 0 V -9.30373 H 48.875"/><circle class="sym" cx="0" cy="0" r="3"/><text class="lab lft" transform="translate(-3 -7)">24</text></g><path class="edge" d="M 0 0 V -7.84656 H -107.812"/><circle class="sym" cx="0" cy="0" r="3"/><text class="lab rgt" transform="translate(3 -7)">27</text></g><g class="a31 c2 node n28 p2" transform="translate(-107.812 7.20046)"><g class="a28 i1 leaf node n1 p1 sample" transform="translate(34.5 19.4749)"><path class="edge" d="M 0 0 V -19.4749 H -34.5"/><rect class="sym" height="6" width="6" x="-3" y="-3"/><text class="lab" transform="translate(0 11)">1</text></g><g class="a28 c2 node n26 p2" transform="translate(-34.5 0.728758)"><g class="a26 i0 leaf node n0 p1 sample" transform="translate(-23 18.7462)"><path class="edge" d="M 0 0 V -18.7462 H 23"/><rect class="sym" height="6" width="6" x="-3" y="-3"/><text class="lab" transform="translate(0 11)">0</text></g><g class="a26 i19 leaf node n19 p2 sample" transform="translate(23 18.7462)"><path class="edge" d="M 0 0 V -18.7462 H -23"/><rect class="sym" height="6" width="6" x="-3" y="-3"/><text class="lab" transform="translate(0 11)">19</text></g><path class="edge" d="M 0 0 V -0.728758 H 34.5"/><circle class="sym" cx="0" cy="0" r="3"/><text class="lab lft" transform="translate(-3 -7)">26</text></g><path class="edge" d="M 0 0 V -7.20046 H 107.812"/><circle class="sym" cx="0" cy="0" r="3"/><text class="lab lft" transform="translate(-3 -7)">28</text></g><path class="edge" d="M 0 0 V -40.6189 H 118.594"/><circle class="sym" cx="0" cy="0" r="3"/><text class="lab lft" transform="translate(-3 -7)">31</text></g><path class="edge" d="M 0 0 V -21.7431 H 111.047"/><circle class="sym" cx="0" cy="0" r="3"/><text class="lab lft" transform="translate(-3 -7)">35</text></g><path class="edge" d="M 0 0 V -13.6674 H 90.0234"/><circle class="sym" cx="0" cy="0" r="3"/><text class="lab lft" transform="translate(-3 -7)">36</text></g><path class="edge" d="M 0 0 V -191.895 H 148.512"/><g class="mut m2 s2" transform="translate(0 -35.4629)"><line x1="0" x2="0" y1="0" y2="35.4629"/><path class="sym" d="M -3,-3 l 6,6 M -3,3 l 6,-6"/><text class="lab lft" transform="translate(-5 0)">2</text></g><circle class="sym" cx="0" cy="0" r="3"/><text class="lab lft" transform="translate(-3 -7)">37</text></g><circle class="sym" cx="0" cy="0" r="3"/><text class="lab" transform="translate(0 -11)">38</text></g></g></g></g></g></svg>