<svg baseProfile="full" height="400" version="1.1" width="1000" xmlns="http://www.w3.org/2000/svg" xmlns:ev="http://www.w3.org/2001/xml-events" xmlns:xlink="http://www.w3.org/1999/xlink"><defs><style type="text/css"><![CDATA[.background path {fill: #808080; fill-opacity: 0}.background path:nth-child(odd) {fill-opacity: .1}.x-regions rect {fill: yellow; stroke: black; opacity: 0.5}.axes {font-size: 14px}.x-axis .tick .lab {font-weight: bold; dominant-baseline: hanging}.axes, .tree {font-size: 14px; text-anchor: middle}.axes line, .edge {stroke: black; fill: none}.axes .ax-skip {stroke-dasharray: 4}.y-axis .grid {stroke: #FAFAFA}.node > .sym {fill: black; stroke: none}.site > .sym {stroke: black}.mut text {fill: red; font-style: italic}.mut.extra text {fill: hotpink}.mut line {fill: none; stroke: none}.mut .sym {fill: none; stroke: red}.mut.extra .sym {stroke: hotpink}.node .mut .sym {stroke-width: 1.5px}.tree text, .tree-sequence text {dominant-baseline: central}.plotbox .lab.lft {text-anchor: end}.plotbox .lab.rgt {text-anchor: start}.polytomy line {stroke: black; stroke-dasharray: 1px, 1px}.polytomy text {paint-order:stroke;stroke-width:0.3em;stroke:white}]]></style></defs><g class="tree-sequence"><g class="background"><path d="M20,0 l960,0 l0,338.2 l0,25 l0,5 l-960,0 l0,-5 l0,-25 l0,-338.2z"/></g><g class="axes"><g class="x-axis"><g class="title" transform="translate(500 400)"><text class="lab" text-anchor="middle" transform="translate(0 -11)">Genome position</text></g><line class="ax-line" x1="20" x2="980" y1="363.2" y2="363.2"/><g class="ticks"><g class="tick" transform="translate(20 363.2)"><line x1="0" x2="0" y1="0" y2="5"/><g transform="translate(0 6)"><text class="lab">0</text></g></g><g class="tick" transform="translate(980 363.2)"><line x1="0" x2="0" y1="0" y2="5"/><g transform="translate(0 6)"><text class="lab">1000</text></g></g></g><g class="site s0" transform="translate(316.64 363.2)"><line class="sym" x1="0" x2="0" y1="0" y2="-10"/><g class="mut m0"><polyline class="sym" points="2.5,-6.5 0,-1.5 -2.5,-6.5"/></g></g><g class="site s1" transform="translate(763.04 363.2)"><line class="sym" x1="0" x2="0" y1="0" y2="-10"/><g class="mut m1"><polyline class="sym" points="2.5,-6.5 0,-1.5 -2.5,-6.5"/></g></g></g></g><g class="plotbox trees"><g class="tree t0" transform="translate(20 0)"><g class="plotbox"><g class="c2 node n38 p0 root" transform="translate(598.594 26.8)"><g class="a38 i18 leaf node n18 p2 sample" transform="translate(318.406 294.6)"><path class="edge" d="M 0 0 V -294.6 H -318.406"/><rect class="sym" height="6" width="6" x="-3" y="-3"/><text class="lab" transform="translate(0 11)">18</text></g><g class="a38 c2 node n37 p0" transform="translate(-318.406 130.637)"><g class="a37 c2 m1 node n30 p1 s1" transform="translate(-150.938 139.623)"><g class="a30 i1 leaf node n1 p1 sample" transform="translate(51.75 24.34)"><path class="edge" d="M 0 0 V -24.34 H -51.75"/><rect class="sym" height="6" width="6" x="-3" y="-3"/><text class="lab" transform="translate(0 11)">1</text></g><g class="a30 c2 node n25 p1" transform="translate(-51.75 16.7261)"><g class="a25 i0 leaf node n0 p1 sample" transform="translate(-34.5 7.61394)"><path class="edge" d="M 0 0 V -7.61394 H 34.5"/><rect class="sym" height="6" width="6" x="-3" y="-3"/><text class="lab" transform="translate(0 11)">0</text></g><g class="a25 c2 node n23 p1" transform="translate(34.5 1.8402)"><g class="a23 i8 leaf node n8 p1 sample" transform="translate(-23 5.77374)"><path class="edge" d="M 0 0 V -5.77374 H 23"/><rect class="sym" height="6" width="6" x="-3" y="-3"/><text class="lab" transform="translate(0 11)">8</text></g><g class="a23 i9 leaf node n9 p1 sample" transform="translate(23 5.77374)"><path class="edge" d="M 0 0 V -5.77374 H -23"/><rect class="sym" height="6" width="6" x="-3" y="-3"/><text class="lab" transform="translate(0 11)">9</text></g><path class="edge" d="M 0 0 V -1.8402 H -34.5"/><circle class="sym" cx="0" cy="0" r="3"/><text class="lab rgt" transform="translate(3 -7)">23</text></g><path class="edge" d="M 0 0 V -16.7261 H 51.75"/><circle class="sym" cx="0" cy="0" r="3"/><text class="lab lft" transform="translate(-3 -7)">25</text></g><path class="edge" d="M 0 0 V -139.623 H 150.938"/><g class="mut m1 s1" transform="translate(0 -55.7399)"><line x1="0" x2="0" y1="0" y2="55.7399"/><path class="sym" d="M -3,-3 l 6,6 M -3,3 l 6,-6"/><text class="lab lft" transform="translate(-5 0)">1</text></g><circle class="sym" cx="0" cy="0" r="3"/><text class="lab lft" transform="translate(-3 -7)">30</text></g><g class="a37 c2 node n36 p0" transform="translate(150.938 48.3685)"><g class="a36 c2 node n27 p1" transform="translate(-146.625 99.8909)"><g class="a27 i7 leaf node n7 p1 sample" transform="translate(34.5 15.7034)"><path class="edge" d="M 0 0 V -15.7034 H -34.5"/><rect class="sym" height="6" width="6" x="-3" y="-3"/><text class="lab" transform="translate(0 11)">7</text></g><g class="a27 c2 node n22 p1" transform="translate(-34.5 14.2659)"><g class="a22 i2 leaf node n2 p1 sample" transform="translate(-23 1.43749)"><path class="edge" d="M 0 0 V -1.43749 H 23"/><rect class="sym" height="6" width="6" x="-3" y="-3"/><text class="lab" transform="translate(0 11)">2</text></g><g class="a22 i4 leaf node n4 p1 sample" transform="translate(23 1.43749)"><path class="edge" d="M 0 0 V -1.43749 H -23"/><rect class="sym" height="6" width="6" x="-3" y="-3"/><text class="lab" transform="translate(0 11)">4</text></g><path class="edge" d="M 0 0 V -14.2659 H 34.5"/><circle class="sym" cx="0" cy="0" r="3"/><text class="lab lft" transform="translate(-3 -7)">22</text></g><path class="edge" d="M 0 0 V -99.8909 H 146.625"/><circle class="sym" cx="0" cy="0" r="3"/><text class="lab lft" transform="translate(-3 -7)">27</text></g><g class="a36 c2 node n35 p0" transform="translate(146.625 1.69184)"><g class="a35 c2 node n32 p2" transform="translate(129.375 53.1104)"><g class="a32 i11 leaf node n11 p2 sample" transform="translate(-66.125 60.792)"><path class="edge" d="M 0 0 V -60.792 H 66.125"/><rect class="sym" height="6" width="6" x="-3" y="-3"/><text class="lab" transform="translate(0 11)">11</text></g><g class="a32 c2 node n31 p2" transform="translate(66.125 5.06794)"><g class="a31 c2 node n26 p2" transform="translate(-63.25 46.3581)"><g class="a26 i13 leaf node n13 p2 sample" transform="translate(-23 9.36602)"><path class="edge" d="M 0 0 V -9.36602 H 23"/><rect class="sym" height="6" width="6" x="-3" y="-3"/><text class="lab" transform="translate(0 11)">13</text></g><g class="a26 i15 leaf node n15 p2 sample" transform="translate(23 9.36602)"><path class="edge" d="M 0 0 V -9.36602 H -23"/><rect class="sym" height="6" width="6" x="-3" y="-3"/><text class="lab" transform="translate(0 11)">15</text></g><path class="edge" d="M 0 0 V -46.3581 H 63.25"/><circle class="sym" cx="0" cy="0" r="3"/><text class="lab lft" transform="translate(-3 -7)">26</text></g><g class="a31 c2 node n28 p2" transform="translate(63.25 39.4386)"><g class="a28 i19 leaf node n19 p2 sample" transform="translate(34.5 16.2855)"><path class="edge" d="M 0 0 V -16.2855 H -34.5"/><rect class="sym" height="6" width="6" x="-3" y="-3"/><text class="lab" transform="translate(0 11)">19</text></g><g class="a28 c2 node n20 p2" transform="translate(-34.5 16.1306)"><g class="a20 i14 leaf node n14 p2 sample" transform="translate(-23 0.154893)"><path class="edge" d="M 0 0 V -0.154893 H 23"/><rect class="sym" height="6" width="6" x="-3" y="-3"/><text class="lab" transform="translate(0 11)">14</text></g><g class="a20 i16 leaf node n16 p2 sample" transform="translate(23 0.154893)"><path class="edge" d="M 0 0 V -0.154893 H -23"/><rect class="sym" height="6" width="6" x="-3" y="-3"/><text class="lab" transform="translate(0 11)">16</text></g><path class="edge" d="M 0 0 V -16.1306 H 34.5"/><circle class="sym" cx="0" cy="0" r="3"/><text class="lab lft" transform="translate(-3 -7)">20</text></g><path class="edge" d="M 0 0 V -39.4386 H -63.25"/><circle class="sym" cx="0" cy="0" r="3"/><text class="lab rgt" transform="translate(3 -7)">28</text></g><path class="edge" d="M 0 0 V -5.06794 H -66.125"/><circle class="sym" cx="0" cy="0" r="3"/><text class="lab rgt" transform="translate(3 -7)">31</text></g><path class="edge" d="M 0 0 V -53.1104 H -129.375"/><circle class="sym" cx="0" cy="0" r="3"/><text class="lab rgt" transform="translate(3 -7)">32</text></g><g class="a35 c2 node n34 p0" transform="translate(-129.375 31.3485)"><g class="a34 c2 node n21 p1" transform="translate(-60.375 81.5294)"><g class="a21 i3 leaf node n3 p1 sample" transform="translate(-23 1.02447)"><path class="edge" d="M 0 0 V -1.02447 H 23"/><rect class="sym" height="6" width="6" x="-3" y="-3"/><text class="lab" transform="translate(0 11)">3</text></g><g class="a21 i6 leaf node n6 p1 sample" transform="translate(23 1.02447)"><path class="edge" d="M 0 0 V -1.02447 H -23"/><rect class="sym" height="6" width="6" x="-3" y="-3"/><text class="lab" transform="translate(0 11)">6</text></g><path class="edge" d="M 0 0 V -81.5294 H 60.375"/><circle class="sym" cx="0" cy="0" r="3"/><text class="lab lft" transform="translate(-3 -7)">21</text></g><g class="a34 c2 node n33 p0" transform="translate(60.375 5.17995)"><g class="a33 i5 leaf node n5 p1 sample" transform="translate(-51.75 77.374)"><path class="edge" d="M 0 0 V -77.374 H 51.75"/><rect class="sym" height="6" width="6" x="-3" y="-3"/><text class="lab" transform="translate(0 11)">5</text></g><g class="a33 c2 node n29 p2" transform="translate(51.75 60.3282)"><g class="a29 i17 leaf m0 node n17 p2 s0 sample" transform="translate(34.5 17.0458)"><path class="edge" d="M 0 0 V -17.0458 H -34.5"/><g class="mut m0 s0" transform="translate(0 -5.81282)"><line x1="0" x2="0" y1="0" y2="5.81282"/><path class="sym" d="M -3,-3 l 6,6 M -3,3 l 6,-6"/><text class="lab rgt" transform="translate(5 0)">0</text></g><rect class="sym" height="6" width="6" x="-3" y="-3"/><text class="lab" transform="translate(0 11)">17</text></g><g class="a29 c2 node n24 p2" transform="translate(-34.5 10.5365)"><g class="a24 i10 leaf node n10 p2 sample" transform="translate(-23 6.50927)"><path class="edge" d="M 0 0 V -6.50927 H 23"/><rect class="sym" height="6" width="6" x="-3" y="-3"/><text class="lab" transform="translate(0 11)">10</text></g><g class="a24 i12 leaf node n12 p2 sample" transform="translate(23 6.50927)"><path class="edge" d="M 0 0 V -6.50927 H -23"/><rect class="sym" height="6" width="6" x="-3" y="-3"/><text class="lab" transform="translate(0 11)">12</text></g><path class="edge" d="M 0 0 V -10.5365 H 34.5"/><circle class="sym" cx="0" cy="0" r="3"/><text class="lab lft" transform="translate(-3 -7)">24</text></g><path class="edge" d="M 0 0 V -60.3282 H -51.75"/><circle class="sym" cx="0" cy="0" r="3"/><text class="lab rgt" transform="translate(3 -7)">29</text></g><path class="edge" d="M 0 0 V -5.17995 H -60.375"/><circle class="sym" cx="0" cy="0" r="3"/><text class="lab rgt" transform="translate(3 -7)">33</text></g><path class="edge" d="M 0 0 V -31.3485 H 129.375"/><circle class="sym" cx="0" cy="0" r="3"/><text class="lab lft" transform="translate(-3 -7)">34</text></g><path class="edge" d="M 0 0 V -1.69184 H -146.625"/><circle class="sym" cx="0" cy="0" r="3"/><text class="lab rgt" transform="translate(3 -7)">35</text></g><path class="edge" d="M 0 0 V -48.3685 H -150.938"/><circle class="sym" cx="0" cy="0" r="3"/><text class="lab rgt" transform="translate(3 -7)">36</text></g><path class="edge" d="M 0 0 V -130.637 H 318.406"/><circle class="sym" cx="0" cy="0" r="3"/><text class="lab lft" transform="translate(-3 -7)">37</text></g><circle class="sym" cx="0" cy="0" r="3"/><text class="lab" transform="translate(0 -11)">38</text></g></g></g></g></g></svg>