<svg baseProfile="full" height="400" version="1.1" width="1000" xmlns="http://www.w3.org/2000/svg" xmlns:ev="http://www.w3.org/2001/xml-events" xmlns:xlink="http://www.w3.org/1999/xlink"><defs><style type="text/css"><![CDATA[.background path {fill: #808080; fill-opacity: 0}.background path:nth-child(odd) {fill-opacity: .1}.x-regions rect {fill: yellow; stroke: black; opacity: 0.5}.axes {font-size: 14px}.x-axis .tick .lab {font-weight: bold; dominant-baseline: hanging}.axes, .tree {font-size: 14px; text-anchor: middle}.axes line, .edge {stroke: black; fill: none}.axes .ax-skip {stroke-dasharray: 4}.y-axis .grid {stroke: #FAFAFA}.node > .sym {fill: black; stroke: none}.site > .sym {stroke: black}.mut text {fill: red; font-style: italic}.mut.extra text {fill: hotpink}.mut line {fill: none; stroke: none}.mut .sym {fill: none; stroke: red}.mut.extra .sym {stroke: hotpink}.node .mut .sym {stroke-width: 1.5px}.tree text, .tree-sequence text {dominant-baseline: central}.plotbox .lab.lft {text-anchor: end}.plotbox .lab.rgt {text-anchor: start}.polytomy line {stroke: black; stroke-dasharray: 1px, 1px}.polytomy text {paint-order:stroke;stroke-width:0.3em;stroke:white}]]></style></defs><g class="tree-sequence"><g class="background"><path d="M20,0 l960,0 l0,338.2 l0,25 l0,5 l-960,0 l0,-5 l0,-25 l0,-338.2z"/></g><g class="axes"><g class="x-axis"><g class="title" transform="translate(500 400)"><text class="lab" text-anchor="middle" transform="translate(0 -11)">Genome position</text></g><line class="ax-line" x1="20" x2="980" y1="363.2" y2="363.2"/><g class="ticks"><g class="tick" transform="translate(20 363.2)"><line x1="0" x2="0" y1="0" y2="5"/><g transform="translate(0 6)"><text class="lab">0</text></g></g><g class="tick" transform="translate(980 363.2)"><line x1="0" x2="0" y1="0" y2="5"/><g transform="translate(0 6)"><text class="lab">1000</text></g></g></g><g class="site s0" transform="translate(738.08 363.2)"><line class="sym" x1="0" x2="0" y1="0" y2="-10"/><g class="mut m0"><polyline class="sym" points="2.5,-6.5 0,-1.5 -2.5,-6.5"/></g></g></g></g><g class="plotbox trees"><g class="tree t0" transform="translate(20 0)"><g class="plotbox"><g class="c2 node n38 p2 root" transform="translate(696.613 26.8)"><g class="a38 c2 m0 node n25 p2 s0" transform="translate(197.387 281.924)"><g class="a25 i4 leaf node n4 p1 sample" transform="translate(-23 12.6756)"><path class="edge" d="M 0 0 V -12.6756 H 23"/><rect class="sym" height="6" width="6" x="-3" y="-3"/><text class="lab" transform="translate(0 11)">4</text></g><g class="a25 i15 leaf node n15 p2 sample" transform="translate(23 12.6756)"><path class="edge" d="M 0 0 V -12.6756 H -23"/><rect class="sym" height="6" width="6" x="-3" y="-3"/><text class="lab" transform="translate(0 11)">15</text></g><path class="edge" d="M 0 0 V -281.924 H -197.387"/><g class="mut m0 s0" transform="translate(0 -37.6702)"><line x1="0" x2="0" y1="0" y2="37.6702"/><path class="sym" d="M -3,-3 l 6,6 M -3,3 l 6,-6"/><text class="lab rgt" transform="translate(5 0)">0</text></g><circle class="sym" cx="0" cy="0" r="3"/><text class="lab rgt" transform="translate(3 -7)">25</text></g><g class="a38 c2 node n37 p2" transform="translate(-197.387 121.709)"><g class="a37 c2 node n32 p1" transform="translate(280.492 143.823)"><g class="a32 i13 leaf node n13 p2 sample" transform="translate(45.2812 29.0681)"><path class="edge" d="M 0 0 V -29.0681 H -45.2812"/><rect class="sym" height="6" width="6" x="-3" y="-3"/><text class="lab" transform="translate(0 11)">13</text></g><g class="a32 c2 node n30 p1" transform="translate(-45.2812 3.65858)"><g class="a30 i7 leaf node n7 p1 sample" transform="translate(44.5625 25.4095)"><path class="edge" d="M 0 0 V -25.4095 H -44.5625"/><rect class="sym" height="6" width="6" x="-3" y="-3"/><text class="lab" transform="translate(0 11)">7</text></g><g class="a30 c2 node n28 p1" transform="translate(-44.5625 5.14842)"><g class="a28 i3 leaf node n3 p1 sample" transform="translate(43.125 20.2611)"><path class="edge" d="M 0 0 V -20.2611 H -43.125"/><rect class="sym" height="6" width="6" x="-3" y="-3"/><text class="lab" transform="translate(0 11)">3</text></g><g class="a28 c2 node n23 p1" transform="translate(-43.125 16.5087)"><g class="a23 i6 leaf node n6 p1 sample" transform="translate(40.25 3.75232)"><path class="edge" d="M 0 0 V -3.75232 H -40.25"/><rect class="sym" height="6" width="6" x="-3" y="-3"/><text class="lab" transform="translate(0 11)">6</text></g><g class="a23 c2 node n22 p2" transform="translate(-40.25 2.01304)"><g class="a22 i19 leaf node n19 p2 sample" transform="translate(34.5 1.73928)"><path class="edge" d="M 0 0 V -1.73928 H -34.5"/><rect class="sym" height="6" width="6" x="-3" y="-3"/><text class="lab" transform="translate(0 11)">19</text></g><g class="a22 c2 node n20 p2" transform="translate(-34.5 1.40172)"><g class="a20 i2 leaf node n2 p1 sample" transform="translate(-23 0.337559)"><path class="edge" d="M 0 0 V -0.337559 H 23"/><rect class="sym" height="6" width="6" x="-3" y="-3"/><text class="lab" transform="translate(0 11)">2</text></g><g class="a20 i12 leaf node n12 p2 sample" transform="translate(23 0.337559)"><path class="edge" d="M 0 0 V -0.337559 H -23"/><rect class="sym" height="6" width="6" x="-3" y="-3"/><text class="lab" transform="translate(0 11)">12</text></g><path class="edge" d="M 0 0 V -1.40172 H 34.5"/><circle class="sym" cx="0" cy="0" r="3"/><text class="lab lft" transform="translate(-3 -7)">20</text></g><path class="edge" d="M 0 0 V -2.01304 H 40.25"/><circle class="sym" cx="0" cy="0" r="3"/><text class="lab lft" transform="translate(-3 -7)">22</text></g><path class="edge" d="M 0 0 V -16.5087 H 43.125"/><circle class="sym" cx="0" cy="0" r="3"/><text class="lab lft" transform="translate(-3 -7)">23</text></g><path class="edge" d="M 0 0 V -5.14842 H 44.5625"/><circle class="sym" cx="0" cy="0" r="3"/><text class="lab lft" transform="translate(-3 -7)">28</text></g><path class="edge" d="M 0 0 V -3.65858 H 45.2812"/><circle class="sym" cx="0" cy="0" r="3"/><text class="lab lft" transform="translate(-3 -7)">30</text></g><path class="edge" d="M 0 0 V -143.823 H -280.492"/><circle class="sym" cx="0" cy="0" r="3"/><text class="lab rgt" transform="translate(3 -7)">32</text></g><g class="a37 c2 node n36 p1" transform="translate(-280.492 36.8114)"><g class="a36 c2 node n21 p1" transform="translate(-152.734 135.307)"><g class="a21 i0 leaf node n0 p1 sample" transform="translate(-23 0.772118)"><path class="edge" d="M 0 0 V -0.772118 H 23"/><rect class="sym" height="6" width="6" x="-3" y="-3"/><text class="lab" transform="translate(0 11)">0</text></g><g class="a21 i5 leaf node n5 p1 sample" transform="translate(23 0.772118)"><path class="edge" d="M 0 0 V -0.772118 H -23"/><rect class="sym" height="6" width="6" x="-3" y="-3"/><text class="lab" transform="translate(0 11)">5</text></g><path class="edge" d="M 0 0 V -135.307 H 152.734"/><circle class="sym" cx="0" cy="0" r="3"/><text class="lab lft" transform="translate(-3 -7)">21</text></g><g class="a36 c2 node n35 p2" transform="translate(152.734 33.3919)"><g class="a35 c2 node n24 p2" transform="translate(108.531 98.5916)"><g class="a24 i8 leaf node n8 p1 sample" transform="translate(-23 4.09607)"><path class="edge" d="M 0 0 V -4.09607 H 23"/><rect class="sym" height="6" width="6" x="-3" y="-3"/><text class="lab" transform="translate(0 11)">8</text></g><g class="a24 i9 leaf node n9 p1 sample" transform="translate(23 4.09607)"><path class="edge" d="M 0 0 V -4.09607 H -23"/><rect class="sym" height="6" width="6" x="-3" y="-3"/><text class="lab" transform="translate(0 11)">9</text></g><path class="edge" d="M 0 0 V -98.5916 H -108.531"/><circle class="sym" cx="0" cy="0" r="3"/><text class="lab rgt" transform="translate(3 -7)">24</text></g><g class="a35 c2 node n34 p2" transform="translate(-108.531 24.5198)"><g class="a34 c2 node n29 p1" transform="translate(-104.938 57.8568)"><g class="a29 i1 leaf node n1 p1 sample" transform="translate(-23 20.311)"><path class="edge" d="M 0 0 V -20.311 H 23"/><rect class="sym" height="6" width="6" x="-3" y="-3"/><text class="lab" transform="translate(0 11)">1</text></g><g class="a29 i11 leaf node n11 p2 sample" transform="translate(23 20.311)"><path class="edge" d="M 0 0 V -20.311 H -23"/><rect class="sym" height="6" width="6" x="-3" y="-3"/><text class="lab" transform="translate(0 11)">11</text></g><path class="edge" d="M 0 0 V -57.8568 H 104.938"/><circle class="sym" cx="0" cy="0" r="3"/><text class="lab lft" transform="translate(-3 -7)">29</text></g><g class="a34 c2 node n33 p2" transform="translate(104.938 7.61052)"><g class="a33 i16 leaf node n16 p2 sample" transform="translate(43.125 70.5573)"><path class="edge" d="M 0 0 V -70.5573 H -43.125"/><rect class="sym" height="6" width="6" x="-3" y="-3"/><text class="lab" transform="translate(0 11)">16</text></g><g class="a33 c2 node n31 p2" transform="translate(-43.125 44.0151)"><g class="a31 i18 leaf node n18 p2 sample" transform="translate(40.25 26.5421)"><path class="edge" d="M 0 0 V -26.5421 H -40.25"/><rect class="sym" height="6" width="6" x="-3" y="-3"/><text class="lab" transform="translate(0 11)">18</text></g><g class="a31 c2 node n27 p2" transform="translate(-40.25 10.3612)"><g class="a27 i14 leaf node n14 p2 sample" transform="translate(34.5 16.181)"><path class="edge" d="M 0 0 V -16.181 H -34.5"/><rect class="sym" height="6" width="6" x="-3" y="-3"/><text class="lab" transform="translate(0 11)">14</text></g><g class="a27 c2 node n26 p2" transform="translate(-34.5 1.12099)"><g class="a26 i10 leaf node n10 p2 sample" transform="translate(-23 15.06)"><path class="edge" d="M 0 0 V -15.06 H 23"/><rect class="sym" height="6" width="6" x="-3" y="-3"/><text class="lab" transform="translate(0 11)">10</text></g><g class="a26 i17 leaf node n17 p2 sample" transform="translate(23 15.06)"><path class="edge" d="M 0 0 V -15.06 H -23"/><rect class="sym" height="6" width="6" x="-3" y="-3"/><text class="lab" transform="translate(0 11)">17</text></g><path class="edge" d="M 0 0 V -1.12099 H 34.5"/><circle class="sym" cx="0" cy="0" r="3"/><text class="lab lft" transform="translate(-3 -7)">26</text></g><path class="edge" d="M 0 0 V -10.3612 H 40.25"/><circle class="sym" cx="0" cy="0" r="3"/><text class="lab lft" transform="translate(-3 -7)">27</text></g><path class="edge" d="M 0 0 V -44.0151 H 43.125"/><circle class="sym" cx="0" cy="0" r="3"/><text class="lab lft" transform="translate(-3 -7)">31</text></g><path class="edge" d="M 0 0 V -7.61052 H -104.938"/><circle class="sym" cx="0" cy="0" r="3"/><text class="lab rgt" transform="translate(3 -7)">33</text></g><path class="edge" d="M 0 0 V -24.5198 H 108.531"/><circle class="sym" cx="0" cy="0" r="3"/><text class="lab lft" transform="translate(-3 -7)">34</text></g><path class="edge" d="M 0 0 V -33.3919 H -152.734"/><circle class="sym" cx="0" cy="0" r="3"/><text class="lab rgt" transform="translate(3 -7)">35</text></g><path class="edge" d="M 0 0 V -36.8114 H 280.492"/><circle class="sym" cx="0" cy="0" r="3"/><text class="lab lft" transform="translate(-3 -7)">36</text></g><path class="edge" d="M 0 0 V -121.709 H 197.387"/><circle class="sym" cx="0" cy="0" r="3"/><text class="lab lft" transform="translate(-3 -7)">37</text></g><circle class="sym" cx="0" cy="0" r="3"/><text class="lab" transform="translate(0 -11)">38</text></g></g></g></g></g></svg>