<svg baseProfile="full" height="400" version="1.1" width="1000" xmlns="http://www.w3.org/2000/svg" xmlns:ev="http://www.w3.org/2001/xml-events" xmlns:xlink="http://www.w3.org/1999/xlink"><defs><style type="text/css"><![CDATA[.background path {fill: #808080; fill-opacity: 0}.background path:nth-child(odd) {fill-opacity: .1}.x-regions rect {fill: yellow; stroke: black; opacity: 0.5}.axes {font-size: 14px}.x-axis .tick .lab {font-weight: bold; dominant-baseline: hanging}.axes, .tree {font-size: 14px; text-anchor: middle}.axes line, .edge {stroke: black; fill: none}.axes .ax-skip {stroke-dasharray: 4}.y-axis .grid {stroke: #FAFAFA}.node > .sym {fill: black; stroke: none}.site > .sym {stroke: black}.mut text {fill: red; font-style: italic}.mut.extra text {fill: hotpink}.mut line {fill: none; stroke: none}.mut .sym {fill: none; stroke: red}.mut.extra .sym {stroke: hotpink}.node .mut .sym {stroke-width: 1.5px}.tree text, .tree-sequence text {dominant-baseline: central}.plotbox .lab.lft {text-anchor: end}.plotbox .lab.rgt {text-anchor: start}.polytomy line {stroke: black; stroke-dasharray: 1px, 1px}.polytomy text {paint-order:stroke;stroke-width:0.3em;stroke:white}]]></style></defs><g class="tree-sequence"><g class="background"><path d="M20,0 l960,0 l0,338.2 l0,25 l0,5 l-960,0 l0,-5 l0,-25 l0,-338.2z"/></g><g class="axes"><g class="x-axis"><g class="title" transform="translate(500 400)"><text class="lab" text-anchor="middle" transform="translate(0 -11)">Genome position</text></g><line class="ax-line" x1="20" x2="980" y1="363.2" y2="363.2"/><g class="ticks"><g class="tick" transform="translate(20 363.2)"><line x1="0" x2="0" y1="0" y2="5"/><g transform="translate(0 6)"><text class="lab">0</text></g></g><g class="tick" transform="translate(980 363.2)"><line x1="0" x2="0" y1="0" y2="5"/><g transform="translate(0 6)"><text class="lab">1000</text></g></g></g><g class="site s0" transform="translate(92 363.2)"><line class="sym" x1="0" x2="0" y1="0" y2="-10"/><g class="mut m0"><polyline class="sym" points="2.5,-6.5 0,-1.5 -2.5,-6.5"/></g></g><g class="site s1" transform="translate(646.88 363.2)"><line class="sym" x1="0" x2="0" y1="0" y2="-10"/><g class="mut m1"><polyline class="sym" points="2.5,-6.5 0,-1.5 -2.5,-6.5"/></g></g><g class="site s2" transform="translate(739.04 363.2)"><line class="sym" x1="0" x2="0" y1="0" y2="-10"/><g class="mut m2"><polyline class="sym" points="2.5,-6.5 0,-1.5 -2.5,-6.5"/></g></g><g class="site s3" transform="translate(903.2 363.2)"><line class="sym" x1="0" x2="0" y1="0" y2="-10"/><g class="mut m3"><polyline class="sym" points="2.5,-6.5 0,-1.5 -2.5,-6.5"/></g></g></g></g><g class="plotbox trees"><g class="tree t0" transform="translate(20 0)"><g class="plotbox"><g class="c2 node n38 p1 root" transform="translate(640.371 26.8)"><g class="a38 c2 m1 node n36 p1 s1" transform="translate(184.629 235.215)"><g class="a36 c2 node n26 p1" transform="translate(-69 53.8646)"><g class="a26 c2 node n20 p1" transform="translate(-46 2.93498)"><g class="a20 i2 leaf node n2 p1 sample" transform="translate(-23 2.5852)"><path class="edge" d="M 0 0 V -2.5852 H 23"/><rect class="sym" height="6" width="6" x="-3" y="-3"/><text class="lab" transform="translate(0 11)">2</text></g><g class="a20 i4 leaf node n4 p1 sample" transform="translate(23 2.5852)"><path class="edge" d="M 0 0 V -2.5852 H -23"/><rect class="sym" height="6" width="6" x="-3" y="-3"/><text class="lab" transform="translate(0 11)">4</text></g><path class="edge" d="M 0 0 V -2.93498 H 46"/><circle class="sym" cx="0" cy="0" r="3"/><text class="lab lft" transform="translate(-3 -7)">20</text></g><g class="a26 c2 node n24 p2" transform="translate(46 1.27976)"><g class="a24 i12 leaf node n12 p2 sample" transform="translate(-23 4.24042)"><path class="edge" d="M 0 0 V -4.24042 H 23"/><rect class="sym" height="6" width="6" x="-3" y="-3"/><text class="lab" transform="translate(0 11)">12</text></g><g class="a24 i15 leaf node n15 p2 sample" transform="translate(23 4.24042)"><path class="edge" d="M 0 0 V -4.24042 H -23"/><rect class="sym" height="6" width="6" x="-3" y="-3"/><text class="lab" transform="translate(0 11)">15</text></g><path class="edge" d="M 0 0 V -1.27976 H -46"/><circle class="sym" cx="0" cy="0" r="3"/><text class="lab rgt" transform="translate(3 -7)">24</text></g><path class="edge" d="M 0 0 V -53.8646 H 69"/><circle class="sym" cx="0" cy="0" r="3"/><text class="lab lft" transform="translate(-3 -7)">26</text></g><g class="a36 c2 m0 node n27 p1 s0" transform="translate(69 53.565)"><g class="a27 i5 leaf node n5 p1 sample" transform="translate(-23 5.81979)"><path class="edge" d="M 0 0 V -5.81979 H 23"/><rect class="sym" height="6" width="6" x="-3" y="-3"/><text class="lab" transform="translate(0 11)">5</text></g><g class="a27 i7 leaf node n7 p1 sample" transform="translate(23 5.81979)"><path class="edge" d="M 0 0 V -5.81979 H -23"/><rect class="sym" height="6" width="6" x="-3" y="-3"/><text class="lab" transform="translate(0 11)">7</text></g><path class="edge" d="M 0 0 V -53.565 H -69"/><g class="mut m0 s0" transform="translate(0 -22.129)"><line x1="0" x2="0" y1="0" y2="22.129"/><path class="sym" d="M -3,-3 l 6,6 M -3,3 l 6,-6"/><text class="lab rgt" transform="translate(5 0)">0</text></g><circle class="sym" cx="0" cy="0" r="3"/><text class="lab rgt" transform="translate(3 -7)">27</text></g><path class="edge" d="M 0 0 V -235.215 H -184.629"/><g class="mut m1 s1" transform="translate(0 -182.765)"><line x1="0" x2="0" y1="0" y2="182.765"/><path class="sym" d="M -3,-3 l 6,6 M -3,3 l 6,-6"/><text class="lab rgt" transform="translate(5 0)">1</text></g><circle class="sym" cx="0" cy="0" r="3"/><text class="lab rgt" transform="translate(3 -7)">36</text></g><g class="a38 c2 node n37 p2" transform="translate(-184.629 222.269)"><g class="a37 i19 leaf m2 node n19 p2 s2 sample" transform="translate(185.258 72.3307)"><path class="edge" d="M 0 0 V -72.3307 H -185.258"/><g class="mut m2 s2" transform="translate(0 -67.111)"><line x1="0" x2="0" y1="0" y2="67.111"/><path class="sym" d="M -3,-3 l 6,6 M -3,3 l 6,-6"/><text class="lab rgt" transform="translate(5 0)">2</text></g><rect class="sym" height="6" width="6" x="-3" y="-3"/><text class="lab" transform="translate(0 11)">19</text></g><g class="a37 c2 m3 node n35 p1 s3" transform="translate(-185.258 35.4626)"><g class="a35 c2 node n32 p2" transform="translate(192.984 13.3544)"><g class="a32 c2 node n30 p2" transform="translate(-97.0312 5.63257)"><g class="a30 c2 node n28 p1" transform="translate(67.5625 10.278)"><g class="a28 i11 leaf node n11 p2 sample" transform="translate(-23 7.60318)"><path class="edge" d="M 0 0 V -7.60318 H 23"/><rect class="sym" height="6" width="6" x="-3" y="-3"/><text class="lab" transform="translate(0 11)">11</text></g><g class="a28 i18 leaf node n18 p2 sample" transform="translate(23 7.60318)"><path class="edge" d="M 0 0 V -7.60318 H -23"/><rect class="sym" height="6" width="6" x="-3" y="-3"/><text class="lab" transform="translate(0 11)">18</text></g><path class="edge" d="M 0 0 V -10.278 H -67.5625"/><circle class="sym" cx="0" cy="0" r="3"/><text class="lab rgt" transform="translate(3 -7)">28</text></g><g class="a30 c2 node n29 p2" transform="translate(-67.5625 8.39442)"><g class="a29 i10 leaf node n10 p2 sample" transform="translate(66.125 9.48674)"><path class="edge" d="M 0 0 V -9.48674 H -66.125"/><rect class="sym" height="6" width="6" x="-3" y="-3"/><text class="lab" transform="translate(0 11)">10</text></g><g class="a29 c2 node n25 p2" transform="translate(-66.125 4.05241)"><g class="a25 i6 leaf node n6 p1 sample" transform="translate(-51.75 5.43433)"><path class="edge" d="M 0 0 V -5.43433 H 51.75"/><rect class="sym" height="6" width="6" x="-3" y="-3"/><text class="lab" transform="translate(0 11)">6</text></g><g class="a25 c2 node n23 p2" transform="translate(51.75 1.49691)"><g class="a23 i16 leaf node n16 p2 sample" transform="translate(34.5 3.93742)"><path class="edge" d="M 0 0 V -3.93742 H -34.5"/><rect class="sym" height="6" width="6" x="-3" y="-3"/><text class="lab" transform="translate(0 11)">16</text></g><g class="a23 c2 node n21 p2" transform="translate(-34.5 0.564869)"><g class="a21 i8 leaf node n8 p1 sample" transform="translate(-23 3.37255)"><path class="edge" d="M 0 0 V -3.37255 H 23"/><rect class="sym" height="6" width="6" x="-3" y="-3"/><text class="lab" transform="translate(0 11)">8</text></g><g class="a21 i9 leaf node n9 p1 sample" transform="translate(23 3.37255)"><path class="edge" d="M 0 0 V -3.37255 H -23"/><rect class="sym" height="6" width="6" x="-3" y="-3"/><text class="lab" transform="translate(0 11)">9</text></g><path class="edge" d="M 0 0 V -0.564869 H 34.5"/><circle class="sym" cx="0" cy="0" r="3"/><text class="lab lft" transform="translate(-3 -7)">21</text></g><path class="edge" d="M 0 0 V -1.49691 H -51.75"/><circle class="sym" cx="0" cy="0" r="3"/><text class="lab rgt" transform="translate(3 -7)">23</text></g><path class="edge" d="M 0 0 V -4.05241 H 66.125"/><circle class="sym" cx="0" cy="0" r="3"/><text class="lab lft" transform="translate(-3 -7)">25</text></g><path class="edge" d="M 0 0 V -8.39442 H 67.5625"/><circle class="sym" cx="0" cy="0" r="3"/><text class="lab lft" transform="translate(-3 -7)">29</text></g><path class="edge" d="M 0 0 V -5.63257 H 97.0312"/><circle class="sym" cx="0" cy="0" r="3"/><text class="lab lft" transform="translate(-3 -7)">30</text></g><g class="a32 c2 node n31 p2" transform="translate(97.0312 1.58962)"><g class="a31 i17 leaf node n17 p2 sample" transform="translate(34.5 21.9241)"><path class="edge" d="M 0 0 V -21.9241 H -34.5"/><rect class="sym" height="6" width="6" x="-3" y="-3"/><text class="lab" transform="translate(0 11)">17</text></g><g class="a31 c2 node n22 p2" transform="translate(-34.5 18.1215)"><g class="a22 i13 leaf node n13 p2 sample" transform="translate(-23 3.80257)"><path class="edge" d="M 0 0 V -3.80257 H 23"/><rect class="sym" height="6" width="6" x="-3" y="-3"/><text class="lab" transform="translate(0 11)">13</text></g><g class="a22 i14 leaf node n14 p2 sample" transform="translate(23 3.80257)"><path class="edge" d="M 0 0 V -3.80257 H -23"/><rect class="sym" height="6" width="6" x="-3" y="-3"/><text class="lab" transform="translate(0 11)">14</text></g><path class="edge" d="M 0 0 V -18.1215 H 34.5"/><circle class="sym" cx="0" cy="0" r="3"/><text class="lab lft" transform="translate(-3 -7)">22</text></g><path class="edge" d="M 0 0 V -1.58962 H -97.0312"/><circle class="sym" cx="0" cy="0" r="3"/><text class="lab rgt" transform="translate(3 -7)">31</text></g><path class="edge" d="M 0 0 V -13.3544 H -192.984"/><circle class="sym" cx="0" cy="0" r="3"/><text class="lab rgt" transform="translate(3 -7)">32</text></g><g class="a35 c2 node n34 p1" transform="translate(-192.984 1.49306)"><g class="a34 i0 leaf node n0 p1 sample" transform="translate(-34.5 35.375)"><path class="edge" d="M 0 0 V -35.375 H 34.5"/><rect class="sym" height="6" width="6" x="-3" y="-3"/><text class="lab" transform="translate(0 11)">0</text></g><g class="a34 c2 node n33 p1" transform="translate(34.5 9.0359)"><g class="a33 i1 leaf node n1 p1 sample" transform="translate(-23 26.3391)"><path class="edge" d="M 0 0 V -26.3391 H 23"/><rect class="sym" height="6" width="6" x="-3" y="-3"/><text class="lab" transform="translate(0 11)">1</text></g><g class="a33 i3 leaf node n3 p1 sample" transform="translate(23 26.3391)"><path class="edge" d="M 0 0 V -26.3391 H -23"/><rect class="sym" height="6" width="6" x="-3" y="-3"/><text class="lab" transform="translate(0 11)">3</text></g><path class="edge" d="M 0 0 V -9.0359 H -34.5"/><circle class="sym" cx="0" cy="0" r="3"/><text class="lab rgt" transform="translate(3 -7)">33</text></g><path class="edge" d="M 0 0 V -1.49306 H 192.984"/><circle class="sym" cx="0" cy="0" r="3"/><text class="lab lft" transform="translate(-3 -7)">34</text></g><path class="edge" d="M 0 0 V -35.4626 H 185.258"/><g class="mut m3 s3" transform="translate(0 -12.3536)"><line x1="0" x2="0" y1="0" y2="12.3536"/><path class="sym" d="M -3,-3 l 6,6 M -3,3 l 6,-6"/><text class="lab lft" transform="translate(-5 0)">3</text></g><circle class="sym" cx="0" cy="0" r="3"/><text class="lab lft" transform="translate(-3 -7)">35</text></g><path class="edge" d="M 0 0 V -222.269 H 184.629"/><circle class="sym" cx="0" cy="0" r="3"/><text class="lab lft" transform="translate(-3 -7)">37</text></g><circle class="sym" cx="0" cy="0" r="3"/><text class="lab" transform="translate(0 -11)">38</text></g></g></g></g></g></svg>