<svg baseProfile="full" height="400" version="1.1" width="1000" xmlns="http://www.w3.org/2000/svg" xmlns:ev="http://www.w3.org/2001/xml-events" xmlns:xlink="http://www.w3.org/1999/xlink"><defs><style type="text/css"><![CDATA[.background path {fill: #808080; fill-opacity: 0}.background path:nth-child(odd) {fill-opacity: .1}.x-regions rect {fill: yellow; stroke: black; opacity: 0.5}.axes {font-size: 14px}.x-axis .tick .lab {font-weight: bold; dominant-baseline: hanging}.axes, .tree {font-size: 14px; text-anchor: middle}.axes line, .edge {stroke: black; fill: none}.axes .ax-skip {stroke-dasharray: 4}.y-axis .grid {stroke: #FAFAFA}.node > .sym {fill: black; stroke: none}.site > .sym {stroke: black}.mut text {fill: red; font-style: italic}.mut.extra text {fill: hotpink}.mut line {fill: none; stroke: none}.mut .sym {fill: none; stroke: red}.mut.extra .sym {stroke: hotpink}.node .mut .sym {stroke-width: 1.5px}.tree text, .tree-sequence text {dominant-baseline: central}.plotbox .lab.lft {text-anchor: end}.plotbox .lab.rgt {text-anchor: start}.polytomy line {stroke: black; stroke-dasharray: 1px, 1px}.polytomy text {paint-order:stroke;stroke-width:0.3em;stroke:white}]]></style></defs><g class="tree-sequence"><g class="background"><path d="M20,0 l960,0 l0,338.2 l0,25 l0,5 l-960,0 l0,-5 l0,-25 l0,-338.2z"/></g><g class="axes"><g class="x-axis"><g class="title" transform="translate(500 400)"><text class="lab" text-anchor="middle" transform="translate(0 -11)">Genome position</text></g><line class="ax-line" x1="20" x2="980" y1="363.2" y2="363.2"/><g class="ticks"><g class="tick" transform="translate(20 363.2)"><line x1="0" x2="0" y1="0" y2="5"/><g transform="translate(0 6)"><text class="lab">0</text></g></g><g class="tick" transform="translate(980 363.2)"><line x1="0" x2="0" y1="0" y2="5"/><g transform="translate(0 6)"><text class="lab">1000</text></g></g></g><g class="site s0" transform="translate(418.4 363.2)"><line class="sym" x1="0" x2="0" y1="0" y2="-10"/><g class="mut m0"><polyline class="sym" points="2.5,-6.5 0,-1.5 -2.5,-6.5"/></g></g></g></g><g class="plotbox trees"><g class="tree t0" transform="translate(20 0)"><g class="plotbox"><g class="c2 node n38 p2 root" transform="translate(831.098 26.8)"><g class="a38 c2 node n20 p1" transform="translate(62.9019 293.56)"><g class="a20 i9 leaf node n9 p1 sample" transform="translate(-23 1.04029)"><path class="edge" d="M 0 0 V -1.04029 H 23"/><rect class="sym" height="6" width="6" x="-3" y="-3"/><text class="lab" transform="translate(0 11)">9</text></g><g class="a20 i15 leaf node n15 p2 sample" transform="translate(23 1.04029)"><path class="edge" d="M 0 0 V -1.04029 H -23"/><rect class="sym" height="6" width="6" x="-3" y="-3"/><text class="lab" transform="translate(0 11)">15</text></g><path class="edge" d="M 0 0 V -293.56 H -62.9019"/><circle class="sym" cx="0" cy="0" r="3"/><text class="lab rgt" transform="translate(3 -7)">20</text></g><g class="a38 c2 node n37 p2" transform="translate(-62.9019 108.233)"><g class="a37 i14 leaf node n14 p2 sample" transform="translate(56.8037 186.367)"><path class="edge" d="M 0 0 V -186.367 H -56.8037"/><rect class="sym" height="6" width="6" x="-3" y="-3"/><text class="lab" transform="translate(0 11)">14</text></g><g class="a37 c2 node n36 p2" transform="translate(-56.8037 20.0821)"><g class="a36 i5 leaf node n5 p1 sample" transform="translate(67.6074 166.285)"><path class="edge" d="M 0 0 V -166.285 H -67.6074"/><rect class="sym" height="6" width="6" x="-3" y="-3"/><text class="lab" transform="translate(0 11)">5</text></g><g class="a36 c2 m0 node n35 p2 s0" transform="translate(-67.6074 53.6102)"><g class="a35 c2 node n21 p2" transform="translate(66.2148 111.584)"><g class="a21 i2 leaf node n2 p1 sample" transform="translate(-23 1.09058)"><path class="edge" d="M 0 0 V -1.09058 H 23"/><rect class="sym" height="6" width="6" x="-3" y="-3"/><text class="lab" transform="translate(0 11)">2</text></g><g class="a21 i16 leaf node n16 p2 sample" transform="translate(23 1.09058)"><path class="edge" d="M 0 0 V -1.09058 H -23"/><rect class="sym" height="6" width="6" x="-3" y="-3"/><text class="lab" transform="translate(0 11)">16</text></g><path class="edge" d="M 0 0 V -111.584 H -66.2148"/><circle class="sym" cx="0" cy="0" r="3"/><text class="lab rgt" transform="translate(3 -7)">21</text></g><g class="a35 c2 node n34 p2" transform="translate(-66.2148 49.0662)"><g class="a34 i18 leaf node n18 p2 sample" transform="translate(63.4297 63.6084)"><path class="edge" d="M 0 0 V -63.6084 H -63.4297"/><rect class="sym" height="6" width="6" x="-3" y="-3"/><text class="lab" transform="translate(0 11)">18</text></g><g class="a34 c2 node n33 p2" transform="translate(-63.4297 3.4466)"><g class="a33 i4 leaf node n4 p1 sample" transform="translate(80.8594 60.1618)"><path class="edge" d="M 0 0 V -60.1618 H -80.8594"/><rect class="sym" height="6" width="6" x="-3" y="-3"/><text class="lab" transform="translate(0 11)">4</text></g><g class="a33 c2 node n32 p2" transform="translate(-80.8594 9.27176)"><g class="a32 i11 leaf node n11 p2 sample" transform="translate(115.719 50.8901)"><path class="edge" d="M 0 0 V -50.8901 H -115.719"/><rect class="sym" height="6" width="6" x="-3" y="-3"/><text class="lab" transform="translate(0 11)">11</text></g><g class="a32 c2 node n31 p2" transform="translate(-115.719 13.7663)"><g class="a31 c2 node n28 p2" transform="translate(-136.562 23.3099)"><g class="a28 c2 node n24 p1" transform="translate(69 6.60827)"><g class="a24 i12 leaf node n12 p2 sample" transform="translate(-23 7.20558)"><path class="edge" d="M 0 0 V -7.20558 H 23"/><rect class="sym" height="6" width="6" x="-3" y="-3"/><text class="lab" transform="translate(0 11)">12</text></g><g class="a24 i19 leaf node n19 p2 sample" transform="translate(23 7.20558)"><path class="edge" d="M 0 0 V -7.20558 H -23"/><rect class="sym" height="6" width="6" x="-3" y="-3"/><text class="lab" transform="translate(0 11)">19</text></g><path class="edge" d="M 0 0 V -6.60827 H -69"/><circle class="sym" cx="0" cy="0" r="3"/><text class="lab rgt" transform="translate(3 -7)">24</text></g><g class="a28 c2 node n26 p2" transform="translate(-69 5.80692)"><g class="a26 c2 node n22 p1" transform="translate(46 6.66024)"><g class="a22 i1 leaf node n1 p1 sample" transform="translate(-23 1.34669)"><path class="edge" d="M 0 0 V -1.34669 H 23"/><rect class="sym" height="6" width="6" x="-3" y="-3"/><text class="lab" transform="translate(0 11)">1</text></g><g class="a22 i10 leaf node n10 p2 sample" transform="translate(23 1.34669)"><path class="edge" d="M 0 0 V -1.34669 H -23"/><rect class="sym" height="6" width="6" x="-3" y="-3"/><text class="lab" transform="translate(0 11)">10</text></g><path class="edge" d="M 0 0 V -6.66024 H -46"/><circle class="sym" cx="0" cy="0" r="3"/><text class="lab rgt" transform="translate(3 -7)">22</text></g><g class="a26 c2 node n23 p2" transform="translate(-46 1.83619)"><g class="a23 i0 leaf node n0 p1 sample" transform="translate(-23 6.17073)"><path class="edge" d="M 0 0 V -6.17073 H 23"/><rect class="sym" height="6" width="6" x="-3" y="-3"/><text class="lab" transform="translate(0 11)">0</text></g><g class="a23 i17 leaf node n17 p2 sample" transform="translate(23 6.17073)"><path class="edge" d="M 0 0 V -6.17073 H -23"/><rect class="sym" height="6" width="6" x="-3" y="-3"/><text class="lab" transform="translate(0 11)">17</text></g><path class="edge" d="M 0 0 V -1.83619 H 46"/><circle class="sym" cx="0" cy="0" r="3"/><text class="lab lft" transform="translate(-3 -7)">23</text></g><path class="edge" d="M 0 0 V -5.80692 H 69"/><circle class="sym" cx="0" cy="0" r="3"/><text class="lab lft" transform="translate(-3 -7)">26</text></g><path class="edge" d="M 0 0 V -23.3099 H 136.562"/><circle class="sym" cx="0" cy="0" r="3"/><text class="lab lft" transform="translate(-3 -7)">28</text></g><g class="a31 c2 node n30 p2" transform="translate(136.562 6.04537)"><g class="a30 i6 leaf node n6 p1 sample" transform="translate(48.875 31.0784)"><path class="edge" d="M 0 0 V -31.0784 H -48.875"/><rect class="sym" height="6" width="6" x="-3" y="-3"/><text class="lab" transform="translate(0 11)">6</text></g><g class="a30 c2 node n29 p2" transform="translate(-48.875 4.48864)"><g class="a29 i8 leaf node n8 p1 sample" transform="translate(51.75 26.5897)"><path class="edge" d="M 0 0 V -26.5897 H -51.75"/><rect class="sym" height="6" width="6" x="-3" y="-3"/><text class="lab" transform="translate(0 11)">8</text></g><g class="a29 c2 node n27 p1" transform="translate(-51.75 18.135)"><g class="a27 i3 leaf node n3 p1 sample" transform="translate(-34.5 8.45469)"><path class="edge" d="M 0 0 V -8.45469 H 34.5"/><rect class="sym" height="6" width="6" x="-3" y="-3"/><text class="lab" transform="translate(0 11)">3</text></g><g class="a27 c2 node n25 p2" transform="translate(34.5 0.92697)"><g class="a25 i7 leaf node n7 p1 sample" transform="translate(-23 7.52772)"><path class="edge" d="M 0 0 V -7.52772 H 23"/><rect class="sym" height="6" width="6" x="-3" y="-3"/><text class="lab" transform="translate(0 11)">7</text></g><g class="a25 i13 leaf node n13 p2 sample" transform="translate(23 7.52772)"><path class="edge" d="M 0 0 V -7.52772 H -23"/><rect class="sym" height="6" width="6" x="-3" y="-3"/><text class="lab" transform="translate(0 11)">13</text></g><path class="edge" d="M 0 0 V -0.92697 H -34.5"/><circle class="sym" cx="0" cy="0" r="3"/><text class="lab rgt" transform="translate(3 -7)">25</text></g><path class="edge" d="M 0 0 V -18.135 H 51.75"/><circle class="sym" cx="0" cy="0" r="3"/><text class="lab lft" transform="translate(-3 -7)">27</text></g><path class="edge" d="M 0 0 V -4.48864 H 48.875"/><circle class="sym" cx="0" cy="0" r="3"/><text class="lab lft" transform="translate(-3 -7)">29</text></g><path class="edge" d="M 0 0 V -6.04537 H -136.562"/><circle class="sym" cx="0" cy="0" r="3"/><text class="lab rgt" transform="translate(3 -7)">30</text></g><path class="edge" d="M 0 0 V -13.7663 H 115.719"/><circle class="sym" cx="0" cy="0" r="3"/><text class="lab lft" transform="translate(-3 -7)">31</text></g><path class="edge" d="M 0 0 V -9.27176 H 80.8594"/><circle class="sym" cx="0" cy="0" r="3"/><text class="lab lft" transform="translate(-3 -7)">32</text></g><path class="edge" d="M 0 0 V -3.4466 H 63.4297"/><circle class="sym" cx="0" cy="0" r="3"/><text class="lab lft" transform="translate(-3 -7)">33</text></g><path class="edge" d="M 0 0 V -49.0662 H 66.2148"/><circle class="sym" cx="0" cy="0" r="3"/><text class="lab lft" transform="translate(-3 -7)">34</text></g><path class="edge" d="M 0 0 V -53.6102 H 67.6074"/><g class="mut m0 s0" transform="translate(0 -26.7671)"><line x1="0" x2="0" y1="0" y2="26.7671"/><path class="sym" d="M -3,-3 l 6,6 M -3,3 l 6,-6"/><text class="lab lft" transform="translate(-5 0)">0</text></g><circle class="sym" cx="0" cy="0" r="3"/><text class="lab lft" transform="translate(-3 -7)">35</text></g><path class="edge" d="M 0 0 V -20.0821 H 56.8037"/><circle class="sym" cx="0" cy="0" r="3"/><text class="lab lft" transform="translate(-3 -7)">36</text></g><path class="edge" d="M 0 0 V -108.233 H 62.9019"/><circle class="sym" cx="0" cy="0" r="3"/><text class="lab lft" transform="translate(-3 -7)">37</text></g><circle class="sym" cx="0" cy="0" r="3"/><text class="lab" transform="translate(0 -11)">38</text></g></g></g></g></g></svg>