<svg baseProfile="full" height="400" version="1.1" width="1000" xmlns="http://www.w3.org/2000/svg" xmlns:ev="http://www.w3.org/2001/xml-events" xmlns:xlink="http://www.w3.org/1999/xlink"><defs><style type="text/css"><![CDATA[.background path {fill: #808080; fill-opacity: 0}.background path:nth-child(odd) {fill-opacity: .1}.x-regions rect {fill: yellow; stroke: black; opacity: 0.5}.axes {font-size: 14px}.x-axis .tick .lab {font-weight: bold; dominant-baseline: hanging}.axes, .tree {font-size: 14px; text-anchor: middle}.axes line, .edge {stroke: black; fill: none}.axes .ax-skip {stroke-dasharray: 4}.y-axis .grid {stroke: #FAFAFA}.node > .sym {fill: black; stroke: none}.site > .sym {stroke: black}.mut text {fill: red; font-style: italic}.mut.extra text {fill: hotpink}.mut line {fill: none; stroke: none}.mut .sym {fill: none; stroke: red}.mut.extra .sym {stroke: hotpink}.node .mut .sym {stroke-width: 1.5px}.tree text, .tree-sequence text {dominant-baseline: central}.plotbox .lab.lft {text-anchor: end}.plotbox .lab.rgt {text-anchor: start}.polytomy line {stroke: black; stroke-dasharray: 1px, 1px}.polytomy text {paint-order:stroke;stroke-width:0.3em;stroke:white}]]></style></defs><g class="tree-sequence"><g class="background"><path d="M20,0 l960,0 l0,338.2 l0,25 l0,5 l-960,0 l0,-5 l0,-25 l0,-338.2z"/></g><g class="axes"><g class="x-axis"><g class="title" transform="translate(500 400)"><text class="lab" text-anchor="middle" transform="translate(0 -11)">Genome position</text></g><line class="ax-line" x1="20" x2="980" y1="363.2" y2="363.2"/><g class="ticks"><g class="tick" transform="translate(20 363.2)"><line x1="0" x2="0" y1="0" y2="5"/><g transform="translate(0 6)"><text class="lab">0</text></g></g><g class="tick" transform="translate(980 363.2)"><line x1="0" x2="0" y1="0" y2="5"/><g transform="translate(0 6)"><text class="lab">1000</text></g></g></g><g class="site s0" transform="translate(235.04 363.2)"><line class="sym" x1="0" x2="0" y1="0" y2="-10"/><g class="mut m0"><polyline class="sym" points="2.5,-6.5 0,-1.5 -2.5,-6.5"/></g></g><g class="site s1" transform="translate(810.08 363.2)"><line class="sym" x1="0" x2="0" y1="0" y2="-10"/><g class="mut m1"><polyline class="sym" points="2.5,-6.5 0,-1.5 -2.5,-6.5"/></g></g></g></g><g class="plotbox trees"><g class="tree t0" transform="translate(20 0)"><g class="plotbox"><g class="c2 node n38 p0 root" transform="translate(715.031 26.8)"><g class="a38 c2 node n36 p0" transform="translate(132.969 212.882)"><g class="a36 c2 node n20 p1" transform="translate(-46 80.821)"><g class="a20 i2 leaf node n2 p1 sample" transform="translate(-23 0.896867)"><path class="edge" d="M 0 0 V -0.896867 H 23"/><rect class="sym" height="6" width="6" x="-3" y="-3"/><text class="lab" transform="translate(0 11)">2</text></g><g class="a20 i8 leaf node n8 p1 sample" transform="translate(23 0.896867)"><path class="edge" d="M 0 0 V -0.896867 H -23"/><rect class="sym" height="6" width="6" x="-3" y="-3"/><text class="lab" transform="translate(0 11)">8</text></g><path class="edge" d="M 0 0 V -80.821 H 46"/><circle class="sym" cx="0" cy="0" r="3"/><text class="lab lft" transform="translate(-3 -7)">20</text></g><g class="a36 c2 node n27 p1" transform="translate(46 73.034)"><g class="a27 i3 leaf node n3 p1 sample" transform="translate(-23 8.68393)"><path class="edge" d="M 0 0 V -8.68393 H 23"/><rect class="sym" height="6" width="6" x="-3" y="-3"/><text class="lab" transform="translate(0 11)">3</text></g><g class="a27 i4 leaf node n4 p1 sample" transform="translate(23 8.68393)"><path class="edge" d="M 0 0 V -8.68393 H -23"/><rect class="sym" height="6" width="6" x="-3" y="-3"/><text class="lab" transform="translate(0 11)">4</text></g><path class="edge" d="M 0 0 V -73.034 H -46"/><circle class="sym" cx="0" cy="0" r="3"/><text class="lab rgt" transform="translate(3 -7)">27</text></g><path class="edge" d="M 0 0 V -212.882 H -132.969"/><circle class="sym" cx="0" cy="0" r="3"/><text class="lab rgt" transform="translate(3 -7)">36</text></g><g class="a38 c2 node n37 p0" transform="translate(-132.969 59.5885)"><g class="a37 i9 leaf m1 node n9 p1 s1 sample" transform="translate(150.938 235.012)"><path class="edge" d="M 0 0 V -235.012 H -150.938"/><g class="mut m1 s1" transform="translate(0 -27.0541)"><line x1="0" x2="0" y1="0" y2="27.0541"/><path class="sym" d="M -3,-3 l 6,6 M -3,3 l 6,-6"/><text class="lab rgt" transform="translate(5 0)">1</text></g><rect class="sym" height="6" width="6" x="-3" y="-3"/><text class="lab" transform="translate(0 11)">9</text></g><g class="a37 c2 node n35 p0" transform="translate(-150.938 173.955)"><g class="a35 c2 node n31 p1" transform="translate(186.875 36.2251)"><g class="a31 i16 leaf node n16 p2 sample" transform="translate(69 24.8311)"><path class="edge" d="M 0 0 V -24.8311 H -69"/><rect class="sym" height="6" width="6" x="-3" y="-3"/><text class="lab" transform="translate(0 11)">16</text></g><g class="a31 c2 node n30 p1" transform="translate(-69 9.60539)"><g class="a30 c2 node n22 p2" transform="translate(69 13.8351)"><g class="a22 i6 leaf node n6 p1 sample" transform="translate(-23 1.39065)"><path class="edge" d="M 0 0 V -1.39065 H 23"/><rect class="sym" height="6" width="6" x="-3" y="-3"/><text class="lab" transform="translate(0 11)">6</text></g><g class="a22 i12 leaf node n12 p2 sample" transform="translate(23 1.39065)"><path class="edge" d="M 0 0 V -1.39065 H -23"/><rect class="sym" height="6" width="6" x="-3" y="-3"/><text class="lab" transform="translate(0 11)">12</text></g><path class="edge" d="M 0 0 V -13.8351 H -69"/><circle class="sym" cx="0" cy="0" r="3"/><text class="lab rgt" transform="translate(3 -7)">22</text></g><g class="a30 c2 node n29 p2" transform="translate(-69 3.2133)"><g class="a29 c2 node n21 p1" transform="translate(46 11.0462)"><g class="a21 i13 leaf node n13 p2 sample" transform="translate(-23 0.966174)"><path class="edge" d="M 0 0 V -0.966174 H 23"/><rect class="sym" height="6" width="6" x="-3" y="-3"/><text class="lab" transform="translate(0 11)">13</text></g><g class="a21 i14 leaf node n14 p2 sample" transform="translate(23 0.966174)"><path class="edge" d="M 0 0 V -0.966174 H -23"/><rect class="sym" height="6" width="6" x="-3" y="-3"/><text class="lab" transform="translate(0 11)">14</text></g><path class="edge" d="M 0 0 V -11.0462 H -46"/><circle class="sym" cx="0" cy="0" r="3"/><text class="lab rgt" transform="translate(3 -7)">21</text></g><g class="a29 c2 node n26 p1" transform="translate(-46 5.60751)"><g class="a26 i5 leaf m0 node n5 p1 s0 sample" transform="translate(-23 6.4049)"><path class="edge" d="M 0 0 V -6.4049 H 23"/><g class="mut m0 s0" transform="translate(0 -3.97901)"><line x1="0" x2="0" y1="0" y2="3.97901"/><path class="sym" d="M -3,-3 l 6,6 M -3,3 l 6,-6"/><text class="lab lft" transform="translate(-5 0)">0</text></g><rect class="sym" height="6" width="6" x="-3" y="-3"/><text class="lab" transform="translate(0 11)">5</text></g><g class="a26 i17 leaf node n17 p2 sample" transform="translate(23 6.4049)"><path class="edge" d="M 0 0 V -6.4049 H -23"/><rect class="sym" height="6" width="6" x="-3" y="-3"/><text class="lab" transform="translate(0 11)">17</text></g><path class="edge" d="M 0 0 V -5.60751 H 46"/><circle class="sym" cx="0" cy="0" r="3"/><text class="lab lft" transform="translate(-3 -7)">26</text></g><path class="edge" d="M 0 0 V -3.2133 H 69"/><circle class="sym" cx="0" cy="0" r="3"/><text class="lab lft" transform="translate(-3 -7)">29</text></g><path class="edge" d="M 0 0 V -9.60539 H 69"/><circle class="sym" cx="0" cy="0" r="3"/><text class="lab lft" transform="translate(-3 -7)">30</text></g><path class="edge" d="M 0 0 V -36.2251 H -186.875"/><circle class="sym" cx="0" cy="0" r="3"/><text class="lab rgt" transform="translate(3 -7)">31</text></g><g class="a35 c2 node n34 p2" transform="translate(-186.875 17.1059)"><g class="a34 c2 node n28 p1" transform="translate(97.75 35.1544)"><g class="a28 i1 leaf node n1 p1 sample" transform="translate(-23 8.79586)"><path class="edge" d="M 0 0 V -8.79586 H 23"/><rect class="sym" height="6" width="6" x="-3" y="-3"/><text class="lab" transform="translate(0 11)">1</text></g><g class="a28 i7 leaf node n7 p1 sample" transform="translate(23 8.79586)"><path class="edge" d="M 0 0 V -8.79586 H -23"/><rect class="sym" height="6" width="6" x="-3" y="-3"/><text class="lab" transform="translate(0 11)">7</text></g><path class="edge" d="M 0 0 V -35.1544 H -97.75"/><circle class="sym" cx="0" cy="0" r="3"/><text class="lab rgt" transform="translate(3 -7)">28</text></g><g class="a34 c2 node n33 p2" transform="translate(-97.75 5.93687)"><g class="a33 c2 node n24 p2" transform="translate(69 34.0727)"><g class="a24 i10 leaf node n10 p2 sample" transform="translate(-34.5 3.94067)"><path class="edge" d="M 0 0 V -3.94067 H 34.5"/><rect class="sym" height="6" width="6" x="-3" y="-3"/><text class="lab" transform="translate(0 11)">10</text></g><g class="a24 c2 node n23 p1" transform="translate(34.5 1.70243)"><g class="a23 i11 leaf node n11 p2 sample" transform="translate(-23 2.23824)"><path class="edge" d="M 0 0 V -2.23824 H 23"/><rect class="sym" height="6" width="6" x="-3" y="-3"/><text class="lab" transform="translate(0 11)">11</text></g><g class="a23 i19 leaf node n19 p2 sample" transform="translate(23 2.23824)"><path class="edge" d="M 0 0 V -2.23824 H -23"/><rect class="sym" height="6" width="6" x="-3" y="-3"/><text class="lab" transform="translate(0 11)">19</text></g><path class="edge" d="M 0 0 V -1.70243 H -34.5"/><circle class="sym" cx="0" cy="0" r="3"/><text class="lab rgt" transform="translate(3 -7)">23</text></g><path class="edge" d="M 0 0 V -34.0727 H -69"/><circle class="sym" cx="0" cy="0" r="3"/><text class="lab rgt" transform="translate(3 -7)">24</text></g><g class="a33 c2 node n32 p2" transform="translate(-69 13.1283)"><g class="a32 i0 leaf node n0 p1 sample" transform="translate(-34.5 24.8851)"><path class="edge" d="M 0 0 V -24.8851 H 34.5"/><rect class="sym" height="6" width="6" x="-3" y="-3"/><text class="lab" transform="translate(0 11)">0</text></g><g class="a32 c2 node n25 p1" transform="translate(34.5 20.5386)"><g class="a25 i15 leaf node n15 p2 sample" transform="translate(-23 4.34645)"><path class="edge" d="M 0 0 V -4.34645 H 23"/><rect class="sym" height="6" width="6" x="-3" y="-3"/><text class="lab" transform="translate(0 11)">15</text></g><g class="a25 i18 leaf node n18 p2 sample" transform="translate(23 4.34645)"><path class="edge" d="M 0 0 V -4.34645 H -23"/><rect class="sym" height="6" width="6" x="-3" y="-3"/><text class="lab" transform="translate(0 11)">18</text></g><path class="edge" d="M 0 0 V -20.5386 H -34.5"/><circle class="sym" cx="0" cy="0" r="3"/><text class="lab rgt" transform="translate(3 -7)">25</text></g><path class="edge" d="M 0 0 V -13.1283 H 69"/><circle class="sym" cx="0" cy="0" r="3"/><text class="lab lft" transform="translate(-3 -7)">32</text></g><path class="edge" d="M 0 0 V -5.93687 H 97.75"/><circle class="sym" cx="0" cy="0" r="3"/><text class="lab lft" transform="translate(-3 -7)">33</text></g><path class="edge" d="M 0 0 V -17.1059 H 186.875"/><circle class="sym" cx="0" cy="0" r="3"/><text class="lab lft" transform="translate(-3 -7)">34</text></g><path class="edge" d="M 0 0 V -173.955 H 150.938"/><circle class="sym" cx="0" cy="0" r="3"/><text class="lab lft" transform="translate(-3 -7)">35</text></g><path class="edge" d="M 0 0 V -59.5885 H 132.969"/><circle class="sym" cx="0" cy="0" r="3"/><text class="lab lft" transform="translate(-3 -7)">37</text></g><circle class="sym" cx="0" cy="0" r="3"/><text class="lab" transform="translate(0 -11)">38</text></g></g></g></g></g></svg>