<svg baseProfile="full" height="400" version="1.1" width="1000" xmlns="http://www.w3.org/2000/svg" xmlns:ev="http://www.w3.org/2001/xml-events" xmlns:xlink="http://www.w3.org/1999/xlink"><defs><style type="text/css"><![CDATA[.background path {fill: #808080; fill-opacity: 0}.background path:nth-child(odd) {fill-opacity: .1}.x-regions rect {fill: yellow; stroke: black; opacity: 0.5}.axes {font-size: 14px}.x-axis .tick .lab {font-weight: bold; dominant-baseline: hanging}.axes, .tree {font-size: 14px; text-anchor: middle}.axes line, .edge {stroke: black; fill: none}.axes .ax-skip {stroke-dasharray: 4}.y-axis .grid {stroke: #FAFAFA}.node > .sym {fill: black; stroke: none}.site > .sym {stroke: black}.mut text {fill: red; font-style: italic}.mut.extra text {fill: hotpink}.mut line {fill: none; stroke: none}.mut .sym {fill: none; stroke: red}.mut.extra .sym {stroke: hotpink}.node .mut .sym {stroke-width: 1.5px}.tree text, .tree-sequence text {dominant-baseline: central}.plotbox .lab.lft {text-anchor: end}.plotbox .lab.rgt {text-anchor: start}.polytomy line {stroke: black; stroke-dasharray: 1px, 1px}.polytomy text {paint-order:stroke;stroke-width:0.3em;stroke:white}]]></style></defs><g class="tree-sequence"><g class="background"><path d="M20,0 l960,0 l0,338.2 l0,25 l0,5 l-960,0 l0,-5 l0,-25 l0,-338.2z"/></g><g class="axes"><g class="x-axis"><g class="title" transform="translate(500 400)"><text class="lab" text-anchor="middle" transform="translate(0 -11)">Genome position</text></g><line class="ax-line" x1="20" x2="980" y1="363.2" y2="363.2"/><g class="ticks"><g class="tick" transform="translate(20 363.2)"><line x1="0" x2="0" y1="0" y2="5"/><g transform="translate(0 6)"><text class="lab">0</text></g></g><g class="tick" transform="translate(980 363.2)"><line x1="0" x2="0" y1="0" y2="5"/><g transform="translate(0 6)"><text class="lab">1000</text></g></g></g><g class="site s0" transform="translate(91.04 363.2)"><line class="sym" x1="0" x2="0" y1="0" y2="-10"/><g class="mut m0"><polyline class="sym" points="2.5,-6.5 0,-1.5 -2.5,-6.5"/></g></g><g class="site s1" transform="translate(194.72 363.2)"><line class="sym" x1="0" x2="0" y1="0" y2="-10"/><g class="mut m1"><polyline class="sym" points="2.5,-6.5 0,-1.5 -2.5,-6.5"/></g></g><g class="site s2" transform="translate(215.84 363.2)"><line class="sym" x1="0" x2="0" y1="0" y2="-10"/><g class="mut m2"><polyline class="sym" points="2.5,-6.5 0,-1.5 -2.5,-6.5"/></g></g><g class="site s3" transform="translate(253.28 363.2)"><line class="sym" x1="0" x2="0" y1="0" y2="-10"/><g class="mut m3"><polyline class="sym" points="2.5,-6.5 0,-1.5 -2.5,-6.5"/></g></g><g class="site s4" transform="translate(763.04 363.2)"><line class="sym" x1="0" x2="0" y1="0" y2="-10"/><g class="mut m4"><polyline class="sym" points="2.5,-6.5 0,-1.5 -2.5,-6.5"/></g></g></g></g><g class="plotbox trees"><g class="tree t0" transform="translate(20 0)"><g class="plotbox"><g class="c2 node n38 p2 root" transform="translate(699.96 26.8)"><g class="a38 c2 m2 m3 node n34 p2 s2 s3" transform="translate(165.29 239.186)"><g class="a34 i16 leaf node n16 p2 sample" transform="translate(51.75 55.4138)"><path class="edge" d="M 0 0 V -55.4138 H -51.75"/><rect class="sym" height="6" width="6" x="-3" y="-3"/><text class="lab" transform="translate(0 11)">16</text></g><g class="a34 c2 node n31 p2" transform="translate(-51.75 28.9715)"><g class="a31 i3 leaf m0 node n3 p1 s0 sample" transform="translate(57.5 26.4423)"><path class="edge" d="M 0 0 V -26.4423 H -57.5"/><g class="mut m0 s0" transform="translate(0 -2.18739)"><line x1="0" x2="0" y1="0" y2="2.18739"/><path class="sym" d="M -3,-3 l 6,6 M -3,3 l 6,-6"/><text class="lab rgt" transform="translate(5 0)">0</text></g><rect class="sym" height="6" width="6" x="-3" y="-3"/><text class="lab" transform="translate(0 11)">3</text></g><g class="a31 c2 node n30 p2" transform="translate(-57.5 4.75606)"><g class="a30 c2 node n22 p1" transform="translate(-46 19.5971)"><g class="a22 i2 leaf node n2 p1 sample" transform="translate(-23 2.08917)"><path class="edge" d="M 0 0 V -2.08917 H 23"/><rect class="sym" height="6" width="6" x="-3" y="-3"/><text class="lab" transform="translate(0 11)">2</text></g><g class="a22 i14 leaf node n14 p2 sample" transform="translate(23 2.08917)"><path class="edge" d="M 0 0 V -2.08917 H -23"/><rect class="sym" height="6" width="6" x="-3" y="-3"/><text class="lab" transform="translate(0 11)">14</text></g><path class="edge" d="M 0 0 V -19.5971 H 46"/><circle class="sym" cx="0" cy="0" r="3"/><text class="lab lft" transform="translate(-3 -7)">22</text></g><g class="a30 c2 node n24 p2" transform="translate(46 17.5635)"><g class="a24 i9 leaf node n9 p1 sample" transform="translate(-23 4.12279)"><path class="edge" d="M 0 0 V -4.12279 H 23"/><rect class="sym" height="6" width="6" x="-3" y="-3"/><text class="lab" transform="translate(0 11)">9</text></g><g class="a24 i15 leaf node n15 p2 sample" transform="translate(23 4.12279)"><path class="edge" d="M 0 0 V -4.12279 H -23"/><rect class="sym" height="6" width="6" x="-3" y="-3"/><text class="lab" transform="translate(0 11)">15</text></g><path class="edge" d="M 0 0 V -17.5635 H -46"/><circle class="sym" cx="0" cy="0" r="3"/><text class="lab rgt" transform="translate(3 -7)">24</text></g><path class="edge" d="M 0 0 V -4.75606 H 57.5"/><circle class="sym" cx="0" cy="0" r="3"/><text class="lab lft" transform="translate(-3 -7)">30</text></g><path class="edge" d="M 0 0 V -28.9715 H 51.75"/><circle class="sym" cx="0" cy="0" r="3"/><text class="lab lft" transform="translate(-3 -7)">31</text></g><path class="edge" d="M 0 0 V -239.186 H -165.29"/><g class="mut m3 s3" transform="translate(0 -51.398)"><line x1="0" x2="0" y1="0" y2="51.398"/><path class="sym" d="M -3,-3 l 6,6 M -3,3 l 6,-6"/><text class="lab rgt" transform="translate(5 0)">3</text></g><g class="mut m2 s2" transform="translate(0 -39.9106)"><line x1="0" x2="0" y1="0" y2="39.9106"/><path class="sym" d="M -3,-3 l 6,6 M -3,3 l 6,-6"/><text class="lab rgt" transform="translate(5 0)">2</text></g><circle class="sym" cx="0" cy="0" r="3"/><text class="lab rgt" transform="translate(3 -7)">34</text></g><g class="a38 c2 node n37 p1" transform="translate(-165.29 140.236)"><g class="a37 c2 node n27 p2" transform="translate(83.3301 144.068)"><g class="a27 i6 leaf node n6 p1 sample" transform="translate(-23 10.2958)"><path class="edge" d="M 0 0 V -10.2958 H 23"/><rect class="sym" height="6" width="6" x="-3" y="-3"/><text class="lab" transform="translate(0 11)">6</text></g><g class="a27 i13 leaf node n13 p2 sample" transform="translate(23 10.2958)"><path class="edge" d="M 0 0 V -10.2958 H -23"/><rect class="sym" height="6" width="6" x="-3" y="-3"/><text class="lab" transform="translate(0 11)">13</text></g><path class="edge" d="M 0 0 V -144.068 H -83.3301"/><circle class="sym" cx="0" cy="0" r="3"/><text class="lab rgt" transform="translate(3 -7)">27</text></g><g class="a37 c2 node n36 p2" transform="translate(-83.3301 31.2056)"><g class="a36 c2 m4 node n33 p1 s4" transform="translate(74.6602 86.1964)"><g class="a33 i4 leaf node n4 p1 sample" transform="translate(-23 36.962)"><path class="edge" d="M 0 0 V -36.962 H 23"/><rect class="sym" height="6" width="6" x="-3" y="-3"/><text class="lab" transform="translate(0 11)">4</text></g><g class="a33 i7 leaf node n7 p1 sample" transform="translate(23 36.962)"><path class="edge" d="M 0 0 V -36.962 H -23"/><rect class="sym" height="6" width="6" x="-3" y="-3"/><text class="lab" transform="translate(0 11)">7</text></g><path class="edge" d="M 0 0 V -86.1964 H -74.6602"/><g class="mut m4 s4" transform="translate(0 -6.20521)"><line x1="0" x2="0" y1="0" y2="6.20521"/><path class="sym" d="M -3,-3 l 6,6 M -3,3 l 6,-6"/><text class="lab rgt" transform="translate(5 0)">4</text></g><circle class="sym" cx="0" cy="0" r="3"/><text class="lab rgt" transform="translate(3 -7)">33</text></g><g class="a36 c2 node n35 p2" transform="translate(-74.6602 7.48184)"><g class="a35 c2 node n23 p2" transform="translate(57.3203 112.212)"><g class="a23 i5 leaf node n5 p1 sample" transform="translate(-23 3.4645)"><path class="edge" d="M 0 0 V -3.4645 H 23"/><rect class="sym" height="6" width="6" x="-3" y="-3"/><text class="lab" transform="translate(0 11)">5</text></g><g class="a23 i17 leaf node n17 p2 sample" transform="translate(23 3.4645)"><path class="edge" d="M 0 0 V -3.4645 H -23"/><rect class="sym" height="6" width="6" x="-3" y="-3"/><text class="lab" transform="translate(0 11)">17</text></g><path class="edge" d="M 0 0 V -112.212 H -57.3203"/><circle class="sym" cx="0" cy="0" r="3"/><text class="lab rgt" transform="translate(3 -7)">23</text></g><g class="a35 c2 node n32 p2" transform="translate(-57.3203 85.2761)"><g class="a32 i8 leaf node n8 p1 sample" transform="translate(45.6406 30.4004)"><path class="edge" d="M 0 0 V -30.4004 H -45.6406"/><rect class="sym" height="6" width="6" x="-3" y="-3"/><text class="lab" transform="translate(0 11)">8</text></g><g class="a32 c2 m1 node n29 p1 s1" transform="translate(-45.6406 12.483)"><g class="a29 i12 leaf node n12 p2 sample" transform="translate(45.2812 17.9175)"><path class="edge" d="M 0 0 V -17.9175 H -45.2812"/><rect class="sym" height="6" width="6" x="-3" y="-3"/><text class="lab" transform="translate(0 11)">12</text></g><g class="a29 c2 node n28 p2" transform="translate(-45.2812 3.81023)"><g class="a28 i10 leaf node n10 p2 sample" transform="translate(44.5625 14.1073)"><path class="edge" d="M 0 0 V -14.1073 H -44.5625"/><rect class="sym" height="6" width="6" x="-3" y="-3"/><text class="lab" transform="translate(0 11)">10</text></g><g class="a28 c2 node n26 p1" transform="translate(-44.5625 4.19017)"><g class="a26 i1 leaf node n1 p1 sample" transform="translate(43.125 9.91709)"><path class="edge" d="M 0 0 V -9.91709 H -43.125"/><rect class="sym" height="6" width="6" x="-3" y="-3"/><text class="lab" transform="translate(0 11)">1</text></g><g class="a26 c2 node n25 p2" transform="translate(-43.125 2.39285)"><g class="a25 i11 leaf node n11 p2 sample" transform="translate(40.25 7.52424)"><path class="edge" d="M 0 0 V -7.52424 H -40.25"/><rect class="sym" height="6" width="6" x="-3" y="-3"/><text class="lab" transform="translate(0 11)">11</text></g><g class="a25 c2 node n21 p2" transform="translate(-40.25 6.80851)"><g class="a21 i19 leaf node n19 p2 sample" transform="translate(34.5 0.715721)"><path class="edge" d="M 0 0 V -0.715721 H -34.5"/><rect class="sym" height="6" width="6" x="-3" y="-3"/><text class="lab" transform="translate(0 11)">19</text></g><g class="a21 c2 node n20 p2" transform="translate(-34.5 0.401825)"><g class="a20 i0 leaf node n0 p1 sample" transform="translate(-23 0.313897)"><path class="edge" d="M 0 0 V -0.313897 H 23"/><rect class="sym" height="6" width="6" x="-3" y="-3"/><text class="lab" transform="translate(0 11)">0</text></g><g class="a20 i18 leaf node n18 p2 sample" transform="translate(23 0.313897)"><path class="edge" d="M 0 0 V -0.313897 H -23"/><rect class="sym" height="6" width="6" x="-3" y="-3"/><text class="lab" transform="translate(0 11)">18</text></g><path class="edge" d="M 0 0 V -0.401825 H 34.5"/><circle class="sym" cx="0" cy="0" r="3"/><text class="lab lft" transform="translate(-3 -7)">20</text></g><path class="edge" d="M 0 0 V -6.80851 H 40.25"/><circle class="sym" cx="0" cy="0" r="3"/><text class="lab lft" transform="translate(-3 -7)">21</text></g><path class="edge" d="M 0 0 V -2.39285 H 43.125"/><circle class="sym" cx="0" cy="0" r="3"/><text class="lab lft" transform="translate(-3 -7)">25</text></g><path class="edge" d="M 0 0 V -4.19017 H 44.5625"/><circle class="sym" cx="0" cy="0" r="3"/><text class="lab lft" transform="translate(-3 -7)">26</text></g><path class="edge" d="M 0 0 V -3.81023 H 45.2812"/><circle class="sym" cx="0" cy="0" r="3"/><text class="lab lft" transform="translate(-3 -7)">28</text></g><path class="edge" d="M 0 0 V -12.483 H 45.6406"/><g class="mut m1 s1" transform="translate(0 -12.0901)"><line x1="0" x2="0" y1="0" y2="12.0901"/><path class="sym" d="M -3,-3 l 6,6 M -3,3 l 6,-6"/><text class="lab lft" transform="translate(-5 0)">1</text></g><circle class="sym" cx="0" cy="0" r="3"/><text class="lab lft" transform="translate(-3 -7)">29</text></g><path class="edge" d="M 0 0 V -85.2761 H 57.3203"/><circle class="sym" cx="0" cy="0" r="3"/><text class="lab lft" transform="translate(-3 -7)">32</text></g><path class="edge" d="M 0 0 V -7.48184 H 74.6602"/><circle class="sym" cx="0" cy="0" r="3"/><text class="lab lft" transform="translate(-3 -7)">35</text></g><path class="edge" d="M 0 0 V -31.2056 H 83.3301"/><circle class="sym" cx="0" cy="0" r="3"/><text class="lab lft" transform="translate(-3 -7)">36</text></g><path class="edge" d="M 0 0 V -140.236 H 165.29"/><circle class="sym" cx="0" cy="0" r="3"/><text class="lab lft" transform="translate(-3 -7)">37</text></g><circle class="sym" cx="0" cy="0" r="3"/><text class="lab" transform="translate(0 -11)">38</text></g></g></g></g></g></svg>