<svg baseProfile="full" height="400" version="1.1" width="1000" xmlns="http://www.w3.org/2000/svg" xmlns:ev="http://www.w3.org/2001/xml-events" xmlns:xlink="http://www.w3.org/1999/xlink"><defs><style type="text/css"><![CDATA[.background path {fill: #808080; fill-opacity: 0}.background path:nth-child(odd) {fill-opacity: .1}.x-regions rect {fill: yellow; stroke: black; opacity: 0.5}.axes {font-size: 14px}.x-axis .tick .lab {font-weight: bold; dominant-baseline: hanging}.axes, .tree {font-size: 14px; text-anchor: middle}.axes line, .edge {stroke: black; fill: none}.axes .ax-skip {stroke-dasharray: 4}.y-axis .grid {stroke: #FAFAFA}.node > .sym {fill: black; stroke: none}.site > .sym {stroke: black}.mut text {fill: red; font-style: italic}.mut.extra text {fill: hotpink}.mut line {fill: none; stroke: none}.mut .sym {fill: none; stroke: red}.mut.extra .sym {stroke: hotpink}.node .mut .sym {stroke-width: 1.5px}.tree text, .tree-sequence text {dominant-baseline: central}.plotbox .lab.lft {text-anchor: end}.plotbox .lab.rgt {text-anchor: start}.polytomy line {stroke: black; stroke-dasharray: 1px, 1px}.polytomy text {paint-order:stroke;stroke-width:0.3em;stroke:white}]]></style></defs><g class="tree-sequence"><g class="background"><path d="M20,0 l960,0 l0,338.2 l0,25 l0,5 l-960,0 l0,-5 l0,-25 l0,-338.2z"/></g><g class="axes"><g class="x-axis"><g class="title" transform="translate(500 400)"><text class="lab" text-anchor="middle" transform="translate(0 -11)">Genome position</text></g><line class="ax-line" x1="20" x2="980" y1="363.2" y2="363.2"/><g class="ticks"><g class="tick" transform="translate(20 363.2)"><line x1="0" x2="0" y1="0" y2="5"/><g transform="translate(0 6)"><text class="lab">0</text></g></g><g class="tick" transform="translate(980 363.2)"><line x1="0" x2="0" y1="0" y2="5"/><g transform="translate(0 6)"><text class="lab">1000</text></g></g></g><g class="site s0" transform="translate(275.36 363.2)"><line class="sym" x1="0" x2="0" y1="0" y2="-10"/><g class="mut m0"><polyline class="sym" points="2.5,-6.5 0,-1.5 -2.5,-6.5"/></g></g><g class="site s1" transform="translate(524.96 363.2)"><line class="sym" x1="0" x2="0" y1="0" y2="-10"/><g class="mut m1"><polyline class="sym" points="2.5,-6.5 0,-1.5 -2.5,-6.5"/></g></g><g class="site s2" transform="translate(633.44 363.2)"><line class="sym" x1="0" x2="0" y1="0" y2="-10"/><g class="mut m2"><polyline class="sym" points="2.5,-6.5 0,-1.5 -2.5,-6.5"/></g></g><g class="site s3" transform="translate(769.76 363.2)"><line class="sym" x1="0" x2="0" y1="0" y2="-10"/><g class="mut m3"><polyline class="sym" points="2.5,-6.5 0,-1.5 -2.5,-6.5"/></g></g><g class="site s4" transform="translate(907.04 363.2)"><line class="sym" x1="0" x2="0" y1="0" y2="-10"/><g class="mut m4"><polyline class="sym" points="2.5,-6.5 0,-1.5 -2.5,-6.5"/></g></g></g></g><g class="plotbox trees"><g class="tree t0" transform="translate(20 0)"><g class="plotbox"><g class="c2 node n38 p1 root" transform="translate(695.67 26.8)"><g class="a38 c2 m0 node n35 p1 s0" transform="translate(160.955 231.575)"><g class="a35 i11 leaf node n11 p2 sample" transform="translate(60.375 63.0249)"><path class="edge" d="M 0 0 V -63.0249 H -60.375"/><rect class="sym" height="6" width="6" x="-3" y="-3"/><text class="lab" transform="translate(0 11)">11</text></g><g class="a35 c2 node n25 p1" transform="translate(-60.375 58.8148)"><g class="a25 c2 node n21 p2" transform="translate(51.75 2.13563)"><g class="a21 i8 leaf node n8 p1 sample" transform="translate(-23 2.07452)"><path class="edge" d="M 0 0 V -2.07452 H 23"/><rect class="sym" height="6" width="6" x="-3" y="-3"/><text class="lab" transform="translate(0 11)">8</text></g><g class="a21 i19 leaf node n19 p2 sample" transform="translate(23 2.07452)"><path class="edge" d="M 0 0 V -2.07452 H -23"/><rect class="sym" height="6" width="6" x="-3" y="-3"/><text class="lab" transform="translate(0 11)">19</text></g><path class="edge" d="M 0 0 V -2.13563 H -51.75"/><circle class="sym" cx="0" cy="0" r="3"/><text class="lab rgt" transform="translate(3 -7)">21</text></g><g class="a25 c2 node n23 p2" transform="translate(-51.75 0.847491)"><g class="a23 i10 leaf node n10 p2 sample" transform="translate(34.5 3.36266)"><path class="edge" d="M 0 0 V -3.36266 H -34.5"/><rect class="sym" height="6" width="6" x="-3" y="-3"/><text class="lab" transform="translate(0 11)">10</text></g><g class="a23 c2 node n20 p1" transform="translate(-34.5 2.53813)"><g class="a20 i6 leaf node n6 p1 sample" transform="translate(-23 0.824531)"><path class="edge" d="M 0 0 V -0.824531 H 23"/><rect class="sym" height="6" width="6" x="-3" y="-3"/><text class="lab" transform="translate(0 11)">6</text></g><g class="a20 i9 leaf node n9 p1 sample" transform="translate(23 0.824531)"><path class="edge" d="M 0 0 V -0.824531 H -23"/><rect class="sym" height="6" width="6" x="-3" y="-3"/><text class="lab" transform="translate(0 11)">9</text></g><path class="edge" d="M 0 0 V -2.53813 H 34.5"/><circle class="sym" cx="0" cy="0" r="3"/><text class="lab lft" transform="translate(-3 -7)">20</text></g><path class="edge" d="M 0 0 V -0.847491 H 51.75"/><circle class="sym" cx="0" cy="0" r="3"/><text class="lab lft" transform="translate(-3 -7)">23</text></g><path class="edge" d="M 0 0 V -58.8148 H 60.375"/><circle class="sym" cx="0" cy="0" r="3"/><text class="lab lft" transform="translate(-3 -7)">25</text></g><path class="edge" d="M 0 0 V -231.575 H -160.955"/><g class="mut m0 s0" transform="translate(0 -95.4809)"><line x1="0" x2="0" y1="0" y2="95.4809"/><path class="sym" d="M -3,-3 l 6,6 M -3,3 l 6,-6"/><text class="lab rgt" transform="translate(5 0)">0</text></g><circle class="sym" cx="0" cy="0" r="3"/><text class="lab rgt" transform="translate(3 -7)">35</text></g><g class="a38 c2 node n37 p2" transform="translate(-160.955 167.033)"><g class="a37 i17 leaf m1 node n17 p2 s1 sample" transform="translate(106.285 127.567)"><path class="edge" d="M 0 0 V -127.567 H -106.285"/><g class="mut m1 s1" transform="translate(0 -54.0811)"><line x1="0" x2="0" y1="0" y2="54.0811"/><path class="sym" d="M -3,-3 l 6,6 M -3,3 l 6,-6"/><text class="lab rgt" transform="translate(5 0)">1</text></g><rect class="sym" height="6" width="6" x="-3" y="-3"/><text class="lab" transform="translate(0 11)">17</text></g><g class="a37 c2 m2 node n36 p1 s2" transform="translate(-106.285 19.7922)"><g class="a36 i4 leaf m4 node n4 p1 s4 sample" transform="translate(166.57 107.775)"><path class="edge" d="M 0 0 V -107.775 H -166.57"/><g class="mut m4 s4" transform="translate(0 -52.6609)"><line x1="0" x2="0" y1="0" y2="52.6609"/><path class="sym" d="M -3,-3 l 6,6 M -3,3 l 6,-6"/><text class="lab rgt" transform="translate(5 0)">4</text></g><rect class="sym" height="6" width="6" x="-3" y="-3"/><text class="lab" transform="translate(0 11)">4</text></g><g class="a36 c2 node n34 p2" transform="translate(-166.57 62.1091)"><g class="a34 c2 node n31 p2" transform="translate(-161.359 24.4029)"><g class="a31 i13 leaf node n13 p2 sample" transform="translate(34.5 21.2627)"><path class="edge" d="M 0 0 V -21.2627 H -34.5"/><rect class="sym" height="6" width="6" x="-3" y="-3"/><text class="lab" transform="translate(0 11)">13</text></g><g class="a31 c2 node n22 p2" transform="translate(-34.5 18.8855)"><g class="a22 i0 leaf node n0 p1 sample" transform="translate(-23 2.37713)"><path class="edge" d="M 0 0 V -2.37713 H 23"/><rect class="sym" height="6" width="6" x="-3" y="-3"/><text class="lab" transform="translate(0 11)">0</text></g><g class="a22 i5 leaf node n5 p1 sample" transform="translate(23 2.37713)"><path class="edge" d="M 0 0 V -2.37713 H -23"/><rect class="sym" height="6" width="6" x="-3" y="-3"/><text class="lab" transform="translate(0 11)">5</text></g><path class="edge" d="M 0 0 V -18.8855 H 34.5"/><circle class="sym" cx="0" cy="0" r="3"/><text class="lab lft" transform="translate(-3 -7)">22</text></g><path class="edge" d="M 0 0 V -24.4029 H 161.359"/><circle class="sym" cx="0" cy="0" r="3"/><text class="lab lft" transform="translate(-3 -7)">31</text></g><g class="a34 c2 node n33 p1" transform="translate(161.359 11.4754)"><g class="a33 c2 node n30 p1" transform="translate(91.2812 19.6551)"><g class="a30 i12 leaf m3 node n12 p2 s3 sample" transform="translate(34.5 14.5351)"><path class="edge" d="M 0 0 V -14.5351 H -34.5"/><g class="mut m3 s3" transform="translate(0 -4.08737)"><line x1="0" x2="0" y1="0" y2="4.08737"/><path class="sym" d="M -3,-3 l 6,6 M -3,3 l 6,-6"/><text class="lab rgt" transform="translate(5 0)">3</text></g><rect class="sym" height="6" width="6" x="-3" y="-3"/><text class="lab" transform="translate(0 11)">12</text></g><g class="a30 c2 node n24 p2" transform="translate(-34.5 10.8507)"><g class="a24 i3 leaf node n3 p1 sample" transform="translate(-23 3.68434)"><path class="edge" d="M 0 0 V -3.68434 H 23"/><rect class="sym" height="6" width="6" x="-3" y="-3"/><text class="lab" transform="translate(0 11)">3</text></g><g class="a24 i7 leaf node n7 p1 sample" transform="translate(23 3.68434)"><path class="edge" d="M 0 0 V -3.68434 H -23"/><rect class="sym" height="6" width="6" x="-3" y="-3"/><text class="lab" transform="translate(0 11)">7</text></g><path class="edge" d="M 0 0 V -10.8507 H 34.5"/><circle class="sym" cx="0" cy="0" r="3"/><text class="lab lft" transform="translate(-3 -7)">24</text></g><path class="edge" d="M 0 0 V -19.6551 H -91.2812"/><circle class="sym" cx="0" cy="0" r="3"/><text class="lab rgt" transform="translate(3 -7)">30</text></g><g class="a33 c2 node n32 p2" transform="translate(-91.2812 9.2624)"><g class="a32 i15 leaf node n15 p2 sample" transform="translate(79.0625 24.9277)"><path class="edge" d="M 0 0 V -24.9277 H -79.0625"/><rect class="sym" height="6" width="6" x="-3" y="-3"/><text class="lab" transform="translate(0 11)">15</text></g><g class="a32 c2 node n29 p1" transform="translate(-79.0625 14.5686)"><g class="a29 i1 leaf node n1 p1 sample" transform="translate(-71.875 10.3591)"><path class="edge" d="M 0 0 V -10.3591 H 71.875"/><rect class="sym" height="6" width="6" x="-3" y="-3"/><text class="lab" transform="translate(0 11)">1</text></g><g class="a29 c2 node n28 p1" transform="translate(71.875 0.140007)"><g class="a28 i18 leaf node n18 p2 sample" transform="translate(40.25 10.2191)"><path class="edge" d="M 0 0 V -10.2191 H -40.25"/><rect class="sym" height="6" width="6" x="-3" y="-3"/><text class="lab" transform="translate(0 11)">18</text></g><g class="a28 c2 node n27 p1" transform="translate(-40.25 0.136751)"><g class="a27 i16 leaf node n16 p2 sample" transform="translate(34.5 10.0823)"><path class="edge" d="M 0 0 V -10.0823 H -34.5"/><rect class="sym" height="6" width="6" x="-3" y="-3"/><text class="lab" transform="translate(0 11)">16</text></g><g class="a27 c2 node n26 p1" transform="translate(-34.5 3.49453)"><g class="a26 i2 leaf node n2 p1 sample" transform="translate(-23 6.58781)"><path class="edge" d="M 0 0 V -6.58781 H 23"/><rect class="sym" height="6" width="6" x="-3" y="-3"/><text class="lab" transform="translate(0 11)">2</text></g><g class="a26 i14 leaf node n14 p2 sample" transform="translate(23 6.58781)"><path class="edge" d="M 0 0 V -6.58781 H -23"/><rect class="sym" height="6" width="6" x="-3" y="-3"/><text class="lab" transform="translate(0 11)">14</text></g><path class="edge" d="M 0 0 V -3.49453 H 34.5"/><circle class="sym" cx="0" cy="0" r="3"/><text class="lab lft" transform="translate(-3 -7)">26</text></g><path class="edge" d="M 0 0 V -0.136751 H 40.25"/><circle class="sym" cx="0" cy="0" r="3"/><text class="lab lft" transform="translate(-3 -7)">27</text></g><path class="edge" d="M 0 0 V -0.140007 H -71.875"/><circle class="sym" cx="0" cy="0" r="3"/><text class="lab rgt" transform="translate(3 -7)">28</text></g><path class="edge" d="M 0 0 V -14.5686 H 79.0625"/><circle class="sym" cx="0" cy="0" r="3"/><text class="lab lft" transform="translate(-3 -7)">29</text></g><path class="edge" d="M 0 0 V -9.2624 H 91.2812"/><circle class="sym" cx="0" cy="0" r="3"/><text class="lab lft" transform="translate(-3 -7)">32</text></g><path class="edge" d="M 0 0 V -11.4754 H -161.359"/><circle class="sym" cx="0" cy="0" r="3"/><text class="lab rgt" transform="translate(3 -7)">33</text></g><path class="edge" d="M 0 0 V -62.1091 H 166.57"/><circle class="sym" cx="0" cy="0" r="3"/><text class="lab lft" transform="translate(-3 -7)">34</text></g><path class="edge" d="M 0 0 V -19.7922 H 106.285"/><g class="mut m2 s2" transform="translate(0 -17.0256)"><line x1="0" x2="0" y1="0" y2="17.0256"/><path class="sym" d="M -3,-3 l 6,6 M -3,3 l 6,-6"/><text class="lab lft" transform="translate(-5 0)">2</text></g><circle class="sym" cx="0" cy="0" r="3"/><text class="lab lft" transform="translate(-3 -7)">36</text></g><path class="edge" d="M 0 0 V -167.033 H 160.955"/><circle class="sym" cx="0" cy="0" r="3"/><text class="lab lft" transform="translate(-3 -7)">37</text></g><circle class="sym" cx="0" cy="0" r="3"/><text class="lab" transform="translate(0 -11)">38</text></g></g></g></g></g></svg>