<svg baseProfile="full" height="400" version="1.1" width="1000" xmlns="http://www.w3.org/2000/svg" xmlns:ev="http://www.w3.org/2001/xml-events" xmlns:xlink="http://www.w3.org/1999/xlink"><defs><style type="text/css"><![CDATA[.background path {fill: #808080; fill-opacity: 0}.background path:nth-child(odd) {fill-opacity: .1}.x-regions rect {fill: yellow; stroke: black; opacity: 0.5}.axes {font-size: 14px}.x-axis .tick .lab {font-weight: bold; dominant-baseline: hanging}.axes, .tree {font-size: 14px; text-anchor: middle}.axes line, .edge {stroke: black; fill: none}.axes .ax-skip {stroke-dasharray: 4}.y-axis .grid {stroke: #FAFAFA}.node > .sym {fill: black; stroke: none}.site > .sym {stroke: black}.mut text {fill: red; font-style: italic}.mut.extra text {fill: hotpink}.mut line {fill: none; stroke: none}.mut .sym {fill: none; stroke: red}.mut.extra .sym {stroke: hotpink}.node .mut .sym {stroke-width: 1.5px}.tree text, .tree-sequence text {dominant-baseline: central}.plotbox .lab.lft {text-anchor: end}.plotbox .lab.rgt {text-anchor: start}.polytomy line {stroke: black; stroke-dasharray: 1px, 1px}.polytomy text {paint-order:stroke;stroke-width:0.3em;stroke:white}]]></style></defs><g class="tree-sequence"><g class="background"><path d="M20,0 l960,0 l0,338.2 l0,25 l0,5 l-960,0 l0,-5 l0,-25 l0,-338.2z"/></g><g class="axes"><g class="x-axis"><g class="title" transform="translate(500 400)"><text class="lab" text-anchor="middle" transform="translate(0 -11)">Genome position</text></g><line class="ax-line" x1="20" x2="980" y1="363.2" y2="363.2"/><g class="ticks"><g class="tick" transform="translate(20 363.2)"><line x1="0" x2="0" y1="0" y2="5"/><g transform="translate(0 6)"><text class="lab">0</text></g></g><g class="tick" transform="translate(980 363.2)"><line x1="0" x2="0" y1="0" y2="5"/><g transform="translate(0 6)"><text class="lab">1000</text></g></g></g><g class="site s0" transform="translate(729.44 363.2)"><line class="sym" x1="0" x2="0" y1="0" y2="-10"/><g class="mut m0"><polyline class="sym" points="2.5,-6.5 0,-1.5 -2.5,-6.5"/></g></g><g class="site s1" transform="translate(818.72 363.2)"><line class="sym" x1="0" x2="0" y1="0" y2="-10"/><g class="mut m1"><polyline class="sym" points="2.5,-6.5 0,-1.5 -2.5,-6.5"/></g></g></g></g><g class="plotbox trees"><g class="tree t0" transform="translate(20 0)"><g class="plotbox"><g class="c2 node n38 p2 root" transform="translate(434.359 26.8)"><g class="a38 c2 node n36 p2" transform="translate(319.484 218.679)"><g class="a36 i18 leaf node n18 p2 sample" transform="translate(163.156 75.9211)"><path class="edge" d="M 0 0 V -75.9211 H -163.156"/><rect class="sym" height="6" width="6" x="-3" y="-3"/><text class="lab" transform="translate(0 11)">18</text></g><g class="a36 c2 node n34 p2" transform="translate(-163.156 38.3596)"><g class="a34 c2 node n30 p1" transform="translate(189.75 28.0105)"><g class="a30 c2 node n22 p1" transform="translate(67.5625 7.32881)"><g class="a22 i12 leaf node n12 p2 sample" transform="translate(-23 2.22218)"><path class="edge" d="M 0 0 V -2.22218 H 23"/><rect class="sym" height="6" width="6" x="-3" y="-3"/><text class="lab" transform="translate(0 11)">12</text></g><g class="a22 i19 leaf node n19 p2 sample" transform="translate(23 2.22218)"><path class="edge" d="M 0 0 V -2.22218 H -23"/><rect class="sym" height="6" width="6" x="-3" y="-3"/><text class="lab" transform="translate(0 11)">19</text></g><path class="edge" d="M 0 0 V -7.32881 H -67.5625"/><circle class="sym" cx="0" cy="0" r="3"/><text class="lab rgt" transform="translate(3 -7)">22</text></g><g class="a30 c2 node n28 p1" transform="translate(-67.5625 2.72304)"><g class="a28 i9 leaf node n9 p1 sample" transform="translate(66.125 6.82795)"><path class="edge" d="M 0 0 V -6.82795 H -66.125"/><rect class="sym" height="6" width="6" x="-3" y="-3"/><text class="lab" transform="translate(0 11)">9</text></g><g class="a28 c2 node n25 p1" transform="translate(-66.125 3.23436)"><g class="a25 i4 leaf node n4 p1 sample" transform="translate(-51.75 3.59359)"><path class="edge" d="M 0 0 V -3.59359 H 51.75"/><rect class="sym" height="6" width="6" x="-3" y="-3"/><text class="lab" transform="translate(0 11)">4</text></g><g class="a25 c2 node n24 p1" transform="translate(51.75 0.973093)"><g class="a24 i14 leaf node n14 p2 sample" transform="translate(34.5 2.62049)"><path class="edge" d="M 0 0 V -2.62049 H -34.5"/><rect class="sym" height="6" width="6" x="-3" y="-3"/><text class="lab" transform="translate(0 11)">14</text></g><g class="a24 c2 node n21 p1" transform="translate(-34.5 1.11871)"><g class="a21 i5 leaf node n5 p1 sample" transform="translate(-23 1.50178)"><path class="edge" d="M 0 0 V -1.50178 H 23"/><rect class="sym" height="6" width="6" x="-3" y="-3"/><text class="lab" transform="translate(0 11)">5</text></g><g class="a21 i10 leaf node n10 p2 sample" transform="translate(23 1.50178)"><path class="edge" d="M 0 0 V -1.50178 H -23"/><rect class="sym" height="6" width="6" x="-3" y="-3"/><text class="lab" transform="translate(0 11)">10</text></g><path class="edge" d="M 0 0 V -1.11871 H 34.5"/><circle class="sym" cx="0" cy="0" r="3"/><text class="lab lft" transform="translate(-3 -7)">21</text></g><path class="edge" d="M 0 0 V -0.973093 H -51.75"/><circle class="sym" cx="0" cy="0" r="3"/><text class="lab rgt" transform="translate(3 -7)">24</text></g><path class="edge" d="M 0 0 V -3.23436 H 66.125"/><circle class="sym" cx="0" cy="0" r="3"/><text class="lab lft" transform="translate(-3 -7)">25</text></g><path class="edge" d="M 0 0 V -2.72304 H 67.5625"/><circle class="sym" cx="0" cy="0" r="3"/><text class="lab lft" transform="translate(-3 -7)">28</text></g><path class="edge" d="M 0 0 V -28.0105 H -189.75"/><circle class="sym" cx="0" cy="0" r="3"/><text class="lab rgt" transform="translate(3 -7)">30</text></g><g class="a34 c2 node n32 p1" transform="translate(-189.75 17.2637)"><g class="a32 c2 node n20 p2" transform="translate(-104.938 20.0896)"><g class="a20 i3 leaf node n3 p1 sample" transform="translate(-23 0.208149)"><path class="edge" d="M 0 0 V -0.208149 H 23"/><rect class="sym" height="6" width="6" x="-3" y="-3"/><text class="lab" transform="translate(0 11)">3</text></g><g class="a20 i6 leaf node n6 p1 sample" transform="translate(23 0.208149)"><path class="edge" d="M 0 0 V -0.208149 H -23"/><rect class="sym" height="6" width="6" x="-3" y="-3"/><text class="lab" transform="translate(0 11)">6</text></g><path class="edge" d="M 0 0 V -20.0896 H 104.938"/><circle class="sym" cx="0" cy="0" r="3"/><text class="lab lft" transform="translate(-3 -7)">20</text></g><g class="a32 c2 node n31 p1" transform="translate(104.938 4.25919)"><g class="a31 i16 leaf node n16 p2 sample" transform="translate(43.125 16.0386)"><path class="edge" d="M 0 0 V -16.0386 H -43.125"/><rect class="sym" height="6" width="6" x="-3" y="-3"/><text class="lab" transform="translate(0 11)">16</text></g><g class="a31 c2 node n29 p1" transform="translate(-43.125 8.49354)"><g class="a29 i15 leaf node n15 p2 sample" transform="translate(40.25 7.54505)"><path class="edge" d="M 0 0 V -7.54505 H -40.25"/><rect class="sym" height="6" width="6" x="-3" y="-3"/><text class="lab" transform="translate(0 11)">15</text></g><g class="a29 c2 node n27 p2" transform="translate(-40.25 3.24715)"><g class="a27 i13 leaf node n13 p2 sample" transform="translate(34.5 4.2979)"><path class="edge" d="M 0 0 V -4.2979 H -34.5"/><rect class="sym" height="6" width="6" x="-3" y="-3"/><text class="lab" transform="translate(0 11)">13</text></g><g class="a27 c2 node n26 p2" transform="translate(-34.5 0.41719)"><g class="a26 i8 leaf node n8 p1 sample" transform="translate(-23 3.88071)"><path class="edge" d="M 0 0 V -3.88071 H 23"/><rect class="sym" height="6" width="6" x="-3" y="-3"/><text class="lab" transform="translate(0 11)">8</text></g><g class="a26 i11 leaf node n11 p2 sample" transform="translate(23 3.88071)"><path class="edge" d="M 0 0 V -3.88071 H -23"/><rect class="sym" height="6" width="6" x="-3" y="-3"/><text class="lab" transform="translate(0 11)">11</text></g><path class="edge" d="M 0 0 V -0.41719 H 34.5"/><circle class="sym" cx="0" cy="0" r="3"/><text class="lab lft" transform="translate(-3 -7)">26</text></g><path class="edge" d="M 0 0 V -3.24715 H 40.25"/><circle class="sym" cx="0" cy="0" r="3"/><text class="lab lft" transform="translate(-3 -7)">27</text></g><path class="edge" d="M 0 0 V -8.49354 H 43.125"/><circle class="sym" cx="0" cy="0" r="3"/><text class="lab lft" transform="translate(-3 -7)">29</text></g><path class="edge" d="M 0 0 V -4.25919 H -104.938"/><circle class="sym" cx="0" cy="0" r="3"/><text class="lab rgt" transform="translate(3 -7)">31</text></g><path class="edge" d="M 0 0 V -17.2637 H 189.75"/><circle class="sym" cx="0" cy="0" r="3"/><text class="lab lft" transform="translate(-3 -7)">32</text></g><path class="edge" d="M 0 0 V -38.3596 H 163.156"/><circle class="sym" cx="0" cy="0" r="3"/><text class="lab lft" transform="translate(-3 -7)">34</text></g><path class="edge" d="M 0 0 V -218.679 H -319.484"/><circle class="sym" cx="0" cy="0" r="3"/><text class="lab rgt" transform="translate(3 -7)">36</text></g><g class="a38 c2 m0 node n37 p2 s0" transform="translate(-319.484 111.532)"><g class="a37 i0 leaf node n0 p1 sample" transform="translate(-71.875 183.068)"><path class="edge" d="M 0 0 V -183.068 H 71.875"/><rect class="sym" height="6" width="6" x="-3" y="-3"/><text class="lab" transform="translate(0 11)">0</text></g><g class="a37 c2 m1 node n35 p2 s1" transform="translate(71.875 136.402)"><g class="a35 i7 leaf node n7 p1 sample" transform="translate(40.25 46.6664)"><path class="edge" d="M 0 0 V -46.6664 H -40.25"/><rect class="sym" height="6" width="6" x="-3" y="-3"/><text class="lab" transform="translate(0 11)">7</text></g><g class="a35 c2 node n33 p2" transform="translate(-40.25 16.8896)"><g class="a33 i17 leaf node n17 p2 sample" transform="translate(34.5 29.7769)"><path class="edge" d="M 0 0 V -29.7769 H -34.5"/><rect class="sym" height="6" width="6" x="-3" y="-3"/><text class="lab" transform="translate(0 11)">17</text></g><g class="a33 c2 node n23 p1" transform="translate(-34.5 27.2104)"><g class="a23 i1 leaf node n1 p1 sample" transform="translate(-23 2.56646)"><path class="edge" d="M 0 0 V -2.56646 H 23"/><rect class="sym" height="6" width="6" x="-3" y="-3"/><text class="lab" transform="translate(0 11)">1</text></g><g class="a23 i2 leaf node n2 p1 sample" transform="translate(23 2.56646)"><path class="edge" d="M 0 0 V -2.56646 H -23"/><rect class="sym" height="6" width="6" x="-3" y="-3"/><text class="lab" transform="translate(0 11)">2</text></g><path class="edge" d="M 0 0 V -27.2104 H 34.5"/><circle class="sym" cx="0" cy="0" r="3"/><text class="lab lft" transform="translate(-3 -7)">23</text></g><path class="edge" d="M 0 0 V -16.8896 H 40.25"/><circle class="sym" cx="0" cy="0" r="3"/><text class="lab lft" transform="translate(-3 -7)">33</text></g><path class="edge" d="M 0 0 V -136.402 H -71.875"/><g class="mut m1 s1" transform="translate(0 -6.76666)"><line x1="0" x2="0" y1="0" y2="6.76666"/><path class="sym" d="M -3,-3 l 6,6 M -3,3 l 6,-6"/><text class="lab rgt" transform="translate(5 0)">1</text></g><circle class="sym" cx="0" cy="0" r="3"/><text class="lab rgt" transform="translate(3 -7)">35</text></g><path class="edge" d="M 0 0 V -111.532 H 319.484"/><g class="mut m0 s0" transform="translate(0 -79.9247)"><line x1="0" x2="0" y1="0" y2="79.9247"/><path class="sym" d="M -3,-3 l 6,6 M -3,3 l 6,-6"/><text class="lab lft" transform="translate(-5 0)">0</text></g><circle class="sym" cx="0" cy="0" r="3"/><text class="lab lft" transform="translate(-3 -7)">37</text></g><circle class="sym" cx="0" cy="0" r="3"/><text class="lab" transform="translate(0 -11)">38</text></g></g></g></g></g></svg>