<svg baseProfile="full" height="400" version="1.1" width="1000" xmlns="http://www.w3.org/2000/svg" xmlns:ev="http://www.w3.org/2001/xml-events" xmlns:xlink="http://www.w3.org/1999/xlink"><defs><style type="text/css"><![CDATA[.background path {fill: #808080; fill-opacity: 0}.background path:nth-child(odd) {fill-opacity: .1}.x-regions rect {fill: yellow; stroke: black; opacity: 0.5}.axes {font-size: 14px}.x-axis .tick .lab {font-weight: bold; dominant-baseline: hanging}.axes, .tree {font-size: 14px; text-anchor: middle}.axes line, .edge {stroke: black; fill: none}.axes .ax-skip {stroke-dasharray: 4}.y-axis .grid {stroke: #FAFAFA}.node > .sym {fill: black; stroke: none}.site > .sym {stroke: black}.mut text {fill: red; font-style: italic}.mut.extra text {fill: hotpink}.mut line {fill: none; stroke: none}.mut .sym {fill: none; stroke: red}.mut.extra .sym {stroke: hotpink}.node .mut .sym {stroke-width: 1.5px}.tree text, .tree-sequence text {dominant-baseline: central}.plotbox .lab.lft {text-anchor: end}.plotbox .lab.rgt {text-anchor: start}.polytomy line {stroke: black; stroke-dasharray: 1px, 1px}.polytomy text {paint-order:stroke;stroke-width:0.3em;stroke:white}]]></style></defs><g class="tree-sequence"><g class="background"><path d="M20,0 l960,0 l0,338.2 l0,25 l0,5 l-960,0 l0,-5 l0,-25 l0,-338.2z"/></g><g class="axes"><g class="x-axis"><g class="title" transform="translate(500 400)"><text class="lab" text-anchor="middle" transform="translate(0 -11)">Genome position</text></g><line class="ax-line" x1="20" x2="980" y1="363.2" y2="363.2"/><g class="ticks"><g class="tick" transform="translate(20 363.2)"><line x1="0" x2="0" y1="0" y2="5"/><g transform="translate(0 6)"><text class="lab">0</text></g></g><g class="tick" transform="translate(980 363.2)"><line x1="0" x2="0" y1="0" y2="5"/><g transform="translate(0 6)"><text class="lab">1000</text></g></g></g><g class="site s0" transform="translate(603.68 363.2)"><line class="sym" x1="0" x2="0" y1="0" y2="-10"/><g class="mut m0"><polyline class="sym" points="2.5,-6.5 0,-1.5 -2.5,-6.5"/></g></g><g class="site s1" transform="translate(655.52 363.2)"><line class="sym" x1="0" x2="0" y1="0" y2="-10"/><g class="mut m1"><polyline class="sym" points="2.5,-6.5 0,-1.5 -2.5,-6.5"/></g></g><g class="site s2" transform="translate(751.52 363.2)"><line class="sym" x1="0" x2="0" y1="0" y2="-10"/><g class="mut m2"><polyline class="sym" points="2.5,-6.5 0,-1.5 -2.5,-6.5"/></g></g><g class="site s3" transform="translate(773.6 363.2)"><line class="sym" x1="0" x2="0" y1="0" y2="-10"/><g class="mut m3"><polyline class="sym" points="2.5,-6.5 0,-1.5 -2.5,-6.5"/></g></g></g></g><g class="plotbox trees"><g class="tree t0" transform="translate(20 0)"><g class="plotbox"><g class="c2 node n38 p0 root" transform="translate(705.732 26.8)"><g class="a38 c2 m0 m1 node n36 p2 s0 s1" transform="translate(-142.268 185.431)"><g class="a36 c2 m3 node n29 p1 s3" transform="translate(126.41 90.0511)"><g class="a29 i15 leaf node n15 p2 sample" transform="translate(43.125 19.1181)"><path class="edge" d="M 0 0 V -19.1181 H -43.125"/><rect class="sym" height="6" width="6" x="-3" y="-3"/><text class="lab" transform="translate(0 11)">15</text></g><g class="a29 c2 node n27 p2" transform="translate(-43.125 7.59578)"><g class="a27 i10 leaf node n10 p2 sample" transform="translate(40.25 11.5224)"><path class="edge" d="M 0 0 V -11.5224 H -40.25"/><rect class="sym" height="6" width="6" x="-3" y="-3"/><text class="lab" transform="translate(0 11)">10</text></g><g class="a27 c2 node n25 p2" transform="translate(-40.25 1.12666)"><g class="a25 i17 leaf node n17 p2 sample" transform="translate(34.5 10.3957)"><path class="edge" d="M 0 0 V -10.3957 H -34.5"/><rect class="sym" height="6" width="6" x="-3" y="-3"/><text class="lab" transform="translate(0 11)">17</text></g><g class="a25 c2 node n22 p1" transform="translate(-34.5 8.04049)"><g class="a22 i4 leaf node n4 p1 sample" transform="translate(-23 2.35521)"><path class="edge" d="M 0 0 V -2.35521 H 23"/><rect class="sym" height="6" width="6" x="-3" y="-3"/><text class="lab" transform="translate(0 11)">4</text></g><g class="a22 i8 leaf node n8 p1 sample" transform="translate(23 2.35521)"><path class="edge" d="M 0 0 V -2.35521 H -23"/><rect class="sym" height="6" width="6" x="-3" y="-3"/><text class="lab" transform="translate(0 11)">8</text></g><path class="edge" d="M 0 0 V -8.04049 H 34.5"/><circle class="sym" cx="0" cy="0" r="3"/><text class="lab lft" transform="translate(-3 -7)">22</text></g><path class="edge" d="M 0 0 V -1.12666 H 40.25"/><circle class="sym" cx="0" cy="0" r="3"/><text class="lab lft" transform="translate(-3 -7)">25</text></g><path class="edge" d="M 0 0 V -7.59578 H 43.125"/><circle class="sym" cx="0" cy="0" r="3"/><text class="lab lft" transform="translate(-3 -7)">27</text></g><path class="edge" d="M 0 0 V -90.0511 H -126.41"/><g class="mut m3 s3" transform="translate(0 -28.1282)"><line x1="0" x2="0" y1="0" y2="28.1282"/><path class="sym" d="M -3,-3 l 6,6 M -3,3 l 6,-6"/><text class="lab rgt" transform="translate(5 0)">3</text></g><circle class="sym" cx="0" cy="0" r="3"/><text class="lab rgt" transform="translate(3 -7)">29</text></g><g class="a36 c2 node n35 p1" transform="translate(-126.41 57.2511)"><g class="a35 i16 leaf node n16 p2 sample" transform="translate(65.9453 51.9181)"><path class="edge" d="M 0 0 V -51.9181 H -65.9453"/><rect class="sym" height="6" width="6" x="-3" y="-3"/><text class="lab" transform="translate(0 11)">16</text></g><g class="a35 c2 node n33 p2" transform="translate(-65.9453 12.1462)"><g class="a33 i13 leaf node n13 p2 sample" transform="translate(85.8906 39.7719)"><path class="edge" d="M 0 0 V -39.7719 H -85.8906"/><rect class="sym" height="6" width="6" x="-3" y="-3"/><text class="lab" transform="translate(0 11)">13</text></g><g class="a33 c2 node n32 p2" transform="translate(-85.8906 0.151613)"><g class="a32 c2 node n24 p2" transform="translate(68.2812 32.0652)"><g class="a24 i1 leaf node n1 p1 sample" transform="translate(-34.5 7.55515)"><path class="edge" d="M 0 0 V -7.55515 H 34.5"/><rect class="sym" height="6" width="6" x="-3" y="-3"/><text class="lab" transform="translate(0 11)">1</text></g><g class="a24 c2 node n23 p2" transform="translate(34.5 3.7591)"><g class="a23 i2 leaf node n2 p1 sample" transform="translate(-23 3.79605)"><path class="edge" d="M 0 0 V -3.79605 H 23"/><rect class="sym" height="6" width="6" x="-3" y="-3"/><text class="lab" transform="translate(0 11)">2</text></g><g class="a23 i6 leaf node n6 p1 sample" transform="translate(23 3.79605)"><path class="edge" d="M 0 0 V -3.79605 H -23"/><rect class="sym" height="6" width="6" x="-3" y="-3"/><text class="lab" transform="translate(0 11)">6</text></g><path class="edge" d="M 0 0 V -3.7591 H -34.5"/><circle class="sym" cx="0" cy="0" r="3"/><text class="lab rgt" transform="translate(3 -7)">23</text></g><path class="edge" d="M 0 0 V -32.0652 H -68.2812"/><circle class="sym" cx="0" cy="0" r="3"/><text class="lab rgt" transform="translate(3 -7)">24</text></g><g class="a32 c2 node n31 p1" transform="translate(-68.2812 16.2442)"><g class="a31 i11 leaf node n11 p2 sample" transform="translate(56.0625 23.3761)"><path class="edge" d="M 0 0 V -23.3761 H -56.0625"/><rect class="sym" height="6" width="6" x="-3" y="-3"/><text class="lab" transform="translate(0 11)">11</text></g><g class="a31 c2 node n30 p1" transform="translate(-56.0625 2.18395)"><g class="a30 i12 leaf node n12 p2 sample" transform="translate(66.125 21.1922)"><path class="edge" d="M 0 0 V -21.1922 H -66.125"/><rect class="sym" height="6" width="6" x="-3" y="-3"/><text class="lab" transform="translate(0 11)">12</text></g><g class="a30 c2 node n28 p2" transform="translate(-66.125 4.3766)"><g class="a28 i0 leaf node n0 p1 sample" transform="translate(-51.75 16.8156)"><path class="edge" d="M 0 0 V -16.8156 H 51.75"/><rect class="sym" height="6" width="6" x="-3" y="-3"/><text class="lab" transform="translate(0 11)">0</text></g><g class="a28 c2 node n26 p2" transform="translate(51.75 5.45476)"><g class="a26 i5 leaf node n5 p1 sample" transform="translate(34.5 11.3608)"><path class="edge" d="M 0 0 V -11.3608 H -34.5"/><rect class="sym" height="6" width="6" x="-3" y="-3"/><text class="lab" transform="translate(0 11)">5</text></g><g class="a26 c2 node n21 p1" transform="translate(-34.5 9.66314)"><g class="a21 i3 leaf node n3 p1 sample" transform="translate(-23 1.69769)"><path class="edge" d="M 0 0 V -1.69769 H 23"/><rect class="sym" height="6" width="6" x="-3" y="-3"/><text class="lab" transform="translate(0 11)">3</text></g><g class="a21 i18 leaf node n18 p2 sample" transform="translate(23 1.69769)"><path class="edge" d="M 0 0 V -1.69769 H -23"/><rect class="sym" height="6" width="6" x="-3" y="-3"/><text class="lab" transform="translate(0 11)">18</text></g><path class="edge" d="M 0 0 V -9.66314 H 34.5"/><circle class="sym" cx="0" cy="0" r="3"/><text class="lab lft" transform="translate(-3 -7)">21</text></g><path class="edge" d="M 0 0 V -5.45476 H -51.75"/><circle class="sym" cx="0" cy="0" r="3"/><text class="lab rgt" transform="translate(3 -7)">26</text></g><path class="edge" d="M 0 0 V -4.3766 H 66.125"/><circle class="sym" cx="0" cy="0" r="3"/><text class="lab lft" transform="translate(-3 -7)">28</text></g><path class="edge" d="M 0 0 V -2.18395 H 56.0625"/><circle class="sym" cx="0" cy="0" r="3"/><text class="lab lft" transform="translate(-3 -7)">30</text></g><path class="edge" d="M 0 0 V -16.2442 H 68.2812"/><circle class="sym" cx="0" cy="0" r="3"/><text class="lab lft" transform="translate(-3 -7)">31</text></g><path class="edge" d="M 0 0 V -0.151613 H 85.8906"/><circle class="sym" cx="0" cy="0" r="3"/><text class="lab lft" transform="translate(-3 -7)">32</text></g><path class="edge" d="M 0 0 V -12.1462 H 65.9453"/><circle class="sym" cx="0" cy="0" r="3"/><text class="lab lft" transform="translate(-3 -7)">33</text></g><path class="edge" d="M 0 0 V -57.2511 H 126.41"/><circle class="sym" cx="0" cy="0" r="3"/><text class="lab lft" transform="translate(-3 -7)">35</text></g><path class="edge" d="M 0 0 V -185.431 H 142.268"/><g class="mut m1 s1" transform="translate(0 -155.071)"><line x1="0" x2="0" y1="0" y2="155.071"/><path class="sym" d="M -3,-3 l 6,6 M -3,3 l 6,-6"/><text class="lab lft" transform="translate(-5 0)">1</text></g><g class="mut m0 s0" transform="translate(0 -64.1338)"><line x1="0" x2="0" y1="0" y2="64.1338"/><path class="sym" d="M -3,-3 l 6,6 M -3,3 l 6,-6"/><text class="lab lft" transform="translate(-5 0)">0</text></g><circle class="sym" cx="0" cy="0" r="3"/><text class="lab lft" transform="translate(-3 -7)">36</text></g><g class="a38 c2 node n37 p2" transform="translate(142.268 166.653)"><g class="a37 c2 node n20 p1" transform="translate(-46 127.82)"><g class="a20 i7 leaf node n7 p1 sample" transform="translate(-23 0.12672)"><path class="edge" d="M 0 0 V -0.12672 H 23"/><rect class="sym" height="6" width="6" x="-3" y="-3"/><text class="lab" transform="translate(0 11)">7</text></g><g class="a20 i9 leaf node n9 p1 sample" transform="translate(23 0.12672)"><path class="edge" d="M 0 0 V -0.12672 H -23"/><rect class="sym" height="6" width="6" x="-3" y="-3"/><text class="lab" transform="translate(0 11)">9</text></g><path class="edge" d="M 0 0 V -127.82 H 46"/><circle class="sym" cx="0" cy="0" r="3"/><text class="lab lft" transform="translate(-3 -7)">20</text></g><g class="a37 c2 m2 node n34 p1 s2" transform="translate(46 78.151)"><g class="a34 i14 leaf node n14 p2 sample" transform="translate(-23 49.7955)"><path class="edge" d="M 0 0 V -49.7955 H 23"/><rect class="sym" height="6" width="6" x="-3" y="-3"/><text class="lab" transform="translate(0 11)">14</text></g><g class="a34 i19 leaf node n19 p2 sample" transform="translate(23 49.7955)"><path class="edge" d="M 0 0 V -49.7955 H -23"/><rect class="sym" height="6" width="6" x="-3" y="-3"/><text class="lab" transform="translate(0 11)">19</text></g><path class="edge" d="M 0 0 V -78.151 H -46"/><g class="mut m2 s2" transform="translate(0 -36.8674)"><line x1="0" x2="0" y1="0" y2="36.8674"/><path class="sym" d="M -3,-3 l 6,6 M -3,3 l 6,-6"/><text class="lab rgt" transform="translate(5 0)">2</text></g><circle class="sym" cx="0" cy="0" r="3"/><text class="lab rgt" transform="translate(3 -7)">34</text></g><path class="edge" d="M 0 0 V -166.653 H -142.268"/><circle class="sym" cx="0" cy="0" r="3"/><text class="lab rgt" transform="translate(3 -7)">37</text></g><circle class="sym" cx="0" cy="0" r="3"/><text class="lab" transform="translate(0 -11)">38</text></g></g></g></g></g></svg>