<svg baseProfile="full" height="400" version="1.1" width="1000" xmlns="http://www.w3.org/2000/svg" xmlns:ev="http://www.w3.org/2001/xml-events" xmlns:xlink="http://www.w3.org/1999/xlink"><defs><style type="text/css"><![CDATA[.background path {fill: #808080; fill-opacity: 0}.background path:nth-child(odd) {fill-opacity: .1}.x-regions rect {fill: yellow; stroke: black; opacity: 0.5}.axes {font-size: 14px}.x-axis .tick .lab {font-weight: bold; dominant-baseline: hanging}.axes, .tree {font-size: 14px; text-anchor: middle}.axes line, .edge {stroke: black; fill: none}.axes .ax-skip {stroke-dasharray: 4}.y-axis .grid {stroke: #FAFAFA}.node > .sym {fill: black; stroke: none}.site > .sym {stroke: black}.mut text {fill: red; font-style: italic}.mut.extra text {fill: hotpink}.mut line {fill: none; stroke: none}.mut .sym {fill: none; stroke: red}.mut.extra .sym {stroke: hotpink}.node .mut .sym {stroke-width: 1.5px}.tree text, .tree-sequence text {dominant-baseline: central}.plotbox .lab.lft {text-anchor: end}.plotbox .lab.rgt {text-anchor: start}.polytomy line {stroke: black; stroke-dasharray: 1px, 1px}.polytomy text {paint-order:stroke;stroke-width:0.3em;stroke:white}]]></style></defs><g class="tree-sequence"><g class="background"><path d="M20,0 l960,0 l0,338.2 l0,25 l0,5 l-960,0 l0,-5 l0,-25 l0,-338.2z"/></g><g class="axes"><g class="x-axis"><g class="title" transform="translate(500 400)"><text class="lab" text-anchor="middle" transform="translate(0 -11)">Genome position</text></g><line class="ax-line" x1="20" x2="980" y1="363.2" y2="363.2"/><g class="ticks"><g class="tick" transform="translate(20 363.2)"><line x1="0" x2="0" y1="0" y2="5"/><g transform="translate(0 6)"><text class="lab">0</text></g></g><g class="tick" transform="translate(980 363.2)"><line x1="0" x2="0" y1="0" y2="5"/><g transform="translate(0 6)"><text class="lab">1000</text></g></g></g><g class="site s0" transform="translate(43.04 363.2)"><line class="sym" x1="0" x2="0" y1="0" y2="-10"/><g class="mut m0"><polyline class="sym" points="2.5,-6.5 0,-1.5 -2.5,-6.5"/></g></g><g class="site s1" transform="translate(102.56 363.2)"><line class="sym" x1="0" x2="0" y1="0" y2="-10"/><g class="mut m1"><polyline class="sym" points="2.5,-6.5 0,-1.5 -2.5,-6.5"/></g></g><g class="site s2" transform="translate(518.24 363.2)"><line class="sym" x1="0" x2="0" y1="0" y2="-10"/><g class="mut m2"><polyline class="sym" points="2.5,-6.5 0,-1.5 -2.5,-6.5"/></g></g><g class="site s3" transform="translate(575.84 363.2)"><line class="sym" x1="0" x2="0" y1="0" y2="-10"/><g class="mut m3"><polyline class="sym" points="2.5,-6.5 0,-1.5 -2.5,-6.5"/></g></g><g class="site s4" transform="translate(717.92 363.2)"><line class="sym" x1="0" x2="0" y1="0" y2="-10"/><g class="mut m4"><polyline class="sym" points="2.5,-6.5 0,-1.5 -2.5,-6.5"/></g></g><g class="site s5" transform="translate(964.64 363.2)"><line class="sym" x1="0" x2="0" y1="0" y2="-10"/><g class="mut m5"><polyline class="sym" points="2.5,-6.5 0,-1.5 -2.5,-6.5"/></g></g></g></g><g class="plotbox trees"><g class="tree t0" transform="translate(20 0)"><g class="plotbox"><g class="c2 node n38 p2 root" transform="translate(649.266 26.8)"><g class="a38 c2 m0 m1 m2 m3 m5 node n27 p1 s0 s1 s2 s3 s5" transform="translate(233.234 287.25)"><g class="a27 i14 leaf node n14 p2 sample" transform="translate(34.5 7.35045)"><path class="edge" d="M 0 0 V -7.35045 H -34.5"/><rect class="sym" height="6" width="6" x="-3" y="-3"/><text class="lab" transform="translate(0 11)">14</text></g><g class="a27 c2 node n21 p1" transform="translate(-34.5 6.76419)"><g class="a21 i4 leaf node n4 p1 sample" transform="translate(-23 0.586264)"><path class="edge" d="M 0 0 V -0.586264 H 23"/><rect class="sym" height="6" width="6" x="-3" y="-3"/><text class="lab" transform="translate(0 11)">4</text></g><g class="a21 i6 leaf node n6 p1 sample" transform="translate(23 0.586264)"><path class="edge" d="M 0 0 V -0.586264 H -23"/><rect class="sym" height="6" width="6" x="-3" y="-3"/><text class="lab" transform="translate(0 11)">6</text></g><path class="edge" d="M 0 0 V -6.76419 H 34.5"/><circle class="sym" cx="0" cy="0" r="3"/><text class="lab lft" transform="translate(-3 -7)">21</text></g><path class="edge" d="M 0 0 V -287.25 H -233.234"/><g class="mut m2 s2" transform="translate(0 -285.756)"><line x1="0" x2="0" y1="0" y2="285.756"/><path class="sym" d="M -3,-3 l 6,6 M -3,3 l 6,-6"/><text class="lab rgt" transform="translate(5 0)">2</text></g><g class="mut m1 s1" transform="translate(0 -159.018)"><line x1="0" x2="0" y1="0" y2="159.018"/><path class="sym" d="M -3,-3 l 6,6 M -3,3 l 6,-6"/><text class="lab rgt" transform="translate(5 0)">1</text></g><g class="mut m0 s0" transform="translate(0 -121.088)"><line x1="0" x2="0" y1="0" y2="121.088"/><path class="sym" d="M -3,-3 l 6,6 M -3,3 l 6,-6"/><text class="lab rgt" transform="translate(5 0)">0</text></g><g class="mut m5 s5" transform="translate(0 -92.394)"><line x1="0" x2="0" y1="0" y2="92.394"/><path class="sym" d="M -3,-3 l 6,6 M -3,3 l 6,-6"/><text class="lab rgt" transform="translate(5 0)">5</text></g><g class="mut m3 s3" transform="translate(0 -72.0299)"><line x1="0" x2="0" y1="0" y2="72.0299"/><path class="sym" d="M -3,-3 l 6,6 M -3,3 l 6,-6"/><text class="lab rgt" transform="translate(5 0)">3</text></g><circle class="sym" cx="0" cy="0" r="3"/><text class="lab rgt" transform="translate(3 -7)">27</text></g><g class="a38 c2 node n37 p1" transform="translate(-233.234 206.703)"><g class="a37 c2 node n34 p1" transform="translate(-223.531 40.2905)"><g class="a34 c2 node n31 p2" transform="translate(115 27.2547)"><g class="a31 i19 leaf node n19 p2 sample" transform="translate(57.5 20.3514)"><path class="edge" d="M 0 0 V -20.3514 H -57.5"/><rect class="sym" height="6" width="6" x="-3" y="-3"/><text class="lab" transform="translate(0 11)">19</text></g><g class="a31 c2 node n29 p2" transform="translate(-57.5 10.073)"><g class="a29 c2 node n20 p1" transform="translate(46 9.91821)"><g class="a20 i9 leaf node n9 p1 sample" transform="translate(-23 0.3602)"><path class="edge" d="M 0 0 V -0.3602 H 23"/><rect class="sym" height="6" width="6" x="-3" y="-3"/><text class="lab" transform="translate(0 11)">9</text></g><g class="a20 i11 leaf node n11 p2 sample" transform="translate(23 0.3602)"><path class="edge" d="M 0 0 V -0.3602 H -23"/><rect class="sym" height="6" width="6" x="-3" y="-3"/><text class="lab" transform="translate(0 11)">11</text></g><path class="edge" d="M 0 0 V -9.91821 H -46"/><circle class="sym" cx="0" cy="0" r="3"/><text class="lab rgt" transform="translate(3 -7)">20</text></g><g class="a29 c2 node n25 p2" transform="translate(-46 3.24358)"><g class="a25 i7 leaf node n7 p1 sample" transform="translate(-23 7.03483)"><path class="edge" d="M 0 0 V -7.03483 H 23"/><rect class="sym" height="6" width="6" x="-3" y="-3"/><text class="lab" transform="translate(0 11)">7</text></g><g class="a25 i8 leaf node n8 p1 sample" transform="translate(23 7.03483)"><path class="edge" d="M 0 0 V -7.03483 H -23"/><rect class="sym" height="6" width="6" x="-3" y="-3"/><text class="lab" transform="translate(0 11)">8</text></g><path class="edge" d="M 0 0 V -3.24358 H 46"/><circle class="sym" cx="0" cy="0" r="3"/><text class="lab lft" transform="translate(-3 -7)">25</text></g><path class="edge" d="M 0 0 V -10.073 H 57.5"/><circle class="sym" cx="0" cy="0" r="3"/><text class="lab lft" transform="translate(-3 -7)">29</text></g><path class="edge" d="M 0 0 V -27.2547 H -115"/><circle class="sym" cx="0" cy="0" r="3"/><text class="lab rgt" transform="translate(3 -7)">31</text></g><g class="a34 c2 node n33 p2" transform="translate(-115 24.16)"><g class="a33 i0 leaf node n0 p1 sample" transform="translate(-34.5 23.4461)"><path class="edge" d="M 0 0 V -23.4461 H 34.5"/><rect class="sym" height="6" width="6" x="-3" y="-3"/><text class="lab" transform="translate(0 11)">0</text></g><g class="a33 c2 node n30 p2" transform="translate(34.5 7.14063)"><g class="a30 i10 leaf node n10 p2 sample" transform="translate(-23 16.3055)"><path class="edge" d="M 0 0 V -16.3055 H 23"/><rect class="sym" height="6" width="6" x="-3" y="-3"/><text class="lab" transform="translate(0 11)">10</text></g><g class="a30 i15 leaf node n15 p2 sample" transform="translate(23 16.3055)"><path class="edge" d="M 0 0 V -16.3055 H -23"/><rect class="sym" height="6" width="6" x="-3" y="-3"/><text class="lab" transform="translate(0 11)">15</text></g><path class="edge" d="M 0 0 V -7.14063 H -34.5"/><circle class="sym" cx="0" cy="0" r="3"/><text class="lab rgt" transform="translate(3 -7)">30</text></g><path class="edge" d="M 0 0 V -24.16 H 115"/><circle class="sym" cx="0" cy="0" r="3"/><text class="lab lft" transform="translate(-3 -7)">33</text></g><path class="edge" d="M 0 0 V -40.2905 H 223.531"/><circle class="sym" cx="0" cy="0" r="3"/><text class="lab lft" transform="translate(-3 -7)">34</text></g><g class="a37 c2 node n36 p2" transform="translate(223.531 32.2086)"><g class="a36 c2 node n32 p1" transform="translate(104.938 33.4603)"><g class="a32 i13 leaf node n13 p2 sample" transform="translate(34.5 22.2277)"><path class="edge" d="M 0 0 V -22.2277 H -34.5"/><rect class="sym" height="6" width="6" x="-3" y="-3"/><text class="lab" transform="translate(0 11)">13</text></g><g class="a32 c2 node n26 p1" transform="translate(-34.5 15.131)"><g class="a26 i3 leaf node n3 p1 sample" transform="translate(-23 7.09666)"><path class="edge" d="M 0 0 V -7.09666 H 23"/><rect class="sym" height="6" width="6" x="-3" y="-3"/><text class="lab" transform="translate(0 11)">3</text></g><g class="a26 i12 leaf node n12 p2 sample" transform="translate(23 7.09666)"><path class="edge" d="M 0 0 V -7.09666 H -23"/><rect class="sym" height="6" width="6" x="-3" y="-3"/><text class="lab" transform="translate(0 11)">12</text></g><path class="edge" d="M 0 0 V -15.131 H 34.5"/><circle class="sym" cx="0" cy="0" r="3"/><text class="lab lft" transform="translate(-3 -7)">26</text></g><path class="edge" d="M 0 0 V -33.4603 H -104.938"/><circle class="sym" cx="0" cy="0" r="3"/><text class="lab rgt" transform="translate(3 -7)">32</text></g><g class="a36 c2 node n35 p2" transform="translate(-104.938 5.41129)"><g class="a35 c2 node n22 p1" transform="translate(83.375 48.2512)"><g class="a22 i2 leaf node n2 p1 sample" transform="translate(-23 2.02555)"><path class="edge" d="M 0 0 V -2.02555 H 23"/><rect class="sym" height="6" width="6" x="-3" y="-3"/><text class="lab" transform="translate(0 11)">2</text></g><g class="a22 i18 leaf node n18 p2 sample" transform="translate(23 2.02555)"><path class="edge" d="M 0 0 V -2.02555 H -23"/><rect class="sym" height="6" width="6" x="-3" y="-3"/><text class="lab" transform="translate(0 11)">18</text></g><path class="edge" d="M 0 0 V -48.2512 H -83.375"/><circle class="sym" cx="0" cy="0" r="3"/><text class="lab rgt" transform="translate(3 -7)">22</text></g><g class="a35 c2 m4 node n28 p2 s4" transform="translate(-83.375 40.4963)"><g class="a28 i1 leaf node n1 p1 sample" transform="translate(-40.25 9.78041)"><path class="edge" d="M 0 0 V -9.78041 H 40.25"/><rect class="sym" height="6" width="6" x="-3" y="-3"/><text class="lab" transform="translate(0 11)">1</text></g><g class="a28 c2 node n24 p1" transform="translate(40.25 3.73772)"><g class="a24 i5 leaf node n5 p1 sample" transform="translate(-34.5 6.04269)"><path class="edge" d="M 0 0 V -6.04269 H 34.5"/><rect class="sym" height="6" width="6" x="-3" y="-3"/><text class="lab" transform="translate(0 11)">5</text></g><g class="a24 c2 node n23 p1" transform="translate(34.5 1.56661)"><g class="a23 i16 leaf node n16 p2 sample" transform="translate(-23 4.47608)"><path class="edge" d="M 0 0 V -4.47608 H 23"/><rect class="sym" height="6" width="6" x="-3" y="-3"/><text class="lab" transform="translate(0 11)">16</text></g><g class="a23 i17 leaf node n17 p2 sample" transform="translate(23 4.47608)"><path class="edge" d="M 0 0 V -4.47608 H -23"/><rect class="sym" height="6" width="6" x="-3" y="-3"/><text class="lab" transform="translate(0 11)">17</text></g><path class="edge" d="M 0 0 V -1.56661 H -34.5"/><circle class="sym" cx="0" cy="0" r="3"/><text class="lab rgt" transform="translate(3 -7)">23</text></g><path class="edge" d="M 0 0 V -3.73772 H -40.25"/><circle class="sym" cx="0" cy="0" r="3"/><text class="lab rgt" transform="translate(3 -7)">24</text></g><path class="edge" d="M 0 0 V -40.4963 H 83.375"/><g class="mut m4 s4" transform="translate(0 -16.0303)"><line x1="0" x2="0" y1="0" y2="16.0303"/><path class="sym" d="M -3,-3 l 6,6 M -3,3 l 6,-6"/><text class="lab lft" transform="translate(-5 0)">4</text></g><circle class="sym" cx="0" cy="0" r="3"/><text class="lab lft" transform="translate(-3 -7)">28</text></g><path class="edge" d="M 0 0 V -5.41129 H 104.938"/><circle class="sym" cx="0" cy="0" r="3"/><text class="lab lft" transform="translate(-3 -7)">35</text></g><path class="edge" d="M 0 0 V -32.2086 H -223.531"/><circle class="sym" cx="0" cy="0" r="3"/><text class="lab rgt" transform="translate(3 -7)">36</text></g><path class="edge" d="M 0 0 V -206.703 H 233.234"/><circle class="sym" cx="0" cy="0" r="3"/><text class="lab lft" transform="translate(-3 -7)">37</text></g><circle class="sym" cx="0" cy="0" r="3"/><text class="lab" transform="translate(0 -11)">38</text></g></g></g></g></g></svg>