<svg baseProfile="full" height="400" version="1.1" width="1000" xmlns="http://www.w3.org/2000/svg" xmlns:ev="http://www.w3.org/2001/xml-events" xmlns:xlink="http://www.w3.org/1999/xlink"><defs><style type="text/css"><![CDATA[.background path {fill: #808080; fill-opacity: 0}.background path:nth-child(odd) {fill-opacity: .1}.x-regions rect {fill: yellow; stroke: black; opacity: 0.5}.axes {font-size: 14px}.x-axis .tick .lab {font-weight: bold; dominant-baseline: hanging}.axes, .tree {font-size: 14px; text-anchor: middle}.axes line, .edge {stroke: black; fill: none}.axes .ax-skip {stroke-dasharray: 4}.y-axis .grid {stroke: #FAFAFA}.node > .sym {fill: black; stroke: none}.site > .sym {stroke: black}.mut text {fill: red; font-style: italic}.mut.extra text {fill: hotpink}.mut line {fill: none; stroke: none}.mut .sym {fill: none; stroke: red}.mut.extra .sym {stroke: hotpink}.node .mut .sym {stroke-width: 1.5px}.tree text, .tree-sequence text {dominant-baseline: central}.plotbox .lab.lft {text-anchor: end}.plotbox .lab.rgt {text-anchor: start}.polytomy line {stroke: black; stroke-dasharray: 1px, 1px}.polytomy text {paint-order:stroke;stroke-width:0.3em;stroke:white}]]></style></defs><g class="tree-sequence"><g class="background"><path d="M20,0 l960,0 l0,338.2 l0,25 l0,5 l-960,0 l0,-5 l0,-25 l0,-338.2z"/></g><g class="axes"><g class="x-axis"><g class="title" transform="translate(500 400)"><text class="lab" text-anchor="middle" transform="translate(0 -11)">Genome position</text></g><line class="ax-line" x1="20" x2="980" y1="363.2" y2="363.2"/><g class="ticks"><g class="tick" transform="translate(20 363.2)"><line x1="0" x2="0" y1="0" y2="5"/><g transform="translate(0 6)"><text class="lab">0</text></g></g><g class="tick" transform="translate(980 363.2)"><line x1="0" x2="0" y1="0" y2="5"/><g transform="translate(0 6)"><text class="lab">1000</text></g></g></g><g class="site s0" transform="translate(39.2 363.2)"><line class="sym" x1="0" x2="0" y1="0" y2="-10"/><g class="mut m0"><polyline class="sym" points="2.5,-6.5 0,-1.5 -2.5,-6.5"/></g></g><g class="site s1" transform="translate(458.72 363.2)"><line class="sym" x1="0" x2="0" y1="0" y2="-10"/><g class="mut m1"><polyline class="sym" points="2.5,-6.5 0,-1.5 -2.5,-6.5"/></g></g><g class="site s2" transform="translate(801.44 363.2)"><line class="sym" x1="0" x2="0" y1="0" y2="-10"/><g class="mut m2"><polyline class="sym" points="2.5,-6.5 0,-1.5 -2.5,-6.5"/></g></g><g class="site s3" transform="translate(949.28 363.2)"><line class="sym" x1="0" x2="0" y1="0" y2="-10"/><g class="mut m3"><polyline class="sym" points="2.5,-6.5 0,-1.5 -2.5,-6.5"/></g></g></g></g><g class="plotbox trees"><g class="tree t0" transform="translate(20 0)"><g class="plotbox"><g class="c2 node n38 p1 root" transform="translate(560.5 26.8)"><g class="a38 c2 m2 node n33 p1 s2" transform="translate(-299 267.251)"><g class="a33 c2 node n31 p1" transform="translate(-80.5 5.30638)"><g class="a31 c2 node n22 p1" transform="translate(69 19.4272)"><g class="a22 i10 leaf node n10 p2 sample" transform="translate(-23 2.61593)"><path class="edge" d="M 0 0 V -2.61593 H 23"/><rect class="sym" height="6" width="6" x="-3" y="-3"/><text class="lab" transform="translate(0 11)">10</text></g><g class="a22 i15 leaf node n15 p2 sample" transform="translate(23 2.61593)"><path class="edge" d="M 0 0 V -2.61593 H -23"/><rect class="sym" height="6" width="6" x="-3" y="-3"/><text class="lab" transform="translate(0 11)">15</text></g><path class="edge" d="M 0 0 V -19.4272 H -69"/><circle class="sym" cx="0" cy="0" r="3"/><text class="lab rgt" transform="translate(3 -7)">22</text></g><g class="a31 c2 node n28 p2" transform="translate(-69 12.6044)"><g class="a28 c2 node n25 p1" transform="translate(-46 3.22297)"><g class="a25 i0 leaf node n0 p1 sample" transform="translate(-23 6.21576)"><path class="edge" d="M 0 0 V -6.21576 H 23"/><rect class="sym" height="6" width="6" x="-3" y="-3"/><text class="lab" transform="translate(0 11)">0</text></g><g class="a25 i8 leaf node n8 p1 sample" transform="translate(23 6.21576)"><path class="edge" d="M 0 0 V -6.21576 H -23"/><rect class="sym" height="6" width="6" x="-3" y="-3"/><text class="lab" transform="translate(0 11)">8</text></g><path class="edge" d="M 0 0 V -3.22297 H 46"/><circle class="sym" cx="0" cy="0" r="3"/><text class="lab lft" transform="translate(-3 -7)">25</text></g><g class="a28 c2 node n27 p2" transform="translate(46 2.13782)"><g class="a27 i13 leaf node n13 p2 sample" transform="translate(-23 7.30091)"><path class="edge" d="M 0 0 V -7.30091 H 23"/><rect class="sym" height="6" width="6" x="-3" y="-3"/><text class="lab" transform="translate(0 11)">13</text></g><g class="a27 i18 leaf node n18 p2 sample" transform="translate(23 7.30091)"><path class="edge" d="M 0 0 V -7.30091 H -23"/><rect class="sym" height="6" width="6" x="-3" y="-3"/><text class="lab" transform="translate(0 11)">18</text></g><path class="edge" d="M 0 0 V -2.13782 H -46"/><circle class="sym" cx="0" cy="0" r="3"/><text class="lab rgt" transform="translate(3 -7)">27</text></g><path class="edge" d="M 0 0 V -12.6044 H 69"/><circle class="sym" cx="0" cy="0" r="3"/><text class="lab lft" transform="translate(-3 -7)">28</text></g><path class="edge" d="M 0 0 V -5.30638 H 80.5"/><circle class="sym" cx="0" cy="0" r="3"/><text class="lab lft" transform="translate(-3 -7)">31</text></g><g class="a33 c2 node n32 p2" transform="translate(80.5 4.74077)"><g class="a32 i6 leaf node n6 p1 sample" transform="translate(-23 22.6087)"><path class="edge" d="M 0 0 V -22.6087 H 23"/><rect class="sym" height="6" width="6" x="-3" y="-3"/><text class="lab" transform="translate(0 11)">6</text></g><g class="a32 i12 leaf node n12 p2 sample" transform="translate(23 22.6087)"><path class="edge" d="M 0 0 V -22.6087 H -23"/><rect class="sym" height="6" width="6" x="-3" y="-3"/><text class="lab" transform="translate(0 11)">12</text></g><path class="edge" d="M 0 0 V -4.74077 H -80.5"/><circle class="sym" cx="0" cy="0" r="3"/><text class="lab rgt" transform="translate(3 -7)">32</text></g><path class="edge" d="M 0 0 V -267.251 H 299"/><g class="mut m2 s2" transform="translate(0 -65.7372)"><line x1="0" x2="0" y1="0" y2="65.7372"/><path class="sym" d="M -3,-3 l 6,6 M -3,3 l 6,-6"/><text class="lab lft" transform="translate(-5 0)">2</text></g><circle class="sym" cx="0" cy="0" r="3"/><text class="lab lft" transform="translate(-3 -7)">33</text></g><g class="a38 c2 m0 m3 node n37 p1 s0 s3" transform="translate(299 220.682)"><g class="a37 i14 leaf m1 node n14 p2 s1 sample" transform="translate(57.5 73.9177)"><path class="edge" d="M 0 0 V -73.9177 H -57.5"/><g class="mut m1 s1" transform="translate(0 -40.3964)"><line x1="0" x2="0" y1="0" y2="40.3964"/><path class="sym" d="M -3,-3 l 6,6 M -3,3 l 6,-6"/><text class="lab rgt" transform="translate(5 0)">1</text></g><rect class="sym" height="6" width="6" x="-3" y="-3"/><text class="lab" transform="translate(0 11)">14</text></g><g class="a37 c2 node n36 p2" transform="translate(-57.5 30.9279)"><g class="a36 i4 leaf node n4 p1 sample" transform="translate(69 42.9897)"><path class="edge" d="M 0 0 V -42.9897 H -69"/><rect class="sym" height="6" width="6" x="-3" y="-3"/><text class="lab" transform="translate(0 11)">4</text></g><g class="a36 c2 node n35 p2" transform="translate(-69 2.49918)"><g class="a35 i19 leaf node n19 p2 sample" transform="translate(92 40.4906)"><path class="edge" d="M 0 0 V -40.4906 H -92"/><rect class="sym" height="6" width="6" x="-3" y="-3"/><text class="lab" transform="translate(0 11)">19</text></g><g class="a35 c2 node n34 p2" transform="translate(-92 5.79817)"><g class="a34 c2 node n26 p1" transform="translate(103.5 27.4716)"><g class="a26 i16 leaf node n16 p2 sample" transform="translate(34.5 7.22084)"><path class="edge" d="M 0 0 V -7.22084 H -34.5"/><rect class="sym" height="6" width="6" x="-3" y="-3"/><text class="lab" transform="translate(0 11)">16</text></g><g class="a26 c2 node n20 p2" transform="translate(-34.5 6.65185)"><g class="a20 i9 leaf node n9 p1 sample" transform="translate(-23 0.568985)"><path class="edge" d="M 0 0 V -0.568985 H 23"/><rect class="sym" height="6" width="6" x="-3" y="-3"/><text class="lab" transform="translate(0 11)">9</text></g><g class="a20 i17 leaf node n17 p2 sample" transform="translate(23 0.568985)"><path class="edge" d="M 0 0 V -0.568985 H -23"/><rect class="sym" height="6" width="6" x="-3" y="-3"/><text class="lab" transform="translate(0 11)">17</text></g><path class="edge" d="M 0 0 V -6.65185 H 34.5"/><circle class="sym" cx="0" cy="0" r="3"/><text class="lab lft" transform="translate(-3 -7)">20</text></g><path class="edge" d="M 0 0 V -27.4716 H -103.5"/><circle class="sym" cx="0" cy="0" r="3"/><text class="lab rgt" transform="translate(3 -7)">26</text></g><g class="a34 c2 node n30 p1" transform="translate(-103.5 22.9742)"><g class="a30 c2 node n23 p1" transform="translate(69 7.02837)"><g class="a23 i11 leaf node n11 p2 sample" transform="translate(34.5 4.68985)"><path class="edge" d="M 0 0 V -4.68985 H -34.5"/><rect class="sym" height="6" width="6" x="-3" y="-3"/><text class="lab" transform="translate(0 11)">11</text></g><g class="a23 c2 node n21 p2" transform="translate(-34.5 3.52809)"><g class="a21 i2 leaf node n2 p1 sample" transform="translate(-23 1.16176)"><path class="edge" d="M 0 0 V -1.16176 H 23"/><rect class="sym" height="6" width="6" x="-3" y="-3"/><text class="lab" transform="translate(0 11)">2</text></g><g class="a21 i7 leaf node n7 p1 sample" transform="translate(23 1.16176)"><path class="edge" d="M 0 0 V -1.16176 H -23"/><rect class="sym" height="6" width="6" x="-3" y="-3"/><text class="lab" transform="translate(0 11)">7</text></g><path class="edge" d="M 0 0 V -3.52809 H 34.5"/><circle class="sym" cx="0" cy="0" r="3"/><text class="lab lft" transform="translate(-3 -7)">21</text></g><path class="edge" d="M 0 0 V -7.02837 H -69"/><circle class="sym" cx="0" cy="0" r="3"/><text class="lab rgt" transform="translate(3 -7)">23</text></g><g class="a30 c2 node n29 p2" transform="translate(-69 0.325026)"><g class="a29 i5 leaf node n5 p1 sample" transform="translate(34.5 11.3932)"><path class="edge" d="M 0 0 V -11.3932 H -34.5"/><rect class="sym" height="6" width="6" x="-3" y="-3"/><text class="lab" transform="translate(0 11)">5</text></g><g class="a29 c2 node n24 p1" transform="translate(-34.5 5.52775)"><g class="a24 i1 leaf node n1 p1 sample" transform="translate(-23 5.86544)"><path class="edge" d="M 0 0 V -5.86544 H 23"/><rect class="sym" height="6" width="6" x="-3" y="-3"/><text class="lab" transform="translate(0 11)">1</text></g><g class="a24 i3 leaf node n3 p1 sample" transform="translate(23 5.86544)"><path class="edge" d="M 0 0 V -5.86544 H -23"/><rect class="sym" height="6" width="6" x="-3" y="-3"/><text class="lab" transform="translate(0 11)">3</text></g><path class="edge" d="M 0 0 V -5.52775 H 34.5"/><circle class="sym" cx="0" cy="0" r="3"/><text class="lab lft" transform="translate(-3 -7)">24</text></g><path class="edge" d="M 0 0 V -0.325026 H 69"/><circle class="sym" cx="0" cy="0" r="3"/><text class="lab lft" transform="translate(-3 -7)">29</text></g><path class="edge" d="M 0 0 V -22.9742 H 103.5"/><circle class="sym" cx="0" cy="0" r="3"/><text class="lab lft" transform="translate(-3 -7)">30</text></g><path class="edge" d="M 0 0 V -5.79817 H 92"/><circle class="sym" cx="0" cy="0" r="3"/><text class="lab lft" transform="translate(-3 -7)">34</text></g><path class="edge" d="M 0 0 V -2.49918 H 69"/><circle class="sym" cx="0" cy="0" r="3"/><text class="lab lft" transform="translate(-3 -7)">35</text></g><path class="edge" d="M 0 0 V -30.9279 H 57.5"/><circle class="sym" cx="0" cy="0" r="3"/><text class="lab lft" transform="translate(-3 -7)">36</text></g><path class="edge" d="M 0 0 V -220.682 H -299"/><g class="mut m0 s0" transform="translate(0 -138.053)"><line x1="0" x2="0" y1="0" y2="138.053"/><path class="sym" d="M -3,-3 l 6,6 M -3,3 l 6,-6"/><text class="lab rgt" transform="translate(5 0)">0</text></g><g class="mut m3 s3" transform="translate(0 -135.115)"><line x1="0" x2="0" y1="0" y2="135.115"/><path class="sym" d="M -3,-3 l 6,6 M -3,3 l 6,-6"/><text class="lab rgt" transform="translate(5 0)">3</text></g><circle class="sym" cx="0" cy="0" r="3"/><text class="lab rgt" transform="translate(3 -7)">37</text></g><circle class="sym" cx="0" cy="0" r="3"/><text class="lab" transform="translate(0 -11)">38</text></g></g></g></g></g></svg>