<svg baseProfile="full" height="400" version="1.1" width="1000" xmlns="http://www.w3.org/2000/svg" xmlns:ev="http://www.w3.org/2001/xml-events" xmlns:xlink="http://www.w3.org/1999/xlink"><defs><style type="text/css"><![CDATA[.background path {fill: #808080; fill-opacity: 0}.background path:nth-child(odd) {fill-opacity: .1}.x-regions rect {fill: yellow; stroke: black; opacity: 0.5}.axes {font-size: 14px}.x-axis .tick .lab {font-weight: bold; dominant-baseline: hanging}.axes, .tree {font-size: 14px; text-anchor: middle}.axes line, .edge {stroke: black; fill: none}.axes .ax-skip {stroke-dasharray: 4}.y-axis .grid {stroke: #FAFAFA}.node > .sym {fill: black; stroke: none}.site > .sym {stroke: black}.mut text {fill: red; font-style: italic}.mut.extra text {fill: hotpink}.mut line {fill: none; stroke: none}.mut .sym {fill: none; stroke: red}.mut.extra .sym {stroke: hotpink}.node .mut .sym {stroke-width: 1.5px}.tree text, .tree-sequence text {dominant-baseline: central}.plotbox .lab.lft {text-anchor: end}.plotbox .lab.rgt {text-anchor: start}.polytomy line {stroke: black; stroke-dasharray: 1px, 1px}.polytomy text {paint-order:stroke;stroke-width:0.3em;stroke:white}]]></style></defs><g class="tree-sequence"><g class="background"><path d="M20,0 l960,0 l0,338.2 l0,25 l0,5 l-960,0 l0,-5 l0,-25 l0,-338.2z"/></g><g class="axes"><g class="x-axis"><g class="title" transform="translate(500 400)"><text class="lab" text-anchor="middle" transform="translate(0 -11)">Genome position</text></g><line class="ax-line" x1="20" x2="980" y1="363.2" y2="363.2"/><g class="ticks"><g class="tick" transform="translate(20 363.2)"><line x1="0" x2="0" y1="0" y2="5"/><g transform="translate(0 6)"><text class="lab">0</text></g></g><g class="tick" transform="translate(980 363.2)"><line x1="0" x2="0" y1="0" y2="5"/><g transform="translate(0 6)"><text class="lab">1000</text></g></g></g><g class="site s0" transform="translate(63.2 363.2)"><line class="sym" x1="0" x2="0" y1="0" y2="-10"/><g class="mut m0"><polyline class="sym" points="2.5,-6.5 0,-1.5 -2.5,-6.5"/></g></g><g class="site s1" transform="translate(427.04 363.2)"><line class="sym" x1="0" x2="0" y1="0" y2="-10"/><g class="mut m1"><polyline class="sym" points="2.5,-6.5 0,-1.5 -2.5,-6.5"/></g></g><g class="site s2" transform="translate(496.16 363.2)"><line class="sym" x1="0" x2="0" y1="0" y2="-10"/><g class="mut m2"><polyline class="sym" points="2.5,-6.5 0,-1.5 -2.5,-6.5"/></g></g><g class="site s3" transform="translate(890.72 363.2)"><line class="sym" x1="0" x2="0" y1="0" y2="-10"/><g class="mut m3"><polyline class="sym" points="2.5,-6.5 0,-1.5 -2.5,-6.5"/></g></g></g></g><g class="plotbox trees"><g class="tree t0" transform="translate(20 0)"><g class="plotbox"><g class="c2 node n38 p1 root" transform="translate(713.74 26.8)"><g class="a38 c2 m3 node n36 p2 s3" transform="translate(-105.51 225.857)"><g class="a36 c2 node n29 p2" transform="translate(101.771 58.394)"><g class="a29 i3 leaf node n3 p1 sample" transform="translate(-23 10.3494)"><path class="edge" d="M 0 0 V -10.3494 H 23"/><rect class="sym" height="6" width="6" x="-3" y="-3"/><text class="lab" transform="translate(0 11)">3</text></g><g class="a29 i12 leaf node n12 p2 sample" transform="translate(23 10.3494)"><path class="edge" d="M 0 0 V -10.3494 H -23"/><rect class="sym" height="6" width="6" x="-3" y="-3"/><text class="lab" transform="translate(0 11)">12</text></g><path class="edge" d="M 0 0 V -58.394 H -101.771"/><circle class="sym" cx="0" cy="0" r="3"/><text class="lab rgt" transform="translate(3 -7)">29</text></g><g class="a36 c2 node n35 p2" transform="translate(-101.771 3.92673)"><g class="a35 c2 node n23 p2" transform="translate(111.541 61.7647)"><g class="a23 i4 leaf node n4 p1 sample" transform="translate(-23 3.05194)"><path class="edge" d="M 0 0 V -3.05194 H 23"/><rect class="sym" height="6" width="6" x="-3" y="-3"/><text class="lab" transform="translate(0 11)">4</text></g><g class="a23 i6 leaf node n6 p1 sample" transform="translate(23 3.05194)"><path class="edge" d="M 0 0 V -3.05194 H -23"/><rect class="sym" height="6" width="6" x="-3" y="-3"/><text class="lab" transform="translate(0 11)">6</text></g><path class="edge" d="M 0 0 V -61.7647 H -111.541"/><circle class="sym" cx="0" cy="0" r="3"/><text class="lab rgt" transform="translate(3 -7)">23</text></g><g class="a35 c2 node n33 p1" transform="translate(-111.541 32.3618)"><g class="a33 i13 leaf node n13 p2 sample" transform="translate(154.082 32.4549)"><path class="edge" d="M 0 0 V -32.4549 H -154.082"/><rect class="sym" height="6" width="6" x="-3" y="-3"/><text class="lab" transform="translate(0 11)">13</text></g><g class="a33 c2 m1 node n32 p1 s1" transform="translate(-154.082 7.94049)"><g class="a32 i0 leaf m2 node n0 p1 s2 sample" transform="translate(-197.836 24.5144)"><path class="edge" d="M 0 0 V -24.5144 H 197.836"/><g class="mut m2 s2" transform="translate(0 -16.6064)"><line x1="0" x2="0" y1="0" y2="16.6064"/><path class="sym" d="M -3,-3 l 6,6 M -3,3 l 6,-6"/><text class="lab lft" transform="translate(-5 0)">2</text></g><rect class="sym" height="6" width="6" x="-3" y="-3"/><text class="lab" transform="translate(0 11)">0</text></g><g class="a32 c2 node n31 p1" transform="translate(197.836 6.75777)"><g class="a31 i7 leaf node n7 p1 sample" transform="translate(64.3281 17.7566)"><path class="edge" d="M 0 0 V -17.7566 H -64.3281"/><rect class="sym" height="6" width="6" x="-3" y="-3"/><text class="lab" transform="translate(0 11)">7</text></g><g class="a31 c2 node n30 p1" transform="translate(-64.3281 2.116)"><g class="a30 i10 leaf node n10 p2 sample" transform="translate(82.6562 15.6406)"><path class="edge" d="M 0 0 V -15.6406 H -82.6562"/><rect class="sym" height="6" width="6" x="-3" y="-3"/><text class="lab" transform="translate(0 11)">10</text></g><g class="a30 c2 node n27 p1" transform="translate(-82.6562 9.02281)"><g class="a27 c2 node n25 p2" transform="translate(61.8125 2.75243)"><g class="a25 i2 leaf node n2 p1 sample" transform="translate(-34.5 3.86539)"><path class="edge" d="M 0 0 V -3.86539 H 34.5"/><rect class="sym" height="6" width="6" x="-3" y="-3"/><text class="lab" transform="translate(0 11)">2</text></g><g class="a25 c2 node n21 p2" transform="translate(34.5 2.53707)"><g class="a21 i14 leaf node n14 p2 sample" transform="translate(-23 1.32831)"><path class="edge" d="M 0 0 V -1.32831 H 23"/><rect class="sym" height="6" width="6" x="-3" y="-3"/><text class="lab" transform="translate(0 11)">14</text></g><g class="a21 i16 leaf node n16 p2 sample" transform="translate(23 1.32831)"><path class="edge" d="M 0 0 V -1.32831 H -23"/><rect class="sym" height="6" width="6" x="-3" y="-3"/><text class="lab" transform="translate(0 11)">16</text></g><path class="edge" d="M 0 0 V -2.53707 H -34.5"/><circle class="sym" cx="0" cy="0" r="3"/><text class="lab rgt" transform="translate(3 -7)">21</text></g><path class="edge" d="M 0 0 V -2.75243 H -61.8125"/><circle class="sym" cx="0" cy="0" r="3"/><text class="lab rgt" transform="translate(3 -7)">25</text></g><g class="a27 c2 node n26 p1" transform="translate(-61.8125 2.53031)"><g class="a26 i17 leaf node n17 p2 sample" transform="translate(43.125 4.08751)"><path class="edge" d="M 0 0 V -4.08751 H -43.125"/><rect class="sym" height="6" width="6" x="-3" y="-3"/><text class="lab" transform="translate(0 11)">17</text></g><g class="a26 c2 node n24 p1" transform="translate(-43.125 0.820766)"><g class="a24 i18 leaf node n18 p2 sample" transform="translate(40.25 3.26674)"><path class="edge" d="M 0 0 V -3.26674 H -40.25"/><rect class="sym" height="6" width="6" x="-3" y="-3"/><text class="lab" transform="translate(0 11)">18</text></g><g class="a24 c2 node n22 p2" transform="translate(-40.25 1.83968)"><g class="a22 i9 leaf node n9 p1 sample" transform="translate(34.5 1.42706)"><path class="edge" d="M 0 0 V -1.42706 H -34.5"/><rect class="sym" height="6" width="6" x="-3" y="-3"/><text class="lab" transform="translate(0 11)">9</text></g><g class="a22 c2 node n20 p1" transform="translate(-34.5 1.19352)"><g class="a20 i1 leaf node n1 p1 sample" transform="translate(-23 0.233539)"><path class="edge" d="M 0 0 V -0.233539 H 23"/><rect class="sym" height="6" width="6" x="-3" y="-3"/><text class="lab" transform="translate(0 11)">1</text></g><g class="a20 i8 leaf node n8 p1 sample" transform="translate(23 0.233539)"><path class="edge" d="M 0 0 V -0.233539 H -23"/><rect class="sym" height="6" width="6" x="-3" y="-3"/><text class="lab" transform="translate(0 11)">8</text></g><path class="edge" d="M 0 0 V -1.19352 H 34.5"/><circle class="sym" cx="0" cy="0" r="3"/><text class="lab lft" transform="translate(-3 -7)">20</text></g><path class="edge" d="M 0 0 V -1.83968 H 40.25"/><circle class="sym" cx="0" cy="0" r="3"/><text class="lab lft" transform="translate(-3 -7)">22</text></g><path class="edge" d="M 0 0 V -0.820766 H 43.125"/><circle class="sym" cx="0" cy="0" r="3"/><text class="lab lft" transform="translate(-3 -7)">24</text></g><path class="edge" d="M 0 0 V -2.53031 H 61.8125"/><circle class="sym" cx="0" cy="0" r="3"/><text class="lab lft" transform="translate(-3 -7)">26</text></g><path class="edge" d="M 0 0 V -9.02281 H 82.6562"/><circle class="sym" cx="0" cy="0" r="3"/><text class="lab lft" transform="translate(-3 -7)">27</text></g><path class="edge" d="M 0 0 V -2.116 H 64.3281"/><circle class="sym" cx="0" cy="0" r="3"/><text class="lab lft" transform="translate(-3 -7)">30</text></g><path class="edge" d="M 0 0 V -6.75777 H -197.836"/><circle class="sym" cx="0" cy="0" r="3"/><text class="lab rgt" transform="translate(3 -7)">31</text></g><path class="edge" d="M 0 0 V -7.94049 H 154.082"/><g class="mut m1 s1" transform="translate(0 -0.369605)"><line x1="0" x2="0" y1="0" y2="0.369605"/><path class="sym" d="M -3,-3 l 6,6 M -3,3 l 6,-6"/><text class="lab lft" transform="translate(-5 0)">1</text></g><circle class="sym" cx="0" cy="0" r="3"/><text class="lab lft" transform="translate(-3 -7)">32</text></g><path class="edge" d="M 0 0 V -32.3618 H 111.541"/><circle class="sym" cx="0" cy="0" r="3"/><text class="lab lft" transform="translate(-3 -7)">33</text></g><path class="edge" d="M 0 0 V -3.92673 H 101.771"/><circle class="sym" cx="0" cy="0" r="3"/><text class="lab lft" transform="translate(-3 -7)">35</text></g><path class="edge" d="M 0 0 V -225.857 H 105.51"/><g class="mut m3 s3" transform="translate(0 -119.976)"><line x1="0" x2="0" y1="0" y2="119.976"/><path class="sym" d="M -3,-3 l 6,6 M -3,3 l 6,-6"/><text class="lab lft" transform="translate(-5 0)">3</text></g><circle class="sym" cx="0" cy="0" r="3"/><text class="lab lft" transform="translate(-3 -7)">36</text></g><g class="a38 c2 node n37 p1" transform="translate(105.51 178.978)"><g class="a37 i5 leaf node n5 p1 sample" transform="translate(-40.25 115.622)"><path class="edge" d="M 0 0 V -115.622 H 40.25"/><rect class="sym" height="6" width="6" x="-3" y="-3"/><text class="lab" transform="translate(0 11)">5</text></g><g class="a37 c2 node n34 p2" transform="translate(40.25 54.143)"><g class="a34 i11 leaf node n11 p2 sample" transform="translate(-34.5 61.4792)"><path class="edge" d="M 0 0 V -61.4792 H 34.5"/><rect class="sym" height="6" width="6" x="-3" y="-3"/><text class="lab" transform="translate(0 11)">11</text></g><g class="a34 c2 m0 node n28 p2 s0" transform="translate(34.5 52.474)"><g class="a28 i15 leaf node n15 p2 sample" transform="translate(-23 9.00516)"><path class="edge" d="M 0 0 V -9.00516 H 23"/><rect class="sym" height="6" width="6" x="-3" y="-3"/><text class="lab" transform="translate(0 11)">15</text></g><g class="a28 i19 leaf node n19 p2 sample" transform="translate(23 9.00516)"><path class="edge" d="M 0 0 V -9.00516 H -23"/><rect class="sym" height="6" width="6" x="-3" y="-3"/><text class="lab" transform="translate(0 11)">19</text></g><path class="edge" d="M 0 0 V -52.474 H -34.5"/><g class="mut m0 s0" transform="translate(0 -11.7929)"><line x1="0" x2="0" y1="0" y2="11.7929"/><path class="sym" d="M -3,-3 l 6,6 M -3,3 l 6,-6"/><text class="lab rgt" transform="translate(5 0)">0</text></g><circle class="sym" cx="0" cy="0" r="3"/><text class="lab rgt" transform="translate(3 -7)">28</text></g><path class="edge" d="M 0 0 V -54.143 H -40.25"/><circle class="sym" cx="0" cy="0" r="3"/><text class="lab rgt" transform="translate(3 -7)">34</text></g><path class="edge" d="M 0 0 V -178.978 H -105.51"/><circle class="sym" cx="0" cy="0" r="3"/><text class="lab rgt" transform="translate(3 -7)">37</text></g><circle class="sym" cx="0" cy="0" r="3"/><text class="lab" transform="translate(0 -11)">38</text></g></g></g></g></g></svg>