<svg baseProfile="full" height="400" version="1.1" width="1000" xmlns="http://www.w3.org/2000/svg" xmlns:ev="http://www.w3.org/2001/xml-events" xmlns:xlink="http://www.w3.org/1999/xlink"><defs><style type="text/css"><![CDATA[.background path {fill: #808080; fill-opacity: 0}.background path:nth-child(odd) {fill-opacity: .1}.x-regions rect {fill: yellow; stroke: black; opacity: 0.5}.axes {font-size: 14px}.x-axis .tick .lab {font-weight: bold; dominant-baseline: hanging}.axes, .tree {font-size: 14px; text-anchor: middle}.axes line, .edge {stroke: black; fill: none}.axes .ax-skip {stroke-dasharray: 4}.y-axis .grid {stroke: #FAFAFA}.node > .sym {fill: black; stroke: none}.site > .sym {stroke: black}.mut text {fill: red; font-style: italic}.mut.extra text {fill: hotpink}.mut line {fill: none; stroke: none}.mut .sym {fill: none; stroke: red}.mut.extra .sym {stroke: hotpink}.node .mut .sym {stroke-width: 1.5px}.tree text, .tree-sequence text {dominant-baseline: central}.plotbox .lab.lft {text-anchor: end}.plotbox .lab.rgt {text-anchor: start}.polytomy line {stroke: black; stroke-dasharray: 1px, 1px}.polytomy text {paint-order:stroke;stroke-width:0.3em;stroke:white}]]></style></defs><g class="tree-sequence"><g class="background"><path d="M20,0 l960,0 l0,338.2 l0,25 l0,5 l-960,0 l0,-5 l0,-25 l0,-338.2z"/></g><g class="axes"><g class="x-axis"><g class="title" transform="translate(500 400)"><text class="lab" text-anchor="middle" transform="translate(0 -11)">Genome position</text></g><line class="ax-line" x1="20" x2="980" y1="363.2" y2="363.2"/><g class="ticks"><g class="tick" transform="translate(20 363.2)"><line x1="0" x2="0" y1="0" y2="5"/><g transform="translate(0 6)"><text class="lab">0</text></g></g><g class="tick" transform="translate(980 363.2)"><line x1="0" x2="0" y1="0" y2="5"/><g transform="translate(0 6)"><text class="lab">1000</text></g></g></g><g class="site s0" transform="translate(97.76 363.2)"><line class="sym" x1="0" x2="0" y1="0" y2="-10"/><g class="mut m0"><polyline class="sym" points="2.5,-6.5 0,-1.5 -2.5,-6.5"/></g></g><g class="site s1" transform="translate(224.48 363.2)"><line class="sym" x1="0" x2="0" y1="0" y2="-10"/><g class="mut m1"><polyline class="sym" points="2.5,-6.5 0,-1.5 -2.5,-6.5"/></g></g><g class="site s2" transform="translate(426.08 363.2)"><line class="sym" x1="0" x2="0" y1="0" y2="-10"/><g class="mut m2"><polyline class="sym" points="2.5,-6.5 0,-1.5 -2.5,-6.5"/></g></g><g class="site s3" transform="translate(472.16 363.2)"><line class="sym" x1="0" x2="0" y1="0" y2="-10"/><g class="mut m3"><polyline class="sym" points="2.5,-6.5 0,-1.5 -2.5,-6.5"/></g></g></g></g><g class="plotbox trees"><g class="tree t0" transform="translate(20 0)"><g class="plotbox"><g class="c2 node n38 p1 root" transform="translate(726.082 26.8)"><g class="a38 c2 node n35 p2" transform="translate(121.918 80.1438)"><g class="a35 c2 m0 node n24 p2 s0" transform="translate(46 210.377)"><g class="a24 i10 leaf node n10 p2 sample" transform="translate(-23 4.07967)"><path class="edge" d="M 0 0 V -4.07967 H 23"/><rect class="sym" height="6" width="6" x="-3" y="-3"/><text class="lab" transform="translate(0 11)">10</text></g><g class="a24 i15 leaf node n15 p2 sample" transform="translate(23 4.07967)"><path class="edge" d="M 0 0 V -4.07967 H -23"/><rect class="sym" height="6" width="6" x="-3" y="-3"/><text class="lab" transform="translate(0 11)">15</text></g><path class="edge" d="M 0 0 V -210.377 H -46"/><g class="mut m0 s0" transform="translate(0 -52.9323)"><line x1="0" x2="0" y1="0" y2="52.9323"/><path class="sym" d="M -3,-3 l 6,6 M -3,3 l 6,-6"/><text class="lab rgt" transform="translate(5 0)">0</text></g><circle class="sym" cx="0" cy="0" r="3"/><text class="lab rgt" transform="translate(3 -7)">24</text></g><g class="a35 c2 m1 node n30 p2 s1" transform="translate(-46 168.557)"><g class="a30 i7 leaf node n7 p1 sample" transform="translate(-23 45.8995)"><path class="edge" d="M 0 0 V -45.8995 H 23"/><rect class="sym" height="6" width="6" x="-3" y="-3"/><text class="lab" transform="translate(0 11)">7</text></g><g class="a30 i11 leaf node n11 p2 sample" transform="translate(23 45.8995)"><path class="edge" d="M 0 0 V -45.8995 H -23"/><rect class="sym" height="6" width="6" x="-3" y="-3"/><text class="lab" transform="translate(0 11)">11</text></g><path class="edge" d="M 0 0 V -168.557 H 46"/><g class="mut m1 s1" transform="translate(0 -109.88)"><line x1="0" x2="0" y1="0" y2="109.88"/><path class="sym" d="M -3,-3 l 6,6 M -3,3 l 6,-6"/><text class="lab lft" transform="translate(-5 0)">1</text></g><circle class="sym" cx="0" cy="0" r="3"/><text class="lab lft" transform="translate(-3 -7)">30</text></g><path class="edge" d="M 0 0 V -80.1438 H -121.918"/><circle class="sym" cx="0" cy="0" r="3"/><text class="lab rgt" transform="translate(3 -7)">35</text></g><g class="a38 c2 node n37 p1" transform="translate(-121.918 17.7773)"><g class="a37 c2 m2 node n27 p1 s2" transform="translate(94.3359 263.93)"><g class="a27 i13 leaf node n13 p2 sample" transform="translate(34.5 12.8931)"><path class="edge" d="M 0 0 V -12.8931 H -34.5"/><rect class="sym" height="6" width="6" x="-3" y="-3"/><text class="lab" transform="translate(0 11)">13</text></g><g class="a27 c2 node n21 p2" transform="translate(-34.5 11.0968)"><g class="a21 i1 leaf node n1 p1 sample" transform="translate(-23 1.79631)"><path class="edge" d="M 0 0 V -1.79631 H 23"/><rect class="sym" height="6" width="6" x="-3" y="-3"/><text class="lab" transform="translate(0 11)">1</text></g><g class="a21 i14 leaf node n14 p2 sample" transform="translate(23 1.79631)"><path class="edge" d="M 0 0 V -1.79631 H -23"/><rect class="sym" height="6" width="6" x="-3" y="-3"/><text class="lab" transform="translate(0 11)">14</text></g><path class="edge" d="M 0 0 V -11.0968 H 34.5"/><circle class="sym" cx="0" cy="0" r="3"/><text class="lab lft" transform="translate(-3 -7)">21</text></g><path class="edge" d="M 0 0 V -263.93 H -94.3359"/><g class="mut m2 s2" transform="translate(0 -73.9877)"><line x1="0" x2="0" y1="0" y2="73.9877"/><path class="sym" d="M -3,-3 l 6,6 M -3,3 l 6,-6"/><text class="lab rgt" transform="translate(5 0)">2</text></g><circle class="sym" cx="0" cy="0" r="3"/><text class="lab rgt" transform="translate(3 -7)">27</text></g><g class="a37 c2 node n36 p2" transform="translate(-94.3359 56.8033)"><g class="a36 i5 leaf node n5 p1 sample" transform="translate(85.1719 220.019)"><path class="edge" d="M 0 0 V -220.019 H -85.1719"/><rect class="sym" height="6" width="6" x="-3" y="-3"/><text class="lab" transform="translate(0 11)">5</text></g><g class="a36 c2 node n34 p2" transform="translate(-85.1719 71.217)"><g class="a34 c2 node n28 p1" transform="translate(101.344 131.801)"><g class="a28 i2 leaf node n2 p1 sample" transform="translate(-23 17.0017)"><path class="edge" d="M 0 0 V -17.0017 H 23"/><rect class="sym" height="6" width="6" x="-3" y="-3"/><text class="lab" transform="translate(0 11)">2</text></g><g class="a28 i8 leaf node n8 p1 sample" transform="translate(23 17.0017)"><path class="edge" d="M 0 0 V -17.0017 H -23"/><rect class="sym" height="6" width="6" x="-3" y="-3"/><text class="lab" transform="translate(0 11)">8</text></g><path class="edge" d="M 0 0 V -131.801 H -101.344"/><circle class="sym" cx="0" cy="0" r="3"/><text class="lab rgt" transform="translate(3 -7)">28</text></g><g class="a34 c2 node n33 p2" transform="translate(-101.344 10.8309)"><g class="a33 c2 node n20 p2" transform="translate(110.688 136.923)"><g class="a20 i9 leaf node n9 p1 sample" transform="translate(-23 1.04895)"><path class="edge" d="M 0 0 V -1.04895 H 23"/><rect class="sym" height="6" width="6" x="-3" y="-3"/><text class="lab" transform="translate(0 11)">9</text></g><g class="a20 i17 leaf node n17 p2 sample" transform="translate(23 1.04895)"><path class="edge" d="M 0 0 V -1.04895 H -23"/><rect class="sym" height="6" width="6" x="-3" y="-3"/><text class="lab" transform="translate(0 11)">17</text></g><path class="edge" d="M 0 0 V -136.923 H -110.688"/><circle class="sym" cx="0" cy="0" r="3"/><text class="lab rgt" transform="translate(3 -7)">20</text></g><g class="a33 c2 node n32 p2" transform="translate(-110.688 11.1789)"><g class="a32 c2 m3 node n29 p2 s3" transform="translate(-83.375 84.7319)"><g class="a29 i19 leaf node n19 p2 sample" transform="translate(51.75 42.0607)"><path class="edge" d="M 0 0 V -42.0607 H -51.75"/><rect class="sym" height="6" width="6" x="-3" y="-3"/><text class="lab" transform="translate(0 11)">19</text></g><g class="a29 c2 node n25 p2" transform="translate(-51.75 29.7175)"><g class="a25 i0 leaf node n0 p1 sample" transform="translate(-34.5 12.3433)"><path class="edge" d="M 0 0 V -12.3433 H 34.5"/><rect class="sym" height="6" width="6" x="-3" y="-3"/><text class="lab" transform="translate(0 11)">0</text></g><g class="a25 c2 node n23 p2" transform="translate(34.5 9.6704)"><g class="a23 i12 leaf node n12 p2 sample" transform="translate(-23 2.67285)"><path class="edge" d="M 0 0 V -2.67285 H 23"/><rect class="sym" height="6" width="6" x="-3" y="-3"/><text class="lab" transform="translate(0 11)">12</text></g><g class="a23 i18 leaf node n18 p2 sample" transform="translate(23 2.67285)"><path class="edge" d="M 0 0 V -2.67285 H -23"/><rect class="sym" height="6" width="6" x="-3" y="-3"/><text class="lab" transform="translate(0 11)">18</text></g><path class="edge" d="M 0 0 V -9.6704 H -34.5"/><circle class="sym" cx="0" cy="0" r="3"/><text class="lab rgt" transform="translate(3 -7)">23</text></g><path class="edge" d="M 0 0 V -29.7175 H 51.75"/><circle class="sym" cx="0" cy="0" r="3"/><text class="lab lft" transform="translate(-3 -7)">25</text></g><path class="edge" d="M 0 0 V -84.7319 H 83.375"/><g class="mut m3 s3" transform="translate(0 -76.7053)"><line x1="0" x2="0" y1="0" y2="76.7053"/><path class="sym" d="M -3,-3 l 6,6 M -3,3 l 6,-6"/><text class="lab lft" transform="translate(-5 0)">3</text></g><circle class="sym" cx="0" cy="0" r="3"/><text class="lab lft" transform="translate(-3 -7)">29</text></g><g class="a32 c2 node n31 p2" transform="translate(83.375 54.0821)"><g class="a31 c2 node n22 p1" transform="translate(-46 70.5031)"><g class="a22 i3 leaf node n3 p1 sample" transform="translate(-23 2.20734)"><path class="edge" d="M 0 0 V -2.20734 H 23"/><rect class="sym" height="6" width="6" x="-3" y="-3"/><text class="lab" transform="translate(0 11)">3</text></g><g class="a22 i6 leaf node n6 p1 sample" transform="translate(23 2.20734)"><path class="edge" d="M 0 0 V -2.20734 H -23"/><rect class="sym" height="6" width="6" x="-3" y="-3"/><text class="lab" transform="translate(0 11)">6</text></g><path class="edge" d="M 0 0 V -70.5031 H 46"/><circle class="sym" cx="0" cy="0" r="3"/><text class="lab lft" transform="translate(-3 -7)">22</text></g><g class="a31 c2 node n26 p1" transform="translate(46 60.2392)"><g class="a26 i4 leaf node n4 p1 sample" transform="translate(-23 12.4713)"><path class="edge" d="M 0 0 V -12.4713 H 23"/><rect class="sym" height="6" width="6" x="-3" y="-3"/><text class="lab" transform="translate(0 11)">4</text></g><g class="a26 i16 leaf node n16 p2 sample" transform="translate(23 12.4713)"><path class="edge" d="M 0 0 V -12.4713 H -23"/><rect class="sym" height="6" width="6" x="-3" y="-3"/><text class="lab" transform="translate(0 11)">16</text></g><path class="edge" d="M 0 0 V -60.2392 H -46"/><circle class="sym" cx="0" cy="0" r="3"/><text class="lab rgt" transform="translate(3 -7)">26</text></g><path class="edge" d="M 0 0 V -54.0821 H -83.375"/><circle class="sym" cx="0" cy="0" r="3"/><text class="lab rgt" transform="translate(3 -7)">31</text></g><path class="edge" d="M 0 0 V -11.1789 H 110.688"/><circle class="sym" cx="0" cy="0" r="3"/><text class="lab lft" transform="translate(-3 -7)">32</text></g><path class="edge" d="M 0 0 V -10.8309 H 101.344"/><circle class="sym" cx="0" cy="0" r="3"/><text class="lab lft" transform="translate(-3 -7)">33</text></g><path class="edge" d="M 0 0 V -71.217 H 85.1719"/><circle class="sym" cx="0" cy="0" r="3"/><text class="lab lft" transform="translate(-3 -7)">34</text></g><path class="edge" d="M 0 0 V -56.8033 H 94.3359"/><circle class="sym" cx="0" cy="0" r="3"/><text class="lab lft" transform="translate(-3 -7)">36</text></g><path class="edge" d="M 0 0 V -17.7773 H 121.918"/><circle class="sym" cx="0" cy="0" r="3"/><text class="lab lft" transform="translate(-3 -7)">37</text></g><circle class="sym" cx="0" cy="0" r="3"/><text class="lab" transform="translate(0 -11)">38</text></g></g></g></g></g></svg>