<svg baseProfile="full" height="400" version="1.1" width="1000" xmlns="http://www.w3.org/2000/svg" xmlns:ev="http://www.w3.org/2001/xml-events" xmlns:xlink="http://www.w3.org/1999/xlink"><defs><style type="text/css"><![CDATA[.background path {fill: #808080; fill-opacity: 0}.background path:nth-child(odd) {fill-opacity: .1}.x-regions rect {fill: yellow; stroke: black; opacity: 0.5}.axes {font-size: 14px}.x-axis .tick .lab {font-weight: bold; dominant-baseline: hanging}.axes, .tree {font-size: 14px; text-anchor: middle}.axes line, .edge {stroke: black; fill: none}.axes .ax-skip {stroke-dasharray: 4}.y-axis .grid {stroke: #FAFAFA}.node > .sym {fill: black; stroke: none}.site > .sym {stroke: black}.mut text {fill: red; font-style: italic}.mut.extra text {fill: hotpink}.mut line {fill: none; stroke: none}.mut .sym {fill: none; stroke: red}.mut.extra .sym {stroke: hotpink}.node .mut .sym {stroke-width: 1.5px}.tree text, .tree-sequence text {dominant-baseline: central}.plotbox .lab.lft {text-anchor: end}.plotbox .lab.rgt {text-anchor: start}.polytomy line {stroke: black; stroke-dasharray: 1px, 1px}.polytomy text {paint-order:stroke;stroke-width:0.3em;stroke:white}]]></style></defs><g class="tree-sequence"><g class="background"><path d="M20,0 l960,0 l0,338.2 l0,25 l0,5 l-960,0 l0,-5 l0,-25 l0,-338.2z"/></g><g class="axes"><g class="x-axis"><g class="title" transform="translate(500 400)"><text class="lab" text-anchor="middle" transform="translate(0 -11)">Genome position</text></g><line class="ax-line" x1="20" x2="980" y1="363.2" y2="363.2"/><g class="ticks"><g class="tick" transform="translate(20 363.2)"><line x1="0" x2="0" y1="0" y2="5"/><g transform="translate(0 6)"><text class="lab">0</text></g></g><g class="tick" transform="translate(980 363.2)"><line x1="0" x2="0" y1="0" y2="5"/><g transform="translate(0 6)"><text class="lab">1000</text></g></g></g><g class="site s0" transform="translate(93.92 363.2)"><line class="sym" x1="0" x2="0" y1="0" y2="-10"/><g class="mut m0"><polyline class="sym" points="2.5,-6.5 0,-1.5 -2.5,-6.5"/></g></g><g class="site s1" transform="translate(224.48 363.2)"><line class="sym" x1="0" x2="0" y1="0" y2="-10"/><g class="mut m1"><polyline class="sym" points="2.5,-6.5 0,-1.5 -2.5,-6.5"/></g></g><g class="site s2" transform="translate(233.12 363.2)"><line class="sym" x1="0" x2="0" y1="0" y2="-10"/><g class="mut m2"><polyline class="sym" points="2.5,-6.5 0,-1.5 -2.5,-6.5"/></g></g><g class="site s3" transform="translate(450.08 363.2)"><line class="sym" x1="0" x2="0" y1="0" y2="-10"/><g class="mut m3"><polyline class="sym" points="2.5,-6.5 0,-1.5 -2.5,-6.5"/></g></g><g class="site s4" transform="translate(514.4 363.2)"><line class="sym" x1="0" x2="0" y1="0" y2="-10"/><g class="mut m4"><polyline class="sym" points="2.5,-6.5 0,-1.5 -2.5,-6.5"/></g></g><g class="site s5" transform="translate(578.72 363.2)"><line class="sym" x1="0" x2="0" y1="0" y2="-10"/><g class="mut m5"><polyline class="sym" points="2.5,-6.5 0,-1.5 -2.5,-6.5"/></g></g></g></g><g class="plotbox trees"><g class="tree t0" transform="translate(20 0)"><g class="plotbox"><g class="c2 node n38 p1 root" transform="translate(460.414 26.8)"><g class="a38 c2 m3 m5 node n36 p2 s3 s5" transform="translate(276.539 246.425)"><g class="a36 c2 node n28 p2" transform="translate(157.047 44.004)"><g class="a28 i7 leaf m2 node n7 p1 s2 sample" transform="translate(-23 4.1706)"><path class="edge" d="M 0 0 V -4.1706 H 23"/><g class="mut m2 s2" transform="translate(0 -3.41173)"><line x1="0" x2="0" y1="0" y2="3.41173"/><path class="sym" d="M -3,-3 l 6,6 M -3,3 l 6,-6"/><text class="lab lft" transform="translate(-5 0)">2</text></g><rect class="sym" height="6" width="6" x="-3" y="-3"/><text class="lab" transform="translate(0 11)">7</text></g><g class="a28 i13 leaf node n13 p2 sample" transform="translate(23 4.1706)"><path class="edge" d="M 0 0 V -4.1706 H -23"/><rect class="sym" height="6" width="6" x="-3" y="-3"/><text class="lab" transform="translate(0 11)">13</text></g><path class="edge" d="M 0 0 V -44.004 H -157.047"/><circle class="sym" cx="0" cy="0" r="3"/><text class="lab rgt" transform="translate(3 -7)">28</text></g><g class="a36 c2 node n35 p2" transform="translate(-157.047 7.9751)"><g class="a35 c2 node n33 p1" transform="translate(-121.469 17.4784)"><g class="a33 c2 node n24 p2" transform="translate(67.5625 20.6693)"><g class="a24 i6 leaf node n6 p1 sample" transform="translate(-23 2.05185)"><path class="edge" d="M 0 0 V -2.05185 H 23"/><rect class="sym" height="6" width="6" x="-3" y="-3"/><text class="lab" transform="translate(0 11)">6</text></g><g class="a24 i12 leaf node n12 p2 sample" transform="translate(23 2.05185)"><path class="edge" d="M 0 0 V -2.05185 H -23"/><rect class="sym" height="6" width="6" x="-3" y="-3"/><text class="lab" transform="translate(0 11)">12</text></g><path class="edge" d="M 0 0 V -20.6693 H -67.5625"/><circle class="sym" cx="0" cy="0" r="3"/><text class="lab rgt" transform="translate(3 -7)">24</text></g><g class="a33 c2 node n31 p1" transform="translate(-67.5625 11.8249)"><g class="a31 i2 leaf node n2 p1 sample" transform="translate(66.125 10.8962)"><path class="edge" d="M 0 0 V -10.8962 H -66.125"/><rect class="sym" height="6" width="6" x="-3" y="-3"/><text class="lab" transform="translate(0 11)">2</text></g><g class="a31 c2 node n30 p1" transform="translate(-66.125 1.53161)"><g class="a30 i1 leaf node n1 p1 sample" transform="translate(-51.75 9.36464)"><path class="edge" d="M 0 0 V -9.36464 H 51.75"/><rect class="sym" height="6" width="6" x="-3" y="-3"/><text class="lab" transform="translate(0 11)">1</text></g><g class="a30 c2 node n29 p2" transform="translate(51.75 2.87696)"><g class="a29 i17 leaf node n17 p2 sample" transform="translate(34.5 6.48768)"><path class="edge" d="M 0 0 V -6.48768 H -34.5"/><rect class="sym" height="6" width="6" x="-3" y="-3"/><text class="lab" transform="translate(0 11)">17</text></g><g class="a29 c2 node n23 p1" transform="translate(-34.5 4.44275)"><g class="a23 i4 leaf node n4 p1 sample" transform="translate(-23 2.04493)"><path class="edge" d="M 0 0 V -2.04493 H 23"/><rect class="sym" height="6" width="6" x="-3" y="-3"/><text class="lab" transform="translate(0 11)">4</text></g><g class="a23 i10 leaf node n10 p2 sample" transform="translate(23 2.04493)"><path class="edge" d="M 0 0 V -2.04493 H -23"/><rect class="sym" height="6" width="6" x="-3" y="-3"/><text class="lab" transform="translate(0 11)">10</text></g><path class="edge" d="M 0 0 V -4.44275 H 34.5"/><circle class="sym" cx="0" cy="0" r="3"/><text class="lab lft" transform="translate(-3 -7)">23</text></g><path class="edge" d="M 0 0 V -2.87696 H -51.75"/><circle class="sym" cx="0" cy="0" r="3"/><text class="lab rgt" transform="translate(3 -7)">29</text></g><path class="edge" d="M 0 0 V -1.53161 H 66.125"/><circle class="sym" cx="0" cy="0" r="3"/><text class="lab lft" transform="translate(-3 -7)">30</text></g><path class="edge" d="M 0 0 V -11.8249 H 67.5625"/><circle class="sym" cx="0" cy="0" r="3"/><text class="lab lft" transform="translate(-3 -7)">31</text></g><path class="edge" d="M 0 0 V -17.4784 H 121.469"/><circle class="sym" cx="0" cy="0" r="3"/><text class="lab lft" transform="translate(-3 -7)">33</text></g><g class="a35 c2 node n34 p1" transform="translate(121.469 7.49786)"><g class="a34 c2 node n20 p1" transform="translate(-83.375 32.075)"><g class="a20 i5 leaf node n5 p1 sample" transform="translate(-23 0.62667)"><path class="edge" d="M 0 0 V -0.62667 H 23"/><rect class="sym" height="6" width="6" x="-3" y="-3"/><text class="lab" transform="translate(0 11)">5</text></g><g class="a20 i11 leaf node n11 p2 sample" transform="translate(23 0.62667)"><path class="edge" d="M 0 0 V -0.62667 H -23"/><rect class="sym" height="6" width="6" x="-3" y="-3"/><text class="lab" transform="translate(0 11)">11</text></g><path class="edge" d="M 0 0 V -32.075 H 83.375"/><circle class="sym" cx="0" cy="0" r="3"/><text class="lab lft" transform="translate(-3 -7)">20</text></g><g class="a34 c2 node n26 p2" transform="translate(83.375 30.5398)"><g class="a26 i16 leaf node n16 p2 sample" transform="translate(40.25 2.16186)"><path class="edge" d="M 0 0 V -2.16186 H -40.25"/><rect class="sym" height="6" width="6" x="-3" y="-3"/><text class="lab" transform="translate(0 11)">16</text></g><g class="a26 c2 node n25 p2" transform="translate(-40.25 0.00957862)"><g class="a25 i14 leaf node n14 p2 sample" transform="translate(34.5 2.15228)"><path class="edge" d="M 0 0 V -2.15228 H -34.5"/><rect class="sym" height="6" width="6" x="-3" y="-3"/><text class="lab" transform="translate(0 11)">14</text></g><g class="a25 c2 node n21 p2" transform="translate(-34.5 1.04212)"><g class="a21 i8 leaf node n8 p1 sample" transform="translate(-23 1.11016)"><path class="edge" d="M 0 0 V -1.11016 H 23"/><rect class="sym" height="6" width="6" x="-3" y="-3"/><text class="lab" transform="translate(0 11)">8</text></g><g class="a21 i19 leaf node n19 p2 sample" transform="translate(23 1.11016)"><path class="edge" d="M 0 0 V -1.11016 H -23"/><rect class="sym" height="6" width="6" x="-3" y="-3"/><text class="lab" transform="translate(0 11)">19</text></g><path class="edge" d="M 0 0 V -1.04212 H 34.5"/><circle class="sym" cx="0" cy="0" r="3"/><text class="lab lft" transform="translate(-3 -7)">21</text></g><path class="edge" d="M 0 0 V -0.00957862 H 40.25"/><circle class="sym" cx="0" cy="0" r="3"/><text class="lab lft" transform="translate(-3 -7)">25</text></g><path class="edge" d="M 0 0 V -30.5398 H -83.375"/><circle class="sym" cx="0" cy="0" r="3"/><text class="lab rgt" transform="translate(3 -7)">26</text></g><path class="edge" d="M 0 0 V -7.49786 H -121.469"/><circle class="sym" cx="0" cy="0" r="3"/><text class="lab rgt" transform="translate(3 -7)">34</text></g><path class="edge" d="M 0 0 V -7.9751 H 157.047"/><circle class="sym" cx="0" cy="0" r="3"/><text class="lab lft" transform="translate(-3 -7)">35</text></g><path class="edge" d="M 0 0 V -246.425 H -276.539"/><g class="mut m3 s3" transform="translate(0 -174.841)"><line x1="0" x2="0" y1="0" y2="174.841"/><path class="sym" d="M -3,-3 l 6,6 M -3,3 l 6,-6"/><text class="lab rgt" transform="translate(5 0)">3</text></g><g class="mut m5 s5" transform="translate(0 -119.37)"><line x1="0" x2="0" y1="0" y2="119.37"/><path class="sym" d="M -3,-3 l 6,6 M -3,3 l 6,-6"/><text class="lab rgt" transform="translate(5 0)">5</text></g><circle class="sym" cx="0" cy="0" r="3"/><text class="lab rgt" transform="translate(3 -7)">36</text></g><g class="a38 c2 m0 m4 node n37 p1 s0 s4" transform="translate(-276.539 231.802)"><g class="a37 i15 leaf node n15 p2 sample" transform="translate(43.125 62.7985)"><path class="edge" d="M 0 0 V -62.7985 H -43.125"/><rect class="sym" height="6" width="6" x="-3" y="-3"/><text class="lab" transform="translate(0 11)">15</text></g><g class="a37 c2 m1 node n32 p2 s1" transform="translate(-43.125 46.1601)"><g class="a32 i18 leaf node n18 p2 sample" transform="translate(40.25 16.6384)"><path class="edge" d="M 0 0 V -16.6384 H -40.25"/><rect class="sym" height="6" width="6" x="-3" y="-3"/><text class="lab" transform="translate(0 11)">18</text></g><g class="a32 c2 node n27 p2" transform="translate(-40.25 13.2614)"><g class="a27 i9 leaf node n9 p1 sample" transform="translate(34.5 3.37701)"><path class="edge" d="M 0 0 V -3.37701 H -34.5"/><rect class="sym" height="6" width="6" x="-3" y="-3"/><text class="lab" transform="translate(0 11)">9</text></g><g class="a27 c2 node n22 p2" transform="translate(-34.5 1.39042)"><g class="a22 i0 leaf node n0 p1 sample" transform="translate(-23 1.98659)"><path class="edge" d="M 0 0 V -1.98659 H 23"/><rect class="sym" height="6" width="6" x="-3" y="-3"/><text class="lab" transform="translate(0 11)">0</text></g><g class="a22 i3 leaf node n3 p1 sample" transform="translate(23 1.98659)"><path class="edge" d="M 0 0 V -1.98659 H -23"/><rect class="sym" height="6" width="6" x="-3" y="-3"/><text class="lab" transform="translate(0 11)">3</text></g><path class="edge" d="M 0 0 V -1.39042 H 34.5"/><circle class="sym" cx="0" cy="0" r="3"/><text class="lab lft" transform="translate(-3 -7)">22</text></g><path class="edge" d="M 0 0 V -13.2614 H 40.25"/><circle class="sym" cx="0" cy="0" r="3"/><text class="lab lft" transform="translate(-3 -7)">27</text></g><path class="edge" d="M 0 0 V -46.1601 H 43.125"/><g class="mut m1 s1" transform="translate(0 -29.7511)"><line x1="0" x2="0" y1="0" y2="29.7511"/><path class="sym" d="M -3,-3 l 6,6 M -3,3 l 6,-6"/><text class="lab lft" transform="translate(-5 0)">1</text></g><circle class="sym" cx="0" cy="0" r="3"/><text class="lab lft" transform="translate(-3 -7)">32</text></g><path class="edge" d="M 0 0 V -231.802 H 276.539"/><g class="mut m4 s4" transform="translate(0 -222.916)"><line x1="0" x2="0" y1="0" y2="222.916"/><path class="sym" d="M -3,-3 l 6,6 M -3,3 l 6,-6"/><text class="lab lft" transform="translate(-5 0)">4</text></g><g class="mut m0 s0" transform="translate(0 -74.867)"><line x1="0" x2="0" y1="0" y2="74.867"/><path class="sym" d="M -3,-3 l 6,6 M -3,3 l 6,-6"/><text class="lab lft" transform="translate(-5 0)">0</text></g><circle class="sym" cx="0" cy="0" r="3"/><text class="lab lft" transform="translate(-3 -7)">37</text></g><circle class="sym" cx="0" cy="0" r="3"/><text class="lab" transform="translate(0 -11)">38</text></g></g></g></g></g></svg>