<svg baseProfile="full" height="400" version="1.1" width="1000" xmlns="http://www.w3.org/2000/svg" xmlns:ev="http://www.w3.org/2001/xml-events" xmlns:xlink="http://www.w3.org/1999/xlink"><defs><style type="text/css"><![CDATA[.background path {fill: #808080; fill-opacity: 0}.background path:nth-child(odd) {fill-opacity: .1}.x-regions rect {fill: yellow; stroke: black; opacity: 0.5}.axes {font-size: 14px}.x-axis .tick .lab {font-weight: bold; dominant-baseline: hanging}.axes, .tree {font-size: 14px; text-anchor: middle}.axes line, .edge {stroke: black; fill: none}.axes .ax-skip {stroke-dasharray: 4}.y-axis .grid {stroke: #FAFAFA}.node > .sym {fill: black; stroke: none}.site > .sym {stroke: black}.mut text {fill: red; font-style: italic}.mut.extra text {fill: hotpink}.mut line {fill: none; stroke: none}.mut .sym {fill: none; stroke: red}.mut.extra .sym {stroke: hotpink}.node .mut .sym {stroke-width: 1.5px}.tree text, .tree-sequence text {dominant-baseline: central}.plotbox .lab.lft {text-anchor: end}.plotbox .lab.rgt {text-anchor: start}.polytomy line {stroke: black; stroke-dasharray: 1px, 1px}.polytomy text {paint-order:stroke;stroke-width:0.3em;stroke:white}]]></style></defs><g class="tree-sequence"><g class="background"><path d="M20,0 l960,0 l0,338.2 l0,25 l0,5 l-960,0 l0,-5 l0,-25 l0,-338.2z"/></g><g class="axes"><g class="x-axis"><g class="title" transform="translate(500 400)"><text class="lab" text-anchor="middle" transform="translate(0 -11)">Genome position</text></g><line class="ax-line" x1="20" x2="980" y1="363.2" y2="363.2"/><g class="ticks"><g class="tick" transform="translate(20 363.2)"><line x1="0" x2="0" y1="0" y2="5"/><g transform="translate(0 6)"><text class="lab">0</text></g></g><g class="tick" transform="translate(980 363.2)"><line x1="0" x2="0" y1="0" y2="5"/><g transform="translate(0 6)"><text class="lab">1000</text></g></g></g><g class="site s0" transform="translate(53.6 363.2)"><line class="sym" x1="0" x2="0" y1="0" y2="-10"/><g class="mut m0"><polyline class="sym" points="2.5,-6.5 0,-1.5 -2.5,-6.5"/></g></g><g class="site s1" transform="translate(54.56 363.2)"><line class="sym" x1="0" x2="0" y1="0" y2="-10"/><g class="mut m1"><polyline class="sym" points="2.5,-6.5 0,-1.5 -2.5,-6.5"/></g></g><g class="site s2" transform="translate(260.96 363.2)"><line class="sym" x1="0" x2="0" y1="0" y2="-10"/><g class="mut m2"><polyline class="sym" points="2.5,-6.5 0,-1.5 -2.5,-6.5"/></g></g><g class="site s3" transform="translate(716.96 363.2)"><line class="sym" x1="0" x2="0" y1="0" y2="-10"/><g class="mut m3"><polyline class="sym" points="2.5,-6.5 0,-1.5 -2.5,-6.5"/></g></g></g></g><g class="plotbox trees"><g class="tree t0" transform="translate(20 0)"><g class="plotbox"><g class="c2 node n38 p0 root" transform="translate(634.711 26.8)"><g class="a38 c2 node n36 p0" transform="translate(-161.539 181.406)"><g class="a36 c2 m0 node n24 p2 s0" transform="translate(98.8281 105.775)"><g class="a24 i7 leaf node n7 p1 sample" transform="translate(-23 7.41961)"><path class="edge" d="M 0 0 V -7.41961 H 23"/><rect class="sym" height="6" width="6" x="-3" y="-3"/><text class="lab" transform="translate(0 11)">7</text></g><g class="a24 i12 leaf node n12 p2 sample" transform="translate(23 7.41961)"><path class="edge" d="M 0 0 V -7.41961 H -23"/><rect class="sym" height="6" width="6" x="-3" y="-3"/><text class="lab" transform="translate(0 11)">12</text></g><path class="edge" d="M 0 0 V -105.775 H -98.8281"/><g class="mut m0 s0" transform="translate(0 -96.3675)"><line x1="0" x2="0" y1="0" y2="96.3675"/><path class="sym" d="M -3,-3 l 6,6 M -3,3 l 6,-6"/><text class="lab rgt" transform="translate(5 0)">0</text></g><circle class="sym" cx="0" cy="0" r="3"/><text class="lab rgt" transform="translate(3 -7)">24</text></g><g class="a36 c2 node n35 p0" transform="translate(-98.8281 47.6912)"><g class="a35 i2 leaf node n2 p1 sample" transform="translate(128.656 65.5032)"><path class="edge" d="M 0 0 V -65.5032 H -128.656"/><rect class="sym" height="6" width="6" x="-3" y="-3"/><text class="lab" transform="translate(0 11)">2</text></g><g class="a35 c2 node n34 p0" transform="translate(-128.656 7.76558)"><g class="a34 c2 node n30 p2" transform="translate(-150.938 39.2255)"><g class="a30 i0 leaf node n0 p1 sample" transform="translate(-51.75 18.5122)"><path class="edge" d="M 0 0 V -18.5122 H 51.75"/><rect class="sym" height="6" width="6" x="-3" y="-3"/><text class="lab" transform="translate(0 11)">0</text></g><g class="a30 c2 node n29 p1" transform="translate(51.75 0.817774)"><g class="a29 i18 leaf node n18 p2 sample" transform="translate(34.5 17.6944)"><path class="edge" d="M 0 0 V -17.6944 H -34.5"/><rect class="sym" height="6" width="6" x="-3" y="-3"/><text class="lab" transform="translate(0 11)">18</text></g><g class="a29 c2 m1 node n25 p2 s1" transform="translate(-34.5 6.75978)"><g class="a25 i10 leaf node n10 p2 sample" transform="translate(-23 10.9346)"><path class="edge" d="M 0 0 V -10.9346 H 23"/><rect class="sym" height="6" width="6" x="-3" y="-3"/><text class="lab" transform="translate(0 11)">10</text></g><g class="a25 i17 leaf node n17 p2 sample" transform="translate(23 10.9346)"><path class="edge" d="M 0 0 V -10.9346 H -23"/><rect class="sym" height="6" width="6" x="-3" y="-3"/><text class="lab" transform="translate(0 11)">17</text></g><path class="edge" d="M 0 0 V -6.75978 H 34.5"/><g class="mut m1 s1" transform="translate(0 -3.85436)"><line x1="0" x2="0" y1="0" y2="3.85436"/><path class="sym" d="M -3,-3 l 6,6 M -3,3 l 6,-6"/><text class="lab lft" transform="translate(-5 0)">1</text></g><circle class="sym" cx="0" cy="0" r="3"/><text class="lab lft" transform="translate(-3 -7)">25</text></g><path class="edge" d="M 0 0 V -0.817774 H -51.75"/><circle class="sym" cx="0" cy="0" r="3"/><text class="lab rgt" transform="translate(3 -7)">29</text></g><path class="edge" d="M 0 0 V -39.2255 H 150.938"/><circle class="sym" cx="0" cy="0" r="3"/><text class="lab lft" transform="translate(-3 -7)">30</text></g><g class="a34 c2 node n33 p1" transform="translate(150.938 25.106)"><g class="a33 i9 leaf node n9 p1 sample" transform="translate(60.375 32.6317)"><path class="edge" d="M 0 0 V -32.6317 H -60.375"/><rect class="sym" height="6" width="6" x="-3" y="-3"/><text class="lab" transform="translate(0 11)">9</text></g><g class="a33 c2 node n31 p1" transform="translate(-60.375 11.6615)"><g class="a31 c2 node n26 p2" transform="translate(51.75 9.13335)"><g class="a26 i5 leaf node n5 p1 sample" transform="translate(-23 11.8368)"><path class="edge" d="M 0 0 V -11.8368 H 23"/><rect class="sym" height="6" width="6" x="-3" y="-3"/><text class="lab" transform="translate(0 11)">5</text></g><g class="a26 i8 leaf node n8 p1 sample" transform="translate(23 11.8368)"><path class="edge" d="M 0 0 V -11.8368 H -23"/><rect class="sym" height="6" width="6" x="-3" y="-3"/><text class="lab" transform="translate(0 11)">8</text></g><path class="edge" d="M 0 0 V -9.13335 H -51.75"/><circle class="sym" cx="0" cy="0" r="3"/><text class="lab rgt" transform="translate(3 -7)">26</text></g><g class="a31 c2 node n28 p1" transform="translate(-51.75 3.56325)"><g class="a28 i3 leaf node n3 p1 sample" transform="translate(34.5 17.4069)"><path class="edge" d="M 0 0 V -17.4069 H -34.5"/><rect class="sym" height="6" width="6" x="-3" y="-3"/><text class="lab" transform="translate(0 11)">3</text></g><g class="a28 c2 node n20 p2" transform="translate(-34.5 17.0069)"><g class="a20 i1 leaf node n1 p1 sample" transform="translate(-23 0.39998)"><path class="edge" d="M 0 0 V -0.39998 H 23"/><rect class="sym" height="6" width="6" x="-3" y="-3"/><text class="lab" transform="translate(0 11)">1</text></g><g class="a20 i16 leaf node n16 p2 sample" transform="translate(23 0.39998)"><path class="edge" d="M 0 0 V -0.39998 H -23"/><rect class="sym" height="6" width="6" x="-3" y="-3"/><text class="lab" transform="translate(0 11)">16</text></g><path class="edge" d="M 0 0 V -17.0069 H 34.5"/><circle class="sym" cx="0" cy="0" r="3"/><text class="lab lft" transform="translate(-3 -7)">20</text></g><path class="edge" d="M 0 0 V -3.56325 H 51.75"/><circle class="sym" cx="0" cy="0" r="3"/><text class="lab lft" transform="translate(-3 -7)">28</text></g><path class="edge" d="M 0 0 V -11.6615 H 60.375"/><circle class="sym" cx="0" cy="0" r="3"/><text class="lab lft" transform="translate(-3 -7)">31</text></g><path class="edge" d="M 0 0 V -25.106 H -150.938"/><circle class="sym" cx="0" cy="0" r="3"/><text class="lab rgt" transform="translate(3 -7)">33</text></g><path class="edge" d="M 0 0 V -7.76558 H 128.656"/><circle class="sym" cx="0" cy="0" r="3"/><text class="lab lft" transform="translate(-3 -7)">34</text></g><path class="edge" d="M 0 0 V -47.6912 H 98.8281"/><circle class="sym" cx="0" cy="0" r="3"/><text class="lab lft" transform="translate(-3 -7)">35</text></g><path class="edge" d="M 0 0 V -181.406 H 161.539"/><circle class="sym" cx="0" cy="0" r="3"/><text class="lab lft" transform="translate(-3 -7)">36</text></g><g class="a38 c2 node n37 p0" transform="translate(161.539 161.876)"><g class="a37 c2 m3 node n23 p1 s3" transform="translate(86.25 127.907)"><g class="a23 i15 leaf node n15 p2 sample" transform="translate(34.5 4.81773)"><path class="edge" d="M 0 0 V -4.81773 H -34.5"/><rect class="sym" height="6" width="6" x="-3" y="-3"/><text class="lab" transform="translate(0 11)">15</text></g><g class="a23 c2 node n22 p2" transform="translate(-34.5 1.48057)"><g class="a22 i11 leaf node n11 p2 sample" transform="translate(-23 3.33715)"><path class="edge" d="M 0 0 V -3.33715 H 23"/><rect class="sym" height="6" width="6" x="-3" y="-3"/><text class="lab" transform="translate(0 11)">11</text></g><g class="a22 i14 leaf node n14 p2 sample" transform="translate(23 3.33715)"><path class="edge" d="M 0 0 V -3.33715 H -23"/><rect class="sym" height="6" width="6" x="-3" y="-3"/><text class="lab" transform="translate(0 11)">14</text></g><path class="edge" d="M 0 0 V -1.48057 H 34.5"/><circle class="sym" cx="0" cy="0" r="3"/><text class="lab lft" transform="translate(-3 -7)">22</text></g><path class="edge" d="M 0 0 V -127.907 H -86.25"/><g class="mut m3 s3" transform="translate(0 -99.5037)"><line x1="0" x2="0" y1="0" y2="99.5037"/><path class="sym" d="M -3,-3 l 6,6 M -3,3 l 6,-6"/><text class="lab rgt" transform="translate(5 0)">3</text></g><circle class="sym" cx="0" cy="0" r="3"/><text class="lab rgt" transform="translate(3 -7)">23</text></g><g class="a37 c2 m2 node n32 p1 s2" transform="translate(-86.25 111.274)"><g class="a32 c2 node n21 p2" transform="translate(-46 18.9798)"><g class="a21 i4 leaf node n4 p1 sample" transform="translate(-23 2.47022)"><path class="edge" d="M 0 0 V -2.47022 H 23"/><rect class="sym" height="6" width="6" x="-3" y="-3"/><text class="lab" transform="translate(0 11)">4</text></g><g class="a21 i13 leaf node n13 p2 sample" transform="translate(23 2.47022)"><path class="edge" d="M 0 0 V -2.47022 H -23"/><rect class="sym" height="6" width="6" x="-3" y="-3"/><text class="lab" transform="translate(0 11)">13</text></g><path class="edge" d="M 0 0 V -18.9798 H 46"/><circle class="sym" cx="0" cy="0" r="3"/><text class="lab lft" transform="translate(-3 -7)">21</text></g><g class="a32 c2 node n27 p1" transform="translate(46 8.20317)"><g class="a27 i6 leaf node n6 p1 sample" transform="translate(-23 13.2468)"><path class="edge" d="M 0 0 V -13.2468 H 23"/><rect class="sym" height="6" width="6" x="-3" y="-3"/><text class="lab" transform="translate(0 11)">6</text></g><g class="a27 i19 leaf node n19 p2 sample" transform="translate(23 13.2468)"><path class="edge" d="M 0 0 V -13.2468 H -23"/><rect class="sym" height="6" width="6" x="-3" y="-3"/><text class="lab" transform="translate(0 11)">19</text></g><path class="edge" d="M 0 0 V -8.20317 H -46"/><circle class="sym" cx="0" cy="0" r="3"/><text class="lab rgt" transform="translate(3 -7)">27</text></g><path class="edge" d="M 0 0 V -111.274 H 86.25"/><g class="mut m2 s2" transform="translate(0 -94.5261)"><line x1="0" x2="0" y1="0" y2="94.5261"/><path class="sym" d="M -3,-3 l 6,6 M -3,3 l 6,-6"/><text class="lab lft" transform="translate(-5 0)">2</text></g><circle class="sym" cx="0" cy="0" r="3"/><text class="lab lft" transform="translate(-3 -7)">32</text></g><path class="edge" d="M 0 0 V -161.876 H -161.539"/><circle class="sym" cx="0" cy="0" r="3"/><text class="lab rgt" transform="translate(3 -7)">37</text></g><circle class="sym" cx="0" cy="0" r="3"/><text class="lab" transform="translate(0 -11)">38</text></g></g></g></g></g></svg>