<svg baseProfile="full" height="400" version="1.1" width="1000" xmlns="http://www.w3.org/2000/svg" xmlns:ev="http://www.w3.org/2001/xml-events" xmlns:xlink="http://www.w3.org/1999/xlink"><defs><style type="text/css"><![CDATA[.background path {fill: #808080; fill-opacity: 0}.background path:nth-child(odd) {fill-opacity: .1}.x-regions rect {fill: yellow; stroke: black; opacity: 0.5}.axes {font-size: 14px}.x-axis .tick .lab {font-weight: bold; dominant-baseline: hanging}.axes, .tree {font-size: 14px; text-anchor: middle}.axes line, .edge {stroke: black; fill: none}.axes .ax-skip {stroke-dasharray: 4}.y-axis .grid {stroke: #FAFAFA}.node > .sym {fill: black; stroke: none}.site > .sym {stroke: black}.mut text {fill: red; font-style: italic}.mut.extra text {fill: hotpink}.mut line {fill: none; stroke: none}.mut .sym {fill: none; stroke: red}.mut.extra .sym {stroke: hotpink}.node .mut .sym {stroke-width: 1.5px}.tree text, .tree-sequence text {dominant-baseline: central}.plotbox .lab.lft {text-anchor: end}.plotbox .lab.rgt {text-anchor: start}.polytomy line {stroke: black; stroke-dasharray: 1px, 1px}.polytomy text {paint-order:stroke;stroke-width:0.3em;stroke:white}]]></style></defs><g class="tree-sequence"><g class="background"><path d="M20,0 l960,0 l0,338.2 l0,25 l0,5 l-960,0 l0,-5 l0,-25 l0,-338.2z"/></g><g class="axes"><g class="x-axis"><g class="title" transform="translate(500 400)"><text class="lab" text-anchor="middle" transform="translate(0 -11)">Genome position</text></g><line class="ax-line" x1="20" x2="980" y1="363.2" y2="363.2"/><g class="ticks"><g class="tick" transform="translate(20 363.2)"><line x1="0" x2="0" y1="0" y2="5"/><g transform="translate(0 6)"><text class="lab">0</text></g></g><g class="tick" transform="translate(980 363.2)"><line x1="0" x2="0" y1="0" y2="5"/><g transform="translate(0 6)"><text class="lab">1000</text></g></g></g><g class="site s0" transform="translate(115.04 363.2)"><line class="sym" x1="0" x2="0" y1="0" y2="-10"/><g class="mut m0"><polyline class="sym" points="2.5,-6.5 0,-1.5 -2.5,-6.5"/></g></g><g class="site s1" transform="translate(393.44 363.2)"><line class="sym" x1="0" x2="0" y1="0" y2="-10"/><g class="mut m1"><polyline class="sym" points="2.5,-6.5 0,-1.5 -2.5,-6.5"/></g></g><g class="site s2" transform="translate(584.48 363.2)"><line class="sym" x1="0" x2="0" y1="0" y2="-10"/><g class="mut m2"><polyline class="sym" points="2.5,-6.5 0,-1.5 -2.5,-6.5"/></g></g><g class="site s3" transform="translate(956.96 363.2)"><line class="sym" x1="0" x2="0" y1="0" y2="-10"/><g class="mut m3"><polyline class="sym" points="2.5,-6.5 0,-1.5 -2.5,-6.5"/></g></g></g></g><g class="plotbox trees"><g class="tree t0" transform="translate(20 0)"><g class="plotbox"><g class="c2 node n38 p0 root" transform="translate(743.512 26.8)"><g class="a38 c2 m2 node n30 p2 s2" transform="translate(150.488 271.813)"><g class="a30 i13 leaf node n13 p2 sample" transform="translate(-23 22.7867)"><path class="edge" d="M 0 0 V -22.7867 H 23"/><rect class="sym" height="6" width="6" x="-3" y="-3"/><text class="lab" transform="translate(0 11)">13</text></g><g class="a30 i14 leaf node n14 p2 sample" transform="translate(23 22.7867)"><path class="edge" d="M 0 0 V -22.7867 H -23"/><rect class="sym" height="6" width="6" x="-3" y="-3"/><text class="lab" transform="translate(0 11)">14</text></g><path class="edge" d="M 0 0 V -271.813 H -150.488"/><g class="mut m2 s2" transform="translate(0 -78.1092)"><line x1="0" x2="0" y1="0" y2="78.1092"/><path class="sym" d="M -3,-3 l 6,6 M -3,3 l 6,-6"/><text class="lab rgt" transform="translate(5 0)">2</text></g><circle class="sym" cx="0" cy="0" r="3"/><text class="lab rgt" transform="translate(3 -7)">30</text></g><g class="a38 c2 node n37 p2" transform="translate(-150.488 122.466)"><g class="a37 c2 m0 node n33 p2 s0" transform="translate(154.352 132.987)"><g class="a33 i9 leaf node n9 p1 sample" transform="translate(77.625 39.147)"><path class="edge" d="M 0 0 V -39.147 H -77.625"/><rect class="sym" height="6" width="6" x="-3" y="-3"/><text class="lab" transform="translate(0 11)">9</text></g><g class="a33 c2 node n31 p2" transform="translate(-77.625 4.3084)"><g class="a31 c2 node n20 p1" transform="translate(-51.75 34.679)"><g class="a20 i3 leaf node n3 p1 sample" transform="translate(-23 0.159652)"><path class="edge" d="M 0 0 V -0.159652 H 23"/><rect class="sym" height="6" width="6" x="-3" y="-3"/><text class="lab" transform="translate(0 11)">3</text></g><g class="a20 i15 leaf node n15 p2 sample" transform="translate(23 0.159652)"><path class="edge" d="M 0 0 V -0.159652 H -23"/><rect class="sym" height="6" width="6" x="-3" y="-3"/><text class="lab" transform="translate(0 11)">15</text></g><path class="edge" d="M 0 0 V -34.679 H 51.75"/><circle class="sym" cx="0" cy="0" r="3"/><text class="lab lft" transform="translate(-3 -7)">20</text></g><g class="a31 c2 node n29 p2" transform="translate(51.75 13.843)"><g class="a29 i6 leaf node n6 p1 sample" transform="translate(-34.5 20.9956)"><path class="edge" d="M 0 0 V -20.9956 H 34.5"/><rect class="sym" height="6" width="6" x="-3" y="-3"/><text class="lab" transform="translate(0 11)">6</text></g><g class="a29 c2 node n26 p2" transform="translate(34.5 9.76014)"><g class="a26 i10 leaf node n10 p2 sample" transform="translate(-23 11.2354)"><path class="edge" d="M 0 0 V -11.2354 H 23"/><rect class="sym" height="6" width="6" x="-3" y="-3"/><text class="lab" transform="translate(0 11)">10</text></g><g class="a26 i19 leaf node n19 p2 sample" transform="translate(23 11.2354)"><path class="edge" d="M 0 0 V -11.2354 H -23"/><rect class="sym" height="6" width="6" x="-3" y="-3"/><text class="lab" transform="translate(0 11)">19</text></g><path class="edge" d="M 0 0 V -9.76014 H -34.5"/><circle class="sym" cx="0" cy="0" r="3"/><text class="lab rgt" transform="translate(3 -7)">26</text></g><path class="edge" d="M 0 0 V -13.843 H -51.75"/><circle class="sym" cx="0" cy="0" r="3"/><text class="lab rgt" transform="translate(3 -7)">29</text></g><path class="edge" d="M 0 0 V -4.3084 H 77.625"/><circle class="sym" cx="0" cy="0" r="3"/><text class="lab lft" transform="translate(-3 -7)">31</text></g><path class="edge" d="M 0 0 V -132.987 H -154.352"/><g class="mut m0 s0" transform="translate(0 -84.9652)"><line x1="0" x2="0" y1="0" y2="84.9652"/><path class="sym" d="M -3,-3 l 6,6 M -3,3 l 6,-6"/><text class="lab rgt" transform="translate(5 0)">0</text></g><circle class="sym" cx="0" cy="0" r="3"/><text class="lab rgt" transform="translate(3 -7)">33</text></g><g class="a37 c2 m3 node n36 p2 s3" transform="translate(-154.352 42.7414)"><g class="a36 i11 leaf node n11 p2 sample" transform="translate(110.328 129.393)"><path class="edge" d="M 0 0 V -129.393 H -110.328"/><rect class="sym" height="6" width="6" x="-3" y="-3"/><text class="lab" transform="translate(0 11)">11</text></g><g class="a36 c2 node n35 p1" transform="translate(-110.328 16.9076)"><g class="a35 c2 node n25 p1" transform="translate(99.9062 103.995)"><g class="a25 c2 node n21 p1" transform="translate(51.75 7.33079)"><g class="a21 i4 leaf node n4 p1 sample" transform="translate(-23 1.15928)"><path class="edge" d="M 0 0 V -1.15928 H 23"/><rect class="sym" height="6" width="6" x="-3" y="-3"/><text class="lab" transform="translate(0 11)">4</text></g><g class="a21 i17 leaf node n17 p2 sample" transform="translate(23 1.15928)"><path class="edge" d="M 0 0 V -1.15928 H -23"/><rect class="sym" height="6" width="6" x="-3" y="-3"/><text class="lab" transform="translate(0 11)">17</text></g><path class="edge" d="M 0 0 V -7.33079 H -51.75"/><circle class="sym" cx="0" cy="0" r="3"/><text class="lab rgt" transform="translate(3 -7)">21</text></g><g class="a25 c2 node n24 p2" transform="translate(-51.75 0.315085)"><g class="a24 i8 leaf node n8 p1 sample" transform="translate(34.5 8.17498)"><path class="edge" d="M 0 0 V -8.17498 H -34.5"/><rect class="sym" height="6" width="6" x="-3" y="-3"/><text class="lab" transform="translate(0 11)">8</text></g><g class="a24 c2 node n23 p1" transform="translate(-34.5 2.15641)"><g class="a23 i1 leaf node n1 p1 sample" transform="translate(-23 6.01857)"><path class="edge" d="M 0 0 V -6.01857 H 23"/><rect class="sym" height="6" width="6" x="-3" y="-3"/><text class="lab" transform="translate(0 11)">1</text></g><g class="a23 i5 leaf node n5 p1 sample" transform="translate(23 6.01857)"><path class="edge" d="M 0 0 V -6.01857 H -23"/><rect class="sym" height="6" width="6" x="-3" y="-3"/><text class="lab" transform="translate(0 11)">5</text></g><path class="edge" d="M 0 0 V -2.15641 H 34.5"/><circle class="sym" cx="0" cy="0" r="3"/><text class="lab lft" transform="translate(-3 -7)">23</text></g><path class="edge" d="M 0 0 V -0.315085 H 51.75"/><circle class="sym" cx="0" cy="0" r="3"/><text class="lab lft" transform="translate(-3 -7)">24</text></g><path class="edge" d="M 0 0 V -103.995 H -99.9062"/><circle class="sym" cx="0" cy="0" r="3"/><text class="lab rgt" transform="translate(3 -7)">25</text></g><g class="a35 c2 node n34 p1" transform="translate(-99.9062 69.3187)"><g class="a34 i16 leaf node n16 p2 sample" transform="translate(44.5625 43.1663)"><path class="edge" d="M 0 0 V -43.1663 H -44.5625"/><rect class="sym" height="6" width="6" x="-3" y="-3"/><text class="lab" transform="translate(0 11)">16</text></g><g class="a34 c2 node n32 p2" transform="translate(-44.5625 6.44471)"><g class="a32 i7 leaf m1 node n7 p1 s1 sample" transform="translate(43.125 36.7216)"><path class="edge" d="M 0 0 V -36.7216 H -43.125"/><g class="mut m1 s1" transform="translate(0 -35.819)"><line x1="0" x2="0" y1="0" y2="35.819"/><path class="sym" d="M -3,-3 l 6,6 M -3,3 l 6,-6"/><text class="lab rgt" transform="translate(5 0)">1</text></g><rect class="sym" height="6" width="6" x="-3" y="-3"/><text class="lab" transform="translate(0 11)">7</text></g><g class="a32 c2 node n28 p2" transform="translate(-43.125 17.2174)"><g class="a28 i12 leaf node n12 p2 sample" transform="translate(40.25 19.5042)"><path class="edge" d="M 0 0 V -19.5042 H -40.25"/><rect class="sym" height="6" width="6" x="-3" y="-3"/><text class="lab" transform="translate(0 11)">12</text></g><g class="a28 c2 node n27 p1" transform="translate(-40.25 7.90154)"><g class="a27 i18 leaf node n18 p2 sample" transform="translate(34.5 11.6027)"><path class="edge" d="M 0 0 V -11.6027 H -34.5"/><rect class="sym" height="6" width="6" x="-3" y="-3"/><text class="lab" transform="translate(0 11)">18</text></g><g class="a27 c2 node n22 p2" transform="translate(-34.5 6.2141)"><g class="a22 i0 leaf node n0 p1 sample" transform="translate(-23 5.38855)"><path class="edge" d="M 0 0 V -5.38855 H 23"/><rect class="sym" height="6" width="6" x="-3" y="-3"/><text class="lab" transform="translate(0 11)">0</text></g><g class="a22 i2 leaf node n2 p1 sample" transform="translate(23 5.38855)"><path class="edge" d="M 0 0 V -5.38855 H -23"/><rect class="sym" height="6" width="6" x="-3" y="-3"/><text class="lab" transform="translate(0 11)">2</text></g><path class="edge" d="M 0 0 V -6.2141 H 34.5"/><circle class="sym" cx="0" cy="0" r="3"/><text class="lab lft" transform="translate(-3 -7)">22</text></g><path class="edge" d="M 0 0 V -7.90154 H 40.25"/><circle class="sym" cx="0" cy="0" r="3"/><text class="lab lft" transform="translate(-3 -7)">27</text></g><path class="edge" d="M 0 0 V -17.2174 H 43.125"/><circle class="sym" cx="0" cy="0" r="3"/><text class="lab lft" transform="translate(-3 -7)">28</text></g><path class="edge" d="M 0 0 V -6.44471 H 44.5625"/><circle class="sym" cx="0" cy="0" r="3"/><text class="lab lft" transform="translate(-3 -7)">32</text></g><path class="edge" d="M 0 0 V -69.3187 H 99.9062"/><circle class="sym" cx="0" cy="0" r="3"/><text class="lab lft" transform="translate(-3 -7)">34</text></g><path class="edge" d="M 0 0 V -16.9076 H 110.328"/><circle class="sym" cx="0" cy="0" r="3"/><text class="lab lft" transform="translate(-3 -7)">35</text></g><path class="edge" d="M 0 0 V -42.7414 H 154.352"/><g class="mut m3 s3" transform="translate(0 -17.9796)"><line x1="0" x2="0" y1="0" y2="17.9796"/><path class="sym" d="M -3,-3 l 6,6 M -3,3 l 6,-6"/><text class="lab lft" transform="translate(-5 0)">3</text></g><circle class="sym" cx="0" cy="0" r="3"/><text class="lab lft" transform="translate(-3 -7)">36</text></g><path class="edge" d="M 0 0 V -122.466 H 150.488"/><circle class="sym" cx="0" cy="0" r="3"/><text class="lab lft" transform="translate(-3 -7)">37</text></g><circle class="sym" cx="0" cy="0" r="3"/><text class="lab" transform="translate(0 -11)">38</text></g></g></g></g></g></svg>