<svg baseProfile="full" height="400" version="1.1" width="1000" xmlns="http://www.w3.org/2000/svg" xmlns:ev="http://www.w3.org/2001/xml-events" xmlns:xlink="http://www.w3.org/1999/xlink"><defs><style type="text/css"><![CDATA[.background path {fill: #808080; fill-opacity: 0}.background path:nth-child(odd) {fill-opacity: .1}.x-regions rect {fill: yellow; stroke: black; opacity: 0.5}.axes {font-size: 14px}.x-axis .tick .lab {font-weight: bold; dominant-baseline: hanging}.axes, .tree {font-size: 14px; text-anchor: middle}.axes line, .edge {stroke: black; fill: none}.axes .ax-skip {stroke-dasharray: 4}.y-axis .grid {stroke: #FAFAFA}.node > .sym {fill: black; stroke: none}.site > .sym {stroke: black}.mut text {fill: red; font-style: italic}.mut.extra text {fill: hotpink}.mut line {fill: none; stroke: none}.mut .sym {fill: none; stroke: red}.mut.extra .sym {stroke: hotpink}.node .mut .sym {stroke-width: 1.5px}.tree text, .tree-sequence text {dominant-baseline: central}.plotbox .lab.lft {text-anchor: end}.plotbox .lab.rgt {text-anchor: start}.polytomy line {stroke: black; stroke-dasharray: 1px, 1px}.polytomy text {paint-order:stroke;stroke-width:0.3em;stroke:white}]]></style></defs><g class="tree-sequence"><g class="background"><path d="M20,0 l960,0 l0,338.2 l0,25 l0,5 l-960,0 l0,-5 l0,-25 l0,-338.2z"/></g><g class="axes"><g class="x-axis"><g class="title" transform="translate(500 400)"><text class="lab" text-anchor="middle" transform="translate(0 -11)">Genome position</text></g><line class="ax-line" x1="20" x2="980" y1="363.2" y2="363.2"/><g class="ticks"><g class="tick" transform="translate(20 363.2)"><line x1="0" x2="0" y1="0" y2="5"/><g transform="translate(0 6)"><text class="lab">0</text></g></g><g class="tick" transform="translate(980 363.2)"><line x1="0" x2="0" y1="0" y2="5"/><g transform="translate(0 6)"><text class="lab">1000</text></g></g></g><g class="site s0" transform="translate(227.36 363.2)"><line class="sym" x1="0" x2="0" y1="0" y2="-10"/><g class="mut m0"><polyline class="sym" points="2.5,-6.5 0,-1.5 -2.5,-6.5"/></g></g><g class="site s1" transform="translate(465.44 363.2)"><line class="sym" x1="0" x2="0" y1="0" y2="-10"/><g class="mut m1"><polyline class="sym" points="2.5,-6.5 0,-1.5 -2.5,-6.5"/></g></g></g></g><g class="plotbox trees"><g class="tree t0" transform="translate(20 0)"><g class="plotbox"><g class="c2 node n38 p2 root" transform="translate(630.219 26.8)"><g class="a38 c2 node n36 p1" transform="translate(209.156 103.333)"><g class="a36 i18 leaf node n18 p2 sample" transform="translate(77.625 191.267)"><path class="edge" d="M 0 0 V -191.267 H -77.625"/><rect class="sym" height="6" width="6" x="-3" y="-3"/><text class="lab" transform="translate(0 11)">18</text></g><g class="a36 c2 node n34 p2" transform="translate(-77.625 20.6293)"><g class="a34 c2 node n21 p2" transform="translate(-51.75 169.468)"><g class="a21 i5 leaf node n5 p1 sample" transform="translate(-23 1.1699)"><path class="edge" d="M 0 0 V -1.1699 H 23"/><rect class="sym" height="6" width="6" x="-3" y="-3"/><text class="lab" transform="translate(0 11)">5</text></g><g class="a21 i15 leaf node n15 p2 sample" transform="translate(23 1.1699)"><path class="edge" d="M 0 0 V -1.1699 H -23"/><rect class="sym" height="6" width="6" x="-3" y="-3"/><text class="lab" transform="translate(0 11)">15</text></g><path class="edge" d="M 0 0 V -169.468 H 51.75"/><circle class="sym" cx="0" cy="0" r="3"/><text class="lab lft" transform="translate(-3 -7)">21</text></g><g class="a34 c2 node n27 p2" transform="translate(51.75 131.486)"><g class="a27 i8 leaf node n8 p1 sample" transform="translate(-34.5 39.1524)"><path class="edge" d="M 0 0 V -39.1524 H 34.5"/><rect class="sym" height="6" width="6" x="-3" y="-3"/><text class="lab" transform="translate(0 11)">8</text></g><g class="a27 c2 node n24 p2" transform="translate(34.5 15.6924)"><g class="a24 i13 leaf node n13 p2 sample" transform="translate(-23 23.46)"><path class="edge" d="M 0 0 V -23.46 H 23"/><rect class="sym" height="6" width="6" x="-3" y="-3"/><text class="lab" transform="translate(0 11)">13</text></g><g class="a24 i17 leaf node n17 p2 sample" transform="translate(23 23.46)"><path class="edge" d="M 0 0 V -23.46 H -23"/><rect class="sym" height="6" width="6" x="-3" y="-3"/><text class="lab" transform="translate(0 11)">17</text></g><path class="edge" d="M 0 0 V -15.6924 H -34.5"/><circle class="sym" cx="0" cy="0" r="3"/><text class="lab rgt" transform="translate(3 -7)">24</text></g><path class="edge" d="M 0 0 V -131.486 H -51.75"/><circle class="sym" cx="0" cy="0" r="3"/><text class="lab rgt" transform="translate(3 -7)">27</text></g><path class="edge" d="M 0 0 V -20.6293 H 77.625"/><circle class="sym" cx="0" cy="0" r="3"/><text class="lab lft" transform="translate(-3 -7)">34</text></g><path class="edge" d="M 0 0 V -103.333 H -209.156"/><circle class="sym" cx="0" cy="0" r="3"/><text class="lab rgt" transform="translate(3 -7)">36</text></g><g class="a38 c2 node n37 p1" transform="translate(-209.156 52.7048)"><g class="a37 c2 node n33 p2" transform="translate(-171.062 113.048)"><g class="a33 c2 node n31 p2" transform="translate(120.75 73.8935)"><g class="a31 i9 leaf m1 node n9 p1 s1 sample" transform="translate(40.25 54.9541)"><path class="edge" d="M 0 0 V -54.9541 H -40.25"/><g class="mut m1 s1" transform="translate(0 -9.39468)"><line x1="0" x2="0" y1="0" y2="9.39468"/><path class="sym" d="M -3,-3 l 6,6 M -3,3 l 6,-6"/><text class="lab rgt" transform="translate(5 0)">1</text></g><rect class="sym" height="6" width="6" x="-3" y="-3"/><text class="lab" transform="translate(0 11)">9</text></g><g class="a31 c2 node n28 p1" transform="translate(-40.25 15.7859)"><g class="a28 i6 leaf node n6 p1 sample" transform="translate(34.5 39.1682)"><path class="edge" d="M 0 0 V -39.1682 H -34.5"/><rect class="sym" height="6" width="6" x="-3" y="-3"/><text class="lab" transform="translate(0 11)">6</text></g><g class="a28 c2 node n25 p1" transform="translate(-34.5 5.97986)"><g class="a25 i1 leaf node n1 p1 sample" transform="translate(-23 33.1883)"><path class="edge" d="M 0 0 V -33.1883 H 23"/><rect class="sym" height="6" width="6" x="-3" y="-3"/><text class="lab" transform="translate(0 11)">1</text></g><g class="a25 i4 leaf node n4 p1 sample" transform="translate(23 33.1883)"><path class="edge" d="M 0 0 V -33.1883 H -23"/><rect class="sym" height="6" width="6" x="-3" y="-3"/><text class="lab" transform="translate(0 11)">4</text></g><path class="edge" d="M 0 0 V -5.97986 H 34.5"/><circle class="sym" cx="0" cy="0" r="3"/><text class="lab lft" transform="translate(-3 -7)">25</text></g><path class="edge" d="M 0 0 V -15.7859 H 40.25"/><circle class="sym" cx="0" cy="0" r="3"/><text class="lab lft" transform="translate(-3 -7)">28</text></g><path class="edge" d="M 0 0 V -73.8935 H -120.75"/><circle class="sym" cx="0" cy="0" r="3"/><text class="lab rgt" transform="translate(3 -7)">31</text></g><g class="a33 c2 node n32 p2" transform="translate(-120.75 70.702)"><g class="a32 c2 node n20 p2" transform="translate(-63.25 57.6977)"><g class="a20 i0 leaf node n0 p1 sample" transform="translate(-23 0.44789)"><path class="edge" d="M 0 0 V -0.44789 H 23"/><rect class="sym" height="6" width="6" x="-3" y="-3"/><text class="lab" transform="translate(0 11)">0</text></g><g class="a20 i11 leaf node n11 p2 sample" transform="translate(23 0.44789)"><path class="edge" d="M 0 0 V -0.44789 H -23"/><rect class="sym" height="6" width="6" x="-3" y="-3"/><text class="lab" transform="translate(0 11)">11</text></g><path class="edge" d="M 0 0 V -57.6977 H 63.25"/><circle class="sym" cx="0" cy="0" r="3"/><text class="lab lft" transform="translate(-3 -7)">20</text></g><g class="a32 c2 node n26 p2" transform="translate(63.25 20.6237)"><g class="a26 i19 leaf node n19 p2 sample" transform="translate(34.5 37.5219)"><path class="edge" d="M 0 0 V -37.5219 H -34.5"/><rect class="sym" height="6" width="6" x="-3" y="-3"/><text class="lab" transform="translate(0 11)">19</text></g><g class="a26 c2 node n23 p1" transform="translate(-34.5 28.0931)"><g class="a23 i10 leaf node n10 p2 sample" transform="translate(-23 9.42874)"><path class="edge" d="M 0 0 V -9.42874 H 23"/><rect class="sym" height="6" width="6" x="-3" y="-3"/><text class="lab" transform="translate(0 11)">10</text></g><g class="a23 i16 leaf node n16 p2 sample" transform="translate(23 9.42874)"><path class="edge" d="M 0 0 V -9.42874 H -23"/><rect class="sym" height="6" width="6" x="-3" y="-3"/><text class="lab" transform="translate(0 11)">16</text></g><path class="edge" d="M 0 0 V -28.0931 H 34.5"/><circle class="sym" cx="0" cy="0" r="3"/><text class="lab lft" transform="translate(-3 -7)">23</text></g><path class="edge" d="M 0 0 V -20.6237 H -63.25"/><circle class="sym" cx="0" cy="0" r="3"/><text class="lab rgt" transform="translate(3 -7)">26</text></g><path class="edge" d="M 0 0 V -70.702 H 120.75"/><circle class="sym" cx="0" cy="0" r="3"/><text class="lab lft" transform="translate(-3 -7)">32</text></g><path class="edge" d="M 0 0 V -113.048 H 171.062"/><circle class="sym" cx="0" cy="0" r="3"/><text class="lab lft" transform="translate(-3 -7)">33</text></g><g class="a37 c2 node n35 p1" transform="translate(171.062 70.1152)"><g class="a35 i14 leaf node n14 p2 sample" transform="translate(48.875 171.78)"><path class="edge" d="M 0 0 V -171.78 H -48.875"/><rect class="sym" height="6" width="6" x="-3" y="-3"/><text class="lab" transform="translate(0 11)">14</text></g><g class="a35 c2 node n30 p2" transform="translate(-48.875 127.259)"><g class="a30 i7 leaf node n7 p1 sample" transform="translate(51.75 44.5211)"><path class="edge" d="M 0 0 V -44.5211 H -51.75"/><rect class="sym" height="6" width="6" x="-3" y="-3"/><text class="lab" transform="translate(0 11)">7</text></g><g class="a30 c2 node n29 p1" transform="translate(-51.75 0.753391)"><g class="a29 i2 leaf m0 node n2 p1 s0 sample" transform="translate(-34.5 43.7677)"><path class="edge" d="M 0 0 V -43.7677 H 34.5"/><g class="mut m0 s0" transform="translate(0 -16.6987)"><line x1="0" x2="0" y1="0" y2="16.6987"/><path class="sym" d="M -3,-3 l 6,6 M -3,3 l 6,-6"/><text class="lab lft" transform="translate(-5 0)">0</text></g><rect class="sym" height="6" width="6" x="-3" y="-3"/><text class="lab" transform="translate(0 11)">2</text></g><g class="a29 c2 node n22 p1" transform="translate(34.5 42.0213)"><g class="a22 i3 leaf node n3 p1 sample" transform="translate(-23 1.74635)"><path class="edge" d="M 0 0 V -1.74635 H 23"/><rect class="sym" height="6" width="6" x="-3" y="-3"/><text class="lab" transform="translate(0 11)">3</text></g><g class="a22 i12 leaf node n12 p2 sample" transform="translate(23 1.74635)"><path class="edge" d="M 0 0 V -1.74635 H -23"/><rect class="sym" height="6" width="6" x="-3" y="-3"/><text class="lab" transform="translate(0 11)">12</text></g><path class="edge" d="M 0 0 V -42.0213 H -34.5"/><circle class="sym" cx="0" cy="0" r="3"/><text class="lab rgt" transform="translate(3 -7)">22</text></g><path class="edge" d="M 0 0 V -0.753391 H 51.75"/><circle class="sym" cx="0" cy="0" r="3"/><text class="lab lft" transform="translate(-3 -7)">29</text></g><path class="edge" d="M 0 0 V -127.259 H 48.875"/><circle class="sym" cx="0" cy="0" r="3"/><text class="lab lft" transform="translate(-3 -7)">30</text></g><path class="edge" d="M 0 0 V -70.1152 H -171.062"/><circle class="sym" cx="0" cy="0" r="3"/><text class="lab rgt" transform="translate(3 -7)">35</text></g><path class="edge" d="M 0 0 V -52.7048 H 209.156"/><circle class="sym" cx="0" cy="0" r="3"/><text class="lab lft" transform="translate(-3 -7)">37</text></g><circle class="sym" cx="0" cy="0" r="3"/><text class="lab" transform="translate(0 -11)">38</text></g></g></g></g></g></svg>