<svg baseProfile="full" height="400" version="1.1" width="1000" xmlns="http://www.w3.org/2000/svg" xmlns:ev="http://www.w3.org/2001/xml-events" xmlns:xlink="http://www.w3.org/1999/xlink"><defs><style type="text/css"><![CDATA[.background path {fill: #808080; fill-opacity: 0}.background path:nth-child(odd) {fill-opacity: .1}.x-regions rect {fill: yellow; stroke: black; opacity: 0.5}.axes {font-size: 14px}.x-axis .tick .lab {font-weight: bold; dominant-baseline: hanging}.axes, .tree {font-size: 14px; text-anchor: middle}.axes line, .edge {stroke: black; fill: none}.axes .ax-skip {stroke-dasharray: 4}.y-axis .grid {stroke: #FAFAFA}.node > .sym {fill: black; stroke: none}.site > .sym {stroke: black}.mut text {fill: red; font-style: italic}.mut.extra text {fill: hotpink}.mut line {fill: none; stroke: none}.mut .sym {fill: none; stroke: red}.mut.extra .sym {stroke: hotpink}.node .mut .sym {stroke-width: 1.5px}.tree text, .tree-sequence text {dominant-baseline: central}.plotbox .lab.lft {text-anchor: end}.plotbox .lab.rgt {text-anchor: start}.polytomy line {stroke: black; stroke-dasharray: 1px, 1px}.polytomy text {paint-order:stroke;stroke-width:0.3em;stroke:white}]]></style></defs><g class="tree-sequence"><g class="background"><path d="M20,0 l960,0 l0,338.2 l0,25 l0,5 l-960,0 l0,-5 l0,-25 l0,-338.2z"/></g><g class="axes"><g class="x-axis"><g class="title" transform="translate(500 400)"><text class="lab" text-anchor="middle" transform="translate(0 -11)">Genome position</text></g><line class="ax-line" x1="20" x2="980" y1="363.2" y2="363.2"/><g class="ticks"><g class="tick" transform="translate(20 363.2)"><line x1="0" x2="0" y1="0" y2="5"/><g transform="translate(0 6)"><text class="lab">0</text></g></g><g class="tick" transform="translate(980 363.2)"><line x1="0" x2="0" y1="0" y2="5"/><g transform="translate(0 6)"><text class="lab">1000</text></g></g></g><g class="site s0" transform="translate(253.28 363.2)"><line class="sym" x1="0" x2="0" y1="0" y2="-10"/><g class="mut m0"><polyline class="sym" points="2.5,-6.5 0,-1.5 -2.5,-6.5"/></g></g><g class="site s1" transform="translate(633.44 363.2)"><line class="sym" x1="0" x2="0" y1="0" y2="-10"/><g class="mut m1"><polyline class="sym" points="2.5,-6.5 0,-1.5 -2.5,-6.5"/></g></g><g class="site s2" transform="translate(679.52 363.2)"><line class="sym" x1="0" x2="0" y1="0" y2="-10"/><g class="mut m2"><polyline class="sym" points="2.5,-6.5 0,-1.5 -2.5,-6.5"/></g></g></g></g><g class="plotbox trees"><g class="tree t0" transform="translate(20 0)"><g class="plotbox"><g class="c2 node n38 p1 root" transform="translate(700.566 26.8)"><g class="a38 c2 node n36 p1" transform="translate(193.434 60.6761)"><g class="a36 i10 leaf node n10 p2 sample" transform="translate(-23 233.924)"><path class="edge" d="M 0 0 V -233.924 H 23"/><rect class="sym" height="6" width="6" x="-3" y="-3"/><text class="lab" transform="translate(0 11)">10</text></g><g class="a36 i13 leaf node n13 p2 sample" transform="translate(23 233.924)"><path class="edge" d="M 0 0 V -233.924 H -23"/><rect class="sym" height="6" width="6" x="-3" y="-3"/><text class="lab" transform="translate(0 11)">13</text></g><path class="edge" d="M 0 0 V -60.6761 H -193.434"/><circle class="sym" cx="0" cy="0" r="3"/><text class="lab rgt" transform="translate(3 -7)">36</text></g><g class="a38 c2 node n37 p2" transform="translate(-193.434 4.61649)"><g class="a37 c2 node n30 p2" transform="translate(231.617 241.525)"><g class="a30 i2 leaf node n2 p1 sample" transform="translate(-51.75 48.4586)"><path class="edge" d="M 0 0 V -48.4586 H 51.75"/><rect class="sym" height="6" width="6" x="-3" y="-3"/><text class="lab" transform="translate(0 11)">2</text></g><g class="a30 c2 m2 node n29 p1 s2" transform="translate(51.75 9.39866)"><g class="a29 i17 leaf node n17 p2 sample" transform="translate(34.5 39.06)"><path class="edge" d="M 0 0 V -39.06 H -34.5"/><rect class="sym" height="6" width="6" x="-3" y="-3"/><text class="lab" transform="translate(0 11)">17</text></g><g class="a29 c2 node n27 p2" transform="translate(-34.5 22.7021)"><g class="a27 i15 leaf node n15 p2 sample" transform="translate(-23 16.3579)"><path class="edge" d="M 0 0 V -16.3579 H 23"/><rect class="sym" height="6" width="6" x="-3" y="-3"/><text class="lab" transform="translate(0 11)">15</text></g><g class="a27 i16 leaf node n16 p2 sample" transform="translate(23 16.3579)"><path class="edge" d="M 0 0 V -16.3579 H -23"/><rect class="sym" height="6" width="6" x="-3" y="-3"/><text class="lab" transform="translate(0 11)">16</text></g><path class="edge" d="M 0 0 V -22.7021 H 34.5"/><circle class="sym" cx="0" cy="0" r="3"/><text class="lab lft" transform="translate(-3 -7)">27</text></g><path class="edge" d="M 0 0 V -9.39866 H -51.75"/><g class="mut m2 s2" transform="translate(0 -9.30684)"><line x1="0" x2="0" y1="0" y2="9.30684"/><path class="sym" d="M -3,-3 l 6,6 M -3,3 l 6,-6"/><text class="lab rgt" transform="translate(5 0)">2</text></g><circle class="sym" cx="0" cy="0" r="3"/><text class="lab rgt" transform="translate(3 -7)">29</text></g><path class="edge" d="M 0 0 V -241.525 H -231.617"/><circle class="sym" cx="0" cy="0" r="3"/><text class="lab rgt" transform="translate(3 -7)">30</text></g><g class="a37 c2 m1 node n35 p1 s1" transform="translate(-231.617 215.226)"><g class="a35 c2 m0 node n22 p1 s0" transform="translate(-209.516 65.4821)"><g class="a22 i0 leaf node n0 p1 sample" transform="translate(-23 9.27579)"><path class="edge" d="M 0 0 V -9.27579 H 23"/><rect class="sym" height="6" width="6" x="-3" y="-3"/><text class="lab" transform="translate(0 11)">0</text></g><g class="a22 i11 leaf node n11 p2 sample" transform="translate(23 9.27579)"><path class="edge" d="M 0 0 V -9.27579 H -23"/><rect class="sym" height="6" width="6" x="-3" y="-3"/><text class="lab" transform="translate(0 11)">11</text></g><path class="edge" d="M 0 0 V -65.4821 H 209.516"/><g class="mut m0 s0" transform="translate(0 -45.0093)"><line x1="0" x2="0" y1="0" y2="45.0093"/><path class="sym" d="M -3,-3 l 6,6 M -3,3 l 6,-6"/><text class="lab lft" transform="translate(-5 0)">0</text></g><circle class="sym" cx="0" cy="0" r="3"/><text class="lab lft" transform="translate(-3 -7)">22</text></g><g class="a35 c2 node n34 p2" transform="translate(209.516 3.68079)"><g class="a34 c2 node n32 p2" transform="translate(-115.719 9.5077)"><g class="a32 i8 leaf node n8 p1 sample" transform="translate(87.6875 61.5694)"><path class="edge" d="M 0 0 V -61.5694 H -87.6875"/><rect class="sym" height="6" width="6" x="-3" y="-3"/><text class="lab" transform="translate(0 11)">8</text></g><g class="a32 c2 node n31 p1" transform="translate(-87.6875 9.47027)"><g class="a31 c2 node n25 p2" transform="translate(-89.125 38.9057)"><g class="a25 i7 leaf node n7 p1 sample" transform="translate(34.5 13.1934)"><path class="edge" d="M 0 0 V -13.1934 H -34.5"/><rect class="sym" height="6" width="6" x="-3" y="-3"/><text class="lab" transform="translate(0 11)">7</text></g><g class="a25 c2 node n24 p1" transform="translate(-34.5 2.72904)"><g class="a24 i1 leaf node n1 p1 sample" transform="translate(-23 10.4644)"><path class="edge" d="M 0 0 V -10.4644 H 23"/><rect class="sym" height="6" width="6" x="-3" y="-3"/><text class="lab" transform="translate(0 11)">1</text></g><g class="a24 i9 leaf node n9 p1 sample" transform="translate(23 10.4644)"><path class="edge" d="M 0 0 V -10.4644 H -23"/><rect class="sym" height="6" width="6" x="-3" y="-3"/><text class="lab" transform="translate(0 11)">9</text></g><path class="edge" d="M 0 0 V -2.72904 H 34.5"/><circle class="sym" cx="0" cy="0" r="3"/><text class="lab lft" transform="translate(-3 -7)">24</text></g><path class="edge" d="M 0 0 V -38.9057 H 89.125"/><circle class="sym" cx="0" cy="0" r="3"/><text class="lab lft" transform="translate(-3 -7)">25</text></g><g class="a31 c2 node n28 p2" transform="translate(89.125 17.6948)"><g class="a28 i14 leaf node n14 p2 sample" transform="translate(40.25 34.4043)"><path class="edge" d="M 0 0 V -34.4043 H -40.25"/><rect class="sym" height="6" width="6" x="-3" y="-3"/><text class="lab" transform="translate(0 11)">14</text></g><g class="a28 c2 node n26 p1" transform="translate(-40.25 18.4929)"><g class="a26 i4 leaf node n4 p1 sample" transform="translate(34.5 15.9115)"><path class="edge" d="M 0 0 V -15.9115 H -34.5"/><rect class="sym" height="6" width="6" x="-3" y="-3"/><text class="lab" transform="translate(0 11)">4</text></g><g class="a26 c2 node n23 p1" transform="translate(-34.5 6.38857)"><g class="a23 i3 leaf node n3 p1 sample" transform="translate(-23 9.5229)"><path class="edge" d="M 0 0 V -9.5229 H 23"/><rect class="sym" height="6" width="6" x="-3" y="-3"/><text class="lab" transform="translate(0 11)">3</text></g><g class="a23 i6 leaf node n6 p1 sample" transform="translate(23 9.5229)"><path class="edge" d="M 0 0 V -9.5229 H -23"/><rect class="sym" height="6" width="6" x="-3" y="-3"/><text class="lab" transform="translate(0 11)">6</text></g><path class="edge" d="M 0 0 V -6.38857 H 34.5"/><circle class="sym" cx="0" cy="0" r="3"/><text class="lab lft" transform="translate(-3 -7)">23</text></g><path class="edge" d="M 0 0 V -18.4929 H 40.25"/><circle class="sym" cx="0" cy="0" r="3"/><text class="lab lft" transform="translate(-3 -7)">26</text></g><path class="edge" d="M 0 0 V -17.6948 H -89.125"/><circle class="sym" cx="0" cy="0" r="3"/><text class="lab rgt" transform="translate(3 -7)">28</text></g><path class="edge" d="M 0 0 V -9.47027 H 87.6875"/><circle class="sym" cx="0" cy="0" r="3"/><text class="lab lft" transform="translate(-3 -7)">31</text></g><path class="edge" d="M 0 0 V -9.5077 H 115.719"/><circle class="sym" cx="0" cy="0" r="3"/><text class="lab lft" transform="translate(-3 -7)">32</text></g><g class="a34 c2 node n33 p2" transform="translate(115.719 5.08882)"><g class="a33 i19 leaf node n19 p2 sample" transform="translate(40.25 65.9882)"><path class="edge" d="M 0 0 V -65.9882 H -40.25"/><rect class="sym" height="6" width="6" x="-3" y="-3"/><text class="lab" transform="translate(0 11)">19</text></g><g class="a33 c2 node n21 p1" transform="translate(-40.25 57.9037)"><g class="a21 i18 leaf node n18 p2 sample" transform="translate(34.5 8.08458)"><path class="edge" d="M 0 0 V -8.08458 H -34.5"/><rect class="sym" height="6" width="6" x="-3" y="-3"/><text class="lab" transform="translate(0 11)">18</text></g><g class="a21 c2 node n20 p1" transform="translate(-34.5 2.78583)"><g class="a20 i5 leaf node n5 p1 sample" transform="translate(-23 5.29875)"><path class="edge" d="M 0 0 V -5.29875 H 23"/><rect class="sym" height="6" width="6" x="-3" y="-3"/><text class="lab" transform="translate(0 11)">5</text></g><g class="a20 i12 leaf node n12 p2 sample" transform="translate(23 5.29875)"><path class="edge" d="M 0 0 V -5.29875 H -23"/><rect class="sym" height="6" width="6" x="-3" y="-3"/><text class="lab" transform="translate(0 11)">12</text></g><path class="edge" d="M 0 0 V -2.78583 H 34.5"/><circle class="sym" cx="0" cy="0" r="3"/><text class="lab lft" transform="translate(-3 -7)">20</text></g><path class="edge" d="M 0 0 V -57.9037 H 40.25"/><circle class="sym" cx="0" cy="0" r="3"/><text class="lab lft" transform="translate(-3 -7)">21</text></g><path class="edge" d="M 0 0 V -5.08882 H -115.719"/><circle class="sym" cx="0" cy="0" r="3"/><text class="lab rgt" transform="translate(3 -7)">33</text></g><path class="edge" d="M 0 0 V -3.68079 H -209.516"/><circle class="sym" cx="0" cy="0" r="3"/><text class="lab rgt" transform="translate(3 -7)">34</text></g><path class="edge" d="M 0 0 V -215.226 H 231.617"/><g class="mut m1 s1" transform="translate(0 -106.475)"><line x1="0" x2="0" y1="0" y2="106.475"/><path class="sym" d="M -3,-3 l 6,6 M -3,3 l 6,-6"/><text class="lab lft" transform="translate(-5 0)">1</text></g><circle class="sym" cx="0" cy="0" r="3"/><text class="lab lft" transform="translate(-3 -7)">35</text></g><path class="edge" d="M 0 0 V -4.61649 H 193.434"/><circle class="sym" cx="0" cy="0" r="3"/><text class="lab lft" transform="translate(-3 -7)">37</text></g><circle class="sym" cx="0" cy="0" r="3"/><text class="lab" transform="translate(0 -11)">38</text></g></g></g></g></g></svg>