<svg baseProfile="full" height="400" version="1.1" width="1000" xmlns="http://www.w3.org/2000/svg" xmlns:ev="http://www.w3.org/2001/xml-events" xmlns:xlink="http://www.w3.org/1999/xlink"><defs><style type="text/css"><![CDATA[.background path {fill: #808080; fill-opacity: 0}.background path:nth-child(odd) {fill-opacity: .1}.x-regions rect {fill: yellow; stroke: black; opacity: 0.5}.axes {font-size: 14px}.x-axis .tick .lab {font-weight: bold; dominant-baseline: hanging}.axes, .tree {font-size: 14px; text-anchor: middle}.axes line, .edge {stroke: black; fill: none}.axes .ax-skip {stroke-dasharray: 4}.y-axis .grid {stroke: #FAFAFA}.node > .sym {fill: black; stroke: none}.site > .sym {stroke: black}.mut text {fill: red; font-style: italic}.mut.extra text {fill: hotpink}.mut line {fill: none; stroke: none}.mut .sym {fill: none; stroke: red}.mut.extra .sym {stroke: hotpink}.node .mut .sym {stroke-width: 1.5px}.tree text, .tree-sequence text {dominant-baseline: central}.plotbox .lab.lft {text-anchor: end}.plotbox .lab.rgt {text-anchor: start}.polytomy line {stroke: black; stroke-dasharray: 1px, 1px}.polytomy text {paint-order:stroke;stroke-width:0.3em;stroke:white}]]></style></defs><g class="tree-sequence"><g class="background"><path d="M20,0 l960,0 l0,338.2 l0,25 l0,5 l-960,0 l0,-5 l0,-25 l0,-338.2z"/></g><g class="axes"><g class="x-axis"><g class="title" transform="translate(500 400)"><text class="lab" text-anchor="middle" transform="translate(0 -11)">Genome position</text></g><line class="ax-line" x1="20" x2="980" y1="363.2" y2="363.2"/><g class="ticks"><g class="tick" transform="translate(20 363.2)"><line x1="0" x2="0" y1="0" y2="5"/><g transform="translate(0 6)"><text class="lab">0</text></g></g><g class="tick" transform="translate(980 363.2)"><line x1="0" x2="0" y1="0" y2="5"/><g transform="translate(0 6)"><text class="lab">1000</text></g></g></g><g class="site s0" transform="translate(765.92 363.2)"><line class="sym" x1="0" x2="0" y1="0" y2="-10"/><g class="mut m0"><polyline class="sym" points="2.5,-6.5 0,-1.5 -2.5,-6.5"/></g></g></g></g><g class="plotbox trees"><g class="tree t0" transform="translate(20 0)"><g class="plotbox"><g class="c2 node n38 p0 root" transform="translate(551.358 26.8)"><g class="a38 c2 node n36 p0" transform="translate(-285.86 256.498)"><g class="a36 i0 leaf node n0 p1 sample" transform="translate(-222.498 38.1016)"><path class="edge" d="M 0 0 V -38.1016 H 222.498"/><rect class="sym" height="6" width="6" x="-3" y="-3"/><text class="lab" transform="translate(0 11)">0</text></g><g class="a36 c2 node n34 p0" transform="translate(222.498 10.6446)"><g class="a34 i9 leaf node n9 p1 sample" transform="translate(61.0039 27.457)"><path class="edge" d="M 0 0 V -27.457 H -61.0039"/><rect class="sym" height="6" width="6" x="-3" y="-3"/><text class="lab" transform="translate(0 11)">9</text></g><g class="a34 c2 node n33 p1" transform="translate(-61.0039 9.92713)"><g class="a33 i12 leaf node n12 p2 sample" transform="translate(76.0078 17.5299)"><path class="edge" d="M 0 0 V -17.5299 H -76.0078"/><rect class="sym" height="6" width="6" x="-3" y="-3"/><text class="lab" transform="translate(0 11)">12</text></g><g class="a33 c2 node n30 p2" transform="translate(-76.0078 6.83469)"><g class="a30 c2 node n22 p1" transform="translate(83.0156 9.52966)"><g class="a22 i2 leaf node n2 p1 sample" transform="translate(-23 1.1655)"><path class="edge" d="M 0 0 V -1.1655 H 23"/><rect class="sym" height="6" width="6" x="-3" y="-3"/><text class="lab" transform="translate(0 11)">2</text></g><g class="a22 i13 leaf node n13 p2 sample" transform="translate(23 1.1655)"><path class="edge" d="M 0 0 V -1.1655 H -23"/><rect class="sym" height="6" width="6" x="-3" y="-3"/><text class="lab" transform="translate(0 11)">13</text></g><path class="edge" d="M 0 0 V -9.52966 H -83.0156"/><circle class="sym" cx="0" cy="0" r="3"/><text class="lab rgt" transform="translate(3 -7)">22</text></g><g class="a30 c2 node n28 p1" transform="translate(-83.0156 3.2795)"><g class="a28 i18 leaf node n18 p2 sample" transform="translate(97.0312 7.41566)"><path class="edge" d="M 0 0 V -7.41566 H -97.0312"/><rect class="sym" height="6" width="6" x="-3" y="-3"/><text class="lab" transform="translate(0 11)">18</text></g><g class="a28 c2 node n27 p2" transform="translate(-97.0312 0.261974)"><g class="a27 i1 leaf node n1 p1 sample" transform="translate(-81.9375 7.15369)"><path class="edge" d="M 0 0 V -7.15369 H 81.9375"/><rect class="sym" height="6" width="6" x="-3" y="-3"/><text class="lab" transform="translate(0 11)">1</text></g><g class="a27 c2 node n26 p2" transform="translate(81.9375 0.0973327)"><g class="a26 i16 leaf node n16 p2 sample" transform="translate(66.125 7.05635)"><path class="edge" d="M 0 0 V -7.05635 H -66.125"/><rect class="sym" height="6" width="6" x="-3" y="-3"/><text class="lab" transform="translate(0 11)">16</text></g><g class="a26 c2 node n24 p1" transform="translate(-66.125 4.55939)"><g class="a24 i6 leaf node n6 p1 sample" transform="translate(-51.75 2.49696)"><path class="edge" d="M 0 0 V -2.49696 H 51.75"/><rect class="sym" height="6" width="6" x="-3" y="-3"/><text class="lab" transform="translate(0 11)">6</text></g><g class="a24 c2 node n23 p1" transform="translate(51.75 0.541708)"><g class="a23 i15 leaf node n15 p2 sample" transform="translate(34.5 1.95525)"><path class="edge" d="M 0 0 V -1.95525 H -34.5"/><rect class="sym" height="6" width="6" x="-3" y="-3"/><text class="lab" transform="translate(0 11)">15</text></g><g class="a23 c2 node n20 p2" transform="translate(-34.5 1.38308)"><g class="a20 i7 leaf node n7 p1 sample" transform="translate(-23 0.572169)"><path class="edge" d="M 0 0 V -0.572169 H 23"/><rect class="sym" height="6" width="6" x="-3" y="-3"/><text class="lab" transform="translate(0 11)">7</text></g><g class="a20 i17 leaf node n17 p2 sample" transform="translate(23 0.572169)"><path class="edge" d="M 0 0 V -0.572169 H -23"/><rect class="sym" height="6" width="6" x="-3" y="-3"/><text class="lab" transform="translate(0 11)">17</text></g><path class="edge" d="M 0 0 V -1.38308 H 34.5"/><circle class="sym" cx="0" cy="0" r="3"/><text class="lab lft" transform="translate(-3 -7)">20</text></g><path class="edge" d="M 0 0 V -0.541708 H -51.75"/><circle class="sym" cx="0" cy="0" r="3"/><text class="lab rgt" transform="translate(3 -7)">23</text></g><path class="edge" d="M 0 0 V -4.55939 H 66.125"/><circle class="sym" cx="0" cy="0" r="3"/><text class="lab lft" transform="translate(-3 -7)">24</text></g><path class="edge" d="M 0 0 V -0.0973327 H -81.9375"/><circle class="sym" cx="0" cy="0" r="3"/><text class="lab rgt" transform="translate(3 -7)">26</text></g><path class="edge" d="M 0 0 V -0.261974 H 97.0312"/><circle class="sym" cx="0" cy="0" r="3"/><text class="lab lft" transform="translate(-3 -7)">27</text></g><path class="edge" d="M 0 0 V -3.2795 H 83.0156"/><circle class="sym" cx="0" cy="0" r="3"/><text class="lab lft" transform="translate(-3 -7)">28</text></g><path class="edge" d="M 0 0 V -6.83469 H 76.0078"/><circle class="sym" cx="0" cy="0" r="3"/><text class="lab lft" transform="translate(-3 -7)">30</text></g><path class="edge" d="M 0 0 V -9.92713 H 61.0039"/><circle class="sym" cx="0" cy="0" r="3"/><text class="lab lft" transform="translate(-3 -7)">33</text></g><path class="edge" d="M 0 0 V -10.6446 H -222.498"/><circle class="sym" cx="0" cy="0" r="3"/><text class="lab rgt" transform="translate(3 -7)">34</text></g><path class="edge" d="M 0 0 V -256.498 H 285.86"/><circle class="sym" cx="0" cy="0" r="3"/><text class="lab lft" transform="translate(-3 -7)">36</text></g><g class="a38 c2 m0 node n37 p0 s0" transform="translate(285.86 204.215)"><g class="a37 c2 node n25 p1" transform="translate(56.7812 87.6838)"><g class="a25 i4 leaf node n4 p1 sample" transform="translate(-23 2.70084)"><path class="edge" d="M 0 0 V -2.70084 H 23"/><rect class="sym" height="6" width="6" x="-3" y="-3"/><text class="lab" transform="translate(0 11)">4</text></g><g class="a25 i11 leaf node n11 p2 sample" transform="translate(23 2.70084)"><path class="edge" d="M 0 0 V -2.70084 H -23"/><rect class="sym" height="6" width="6" x="-3" y="-3"/><text class="lab" transform="translate(0 11)">11</text></g><path class="edge" d="M 0 0 V -87.6838 H -56.7812"/><circle class="sym" cx="0" cy="0" r="3"/><text class="lab rgt" transform="translate(3 -7)">25</text></g><g class="a37 c2 node n35 p0" transform="translate(-56.7812 52.978)"><g class="a35 i10 leaf node n10 p2 sample" transform="translate(44.5625 37.4066)"><path class="edge" d="M 0 0 V -37.4066 H -44.5625"/><rect class="sym" height="6" width="6" x="-3" y="-3"/><text class="lab" transform="translate(0 11)">10</text></g><g class="a35 c2 node n32 p1" transform="translate(-44.5625 21.9671)"><g class="a32 i19 leaf node n19 p2 sample" transform="translate(43.125 15.4395)"><path class="edge" d="M 0 0 V -15.4395 H -43.125"/><rect class="sym" height="6" width="6" x="-3" y="-3"/><text class="lab" transform="translate(0 11)">19</text></g><g class="a32 c2 node n31 p1" transform="translate(-43.125 1.04779)"><g class="a31 i8 leaf node n8 p1 sample" transform="translate(40.25 14.3918)"><path class="edge" d="M 0 0 V -14.3918 H -40.25"/><rect class="sym" height="6" width="6" x="-3" y="-3"/><text class="lab" transform="translate(0 11)">8</text></g><g class="a31 c2 node n29 p2" transform="translate(-40.25 5.46813)"><g class="a29 i14 leaf node n14 p2 sample" transform="translate(34.5 8.92363)"><path class="edge" d="M 0 0 V -8.92363 H -34.5"/><rect class="sym" height="6" width="6" x="-3" y="-3"/><text class="lab" transform="translate(0 11)">14</text></g><g class="a29 c2 node n21 p1" transform="translate(-34.5 7.90043)"><g class="a21 i3 leaf node n3 p1 sample" transform="translate(-23 1.0232)"><path class="edge" d="M 0 0 V -1.0232 H 23"/><rect class="sym" height="6" width="6" x="-3" y="-3"/><text class="lab" transform="translate(0 11)">3</text></g><g class="a21 i5 leaf node n5 p1 sample" transform="translate(23 1.0232)"><path class="edge" d="M 0 0 V -1.0232 H -23"/><rect class="sym" height="6" width="6" x="-3" y="-3"/><text class="lab" transform="translate(0 11)">5</text></g><path class="edge" d="M 0 0 V -7.90043 H 34.5"/><circle class="sym" cx="0" cy="0" r="3"/><text class="lab lft" transform="translate(-3 -7)">21</text></g><path class="edge" d="M 0 0 V -5.46813 H 40.25"/><circle class="sym" cx="0" cy="0" r="3"/><text class="lab lft" transform="translate(-3 -7)">29</text></g><path class="edge" d="M 0 0 V -1.04779 H 43.125"/><circle class="sym" cx="0" cy="0" r="3"/><text class="lab lft" transform="translate(-3 -7)">31</text></g><path class="edge" d="M 0 0 V -21.9671 H 44.5625"/><circle class="sym" cx="0" cy="0" r="3"/><text class="lab lft" transform="translate(-3 -7)">32</text></g><path class="edge" d="M 0 0 V -52.978 H 56.7812"/><circle class="sym" cx="0" cy="0" r="3"/><text class="lab lft" transform="translate(-3 -7)">35</text></g><path class="edge" d="M 0 0 V -204.215 H -285.86"/><g class="mut m0 s0" transform="translate(0 -128.449)"><line x1="0" x2="0" y1="0" y2="128.449"/><path class="sym" d="M -3,-3 l 6,6 M -3,3 l 6,-6"/><text class="lab rgt" transform="translate(5 0)">0</text></g><circle class="sym" cx="0" cy="0" r="3"/><text class="lab rgt" transform="translate(3 -7)">37</text></g><circle class="sym" cx="0" cy="0" r="3"/><text class="lab" transform="translate(0 -11)">38</text></g></g></g></g></g></svg>