<svg baseProfile="full" height="400" version="1.1" width="1000" xmlns="http://www.w3.org/2000/svg" xmlns:ev="http://www.w3.org/2001/xml-events" xmlns:xlink="http://www.w3.org/1999/xlink"><defs><style type="text/css"><![CDATA[.background path {fill: #808080; fill-opacity: 0}.background path:nth-child(odd) {fill-opacity: .1}.x-regions rect {fill: yellow; stroke: black; opacity: 0.5}.axes {font-size: 14px}.x-axis .tick .lab {font-weight: bold; dominant-baseline: hanging}.axes, .tree {font-size: 14px; text-anchor: middle}.axes line, .edge {stroke: black; fill: none}.axes .ax-skip {stroke-dasharray: 4}.y-axis .grid {stroke: #FAFAFA}.node > .sym {fill: black; stroke: none}.site > .sym {stroke: black}.mut text {fill: red; font-style: italic}.mut.extra text {fill: hotpink}.mut line {fill: none; stroke: none}.mut .sym {fill: none; stroke: red}.mut.extra .sym {stroke: hotpink}.node .mut .sym {stroke-width: 1.5px}.tree text, .tree-sequence text {dominant-baseline: central}.plotbox .lab.lft {text-anchor: end}.plotbox .lab.rgt {text-anchor: start}.polytomy line {stroke: black; stroke-dasharray: 1px, 1px}.polytomy text {paint-order:stroke;stroke-width:0.3em;stroke:white}]]></style></defs><g class="tree-sequence"><g class="background"><path d="M20,0 l960,0 l0,338.2 l0,25 l0,5 l-960,0 l0,-5 l0,-25 l0,-338.2z"/></g><g class="axes"><g class="x-axis"><g class="title" transform="translate(500 400)"><text class="lab" text-anchor="middle" transform="translate(0 -11)">Genome position</text></g><line class="ax-line" x1="20" x2="980" y1="363.2" y2="363.2"/><g class="ticks"><g class="tick" transform="translate(20 363.2)"><line x1="0" x2="0" y1="0" y2="5"/><g transform="translate(0 6)"><text class="lab">0</text></g></g><g class="tick" transform="translate(980 363.2)"><line x1="0" x2="0" y1="0" y2="5"/><g transform="translate(0 6)"><text class="lab">1000</text></g></g></g><g class="site s0" transform="translate(45.92 363.2)"><line class="sym" x1="0" x2="0" y1="0" y2="-10"/><g class="mut m0"><polyline class="sym" points="2.5,-6.5 0,-1.5 -2.5,-6.5"/></g></g><g class="site s1" transform="translate(151.52 363.2)"><line class="sym" x1="0" x2="0" y1="0" y2="-10"/><g class="mut m1"><polyline class="sym" points="2.5,-6.5 0,-1.5 -2.5,-6.5"/></g></g><g class="site s2" transform="translate(162.08 363.2)"><line class="sym" x1="0" x2="0" y1="0" y2="-10"/><g class="mut m2"><polyline class="sym" points="2.5,-6.5 0,-1.5 -2.5,-6.5"/></g></g><g class="site s3" transform="translate(420.32 363.2)"><line class="sym" x1="0" x2="0" y1="0" y2="-10"/><g class="mut m3"><polyline class="sym" points="2.5,-6.5 0,-1.5 -2.5,-6.5"/></g></g><g class="site s4" transform="translate(560.48 363.2)"><line class="sym" x1="0" x2="0" y1="0" y2="-10"/><g class="mut m4"><polyline class="sym" points="2.5,-6.5 0,-1.5 -2.5,-6.5"/></g></g><g class="site s5" transform="translate(774.56 363.2)"><line class="sym" x1="0" x2="0" y1="0" y2="-10"/><g class="mut m5"><polyline class="sym" points="2.5,-6.5 0,-1.5 -2.5,-6.5"/></g></g></g></g><g class="plotbox trees"><g class="tree t0" transform="translate(20 0)"><g class="plotbox"><g class="c2 node n38 p0 root" transform="translate(595.359 26.8)"><g class="a38 c2 m0 m3 m5 node n36 p1 s0 s3 s5" transform="translate(278.516 256.582)"><g class="a36 i19 leaf node n19 p2 sample" transform="translate(43.125 38.0183)"><path class="edge" d="M 0 0 V -38.0183 H -43.125"/><rect class="sym" height="6" width="6" x="-3" y="-3"/><text class="lab" transform="translate(0 11)">19</text></g><g class="a36 c2 m1 node n25 p1 s1" transform="translate(-43.125 35.9367)"><g class="a25 i11 leaf node n11 p2 sample" transform="translate(40.25 2.08156)"><path class="edge" d="M 0 0 V -2.08156 H -40.25"/><rect class="sym" height="6" width="6" x="-3" y="-3"/><text class="lab" transform="translate(0 11)">11</text></g><g class="a25 c2 node n24 p1" transform="translate(-40.25 0.226503)"><g class="a24 i14 leaf node n14 p2 sample" transform="translate(34.5 1.85506)"><path class="edge" d="M 0 0 V -1.85506 H -34.5"/><rect class="sym" height="6" width="6" x="-3" y="-3"/><text class="lab" transform="translate(0 11)">14</text></g><g class="a24 c2 node n20 p1" transform="translate(-34.5 0.877203)"><g class="a20 i2 leaf node n2 p1 sample" transform="translate(-23 0.977853)"><path class="edge" d="M 0 0 V -0.977853 H 23"/><rect class="sym" height="6" width="6" x="-3" y="-3"/><text class="lab" transform="translate(0 11)">2</text></g><g class="a20 i12 leaf node n12 p2 sample" transform="translate(23 0.977853)"><path class="edge" d="M 0 0 V -0.977853 H -23"/><rect class="sym" height="6" width="6" x="-3" y="-3"/><text class="lab" transform="translate(0 11)">12</text></g><path class="edge" d="M 0 0 V -0.877203 H 34.5"/><circle class="sym" cx="0" cy="0" r="3"/><text class="lab lft" transform="translate(-3 -7)">20</text></g><path class="edge" d="M 0 0 V -0.226503 H 40.25"/><circle class="sym" cx="0" cy="0" r="3"/><text class="lab lft" transform="translate(-3 -7)">24</text></g><path class="edge" d="M 0 0 V -35.9367 H 43.125"/><g class="mut m1 s1" transform="translate(0 -0.20999)"><line x1="0" x2="0" y1="0" y2="0.20999"/><path class="sym" d="M -3,-3 l 6,6 M -3,3 l 6,-6"/><text class="lab lft" transform="translate(-5 0)">1</text></g><circle class="sym" cx="0" cy="0" r="3"/><text class="lab lft" transform="translate(-3 -7)">25</text></g><path class="edge" d="M 0 0 V -256.582 H -278.516"/><g class="mut m3 s3" transform="translate(0 -238.293)"><line x1="0" x2="0" y1="0" y2="238.293"/><path class="sym" d="M -3,-3 l 6,6 M -3,3 l 6,-6"/><text class="lab rgt" transform="translate(5 0)">3</text></g><g class="mut m0 s0" transform="translate(0 -214.111)"><line x1="0" x2="0" y1="0" y2="214.111"/><path class="sym" d="M -3,-3 l 6,6 M -3,3 l 6,-6"/><text class="lab rgt" transform="translate(5 0)">0</text></g><g class="mut m5 s5" transform="translate(0 -42.1767)"><line x1="0" x2="0" y1="0" y2="42.1767"/><path class="sym" d="M -3,-3 l 6,6 M -3,3 l 6,-6"/><text class="lab rgt" transform="translate(5 0)">5</text></g><circle class="sym" cx="0" cy="0" r="3"/><text class="lab rgt" transform="translate(3 -7)">36</text></g><g class="a38 c2 m2 m4 node n37 p2 s2 s4" transform="translate(-278.516 158.868)"><g class="a37 c2 node n34 p2" transform="translate(201.969 117.923)"><g class="a34 c2 node n32 p1" transform="translate(-110.688 2.94959)"><g class="a32 i17 leaf node n17 p2 sample" transform="translate(48.875 14.8599)"><path class="edge" d="M 0 0 V -14.8599 H -48.875"/><rect class="sym" height="6" width="6" x="-3" y="-3"/><text class="lab" transform="translate(0 11)">17</text></g><g class="a32 c2 node n31 p2" transform="translate(-48.875 1.86552)"><g class="a31 i7 leaf node n7 p1 sample" transform="translate(51.75 12.9944)"><path class="edge" d="M 0 0 V -12.9944 H -51.75"/><rect class="sym" height="6" width="6" x="-3" y="-3"/><text class="lab" transform="translate(0 11)">7</text></g><g class="a31 c2 node n29 p2" transform="translate(-51.75 7.76878)"><g class="a29 i1 leaf node n1 p1 sample" transform="translate(-34.5 5.22561)"><path class="edge" d="M 0 0 V -5.22561 H 34.5"/><rect class="sym" height="6" width="6" x="-3" y="-3"/><text class="lab" transform="translate(0 11)">1</text></g><g class="a29 c2 node n28 p1" transform="translate(34.5 1.11543)"><g class="a28 i10 leaf node n10 p2 sample" transform="translate(-23 4.11017)"><path class="edge" d="M 0 0 V -4.11017 H 23"/><rect class="sym" height="6" width="6" x="-3" y="-3"/><text class="lab" transform="translate(0 11)">10</text></g><g class="a28 i13 leaf node n13 p2 sample" transform="translate(23 4.11017)"><path class="edge" d="M 0 0 V -4.11017 H -23"/><rect class="sym" height="6" width="6" x="-3" y="-3"/><text class="lab" transform="translate(0 11)">13</text></g><path class="edge" d="M 0 0 V -1.11543 H -34.5"/><circle class="sym" cx="0" cy="0" r="3"/><text class="lab rgt" transform="translate(3 -7)">28</text></g><path class="edge" d="M 0 0 V -7.76878 H 51.75"/><circle class="sym" cx="0" cy="0" r="3"/><text class="lab lft" transform="translate(-3 -7)">29</text></g><path class="edge" d="M 0 0 V -1.86552 H 48.875"/><circle class="sym" cx="0" cy="0" r="3"/><text class="lab lft" transform="translate(-3 -7)">31</text></g><path class="edge" d="M 0 0 V -2.94959 H 110.688"/><circle class="sym" cx="0" cy="0" r="3"/><text class="lab lft" transform="translate(-3 -7)">32</text></g><g class="a34 c2 node n33 p1" transform="translate(110.688 0.0760093)"><g class="a33 i15 leaf node n15 p2 sample" transform="translate(57.5 17.7335)"><path class="edge" d="M 0 0 V -17.7335 H -57.5"/><rect class="sym" height="6" width="6" x="-3" y="-3"/><text class="lab" transform="translate(0 11)">15</text></g><g class="a33 c2 node n30 p2" transform="translate(-57.5 10.8358)"><g class="a30 c2 node n21 p2" transform="translate(-46 5.54015)"><g class="a21 i3 leaf node n3 p1 sample" transform="translate(-23 1.35755)"><path class="edge" d="M 0 0 V -1.35755 H 23"/><rect class="sym" height="6" width="6" x="-3" y="-3"/><text class="lab" transform="translate(0 11)">3</text></g><g class="a21 i5 leaf node n5 p1 sample" transform="translate(23 1.35755)"><path class="edge" d="M 0 0 V -1.35755 H -23"/><rect class="sym" height="6" width="6" x="-3" y="-3"/><text class="lab" transform="translate(0 11)">5</text></g><path class="edge" d="M 0 0 V -5.54015 H 46"/><circle class="sym" cx="0" cy="0" r="3"/><text class="lab lft" transform="translate(-3 -7)">21</text></g><g class="a30 c2 node n22 p2" transform="translate(46 5.35342)"><g class="a22 i16 leaf node n16 p2 sample" transform="translate(-23 1.54428)"><path class="edge" d="M 0 0 V -1.54428 H 23"/><rect class="sym" height="6" width="6" x="-3" y="-3"/><text class="lab" transform="translate(0 11)">16</text></g><g class="a22 i18 leaf node n18 p2 sample" transform="translate(23 1.54428)"><path class="edge" d="M 0 0 V -1.54428 H -23"/><rect class="sym" height="6" width="6" x="-3" y="-3"/><text class="lab" transform="translate(0 11)">18</text></g><path class="edge" d="M 0 0 V -5.35342 H -46"/><circle class="sym" cx="0" cy="0" r="3"/><text class="lab rgt" transform="translate(3 -7)">22</text></g><path class="edge" d="M 0 0 V -10.8358 H 57.5"/><circle class="sym" cx="0" cy="0" r="3"/><text class="lab lft" transform="translate(-3 -7)">30</text></g><path class="edge" d="M 0 0 V -0.0760093 H -110.688"/><circle class="sym" cx="0" cy="0" r="3"/><text class="lab rgt" transform="translate(3 -7)">33</text></g><path class="edge" d="M 0 0 V -117.923 H -201.969"/><circle class="sym" cx="0" cy="0" r="3"/><text class="lab rgt" transform="translate(3 -7)">34</text></g><g class="a37 c2 node n35 p2" transform="translate(-201.969 102.195)"><g class="a35 i0 leaf node n0 p1 sample" transform="translate(-71.875 33.537)"><path class="edge" d="M 0 0 V -33.537 H 71.875"/><rect class="sym" height="6" width="6" x="-3" y="-3"/><text class="lab" transform="translate(0 11)">0</text></g><g class="a35 c2 node n27 p1" transform="translate(71.875 30.2456)"><g class="a27 i6 leaf node n6 p1 sample" transform="translate(40.25 3.29137)"><path class="edge" d="M 0 0 V -3.29137 H -40.25"/><rect class="sym" height="6" width="6" x="-3" y="-3"/><text class="lab" transform="translate(0 11)">6</text></g><g class="a27 c2 node n26 p2" transform="translate(-40.25 0.418256)"><g class="a26 i9 leaf node n9 p1 sample" transform="translate(34.5 2.87312)"><path class="edge" d="M 0 0 V -2.87312 H -34.5"/><rect class="sym" height="6" width="6" x="-3" y="-3"/><text class="lab" transform="translate(0 11)">9</text></g><g class="a26 c2 node n23 p2" transform="translate(-34.5 1.13954)"><g class="a23 i4 leaf node n4 p1 sample" transform="translate(-23 1.73358)"><path class="edge" d="M 0 0 V -1.73358 H 23"/><rect class="sym" height="6" width="6" x="-3" y="-3"/><text class="lab" transform="translate(0 11)">4</text></g><g class="a23 i8 leaf node n8 p1 sample" transform="translate(23 1.73358)"><path class="edge" d="M 0 0 V -1.73358 H -23"/><rect class="sym" height="6" width="6" x="-3" y="-3"/><text class="lab" transform="translate(0 11)">8</text></g><path class="edge" d="M 0 0 V -1.13954 H 34.5"/><circle class="sym" cx="0" cy="0" r="3"/><text class="lab lft" transform="translate(-3 -7)">23</text></g><path class="edge" d="M 0 0 V -0.418256 H 40.25"/><circle class="sym" cx="0" cy="0" r="3"/><text class="lab lft" transform="translate(-3 -7)">26</text></g><path class="edge" d="M 0 0 V -30.2456 H -71.875"/><circle class="sym" cx="0" cy="0" r="3"/><text class="lab rgt" transform="translate(3 -7)">27</text></g><path class="edge" d="M 0 0 V -102.195 H 201.969"/><circle class="sym" cx="0" cy="0" r="3"/><text class="lab lft" transform="translate(-3 -7)">35</text></g><path class="edge" d="M 0 0 V -158.868 H 278.516"/><g class="mut m2 s2" transform="translate(0 -144.564)"><line x1="0" x2="0" y1="0" y2="144.564"/><path class="sym" d="M -3,-3 l 6,6 M -3,3 l 6,-6"/><text class="lab lft" transform="translate(-5 0)">2</text></g><g class="mut m4 s4" transform="translate(0 -126.26)"><line x1="0" x2="0" y1="0" y2="126.26"/><path class="sym" d="M -3,-3 l 6,6 M -3,3 l 6,-6"/><text class="lab lft" transform="translate(-5 0)">4</text></g><circle class="sym" cx="0" cy="0" r="3"/><text class="lab lft" transform="translate(-3 -7)">37</text></g><circle class="sym" cx="0" cy="0" r="3"/><text class="lab" transform="translate(0 -11)">38</text></g></g></g></g></g></svg>