<svg baseProfile="full" height="400" version="1.1" width="1000" xmlns="http://www.w3.org/2000/svg" xmlns:ev="http://www.w3.org/2001/xml-events" xmlns:xlink="http://www.w3.org/1999/xlink"><defs><style type="text/css"><![CDATA[.background path {fill: #808080; fill-opacity: 0}.background path:nth-child(odd) {fill-opacity: .1}.x-regions rect {fill: yellow; stroke: black; opacity: 0.5}.axes {font-size: 14px}.x-axis .tick .lab {font-weight: bold; dominant-baseline: hanging}.axes, .tree {font-size: 14px; text-anchor: middle}.axes line, .edge {stroke: black; fill: none}.axes .ax-skip {stroke-dasharray: 4}.y-axis .grid {stroke: #FAFAFA}.node > .sym {fill: black; stroke: none}.site > .sym {stroke: black}.mut text {fill: red; font-style: italic}.mut.extra text {fill: hotpink}.mut line {fill: none; stroke: none}.mut .sym {fill: none; stroke: red}.mut.extra .sym {stroke: hotpink}.node .mut .sym {stroke-width: 1.5px}.tree text, .tree-sequence text {dominant-baseline: central}.plotbox .lab.lft {text-anchor: end}.plotbox .lab.rgt {text-anchor: start}.polytomy line {stroke: black; stroke-dasharray: 1px, 1px}.polytomy text {paint-order:stroke;stroke-width:0.3em;stroke:white}]]></style></defs><g class="tree-sequence"><g class="background"><path d="M20,0 l960,0 l0,338.2 l0,25 l0,5 l-960,0 l0,-5 l0,-25 l0,-338.2z"/></g><g class="axes"><g class="x-axis"><g class="title" transform="translate(500 400)"><text class="lab" text-anchor="middle" transform="translate(0 -11)">Genome position</text></g><line class="ax-line" x1="20" x2="980" y1="363.2" y2="363.2"/><g class="ticks"><g class="tick" transform="translate(20 363.2)"><line x1="0" x2="0" y1="0" y2="5"/><g transform="translate(0 6)"><text class="lab">0</text></g></g><g class="tick" transform="translate(980 363.2)"><line x1="0" x2="0" y1="0" y2="5"/><g transform="translate(0 6)"><text class="lab">1000</text></g></g></g><g class="site s0" transform="translate(519.2 363.2)"><line class="sym" x1="0" x2="0" y1="0" y2="-10"/><g class="mut m0"><polyline class="sym" points="2.5,-6.5 0,-1.5 -2.5,-6.5"/></g></g><g class="site s1" transform="translate(570.08 363.2)"><line class="sym" x1="0" x2="0" y1="0" y2="-10"/><g class="mut m1"><polyline class="sym" points="2.5,-6.5 0,-1.5 -2.5,-6.5"/></g></g><g class="site s2" transform="translate(818.72 363.2)"><line class="sym" x1="0" x2="0" y1="0" y2="-10"/><g class="mut m2"><polyline class="sym" points="2.5,-6.5 0,-1.5 -2.5,-6.5"/></g></g></g></g><g class="plotbox trees"><g class="tree t0" transform="translate(20 0)"><g class="plotbox"><g class="c2 node n38 p1 root" transform="translate(585.297 26.8)"><g class="a38 c2 m2 node n36 p1 s2" transform="translate(210.953 228.641)"><g class="a36 c2 node n29 p2" transform="translate(-86.25 50.4238)"><g class="a29 c2 node n26 p1" transform="translate(-46 11.8726)"><g class="a26 i1 leaf node n1 p1 sample" transform="translate(-23 3.66251)"><path class="edge" d="M 0 0 V -3.66251 H 23"/><rect class="sym" height="6" width="6" x="-3" y="-3"/><text class="lab" transform="translate(0 11)">1</text></g><g class="a26 i6 leaf node n6 p1 sample" transform="translate(23 3.66251)"><path class="edge" d="M 0 0 V -3.66251 H -23"/><rect class="sym" height="6" width="6" x="-3" y="-3"/><text class="lab" transform="translate(0 11)">6</text></g><path class="edge" d="M 0 0 V -11.8726 H 46"/><circle class="sym" cx="0" cy="0" r="3"/><text class="lab lft" transform="translate(-3 -7)">26</text></g><g class="a29 c2 node n28 p1" transform="translate(46 10.1445)"><g class="a28 i15 leaf node n15 p2 sample" transform="translate(-23 5.39066)"><path class="edge" d="M 0 0 V -5.39066 H 23"/><rect class="sym" height="6" width="6" x="-3" y="-3"/><text class="lab" transform="translate(0 11)">15</text></g><g class="a28 i16 leaf node n16 p2 sample" transform="translate(23 5.39066)"><path class="edge" d="M 0 0 V -5.39066 H -23"/><rect class="sym" height="6" width="6" x="-3" y="-3"/><text class="lab" transform="translate(0 11)">16</text></g><path class="edge" d="M 0 0 V -10.1445 H -46"/><circle class="sym" cx="0" cy="0" r="3"/><text class="lab rgt" transform="translate(3 -7)">28</text></g><path class="edge" d="M 0 0 V -50.4238 H 86.25"/><circle class="sym" cx="0" cy="0" r="3"/><text class="lab lft" transform="translate(-3 -7)">29</text></g><g class="a36 c2 node n30 p2" transform="translate(86.25 42.4594)"><g class="a30 i19 leaf node n19 p2 sample" transform="translate(34.5 23.4995)"><path class="edge" d="M 0 0 V -23.4995 H -34.5"/><rect class="sym" height="6" width="6" x="-3" y="-3"/><text class="lab" transform="translate(0 11)">19</text></g><g class="a30 c2 node n21 p2" transform="translate(-34.5 23.0436)"><g class="a21 i8 leaf node n8 p1 sample" transform="translate(-23 0.455898)"><path class="edge" d="M 0 0 V -0.455898 H 23"/><rect class="sym" height="6" width="6" x="-3" y="-3"/><text class="lab" transform="translate(0 11)">8</text></g><g class="a21 i10 leaf node n10 p2 sample" transform="translate(23 0.455898)"><path class="edge" d="M 0 0 V -0.455898 H -23"/><rect class="sym" height="6" width="6" x="-3" y="-3"/><text class="lab" transform="translate(0 11)">10</text></g><path class="edge" d="M 0 0 V -23.0436 H 34.5"/><circle class="sym" cx="0" cy="0" r="3"/><text class="lab lft" transform="translate(-3 -7)">21</text></g><path class="edge" d="M 0 0 V -42.4594 H -86.25"/><circle class="sym" cx="0" cy="0" r="3"/><text class="lab rgt" transform="translate(3 -7)">30</text></g><path class="edge" d="M 0 0 V -228.641 H -210.953"/><g class="mut m2 s2" transform="translate(0 -100.622)"><line x1="0" x2="0" y1="0" y2="100.622"/><path class="sym" d="M -3,-3 l 6,6 M -3,3 l 6,-6"/><text class="lab rgt" transform="translate(5 0)">2</text></g><circle class="sym" cx="0" cy="0" r="3"/><text class="lab rgt" transform="translate(3 -7)">36</text></g><g class="a38 c2 m1 node n37 p1 s1" transform="translate(-210.953 157.182)"><g class="a37 c2 node n34 p2" transform="translate(143.031 84.5441)"><g class="a34 c2 node n23 p1" transform="translate(54.625 51.8457)"><g class="a23 i4 leaf node n4 p1 sample" transform="translate(-23 1.02802)"><path class="edge" d="M 0 0 V -1.02802 H 23"/><rect class="sym" height="6" width="6" x="-3" y="-3"/><text class="lab" transform="translate(0 11)">4</text></g><g class="a23 i14 leaf node n14 p2 sample" transform="translate(23 1.02802)"><path class="edge" d="M 0 0 V -1.02802 H -23"/><rect class="sym" height="6" width="6" x="-3" y="-3"/><text class="lab" transform="translate(0 11)">14</text></g><path class="edge" d="M 0 0 V -51.8457 H -54.625"/><circle class="sym" cx="0" cy="0" r="3"/><text class="lab rgt" transform="translate(3 -7)">23</text></g><g class="a34 c2 node n33 p2" transform="translate(-54.625 16.5132)"><g class="a33 i9 leaf m0 node n9 p1 s0 sample" transform="translate(40.25 36.3605)"><path class="edge" d="M 0 0 V -36.3605 H -40.25"/><g class="mut m0 s0" transform="translate(0 -27.8076)"><line x1="0" x2="0" y1="0" y2="27.8076"/><path class="sym" d="M -3,-3 l 6,6 M -3,3 l 6,-6"/><text class="lab rgt" transform="translate(5 0)">0</text></g><rect class="sym" height="6" width="6" x="-3" y="-3"/><text class="lab" transform="translate(0 11)">9</text></g><g class="a33 c2 node n25 p2" transform="translate(-40.25 33.1698)"><g class="a25 i17 leaf node n17 p2 sample" transform="translate(34.5 3.19074)"><path class="edge" d="M 0 0 V -3.19074 H -34.5"/><rect class="sym" height="6" width="6" x="-3" y="-3"/><text class="lab" transform="translate(0 11)">17</text></g><g class="a25 c2 node n24 p1" transform="translate(-34.5 0.747963)"><g class="a24 i3 leaf node n3 p1 sample" transform="translate(-23 2.44277)"><path class="edge" d="M 0 0 V -2.44277 H 23"/><rect class="sym" height="6" width="6" x="-3" y="-3"/><text class="lab" transform="translate(0 11)">3</text></g><g class="a24 i12 leaf node n12 p2 sample" transform="translate(23 2.44277)"><path class="edge" d="M 0 0 V -2.44277 H -23"/><rect class="sym" height="6" width="6" x="-3" y="-3"/><text class="lab" transform="translate(0 11)">12</text></g><path class="edge" d="M 0 0 V -0.747963 H 34.5"/><circle class="sym" cx="0" cy="0" r="3"/><text class="lab lft" transform="translate(-3 -7)">24</text></g><path class="edge" d="M 0 0 V -33.1698 H 40.25"/><circle class="sym" cx="0" cy="0" r="3"/><text class="lab lft" transform="translate(-3 -7)">25</text></g><path class="edge" d="M 0 0 V -16.5132 H 54.625"/><circle class="sym" cx="0" cy="0" r="3"/><text class="lab lft" transform="translate(-3 -7)">33</text></g><path class="edge" d="M 0 0 V -84.5441 H -143.031"/><circle class="sym" cx="0" cy="0" r="3"/><text class="lab rgt" transform="translate(3 -7)">34</text></g><g class="a37 c2 node n35 p2" transform="translate(-143.031 78.5736)"><g class="a35 i18 leaf node n18 p2 sample" transform="translate(87.6875 58.8442)"><path class="edge" d="M 0 0 V -58.8442 H -87.6875"/><rect class="sym" height="6" width="6" x="-3" y="-3"/><text class="lab" transform="translate(0 11)">18</text></g><g class="a35 c2 node n32 p1" transform="translate(-87.6875 29.938)"><g class="a32 c2 node n20 p2" transform="translate(-77.625 28.5981)"><g class="a20 i0 leaf node n0 p1 sample" transform="translate(-23 0.308115)"><path class="edge" d="M 0 0 V -0.308115 H 23"/><rect class="sym" height="6" width="6" x="-3" y="-3"/><text class="lab" transform="translate(0 11)">0</text></g><g class="a20 i11 leaf node n11 p2 sample" transform="translate(23 0.308115)"><path class="edge" d="M 0 0 V -0.308115 H -23"/><rect class="sym" height="6" width="6" x="-3" y="-3"/><text class="lab" transform="translate(0 11)">11</text></g><path class="edge" d="M 0 0 V -28.5981 H 77.625"/><circle class="sym" cx="0" cy="0" r="3"/><text class="lab lft" transform="translate(-3 -7)">20</text></g><g class="a32 c2 node n31 p2" transform="translate(77.625 5.18591)"><g class="a31 i7 leaf node n7 p1 sample" transform="translate(51.75 23.7203)"><path class="edge" d="M 0 0 V -23.7203 H -51.75"/><rect class="sym" height="6" width="6" x="-3" y="-3"/><text class="lab" transform="translate(0 11)">7</text></g><g class="a31 c2 node n27 p2" transform="translate(-51.75 19.8209)"><g class="a27 i2 leaf node n2 p1 sample" transform="translate(-34.5 3.8994)"><path class="edge" d="M 0 0 V -3.8994 H 34.5"/><rect class="sym" height="6" width="6" x="-3" y="-3"/><text class="lab" transform="translate(0 11)">2</text></g><g class="a27 c2 node n22 p1" transform="translate(34.5 2.98032)"><g class="a22 i5 leaf node n5 p1 sample" transform="translate(-23 0.919084)"><path class="edge" d="M 0 0 V -0.919084 H 23"/><rect class="sym" height="6" width="6" x="-3" y="-3"/><text class="lab" transform="translate(0 11)">5</text></g><g class="a22 i13 leaf node n13 p2 sample" transform="translate(23 0.919084)"><path class="edge" d="M 0 0 V -0.919084 H -23"/><rect class="sym" height="6" width="6" x="-3" y="-3"/><text class="lab" transform="translate(0 11)">13</text></g><path class="edge" d="M 0 0 V -2.98032 H -34.5"/><circle class="sym" cx="0" cy="0" r="3"/><text class="lab rgt" transform="translate(3 -7)">22</text></g><path class="edge" d="M 0 0 V -19.8209 H 51.75"/><circle class="sym" cx="0" cy="0" r="3"/><text class="lab lft" transform="translate(-3 -7)">27</text></g><path class="edge" d="M 0 0 V -5.18591 H -77.625"/><circle class="sym" cx="0" cy="0" r="3"/><text class="lab rgt" transform="translate(3 -7)">31</text></g><path class="edge" d="M 0 0 V -29.938 H 87.6875"/><circle class="sym" cx="0" cy="0" r="3"/><text class="lab lft" transform="translate(-3 -7)">32</text></g><path class="edge" d="M 0 0 V -78.5736 H 143.031"/><circle class="sym" cx="0" cy="0" r="3"/><text class="lab lft" transform="translate(-3 -7)">35</text></g><path class="edge" d="M 0 0 V -157.182 H 210.953"/><g class="mut m1 s1" transform="translate(0 -5.79371)"><line x1="0" x2="0" y1="0" y2="5.79371"/><path class="sym" d="M -3,-3 l 6,6 M -3,3 l 6,-6"/><text class="lab lft" transform="translate(-5 0)">1</text></g><circle class="sym" cx="0" cy="0" r="3"/><text class="lab lft" transform="translate(-3 -7)">37</text></g><circle class="sym" cx="0" cy="0" r="3"/><text class="lab" transform="translate(0 -11)">38</text></g></g></g></g></g></svg>