<svg baseProfile="full" height="400" version="1.1" width="1000" xmlns="http://www.w3.org/2000/svg" xmlns:ev="http://www.w3.org/2001/xml-events" xmlns:xlink="http://www.w3.org/1999/xlink"><defs><style type="text/css"><![CDATA[.background path {fill: #808080; fill-opacity: 0}.background path:nth-child(odd) {fill-opacity: .1}.x-regions rect {fill: yellow; stroke: black; opacity: 0.5}.axes {font-size: 14px}.x-axis .tick .lab {font-weight: bold; dominant-baseline: hanging}.axes, .tree {font-size: 14px; text-anchor: middle}.axes line, .edge {stroke: black; fill: none}.axes .ax-skip {stroke-dasharray: 4}.y-axis .grid {stroke: #FAFAFA}.node > .sym {fill: black; stroke: none}.site > .sym {stroke: black}.mut text {fill: red; font-style: italic}.mut.extra text {fill: hotpink}.mut line {fill: none; stroke: none}.mut .sym {fill: none; stroke: red}.mut.extra .sym {stroke: hotpink}.node .mut .sym {stroke-width: 1.5px}.tree text, .tree-sequence text {dominant-baseline: central}.plotbox .lab.lft {text-anchor: end}.plotbox .lab.rgt {text-anchor: start}.polytomy line {stroke: black; stroke-dasharray: 1px, 1px}.polytomy text {paint-order:stroke;stroke-width:0.3em;stroke:white}]]></style></defs><g class="tree-sequence"><g class="background"><path d="M20,0 l960,0 l0,338.2 l0,25 l0,5 l-960,0 l0,-5 l0,-25 l0,-338.2z"/></g><g class="axes"><g class="x-axis"><g class="title" transform="translate(500 400)"><text class="lab" text-anchor="middle" transform="translate(0 -11)">Genome position</text></g><line class="ax-line" x1="20" x2="980" y1="363.2" y2="363.2"/><g class="ticks"><g class="tick" transform="translate(20 363.2)"><line x1="0" x2="0" y1="0" y2="5"/><g transform="translate(0 6)"><text class="lab">0</text></g></g><g class="tick" transform="translate(980 363.2)"><line x1="0" x2="0" y1="0" y2="5"/><g transform="translate(0 6)"><text class="lab">1000</text></g></g></g><g class="site s0" transform="translate(866.72 363.2)"><line class="sym" x1="0" x2="0" y1="0" y2="-10"/><g class="mut m0"><polyline class="sym" points="2.5,-6.5 0,-1.5 -2.5,-6.5"/></g></g></g></g><g class="plotbox trees"><g class="tree t0" transform="translate(20 0)"><g class="plotbox"><g class="c2 node n38 p1 root" transform="translate(389.797 26.8)"><g class="a38 c2 node n28 p2" transform="translate(-277.797 266.993)"><g class="a28 c2 node n26 p1" transform="translate(46 15.8666)"><g class="a26 i14 leaf node n14 p2 sample" transform="translate(-23 11.7409)"><path class="edge" d="M 0 0 V -11.7409 H 23"/><rect class="sym" height="6" width="6" x="-3" y="-3"/><text class="lab" transform="translate(0 11)">14</text></g><g class="a26 i19 leaf node n19 p2 sample" transform="translate(23 11.7409)"><path class="edge" d="M 0 0 V -11.7409 H -23"/><rect class="sym" height="6" width="6" x="-3" y="-3"/><text class="lab" transform="translate(0 11)">19</text></g><path class="edge" d="M 0 0 V -15.8666 H -46"/><circle class="sym" cx="0" cy="0" r="3"/><text class="lab rgt" transform="translate(3 -7)">26</text></g><g class="a28 c2 node n27 p2" transform="translate(-46 13.0139)"><g class="a27 i0 leaf node n0 p1 sample" transform="translate(-23 14.5936)"><path class="edge" d="M 0 0 V -14.5936 H 23"/><rect class="sym" height="6" width="6" x="-3" y="-3"/><text class="lab" transform="translate(0 11)">0</text></g><g class="a27 i9 leaf node n9 p1 sample" transform="translate(23 14.5936)"><path class="edge" d="M 0 0 V -14.5936 H -23"/><rect class="sym" height="6" width="6" x="-3" y="-3"/><text class="lab" transform="translate(0 11)">9</text></g><path class="edge" d="M 0 0 V -13.0139 H 46"/><circle class="sym" cx="0" cy="0" r="3"/><text class="lab lft" transform="translate(-3 -7)">27</text></g><path class="edge" d="M 0 0 V -266.993 H 277.797"/><circle class="sym" cx="0" cy="0" r="3"/><text class="lab lft" transform="translate(-3 -7)">28</text></g><g class="a38 c2 node n37 p2" transform="translate(277.797 99.4529)"><g class="a37 c2 node n34 p2" transform="translate(191.906 72.3607)"><g class="a34 i18 leaf node n18 p2 sample" transform="translate(57.5 122.786)"><path class="edge" d="M 0 0 V -122.786 H -57.5"/><rect class="sym" height="6" width="6" x="-3" y="-3"/><text class="lab" transform="translate(0 11)">18</text></g><g class="a34 c2 node n33 p2" transform="translate(-57.5 30.5605)"><g class="a33 c2 node n20 p1" transform="translate(-46 91.8483)"><g class="a20 i5 leaf node n5 p1 sample" transform="translate(-23 0.377525)"><path class="edge" d="M 0 0 V -0.377525 H 23"/><rect class="sym" height="6" width="6" x="-3" y="-3"/><text class="lab" transform="translate(0 11)">5</text></g><g class="a20 i16 leaf node n16 p2 sample" transform="translate(23 0.377525)"><path class="edge" d="M 0 0 V -0.377525 H -23"/><rect class="sym" height="6" width="6" x="-3" y="-3"/><text class="lab" transform="translate(0 11)">16</text></g><path class="edge" d="M 0 0 V -91.8483 H 46"/><circle class="sym" cx="0" cy="0" r="3"/><text class="lab lft" transform="translate(-3 -7)">20</text></g><g class="a33 c2 node n32 p1" transform="translate(46 19.4319)"><g class="a32 i8 leaf node n8 p1 sample" transform="translate(-23 72.794)"><path class="edge" d="M 0 0 V -72.794 H 23"/><rect class="sym" height="6" width="6" x="-3" y="-3"/><text class="lab" transform="translate(0 11)">8</text></g><g class="a32 i11 leaf m0 node n11 p2 s0 sample" transform="translate(23 72.794)"><path class="edge" d="M 0 0 V -72.794 H -23"/><g class="mut m0 s0" transform="translate(0 -39.0133)"><line x1="0" x2="0" y1="0" y2="39.0133"/><path class="sym" d="M -3,-3 l 6,6 M -3,3 l 6,-6"/><text class="lab rgt" transform="translate(5 0)">0</text></g><rect class="sym" height="6" width="6" x="-3" y="-3"/><text class="lab" transform="translate(0 11)">11</text></g><path class="edge" d="M 0 0 V -19.4319 H -46"/><circle class="sym" cx="0" cy="0" r="3"/><text class="lab rgt" transform="translate(3 -7)">32</text></g><path class="edge" d="M 0 0 V -30.5605 H 57.5"/><circle class="sym" cx="0" cy="0" r="3"/><text class="lab lft" transform="translate(-3 -7)">33</text></g><path class="edge" d="M 0 0 V -72.3607 H -191.906"/><circle class="sym" cx="0" cy="0" r="3"/><text class="lab rgt" transform="translate(3 -7)">34</text></g><g class="a37 c2 node n36 p1" transform="translate(-191.906 26.6876)"><g class="a36 c2 node n31 p2" transform="translate(139.438 111.815)"><g class="a31 i12 leaf node n12 p2 sample" transform="translate(71.875 56.6445)"><path class="edge" d="M 0 0 V -56.6445 H -71.875"/><rect class="sym" height="6" width="6" x="-3" y="-3"/><text class="lab" transform="translate(0 11)">12</text></g><g class="a31 c2 node n30 p1" transform="translate(-71.875 13.5111)"><g class="a30 c2 node n21 p1" transform="translate(-63.25 42.5922)"><g class="a21 i3 leaf node n3 p1 sample" transform="translate(-23 0.541173)"><path class="edge" d="M 0 0 V -0.541173 H 23"/><rect class="sym" height="6" width="6" x="-3" y="-3"/><text class="lab" transform="translate(0 11)">3</text></g><g class="a21 i10 leaf node n10 p2 sample" transform="translate(23 0.541173)"><path class="edge" d="M 0 0 V -0.541173 H -23"/><rect class="sym" height="6" width="6" x="-3" y="-3"/><text class="lab" transform="translate(0 11)">10</text></g><path class="edge" d="M 0 0 V -42.5922 H 63.25"/><circle class="sym" cx="0" cy="0" r="3"/><text class="lab lft" transform="translate(-3 -7)">21</text></g><g class="a30 c2 node n25 p1" transform="translate(63.25 34.0215)"><g class="a25 i17 leaf node n17 p2 sample" transform="translate(34.5 9.11192)"><path class="edge" d="M 0 0 V -9.11192 H -34.5"/><rect class="sym" height="6" width="6" x="-3" y="-3"/><text class="lab" transform="translate(0 11)">17</text></g><g class="a25 c2 node n23 p2" transform="translate(-34.5 7.45971)"><g class="a23 i7 leaf node n7 p1 sample" transform="translate(-23 1.6522)"><path class="edge" d="M 0 0 V -1.6522 H 23"/><rect class="sym" height="6" width="6" x="-3" y="-3"/><text class="lab" transform="translate(0 11)">7</text></g><g class="a23 i15 leaf node n15 p2 sample" transform="translate(23 1.6522)"><path class="edge" d="M 0 0 V -1.6522 H -23"/><rect class="sym" height="6" width="6" x="-3" y="-3"/><text class="lab" transform="translate(0 11)">15</text></g><path class="edge" d="M 0 0 V -7.45971 H 34.5"/><circle class="sym" cx="0" cy="0" r="3"/><text class="lab lft" transform="translate(-3 -7)">23</text></g><path class="edge" d="M 0 0 V -34.0215 H -63.25"/><circle class="sym" cx="0" cy="0" r="3"/><text class="lab rgt" transform="translate(3 -7)">25</text></g><path class="edge" d="M 0 0 V -13.5111 H 71.875"/><circle class="sym" cx="0" cy="0" r="3"/><text class="lab lft" transform="translate(-3 -7)">30</text></g><path class="edge" d="M 0 0 V -111.815 H -139.438"/><circle class="sym" cx="0" cy="0" r="3"/><text class="lab rgt" transform="translate(3 -7)">31</text></g><g class="a36 c2 node n35 p1" transform="translate(-139.438 40.8471)"><g class="a35 c2 node n22 p1" transform="translate(51.75 126.859)"><g class="a22 i4 leaf node n4 p1 sample" transform="translate(-23 0.75359)"><path class="edge" d="M 0 0 V -0.75359 H 23"/><rect class="sym" height="6" width="6" x="-3" y="-3"/><text class="lab" transform="translate(0 11)">4</text></g><g class="a22 i6 leaf node n6 p1 sample" transform="translate(23 0.75359)"><path class="edge" d="M 0 0 V -0.75359 H -23"/><rect class="sym" height="6" width="6" x="-3" y="-3"/><text class="lab" transform="translate(0 11)">6</text></g><path class="edge" d="M 0 0 V -126.859 H -51.75"/><circle class="sym" cx="0" cy="0" r="3"/><text class="lab rgt" transform="translate(3 -7)">22</text></g><g class="a35 c2 node n29 p2" transform="translate(-51.75 94.9641)"><g class="a29 i2 leaf node n2 p1 sample" transform="translate(34.5 32.6483)"><path class="edge" d="M 0 0 V -32.6483 H -34.5"/><rect class="sym" height="6" width="6" x="-3" y="-3"/><text class="lab" transform="translate(0 11)">2</text></g><g class="a29 c2 node n24 p2" transform="translate(-34.5 24.0054)"><g class="a24 i1 leaf node n1 p1 sample" transform="translate(-23 8.64293)"><path class="edge" d="M 0 0 V -8.64293 H 23"/><rect class="sym" height="6" width="6" x="-3" y="-3"/><text class="lab" transform="translate(0 11)">1</text></g><g class="a24 i13 leaf node n13 p2 sample" transform="translate(23 8.64293)"><path class="edge" d="M 0 0 V -8.64293 H -23"/><rect class="sym" height="6" width="6" x="-3" y="-3"/><text class="lab" transform="translate(0 11)">13</text></g><path class="edge" d="M 0 0 V -24.0054 H 34.5"/><circle class="sym" cx="0" cy="0" r="3"/><text class="lab lft" transform="translate(-3 -7)">24</text></g><path class="edge" d="M 0 0 V -94.9641 H 51.75"/><circle class="sym" cx="0" cy="0" r="3"/><text class="lab lft" transform="translate(-3 -7)">29</text></g><path class="edge" d="M 0 0 V -40.8471 H 139.438"/><circle class="sym" cx="0" cy="0" r="3"/><text class="lab lft" transform="translate(-3 -7)">35</text></g><path class="edge" d="M 0 0 V -26.6876 H 191.906"/><circle class="sym" cx="0" cy="0" r="3"/><text class="lab lft" transform="translate(-3 -7)">36</text></g><path class="edge" d="M 0 0 V -99.4529 H -277.797"/><circle class="sym" cx="0" cy="0" r="3"/><text class="lab rgt" transform="translate(3 -7)">37</text></g><circle class="sym" cx="0" cy="0" r="3"/><text class="lab" transform="translate(0 -11)">38</text></g></g></g></g></g></svg>