<svg baseProfile="full" height="400" version="1.1" width="1000" xmlns="http://www.w3.org/2000/svg" xmlns:ev="http://www.w3.org/2001/xml-events" xmlns:xlink="http://www.w3.org/1999/xlink"><defs><style type="text/css"><![CDATA[.background path {fill: #808080; fill-opacity: 0}.background path:nth-child(odd) {fill-opacity: .1}.x-regions rect {fill: yellow; stroke: black; opacity: 0.5}.axes {font-size: 14px}.x-axis .tick .lab {font-weight: bold; dominant-baseline: hanging}.axes, .tree {font-size: 14px; text-anchor: middle}.axes line, .edge {stroke: black; fill: none}.axes .ax-skip {stroke-dasharray: 4}.y-axis .grid {stroke: #FAFAFA}.node > .sym {fill: black; stroke: none}.site > .sym {stroke: black}.mut text {fill: red; font-style: italic}.mut.extra text {fill: hotpink}.mut line {fill: none; stroke: none}.mut .sym {fill: none; stroke: red}.mut.extra .sym {stroke: hotpink}.node .mut .sym {stroke-width: 1.5px}.tree text, .tree-sequence text {dominant-baseline: central}.plotbox .lab.lft {text-anchor: end}.plotbox .lab.rgt {text-anchor: start}.polytomy line {stroke: black; stroke-dasharray: 1px, 1px}.polytomy text {paint-order:stroke;stroke-width:0.3em;stroke:white}]]></style></defs><g class="tree-sequence"><g class="background"><path d="M20,0 l960,0 l0,338.2 l0,25 l0,5 l-960,0 l0,-5 l0,-25 l0,-338.2z"/></g><g class="axes"><g class="x-axis"><g class="title" transform="translate(500 400)"><text class="lab" text-anchor="middle" transform="translate(0 -11)">Genome position</text></g><line class="ax-line" x1="20" x2="980" y1="363.2" y2="363.2"/><g class="ticks"><g class="tick" transform="translate(20 363.2)"><line x1="0" x2="0" y1="0" y2="5"/><g transform="translate(0 6)"><text class="lab">0</text></g></g><g class="tick" transform="translate(980 363.2)"><line x1="0" x2="0" y1="0" y2="5"/><g transform="translate(0 6)"><text class="lab">1000</text></g></g></g><g class="site s0" transform="translate(666.08 363.2)"><line class="sym" x1="0" x2="0" y1="0" y2="-10"/><g class="mut m0"><polyline class="sym" points="2.5,-6.5 0,-1.5 -2.5,-6.5"/></g></g></g></g><g class="plotbox trees"><g class="tree t0" transform="translate(20 0)"><g class="plotbox"><g class="c2 node n38 p1 root" transform="translate(608.297 26.8)"><g class="a38 c2 node n36 p2" transform="translate(229.641 105.089)"><g class="a36 i12 leaf m0 node n12 p2 s0 sample" transform="translate(79.0625 189.511)"><path class="edge" d="M 0 0 V -189.511 H -79.0625"/><g class="mut m0 s0" transform="translate(0 -2.70551)"><line x1="0" x2="0" y1="0" y2="2.70551"/><path class="sym" d="M -3,-3 l 6,6 M -3,3 l 6,-6"/><text class="lab rgt" transform="translate(5 0)">0</text></g><rect class="sym" height="6" width="6" x="-3" y="-3"/><text class="lab" transform="translate(0 11)">12</text></g><g class="a36 c2 node n35 p1" transform="translate(-79.0625 74.6788)"><g class="a35 i1 leaf node n1 p1 sample" transform="translate(-71.875 114.833)"><path class="edge" d="M 0 0 V -114.833 H 71.875"/><rect class="sym" height="6" width="6" x="-3" y="-3"/><text class="lab" transform="translate(0 11)">1</text></g><g class="a35 c2 node n30 p1" transform="translate(71.875 65.2995)"><g class="a30 i11 leaf node n11 p2 sample" transform="translate(40.25 49.5331)"><path class="edge" d="M 0 0 V -49.5331 H -40.25"/><rect class="sym" height="6" width="6" x="-3" y="-3"/><text class="lab" transform="translate(0 11)">11</text></g><g class="a30 c2 node n24 p2" transform="translate(-40.25 40.3633)"><g class="a24 i14 leaf node n14 p2 sample" transform="translate(34.5 9.16985)"><path class="edge" d="M 0 0 V -9.16985 H -34.5"/><rect class="sym" height="6" width="6" x="-3" y="-3"/><text class="lab" transform="translate(0 11)">14</text></g><g class="a24 c2 node n21 p1" transform="translate(-34.5 5.2765)"><g class="a21 i2 leaf node n2 p1 sample" transform="translate(-23 3.89336)"><path class="edge" d="M 0 0 V -3.89336 H 23"/><rect class="sym" height="6" width="6" x="-3" y="-3"/><text class="lab" transform="translate(0 11)">2</text></g><g class="a21 i10 leaf node n10 p2 sample" transform="translate(23 3.89336)"><path class="edge" d="M 0 0 V -3.89336 H -23"/><rect class="sym" height="6" width="6" x="-3" y="-3"/><text class="lab" transform="translate(0 11)">10</text></g><path class="edge" d="M 0 0 V -5.2765 H 34.5"/><circle class="sym" cx="0" cy="0" r="3"/><text class="lab lft" transform="translate(-3 -7)">21</text></g><path class="edge" d="M 0 0 V -40.3633 H 40.25"/><circle class="sym" cx="0" cy="0" r="3"/><text class="lab lft" transform="translate(-3 -7)">24</text></g><path class="edge" d="M 0 0 V -65.2995 H -71.875"/><circle class="sym" cx="0" cy="0" r="3"/><text class="lab rgt" transform="translate(3 -7)">30</text></g><path class="edge" d="M 0 0 V -74.6788 H 79.0625"/><circle class="sym" cx="0" cy="0" r="3"/><text class="lab lft" transform="translate(-3 -7)">35</text></g><path class="edge" d="M 0 0 V -105.089 H -229.641"/><circle class="sym" cx="0" cy="0" r="3"/><text class="lab rgt" transform="translate(3 -7)">36</text></g><g class="a38 c2 node n37 p2" transform="translate(-229.641 40.1579)"><g class="a37 c2 node n33 p1" transform="translate(-176.094 177.162)"><g class="a33 c2 node n31 p2" transform="translate(-125.062 21.0572)"><g class="a31 i0 leaf node n0 p1 sample" transform="translate(-34.5 56.2233)"><path class="edge" d="M 0 0 V -56.2233 H 34.5"/><rect class="sym" height="6" width="6" x="-3" y="-3"/><text class="lab" transform="translate(0 11)">0</text></g><g class="a31 c2 node n29 p1" transform="translate(34.5 6.88319)"><g class="a29 i4 leaf node n4 p1 sample" transform="translate(-23 49.3401)"><path class="edge" d="M 0 0 V -49.3401 H 23"/><rect class="sym" height="6" width="6" x="-3" y="-3"/><text class="lab" transform="translate(0 11)">4</text></g><g class="a29 i7 leaf node n7 p1 sample" transform="translate(23 49.3401)"><path class="edge" d="M 0 0 V -49.3401 H -23"/><rect class="sym" height="6" width="6" x="-3" y="-3"/><text class="lab" transform="translate(0 11)">7</text></g><path class="edge" d="M 0 0 V -6.88319 H -34.5"/><circle class="sym" cx="0" cy="0" r="3"/><text class="lab rgt" transform="translate(3 -7)">29</text></g><path class="edge" d="M 0 0 V -21.0572 H 125.062"/><circle class="sym" cx="0" cy="0" r="3"/><text class="lab lft" transform="translate(-3 -7)">31</text></g><g class="a33 c2 node n32 p1" transform="translate(125.062 11.9933)"><g class="a32 c2 node n26 p2" transform="translate(94.875 54.099)"><g class="a26 i19 leaf node n19 p2 sample" transform="translate(34.5 11.1881)"><path class="edge" d="M 0 0 V -11.1881 H -34.5"/><rect class="sym" height="6" width="6" x="-3" y="-3"/><text class="lab" transform="translate(0 11)">19</text></g><g class="a26 c2 node n22 p1" transform="translate(-34.5 2.71847)"><g class="a22 i8 leaf node n8 p1 sample" transform="translate(-23 8.46959)"><path class="edge" d="M 0 0 V -8.46959 H 23"/><rect class="sym" height="6" width="6" x="-3" y="-3"/><text class="lab" transform="translate(0 11)">8</text></g><g class="a22 i16 leaf node n16 p2 sample" transform="translate(23 8.46959)"><path class="edge" d="M 0 0 V -8.46959 H -23"/><rect class="sym" height="6" width="6" x="-3" y="-3"/><text class="lab" transform="translate(0 11)">16</text></g><path class="edge" d="M 0 0 V -2.71847 H 34.5"/><circle class="sym" cx="0" cy="0" r="3"/><text class="lab lft" transform="translate(-3 -7)">22</text></g><path class="edge" d="M 0 0 V -54.099 H -94.875"/><circle class="sym" cx="0" cy="0" r="3"/><text class="lab rgt" transform="translate(3 -7)">26</text></g><g class="a32 c2 node n28 p2" transform="translate(-94.875 21.0467)"><g class="a28 i3 leaf node n3 p1 sample" transform="translate(-51.75 44.2405)"><path class="edge" d="M 0 0 V -44.2405 H 51.75"/><rect class="sym" height="6" width="6" x="-3" y="-3"/><text class="lab" transform="translate(0 11)">3</text></g><g class="a28 c2 node n27 p1" transform="translate(51.75 33.0005)"><g class="a27 i9 leaf node n9 p1 sample" transform="translate(34.5 11.2399)"><path class="edge" d="M 0 0 V -11.2399 H -34.5"/><rect class="sym" height="6" width="6" x="-3" y="-3"/><text class="lab" transform="translate(0 11)">9</text></g><g class="a27 c2 node n25 p2" transform="translate(-34.5 0.836697)"><g class="a25 i6 leaf node n6 p1 sample" transform="translate(-23 10.4032)"><path class="edge" d="M 0 0 V -10.4032 H 23"/><rect class="sym" height="6" width="6" x="-3" y="-3"/><text class="lab" transform="translate(0 11)">6</text></g><g class="a25 i17 leaf node n17 p2 sample" transform="translate(23 10.4032)"><path class="edge" d="M 0 0 V -10.4032 H -23"/><rect class="sym" height="6" width="6" x="-3" y="-3"/><text class="lab" transform="translate(0 11)">17</text></g><path class="edge" d="M 0 0 V -0.836697 H 34.5"/><circle class="sym" cx="0" cy="0" r="3"/><text class="lab lft" transform="translate(-3 -7)">25</text></g><path class="edge" d="M 0 0 V -33.0005 H -51.75"/><circle class="sym" cx="0" cy="0" r="3"/><text class="lab rgt" transform="translate(3 -7)">27</text></g><path class="edge" d="M 0 0 V -21.0467 H 94.875"/><circle class="sym" cx="0" cy="0" r="3"/><text class="lab lft" transform="translate(-3 -7)">28</text></g><path class="edge" d="M 0 0 V -11.9933 H -125.062"/><circle class="sym" cx="0" cy="0" r="3"/><text class="lab rgt" transform="translate(3 -7)">32</text></g><path class="edge" d="M 0 0 V -177.162 H 176.094"/><circle class="sym" cx="0" cy="0" r="3"/><text class="lab lft" transform="translate(-3 -7)">33</text></g><g class="a37 c2 node n34 p2" transform="translate(176.094 167.436)"><g class="a34 i5 leaf node n5 p1 sample" transform="translate(-51.75 87.0063)"><path class="edge" d="M 0 0 V -87.0063 H 51.75"/><rect class="sym" height="6" width="6" x="-3" y="-3"/><text class="lab" transform="translate(0 11)">5</text></g><g class="a34 c2 node n23 p2" transform="translate(51.75 78.197)"><g class="a23 i18 leaf node n18 p2 sample" transform="translate(34.5 8.80929)"><path class="edge" d="M 0 0 V -8.80929 H -34.5"/><rect class="sym" height="6" width="6" x="-3" y="-3"/><text class="lab" transform="translate(0 11)">18</text></g><g class="a23 c2 node n20 p1" transform="translate(-34.5 6.27763)"><g class="a20 i13 leaf node n13 p2 sample" transform="translate(-23 2.53166)"><path class="edge" d="M 0 0 V -2.53166 H 23"/><rect class="sym" height="6" width="6" x="-3" y="-3"/><text class="lab" transform="translate(0 11)">13</text></g><g class="a20 i15 leaf node n15 p2 sample" transform="translate(23 2.53166)"><path class="edge" d="M 0 0 V -2.53166 H -23"/><rect class="sym" height="6" width="6" x="-3" y="-3"/><text class="lab" transform="translate(0 11)">15</text></g><path class="edge" d="M 0 0 V -6.27763 H 34.5"/><circle class="sym" cx="0" cy="0" r="3"/><text class="lab lft" transform="translate(-3 -7)">20</text></g><path class="edge" d="M 0 0 V -78.197 H -51.75"/><circle class="sym" cx="0" cy="0" r="3"/><text class="lab rgt" transform="translate(3 -7)">23</text></g><path class="edge" d="M 0 0 V -167.436 H -176.094"/><circle class="sym" cx="0" cy="0" r="3"/><text class="lab rgt" transform="translate(3 -7)">34</text></g><path class="edge" d="M 0 0 V -40.1579 H 229.641"/><circle class="sym" cx="0" cy="0" r="3"/><text class="lab lft" transform="translate(-3 -7)">37</text></g><circle class="sym" cx="0" cy="0" r="3"/><text class="lab" transform="translate(0 -11)">38</text></g></g></g></g></g></svg>