<svg baseProfile="full" height="400" version="1.1" width="1000" xmlns="http://www.w3.org/2000/svg" xmlns:ev="http://www.w3.org/2001/xml-events" xmlns:xlink="http://www.w3.org/1999/xlink"><defs><style type="text/css"><![CDATA[.background path {fill: #808080; fill-opacity: 0}.background path:nth-child(odd) {fill-opacity: .1}.x-regions rect {fill: yellow; stroke: black; opacity: 0.5}.axes {font-size: 14px}.x-axis .tick .lab {font-weight: bold; dominant-baseline: hanging}.axes, .tree {font-size: 14px; text-anchor: middle}.axes line, .edge {stroke: black; fill: none}.axes .ax-skip {stroke-dasharray: 4}.y-axis .grid {stroke: #FAFAFA}.node > .sym {fill: black; stroke: none}.site > .sym {stroke: black}.mut text {fill: red; font-style: italic}.mut.extra text {fill: hotpink}.mut line {fill: none; stroke: none}.mut .sym {fill: none; stroke: red}.mut.extra .sym {stroke: hotpink}.node .mut .sym {stroke-width: 1.5px}.tree text, .tree-sequence text {dominant-baseline: central}.plotbox .lab.lft {text-anchor: end}.plotbox .lab.rgt {text-anchor: start}.polytomy line {stroke: black; stroke-dasharray: 1px, 1px}.polytomy text {paint-order:stroke;stroke-width:0.3em;stroke:white}]]></style></defs><g class="tree-sequence"><g class="background"><path d="M20,0 l960,0 l0,338.2 l0,25 l0,5 l-960,0 l0,-5 l0,-25 l0,-338.2z"/></g><g class="axes"><g class="x-axis"><g class="title" transform="translate(500 400)"><text class="lab" text-anchor="middle" transform="translate(0 -11)">Genome position</text></g><line class="ax-line" x1="20" x2="980" y1="363.2" y2="363.2"/><g class="ticks"><g class="tick" transform="translate(20 363.2)"><line x1="0" x2="0" y1="0" y2="5"/><g transform="translate(0 6)"><text class="lab">0</text></g></g><g class="tick" transform="translate(980 363.2)"><line x1="0" x2="0" y1="0" y2="5"/><g transform="translate(0 6)"><text class="lab">1000</text></g></g></g><g class="site s0" transform="translate(116.96 363.2)"><line class="sym" x1="0" x2="0" y1="0" y2="-10"/><g class="mut m0"><polyline class="sym" points="2.5,-6.5 0,-1.5 -2.5,-6.5"/></g></g><g class="site s1" transform="translate(810.08 363.2)"><line class="sym" x1="0" x2="0" y1="0" y2="-10"/><g class="mut m1"><polyline class="sym" points="2.5,-6.5 0,-1.5 -2.5,-6.5"/></g></g></g></g><g class="plotbox trees"><g class="tree t0" transform="translate(20 0)"><g class="plotbox"><g class="c2 node n38 p0 root" transform="translate(690.234 26.8)"><g class="a38 c2 m0 node n26 p1 s0" transform="translate(186.516 284.741)"><g class="a26 i13 leaf node n13 p2 sample" transform="translate(40.25 9.85855)"><path class="edge" d="M 0 0 V -9.85855 H -40.25"/><rect class="sym" height="6" width="6" x="-3" y="-3"/><text class="lab" transform="translate(0 11)">13</text></g><g class="a26 c2 node n25 p2" transform="translate(-40.25 0.599602)"><g class="a25 i7 leaf node n7 p1 sample" transform="translate(34.5 9.25895)"><path class="edge" d="M 0 0 V -9.25895 H -34.5"/><rect class="sym" height="6" width="6" x="-3" y="-3"/><text class="lab" transform="translate(0 11)">7</text></g><g class="a25 c2 node n21 p1" transform="translate(-34.5 6.5499)"><g class="a21 i5 leaf node n5 p1 sample" transform="translate(-23 2.70905)"><path class="edge" d="M 0 0 V -2.70905 H 23"/><rect class="sym" height="6" width="6" x="-3" y="-3"/><text class="lab" transform="translate(0 11)">5</text></g><g class="a21 i9 leaf node n9 p1 sample" transform="translate(23 2.70905)"><path class="edge" d="M 0 0 V -2.70905 H -23"/><rect class="sym" height="6" width="6" x="-3" y="-3"/><text class="lab" transform="translate(0 11)">9</text></g><path class="edge" d="M 0 0 V -6.5499 H 34.5"/><circle class="sym" cx="0" cy="0" r="3"/><text class="lab lft" transform="translate(-3 -7)">21</text></g><path class="edge" d="M 0 0 V -0.599602 H 40.25"/><circle class="sym" cx="0" cy="0" r="3"/><text class="lab lft" transform="translate(-3 -7)">25</text></g><path class="edge" d="M 0 0 V -284.741 H -186.516"/><g class="mut m0 s0" transform="translate(0 -149.591)"><line x1="0" x2="0" y1="0" y2="149.591"/><path class="sym" d="M -3,-3 l 6,6 M -3,3 l 6,-6"/><text class="lab rgt" transform="translate(5 0)">0</text></g><circle class="sym" cx="0" cy="0" r="3"/><text class="lab rgt" transform="translate(3 -7)">26</text></g><g class="a38 c2 node n37 p0" transform="translate(-186.516 55.3072)"><g class="a37 c2 node n35 p0" transform="translate(151.656 147.512)"><g class="a35 c2 node n29 p2" transform="translate(54.625 72.6565)"><g class="a29 i3 leaf node n3 p1 sample" transform="translate(-23 19.124)"><path class="edge" d="M 0 0 V -19.124 H 23"/><rect class="sym" height="6" width="6" x="-3" y="-3"/><text class="lab" transform="translate(0 11)">3</text></g><g class="a29 i17 leaf node n17 p2 sample" transform="translate(23 19.124)"><path class="edge" d="M 0 0 V -19.124 H -23"/><rect class="sym" height="6" width="6" x="-3" y="-3"/><text class="lab" transform="translate(0 11)">17</text></g><path class="edge" d="M 0 0 V -72.6565 H -54.625"/><circle class="sym" cx="0" cy="0" r="3"/><text class="lab rgt" transform="translate(3 -7)">29</text></g><g class="a35 c2 node n31 p1" transform="translate(-54.625 57.6394)"><g class="a31 i6 leaf node n6 p1 sample" transform="translate(40.25 34.1412)"><path class="edge" d="M 0 0 V -34.1412 H -40.25"/><rect class="sym" height="6" width="6" x="-3" y="-3"/><text class="lab" transform="translate(0 11)">6</text></g><g class="a31 c2 node n24 p2" transform="translate(-40.25 27.0745)"><g class="a24 i4 leaf node n4 p1 sample" transform="translate(34.5 7.06664)"><path class="edge" d="M 0 0 V -7.06664 H -34.5"/><rect class="sym" height="6" width="6" x="-3" y="-3"/><text class="lab" transform="translate(0 11)">4</text></g><g class="a24 c2 node n23 p2" transform="translate(-34.5 0.252865)"><g class="a23 i2 leaf node n2 p1 sample" transform="translate(-23 6.81378)"><path class="edge" d="M 0 0 V -6.81378 H 23"/><rect class="sym" height="6" width="6" x="-3" y="-3"/><text class="lab" transform="translate(0 11)">2</text></g><g class="a23 i11 leaf node n11 p2 sample" transform="translate(23 6.81378)"><path class="edge" d="M 0 0 V -6.81378 H -23"/><rect class="sym" height="6" width="6" x="-3" y="-3"/><text class="lab" transform="translate(0 11)">11</text></g><path class="edge" d="M 0 0 V -0.252865 H 34.5"/><circle class="sym" cx="0" cy="0" r="3"/><text class="lab lft" transform="translate(-3 -7)">23</text></g><path class="edge" d="M 0 0 V -27.0745 H 40.25"/><circle class="sym" cx="0" cy="0" r="3"/><text class="lab lft" transform="translate(-3 -7)">24</text></g><path class="edge" d="M 0 0 V -57.6394 H 54.625"/><circle class="sym" cx="0" cy="0" r="3"/><text class="lab lft" transform="translate(-3 -7)">31</text></g><path class="edge" d="M 0 0 V -147.512 H -151.656"/><circle class="sym" cx="0" cy="0" r="3"/><text class="lab rgt" transform="translate(3 -7)">35</text></g><g class="a37 c2 node n36 p0" transform="translate(-151.656 53.9328)"><g class="a36 c2 node n28 p1" transform="translate(81.9375 167.683)"><g class="a28 i15 leaf node n15 p2 sample" transform="translate(-23 17.677)"><path class="edge" d="M 0 0 V -17.677 H 23"/><rect class="sym" height="6" width="6" x="-3" y="-3"/><text class="lab" transform="translate(0 11)">15</text></g><g class="a28 i18 leaf node n18 p2 sample" transform="translate(23 17.677)"><path class="edge" d="M 0 0 V -17.677 H -23"/><rect class="sym" height="6" width="6" x="-3" y="-3"/><text class="lab" transform="translate(0 11)">18</text></g><path class="edge" d="M 0 0 V -167.683 H -81.9375"/><circle class="sym" cx="0" cy="0" r="3"/><text class="lab rgt" transform="translate(3 -7)">28</text></g><g class="a36 c2 m1 node n34 p0 s1" transform="translate(-81.9375 102.555)"><g class="a34 i8 leaf node n8 p1 sample" transform="translate(94.875 82.8055)"><path class="edge" d="M 0 0 V -82.8055 H -94.875"/><rect class="sym" height="6" width="6" x="-3" y="-3"/><text class="lab" transform="translate(0 11)">8</text></g><g class="a34 c2 node n33 p0" transform="translate(-94.875 14.0655)"><g class="a33 c2 node n30 p1" transform="translate(-74.75 43.2412)"><g class="a30 i1 leaf node n1 p1 sample" transform="translate(34.5 25.4988)"><path class="edge" d="M 0 0 V -25.4988 H -34.5"/><rect class="sym" height="6" width="6" x="-3" y="-3"/><text class="lab" transform="translate(0 11)">1</text></g><g class="a30 c2 node n27 p2" transform="translate(-34.5 13.1704)"><g class="a27 i0 leaf node n0 p1 sample" transform="translate(-23 12.3284)"><path class="edge" d="M 0 0 V -12.3284 H 23"/><rect class="sym" height="6" width="6" x="-3" y="-3"/><text class="lab" transform="translate(0 11)">0</text></g><g class="a27 i19 leaf node n19 p2 sample" transform="translate(23 12.3284)"><path class="edge" d="M 0 0 V -12.3284 H -23"/><rect class="sym" height="6" width="6" x="-3" y="-3"/><text class="lab" transform="translate(0 11)">19</text></g><path class="edge" d="M 0 0 V -13.1704 H 34.5"/><circle class="sym" cx="0" cy="0" r="3"/><text class="lab lft" transform="translate(-3 -7)">27</text></g><path class="edge" d="M 0 0 V -43.2412 H 74.75"/><circle class="sym" cx="0" cy="0" r="3"/><text class="lab lft" transform="translate(-3 -7)">30</text></g><g class="a33 c2 node n32 p1" transform="translate(74.75 20.8025)"><g class="a32 c2 node n20 p2" transform="translate(-46 45.8106)"><g class="a20 i10 leaf node n10 p2 sample" transform="translate(-23 2.12691)"><path class="edge" d="M 0 0 V -2.12691 H 23"/><rect class="sym" height="6" width="6" x="-3" y="-3"/><text class="lab" transform="translate(0 11)">10</text></g><g class="a20 i14 leaf node n14 p2 sample" transform="translate(23 2.12691)"><path class="edge" d="M 0 0 V -2.12691 H -23"/><rect class="sym" height="6" width="6" x="-3" y="-3"/><text class="lab" transform="translate(0 11)">14</text></g><path class="edge" d="M 0 0 V -45.8106 H 46"/><circle class="sym" cx="0" cy="0" r="3"/><text class="lab lft" transform="translate(-3 -7)">20</text></g><g class="a32 c2 node n22 p2" transform="translate(46 43.371)"><g class="a22 i12 leaf node n12 p2 sample" transform="translate(-23 4.5665)"><path class="edge" d="M 0 0 V -4.5665 H 23"/><rect class="sym" height="6" width="6" x="-3" y="-3"/><text class="lab" transform="translate(0 11)">12</text></g><g class="a22 i16 leaf node n16 p2 sample" transform="translate(23 4.5665)"><path class="edge" d="M 0 0 V -4.5665 H -23"/><rect class="sym" height="6" width="6" x="-3" y="-3"/><text class="lab" transform="translate(0 11)">16</text></g><path class="edge" d="M 0 0 V -43.371 H -46"/><circle class="sym" cx="0" cy="0" r="3"/><text class="lab rgt" transform="translate(3 -7)">22</text></g><path class="edge" d="M 0 0 V -20.8025 H -74.75"/><circle class="sym" cx="0" cy="0" r="3"/><text class="lab rgt" transform="translate(3 -7)">32</text></g><path class="edge" d="M 0 0 V -14.0655 H 94.875"/><circle class="sym" cx="0" cy="0" r="3"/><text class="lab lft" transform="translate(-3 -7)">33</text></g><path class="edge" d="M 0 0 V -102.555 H 81.9375"/><g class="mut m1 s1" transform="translate(0 -96.4234)"><line x1="0" x2="0" y1="0" y2="96.4234"/><path class="sym" d="M -3,-3 l 6,6 M -3,3 l 6,-6"/><text class="lab lft" transform="translate(-5 0)">1</text></g><circle class="sym" cx="0" cy="0" r="3"/><text class="lab lft" transform="translate(-3 -7)">34</text></g><path class="edge" d="M 0 0 V -53.9328 H 151.656"/><circle class="sym" cx="0" cy="0" r="3"/><text class="lab lft" transform="translate(-3 -7)">36</text></g><path class="edge" d="M 0 0 V -55.3072 H 186.516"/><circle class="sym" cx="0" cy="0" r="3"/><text class="lab lft" transform="translate(-3 -7)">37</text></g><circle class="sym" cx="0" cy="0" r="3"/><text class="lab" transform="translate(0 -11)">38</text></g></g></g></g></g></svg>