<svg baseProfile="full" height="400" version="1.1" width="1000" xmlns="http://www.w3.org/2000/svg" xmlns:ev="http://www.w3.org/2001/xml-events" xmlns:xlink="http://www.w3.org/1999/xlink"><defs><style type="text/css"><![CDATA[.background path {fill: #808080; fill-opacity: 0}.background path:nth-child(odd) {fill-opacity: .1}.x-regions rect {fill: yellow; stroke: black; opacity: 0.5}.axes {font-size: 14px}.x-axis .tick .lab {font-weight: bold; dominant-baseline: hanging}.axes, .tree {font-size: 14px; text-anchor: middle}.axes line, .edge {stroke: black; fill: none}.axes .ax-skip {stroke-dasharray: 4}.y-axis .grid {stroke: #FAFAFA}.node > .sym {fill: black; stroke: none}.site > .sym {stroke: black}.mut text {fill: red; font-style: italic}.mut.extra text {fill: hotpink}.mut line {fill: none; stroke: none}.mut .sym {fill: none; stroke: red}.mut.extra .sym {stroke: hotpink}.node .mut .sym {stroke-width: 1.5px}.tree text, .tree-sequence text {dominant-baseline: central}.plotbox .lab.lft {text-anchor: end}.plotbox .lab.rgt {text-anchor: start}.polytomy line {stroke: black; stroke-dasharray: 1px, 1px}.polytomy text {paint-order:stroke;stroke-width:0.3em;stroke:white}]]></style></defs><g class="tree-sequence"><g class="background"><path d="M20,0 l960,0 l0,338.2 l0,25 l0,5 l-960,0 l0,-5 l0,-25 l0,-338.2z"/></g><g class="axes"><g class="x-axis"><g class="title" transform="translate(500 400)"><text class="lab" text-anchor="middle" transform="translate(0 -11)">Genome position</text></g><line class="ax-line" x1="20" x2="980" y1="363.2" y2="363.2"/><g class="ticks"><g class="tick" transform="translate(20 363.2)"><line x1="0" x2="0" y1="0" y2="5"/><g transform="translate(0 6)"><text class="lab">0</text></g></g><g class="tick" transform="translate(980 363.2)"><line x1="0" x2="0" y1="0" y2="5"/><g transform="translate(0 6)"><text class="lab">1000</text></g></g></g><g class="site s0" transform="translate(74.72 363.2)"><line class="sym" x1="0" x2="0" y1="0" y2="-10"/><g class="mut m0"><polyline class="sym" points="2.5,-6.5 0,-1.5 -2.5,-6.5"/></g></g><g class="site s1" transform="translate(390.56 363.2)"><line class="sym" x1="0" x2="0" y1="0" y2="-10"/><g class="mut m1"><polyline class="sym" points="2.5,-6.5 0,-1.5 -2.5,-6.5"/></g></g><g class="site s2" transform="translate(412.64 363.2)"><line class="sym" x1="0" x2="0" y1="0" y2="-10"/><g class="mut m2"><polyline class="sym" points="2.5,-6.5 0,-1.5 -2.5,-6.5"/></g></g></g></g><g class="plotbox trees"><g class="tree t0" transform="translate(20 0)"><g class="plotbox"><g class="c2 node n38 p2 root" transform="translate(454.664 26.8)"><g class="a38 c2 m0 m1 node n31 p2 s0 s1" transform="translate(-302.414 244.962)"><g class="a31 c2 node n27 p1" transform="translate(51.75 33.7085)"><g class="a27 i8 leaf node n8 p1 sample" transform="translate(-23 15.9296)"><path class="edge" d="M 0 0 V -15.9296 H 23"/><rect class="sym" height="6" width="6" x="-3" y="-3"/><text class="lab" transform="translate(0 11)">8</text></g><g class="a27 i19 leaf node n19 p2 sample" transform="translate(23 15.9296)"><path class="edge" d="M 0 0 V -15.9296 H -23"/><rect class="sym" height="6" width="6" x="-3" y="-3"/><text class="lab" transform="translate(0 11)">19</text></g><path class="edge" d="M 0 0 V -33.7085 H -51.75"/><circle class="sym" cx="0" cy="0" r="3"/><text class="lab rgt" transform="translate(3 -7)">27</text></g><g class="a31 c2 node n30 p1" transform="translate(-51.75 10.9496)"><g class="a30 i2 leaf node n2 p1 sample" transform="translate(34.5 38.6885)"><path class="edge" d="M 0 0 V -38.6885 H -34.5"/><rect class="sym" height="6" width="6" x="-3" y="-3"/><text class="lab" transform="translate(0 11)">2</text></g><g class="a30 c2 node n24 p2" transform="translate(-34.5 33.3569)"><g class="a24 i0 leaf node n0 p1 sample" transform="translate(-23 5.33165)"><path class="edge" d="M 0 0 V -5.33165 H 23"/><rect class="sym" height="6" width="6" x="-3" y="-3"/><text class="lab" transform="translate(0 11)">0</text></g><g class="a24 i15 leaf node n15 p2 sample" transform="translate(23 5.33165)"><path class="edge" d="M 0 0 V -5.33165 H -23"/><rect class="sym" height="6" width="6" x="-3" y="-3"/><text class="lab" transform="translate(0 11)">15</text></g><path class="edge" d="M 0 0 V -33.3569 H 34.5"/><circle class="sym" cx="0" cy="0" r="3"/><text class="lab lft" transform="translate(-3 -7)">24</text></g><path class="edge" d="M 0 0 V -10.9496 H 51.75"/><circle class="sym" cx="0" cy="0" r="3"/><text class="lab lft" transform="translate(-3 -7)">30</text></g><path class="edge" d="M 0 0 V -244.962 H 302.414"/><g class="mut m0 s0" transform="translate(0 -203.994)"><line x1="0" x2="0" y1="0" y2="203.994"/><path class="sym" d="M -3,-3 l 6,6 M -3,3 l 6,-6"/><text class="lab lft" transform="translate(-5 0)">0</text></g><g class="mut m1 s1" transform="translate(0 -103.309)"><line x1="0" x2="0" y1="0" y2="103.309"/><path class="sym" d="M -3,-3 l 6,6 M -3,3 l 6,-6"/><text class="lab lft" transform="translate(-5 0)">1</text></g><circle class="sym" cx="0" cy="0" r="3"/><text class="lab lft" transform="translate(-3 -7)">31</text></g><g class="a38 c2 node n37 p1" transform="translate(302.414 196.725)"><g class="a37 c2 node n35 p2" transform="translate(-125.422 13.3539)"><g class="a35 c2 node n22 p1" transform="translate(112.844 81.4511)"><g class="a22 i18 leaf node n18 p2 sample" transform="translate(34.5 3.07043)"><path class="edge" d="M 0 0 V -3.07043 H -34.5"/><rect class="sym" height="6" width="6" x="-3" y="-3"/><text class="lab" transform="translate(0 11)">18</text></g><g class="a22 c2 node n20 p1" transform="translate(-34.5 2.98017)"><g class="a20 i5 leaf node n5 p1 sample" transform="translate(-23 0.0902641)"><path class="edge" d="M 0 0 V -0.0902641 H 23"/><rect class="sym" height="6" width="6" x="-3" y="-3"/><text class="lab" transform="translate(0 11)">5</text></g><g class="a20 i7 leaf node n7 p1 sample" transform="translate(23 0.0902641)"><path class="edge" d="M 0 0 V -0.0902641 H -23"/><rect class="sym" height="6" width="6" x="-3" y="-3"/><text class="lab" transform="translate(0 11)">7</text></g><path class="edge" d="M 0 0 V -2.98017 H 34.5"/><circle class="sym" cx="0" cy="0" r="3"/><text class="lab lft" transform="translate(-3 -7)">20</text></g><path class="edge" d="M 0 0 V -81.4511 H -112.844"/><circle class="sym" cx="0" cy="0" r="3"/><text class="lab rgt" transform="translate(3 -7)">22</text></g><g class="a35 c2 node n34 p2" transform="translate(-112.844 17.0787)"><g class="a34 c2 node n25 p1" transform="translate(99.1875 58.4313)"><g class="a25 i4 leaf node n4 p1 sample" transform="translate(-23 9.01152)"><path class="edge" d="M 0 0 V -9.01152 H 23"/><rect class="sym" height="6" width="6" x="-3" y="-3"/><text class="lab" transform="translate(0 11)">4</text></g><g class="a25 i6 leaf node n6 p1 sample" transform="translate(23 9.01152)"><path class="edge" d="M 0 0 V -9.01152 H -23"/><rect class="sym" height="6" width="6" x="-3" y="-3"/><text class="lab" transform="translate(0 11)">6</text></g><path class="edge" d="M 0 0 V -58.4313 H -99.1875"/><circle class="sym" cx="0" cy="0" r="3"/><text class="lab rgt" transform="translate(3 -7)">25</text></g><g class="a34 c2 node n33 p1" transform="translate(-99.1875 8.13693)"><g class="a33 c2 node n28 p1" transform="translate(-94.875 40.7588)"><g class="a28 i1 leaf node n1 p1 sample" transform="translate(-51.75 18.5471)"><path class="edge" d="M 0 0 V -18.5471 H 51.75"/><rect class="sym" height="6" width="6" x="-3" y="-3"/><text class="lab" transform="translate(0 11)">1</text></g><g class="a28 c2 node n26 p2" transform="translate(51.75 5.02864)"><g class="a26 i9 leaf node n9 p1 sample" transform="translate(34.5 13.5184)"><path class="edge" d="M 0 0 V -13.5184 H -34.5"/><rect class="sym" height="6" width="6" x="-3" y="-3"/><text class="lab" transform="translate(0 11)">9</text></g><g class="a26 c2 node n21 p1" transform="translate(-34.5 13.3123)"><g class="a21 i3 leaf node n3 p1 sample" transform="translate(-23 0.206115)"><path class="edge" d="M 0 0 V -0.206115 H 23"/><rect class="sym" height="6" width="6" x="-3" y="-3"/><text class="lab" transform="translate(0 11)">3</text></g><g class="a21 i16 leaf node n16 p2 sample" transform="translate(23 0.206115)"><path class="edge" d="M 0 0 V -0.206115 H -23"/><rect class="sym" height="6" width="6" x="-3" y="-3"/><text class="lab" transform="translate(0 11)">16</text></g><path class="edge" d="M 0 0 V -13.3123 H 34.5"/><circle class="sym" cx="0" cy="0" r="3"/><text class="lab lft" transform="translate(-3 -7)">21</text></g><path class="edge" d="M 0 0 V -5.02864 H -51.75"/><circle class="sym" cx="0" cy="0" r="3"/><text class="lab rgt" transform="translate(3 -7)">26</text></g><path class="edge" d="M 0 0 V -40.7588 H 94.875"/><circle class="sym" cx="0" cy="0" r="3"/><text class="lab lft" transform="translate(-3 -7)">28</text></g><g class="a33 c2 m2 node n29 p1 s2" transform="translate(94.875 32.6394)"><g class="a29 i12 leaf node n12 p2 sample" transform="translate(34.5 26.6665)"><path class="edge" d="M 0 0 V -26.6665 H -34.5"/><rect class="sym" height="6" width="6" x="-3" y="-3"/><text class="lab" transform="translate(0 11)">12</text></g><g class="a29 c2 node n23 p2" transform="translate(-34.5 21.5996)"><g class="a23 i11 leaf node n11 p2 sample" transform="translate(-23 5.06693)"><path class="edge" d="M 0 0 V -5.06693 H 23"/><rect class="sym" height="6" width="6" x="-3" y="-3"/><text class="lab" transform="translate(0 11)">11</text></g><g class="a23 i14 leaf node n14 p2 sample" transform="translate(23 5.06693)"><path class="edge" d="M 0 0 V -5.06693 H -23"/><rect class="sym" height="6" width="6" x="-3" y="-3"/><text class="lab" transform="translate(0 11)">14</text></g><path class="edge" d="M 0 0 V -21.5996 H 34.5"/><circle class="sym" cx="0" cy="0" r="3"/><text class="lab lft" transform="translate(-3 -7)">23</text></g><path class="edge" d="M 0 0 V -32.6394 H -94.875"/><g class="mut m2 s2" transform="translate(0 -12.7234)"><line x1="0" x2="0" y1="0" y2="12.7234"/><path class="sym" d="M -3,-3 l 6,6 M -3,3 l 6,-6"/><text class="lab rgt" transform="translate(5 0)">2</text></g><circle class="sym" cx="0" cy="0" r="3"/><text class="lab rgt" transform="translate(3 -7)">29</text></g><path class="edge" d="M 0 0 V -8.13693 H 99.1875"/><circle class="sym" cx="0" cy="0" r="3"/><text class="lab lft" transform="translate(-3 -7)">33</text></g><path class="edge" d="M 0 0 V -17.0787 H 112.844"/><circle class="sym" cx="0" cy="0" r="3"/><text class="lab lft" transform="translate(-3 -7)">34</text></g><path class="edge" d="M 0 0 V -13.3539 H 125.422"/><circle class="sym" cx="0" cy="0" r="3"/><text class="lab lft" transform="translate(-3 -7)">35</text></g><g class="a37 c2 node n36 p2" transform="translate(125.422 1.47855)"><g class="a36 i13 leaf node n13 p2 sample" transform="translate(34.5 96.3969)"><path class="edge" d="M 0 0 V -96.3969 H -34.5"/><rect class="sym" height="6" width="6" x="-3" y="-3"/><text class="lab" transform="translate(0 11)">13</text></g><g class="a36 c2 node n32 p2" transform="translate(-34.5 44.3624)"><g class="a32 i10 leaf node n10 p2 sample" transform="translate(-23 52.0346)"><path class="edge" d="M 0 0 V -52.0346 H 23"/><rect class="sym" height="6" width="6" x="-3" y="-3"/><text class="lab" transform="translate(0 11)">10</text></g><g class="a32 i17 leaf node n17 p2 sample" transform="translate(23 52.0346)"><path class="edge" d="M 0 0 V -52.0346 H -23"/><rect class="sym" height="6" width="6" x="-3" y="-3"/><text class="lab" transform="translate(0 11)">17</text></g><path class="edge" d="M 0 0 V -44.3624 H 34.5"/><circle class="sym" cx="0" cy="0" r="3"/><text class="lab lft" transform="translate(-3 -7)">32</text></g><path class="edge" d="M 0 0 V -1.47855 H -125.422"/><circle class="sym" cx="0" cy="0" r="3"/><text class="lab rgt" transform="translate(3 -7)">36</text></g><path class="edge" d="M 0 0 V -196.725 H -302.414"/><circle class="sym" cx="0" cy="0" r="3"/><text class="lab rgt" transform="translate(3 -7)">37</text></g><circle class="sym" cx="0" cy="0" r="3"/><text class="lab" transform="translate(0 -11)">38</text></g></g></g></g></g></svg>