<svg baseProfile="full" height="400" version="1.1" width="1000" xmlns="http://www.w3.org/2000/svg" xmlns:ev="http://www.w3.org/2001/xml-events" xmlns:xlink="http://www.w3.org/1999/xlink"><defs><style type="text/css"><![CDATA[.background path {fill: #808080; fill-opacity: 0}.background path:nth-child(odd) {fill-opacity: .1}.x-regions rect {fill: yellow; stroke: black; opacity: 0.5}.axes {font-size: 14px}.x-axis .tick .lab {font-weight: bold; dominant-baseline: hanging}.axes, .tree {font-size: 14px; text-anchor: middle}.axes line, .edge {stroke: black; fill: none}.axes .ax-skip {stroke-dasharray: 4}.y-axis .grid {stroke: #FAFAFA}.node > .sym {fill: black; stroke: none}.site > .sym {stroke: black}.mut text {fill: red; font-style: italic}.mut.extra text {fill: hotpink}.mut line {fill: none; stroke: none}.mut .sym {fill: none; stroke: red}.mut.extra .sym {stroke: hotpink}.node .mut .sym {stroke-width: 1.5px}.tree text, .tree-sequence text {dominant-baseline: central}.plotbox .lab.lft {text-anchor: end}.plotbox .lab.rgt {text-anchor: start}.polytomy line {stroke: black; stroke-dasharray: 1px, 1px}.polytomy text {paint-order:stroke;stroke-width:0.3em;stroke:white}]]></style></defs><g class="tree-sequence"><g class="background"><path d="M20,0 l960,0 l0,338.2 l0,25 l0,5 l-960,0 l0,-5 l0,-25 l0,-338.2z"/></g><g class="axes"><g class="x-axis"><g class="title" transform="translate(500 400)"><text class="lab" text-anchor="middle" transform="translate(0 -11)">Genome position</text></g><line class="ax-line" x1="20" x2="980" y1="363.2" y2="363.2"/><g class="ticks"><g class="tick" transform="translate(20 363.2)"><line x1="0" x2="0" y1="0" y2="5"/><g transform="translate(0 6)"><text class="lab">0</text></g></g><g class="tick" transform="translate(980 363.2)"><line x1="0" x2="0" y1="0" y2="5"/><g transform="translate(0 6)"><text class="lab">1000</text></g></g></g><g class="site s0" transform="translate(855.2 363.2)"><line class="sym" x1="0" x2="0" y1="0" y2="-10"/><g class="mut m0"><polyline class="sym" points="2.5,-6.5 0,-1.5 -2.5,-6.5"/></g></g></g></g><g class="plotbox trees"><g class="tree t0" transform="translate(20 0)"><g class="plotbox"><g class="c2 node n38 p2 root" transform="translate(630.039 26.8)"><g class="a38 c2 node n35 p1" transform="translate(252.461 237.317)"><g class="a35 i11 leaf node n11 p2 sample" transform="translate(34.5 57.2832)"><path class="edge" d="M 0 0 V -57.2832 H -34.5"/><rect class="sym" height="6" width="6" x="-3" y="-3"/><text class="lab" transform="translate(0 11)">11</text></g><g class="a35 c2 node n23 p1" transform="translate(-34.5 48.1064)"><g class="a23 i2 leaf node n2 p1 sample" transform="translate(-23 9.17679)"><path class="edge" d="M 0 0 V -9.17679 H 23"/><rect class="sym" height="6" width="6" x="-3" y="-3"/><text class="lab" transform="translate(0 11)">2</text></g><g class="a23 i14 leaf node n14 p2 sample" transform="translate(23 9.17679)"><path class="edge" d="M 0 0 V -9.17679 H -23"/><rect class="sym" height="6" width="6" x="-3" y="-3"/><text class="lab" transform="translate(0 11)">14</text></g><path class="edge" d="M 0 0 V -48.1064 H 34.5"/><circle class="sym" cx="0" cy="0" r="3"/><text class="lab lft" transform="translate(-3 -7)">23</text></g><path class="edge" d="M 0 0 V -237.317 H -252.461"/><circle class="sym" cx="0" cy="0" r="3"/><text class="lab rgt" transform="translate(3 -7)">35</text></g><g class="a38 c2 node n37 p1" transform="translate(-252.461 12.853)"><g class="a37 c2 node n34 p2" transform="translate(-236.828 227.568)"><g class="a34 i17 leaf node n17 p2 sample" transform="translate(40.25 54.1789)"><path class="edge" d="M 0 0 V -54.1789 H -40.25"/><rect class="sym" height="6" width="6" x="-3" y="-3"/><text class="lab" transform="translate(0 11)">17</text></g><g class="a34 c2 node n27 p2" transform="translate(-40.25 41.0384)"><g class="a27 i4 leaf node n4 p1 sample" transform="translate(34.5 13.1405)"><path class="edge" d="M 0 0 V -13.1405 H -34.5"/><rect class="sym" height="6" width="6" x="-3" y="-3"/><text class="lab" transform="translate(0 11)">4</text></g><g class="a27 c2 node n21 p1" transform="translate(-34.5 8.10419)"><g class="a21 i0 leaf node n0 p1 sample" transform="translate(-23 5.0363)"><path class="edge" d="M 0 0 V -5.0363 H 23"/><rect class="sym" height="6" width="6" x="-3" y="-3"/><text class="lab" transform="translate(0 11)">0</text></g><g class="a21 i15 leaf node n15 p2 sample" transform="translate(23 5.0363)"><path class="edge" d="M 0 0 V -5.0363 H -23"/><rect class="sym" height="6" width="6" x="-3" y="-3"/><text class="lab" transform="translate(0 11)">15</text></g><path class="edge" d="M 0 0 V -8.10419 H 34.5"/><circle class="sym" cx="0" cy="0" r="3"/><text class="lab lft" transform="translate(-3 -7)">21</text></g><path class="edge" d="M 0 0 V -41.0384 H 40.25"/><circle class="sym" cx="0" cy="0" r="3"/><text class="lab lft" transform="translate(-3 -7)">27</text></g><path class="edge" d="M 0 0 V -227.568 H 236.828"/><circle class="sym" cx="0" cy="0" r="3"/><text class="lab lft" transform="translate(-3 -7)">34</text></g><g class="a37 c2 node n36 p2" transform="translate(236.828 110.986)"><g class="a36 c2 node n31 p1" transform="translate(107.094 148.659)"><g class="a31 i6 leaf node n6 p1 sample" transform="translate(-34.5 22.1019)"><path class="edge" d="M 0 0 V -22.1019 H 34.5"/><rect class="sym" height="6" width="6" x="-3" y="-3"/><text class="lab" transform="translate(0 11)">6</text></g><g class="a31 c2 node n25 p2" transform="translate(34.5 9.63188)"><g class="a25 i8 leaf node n8 p1 sample" transform="translate(-23 12.47)"><path class="edge" d="M 0 0 V -12.47 H 23"/><rect class="sym" height="6" width="6" x="-3" y="-3"/><text class="lab" transform="translate(0 11)">8</text></g><g class="a25 i9 leaf m0 node n9 p1 s0 sample" transform="translate(23 12.47)"><path class="edge" d="M 0 0 V -12.47 H -23"/><g class="mut m0 s0" transform="translate(0 -6.68923)"><line x1="0" x2="0" y1="0" y2="6.68923"/><path class="sym" d="M -3,-3 l 6,6 M -3,3 l 6,-6"/><text class="lab rgt" transform="translate(5 0)">0</text></g><rect class="sym" height="6" width="6" x="-3" y="-3"/><text class="lab" transform="translate(0 11)">9</text></g><path class="edge" d="M 0 0 V -9.63188 H -34.5"/><circle class="sym" cx="0" cy="0" r="3"/><text class="lab rgt" transform="translate(3 -7)">25</text></g><path class="edge" d="M 0 0 V -148.659 H -107.094"/><circle class="sym" cx="0" cy="0" r="3"/><text class="lab rgt" transform="translate(3 -7)">31</text></g><g class="a36 c2 node n33 p2" transform="translate(-107.094 119.131)"><g class="a33 i19 leaf node n19 p2 sample" transform="translate(133.688 51.63)"><path class="edge" d="M 0 0 V -51.63 H -133.688"/><rect class="sym" height="6" width="6" x="-3" y="-3"/><text class="lab" transform="translate(0 11)">19</text></g><g class="a33 c2 node n32 p2" transform="translate(-133.688 24.1786)"><g class="a32 c2 node n29 p2" transform="translate(-94.875 7.9256)"><g class="a29 i1 leaf node n1 p1 sample" transform="translate(-51.75 19.5258)"><path class="edge" d="M 0 0 V -19.5258 H 51.75"/><rect class="sym" height="6" width="6" x="-3" y="-3"/><text class="lab" transform="translate(0 11)">1</text></g><g class="a29 c2 node n24 p1" transform="translate(51.75 10.0718)"><g class="a24 i7 leaf node n7 p1 sample" transform="translate(34.5 9.45407)"><path class="edge" d="M 0 0 V -9.45407 H -34.5"/><rect class="sym" height="6" width="6" x="-3" y="-3"/><text class="lab" transform="translate(0 11)">7</text></g><g class="a24 c2 node n22 p2" transform="translate(-34.5 2.74426)"><g class="a22 i3 leaf node n3 p1 sample" transform="translate(-23 6.70981)"><path class="edge" d="M 0 0 V -6.70981 H 23"/><rect class="sym" height="6" width="6" x="-3" y="-3"/><text class="lab" transform="translate(0 11)">3</text></g><g class="a22 i5 leaf node n5 p1 sample" transform="translate(23 6.70981)"><path class="edge" d="M 0 0 V -6.70981 H -23"/><rect class="sym" height="6" width="6" x="-3" y="-3"/><text class="lab" transform="translate(0 11)">5</text></g><path class="edge" d="M 0 0 V -2.74426 H 34.5"/><circle class="sym" cx="0" cy="0" r="3"/><text class="lab lft" transform="translate(-3 -7)">22</text></g><path class="edge" d="M 0 0 V -10.0718 H -51.75"/><circle class="sym" cx="0" cy="0" r="3"/><text class="lab rgt" transform="translate(3 -7)">24</text></g><path class="edge" d="M 0 0 V -7.9256 H 94.875"/><circle class="sym" cx="0" cy="0" r="3"/><text class="lab lft" transform="translate(-3 -7)">29</text></g><g class="a32 c2 node n30 p1" transform="translate(94.875 6.45048)"><g class="a30 i10 leaf node n10 p2 sample" transform="translate(-57.5 21.001)"><path class="edge" d="M 0 0 V -21.001 H 57.5"/><rect class="sym" height="6" width="6" x="-3" y="-3"/><text class="lab" transform="translate(0 11)">10</text></g><g class="a30 c2 node n28 p1" transform="translate(57.5 6.5025)"><g class="a28 c2 node n20 p1" transform="translate(46 12.6568)"><g class="a20 i16 leaf node n16 p2 sample" transform="translate(-23 1.84169)"><path class="edge" d="M 0 0 V -1.84169 H 23"/><rect class="sym" height="6" width="6" x="-3" y="-3"/><text class="lab" transform="translate(0 11)">16</text></g><g class="a20 i18 leaf node n18 p2 sample" transform="translate(23 1.84169)"><path class="edge" d="M 0 0 V -1.84169 H -23"/><rect class="sym" height="6" width="6" x="-3" y="-3"/><text class="lab" transform="translate(0 11)">18</text></g><path class="edge" d="M 0 0 V -12.6568 H -46"/><circle class="sym" cx="0" cy="0" r="3"/><text class="lab rgt" transform="translate(3 -7)">20</text></g><g class="a28 c2 node n26 p1" transform="translate(-46 1.36075)"><g class="a26 i12 leaf node n12 p2 sample" transform="translate(-23 13.1377)"><path class="edge" d="M 0 0 V -13.1377 H 23"/><rect class="sym" height="6" width="6" x="-3" y="-3"/><text class="lab" transform="translate(0 11)">12</text></g><g class="a26 i13 leaf node n13 p2 sample" transform="translate(23 13.1377)"><path class="edge" d="M 0 0 V -13.1377 H -23"/><rect class="sym" height="6" width="6" x="-3" y="-3"/><text class="lab" transform="translate(0 11)">13</text></g><path class="edge" d="M 0 0 V -1.36075 H 46"/><circle class="sym" cx="0" cy="0" r="3"/><text class="lab lft" transform="translate(-3 -7)">26</text></g><path class="edge" d="M 0 0 V -6.5025 H -57.5"/><circle class="sym" cx="0" cy="0" r="3"/><text class="lab rgt" transform="translate(3 -7)">28</text></g><path class="edge" d="M 0 0 V -6.45048 H -94.875"/><circle class="sym" cx="0" cy="0" r="3"/><text class="lab rgt" transform="translate(3 -7)">30</text></g><path class="edge" d="M 0 0 V -24.1786 H 133.688"/><circle class="sym" cx="0" cy="0" r="3"/><text class="lab lft" transform="translate(-3 -7)">32</text></g><path class="edge" d="M 0 0 V -119.131 H 107.094"/><circle class="sym" cx="0" cy="0" r="3"/><text class="lab lft" transform="translate(-3 -7)">33</text></g><path class="edge" d="M 0 0 V -110.986 H -236.828"/><circle class="sym" cx="0" cy="0" r="3"/><text class="lab rgt" transform="translate(3 -7)">36</text></g><path class="edge" d="M 0 0 V -12.853 H 252.461"/><circle class="sym" cx="0" cy="0" r="3"/><text class="lab lft" transform="translate(-3 -7)">37</text></g><circle class="sym" cx="0" cy="0" r="3"/><text class="lab" transform="translate(0 -11)">38</text></g></g></g></g></g></svg>