<svg baseProfile="full" height="400" version="1.1" width="1000" xmlns="http://www.w3.org/2000/svg" xmlns:ev="http://www.w3.org/2001/xml-events" xmlns:xlink="http://www.w3.org/1999/xlink"><defs><style type="text/css"><![CDATA[.background path {fill: #808080; fill-opacity: 0}.background path:nth-child(odd) {fill-opacity: .1}.x-regions rect {fill: yellow; stroke: black; opacity: 0.5}.axes {font-size: 14px}.x-axis .tick .lab {font-weight: bold; dominant-baseline: hanging}.axes, .tree {font-size: 14px; text-anchor: middle}.axes line, .edge {stroke: black; fill: none}.axes .ax-skip {stroke-dasharray: 4}.y-axis .grid {stroke: #FAFAFA}.node > .sym {fill: black; stroke: none}.site > .sym {stroke: black}.mut text {fill: red; font-style: italic}.mut.extra text {fill: hotpink}.mut line {fill: none; stroke: none}.mut .sym {fill: none; stroke: red}.mut.extra .sym {stroke: hotpink}.node .mut .sym {stroke-width: 1.5px}.tree text, .tree-sequence text {dominant-baseline: central}.plotbox .lab.lft {text-anchor: end}.plotbox .lab.rgt {text-anchor: start}.polytomy line {stroke: black; stroke-dasharray: 1px, 1px}.polytomy text {paint-order:stroke;stroke-width:0.3em;stroke:white}]]></style></defs><g class="tree-sequence"><g class="background"><path d="M20,0 l960,0 l0,338.2 l0,25 l0,5 l-960,0 l0,-5 l0,-25 l0,-338.2z"/></g><g class="axes"><g class="x-axis"><g class="title" transform="translate(500 400)"><text class="lab" text-anchor="middle" transform="translate(0 -11)">Genome position</text></g><line class="ax-line" x1="20" x2="980" y1="363.2" y2="363.2"/><g class="ticks"><g class="tick" transform="translate(20 363.2)"><line x1="0" x2="0" y1="0" y2="5"/><g transform="translate(0 6)"><text class="lab">0</text></g></g><g class="tick" transform="translate(980 363.2)"><line x1="0" x2="0" y1="0" y2="5"/><g transform="translate(0 6)"><text class="lab">1000</text></g></g></g><g class="site s0" transform="translate(45.92 363.2)"><line class="sym" x1="0" x2="0" y1="0" y2="-10"/><g class="mut m0"><polyline class="sym" points="2.5,-6.5 0,-1.5 -2.5,-6.5"/></g></g><g class="site s1" transform="translate(358.88 363.2)"><line class="sym" x1="0" x2="0" y1="0" y2="-10"/><g class="mut m1"><polyline class="sym" points="2.5,-6.5 0,-1.5 -2.5,-6.5"/></g></g><g class="site s2" transform="translate(409.76 363.2)"><line class="sym" x1="0" x2="0" y1="0" y2="-10"/><g class="mut m2"><polyline class="sym" points="2.5,-6.5 0,-1.5 -2.5,-6.5"/></g></g><g class="site s3" transform="translate(414.56 363.2)"><line class="sym" x1="0" x2="0" y1="0" y2="-10"/><g class="mut m3"><polyline class="sym" points="2.5,-6.5 0,-1.5 -2.5,-6.5"/></g></g><g class="site s4" transform="translate(651.68 363.2)"><line class="sym" x1="0" x2="0" y1="0" y2="-10"/><g class="mut m4"><polyline class="sym" points="2.5,-6.5 0,-1.5 -2.5,-6.5"/></g></g><g class="site s5" transform="translate(696.8 363.2)"><line class="sym" x1="0" x2="0" y1="0" y2="-10"/><g class="mut m5"><polyline class="sym" points="2.5,-6.5 0,-1.5 -2.5,-6.5"/></g></g><g class="site s6" transform="translate(708.32 363.2)"><line class="sym" x1="0" x2="0" y1="0" y2="-10"/><g class="mut m6"><polyline class="sym" points="2.5,-6.5 0,-1.5 -2.5,-6.5"/></g></g></g></g><g class="plotbox trees"><g class="tree t0" transform="translate(20 0)"><g class="plotbox"><g class="c2 node n38 p1 root" transform="translate(420.793 26.8)"><g class="a38 c2 m0 m4 node n26 p1 s0 s4" transform="translate(-280.043 274.414)"><g class="a26 i7 leaf node n7 p1 sample" transform="translate(40.25 20.1861)"><path class="edge" d="M 0 0 V -20.1861 H -40.25"/><rect class="sym" height="6" width="6" x="-3" y="-3"/><text class="lab" transform="translate(0 11)">7</text></g><g class="a26 c2 node n24 p1" transform="translate(-40.25 7.7391)"><g class="a24 i6 leaf node n6 p1 sample" transform="translate(34.5 12.447)"><path class="edge" d="M 0 0 V -12.447 H -34.5"/><rect class="sym" height="6" width="6" x="-3" y="-3"/><text class="lab" transform="translate(0 11)">6</text></g><g class="a24 c2 node n22 p1" transform="translate(-34.5 2.44037)"><g class="a22 i0 leaf node n0 p1 sample" transform="translate(-23 10.0066)"><path class="edge" d="M 0 0 V -10.0066 H 23"/><rect class="sym" height="6" width="6" x="-3" y="-3"/><text class="lab" transform="translate(0 11)">0</text></g><g class="a22 i3 leaf node n3 p1 sample" transform="translate(23 10.0066)"><path class="edge" d="M 0 0 V -10.0066 H -23"/><rect class="sym" height="6" width="6" x="-3" y="-3"/><text class="lab" transform="translate(0 11)">3</text></g><path class="edge" d="M 0 0 V -2.44037 H 34.5"/><circle class="sym" cx="0" cy="0" r="3"/><text class="lab lft" transform="translate(-3 -7)">22</text></g><path class="edge" d="M 0 0 V -7.7391 H 40.25"/><circle class="sym" cx="0" cy="0" r="3"/><text class="lab lft" transform="translate(-3 -7)">24</text></g><path class="edge" d="M 0 0 V -274.414 H 280.043"/><g class="mut m0 s0" transform="translate(0 -190.997)"><line x1="0" x2="0" y1="0" y2="190.997"/><path class="sym" d="M -3,-3 l 6,6 M -3,3 l 6,-6"/><text class="lab lft" transform="translate(-5 0)">0</text></g><g class="mut m4 s4" transform="translate(0 -158.466)"><line x1="0" x2="0" y1="0" y2="158.466"/><path class="sym" d="M -3,-3 l 6,6 M -3,3 l 6,-6"/><text class="lab lft" transform="translate(-5 0)">4</text></g><circle class="sym" cx="0" cy="0" r="3"/><text class="lab lft" transform="translate(-3 -7)">26</text></g><g class="a38 c2 m1 node n37 p1 s1" transform="translate(280.043 199.905)"><g class="a37 c2 node n32 p1" transform="translate(193.164 44.5291)"><g class="a32 i11 leaf node n11 p2 sample" transform="translate(-23 50.1663)"><path class="edge" d="M 0 0 V -50.1663 H 23"/><rect class="sym" height="6" width="6" x="-3" y="-3"/><text class="lab" transform="translate(0 11)">11</text></g><g class="a32 i12 leaf m3 node n12 p2 s3 sample" transform="translate(23 50.1663)"><path class="edge" d="M 0 0 V -50.1663 H -23"/><g class="mut m3 s3" transform="translate(0 -33.0037)"><line x1="0" x2="0" y1="0" y2="33.0037"/><path class="sym" d="M -3,-3 l 6,6 M -3,3 l 6,-6"/><text class="lab rgt" transform="translate(5 0)">3</text></g><rect class="sym" height="6" width="6" x="-3" y="-3"/><text class="lab" transform="translate(0 11)">12</text></g><path class="edge" d="M 0 0 V -44.5291 H -193.164"/><circle class="sym" cx="0" cy="0" r="3"/><text class="lab rgt" transform="translate(3 -7)">32</text></g><g class="a37 c2 node n36 p2" transform="translate(-193.164 3.06853)"><g class="a36 c2 m5 node n21 p2 s5" transform="translate(-223.172 84.5395)"><g class="a21 i13 leaf node n13 p2 sample" transform="translate(34.5 7.08743)"><path class="edge" d="M 0 0 V -7.08743 H -34.5"/><rect class="sym" height="6" width="6" x="-3" y="-3"/><text class="lab" transform="translate(0 11)">13</text></g><g class="a21 c2 node n20 p1" transform="translate(-34.5 5.1665)"><g class="a20 i1 leaf node n1 p1 sample" transform="translate(-23 1.92092)"><path class="edge" d="M 0 0 V -1.92092 H 23"/><rect class="sym" height="6" width="6" x="-3" y="-3"/><text class="lab" transform="translate(0 11)">1</text></g><g class="a20 i18 leaf node n18 p2 sample" transform="translate(23 1.92092)"><path class="edge" d="M 0 0 V -1.92092 H -23"/><rect class="sym" height="6" width="6" x="-3" y="-3"/><text class="lab" transform="translate(0 11)">18</text></g><path class="edge" d="M 0 0 V -5.1665 H 34.5"/><circle class="sym" cx="0" cy="0" r="3"/><text class="lab lft" transform="translate(-3 -7)">20</text></g><path class="edge" d="M 0 0 V -84.5395 H 223.172"/><g class="mut m5 s5" transform="translate(0 -58.8612)"><line x1="0" x2="0" y1="0" y2="58.8612"/><path class="sym" d="M -3,-3 l 6,6 M -3,3 l 6,-6"/><text class="lab lft" transform="translate(-5 0)">5</text></g><circle class="sym" cx="0" cy="0" r="3"/><text class="lab lft" transform="translate(-3 -7)">21</text></g><g class="a36 c2 node n35 p1" transform="translate(223.172 33.4393)"><g class="a35 i5 leaf node n5 p1 sample" transform="translate(94.1562 58.1876)"><path class="edge" d="M 0 0 V -58.1876 H -94.1562"/><rect class="sym" height="6" width="6" x="-3" y="-3"/><text class="lab" transform="translate(0 11)">5</text></g><g class="a35 c2 node n34 p1" transform="translate(-94.1562 1.78056)"><g class="a34 c2 node n30 p2" transform="translate(-102.062 20.5485)"><g class="a30 i10 leaf node n10 p2 sample" transform="translate(60.375 35.8585)"><path class="edge" d="M 0 0 V -35.8585 H -60.375"/><rect class="sym" height="6" width="6" x="-3" y="-3"/><text class="lab" transform="translate(0 11)">10</text></g><g class="a30 c2 node n29 p2" transform="translate(-60.375 0.135075)"><g class="a29 c2 node n27 p1" transform="translate(-51.75 11.1108)"><g class="a27 i4 leaf node n4 p1 sample" transform="translate(34.5 24.6127)"><path class="edge" d="M 0 0 V -24.6127 H -34.5"/><rect class="sym" height="6" width="6" x="-3" y="-3"/><text class="lab" transform="translate(0 11)">4</text></g><g class="a27 c2 node n23 p1" transform="translate(-34.5 13.7709)"><g class="a23 i2 leaf node n2 p1 sample" transform="translate(-23 10.8418)"><path class="edge" d="M 0 0 V -10.8418 H 23"/><rect class="sym" height="6" width="6" x="-3" y="-3"/><text class="lab" transform="translate(0 11)">2</text></g><g class="a23 i17 leaf node n17 p2 sample" transform="translate(23 10.8418)"><path class="edge" d="M 0 0 V -10.8418 H -23"/><rect class="sym" height="6" width="6" x="-3" y="-3"/><text class="lab" transform="translate(0 11)">17</text></g><path class="edge" d="M 0 0 V -13.7709 H 34.5"/><circle class="sym" cx="0" cy="0" r="3"/><text class="lab lft" transform="translate(-3 -7)">23</text></g><path class="edge" d="M 0 0 V -11.1108 H 51.75"/><circle class="sym" cx="0" cy="0" r="3"/><text class="lab lft" transform="translate(-3 -7)">27</text></g><g class="a29 c2 node n28 p2" transform="translate(51.75 4.4994)"><g class="a28 i8 leaf m2 node n8 p1 s2 sample" transform="translate(-23 31.2241)"><path class="edge" d="M 0 0 V -31.2241 H 23"/><g class="mut m2 s2" transform="translate(0 -30.0829)"><line x1="0" x2="0" y1="0" y2="30.0829"/><path class="sym" d="M -3,-3 l 6,6 M -3,3 l 6,-6"/><text class="lab lft" transform="translate(-5 0)">2</text></g><rect class="sym" height="6" width="6" x="-3" y="-3"/><text class="lab" transform="translate(0 11)">8</text></g><g class="a28 i15 leaf node n15 p2 sample" transform="translate(23 31.2241)"><path class="edge" d="M 0 0 V -31.2241 H -23"/><rect class="sym" height="6" width="6" x="-3" y="-3"/><text class="lab" transform="translate(0 11)">15</text></g><path class="edge" d="M 0 0 V -4.4994 H -51.75"/><circle class="sym" cx="0" cy="0" r="3"/><text class="lab rgt" transform="translate(3 -7)">28</text></g><path class="edge" d="M 0 0 V -0.135075 H 60.375"/><circle class="sym" cx="0" cy="0" r="3"/><text class="lab lft" transform="translate(-3 -7)">29</text></g><path class="edge" d="M 0 0 V -20.5485 H 102.062"/><circle class="sym" cx="0" cy="0" r="3"/><text class="lab lft" transform="translate(-3 -7)">30</text></g><g class="a34 c2 node n33 p1" transform="translate(102.062 0.656898)"><g class="a33 i19 leaf m6 node n19 p2 s6 sample" transform="translate(40.25 55.7501)"><path class="edge" d="M 0 0 V -55.7501 H -40.25"/><g class="mut m6 s6" transform="translate(0 -32.5936)"><line x1="0" x2="0" y1="0" y2="32.5936"/><path class="sym" d="M -3,-3 l 6,6 M -3,3 l 6,-6"/><text class="lab rgt" transform="translate(5 0)">6</text></g><rect class="sym" height="6" width="6" x="-3" y="-3"/><text class="lab" transform="translate(0 11)">19</text></g><g class="a33 c2 node n31 p2" transform="translate(-40.25 12.066)"><g class="a31 i14 leaf node n14 p2 sample" transform="translate(34.5 43.6841)"><path class="edge" d="M 0 0 V -43.6841 H -34.5"/><rect class="sym" height="6" width="6" x="-3" y="-3"/><text class="lab" transform="translate(0 11)">14</text></g><g class="a31 c2 node n25 p1" transform="translate(-34.5 30.6361)"><g class="a25 i9 leaf node n9 p1 sample" transform="translate(-23 13.048)"><path class="edge" d="M 0 0 V -13.048 H 23"/><rect class="sym" height="6" width="6" x="-3" y="-3"/><text class="lab" transform="translate(0 11)">9</text></g><g class="a25 i16 leaf node n16 p2 sample" transform="translate(23 13.048)"><path class="edge" d="M 0 0 V -13.048 H -23"/><rect class="sym" height="6" width="6" x="-3" y="-3"/><text class="lab" transform="translate(0 11)">16</text></g><path class="edge" d="M 0 0 V -30.6361 H 34.5"/><circle class="sym" cx="0" cy="0" r="3"/><text class="lab lft" transform="translate(-3 -7)">25</text></g><path class="edge" d="M 0 0 V -12.066 H 40.25"/><circle class="sym" cx="0" cy="0" r="3"/><text class="lab lft" transform="translate(-3 -7)">31</text></g><path class="edge" d="M 0 0 V -0.656898 H -102.062"/><circle class="sym" cx="0" cy="0" r="3"/><text class="lab rgt" transform="translate(3 -7)">33</text></g><path class="edge" d="M 0 0 V -1.78056 H 94.1562"/><circle class="sym" cx="0" cy="0" r="3"/><text class="lab lft" transform="translate(-3 -7)">34</text></g><path class="edge" d="M 0 0 V -33.4393 H -223.172"/><circle class="sym" cx="0" cy="0" r="3"/><text class="lab rgt" transform="translate(3 -7)">35</text></g><path class="edge" d="M 0 0 V -3.06853 H 193.164"/><circle class="sym" cx="0" cy="0" r="3"/><text class="lab lft" transform="translate(-3 -7)">36</text></g><path class="edge" d="M 0 0 V -199.905 H -280.043"/><g class="mut m1 s1" transform="translate(0 -71.4893)"><line x1="0" x2="0" y1="0" y2="71.4893"/><path class="sym" d="M -3,-3 l 6,6 M -3,3 l 6,-6"/><text class="lab rgt" transform="translate(5 0)">1</text></g><circle class="sym" cx="0" cy="0" r="3"/><text class="lab rgt" transform="translate(3 -7)">37</text></g><circle class="sym" cx="0" cy="0" r="3"/><text class="lab" transform="translate(0 -11)">38</text></g></g></g></g></g></svg>