<svg baseProfile="full" height="400" version="1.1" width="1000" xmlns="http://www.w3.org/2000/svg" xmlns:ev="http://www.w3.org/2001/xml-events" xmlns:xlink="http://www.w3.org/1999/xlink"><defs><style type="text/css"><![CDATA[.background path {fill: #808080; fill-opacity: 0}.background path:nth-child(odd) {fill-opacity: .1}.x-regions rect {fill: yellow; stroke: black; opacity: 0.5}.axes {font-size: 14px}.x-axis .tick .lab {font-weight: bold; dominant-baseline: hanging}.axes, .tree {font-size: 14px; text-anchor: middle}.axes line, .edge {stroke: black; fill: none}.axes .ax-skip {stroke-dasharray: 4}.y-axis .grid {stroke: #FAFAFA}.node > .sym {fill: black; stroke: none}.site > .sym {stroke: black}.mut text {fill: red; font-style: italic}.mut.extra text {fill: hotpink}.mut line {fill: none; stroke: none}.mut .sym {fill: none; stroke: red}.mut.extra .sym {stroke: hotpink}.node .mut .sym {stroke-width: 1.5px}.tree text, .tree-sequence text {dominant-baseline: central}.plotbox .lab.lft {text-anchor: end}.plotbox .lab.rgt {text-anchor: start}.polytomy line {stroke: black; stroke-dasharray: 1px, 1px}.polytomy text {paint-order:stroke;stroke-width:0.3em;stroke:white}]]></style></defs><g class="tree-sequence"><g class="background"><path d="M20,0 l960,0 l0,338.2 l0,25 l0,5 l-960,0 l0,-5 l0,-25 l0,-338.2z"/></g><g class="axes"><g class="x-axis"><g class="title" transform="translate(500 400)"><text class="lab" text-anchor="middle" transform="translate(0 -11)">Genome position</text></g><line class="ax-line" x1="20" x2="980" y1="363.2" y2="363.2"/><g class="ticks"><g class="tick" transform="translate(20 363.2)"><line x1="0" x2="0" y1="0" y2="5"/><g transform="translate(0 6)"><text class="lab">0</text></g></g><g class="tick" transform="translate(980 363.2)"><line x1="0" x2="0" y1="0" y2="5"/><g transform="translate(0 6)"><text class="lab">1000</text></g></g></g><g class="site s0" transform="translate(465.44 363.2)"><line class="sym" x1="0" x2="0" y1="0" y2="-10"/><g class="mut m0"><polyline class="sym" points="2.5,-6.5 0,-1.5 -2.5,-6.5"/></g></g><g class="site s1" transform="translate(483.68 363.2)"><line class="sym" x1="0" x2="0" y1="0" y2="-10"/><g class="mut m1"><polyline class="sym" points="2.5,-6.5 0,-1.5 -2.5,-6.5"/></g></g><g class="site s2" transform="translate(537.44 363.2)"><line class="sym" x1="0" x2="0" y1="0" y2="-10"/><g class="mut m2"><polyline class="sym" points="2.5,-6.5 0,-1.5 -2.5,-6.5"/></g></g></g></g><g class="plotbox trees"><g class="tree t0" transform="translate(20 0)"><g class="plotbox"><g class="c2 node n38 p1 root" transform="translate(615.125 26.8)"><g class="a38 c2 m2 node n32 p1 s2" transform="translate(244.375 270.118)"><g class="a32 i6 leaf m1 node n6 p1 s1 sample" transform="translate(-34.5 24.4815)"><path class="edge" d="M 0 0 V -24.4815 H 34.5"/><g class="mut m1 s1" transform="translate(0 -11.432)"><line x1="0" x2="0" y1="0" y2="11.432"/><path class="sym" d="M -3,-3 l 6,6 M -3,3 l 6,-6"/><text class="lab lft" transform="translate(-5 0)">1</text></g><rect class="sym" height="6" width="6" x="-3" y="-3"/><text class="lab" transform="translate(0 11)">6</text></g><g class="a32 c2 node n21 p1" transform="translate(34.5 23.6844)"><g class="a21 i17 leaf node n17 p2 sample" transform="translate(-23 0.797151)"><path class="edge" d="M 0 0 V -0.797151 H 23"/><rect class="sym" height="6" width="6" x="-3" y="-3"/><text class="lab" transform="translate(0 11)">17</text></g><g class="a21 i19 leaf node n19 p2 sample" transform="translate(23 0.797151)"><path class="edge" d="M 0 0 V -0.797151 H -23"/><rect class="sym" height="6" width="6" x="-3" y="-3"/><text class="lab" transform="translate(0 11)">19</text></g><path class="edge" d="M 0 0 V -23.6844 H -34.5"/><circle class="sym" cx="0" cy="0" r="3"/><text class="lab rgt" transform="translate(3 -7)">21</text></g><path class="edge" d="M 0 0 V -270.118 H -244.375"/><g class="mut m2 s2" transform="translate(0 -240.787)"><line x1="0" x2="0" y1="0" y2="240.787"/><path class="sym" d="M -3,-3 l 6,6 M -3,3 l 6,-6"/><text class="lab rgt" transform="translate(5 0)">2</text></g><circle class="sym" cx="0" cy="0" r="3"/><text class="lab rgt" transform="translate(3 -7)">32</text></g><g class="a38 c2 node n37 p2" transform="translate(-244.375 117.231)"><g class="a37 c2 node n35 p1" transform="translate(258.75 106.604)"><g class="a35 c2 node n28 p1" transform="translate(115 56.7071)"><g class="a28 i18 leaf node n18 p2 sample" transform="translate(34.5 14.0583)"><path class="edge" d="M 0 0 V -14.0583 H -34.5"/><rect class="sym" height="6" width="6" x="-3" y="-3"/><text class="lab" transform="translate(0 11)">18</text></g><g class="a28 c2 node n27 p1" transform="translate(-34.5 0.534905)"><g class="a27 i11 leaf node n11 p2 sample" transform="translate(-23 13.5234)"><path class="edge" d="M 0 0 V -13.5234 H 23"/><rect class="sym" height="6" width="6" x="-3" y="-3"/><text class="lab" transform="translate(0 11)">11</text></g><g class="a27 i16 leaf node n16 p2 sample" transform="translate(23 13.5234)"><path class="edge" d="M 0 0 V -13.5234 H -23"/><rect class="sym" height="6" width="6" x="-3" y="-3"/><text class="lab" transform="translate(0 11)">16</text></g><path class="edge" d="M 0 0 V -0.534905 H 34.5"/><circle class="sym" cx="0" cy="0" r="3"/><text class="lab lft" transform="translate(-3 -7)">27</text></g><path class="edge" d="M 0 0 V -56.7071 H -115"/><circle class="sym" cx="0" cy="0" r="3"/><text class="lab rgt" transform="translate(3 -7)">28</text></g><g class="a35 c2 node n34 p2" transform="translate(-115 31.6674)"><g class="a34 i7 leaf node n7 p1 sample" transform="translate(126.5 39.098)"><path class="edge" d="M 0 0 V -39.098 H -126.5"/><rect class="sym" height="6" width="6" x="-3" y="-3"/><text class="lab" transform="translate(0 11)">7</text></g><g class="a34 c2 node n33 p2" transform="translate(-126.5 1.27359)"><g class="a33 c2 node n24 p1" transform="translate(-103.5 30.2191)"><g class="a24 i13 leaf node n13 p2 sample" transform="translate(34.5 7.60529)"><path class="edge" d="M 0 0 V -7.60529 H -34.5"/><rect class="sym" height="6" width="6" x="-3" y="-3"/><text class="lab" transform="translate(0 11)">13</text></g><g class="a24 c2 node n20 p2" transform="translate(-34.5 6.89316)"><g class="a20 i4 leaf node n4 p1 sample" transform="translate(-23 0.712128)"><path class="edge" d="M 0 0 V -0.712128 H 23"/><rect class="sym" height="6" width="6" x="-3" y="-3"/><text class="lab" transform="translate(0 11)">4</text></g><g class="a20 i14 leaf node n14 p2 sample" transform="translate(23 0.712128)"><path class="edge" d="M 0 0 V -0.712128 H -23"/><rect class="sym" height="6" width="6" x="-3" y="-3"/><text class="lab" transform="translate(0 11)">14</text></g><path class="edge" d="M 0 0 V -6.89316 H 34.5"/><circle class="sym" cx="0" cy="0" r="3"/><text class="lab lft" transform="translate(-3 -7)">20</text></g><path class="edge" d="M 0 0 V -30.2191 H 103.5"/><circle class="sym" cx="0" cy="0" r="3"/><text class="lab lft" transform="translate(-3 -7)">24</text></g><g class="a33 c2 node n31 p1" transform="translate(103.5 15.5058)"><g class="a31 c2 node n29 p1" transform="translate(-69 7.35663)"><g class="a29 i10 leaf node n10 p2 sample" transform="translate(34.5 14.962)"><path class="edge" d="M 0 0 V -14.962 H -34.5"/><rect class="sym" height="6" width="6" x="-3" y="-3"/><text class="lab" transform="translate(0 11)">10</text></g><g class="a29 c2 node n26 p2" transform="translate(-34.5 4.27914)"><g class="a26 i5 leaf node n5 p1 sample" transform="translate(-23 10.6829)"><path class="edge" d="M 0 0 V -10.6829 H 23"/><rect class="sym" height="6" width="6" x="-3" y="-3"/><text class="lab" transform="translate(0 11)">5</text></g><g class="a26 i8 leaf node n8 p1 sample" transform="translate(23 10.6829)"><path class="edge" d="M 0 0 V -10.6829 H -23"/><rect class="sym" height="6" width="6" x="-3" y="-3"/><text class="lab" transform="translate(0 11)">8</text></g><path class="edge" d="M 0 0 V -4.27914 H 34.5"/><circle class="sym" cx="0" cy="0" r="3"/><text class="lab lft" transform="translate(-3 -7)">26</text></g><path class="edge" d="M 0 0 V -7.35663 H 69"/><circle class="sym" cx="0" cy="0" r="3"/><text class="lab lft" transform="translate(-3 -7)">29</text></g><g class="a31 c2 node n30 p1" transform="translate(69 2.34311)"><g class="a30 i12 leaf node n12 p2 sample" transform="translate(34.5 19.9755)"><path class="edge" d="M 0 0 V -19.9755 H -34.5"/><rect class="sym" height="6" width="6" x="-3" y="-3"/><text class="lab" transform="translate(0 11)">12</text></g><g class="a30 c2 node n22 p1" transform="translate(-34.5 15.0547)"><g class="a22 i9 leaf node n9 p1 sample" transform="translate(-23 4.92089)"><path class="edge" d="M 0 0 V -4.92089 H 23"/><rect class="sym" height="6" width="6" x="-3" y="-3"/><text class="lab" transform="translate(0 11)">9</text></g><g class="a22 i15 leaf m0 node n15 p2 s0 sample" transform="translate(23 4.92089)"><path class="edge" d="M 0 0 V -4.92089 H -23"/><g class="mut m0 s0" transform="translate(0 -0.544615)"><line x1="0" x2="0" y1="0" y2="0.544615"/><path class="sym" d="M -3,-3 l 6,6 M -3,3 l 6,-6"/><text class="lab rgt" transform="translate(5 0)">0</text></g><rect class="sym" height="6" width="6" x="-3" y="-3"/><text class="lab" transform="translate(0 11)">15</text></g><path class="edge" d="M 0 0 V -15.0547 H 34.5"/><circle class="sym" cx="0" cy="0" r="3"/><text class="lab lft" transform="translate(-3 -7)">22</text></g><path class="edge" d="M 0 0 V -2.34311 H -69"/><circle class="sym" cx="0" cy="0" r="3"/><text class="lab rgt" transform="translate(3 -7)">30</text></g><path class="edge" d="M 0 0 V -15.5058 H -103.5"/><circle class="sym" cx="0" cy="0" r="3"/><text class="lab rgt" transform="translate(3 -7)">31</text></g><path class="edge" d="M 0 0 V -1.27359 H 126.5"/><circle class="sym" cx="0" cy="0" r="3"/><text class="lab lft" transform="translate(-3 -7)">33</text></g><path class="edge" d="M 0 0 V -31.6674 H 115"/><circle class="sym" cx="0" cy="0" r="3"/><text class="lab lft" transform="translate(-3 -7)">34</text></g><path class="edge" d="M 0 0 V -106.604 H -258.75"/><circle class="sym" cx="0" cy="0" r="3"/><text class="lab rgt" transform="translate(3 -7)">35</text></g><g class="a37 c2 node n36 p1" transform="translate(-258.75 90.9742)"><g class="a36 c2 node n23 p2" transform="translate(46 80.6238)"><g class="a23 i1 leaf node n1 p1 sample" transform="translate(-23 5.77134)"><path class="edge" d="M 0 0 V -5.77134 H 23"/><rect class="sym" height="6" width="6" x="-3" y="-3"/><text class="lab" transform="translate(0 11)">1</text></g><g class="a23 i2 leaf node n2 p1 sample" transform="translate(23 5.77134)"><path class="edge" d="M 0 0 V -5.77134 H -23"/><rect class="sym" height="6" width="6" x="-3" y="-3"/><text class="lab" transform="translate(0 11)">2</text></g><path class="edge" d="M 0 0 V -80.6238 H -46"/><circle class="sym" cx="0" cy="0" r="3"/><text class="lab rgt" transform="translate(3 -7)">23</text></g><g class="a36 c2 node n25 p1" transform="translate(-46 78.5346)"><g class="a25 i0 leaf node n0 p1 sample" transform="translate(-23 7.86054)"><path class="edge" d="M 0 0 V -7.86054 H 23"/><rect class="sym" height="6" width="6" x="-3" y="-3"/><text class="lab" transform="translate(0 11)">0</text></g><g class="a25 i3 leaf node n3 p1 sample" transform="translate(23 7.86054)"><path class="edge" d="M 0 0 V -7.86054 H -23"/><rect class="sym" height="6" width="6" x="-3" y="-3"/><text class="lab" transform="translate(0 11)">3</text></g><path class="edge" d="M 0 0 V -78.5346 H 46"/><circle class="sym" cx="0" cy="0" r="3"/><text class="lab lft" transform="translate(-3 -7)">25</text></g><path class="edge" d="M 0 0 V -90.9742 H 258.75"/><circle class="sym" cx="0" cy="0" r="3"/><text class="lab lft" transform="translate(-3 -7)">36</text></g><path class="edge" d="M 0 0 V -117.231 H 244.375"/><circle class="sym" cx="0" cy="0" r="3"/><text class="lab lft" transform="translate(-3 -7)">37</text></g><circle class="sym" cx="0" cy="0" r="3"/><text class="lab" transform="translate(0 -11)">38</text></g></g></g></g></g></svg>