<svg baseProfile="full" height="400" version="1.1" width="1000" xmlns="http://www.w3.org/2000/svg" xmlns:ev="http://www.w3.org/2001/xml-events" xmlns:xlink="http://www.w3.org/1999/xlink"><defs><style type="text/css"><![CDATA[.background path {fill: #808080; fill-opacity: 0}.background path:nth-child(odd) {fill-opacity: .1}.x-regions rect {fill: yellow; stroke: black; opacity: 0.5}.axes {font-size: 14px}.x-axis .tick .lab {font-weight: bold; dominant-baseline: hanging}.axes, .tree {font-size: 14px; text-anchor: middle}.axes line, .edge {stroke: black; fill: none}.axes .ax-skip {stroke-dasharray: 4}.y-axis .grid {stroke: #FAFAFA}.node > .sym {fill: black; stroke: none}.site > .sym {stroke: black}.mut text {fill: red; font-style: italic}.mut.extra text {fill: hotpink}.mut line {fill: none; stroke: none}.mut .sym {fill: none; stroke: red}.mut.extra .sym {stroke: hotpink}.node .mut .sym {stroke-width: 1.5px}.tree text, .tree-sequence text {dominant-baseline: central}.plotbox .lab.lft {text-anchor: end}.plotbox .lab.rgt {text-anchor: start}.polytomy line {stroke: black; stroke-dasharray: 1px, 1px}.polytomy text {paint-order:stroke;stroke-width:0.3em;stroke:white}]]></style></defs><g class="tree-sequence"><g class="background"><path d="M20,0 l960,0 l0,338.2 l0,25 l0,5 l-960,0 l0,-5 l0,-25 l0,-338.2z"/></g><g class="axes"><g class="x-axis"><g class="title" transform="translate(500 400)"><text class="lab" text-anchor="middle" transform="translate(0 -11)">Genome position</text></g><line class="ax-line" x1="20" x2="980" y1="363.2" y2="363.2"/><g class="ticks"><g class="tick" transform="translate(20 363.2)"><line x1="0" x2="0" y1="0" y2="5"/><g transform="translate(0 6)"><text class="lab">0</text></g></g><g class="tick" transform="translate(980 363.2)"><line x1="0" x2="0" y1="0" y2="5"/><g transform="translate(0 6)"><text class="lab">1000</text></g></g></g><g class="site s0" transform="translate(62.24 363.2)"><line class="sym" x1="0" x2="0" y1="0" y2="-10"/><g class="mut m0"><polyline class="sym" points="2.5,-6.5 0,-1.5 -2.5,-6.5"/></g></g><g class="site s1" transform="translate(448.16 363.2)"><line class="sym" x1="0" x2="0" y1="0" y2="-10"/><g class="mut m1"><polyline class="sym" points="2.5,-6.5 0,-1.5 -2.5,-6.5"/></g></g><g class="site s2" transform="translate(478.88 363.2)"><line class="sym" x1="0" x2="0" y1="0" y2="-10"/><g class="mut m2"><polyline class="sym" points="2.5,-6.5 0,-1.5 -2.5,-6.5"/></g></g></g></g><g class="plotbox trees"><g class="tree t0" transform="translate(20 0)"><g class="plotbox"><g class="c2 node n38 p2 root" transform="translate(742.883 26.8)"><g class="a38 c2 m0 node n34 p2 s0" transform="translate(139.617 231.656)"><g class="a34 i7 leaf node n7 p1 sample" transform="translate(34.5 62.9436)"><path class="edge" d="M 0 0 V -62.9436 H -34.5"/><rect class="sym" height="6" width="6" x="-3" y="-3"/><text class="lab" transform="translate(0 11)">7</text></g><g class="a34 c2 node n20 p2" transform="translate(-34.5 62.8173)"><g class="a20 i5 leaf node n5 p1 sample" transform="translate(-23 0.126295)"><path class="edge" d="M 0 0 V -0.126295 H 23"/><rect class="sym" height="6" width="6" x="-3" y="-3"/><text class="lab" transform="translate(0 11)">5</text></g><g class="a20 i6 leaf node n6 p1 sample" transform="translate(23 0.126295)"><path class="edge" d="M 0 0 V -0.126295 H -23"/><rect class="sym" height="6" width="6" x="-3" y="-3"/><text class="lab" transform="translate(0 11)">6</text></g><path class="edge" d="M 0 0 V -62.8173 H 34.5"/><circle class="sym" cx="0" cy="0" r="3"/><text class="lab lft" transform="translate(-3 -7)">20</text></g><path class="edge" d="M 0 0 V -231.656 H -139.617"/><g class="mut m0 s0" transform="translate(0 -211.571)"><line x1="0" x2="0" y1="0" y2="211.571"/><path class="sym" d="M -3,-3 l 6,6 M -3,3 l 6,-6"/><text class="lab rgt" transform="translate(5 0)">0</text></g><circle class="sym" cx="0" cy="0" r="3"/><text class="lab rgt" transform="translate(3 -7)">34</text></g><g class="a38 c2 node n37 p1" transform="translate(-139.617 173.675)"><g class="a37 c2 node n35 p2" transform="translate(-106.734 47.7967)"><g class="a35 i9 leaf node n9 p1 sample" transform="translate(98.4688 73.1282)"><path class="edge" d="M 0 0 V -73.1282 H -98.4688"/><rect class="sym" height="6" width="6" x="-3" y="-3"/><text class="lab" transform="translate(0 11)">9</text></g><g class="a35 c2 node n33 p1" transform="translate(-98.4688 16.3345)"><g class="a33 c2 node n30 p1" transform="translate(116.438 29.7714)"><g class="a30 i8 leaf node n8 p1 sample" transform="translate(34.5 27.0224)"><path class="edge" d="M 0 0 V -27.0224 H -34.5"/><rect class="sym" height="6" width="6" x="-3" y="-3"/><text class="lab" transform="translate(0 11)">8</text></g><g class="a30 c2 node n21 p2" transform="translate(-34.5 26.255)"><g class="a21 i2 leaf node n2 p1 sample" transform="translate(-23 0.767342)"><path class="edge" d="M 0 0 V -0.767342 H 23"/><rect class="sym" height="6" width="6" x="-3" y="-3"/><text class="lab" transform="translate(0 11)">2</text></g><g class="a21 i15 leaf node n15 p2 sample" transform="translate(23 0.767342)"><path class="edge" d="M 0 0 V -0.767342 H -23"/><rect class="sym" height="6" width="6" x="-3" y="-3"/><text class="lab" transform="translate(0 11)">15</text></g><path class="edge" d="M 0 0 V -26.255 H 34.5"/><circle class="sym" cx="0" cy="0" r="3"/><text class="lab lft" transform="translate(-3 -7)">21</text></g><path class="edge" d="M 0 0 V -29.7714 H -116.438"/><circle class="sym" cx="0" cy="0" r="3"/><text class="lab rgt" transform="translate(3 -7)">30</text></g><g class="a33 c2 node n31 p1" transform="translate(-116.438 24.0448)"><g class="a31 c2 m2 node n26 p2 s2" transform="translate(106.375 27.1731)"><g class="a26 i12 leaf node n12 p2 sample" transform="translate(-23 5.57578)"><path class="edge" d="M 0 0 V -5.57578 H 23"/><rect class="sym" height="6" width="6" x="-3" y="-3"/><text class="lab" transform="translate(0 11)">12</text></g><g class="a26 i18 leaf node n18 p2 sample" transform="translate(23 5.57578)"><path class="edge" d="M 0 0 V -5.57578 H -23"/><rect class="sym" height="6" width="6" x="-3" y="-3"/><text class="lab" transform="translate(0 11)">18</text></g><path class="edge" d="M 0 0 V -27.1731 H -106.375"/><g class="mut m2 s2" transform="translate(0 -14.0945)"><line x1="0" x2="0" y1="0" y2="14.0945"/><path class="sym" d="M -3,-3 l 6,6 M -3,3 l 6,-6"/><text class="lab rgt" transform="translate(5 0)">2</text></g><circle class="sym" cx="0" cy="0" r="3"/><text class="lab rgt" transform="translate(3 -7)">26</text></g><g class="a31 c2 node n29 p1" transform="translate(-106.375 9.82111)"><g class="a29 c2 node n24 p2" transform="translate(74.75 18.6545)"><g class="a24 c2 node n22 p1" transform="translate(-46 2.61096)"><g class="a22 i11 leaf node n11 p2 sample" transform="translate(-23 1.66233)"><path class="edge" d="M 0 0 V -1.66233 H 23"/><rect class="sym" height="6" width="6" x="-3" y="-3"/><text class="lab" transform="translate(0 11)">11</text></g><g class="a22 i13 leaf node n13 p2 sample" transform="translate(23 1.66233)"><path class="edge" d="M 0 0 V -1.66233 H -23"/><rect class="sym" height="6" width="6" x="-3" y="-3"/><text class="lab" transform="translate(0 11)">13</text></g><path class="edge" d="M 0 0 V -2.61096 H 46"/><circle class="sym" cx="0" cy="0" r="3"/><text class="lab lft" transform="translate(-3 -7)">22</text></g><g class="a24 c2 node n23 p1" transform="translate(46 0.922081)"><g class="a23 i14 leaf node n14 p2 sample" transform="translate(-23 3.35122)"><path class="edge" d="M 0 0 V -3.35122 H 23"/><rect class="sym" height="6" width="6" x="-3" y="-3"/><text class="lab" transform="translate(0 11)">14</text></g><g class="a23 i17 leaf node n17 p2 sample" transform="translate(23 3.35122)"><path class="edge" d="M 0 0 V -3.35122 H -23"/><rect class="sym" height="6" width="6" x="-3" y="-3"/><text class="lab" transform="translate(0 11)">17</text></g><path class="edge" d="M 0 0 V -0.922081 H -46"/><circle class="sym" cx="0" cy="0" r="3"/><text class="lab rgt" transform="translate(3 -7)">23</text></g><path class="edge" d="M 0 0 V -18.6545 H -74.75"/><circle class="sym" cx="0" cy="0" r="3"/><text class="lab rgt" transform="translate(3 -7)">24</text></g><g class="a29 c2 node n28 p2" transform="translate(-74.75 9.28257)"><g class="a28 i3 leaf node n3 p1 sample" transform="translate(34.5 13.6452)"><path class="edge" d="M 0 0 V -13.6452 H -34.5"/><rect class="sym" height="6" width="6" x="-3" y="-3"/><text class="lab" transform="translate(0 11)">3</text></g><g class="a28 c2 node n25 p2" transform="translate(-34.5 8.81712)"><g class="a25 i0 leaf m1 node n0 p1 s1 sample" transform="translate(-23 4.82811)"><path class="edge" d="M 0 0 V -4.82811 H 23"/><g class="mut m1 s1" transform="translate(0 -2.7778)"><line x1="0" x2="0" y1="0" y2="2.7778"/><path class="sym" d="M -3,-3 l 6,6 M -3,3 l 6,-6"/><text class="lab lft" transform="translate(-5 0)">1</text></g><rect class="sym" height="6" width="6" x="-3" y="-3"/><text class="lab" transform="translate(0 11)">0</text></g><g class="a25 i10 leaf node n10 p2 sample" transform="translate(23 4.82811)"><path class="edge" d="M 0 0 V -4.82811 H -23"/><rect class="sym" height="6" width="6" x="-3" y="-3"/><text class="lab" transform="translate(0 11)">10</text></g><path class="edge" d="M 0 0 V -8.81712 H 34.5"/><circle class="sym" cx="0" cy="0" r="3"/><text class="lab lft" transform="translate(-3 -7)">25</text></g><path class="edge" d="M 0 0 V -9.28257 H 74.75"/><circle class="sym" cx="0" cy="0" r="3"/><text class="lab lft" transform="translate(-3 -7)">28</text></g><path class="edge" d="M 0 0 V -9.82111 H 106.375"/><circle class="sym" cx="0" cy="0" r="3"/><text class="lab lft" transform="translate(-3 -7)">29</text></g><path class="edge" d="M 0 0 V -24.0448 H 116.438"/><circle class="sym" cx="0" cy="0" r="3"/><text class="lab lft" transform="translate(-3 -7)">31</text></g><path class="edge" d="M 0 0 V -16.3345 H 98.4688"/><circle class="sym" cx="0" cy="0" r="3"/><text class="lab lft" transform="translate(-3 -7)">33</text></g><path class="edge" d="M 0 0 V -47.7967 H 106.734"/><circle class="sym" cx="0" cy="0" r="3"/><text class="lab lft" transform="translate(-3 -7)">35</text></g><g class="a37 c2 node n36 p1" transform="translate(106.734 28.3746)"><g class="a36 c2 node n27 p2" transform="translate(46 80.0924)"><g class="a27 i16 leaf node n16 p2 sample" transform="translate(-23 12.4579)"><path class="edge" d="M 0 0 V -12.4579 H 23"/><rect class="sym" height="6" width="6" x="-3" y="-3"/><text class="lab" transform="translate(0 11)">16</text></g><g class="a27 i19 leaf node n19 p2 sample" transform="translate(23 12.4579)"><path class="edge" d="M 0 0 V -12.4579 H -23"/><rect class="sym" height="6" width="6" x="-3" y="-3"/><text class="lab" transform="translate(0 11)">19</text></g><path class="edge" d="M 0 0 V -80.0924 H -46"/><circle class="sym" cx="0" cy="0" r="3"/><text class="lab rgt" transform="translate(3 -7)">27</text></g><g class="a36 c2 node n32 p1" transform="translate(-46 55.8472)"><g class="a32 i1 leaf node n1 p1 sample" transform="translate(-23 36.7031)"><path class="edge" d="M 0 0 V -36.7031 H 23"/><rect class="sym" height="6" width="6" x="-3" y="-3"/><text class="lab" transform="translate(0 11)">1</text></g><g class="a32 i4 leaf node n4 p1 sample" transform="translate(23 36.7031)"><path class="edge" d="M 0 0 V -36.7031 H -23"/><rect class="sym" height="6" width="6" x="-3" y="-3"/><text class="lab" transform="translate(0 11)">4</text></g><path class="edge" d="M 0 0 V -55.8472 H 46"/><circle class="sym" cx="0" cy="0" r="3"/><text class="lab lft" transform="translate(-3 -7)">32</text></g><path class="edge" d="M 0 0 V -28.3746 H -106.734"/><circle class="sym" cx="0" cy="0" r="3"/><text class="lab rgt" transform="translate(3 -7)">36</text></g><path class="edge" d="M 0 0 V -173.675 H 139.617"/><circle class="sym" cx="0" cy="0" r="3"/><text class="lab lft" transform="translate(-3 -7)">37</text></g><circle class="sym" cx="0" cy="0" r="3"/><text class="lab" transform="translate(0 -11)">38</text></g></g></g></g></g></svg>