<svg baseProfile="full" height="400" version="1.1" width="1000" xmlns="http://www.w3.org/2000/svg" xmlns:ev="http://www.w3.org/2001/xml-events" xmlns:xlink="http://www.w3.org/1999/xlink"><defs><style type="text/css"><![CDATA[.background path {fill: #808080; fill-opacity: 0}.background path:nth-child(odd) {fill-opacity: .1}.x-regions rect {fill: yellow; stroke: black; opacity: 0.5}.axes {font-size: 14px}.x-axis .tick .lab {font-weight: bold; dominant-baseline: hanging}.axes, .tree {font-size: 14px; text-anchor: middle}.axes line, .edge {stroke: black; fill: none}.axes .ax-skip {stroke-dasharray: 4}.y-axis .grid {stroke: #FAFAFA}.node > .sym {fill: black; stroke: none}.site > .sym {stroke: black}.mut text {fill: red; font-style: italic}.mut.extra text {fill: hotpink}.mut line {fill: none; stroke: none}.mut .sym {fill: none; stroke: red}.mut.extra .sym {stroke: hotpink}.node .mut .sym {stroke-width: 1.5px}.tree text, .tree-sequence text {dominant-baseline: central}.plotbox .lab.lft {text-anchor: end}.plotbox .lab.rgt {text-anchor: start}.polytomy line {stroke: black; stroke-dasharray: 1px, 1px}.polytomy text {paint-order:stroke;stroke-width:0.3em;stroke:white}]]></style></defs><g class="tree-sequence"><g class="background"><path d="M20,0 l960,0 l0,338.2 l0,25 l0,5 l-960,0 l0,-5 l0,-25 l0,-338.2z"/></g><g class="axes"><g class="x-axis"><g class="title" transform="translate(500 400)"><text class="lab" text-anchor="middle" transform="translate(0 -11)">Genome position</text></g><line class="ax-line" x1="20" x2="980" y1="363.2" y2="363.2"/><g class="ticks"><g class="tick" transform="translate(20 363.2)"><line x1="0" x2="0" y1="0" y2="5"/><g transform="translate(0 6)"><text class="lab">0</text></g></g><g class="tick" transform="translate(980 363.2)"><line x1="0" x2="0" y1="0" y2="5"/><g transform="translate(0 6)"><text class="lab">1000</text></g></g></g><g class="site s0" transform="translate(287.84 363.2)"><line class="sym" x1="0" x2="0" y1="0" y2="-10"/><g class="mut m0"><polyline class="sym" points="2.5,-6.5 0,-1.5 -2.5,-6.5"/></g></g><g class="site s1" transform="translate(487.52 363.2)"><line class="sym" x1="0" x2="0" y1="0" y2="-10"/><g class="mut m1"><polyline class="sym" points="2.5,-6.5 0,-1.5 -2.5,-6.5"/></g></g><g class="site s2" transform="translate(751.52 363.2)"><line class="sym" x1="0" x2="0" y1="0" y2="-10"/><g class="mut m2"><polyline class="sym" points="2.5,-6.5 0,-1.5 -2.5,-6.5"/></g></g><g class="site s3" transform="translate(764.96 363.2)"><line class="sym" x1="0" x2="0" y1="0" y2="-10"/><g class="mut m3"><polyline class="sym" points="2.5,-6.5 0,-1.5 -2.5,-6.5"/></g></g><g class="site s4" transform="translate(940.64 363.2)"><line class="sym" x1="0" x2="0" y1="0" y2="-10"/><g class="mut m4"><polyline class="sym" points="2.5,-6.5 0,-1.5 -2.5,-6.5"/></g></g></g></g><g class="plotbox trees"><g class="tree t0" transform="translate(20 0)"><g class="plotbox"><g class="c2 node n38 p0 root" transform="translate(671.547 26.8)"><g class="a38 c2 m2 node n34 p1 s2" transform="translate(222.453 218.131)"><g class="a34 i8 leaf node n8 p1 sample" transform="translate(-23 76.4688)"><path class="edge" d="M 0 0 V -76.4688 H 23"/><rect class="sym" height="6" width="6" x="-3" y="-3"/><text class="lab" transform="translate(0 11)">8</text></g><g class="a34 i11 leaf node n11 p2 sample" transform="translate(23 76.4688)"><path class="edge" d="M 0 0 V -76.4688 H -23"/><rect class="sym" height="6" width="6" x="-3" y="-3"/><text class="lab" transform="translate(0 11)">11</text></g><path class="edge" d="M 0 0 V -218.131 H -222.453"/><g class="mut m2 s2" transform="translate(0 -190.027)"><line x1="0" x2="0" y1="0" y2="190.027"/><path class="sym" d="M -3,-3 l 6,6 M -3,3 l 6,-6"/><text class="lab rgt" transform="translate(5 0)">2</text></g><circle class="sym" cx="0" cy="0" r="3"/><text class="lab rgt" transform="translate(3 -7)">34</text></g><g class="a38 c2 node n37 p1" transform="translate(-222.453 131.334)"><g class="a37 c2 node n35 p1" transform="translate(-216.344 38.988)"><g class="a35 c2 node n20 p1" transform="translate(63.25 122.556)"><g class="a20 i4 leaf node n4 p1 sample" transform="translate(-23 1.72187)"><path class="edge" d="M 0 0 V -1.72187 H 23"/><rect class="sym" height="6" width="6" x="-3" y="-3"/><text class="lab" transform="translate(0 11)">4</text></g><g class="a20 i6 leaf node n6 p1 sample" transform="translate(23 1.72187)"><path class="edge" d="M 0 0 V -1.72187 H -23"/><rect class="sym" height="6" width="6" x="-3" y="-3"/><text class="lab" transform="translate(0 11)">6</text></g><path class="edge" d="M 0 0 V -122.556 H -63.25"/><circle class="sym" cx="0" cy="0" r="3"/><text class="lab rgt" transform="translate(3 -7)">20</text></g><g class="a35 c2 node n33 p2" transform="translate(-63.25 54.6974)"><g class="a33 i17 leaf m3 node n17 p2 s3 sample" transform="translate(57.5 69.5801)"><path class="edge" d="M 0 0 V -69.5801 H -57.5"/><g class="mut m3 s3" transform="translate(0 -34.8679)"><line x1="0" x2="0" y1="0" y2="34.8679"/><path class="sym" d="M -3,-3 l 6,6 M -3,3 l 6,-6"/><text class="lab rgt" transform="translate(5 0)">3</text></g><rect class="sym" height="6" width="6" x="-3" y="-3"/><text class="lab" transform="translate(0 11)">17</text></g><g class="a33 c2 m4 node n26 p2 s4" transform="translate(-57.5 56.9422)"><g class="a26 c2 node n21 p2" transform="translate(-46 9.84695)"><g class="a21 i0 leaf node n0 p1 sample" transform="translate(-23 2.79097)"><path class="edge" d="M 0 0 V -2.79097 H 23"/><rect class="sym" height="6" width="6" x="-3" y="-3"/><text class="lab" transform="translate(0 11)">0</text></g><g class="a21 i2 leaf node n2 p1 sample" transform="translate(23 2.79097)"><path class="edge" d="M 0 0 V -2.79097 H -23"/><rect class="sym" height="6" width="6" x="-3" y="-3"/><text class="lab" transform="translate(0 11)">2</text></g><path class="edge" d="M 0 0 V -9.84695 H 46"/><circle class="sym" cx="0" cy="0" r="3"/><text class="lab lft" transform="translate(-3 -7)">21</text></g><g class="a26 c2 node n24 p1" transform="translate(46 8.41838)"><g class="a24 i1 leaf node n1 p1 sample" transform="translate(-23 4.21954)"><path class="edge" d="M 0 0 V -4.21954 H 23"/><rect class="sym" height="6" width="6" x="-3" y="-3"/><text class="lab" transform="translate(0 11)">1</text></g><g class="a24 i9 leaf node n9 p1 sample" transform="translate(23 4.21954)"><path class="edge" d="M 0 0 V -4.21954 H -23"/><rect class="sym" height="6" width="6" x="-3" y="-3"/><text class="lab" transform="translate(0 11)">9</text></g><path class="edge" d="M 0 0 V -8.41838 H -46"/><circle class="sym" cx="0" cy="0" r="3"/><text class="lab rgt" transform="translate(3 -7)">24</text></g><path class="edge" d="M 0 0 V -56.9422 H 57.5"/><g class="mut m4 s4" transform="translate(0 -48.5432)"><line x1="0" x2="0" y1="0" y2="48.5432"/><path class="sym" d="M -3,-3 l 6,6 M -3,3 l 6,-6"/><text class="lab lft" transform="translate(-5 0)">4</text></g><circle class="sym" cx="0" cy="0" r="3"/><text class="lab lft" transform="translate(-3 -7)">26</text></g><path class="edge" d="M 0 0 V -54.6974 H 63.25"/><circle class="sym" cx="0" cy="0" r="3"/><text class="lab lft" transform="translate(-3 -7)">33</text></g><path class="edge" d="M 0 0 V -38.988 H 216.344"/><circle class="sym" cx="0" cy="0" r="3"/><text class="lab lft" transform="translate(-3 -7)">35</text></g><g class="a37 c2 m0 node n36 p1 s0" transform="translate(216.344 37.3926)"><g class="a36 c2 m1 node n31 p1 s1" transform="translate(-119.312 78.3088)"><g class="a31 c2 node n23 p2" transform="translate(71.875 43.836)"><g class="a23 i13 leaf node n13 p2 sample" transform="translate(-23 3.72811)"><path class="edge" d="M 0 0 V -3.72811 H 23"/><rect class="sym" height="6" width="6" x="-3" y="-3"/><text class="lab" transform="translate(0 11)">13</text></g><g class="a23 i15 leaf node n15 p2 sample" transform="translate(23 3.72811)"><path class="edge" d="M 0 0 V -3.72811 H -23"/><rect class="sym" height="6" width="6" x="-3" y="-3"/><text class="lab" transform="translate(0 11)">15</text></g><path class="edge" d="M 0 0 V -43.836 H -71.875"/><circle class="sym" cx="0" cy="0" r="3"/><text class="lab rgt" transform="translate(3 -7)">23</text></g><g class="a31 c2 node n30 p2" transform="translate(-71.875 18.207)"><g class="a30 c2 node n25 p1" transform="translate(51.75 23.1504)"><g class="a25 i5 leaf node n5 p1 sample" transform="translate(-23 6.20675)"><path class="edge" d="M 0 0 V -6.20675 H 23"/><rect class="sym" height="6" width="6" x="-3" y="-3"/><text class="lab" transform="translate(0 11)">5</text></g><g class="a25 i18 leaf node n18 p2 sample" transform="translate(23 6.20675)"><path class="edge" d="M 0 0 V -6.20675 H -23"/><rect class="sym" height="6" width="6" x="-3" y="-3"/><text class="lab" transform="translate(0 11)">18</text></g><path class="edge" d="M 0 0 V -23.1504 H -51.75"/><circle class="sym" cx="0" cy="0" r="3"/><text class="lab rgt" transform="translate(3 -7)">25</text></g><g class="a30 c2 node n29 p2" transform="translate(-51.75 8.04338)"><g class="a29 i12 leaf node n12 p2 sample" transform="translate(34.5 21.3137)"><path class="edge" d="M 0 0 V -21.3137 H -34.5"/><rect class="sym" height="6" width="6" x="-3" y="-3"/><text class="lab" transform="translate(0 11)">12</text></g><g class="a29 c2 node n22 p1" transform="translate(-34.5 17.8228)"><g class="a22 i3 leaf node n3 p1 sample" transform="translate(-23 3.49091)"><path class="edge" d="M 0 0 V -3.49091 H 23"/><rect class="sym" height="6" width="6" x="-3" y="-3"/><text class="lab" transform="translate(0 11)">3</text></g><g class="a22 i16 leaf node n16 p2 sample" transform="translate(23 3.49091)"><path class="edge" d="M 0 0 V -3.49091 H -23"/><rect class="sym" height="6" width="6" x="-3" y="-3"/><text class="lab" transform="translate(0 11)">16</text></g><path class="edge" d="M 0 0 V -17.8228 H 34.5"/><circle class="sym" cx="0" cy="0" r="3"/><text class="lab lft" transform="translate(-3 -7)">22</text></g><path class="edge" d="M 0 0 V -8.04338 H 51.75"/><circle class="sym" cx="0" cy="0" r="3"/><text class="lab lft" transform="translate(-3 -7)">29</text></g><path class="edge" d="M 0 0 V -18.207 H 71.875"/><circle class="sym" cx="0" cy="0" r="3"/><text class="lab lft" transform="translate(-3 -7)">30</text></g><path class="edge" d="M 0 0 V -78.3088 H 119.312"/><g class="mut m1 s1" transform="translate(0 -17.459)"><line x1="0" x2="0" y1="0" y2="17.459"/><path class="sym" d="M -3,-3 l 6,6 M -3,3 l 6,-6"/><text class="lab lft" transform="translate(-5 0)">1</text></g><circle class="sym" cx="0" cy="0" r="3"/><text class="lab lft" transform="translate(-3 -7)">31</text></g><g class="a36 c2 node n32 p2" transform="translate(119.312 64.349)"><g class="a32 i19 leaf node n19 p2 sample" transform="translate(40.25 61.5239)"><path class="edge" d="M 0 0 V -61.5239 H -40.25"/><rect class="sym" height="6" width="6" x="-3" y="-3"/><text class="lab" transform="translate(0 11)">19</text></g><g class="a32 c2 node n28 p2" transform="translate(-40.25 42.2396)"><g class="a28 i10 leaf node n10 p2 sample" transform="translate(34.5 19.2843)"><path class="edge" d="M 0 0 V -19.2843 H -34.5"/><rect class="sym" height="6" width="6" x="-3" y="-3"/><text class="lab" transform="translate(0 11)">10</text></g><g class="a28 c2 node n27 p1" transform="translate(-34.5 3.67919)"><g class="a27 i7 leaf node n7 p1 sample" transform="translate(-23 15.6051)"><path class="edge" d="M 0 0 V -15.6051 H 23"/><rect class="sym" height="6" width="6" x="-3" y="-3"/><text class="lab" transform="translate(0 11)">7</text></g><g class="a27 i14 leaf node n14 p2 sample" transform="translate(23 15.6051)"><path class="edge" d="M 0 0 V -15.6051 H -23"/><rect class="sym" height="6" width="6" x="-3" y="-3"/><text class="lab" transform="translate(0 11)">14</text></g><path class="edge" d="M 0 0 V -3.67919 H 34.5"/><circle class="sym" cx="0" cy="0" r="3"/><text class="lab lft" transform="translate(-3 -7)">27</text></g><path class="edge" d="M 0 0 V -42.2396 H 40.25"/><circle class="sym" cx="0" cy="0" r="3"/><text class="lab lft" transform="translate(-3 -7)">28</text></g><path class="edge" d="M 0 0 V -64.349 H -119.312"/><circle class="sym" cx="0" cy="0" r="3"/><text class="lab rgt" transform="translate(3 -7)">32</text></g><path class="edge" d="M 0 0 V -37.3926 H -216.344"/><g class="mut m0 s0" transform="translate(0 -16.2936)"><line x1="0" x2="0" y1="0" y2="16.2936"/><path class="sym" d="M -3,-3 l 6,6 M -3,3 l 6,-6"/><text class="lab rgt" transform="translate(5 0)">0</text></g><circle class="sym" cx="0" cy="0" r="3"/><text class="lab rgt" transform="translate(3 -7)">36</text></g><path class="edge" d="M 0 0 V -131.334 H 222.453"/><circle class="sym" cx="0" cy="0" r="3"/><text class="lab lft" transform="translate(-3 -7)">37</text></g><circle class="sym" cx="0" cy="0" r="3"/><text class="lab" transform="translate(0 -11)">38</text></g></g></g></g></g></svg>