<svg baseProfile="full" height="400" version="1.1" width="1000" xmlns="http://www.w3.org/2000/svg" xmlns:ev="http://www.w3.org/2001/xml-events" xmlns:xlink="http://www.w3.org/1999/xlink"><defs><style type="text/css"><![CDATA[.background path {fill: #808080; fill-opacity: 0}.background path:nth-child(odd) {fill-opacity: .1}.x-regions rect {fill: yellow; stroke: black; opacity: 0.5}.axes {font-size: 14px}.x-axis .tick .lab {font-weight: bold; dominant-baseline: hanging}.axes, .tree {font-size: 14px; text-anchor: middle}.axes line, .edge {stroke: black; fill: none}.axes .ax-skip {stroke-dasharray: 4}.y-axis .grid {stroke: #FAFAFA}.node > .sym {fill: black; stroke: none}.site > .sym {stroke: black}.mut text {fill: red; font-style: italic}.mut.extra text {fill: hotpink}.mut line {fill: none; stroke: none}.mut .sym {fill: none; stroke: red}.mut.extra .sym {stroke: hotpink}.node .mut .sym {stroke-width: 1.5px}.tree text, .tree-sequence text {dominant-baseline: central}.plotbox .lab.lft {text-anchor: end}.plotbox .lab.rgt {text-anchor: start}.polytomy line {stroke: black; stroke-dasharray: 1px, 1px}.polytomy text {paint-order:stroke;stroke-width:0.3em;stroke:white}]]></style></defs><g class="tree-sequence"><g class="background"><path d="M20,0 l960,0 l0,338.2 l0,25 l0,5 l-960,0 l0,-5 l0,-25 l0,-338.2z"/></g><g class="axes"><g class="x-axis"><g class="title" transform="translate(500 400)"><text class="lab" text-anchor="middle" transform="translate(0 -11)">Genome position</text></g><line class="ax-line" x1="20" x2="980" y1="363.2" y2="363.2"/><g class="ticks"><g class="tick" transform="translate(20 363.2)"><line x1="0" x2="0" y1="0" y2="5"/><g transform="translate(0 6)"><text class="lab">0</text></g></g><g class="tick" transform="translate(980 363.2)"><line x1="0" x2="0" y1="0" y2="5"/><g transform="translate(0 6)"><text class="lab">1000</text></g></g></g><g class="site s0" transform="translate(71.84 363.2)"><line class="sym" x1="0" x2="0" y1="0" y2="-10"/><g class="mut m0"><polyline class="sym" points="2.5,-6.5 0,-1.5 -2.5,-6.5"/></g></g><g class="site s1" transform="translate(197.6 363.2)"><line class="sym" x1="0" x2="0" y1="0" y2="-10"/><g class="mut m1"><polyline class="sym" points="2.5,-6.5 0,-1.5 -2.5,-6.5"/></g></g><g class="site s2" transform="translate(494.24 363.2)"><line class="sym" x1="0" x2="0" y1="0" y2="-10"/><g class="mut m2"><polyline class="sym" points="2.5,-6.5 0,-1.5 -2.5,-6.5"/></g></g><g class="site s3" transform="translate(707.36 363.2)"><line class="sym" x1="0" x2="0" y1="0" y2="-10"/><g class="mut m3"><polyline class="sym" points="2.5,-6.5 0,-1.5 -2.5,-6.5"/></g></g></g></g><g class="plotbox trees"><g class="tree t0" transform="translate(20 0)"><g class="plotbox"><g class="c2 node n38 p0 root" transform="translate(716.559 26.8)"><g class="a38 c2 m0 node n24 p1 s0" transform="translate(165.941 288.943)"><g class="a24 i11 leaf node n11 p2 sample" transform="translate(34.5 5.65673)"><path class="edge" d="M 0 0 V -5.65673 H -34.5"/><rect class="sym" height="6" width="6" x="-3" y="-3"/><text class="lab" transform="translate(0 11)">11</text></g><g class="a24 c2 node n22 p1" transform="translate(-34.5 5.24453)"><g class="a22 i3 leaf node n3 p1 sample" transform="translate(-23 0.412207)"><path class="edge" d="M 0 0 V -0.412207 H 23"/><rect class="sym" height="6" width="6" x="-3" y="-3"/><text class="lab" transform="translate(0 11)">3</text></g><g class="a22 i6 leaf node n6 p1 sample" transform="translate(23 0.412207)"><path class="edge" d="M 0 0 V -0.412207 H -23"/><rect class="sym" height="6" width="6" x="-3" y="-3"/><text class="lab" transform="translate(0 11)">6</text></g><path class="edge" d="M 0 0 V -5.24453 H 34.5"/><circle class="sym" cx="0" cy="0" r="3"/><text class="lab lft" transform="translate(-3 -7)">22</text></g><path class="edge" d="M 0 0 V -288.943 H -165.941"/><g class="mut m0 s0" transform="translate(0 -200.018)"><line x1="0" x2="0" y1="0" y2="200.018"/><path class="sym" d="M -3,-3 l 6,6 M -3,3 l 6,-6"/><text class="lab rgt" transform="translate(5 0)">0</text></g><circle class="sym" cx="0" cy="0" r="3"/><text class="lab rgt" transform="translate(3 -7)">24</text></g><g class="a38 c2 node n37 p1" transform="translate(-165.941 158.743)"><g class="a37 c2 m2 node n35 p2 s2" transform="translate(153.633 87.0524)"><g class="a35 c2 node n20 p2" transform="translate(51.75 48.7071)"><g class="a20 i14 leaf node n14 p2 sample" transform="translate(-23 0.0976823)"><path class="edge" d="M 0 0 V -0.0976823 H 23"/><rect class="sym" height="6" width="6" x="-3" y="-3"/><text class="lab" transform="translate(0 11)">14</text></g><g class="a20 i18 leaf node n18 p2 sample" transform="translate(23 0.0976823)"><path class="edge" d="M 0 0 V -0.0976823 H -23"/><rect class="sym" height="6" width="6" x="-3" y="-3"/><text class="lab" transform="translate(0 11)">18</text></g><path class="edge" d="M 0 0 V -48.7071 H -51.75"/><circle class="sym" cx="0" cy="0" r="3"/><text class="lab rgt" transform="translate(3 -7)">20</text></g><g class="a35 c2 node n31 p2" transform="translate(-51.75 23.3088)"><g class="a31 i19 leaf node n19 p2 sample" transform="translate(34.5 25.496)"><path class="edge" d="M 0 0 V -25.496 H -34.5"/><rect class="sym" height="6" width="6" x="-3" y="-3"/><text class="lab" transform="translate(0 11)">19</text></g><g class="a31 c2 node n28 p2" transform="translate(-34.5 13.4702)"><g class="a28 i4 leaf node n4 p1 sample" transform="translate(-23 12.0257)"><path class="edge" d="M 0 0 V -12.0257 H 23"/><rect class="sym" height="6" width="6" x="-3" y="-3"/><text class="lab" transform="translate(0 11)">4</text></g><g class="a28 i16 leaf node n16 p2 sample" transform="translate(23 12.0257)"><path class="edge" d="M 0 0 V -12.0257 H -23"/><rect class="sym" height="6" width="6" x="-3" y="-3"/><text class="lab" transform="translate(0 11)">16</text></g><path class="edge" d="M 0 0 V -13.4702 H 34.5"/><circle class="sym" cx="0" cy="0" r="3"/><text class="lab lft" transform="translate(-3 -7)">28</text></g><path class="edge" d="M 0 0 V -23.3088 H 51.75"/><circle class="sym" cx="0" cy="0" r="3"/><text class="lab lft" transform="translate(-3 -7)">31</text></g><path class="edge" d="M 0 0 V -87.0524 H -153.633"/><g class="mut m2 s2" transform="translate(0 -31.3708)"><line x1="0" x2="0" y1="0" y2="31.3708"/><path class="sym" d="M -3,-3 l 6,6 M -3,3 l 6,-6"/><text class="lab rgt" transform="translate(5 0)">2</text></g><circle class="sym" cx="0" cy="0" r="3"/><text class="lab rgt" transform="translate(3 -7)">35</text></g><g class="a37 c2 node n36 p1" transform="translate(-153.633 65.58)"><g class="a36 c2 node n32 p2" transform="translate(111.766 42.2461)"><g class="a32 i12 leaf node n12 p2 sample" transform="translate(40.25 28.0311)"><path class="edge" d="M 0 0 V -28.0311 H -40.25"/><rect class="sym" height="6" width="6" x="-3" y="-3"/><text class="lab" transform="translate(0 11)">12</text></g><g class="a32 c2 node n27 p2" transform="translate(-40.25 17.4645)"><g class="a27 i15 leaf node n15 p2 sample" transform="translate(34.5 10.5666)"><path class="edge" d="M 0 0 V -10.5666 H -34.5"/><rect class="sym" height="6" width="6" x="-3" y="-3"/><text class="lab" transform="translate(0 11)">15</text></g><g class="a27 c2 node n21 p1" transform="translate(-34.5 10.4214)"><g class="a21 i8 leaf node n8 p1 sample" transform="translate(-23 0.145277)"><path class="edge" d="M 0 0 V -0.145277 H 23"/><rect class="sym" height="6" width="6" x="-3" y="-3"/><text class="lab" transform="translate(0 11)">8</text></g><g class="a21 i10 leaf node n10 p2 sample" transform="translate(23 0.145277)"><path class="edge" d="M 0 0 V -0.145277 H -23"/><rect class="sym" height="6" width="6" x="-3" y="-3"/><text class="lab" transform="translate(0 11)">10</text></g><path class="edge" d="M 0 0 V -10.4214 H 34.5"/><circle class="sym" cx="0" cy="0" r="3"/><text class="lab lft" transform="translate(-3 -7)">21</text></g><path class="edge" d="M 0 0 V -17.4645 H 40.25"/><circle class="sym" cx="0" cy="0" r="3"/><text class="lab lft" transform="translate(-3 -7)">27</text></g><path class="edge" d="M 0 0 V -42.2461 H -111.766"/><circle class="sym" cx="0" cy="0" r="3"/><text class="lab rgt" transform="translate(3 -7)">32</text></g><g class="a36 c2 node n34 p2" transform="translate(-111.766 35.0419)"><g class="a34 c2 m1 node n26 p2 s1" transform="translate(56.7812 25.0358)"><g class="a26 i2 leaf node n2 p1 sample" transform="translate(-23 10.1995)"><path class="edge" d="M 0 0 V -10.1995 H 23"/><rect class="sym" height="6" width="6" x="-3" y="-3"/><text class="lab" transform="translate(0 11)">2</text></g><g class="a26 i7 leaf node n7 p1 sample" transform="translate(23 10.1995)"><path class="edge" d="M 0 0 V -10.1995 H -23"/><rect class="sym" height="6" width="6" x="-3" y="-3"/><text class="lab" transform="translate(0 11)">7</text></g><path class="edge" d="M 0 0 V -25.0358 H -56.7812"/><g class="mut m1 s1" transform="translate(0 -12.138)"><line x1="0" x2="0" y1="0" y2="12.138"/><path class="sym" d="M -3,-3 l 6,6 M -3,3 l 6,-6"/><text class="lab rgt" transform="translate(5 0)">1</text></g><circle class="sym" cx="0" cy="0" r="3"/><text class="lab rgt" transform="translate(3 -7)">26</text></g><g class="a34 c2 node n33 p1" transform="translate(-56.7812 4.98333)"><g class="a33 i13 leaf node n13 p2 sample" transform="translate(44.5625 30.2519)"><path class="edge" d="M 0 0 V -30.2519 H -44.5625"/><rect class="sym" height="6" width="6" x="-3" y="-3"/><text class="lab" transform="translate(0 11)">13</text></g><g class="a33 c2 node n30 p1" transform="translate(-44.5625 5.87297)"><g class="a30 i5 leaf node n5 p1 sample" transform="translate(43.125 24.379)"><path class="edge" d="M 0 0 V -24.379 H -43.125"/><rect class="sym" height="6" width="6" x="-3" y="-3"/><text class="lab" transform="translate(0 11)">5</text></g><g class="a30 c2 node n29 p1" transform="translate(-43.125 4.42037)"><g class="a29 i1 leaf node n1 p1 sample" transform="translate(40.25 19.9586)"><path class="edge" d="M 0 0 V -19.9586 H -40.25"/><rect class="sym" height="6" width="6" x="-3" y="-3"/><text class="lab" transform="translate(0 11)">1</text></g><g class="a29 c2 node n25 p2" transform="translate(-40.25 13.0243)"><g class="a25 i17 leaf m3 node n17 p2 s3 sample" transform="translate(34.5 6.93427)"><path class="edge" d="M 0 0 V -6.93427 H -34.5"/><g class="mut m3 s3" transform="translate(0 -5.71078)"><line x1="0" x2="0" y1="0" y2="5.71078"/><path class="sym" d="M -3,-3 l 6,6 M -3,3 l 6,-6"/><text class="lab rgt" transform="translate(5 0)">3</text></g><rect class="sym" height="6" width="6" x="-3" y="-3"/><text class="lab" transform="translate(0 11)">17</text></g><g class="a25 c2 node n23 p2" transform="translate(-34.5 4.57207)"><g class="a23 i0 leaf node n0 p1 sample" transform="translate(-23 2.3622)"><path class="edge" d="M 0 0 V -2.3622 H 23"/><rect class="sym" height="6" width="6" x="-3" y="-3"/><text class="lab" transform="translate(0 11)">0</text></g><g class="a23 i9 leaf node n9 p1 sample" transform="translate(23 2.3622)"><path class="edge" d="M 0 0 V -2.3622 H -23"/><rect class="sym" height="6" width="6" x="-3" y="-3"/><text class="lab" transform="translate(0 11)">9</text></g><path class="edge" d="M 0 0 V -4.57207 H 34.5"/><circle class="sym" cx="0" cy="0" r="3"/><text class="lab lft" transform="translate(-3 -7)">23</text></g><path class="edge" d="M 0 0 V -13.0243 H 40.25"/><circle class="sym" cx="0" cy="0" r="3"/><text class="lab lft" transform="translate(-3 -7)">25</text></g><path class="edge" d="M 0 0 V -4.42037 H 43.125"/><circle class="sym" cx="0" cy="0" r="3"/><text class="lab lft" transform="translate(-3 -7)">29</text></g><path class="edge" d="M 0 0 V -5.87297 H 44.5625"/><circle class="sym" cx="0" cy="0" r="3"/><text class="lab lft" transform="translate(-3 -7)">30</text></g><path class="edge" d="M 0 0 V -4.98333 H 56.7812"/><circle class="sym" cx="0" cy="0" r="3"/><text class="lab lft" transform="translate(-3 -7)">33</text></g><path class="edge" d="M 0 0 V -35.0419 H 111.766"/><circle class="sym" cx="0" cy="0" r="3"/><text class="lab lft" transform="translate(-3 -7)">34</text></g><path class="edge" d="M 0 0 V -65.58 H 153.633"/><circle class="sym" cx="0" cy="0" r="3"/><text class="lab lft" transform="translate(-3 -7)">36</text></g><path class="edge" d="M 0 0 V -158.743 H 165.941"/><circle class="sym" cx="0" cy="0" r="3"/><text class="lab lft" transform="translate(-3 -7)">37</text></g><circle class="sym" cx="0" cy="0" r="3"/><text class="lab" transform="translate(0 -11)">38</text></g></g></g></g></g></svg>