<svg baseProfile="full" height="400" version="1.1" width="1000" xmlns="http://www.w3.org/2000/svg" xmlns:ev="http://www.w3.org/2001/xml-events" xmlns:xlink="http://www.w3.org/1999/xlink"><defs><style type="text/css"><![CDATA[.background path {fill: #808080; fill-opacity: 0}.background path:nth-child(odd) {fill-opacity: .1}.x-regions rect {fill: yellow; stroke: black; opacity: 0.5}.axes {font-size: 14px}.x-axis .tick .lab {font-weight: bold; dominant-baseline: hanging}.axes, .tree {font-size: 14px; text-anchor: middle}.axes line, .edge {stroke: black; fill: none}.axes .ax-skip {stroke-dasharray: 4}.y-axis .grid {stroke: #FAFAFA}.node > .sym {fill: black; stroke: none}.site > .sym {stroke: black}.mut text {fill: red; font-style: italic}.mut.extra text {fill: hotpink}.mut line {fill: none; stroke: none}.mut .sym {fill: none; stroke: red}.mut.extra .sym {stroke: hotpink}.node .mut .sym {stroke-width: 1.5px}.tree text, .tree-sequence text {dominant-baseline: central}.plotbox .lab.lft {text-anchor: end}.plotbox .lab.rgt {text-anchor: start}.polytomy line {stroke: black; stroke-dasharray: 1px, 1px}.polytomy text {paint-order:stroke;stroke-width:0.3em;stroke:white}]]></style></defs><g class="tree-sequence"><g class="background"><path d="M20,0 l960,0 l0,338.2 l0,25 l0,5 l-960,0 l0,-5 l0,-25 l0,-338.2z"/></g><g class="axes"><g class="x-axis"><g class="title" transform="translate(500 400)"><text class="lab" text-anchor="middle" transform="translate(0 -11)">Genome position</text></g><line class="ax-line" x1="20" x2="980" y1="363.2" y2="363.2"/><g class="ticks"><g class="tick" transform="translate(20 363.2)"><line x1="0" x2="0" y1="0" y2="5"/><g transform="translate(0 6)"><text class="lab">0</text></g></g><g class="tick" transform="translate(980 363.2)"><line x1="0" x2="0" y1="0" y2="5"/><g transform="translate(0 6)"><text class="lab">1000</text></g></g></g><g class="site s0" transform="translate(121.76 363.2)"><line class="sym" x1="0" x2="0" y1="0" y2="-10"/><g class="mut m0"><polyline class="sym" points="2.5,-6.5 0,-1.5 -2.5,-6.5"/></g></g><g class="site s1" transform="translate(181.28 363.2)"><line class="sym" x1="0" x2="0" y1="0" y2="-10"/><g class="mut m1"><polyline class="sym" points="2.5,-6.5 0,-1.5 -2.5,-6.5"/></g></g><g class="site s2" transform="translate(653.6 363.2)"><line class="sym" x1="0" x2="0" y1="0" y2="-10"/><g class="mut m2"><polyline class="sym" points="2.5,-6.5 0,-1.5 -2.5,-6.5"/></g></g></g></g><g class="plotbox trees"><g class="tree t0" transform="translate(20 0)"><g class="plotbox"><g class="c2 node n38 p0 root" transform="translate(787.984 26.8)"><g class="a38 i19 leaf node n19 p2 sample" transform="translate(129.016 294.6)"><path class="edge" d="M 0 0 V -294.6 H -129.016"/><rect class="sym" height="6" width="6" x="-3" y="-3"/><text class="lab" transform="translate(0 11)">19</text></g><g class="a38 c2 node n37 p0" transform="translate(-129.016 10.2998)"><g class="a37 c2 node n30 p1" transform="translate(154.531 223.904)"><g class="a30 i1 leaf node n1 p1 sample" transform="translate(-34.5 60.3965)"><path class="edge" d="M 0 0 V -60.3965 H 34.5"/><rect class="sym" height="6" width="6" x="-3" y="-3"/><text class="lab" transform="translate(0 11)">1</text></g><g class="a30 c2 node n21 p1" transform="translate(34.5 58.3125)"><g class="a21 i2 leaf node n2 p1 sample" transform="translate(-23 2.084)"><path class="edge" d="M 0 0 V -2.084 H 23"/><rect class="sym" height="6" width="6" x="-3" y="-3"/><text class="lab" transform="translate(0 11)">2</text></g><g class="a21 i6 leaf node n6 p1 sample" transform="translate(23 2.084)"><path class="edge" d="M 0 0 V -2.084 H -23"/><rect class="sym" height="6" width="6" x="-3" y="-3"/><text class="lab" transform="translate(0 11)">6</text></g><path class="edge" d="M 0 0 V -58.3125 H -34.5"/><circle class="sym" cx="0" cy="0" r="3"/><text class="lab rgt" transform="translate(3 -7)">21</text></g><path class="edge" d="M 0 0 V -223.904 H -154.531"/><circle class="sym" cx="0" cy="0" r="3"/><text class="lab rgt" transform="translate(3 -7)">30</text></g><g class="a37 c2 m0 node n36 p0 s0" transform="translate(-154.531 119.991)"><g class="a36 c2 node n32 p2" transform="translate(188.312 61.5883)"><g class="a32 i15 leaf node n15 p2 sample" transform="translate(40.25 102.721)"><path class="edge" d="M 0 0 V -102.721 H -40.25"/><rect class="sym" height="6" width="6" x="-3" y="-3"/><text class="lab" transform="translate(0 11)">15</text></g><g class="a32 c2 node n31 p2" transform="translate(-40.25 36.2545)"><g class="a31 i17 leaf node n17 p2 sample" transform="translate(34.5 66.4664)"><path class="edge" d="M 0 0 V -66.4664 H -34.5"/><rect class="sym" height="6" width="6" x="-3" y="-3"/><text class="lab" transform="translate(0 11)">17</text></g><g class="a31 c2 node n20 p2" transform="translate(-34.5 64.4051)"><g class="a20 i10 leaf node n10 p2 sample" transform="translate(-23 2.06128)"><path class="edge" d="M 0 0 V -2.06128 H 23"/><rect class="sym" height="6" width="6" x="-3" y="-3"/><text class="lab" transform="translate(0 11)">10</text></g><g class="a20 i12 leaf node n12 p2 sample" transform="translate(23 2.06128)"><path class="edge" d="M 0 0 V -2.06128 H -23"/><rect class="sym" height="6" width="6" x="-3" y="-3"/><text class="lab" transform="translate(0 11)">12</text></g><path class="edge" d="M 0 0 V -64.4051 H 34.5"/><circle class="sym" cx="0" cy="0" r="3"/><text class="lab lft" transform="translate(-3 -7)">20</text></g><path class="edge" d="M 0 0 V -36.2545 H 40.25"/><circle class="sym" cx="0" cy="0" r="3"/><text class="lab lft" transform="translate(-3 -7)">31</text></g><path class="edge" d="M 0 0 V -61.5883 H -188.312"/><circle class="sym" cx="0" cy="0" r="3"/><text class="lab rgt" transform="translate(3 -7)">32</text></g><g class="a36 c2 node n35 p0" transform="translate(-188.312 2.25463)"><g class="a35 c2 m2 node n29 p1 s2" transform="translate(-138 105.169)"><g class="a29 i7 leaf node n7 p1 sample" transform="translate(48.875 56.8854)"><path class="edge" d="M 0 0 V -56.8854 H -48.875"/><rect class="sym" height="6" width="6" x="-3" y="-3"/><text class="lab" transform="translate(0 11)">7</text></g><g class="a29 c2 node n26 p1" transform="translate(-48.875 30.8203)"><g class="a26 i4 leaf node n4 p1 sample" transform="translate(51.75 26.0651)"><path class="edge" d="M 0 0 V -26.0651 H -51.75"/><rect class="sym" height="6" width="6" x="-3" y="-3"/><text class="lab" transform="translate(0 11)">4</text></g><g class="a26 c2 node n25 p1" transform="translate(-51.75 9.72267)"><g class="a25 i0 leaf node n0 p1 sample" transform="translate(-34.5 16.3424)"><path class="edge" d="M 0 0 V -16.3424 H 34.5"/><rect class="sym" height="6" width="6" x="-3" y="-3"/><text class="lab" transform="translate(0 11)">0</text></g><g class="a25 c2 node n24 p1" transform="translate(34.5 9.31522)"><g class="a24 i3 leaf node n3 p1 sample" transform="translate(-23 7.02722)"><path class="edge" d="M 0 0 V -7.02722 H 23"/><rect class="sym" height="6" width="6" x="-3" y="-3"/><text class="lab" transform="translate(0 11)">3</text></g><g class="a24 i5 leaf node n5 p1 sample" transform="translate(23 7.02722)"><path class="edge" d="M 0 0 V -7.02722 H -23"/><rect class="sym" height="6" width="6" x="-3" y="-3"/><text class="lab" transform="translate(0 11)">5</text></g><path class="edge" d="M 0 0 V -9.31522 H -34.5"/><circle class="sym" cx="0" cy="0" r="3"/><text class="lab rgt" transform="translate(3 -7)">24</text></g><path class="edge" d="M 0 0 V -9.72267 H 51.75"/><circle class="sym" cx="0" cy="0" r="3"/><text class="lab lft" transform="translate(-3 -7)">25</text></g><path class="edge" d="M 0 0 V -30.8203 H 48.875"/><circle class="sym" cx="0" cy="0" r="3"/><text class="lab lft" transform="translate(-3 -7)">26</text></g><path class="edge" d="M 0 0 V -105.169 H 138"/><g class="mut m2 s2" transform="translate(0 -43.483)"><line x1="0" x2="0" y1="0" y2="43.483"/><path class="sym" d="M -3,-3 l 6,6 M -3,3 l 6,-6"/><text class="lab lft" transform="translate(-5 0)">2</text></g><circle class="sym" cx="0" cy="0" r="3"/><text class="lab lft" transform="translate(-3 -7)">29</text></g><g class="a35 c2 node n34 p0" transform="translate(138 32.2329)"><g class="a34 i9 leaf m1 node n9 p1 s1 sample" transform="translate(94.875 129.822)"><path class="edge" d="M 0 0 V -129.822 H -94.875"/><g class="mut m1 s1" transform="translate(0 -128.42)"><line x1="0" x2="0" y1="0" y2="128.42"/><path class="sym" d="M -3,-3 l 6,6 M -3,3 l 6,-6"/><text class="lab rgt" transform="translate(5 0)">1</text></g><rect class="sym" height="6" width="6" x="-3" y="-3"/><text class="lab" transform="translate(0 11)">9</text></g><g class="a34 c2 node n33 p0" transform="translate(-94.875 15.4648)"><g class="a33 i8 leaf node n8 p1 sample" transform="translate(-86.25 114.357)"><path class="edge" d="M 0 0 V -114.357 H 86.25"/><rect class="sym" height="6" width="6" x="-3" y="-3"/><text class="lab" transform="translate(0 11)">8</text></g><g class="a33 c2 node n28 p2" transform="translate(86.25 60.9889)"><g class="a28 i14 leaf node n14 p2 sample" transform="translate(57.5 53.368)"><path class="edge" d="M 0 0 V -53.368 H -57.5"/><rect class="sym" height="6" width="6" x="-3" y="-3"/><text class="lab" transform="translate(0 11)">14</text></g><g class="a28 c2 node n27 p2" transform="translate(-57.5 11.6835)"><g class="a27 c2 node n22 p2" transform="translate(46 36.3184)"><g class="a22 i16 leaf node n16 p2 sample" transform="translate(-23 5.36601)"><path class="edge" d="M 0 0 V -5.36601 H 23"/><rect class="sym" height="6" width="6" x="-3" y="-3"/><text class="lab" transform="translate(0 11)">16</text></g><g class="a22 i18 leaf node n18 p2 sample" transform="translate(23 5.36601)"><path class="edge" d="M 0 0 V -5.36601 H -23"/><rect class="sym" height="6" width="6" x="-3" y="-3"/><text class="lab" transform="translate(0 11)">18</text></g><path class="edge" d="M 0 0 V -36.3184 H -46"/><circle class="sym" cx="0" cy="0" r="3"/><text class="lab rgt" transform="translate(3 -7)">22</text></g><g class="a27 c2 node n23 p2" transform="translate(-46 36.1248)"><g class="a23 i11 leaf node n11 p2 sample" transform="translate(-23 5.55969)"><path class="edge" d="M 0 0 V -5.55969 H 23"/><rect class="sym" height="6" width="6" x="-3" y="-3"/><text class="lab" transform="translate(0 11)">11</text></g><g class="a23 i13 leaf node n13 p2 sample" transform="translate(23 5.55969)"><path class="edge" d="M 0 0 V -5.55969 H -23"/><rect class="sym" height="6" width="6" x="-3" y="-3"/><text class="lab" transform="translate(0 11)">13</text></g><path class="edge" d="M 0 0 V -36.1248 H 46"/><circle class="sym" cx="0" cy="0" r="3"/><text class="lab lft" transform="translate(-3 -7)">23</text></g><path class="edge" d="M 0 0 V -11.6835 H 57.5"/><circle class="sym" cx="0" cy="0" r="3"/><text class="lab lft" transform="translate(-3 -7)">27</text></g><path class="edge" d="M 0 0 V -60.9889 H -86.25"/><circle class="sym" cx="0" cy="0" r="3"/><text class="lab rgt" transform="translate(3 -7)">28</text></g><path class="edge" d="M 0 0 V -15.4648 H 94.875"/><circle class="sym" cx="0" cy="0" r="3"/><text class="lab lft" transform="translate(-3 -7)">33</text></g><path class="edge" d="M 0 0 V -32.2329 H -138"/><circle class="sym" cx="0" cy="0" r="3"/><text class="lab rgt" transform="translate(3 -7)">34</text></g><path class="edge" d="M 0 0 V -2.25463 H 188.312"/><circle class="sym" cx="0" cy="0" r="3"/><text class="lab lft" transform="translate(-3 -7)">35</text></g><path class="edge" d="M 0 0 V -119.991 H 154.531"/><g class="mut m0 s0" transform="translate(0 -85.2835)"><line x1="0" x2="0" y1="0" y2="85.2835"/><path class="sym" d="M -3,-3 l 6,6 M -3,3 l 6,-6"/><text class="lab lft" transform="translate(-5 0)">0</text></g><circle class="sym" cx="0" cy="0" r="3"/><text class="lab lft" transform="translate(-3 -7)">36</text></g><path class="edge" d="M 0 0 V -10.2998 H 129.016"/><circle class="sym" cx="0" cy="0" r="3"/><text class="lab lft" transform="translate(-3 -7)">37</text></g><circle class="sym" cx="0" cy="0" r="3"/><text class="lab" transform="translate(0 -11)">38</text></g></g></g></g></g></svg>