<svg baseProfile="full" height="400" version="1.1" width="1000" xmlns="http://www.w3.org/2000/svg" xmlns:ev="http://www.w3.org/2001/xml-events" xmlns:xlink="http://www.w3.org/1999/xlink"><defs><style type="text/css"><![CDATA[.background path {fill: #808080; fill-opacity: 0}.background path:nth-child(odd) {fill-opacity: .1}.x-regions rect {fill: yellow; stroke: black; opacity: 0.5}.axes {font-size: 14px}.x-axis .tick .lab {font-weight: bold; dominant-baseline: hanging}.axes, .tree {font-size: 14px; text-anchor: middle}.axes line, .edge {stroke: black; fill: none}.axes .ax-skip {stroke-dasharray: 4}.y-axis .grid {stroke: #FAFAFA}.node > .sym {fill: black; stroke: none}.site > .sym {stroke: black}.mut text {fill: red; font-style: italic}.mut.extra text {fill: hotpink}.mut line {fill: none; stroke: none}.mut .sym {fill: none; stroke: red}.mut.extra .sym {stroke: hotpink}.node .mut .sym {stroke-width: 1.5px}.tree text, .tree-sequence text {dominant-baseline: central}.plotbox .lab.lft {text-anchor: end}.plotbox .lab.rgt {text-anchor: start}.polytomy line {stroke: black; stroke-dasharray: 1px, 1px}.polytomy text {paint-order:stroke;stroke-width:0.3em;stroke:white}]]></style></defs><g class="tree-sequence"><g class="background"><path d="M20,0 l960,0 l0,338.2 l0,25 l0,5 l-960,0 l0,-5 l0,-25 l0,-338.2z"/></g><g class="axes"><g class="x-axis"><g class="title" transform="translate(500 400)"><text class="lab" text-anchor="middle" transform="translate(0 -11)">Genome position</text></g><line class="ax-line" x1="20" x2="980" y1="363.2" y2="363.2"/><g class="ticks"><g class="tick" transform="translate(20 363.2)"><line x1="0" x2="0" y1="0" y2="5"/><g transform="translate(0 6)"><text class="lab">0</text></g></g><g class="tick" transform="translate(980 363.2)"><line x1="0" x2="0" y1="0" y2="5"/><g transform="translate(0 6)"><text class="lab">1000</text></g></g></g><g class="site s0" transform="translate(470.24 363.2)"><line class="sym" x1="0" x2="0" y1="0" y2="-10"/><g class="mut m0"><polyline class="sym" points="2.5,-6.5 0,-1.5 -2.5,-6.5"/></g></g><g class="site s1" transform="translate(572 363.2)"><line class="sym" x1="0" x2="0" y1="0" y2="-10"/><g class="mut m1"><polyline class="sym" points="2.5,-6.5 0,-1.5 -2.5,-6.5"/></g></g><g class="site s2" transform="translate(812.96 363.2)"><line class="sym" x1="0" x2="0" y1="0" y2="-10"/><g class="mut m2"><polyline class="sym" points="2.5,-6.5 0,-1.5 -2.5,-6.5"/></g></g><g class="site s3" transform="translate(894.56 363.2)"><line class="sym" x1="0" x2="0" y1="0" y2="-10"/><g class="mut m3"><polyline class="sym" points="2.5,-6.5 0,-1.5 -2.5,-6.5"/></g></g></g></g><g class="plotbox trees"><g class="tree t0" transform="translate(20 0)"><g class="plotbox"><g class="c2 node n38 p2 root" transform="translate(651.242 26.8)"><g class="a38 c2 m0 m1 m2 node n31 p2 s0 s1 s2" transform="translate(231.258 274.171)"><g class="a31 i12 leaf node n12 p2 sample" transform="translate(34.5 20.4291)"><path class="edge" d="M 0 0 V -20.4291 H -34.5"/><rect class="sym" height="6" width="6" x="-3" y="-3"/><text class="lab" transform="translate(0 11)">12</text></g><g class="a31 c2 node n30 p2" transform="translate(-34.5 11.5207)"><g class="a30 i8 leaf node n8 p1 sample" transform="translate(-23 8.90839)"><path class="edge" d="M 0 0 V -8.90839 H 23"/><rect class="sym" height="6" width="6" x="-3" y="-3"/><text class="lab" transform="translate(0 11)">8</text></g><g class="a30 i13 leaf node n13 p2 sample" transform="translate(23 8.90839)"><path class="edge" d="M 0 0 V -8.90839 H -23"/><rect class="sym" height="6" width="6" x="-3" y="-3"/><text class="lab" transform="translate(0 11)">13</text></g><path class="edge" d="M 0 0 V -11.5207 H 34.5"/><circle class="sym" cx="0" cy="0" r="3"/><text class="lab lft" transform="translate(-3 -7)">30</text></g><path class="edge" d="M 0 0 V -274.171 H -231.258"/><g class="mut m2 s2" transform="translate(0 -273.841)"><line x1="0" x2="0" y1="0" y2="273.841"/><path class="sym" d="M -3,-3 l 6,6 M -3,3 l 6,-6"/><text class="lab rgt" transform="translate(5 0)">2</text></g><g class="mut m1 s1" transform="translate(0 -250.854)"><line x1="0" x2="0" y1="0" y2="250.854"/><path class="sym" d="M -3,-3 l 6,6 M -3,3 l 6,-6"/><text class="lab rgt" transform="translate(5 0)">1</text></g><g class="mut m0 s0" transform="translate(0 -216.409)"><line x1="0" x2="0" y1="0" y2="216.409"/><path class="sym" d="M -3,-3 l 6,6 M -3,3 l 6,-6"/><text class="lab rgt" transform="translate(5 0)">0</text></g><circle class="sym" cx="0" cy="0" r="3"/><text class="lab rgt" transform="translate(3 -7)">31</text></g><g class="a38 c2 node n37 p1" transform="translate(-231.258 113.118)"><g class="a37 c2 node n35 p2" transform="translate(-198.734 145.667)"><g class="a35 i4 leaf node n4 p1 sample" transform="translate(51.75 35.8146)"><path class="edge" d="M 0 0 V -35.8146 H -51.75"/><rect class="sym" height="6" width="6" x="-3" y="-3"/><text class="lab" transform="translate(0 11)">4</text></g><g class="a35 c2 node n33 p1" transform="translate(-51.75 9.96997)"><g class="a33 i10 leaf node n10 p2 sample" transform="translate(57.5 25.8447)"><path class="edge" d="M 0 0 V -25.8447 H -57.5"/><rect class="sym" height="6" width="6" x="-3" y="-3"/><text class="lab" transform="translate(0 11)">10</text></g><g class="a33 c2 node n29 p2" transform="translate(-57.5 17.744)"><g class="a29 c2 node n21 p2" transform="translate(46 7.44915)"><g class="a21 i16 leaf node n16 p2 sample" transform="translate(-23 0.651473)"><path class="edge" d="M 0 0 V -0.651473 H 23"/><rect class="sym" height="6" width="6" x="-3" y="-3"/><text class="lab" transform="translate(0 11)">16</text></g><g class="a21 i18 leaf node n18 p2 sample" transform="translate(23 0.651473)"><path class="edge" d="M 0 0 V -0.651473 H -23"/><rect class="sym" height="6" width="6" x="-3" y="-3"/><text class="lab" transform="translate(0 11)">18</text></g><path class="edge" d="M 0 0 V -7.44915 H -46"/><circle class="sym" cx="0" cy="0" r="3"/><text class="lab rgt" transform="translate(3 -7)">21</text></g><g class="a29 c2 node n27 p2" transform="translate(-46 2.44001)"><g class="a27 i0 leaf node n0 p1 sample" transform="translate(-23 5.66061)"><path class="edge" d="M 0 0 V -5.66061 H 23"/><rect class="sym" height="6" width="6" x="-3" y="-3"/><text class="lab" transform="translate(0 11)">0</text></g><g class="a27 i7 leaf node n7 p1 sample" transform="translate(23 5.66061)"><path class="edge" d="M 0 0 V -5.66061 H -23"/><rect class="sym" height="6" width="6" x="-3" y="-3"/><text class="lab" transform="translate(0 11)">7</text></g><path class="edge" d="M 0 0 V -2.44001 H 46"/><circle class="sym" cx="0" cy="0" r="3"/><text class="lab lft" transform="translate(-3 -7)">27</text></g><path class="edge" d="M 0 0 V -17.744 H 57.5"/><circle class="sym" cx="0" cy="0" r="3"/><text class="lab lft" transform="translate(-3 -7)">29</text></g><path class="edge" d="M 0 0 V -9.96997 H 51.75"/><circle class="sym" cx="0" cy="0" r="3"/><text class="lab lft" transform="translate(-3 -7)">33</text></g><path class="edge" d="M 0 0 V -145.667 H 198.734"/><circle class="sym" cx="0" cy="0" r="3"/><text class="lab lft" transform="translate(-3 -7)">35</text></g><g class="a37 c2 node n36 p2" transform="translate(198.734 112.17)"><g class="a36 c2 node n26 p1" transform="translate(137.281 63.7593)"><g class="a26 i5 leaf node n5 p1 sample" transform="translate(-23 5.55245)"><path class="edge" d="M 0 0 V -5.55245 H 23"/><rect class="sym" height="6" width="6" x="-3" y="-3"/><text class="lab" transform="translate(0 11)">5</text></g><g class="a26 i17 leaf node n17 p2 sample" transform="translate(23 5.55245)"><path class="edge" d="M 0 0 V -5.55245 H -23"/><rect class="sym" height="6" width="6" x="-3" y="-3"/><text class="lab" transform="translate(0 11)">17</text></g><path class="edge" d="M 0 0 V -63.7593 H -137.281"/><circle class="sym" cx="0" cy="0" r="3"/><text class="lab rgt" transform="translate(3 -7)">26</text></g><g class="a36 c2 node n34 p1" transform="translate(-137.281 38.1662)"><g class="a34 c2 node n22 p1" transform="translate(-127.938 30.1674)"><g class="a22 i1 leaf node n1 p1 sample" transform="translate(-34.5 0.978249)"><path class="edge" d="M 0 0 V -0.978249 H 34.5"/><rect class="sym" height="6" width="6" x="-3" y="-3"/><text class="lab" transform="translate(0 11)">1</text></g><g class="a22 c2 node n20 p2" transform="translate(34.5 0.634619)"><g class="a20 i3 leaf node n3 p1 sample" transform="translate(-23 0.34363)"><path class="edge" d="M 0 0 V -0.34363 H 23"/><rect class="sym" height="6" width="6" x="-3" y="-3"/><text class="lab" transform="translate(0 11)">3</text></g><g class="a20 i6 leaf node n6 p1 sample" transform="translate(23 0.34363)"><path class="edge" d="M 0 0 V -0.34363 H -23"/><rect class="sym" height="6" width="6" x="-3" y="-3"/><text class="lab" transform="translate(0 11)">6</text></g><path class="edge" d="M 0 0 V -0.634619 H -34.5"/><circle class="sym" cx="0" cy="0" r="3"/><text class="lab rgt" transform="translate(3 -7)">20</text></g><path class="edge" d="M 0 0 V -30.1674 H 127.938"/><circle class="sym" cx="0" cy="0" r="3"/><text class="lab lft" transform="translate(-3 -7)">22</text></g><g class="a34 c2 node n32 p1" transform="translate(127.938 5.65888)"><g class="a32 c2 m3 node n25 p1 s3" transform="translate(54.625 20.5338)"><g class="a25 i11 leaf node n11 p2 sample" transform="translate(-23 4.95297)"><path class="edge" d="M 0 0 V -4.95297 H 23"/><rect class="sym" height="6" width="6" x="-3" y="-3"/><text class="lab" transform="translate(0 11)">11</text></g><g class="a25 i15 leaf node n15 p2 sample" transform="translate(23 4.95297)"><path class="edge" d="M 0 0 V -4.95297 H -23"/><rect class="sym" height="6" width="6" x="-3" y="-3"/><text class="lab" transform="translate(0 11)">15</text></g><path class="edge" d="M 0 0 V -20.5338 H -54.625"/><g class="mut m3 s3" transform="translate(0 -5.60272)"><line x1="0" x2="0" y1="0" y2="5.60272"/><path class="sym" d="M -3,-3 l 6,6 M -3,3 l 6,-6"/><text class="lab rgt" transform="translate(5 0)">3</text></g><circle class="sym" cx="0" cy="0" r="3"/><text class="lab rgt" transform="translate(3 -7)">25</text></g><g class="a32 c2 node n28 p1" transform="translate(-54.625 18.8843)"><g class="a28 i9 leaf node n9 p1 sample" transform="translate(40.25 6.60245)"><path class="edge" d="M 0 0 V -6.60245 H -40.25"/><rect class="sym" height="6" width="6" x="-3" y="-3"/><text class="lab" transform="translate(0 11)">9</text></g><g class="a28 c2 node n24 p2" transform="translate(-40.25 3.78911)"><g class="a24 i19 leaf node n19 p2 sample" transform="translate(34.5 2.81334)"><path class="edge" d="M 0 0 V -2.81334 H -34.5"/><rect class="sym" height="6" width="6" x="-3" y="-3"/><text class="lab" transform="translate(0 11)">19</text></g><g class="a24 c2 node n23 p2" transform="translate(-34.5 1.59996)"><g class="a23 i2 leaf node n2 p1 sample" transform="translate(-23 1.21338)"><path class="edge" d="M 0 0 V -1.21338 H 23"/><rect class="sym" height="6" width="6" x="-3" y="-3"/><text class="lab" transform="translate(0 11)">2</text></g><g class="a23 i14 leaf node n14 p2 sample" transform="translate(23 1.21338)"><path class="edge" d="M 0 0 V -1.21338 H -23"/><rect class="sym" height="6" width="6" x="-3" y="-3"/><text class="lab" transform="translate(0 11)">14</text></g><path class="edge" d="M 0 0 V -1.59996 H 34.5"/><circle class="sym" cx="0" cy="0" r="3"/><text class="lab lft" transform="translate(-3 -7)">23</text></g><path class="edge" d="M 0 0 V -3.78911 H 40.25"/><circle class="sym" cx="0" cy="0" r="3"/><text class="lab lft" transform="translate(-3 -7)">24</text></g><path class="edge" d="M 0 0 V -18.8843 H 54.625"/><circle class="sym" cx="0" cy="0" r="3"/><text class="lab lft" transform="translate(-3 -7)">28</text></g><path class="edge" d="M 0 0 V -5.65888 H -127.938"/><circle class="sym" cx="0" cy="0" r="3"/><text class="lab rgt" transform="translate(3 -7)">32</text></g><path class="edge" d="M 0 0 V -38.1662 H 137.281"/><circle class="sym" cx="0" cy="0" r="3"/><text class="lab lft" transform="translate(-3 -7)">34</text></g><path class="edge" d="M 0 0 V -112.17 H -198.734"/><circle class="sym" cx="0" cy="0" r="3"/><text class="lab rgt" transform="translate(3 -7)">36</text></g><path class="edge" d="M 0 0 V -113.118 H 231.258"/><circle class="sym" cx="0" cy="0" r="3"/><text class="lab lft" transform="translate(-3 -7)">37</text></g><circle class="sym" cx="0" cy="0" r="3"/><text class="lab" transform="translate(0 -11)">38</text></g></g></g></g></g></svg>