<svg baseProfile="full" height="400" version="1.1" width="1000" xmlns="http://www.w3.org/2000/svg" xmlns:ev="http://www.w3.org/2001/xml-events" xmlns:xlink="http://www.w3.org/1999/xlink"><defs><style type="text/css"><![CDATA[.background path {fill: #808080; fill-opacity: 0}.background path:nth-child(odd) {fill-opacity: .1}.x-regions rect {fill: yellow; stroke: black; opacity: 0.5}.axes {font-size: 14px}.x-axis .tick .lab {font-weight: bold; dominant-baseline: hanging}.axes, .tree {font-size: 14px; text-anchor: middle}.axes line, .edge {stroke: black; fill: none}.axes .ax-skip {stroke-dasharray: 4}.y-axis .grid {stroke: #FAFAFA}.node > .sym {fill: black; stroke: none}.site > .sym {stroke: black}.mut text {fill: red; font-style: italic}.mut.extra text {fill: hotpink}.mut line {fill: none; stroke: none}.mut .sym {fill: none; stroke: red}.mut.extra .sym {stroke: hotpink}.node .mut .sym {stroke-width: 1.5px}.tree text, .tree-sequence text {dominant-baseline: central}.plotbox .lab.lft {text-anchor: end}.plotbox .lab.rgt {text-anchor: start}.polytomy line {stroke: black; stroke-dasharray: 1px, 1px}.polytomy text {paint-order:stroke;stroke-width:0.3em;stroke:white}]]></style></defs><g class="tree-sequence"><g class="background"><path d="M20,0 l960,0 l0,338.2 l0,25 l0,5 l-960,0 l0,-5 l0,-25 l0,-338.2z"/></g><g class="axes"><g class="x-axis"><g class="title" transform="translate(500 400)"><text class="lab" text-anchor="middle" transform="translate(0 -11)">Genome position</text></g><line class="ax-line" x1="20" x2="980" y1="363.2" y2="363.2"/><g class="ticks"><g class="tick" transform="translate(20 363.2)"><line x1="0" x2="0" y1="0" y2="5"/><g transform="translate(0 6)"><text class="lab">0</text></g></g><g class="tick" transform="translate(980 363.2)"><line x1="0" x2="0" y1="0" y2="5"/><g transform="translate(0 6)"><text class="lab">1000</text></g></g></g><g class="site s0" transform="translate(626.72 363.2)"><line class="sym" x1="0" x2="0" y1="0" y2="-10"/><g class="mut m0"><polyline class="sym" points="2.5,-6.5 0,-1.5 -2.5,-6.5"/></g></g></g></g><g class="plotbox trees"><g class="tree t0" transform="translate(20 0)"><g class="plotbox"><g class="c2 node n38 p2 root" transform="translate(697.062 26.8)"><g class="a38 c2 node n27 p2" transform="translate(153.812 273.833)"><g class="a27 i19 leaf node n19 p2 sample" transform="translate(66.125 20.7674)"><path class="edge" d="M 0 0 V -20.7674 H -66.125"/><rect class="sym" height="6" width="6" x="-3" y="-3"/><text class="lab" transform="translate(0 11)">19</text></g><g class="a27 c2 node n26 p1" transform="translate(-66.125 0.430481)"><g class="a26 i1 leaf node n1 p1 sample" transform="translate(-51.75 20.3369)"><path class="edge" d="M 0 0 V -20.3369 H 51.75"/><rect class="sym" height="6" width="6" x="-3" y="-3"/><text class="lab" transform="translate(0 11)">1</text></g><g class="a26 c2 node n24 p2" transform="translate(51.75 3.6797)"><g class="a24 i16 leaf node n16 p2 sample" transform="translate(34.5 16.6572)"><path class="edge" d="M 0 0 V -16.6572 H -34.5"/><rect class="sym" height="6" width="6" x="-3" y="-3"/><text class="lab" transform="translate(0 11)">16</text></g><g class="a24 c2 node n23 p1" transform="translate(-34.5 7.49429)"><g class="a23 i9 leaf node n9 p1 sample" transform="translate(-23 9.16294)"><path class="edge" d="M 0 0 V -9.16294 H 23"/><rect class="sym" height="6" width="6" x="-3" y="-3"/><text class="lab" transform="translate(0 11)">9</text></g><g class="a23 i17 leaf node n17 p2 sample" transform="translate(23 9.16294)"><path class="edge" d="M 0 0 V -9.16294 H -23"/><rect class="sym" height="6" width="6" x="-3" y="-3"/><text class="lab" transform="translate(0 11)">17</text></g><path class="edge" d="M 0 0 V -7.49429 H 34.5"/><circle class="sym" cx="0" cy="0" r="3"/><text class="lab lft" transform="translate(-3 -7)">23</text></g><path class="edge" d="M 0 0 V -3.6797 H -51.75"/><circle class="sym" cx="0" cy="0" r="3"/><text class="lab rgt" transform="translate(3 -7)">24</text></g><path class="edge" d="M 0 0 V -0.430481 H 66.125"/><circle class="sym" cx="0" cy="0" r="3"/><text class="lab lft" transform="translate(-3 -7)">26</text></g><path class="edge" d="M 0 0 V -273.833 H -153.812"/><circle class="sym" cx="0" cy="0" r="3"/><text class="lab rgt" transform="translate(3 -7)">27</text></g><g class="a38 c2 node n37 p2" transform="translate(-153.812 99.9876)"><g class="a37 i11 leaf node n11 p2 sample" transform="translate(143.75 194.612)"><path class="edge" d="M 0 0 V -194.612 H -143.75"/><rect class="sym" height="6" width="6" x="-3" y="-3"/><text class="lab" transform="translate(0 11)">11</text></g><g class="a37 c2 node n36 p1" transform="translate(-143.75 40.4861)"><g class="a36 c2 node n30 p1" transform="translate(166.75 119.506)"><g class="a30 c2 node n28 p1" transform="translate(51.75 10.9988)"><g class="a28 i5 leaf node n5 p1 sample" transform="translate(-23 23.6212)"><path class="edge" d="M 0 0 V -23.6212 H 23"/><rect class="sym" height="6" width="6" x="-3" y="-3"/><text class="lab" transform="translate(0 11)">5</text></g><g class="a28 i14 leaf node n14 p2 sample" transform="translate(23 23.6212)"><path class="edge" d="M 0 0 V -23.6212 H -23"/><rect class="sym" height="6" width="6" x="-3" y="-3"/><text class="lab" transform="translate(0 11)">14</text></g><path class="edge" d="M 0 0 V -10.9988 H -51.75"/><circle class="sym" cx="0" cy="0" r="3"/><text class="lab rgt" transform="translate(3 -7)">28</text></g><g class="a30 c2 node n29 p1" transform="translate(-51.75 6.02325)"><g class="a29 i18 leaf node n18 p2 sample" transform="translate(34.5 28.5968)"><path class="edge" d="M 0 0 V -28.5968 H -34.5"/><rect class="sym" height="6" width="6" x="-3" y="-3"/><text class="lab" transform="translate(0 11)">18</text></g><g class="a29 c2 node n22 p1" transform="translate(-34.5 25.4246)"><g class="a22 i4 leaf node n4 p1 sample" transform="translate(-23 3.17226)"><path class="edge" d="M 0 0 V -3.17226 H 23"/><rect class="sym" height="6" width="6" x="-3" y="-3"/><text class="lab" transform="translate(0 11)">4</text></g><g class="a22 i12 leaf node n12 p2 sample" transform="translate(23 3.17226)"><path class="edge" d="M 0 0 V -3.17226 H -23"/><rect class="sym" height="6" width="6" x="-3" y="-3"/><text class="lab" transform="translate(0 11)">12</text></g><path class="edge" d="M 0 0 V -25.4246 H 34.5"/><circle class="sym" cx="0" cy="0" r="3"/><text class="lab lft" transform="translate(-3 -7)">22</text></g><path class="edge" d="M 0 0 V -6.02325 H 51.75"/><circle class="sym" cx="0" cy="0" r="3"/><text class="lab lft" transform="translate(-3 -7)">29</text></g><path class="edge" d="M 0 0 V -119.506 H -166.75"/><circle class="sym" cx="0" cy="0" r="3"/><text class="lab rgt" transform="translate(3 -7)">30</text></g><g class="a36 c2 node n35 p2" transform="translate(-166.75 9.93057)"><g class="a35 c2 node n33 p2" transform="translate(103.5 84.9613)"><g class="a33 c2 node n31 p2" transform="translate(51.75 6.37473)"><g class="a31 i6 leaf node n6 p1 sample" transform="translate(-23 52.8596)"><path class="edge" d="M 0 0 V -52.8596 H 23"/><rect class="sym" height="6" width="6" x="-3" y="-3"/><text class="lab" transform="translate(0 11)">6</text></g><g class="a31 i13 leaf node n13 p2 sample" transform="translate(23 52.8596)"><path class="edge" d="M 0 0 V -52.8596 H -23"/><rect class="sym" height="6" width="6" x="-3" y="-3"/><text class="lab" transform="translate(0 11)">13</text></g><path class="edge" d="M 0 0 V -6.37473 H -51.75"/><circle class="sym" cx="0" cy="0" r="3"/><text class="lab rgt" transform="translate(3 -7)">31</text></g><g class="a33 c2 node n32 p1" transform="translate(-51.75 1.98361)"><g class="a32 i10 leaf node n10 p2 sample" transform="translate(34.5 57.2507)"><path class="edge" d="M 0 0 V -57.2507 H -34.5"/><rect class="sym" height="6" width="6" x="-3" y="-3"/><text class="lab" transform="translate(0 11)">10</text></g><g class="a32 c2 m0 node n20 p1 s0" transform="translate(-34.5 57.0899)"><g class="a20 i2 leaf node n2 p1 sample" transform="translate(-23 0.160806)"><path class="edge" d="M 0 0 V -0.160806 H 23"/><rect class="sym" height="6" width="6" x="-3" y="-3"/><text class="lab" transform="translate(0 11)">2</text></g><g class="a20 i7 leaf node n7 p1 sample" transform="translate(23 0.160806)"><path class="edge" d="M 0 0 V -0.160806 H -23"/><rect class="sym" height="6" width="6" x="-3" y="-3"/><text class="lab" transform="translate(0 11)">7</text></g><path class="edge" d="M 0 0 V -57.0899 H 34.5"/><g class="mut m0 s0" transform="translate(0 -6.9924)"><line x1="0" x2="0" y1="0" y2="6.9924"/><path class="sym" d="M -3,-3 l 6,6 M -3,3 l 6,-6"/><text class="lab lft" transform="translate(-5 0)">0</text></g><circle class="sym" cx="0" cy="0" r="3"/><text class="lab lft" transform="translate(-3 -7)">20</text></g><path class="edge" d="M 0 0 V -1.98361 H 51.75"/><circle class="sym" cx="0" cy="0" r="3"/><text class="lab lft" transform="translate(-3 -7)">32</text></g><path class="edge" d="M 0 0 V -84.9613 H -103.5"/><circle class="sym" cx="0" cy="0" r="3"/><text class="lab rgt" transform="translate(3 -7)">33</text></g><g class="a35 c2 node n34 p2" transform="translate(-103.5 61.1772)"><g class="a34 i15 leaf node n15 p2 sample" transform="translate(51.75 83.0185)"><path class="edge" d="M 0 0 V -83.0185 H -51.75"/><rect class="sym" height="6" width="6" x="-3" y="-3"/><text class="lab" transform="translate(0 11)">15</text></g><g class="a34 c2 node n25 p2" transform="translate(-51.75 66.1064)"><g class="a25 i0 leaf node n0 p1 sample" transform="translate(-34.5 16.9121)"><path class="edge" d="M 0 0 V -16.9121 H 34.5"/><rect class="sym" height="6" width="6" x="-3" y="-3"/><text class="lab" transform="translate(0 11)">0</text></g><g class="a25 c2 node n21 p1" transform="translate(34.5 16.3675)"><g class="a21 i3 leaf node n3 p1 sample" transform="translate(-23 0.544564)"><path class="edge" d="M 0 0 V -0.544564 H 23"/><rect class="sym" height="6" width="6" x="-3" y="-3"/><text class="lab" transform="translate(0 11)">3</text></g><g class="a21 i8 leaf node n8 p1 sample" transform="translate(23 0.544564)"><path class="edge" d="M 0 0 V -0.544564 H -23"/><rect class="sym" height="6" width="6" x="-3" y="-3"/><text class="lab" transform="translate(0 11)">8</text></g><path class="edge" d="M 0 0 V -16.3675 H -34.5"/><circle class="sym" cx="0" cy="0" r="3"/><text class="lab rgt" transform="translate(3 -7)">21</text></g><path class="edge" d="M 0 0 V -66.1064 H 51.75"/><circle class="sym" cx="0" cy="0" r="3"/><text class="lab lft" transform="translate(-3 -7)">25</text></g><path class="edge" d="M 0 0 V -61.1772 H 103.5"/><circle class="sym" cx="0" cy="0" r="3"/><text class="lab lft" transform="translate(-3 -7)">34</text></g><path class="edge" d="M 0 0 V -9.93057 H 166.75"/><circle class="sym" cx="0" cy="0" r="3"/><text class="lab lft" transform="translate(-3 -7)">35</text></g><path class="edge" d="M 0 0 V -40.4861 H 143.75"/><circle class="sym" cx="0" cy="0" r="3"/><text class="lab lft" transform="translate(-3 -7)">36</text></g><path class="edge" d="M 0 0 V -99.9876 H 153.812"/><circle class="sym" cx="0" cy="0" r="3"/><text class="lab lft" transform="translate(-3 -7)">37</text></g><circle class="sym" cx="0" cy="0" r="3"/><text class="lab" transform="translate(0 -11)">38</text></g></g></g></g></g></svg>