<svg baseProfile="full" height="400" version="1.1" width="1000" xmlns="http://www.w3.org/2000/svg" xmlns:ev="http://www.w3.org/2001/xml-events" xmlns:xlink="http://www.w3.org/1999/xlink"><defs><style type="text/css"><![CDATA[.background path {fill: #808080; fill-opacity: 0}.background path:nth-child(odd) {fill-opacity: .1}.x-regions rect {fill: yellow; stroke: black; opacity: 0.5}.axes {font-size: 14px}.x-axis .tick .lab {font-weight: bold; dominant-baseline: hanging}.axes, .tree {font-size: 14px; text-anchor: middle}.axes line, .edge {stroke: black; fill: none}.axes .ax-skip {stroke-dasharray: 4}.y-axis .grid {stroke: #FAFAFA}.node > .sym {fill: black; stroke: none}.site > .sym {stroke: black}.mut text {fill: red; font-style: italic}.mut.extra text {fill: hotpink}.mut line {fill: none; stroke: none}.mut .sym {fill: none; stroke: red}.mut.extra .sym {stroke: hotpink}.node .mut .sym {stroke-width: 1.5px}.tree text, .tree-sequence text {dominant-baseline: central}.plotbox .lab.lft {text-anchor: end}.plotbox .lab.rgt {text-anchor: start}.polytomy line {stroke: black; stroke-dasharray: 1px, 1px}.polytomy text {paint-order:stroke;stroke-width:0.3em;stroke:white}]]></style></defs><g class="tree-sequence"><g class="background"><path d="M20,0 l960,0 l0,338.2 l0,25 l0,5 l-960,0 l0,-5 l0,-25 l0,-338.2z"/></g><g class="axes"><g class="x-axis"><g class="title" transform="translate(500 400)"><text class="lab" text-anchor="middle" transform="translate(0 -11)">Genome position</text></g><line class="ax-line" x1="20" x2="980" y1="363.2" y2="363.2"/><g class="ticks"><g class="tick" transform="translate(20 363.2)"><line x1="0" x2="0" y1="0" y2="5"/><g transform="translate(0 6)"><text class="lab">0</text></g></g><g class="tick" transform="translate(980 363.2)"><line x1="0" x2="0" y1="0" y2="5"/><g transform="translate(0 6)"><text class="lab">1000</text></g></g></g><g class="site s0" transform="translate(435.68 363.2)"><line class="sym" x1="0" x2="0" y1="0" y2="-10"/><g class="mut m0"><polyline class="sym" points="2.5,-6.5 0,-1.5 -2.5,-6.5"/></g></g><g class="site s1" transform="translate(613.28 363.2)"><line class="sym" x1="0" x2="0" y1="0" y2="-10"/><g class="mut m1"><polyline class="sym" points="2.5,-6.5 0,-1.5 -2.5,-6.5"/></g></g><g class="site s2" transform="translate(826.4 363.2)"><line class="sym" x1="0" x2="0" y1="0" y2="-10"/><g class="mut m2"><polyline class="sym" points="2.5,-6.5 0,-1.5 -2.5,-6.5"/></g></g></g></g><g class="plotbox trees"><g class="tree t0" transform="translate(20 0)"><g class="plotbox"><g class="c2 node n38 p0 root" transform="translate(709.461 26.8)"><g class="a38 c2 node n31 p1" transform="translate(150.039 275.387)"><g class="a31 i5 leaf node n5 p1 sample" transform="translate(-34.5 19.2127)"><path class="edge" d="M 0 0 V -19.2127 H 34.5"/><rect class="sym" height="6" width="6" x="-3" y="-3"/><text class="lab" transform="translate(0 11)">5</text></g><g class="a31 c2 node n23 p1" transform="translate(34.5 17.848)"><g class="a23 i7 leaf node n7 p1 sample" transform="translate(-23 1.36464)"><path class="edge" d="M 0 0 V -1.36464 H 23"/><rect class="sym" height="6" width="6" x="-3" y="-3"/><text class="lab" transform="translate(0 11)">7</text></g><g class="a23 i16 leaf node n16 p2 sample" transform="translate(23 1.36464)"><path class="edge" d="M 0 0 V -1.36464 H -23"/><rect class="sym" height="6" width="6" x="-3" y="-3"/><text class="lab" transform="translate(0 11)">16</text></g><path class="edge" d="M 0 0 V -17.848 H -34.5"/><circle class="sym" cx="0" cy="0" r="3"/><text class="lab rgt" transform="translate(3 -7)">23</text></g><path class="edge" d="M 0 0 V -275.387 H -150.039"/><circle class="sym" cx="0" cy="0" r="3"/><text class="lab rgt" transform="translate(3 -7)">31</text></g><g class="a38 c2 m2 node n37 p0 s2" transform="translate(-150.039 218.558)"><g class="a37 c2 m1 node n27 p1 s1" transform="translate(133.328 65.0051)"><g class="a27 i9 leaf node n9 p1 sample" transform="translate(-51.75 11.0364)"><path class="edge" d="M 0 0 V -11.0364 H 51.75"/><rect class="sym" height="6" width="6" x="-3" y="-3"/><text class="lab" transform="translate(0 11)">9</text></g><g class="a27 c2 node n24 p2" transform="translate(51.75 8.79019)"><g class="a24 i13 leaf node n13 p2 sample" transform="translate(34.5 2.24626)"><path class="edge" d="M 0 0 V -2.24626 H -34.5"/><rect class="sym" height="6" width="6" x="-3" y="-3"/><text class="lab" transform="translate(0 11)">13</text></g><g class="a24 c2 node n22 p2" transform="translate(-34.5 1.41608)"><g class="a22 i12 leaf node n12 p2 sample" transform="translate(-23 0.83018)"><path class="edge" d="M 0 0 V -0.83018 H 23"/><rect class="sym" height="6" width="6" x="-3" y="-3"/><text class="lab" transform="translate(0 11)">12</text></g><g class="a22 i19 leaf node n19 p2 sample" transform="translate(23 0.83018)"><path class="edge" d="M 0 0 V -0.83018 H -23"/><rect class="sym" height="6" width="6" x="-3" y="-3"/><text class="lab" transform="translate(0 11)">19</text></g><path class="edge" d="M 0 0 V -1.41608 H 34.5"/><circle class="sym" cx="0" cy="0" r="3"/><text class="lab lft" transform="translate(-3 -7)">22</text></g><path class="edge" d="M 0 0 V -8.79019 H -51.75"/><circle class="sym" cx="0" cy="0" r="3"/><text class="lab rgt" transform="translate(3 -7)">24</text></g><path class="edge" d="M 0 0 V -65.0051 H -133.328"/><g class="mut m1 s1" transform="translate(0 -63.3863)"><line x1="0" x2="0" y1="0" y2="63.3863"/><path class="sym" d="M -3,-3 l 6,6 M -3,3 l 6,-6"/><text class="lab rgt" transform="translate(5 0)">1</text></g><circle class="sym" cx="0" cy="0" r="3"/><text class="lab rgt" transform="translate(3 -7)">27</text></g><g class="a37 c2 node n36 p0" transform="translate(-133.328 11.6067)"><g class="a36 c2 node n26 p1" transform="translate(134.406 55.7174)"><g class="a26 i4 leaf node n4 p1 sample" transform="translate(34.5 8.71755)"><path class="edge" d="M 0 0 V -8.71755 H -34.5"/><rect class="sym" height="6" width="6" x="-3" y="-3"/><text class="lab" transform="translate(0 11)">4</text></g><g class="a26 c2 node n20 p1" transform="translate(-34.5 8.37139)"><g class="a20 i2 leaf node n2 p1 sample" transform="translate(-23 0.34616)"><path class="edge" d="M 0 0 V -0.34616 H 23"/><rect class="sym" height="6" width="6" x="-3" y="-3"/><text class="lab" transform="translate(0 11)">2</text></g><g class="a20 i10 leaf node n10 p2 sample" transform="translate(23 0.34616)"><path class="edge" d="M 0 0 V -0.34616 H -23"/><rect class="sym" height="6" width="6" x="-3" y="-3"/><text class="lab" transform="translate(0 11)">10</text></g><path class="edge" d="M 0 0 V -8.37139 H 34.5"/><circle class="sym" cx="0" cy="0" r="3"/><text class="lab lft" transform="translate(-3 -7)">20</text></g><path class="edge" d="M 0 0 V -55.7174 H -134.406"/><circle class="sym" cx="0" cy="0" r="3"/><text class="lab rgt" transform="translate(3 -7)">26</text></g><g class="a36 c2 node n35 p0" transform="translate(-134.406 6.96307)"><g class="a35 c2 node n32 p2" transform="translate(-79.0625 37.3887)"><g class="a32 i3 leaf node n3 p1 sample" transform="translate(60.375 20.0831)"><path class="edge" d="M 0 0 V -20.0831 H -60.375"/><rect class="sym" height="6" width="6" x="-3" y="-3"/><text class="lab" transform="translate(0 11)">3</text></g><g class="a32 c2 node n30 p2" transform="translate(-60.375 1.85431)"><g class="a30 c2 node n21 p2" transform="translate(51.75 17.6672)"><g class="a21 i6 leaf node n6 p1 sample" transform="translate(-23 0.561584)"><path class="edge" d="M 0 0 V -0.561584 H 23"/><rect class="sym" height="6" width="6" x="-3" y="-3"/><text class="lab" transform="translate(0 11)">6</text></g><g class="a21 i17 leaf node n17 p2 sample" transform="translate(23 0.561584)"><path class="edge" d="M 0 0 V -0.561584 H -23"/><rect class="sym" height="6" width="6" x="-3" y="-3"/><text class="lab" transform="translate(0 11)">17</text></g><path class="edge" d="M 0 0 V -17.6672 H -51.75"/><circle class="sym" cx="0" cy="0" r="3"/><text class="lab rgt" transform="translate(3 -7)">21</text></g><g class="a30 c2 node n28 p2" transform="translate(-51.75 6.10233)"><g class="a28 i14 leaf node n14 p2 sample" transform="translate(34.5 12.1265)"><path class="edge" d="M 0 0 V -12.1265 H -34.5"/><rect class="sym" height="6" width="6" x="-3" y="-3"/><text class="lab" transform="translate(0 11)">14</text></g><g class="a28 c2 node n25 p2" transform="translate(-34.5 4.90668)"><g class="a25 i0 leaf node n0 p1 sample" transform="translate(-23 7.21979)"><path class="edge" d="M 0 0 V -7.21979 H 23"/><rect class="sym" height="6" width="6" x="-3" y="-3"/><text class="lab" transform="translate(0 11)">0</text></g><g class="a25 i18 leaf node n18 p2 sample" transform="translate(23 7.21979)"><path class="edge" d="M 0 0 V -7.21979 H -23"/><rect class="sym" height="6" width="6" x="-3" y="-3"/><text class="lab" transform="translate(0 11)">18</text></g><path class="edge" d="M 0 0 V -4.90668 H 34.5"/><circle class="sym" cx="0" cy="0" r="3"/><text class="lab lft" transform="translate(-3 -7)">25</text></g><path class="edge" d="M 0 0 V -6.10233 H 51.75"/><circle class="sym" cx="0" cy="0" r="3"/><text class="lab lft" transform="translate(-3 -7)">28</text></g><path class="edge" d="M 0 0 V -1.85431 H 60.375"/><circle class="sym" cx="0" cy="0" r="3"/><text class="lab lft" transform="translate(-3 -7)">30</text></g><path class="edge" d="M 0 0 V -37.3887 H 79.0625"/><circle class="sym" cx="0" cy="0" r="3"/><text class="lab lft" transform="translate(-3 -7)">32</text></g><g class="a35 c2 node n34 p2" transform="translate(79.0625 17.6321)"><g class="a34 i1 leaf node n1 p1 sample" transform="translate(-51.75 39.8397)"><path class="edge" d="M 0 0 V -39.8397 H 51.75"/><rect class="sym" height="6" width="6" x="-3" y="-3"/><text class="lab" transform="translate(0 11)">1</text></g><g class="a34 c2 node n33 p2" transform="translate(51.75 3.33269)"><g class="a33 i11 leaf node n11 p2 sample" transform="translate(34.5 36.507)"><path class="edge" d="M 0 0 V -36.507 H -34.5"/><rect class="sym" height="6" width="6" x="-3" y="-3"/><text class="lab" transform="translate(0 11)">11</text></g><g class="a33 c2 m0 node n29 p2 s0" transform="translate(-34.5 18.5441)"><g class="a29 i8 leaf node n8 p1 sample" transform="translate(-23 17.963)"><path class="edge" d="M 0 0 V -17.963 H 23"/><rect class="sym" height="6" width="6" x="-3" y="-3"/><text class="lab" transform="translate(0 11)">8</text></g><g class="a29 i15 leaf node n15 p2 sample" transform="translate(23 17.963)"><path class="edge" d="M 0 0 V -17.963 H -23"/><rect class="sym" height="6" width="6" x="-3" y="-3"/><text class="lab" transform="translate(0 11)">15</text></g><path class="edge" d="M 0 0 V -18.5441 H 34.5"/><g class="mut m0 s0" transform="translate(0 -15.8355)"><line x1="0" x2="0" y1="0" y2="15.8355"/><path class="sym" d="M -3,-3 l 6,6 M -3,3 l 6,-6"/><text class="lab lft" transform="translate(-5 0)">0</text></g><circle class="sym" cx="0" cy="0" r="3"/><text class="lab lft" transform="translate(-3 -7)">29</text></g><path class="edge" d="M 0 0 V -3.33269 H -51.75"/><circle class="sym" cx="0" cy="0" r="3"/><text class="lab rgt" transform="translate(3 -7)">33</text></g><path class="edge" d="M 0 0 V -17.6321 H -79.0625"/><circle class="sym" cx="0" cy="0" r="3"/><text class="lab rgt" transform="translate(3 -7)">34</text></g><path class="edge" d="M 0 0 V -6.96307 H 134.406"/><circle class="sym" cx="0" cy="0" r="3"/><text class="lab lft" transform="translate(-3 -7)">35</text></g><path class="edge" d="M 0 0 V -11.6067 H 133.328"/><circle class="sym" cx="0" cy="0" r="3"/><text class="lab lft" transform="translate(-3 -7)">36</text></g><path class="edge" d="M 0 0 V -218.558 H 150.039"/><g class="mut m2 s2" transform="translate(0 -3.83698)"><line x1="0" x2="0" y1="0" y2="3.83698"/><path class="sym" d="M -3,-3 l 6,6 M -3,3 l 6,-6"/><text class="lab lft" transform="translate(-5 0)">2</text></g><circle class="sym" cx="0" cy="0" r="3"/><text class="lab lft" transform="translate(-3 -7)">37</text></g><circle class="sym" cx="0" cy="0" r="3"/><text class="lab" transform="translate(0 -11)">38</text></g></g></g></g></g></svg>