<svg baseProfile="full" height="400" version="1.1" width="1000" xmlns="http://www.w3.org/2000/svg" xmlns:ev="http://www.w3.org/2001/xml-events" xmlns:xlink="http://www.w3.org/1999/xlink"><defs><style type="text/css"><![CDATA[.background path {fill: #808080; fill-opacity: 0}.background path:nth-child(odd) {fill-opacity: .1}.x-regions rect {fill: yellow; stroke: black; opacity: 0.5}.axes {font-size: 14px}.x-axis .tick .lab {font-weight: bold; dominant-baseline: hanging}.axes, .tree {font-size: 14px; text-anchor: middle}.axes line, .edge {stroke: black; fill: none}.axes .ax-skip {stroke-dasharray: 4}.y-axis .grid {stroke: #FAFAFA}.node > .sym {fill: black; stroke: none}.site > .sym {stroke: black}.mut text {fill: red; font-style: italic}.mut.extra text {fill: hotpink}.mut line {fill: none; stroke: none}.mut .sym {fill: none; stroke: red}.mut.extra .sym {stroke: hotpink}.node .mut .sym {stroke-width: 1.5px}.tree text, .tree-sequence text {dominant-baseline: central}.plotbox .lab.lft {text-anchor: end}.plotbox .lab.rgt {text-anchor: start}.polytomy line {stroke: black; stroke-dasharray: 1px, 1px}.polytomy text {paint-order:stroke;stroke-width:0.3em;stroke:white}]]></style></defs><g class="tree-sequence"><g class="background"><path d="M20,0 l960,0 l0,338.2 l0,25 l0,5 l-960,0 l0,-5 l0,-25 l0,-338.2z"/></g><g class="axes"><g class="x-axis"><g class="title" transform="translate(500 400)"><text class="lab" text-anchor="middle" transform="translate(0 -11)">Genome position</text></g><line class="ax-line" x1="20" x2="980" y1="363.2" y2="363.2"/><g class="ticks"><g class="tick" transform="translate(20 363.2)"><line x1="0" x2="0" y1="0" y2="5"/><g transform="translate(0 6)"><text class="lab">0</text></g></g><g class="tick" transform="translate(980 363.2)"><line x1="0" x2="0" y1="0" y2="5"/><g transform="translate(0 6)"><text class="lab">1000</text></g></g></g><g class="site s0" transform="translate(267.68 363.2)"><line class="sym" x1="0" x2="0" y1="0" y2="-10"/><g class="mut m0"><polyline class="sym" points="2.5,-6.5 0,-1.5 -2.5,-6.5"/></g></g><g class="site s1" transform="translate(834.08 363.2)"><line class="sym" x1="0" x2="0" y1="0" y2="-10"/><g class="mut m1"><polyline class="sym" points="2.5,-6.5 0,-1.5 -2.5,-6.5"/></g></g></g></g><g class="plotbox trees"><g class="tree t0" transform="translate(20 0)"><g class="plotbox"><g class="c2 node n38 p1 root" transform="translate(575.773 26.8)"><g class="a38 c2 node n36 p1" transform="translate(-230.539 190.487)"><g class="a36 c2 node n31 p1" transform="translate(71.5156 59.761)"><g class="a31 i1 leaf node n1 p1 sample" transform="translate(-51.75 44.3518)"><path class="edge" d="M 0 0 V -44.3518 H 51.75"/><rect class="sym" height="6" width="6" x="-3" y="-3"/><text class="lab" transform="translate(0 11)">1</text></g><g class="a31 c2 node n23 p2" transform="translate(51.75 33.827)"><g class="a23 i6 leaf node n6 p1 sample" transform="translate(34.5 10.5247)"><path class="edge" d="M 0 0 V -10.5247 H -34.5"/><rect class="sym" height="6" width="6" x="-3" y="-3"/><text class="lab" transform="translate(0 11)">6</text></g><g class="a23 c2 node n21 p2" transform="translate(-34.5 4.97212)"><g class="a21 i3 leaf node n3 p1 sample" transform="translate(-23 5.55261)"><path class="edge" d="M 0 0 V -5.55261 H 23"/><rect class="sym" height="6" width="6" x="-3" y="-3"/><text class="lab" transform="translate(0 11)">3</text></g><g class="a21 i13 leaf node n13 p2 sample" transform="translate(23 5.55261)"><path class="edge" d="M 0 0 V -5.55261 H -23"/><rect class="sym" height="6" width="6" x="-3" y="-3"/><text class="lab" transform="translate(0 11)">13</text></g><path class="edge" d="M 0 0 V -4.97212 H 34.5"/><circle class="sym" cx="0" cy="0" r="3"/><text class="lab lft" transform="translate(-3 -7)">21</text></g><path class="edge" d="M 0 0 V -33.827 H -51.75"/><circle class="sym" cx="0" cy="0" r="3"/><text class="lab rgt" transform="translate(3 -7)">23</text></g><path class="edge" d="M 0 0 V -59.761 H -71.5156"/><circle class="sym" cx="0" cy="0" r="3"/><text class="lab rgt" transform="translate(3 -7)">31</text></g><g class="a36 c2 node n33 p1" transform="translate(-71.5156 40.2304)"><g class="a33 i18 leaf node n18 p2 sample" transform="translate(45.2812 63.8823)"><path class="edge" d="M 0 0 V -63.8823 H -45.2812"/><rect class="sym" height="6" width="6" x="-3" y="-3"/><text class="lab" transform="translate(0 11)">18</text></g><g class="a33 c2 node n32 p1" transform="translate(-45.2812 11.6875)"><g class="a32 i5 leaf node n5 p1 sample" transform="translate(44.5625 52.1948)"><path class="edge" d="M 0 0 V -52.1948 H -44.5625"/><rect class="sym" height="6" width="6" x="-3" y="-3"/><text class="lab" transform="translate(0 11)">5</text></g><g class="a32 c2 node n28 p1" transform="translate(-44.5625 29.5102)"><g class="a28 i16 leaf node n16 p2 sample" transform="translate(43.125 22.6846)"><path class="edge" d="M 0 0 V -22.6846 H -43.125"/><rect class="sym" height="6" width="6" x="-3" y="-3"/><text class="lab" transform="translate(0 11)">16</text></g><g class="a28 c2 node n27 p1" transform="translate(-43.125 1.58376)"><g class="a27 i11 leaf node n11 p2 sample" transform="translate(40.25 21.1009)"><path class="edge" d="M 0 0 V -21.1009 H -40.25"/><rect class="sym" height="6" width="6" x="-3" y="-3"/><text class="lab" transform="translate(0 11)">11</text></g><g class="a27 c2 node n24 p1" transform="translate(-40.25 4.63154)"><g class="a24 i2 leaf node n2 p1 sample" transform="translate(34.5 16.4693)"><path class="edge" d="M 0 0 V -16.4693 H -34.5"/><rect class="sym" height="6" width="6" x="-3" y="-3"/><text class="lab" transform="translate(0 11)">2</text></g><g class="a24 c2 node n22 p2" transform="translate(-34.5 7.61795)"><g class="a22 i0 leaf node n0 p1 sample" transform="translate(-23 8.85137)"><path class="edge" d="M 0 0 V -8.85137 H 23"/><rect class="sym" height="6" width="6" x="-3" y="-3"/><text class="lab" transform="translate(0 11)">0</text></g><g class="a22 i4 leaf node n4 p1 sample" transform="translate(23 8.85137)"><path class="edge" d="M 0 0 V -8.85137 H -23"/><rect class="sym" height="6" width="6" x="-3" y="-3"/><text class="lab" transform="translate(0 11)">4</text></g><path class="edge" d="M 0 0 V -7.61795 H 34.5"/><circle class="sym" cx="0" cy="0" r="3"/><text class="lab lft" transform="translate(-3 -7)">22</text></g><path class="edge" d="M 0 0 V -4.63154 H 40.25"/><circle class="sym" cx="0" cy="0" r="3"/><text class="lab lft" transform="translate(-3 -7)">24</text></g><path class="edge" d="M 0 0 V -1.58376 H 43.125"/><circle class="sym" cx="0" cy="0" r="3"/><text class="lab lft" transform="translate(-3 -7)">27</text></g><path class="edge" d="M 0 0 V -29.5102 H 44.5625"/><circle class="sym" cx="0" cy="0" r="3"/><text class="lab lft" transform="translate(-3 -7)">28</text></g><path class="edge" d="M 0 0 V -11.6875 H 45.2812"/><circle class="sym" cx="0" cy="0" r="3"/><text class="lab lft" transform="translate(-3 -7)">32</text></g><path class="edge" d="M 0 0 V -40.2304 H 71.5156"/><circle class="sym" cx="0" cy="0" r="3"/><text class="lab lft" transform="translate(-3 -7)">33</text></g><path class="edge" d="M 0 0 V -190.487 H 230.539"/><circle class="sym" cx="0" cy="0" r="3"/><text class="lab lft" transform="translate(-3 -7)">36</text></g><g class="a38 c2 node n37 p1" transform="translate(230.539 41.241)"><g class="a37 c2 node n34 p2" transform="translate(87.6875 173.973)"><g class="a34 i9 leaf m0 node n9 p1 s0 sample" transform="translate(-23 79.3857)"><path class="edge" d="M 0 0 V -79.3857 H 23"/><g class="mut m0 s0" transform="translate(0 -1.79415)"><line x1="0" x2="0" y1="0" y2="1.79415"/><path class="sym" d="M -3,-3 l 6,6 M -3,3 l 6,-6"/><text class="lab lft" transform="translate(-5 0)">0</text></g><rect class="sym" height="6" width="6" x="-3" y="-3"/><text class="lab" transform="translate(0 11)">9</text></g><g class="a34 i14 leaf node n14 p2 sample" transform="translate(23 79.3857)"><path class="edge" d="M 0 0 V -79.3857 H -23"/><rect class="sym" height="6" width="6" x="-3" y="-3"/><text class="lab" transform="translate(0 11)">14</text></g><path class="edge" d="M 0 0 V -173.973 H -87.6875"/><circle class="sym" cx="0" cy="0" r="3"/><text class="lab rgt" transform="translate(3 -7)">34</text></g><g class="a37 c2 m1 node n35 p1 s1" transform="translate(-87.6875 150.742)"><g class="a35 c2 node n26 p1" transform="translate(83.375 85.05)"><g class="a26 i17 leaf node n17 p2 sample" transform="translate(-23 17.5666)"><path class="edge" d="M 0 0 V -17.5666 H 23"/><rect class="sym" height="6" width="6" x="-3" y="-3"/><text class="lab" transform="translate(0 11)">17</text></g><g class="a26 i19 leaf node n19 p2 sample" transform="translate(23 17.5666)"><path class="edge" d="M 0 0 V -17.5666 H -23"/><rect class="sym" height="6" width="6" x="-3" y="-3"/><text class="lab" transform="translate(0 11)">19</text></g><path class="edge" d="M 0 0 V -85.05 H -83.375"/><circle class="sym" cx="0" cy="0" r="3"/><text class="lab rgt" transform="translate(3 -7)">26</text></g><g class="a35 c2 node n30 p2" transform="translate(-83.375 64.3035)"><g class="a30 c2 node n20 p2" transform="translate(-63.25 36.7022)"><g class="a20 i7 leaf node n7 p1 sample" transform="translate(-23 1.61098)"><path class="edge" d="M 0 0 V -1.61098 H 23"/><rect class="sym" height="6" width="6" x="-3" y="-3"/><text class="lab" transform="translate(0 11)">7</text></g><g class="a20 i8 leaf node n8 p1 sample" transform="translate(23 1.61098)"><path class="edge" d="M 0 0 V -1.61098 H -23"/><rect class="sym" height="6" width="6" x="-3" y="-3"/><text class="lab" transform="translate(0 11)">8</text></g><path class="edge" d="M 0 0 V -36.7022 H 63.25"/><circle class="sym" cx="0" cy="0" r="3"/><text class="lab lft" transform="translate(-3 -7)">20</text></g><g class="a30 c2 node n29 p2" transform="translate(63.25 14.0184)"><g class="a29 i15 leaf node n15 p2 sample" transform="translate(34.5 24.2948)"><path class="edge" d="M 0 0 V -24.2948 H -34.5"/><rect class="sym" height="6" width="6" x="-3" y="-3"/><text class="lab" transform="translate(0 11)">15</text></g><g class="a29 c2 node n25 p2" transform="translate(-34.5 6.97917)"><g class="a25 i10 leaf node n10 p2 sample" transform="translate(-23 17.3156)"><path class="edge" d="M 0 0 V -17.3156 H 23"/><rect class="sym" height="6" width="6" x="-3" y="-3"/><text class="lab" transform="translate(0 11)">10</text></g><g class="a25 i12 leaf node n12 p2 sample" transform="translate(23 17.3156)"><path class="edge" d="M 0 0 V -17.3156 H -23"/><rect class="sym" height="6" width="6" x="-3" y="-3"/><text class="lab" transform="translate(0 11)">12</text></g><path class="edge" d="M 0 0 V -6.97917 H 34.5"/><circle class="sym" cx="0" cy="0" r="3"/><text class="lab lft" transform="translate(-3 -7)">25</text></g><path class="edge" d="M 0 0 V -14.0184 H -63.25"/><circle class="sym" cx="0" cy="0" r="3"/><text class="lab rgt" transform="translate(3 -7)">29</text></g><path class="edge" d="M 0 0 V -64.3035 H 83.375"/><circle class="sym" cx="0" cy="0" r="3"/><text class="lab lft" transform="translate(-3 -7)">30</text></g><path class="edge" d="M 0 0 V -150.742 H 87.6875"/><g class="mut m1 s1" transform="translate(0 -31.3432)"><line x1="0" x2="0" y1="0" y2="31.3432"/><path class="sym" d="M -3,-3 l 6,6 M -3,3 l 6,-6"/><text class="lab lft" transform="translate(-5 0)">1</text></g><circle class="sym" cx="0" cy="0" r="3"/><text class="lab lft" transform="translate(-3 -7)">35</text></g><path class="edge" d="M 0 0 V -41.241 H -230.539"/><circle class="sym" cx="0" cy="0" r="3"/><text class="lab rgt" transform="translate(3 -7)">37</text></g><circle class="sym" cx="0" cy="0" r="3"/><text class="lab" transform="translate(0 -11)">38</text></g></g></g></g></g></svg>