<svg baseProfile="full" height="400" version="1.1" width="1000" xmlns="http://www.w3.org/2000/svg" xmlns:ev="http://www.w3.org/2001/xml-events" xmlns:xlink="http://www.w3.org/1999/xlink"><defs><style type="text/css"><![CDATA[.background path {fill: #808080; fill-opacity: 0}.background path:nth-child(odd) {fill-opacity: .1}.x-regions rect {fill: yellow; stroke: black; opacity: 0.5}.axes {font-size: 14px}.x-axis .tick .lab {font-weight: bold; dominant-baseline: hanging}.axes, .tree {font-size: 14px; text-anchor: middle}.axes line, .edge {stroke: black; fill: none}.axes .ax-skip {stroke-dasharray: 4}.y-axis .grid {stroke: #FAFAFA}.node > .sym {fill: black; stroke: none}.site > .sym {stroke: black}.mut text {fill: red; font-style: italic}.mut.extra text {fill: hotpink}.mut line {fill: none; stroke: none}.mut .sym {fill: none; stroke: red}.mut.extra .sym {stroke: hotpink}.node .mut .sym {stroke-width: 1.5px}.tree text, .tree-sequence text {dominant-baseline: central}.plotbox .lab.lft {text-anchor: end}.plotbox .lab.rgt {text-anchor: start}.polytomy line {stroke: black; stroke-dasharray: 1px, 1px}.polytomy text {paint-order:stroke;stroke-width:0.3em;stroke:white}]]></style></defs><g class="tree-sequence"><g class="background"><path d="M20,0 l960,0 l0,338.2 l0,25 l0,5 l-960,0 l0,-5 l0,-25 l0,-338.2z"/></g><g class="axes"><g class="x-axis"><g class="title" transform="translate(500 400)"><text class="lab" text-anchor="middle" transform="translate(0 -11)">Genome position</text></g><line class="ax-line" x1="20" x2="980" y1="363.2" y2="363.2"/><g class="ticks"><g class="tick" transform="translate(20 363.2)"><line x1="0" x2="0" y1="0" y2="5"/><g transform="translate(0 6)"><text class="lab">0</text></g></g><g class="tick" transform="translate(980 363.2)"><line x1="0" x2="0" y1="0" y2="5"/><g transform="translate(0 6)"><text class="lab">1000</text></g></g></g><g class="site s0" transform="translate(541.28 363.2)"><line class="sym" x1="0" x2="0" y1="0" y2="-10"/><g class="mut m0"><polyline class="sym" points="2.5,-6.5 0,-1.5 -2.5,-6.5"/></g></g><g class="site s1" transform="translate(781.28 363.2)"><line class="sym" x1="0" x2="0" y1="0" y2="-10"/><g class="mut m1"><polyline class="sym" points="2.5,-6.5 0,-1.5 -2.5,-6.5"/></g></g></g></g><g class="plotbox trees"><g class="tree t0" transform="translate(20 0)"><g class="plotbox"><g class="c2 node n38 p0 root" transform="translate(716.738 26.8)"><g class="a38 i3 leaf node n3 p1 sample" transform="translate(200.262 294.6)"><path class="edge" d="M 0 0 V -294.6 H -200.262"/><rect class="sym" height="6" width="6" x="-3" y="-3"/><text class="lab" transform="translate(0 11)">3</text></g><g class="a38 c2 node n37 p0" transform="translate(-200.262 117.48)"><g class="a37 c2 node n34 p0" transform="translate(-263.602 51.4241)"><g class="a34 i4 leaf node n4 p1 sample" transform="translate(66.125 125.696)"><path class="edge" d="M 0 0 V -125.696 H -66.125"/><rect class="sym" height="6" width="6" x="-3" y="-3"/><text class="lab" transform="translate(0 11)">4</text></g><g class="a34 c2 node n29 p2" transform="translate(-66.125 64.0979)"><g class="a29 i12 leaf node n12 p2 sample" transform="translate(86.25 61.5984)"><path class="edge" d="M 0 0 V -61.5984 H -86.25"/><rect class="sym" height="6" width="6" x="-3" y="-3"/><text class="lab" transform="translate(0 11)">12</text></g><g class="a29 c2 node n27 p2" transform="translate(-86.25 16.3339)"><g class="a27 i0 leaf node n0 p1 sample" transform="translate(-57.5 45.2645)"><path class="edge" d="M 0 0 V -45.2645 H 57.5"/><rect class="sym" height="6" width="6" x="-3" y="-3"/><text class="lab" transform="translate(0 11)">0</text></g><g class="a27 c2 node n23 p2" transform="translate(57.5 29.8696)"><g class="a23 c2 node n20 p1" transform="translate(-46 8.97874)"><g class="a20 i2 leaf node n2 p1 sample" transform="translate(-23 6.41616)"><path class="edge" d="M 0 0 V -6.41616 H 23"/><rect class="sym" height="6" width="6" x="-3" y="-3"/><text class="lab" transform="translate(0 11)">2</text></g><g class="a20 i16 leaf node n16 p2 sample" transform="translate(23 6.41616)"><path class="edge" d="M 0 0 V -6.41616 H -23"/><rect class="sym" height="6" width="6" x="-3" y="-3"/><text class="lab" transform="translate(0 11)">16</text></g><path class="edge" d="M 0 0 V -8.97874 H 46"/><circle class="sym" cx="0" cy="0" r="3"/><text class="lab lft" transform="translate(-3 -7)">20</text></g><g class="a23 c2 node n21 p2" transform="translate(46 4.21689)"><g class="a21 i5 leaf node n5 p1 sample" transform="translate(-23 11.178)"><path class="edge" d="M 0 0 V -11.178 H 23"/><rect class="sym" height="6" width="6" x="-3" y="-3"/><text class="lab" transform="translate(0 11)">5</text></g><g class="a21 i11 leaf node n11 p2 sample" transform="translate(23 11.178)"><path class="edge" d="M 0 0 V -11.178 H -23"/><rect class="sym" height="6" width="6" x="-3" y="-3"/><text class="lab" transform="translate(0 11)">11</text></g><path class="edge" d="M 0 0 V -4.21689 H -46"/><circle class="sym" cx="0" cy="0" r="3"/><text class="lab rgt" transform="translate(3 -7)">21</text></g><path class="edge" d="M 0 0 V -29.8696 H -57.5"/><circle class="sym" cx="0" cy="0" r="3"/><text class="lab rgt" transform="translate(3 -7)">23</text></g><path class="edge" d="M 0 0 V -16.3339 H 86.25"/><circle class="sym" cx="0" cy="0" r="3"/><text class="lab lft" transform="translate(-3 -7)">27</text></g><path class="edge" d="M 0 0 V -64.0979 H 66.125"/><circle class="sym" cx="0" cy="0" r="3"/><text class="lab lft" transform="translate(-3 -7)">29</text></g><path class="edge" d="M 0 0 V -51.4241 H 263.602"/><circle class="sym" cx="0" cy="0" r="3"/><text class="lab lft" transform="translate(-3 -7)">34</text></g><g class="a37 c2 node n36 p0" transform="translate(263.602 16.6525)"><g class="a36 i8 leaf node n8 p1 sample" transform="translate(90.9219 160.468)"><path class="edge" d="M 0 0 V -160.468 H -90.9219"/><rect class="sym" height="6" width="6" x="-3" y="-3"/><text class="lab" transform="translate(0 11)">8</text></g><g class="a36 c2 node n35 p0" transform="translate(-90.9219 1.55069)"><g class="a35 c2 m1 node n26 p2 s1" transform="translate(78.3438 122.564)"><g class="a26 i6 leaf node n6 p1 sample" transform="translate(-34.5 36.3529)"><path class="edge" d="M 0 0 V -36.3529 H 34.5"/><rect class="sym" height="6" width="6" x="-3" y="-3"/><text class="lab" transform="translate(0 11)">6</text></g><g class="a26 c2 node n22 p1" transform="translate(34.5 24.8875)"><g class="a22 i15 leaf node n15 p2 sample" transform="translate(-23 11.4654)"><path class="edge" d="M 0 0 V -11.4654 H 23"/><rect class="sym" height="6" width="6" x="-3" y="-3"/><text class="lab" transform="translate(0 11)">15</text></g><g class="a22 i17 leaf node n17 p2 sample" transform="translate(23 11.4654)"><path class="edge" d="M 0 0 V -11.4654 H -23"/><rect class="sym" height="6" width="6" x="-3" y="-3"/><text class="lab" transform="translate(0 11)">17</text></g><path class="edge" d="M 0 0 V -24.8875 H -34.5"/><circle class="sym" cx="0" cy="0" r="3"/><text class="lab rgt" transform="translate(3 -7)">22</text></g><path class="edge" d="M 0 0 V -122.564 H -78.3438"/><g class="mut m1 s1" transform="translate(0 -68.2838)"><line x1="0" x2="0" y1="0" y2="68.2838"/><path class="sym" d="M -3,-3 l 6,6 M -3,3 l 6,-6"/><text class="lab rgt" transform="translate(5 0)">1</text></g><circle class="sym" cx="0" cy="0" r="3"/><text class="lab rgt" transform="translate(3 -7)">26</text></g><g class="a35 c2 node n33 p0" transform="translate(-78.3438 34.3333)"><g class="a33 i19 leaf node n19 p2 sample" transform="translate(76.1875 124.584)"><path class="edge" d="M 0 0 V -124.584 H -76.1875"/><rect class="sym" height="6" width="6" x="-3" y="-3"/><text class="lab" transform="translate(0 11)">19</text></g><g class="a33 c2 node n32 p0" transform="translate(-76.1875 7.79886)"><g class="a32 c2 m0 node n25 p1 s0" transform="translate(83.375 90.3446)"><g class="a25 i10 leaf node n10 p2 sample" transform="translate(-23 26.4404)"><path class="edge" d="M 0 0 V -26.4404 H 23"/><rect class="sym" height="6" width="6" x="-3" y="-3"/><text class="lab" transform="translate(0 11)">10</text></g><g class="a25 i13 leaf node n13 p2 sample" transform="translate(23 26.4404)"><path class="edge" d="M 0 0 V -26.4404 H -23"/><rect class="sym" height="6" width="6" x="-3" y="-3"/><text class="lab" transform="translate(0 11)">13</text></g><path class="edge" d="M 0 0 V -90.3446 H -83.375"/><g class="mut m0 s0" transform="translate(0 -21.4944)"><line x1="0" x2="0" y1="0" y2="21.4944"/><path class="sym" d="M -3,-3 l 6,6 M -3,3 l 6,-6"/><text class="lab rgt" transform="translate(5 0)">0</text></g><circle class="sym" cx="0" cy="0" r="3"/><text class="lab rgt" transform="translate(3 -7)">25</text></g><g class="a32 c2 node n31 p2" transform="translate(-83.375 13.6642)"><g class="a31 c2 node n28 p1" transform="translate(63.25 44.9998)"><g class="a28 i14 leaf node n14 p2 sample" transform="translate(34.5 58.121)"><path class="edge" d="M 0 0 V -58.121 H -34.5"/><rect class="sym" height="6" width="6" x="-3" y="-3"/><text class="lab" transform="translate(0 11)">14</text></g><g class="a28 c2 node n24 p1" transform="translate(-34.5 41.2943)"><g class="a24 i7 leaf node n7 p1 sample" transform="translate(-23 16.8268)"><path class="edge" d="M 0 0 V -16.8268 H 23"/><rect class="sym" height="6" width="6" x="-3" y="-3"/><text class="lab" transform="translate(0 11)">7</text></g><g class="a24 i9 leaf node n9 p1 sample" transform="translate(23 16.8268)"><path class="edge" d="M 0 0 V -16.8268 H -23"/><rect class="sym" height="6" width="6" x="-3" y="-3"/><text class="lab" transform="translate(0 11)">9</text></g><path class="edge" d="M 0 0 V -41.2943 H 34.5"/><circle class="sym" cx="0" cy="0" r="3"/><text class="lab lft" transform="translate(-3 -7)">24</text></g><path class="edge" d="M 0 0 V -44.9998 H -63.25"/><circle class="sym" cx="0" cy="0" r="3"/><text class="lab rgt" transform="translate(3 -7)">28</text></g><g class="a31 c2 node n30 p1" transform="translate(-63.25 13.3757)"><g class="a30 i1 leaf node n1 p1 sample" transform="translate(-23 89.7452)"><path class="edge" d="M 0 0 V -89.7452 H 23"/><rect class="sym" height="6" width="6" x="-3" y="-3"/><text class="lab" transform="translate(0 11)">1</text></g><g class="a30 i18 leaf node n18 p2 sample" transform="translate(23 89.7452)"><path class="edge" d="M 0 0 V -89.7452 H -23"/><rect class="sym" height="6" width="6" x="-3" y="-3"/><text class="lab" transform="translate(0 11)">18</text></g><path class="edge" d="M 0 0 V -13.3757 H 63.25"/><circle class="sym" cx="0" cy="0" r="3"/><text class="lab lft" transform="translate(-3 -7)">30</text></g><path class="edge" d="M 0 0 V -13.6642 H 83.375"/><circle class="sym" cx="0" cy="0" r="3"/><text class="lab lft" transform="translate(-3 -7)">31</text></g><path class="edge" d="M 0 0 V -7.79886 H 76.1875"/><circle class="sym" cx="0" cy="0" r="3"/><text class="lab lft" transform="translate(-3 -7)">32</text></g><path class="edge" d="M 0 0 V -34.3333 H 78.3438"/><circle class="sym" cx="0" cy="0" r="3"/><text class="lab lft" transform="translate(-3 -7)">33</text></g><path class="edge" d="M 0 0 V -1.55069 H 90.9219"/><circle class="sym" cx="0" cy="0" r="3"/><text class="lab lft" transform="translate(-3 -7)">35</text></g><path class="edge" d="M 0 0 V -16.6525 H -263.602"/><circle class="sym" cx="0" cy="0" r="3"/><text class="lab rgt" transform="translate(3 -7)">36</text></g><path class="edge" d="M 0 0 V -117.48 H 200.262"/><circle class="sym" cx="0" cy="0" r="3"/><text class="lab lft" transform="translate(-3 -7)">37</text></g><circle class="sym" cx="0" cy="0" r="3"/><text class="lab" transform="translate(0 -11)">38</text></g></g></g></g></g></svg>