<svg baseProfile="full" height="400" version="1.1" width="1000" xmlns="http://www.w3.org/2000/svg" xmlns:ev="http://www.w3.org/2001/xml-events" xmlns:xlink="http://www.w3.org/1999/xlink"><defs><style type="text/css"><![CDATA[.background path {fill: #808080; fill-opacity: 0}.background path:nth-child(odd) {fill-opacity: .1}.x-regions rect {fill: yellow; stroke: black; opacity: 0.5}.axes {font-size: 14px}.x-axis .tick .lab {font-weight: bold; dominant-baseline: hanging}.axes, .tree {font-size: 14px; text-anchor: middle}.axes line, .edge {stroke: black; fill: none}.axes .ax-skip {stroke-dasharray: 4}.y-axis .grid {stroke: #FAFAFA}.node > .sym {fill: black; stroke: none}.site > .sym {stroke: black}.mut text {fill: red; font-style: italic}.mut.extra text {fill: hotpink}.mut line {fill: none; stroke: none}.mut .sym {fill: none; stroke: red}.mut.extra .sym {stroke: hotpink}.node .mut .sym {stroke-width: 1.5px}.tree text, .tree-sequence text {dominant-baseline: central}.plotbox .lab.lft {text-anchor: end}.plotbox .lab.rgt {text-anchor: start}.polytomy line {stroke: black; stroke-dasharray: 1px, 1px}.polytomy text {paint-order:stroke;stroke-width:0.3em;stroke:white}]]></style></defs><g class="tree-sequence"><g class="background"><path d="M20,0 l960,0 l0,338.2 l0,25 l0,5 l-960,0 l0,-5 l0,-25 l0,-338.2z"/></g><g class="axes"><g class="x-axis"><g class="title" transform="translate(500 400)"><text class="lab" text-anchor="middle" transform="translate(0 -11)">Genome position</text></g><line class="ax-line" x1="20" x2="980" y1="363.2" y2="363.2"/><g class="ticks"><g class="tick" transform="translate(20 363.2)"><line x1="0" x2="0" y1="0" y2="5"/><g transform="translate(0 6)"><text class="lab">0</text></g></g><g class="tick" transform="translate(980 363.2)"><line x1="0" x2="0" y1="0" y2="5"/><g transform="translate(0 6)"><text class="lab">1000</text></g></g></g><g class="site s0" transform="translate(570.08 363.2)"><line class="sym" x1="0" x2="0" y1="0" y2="-10"/><g class="mut m0"><polyline class="sym" points="2.5,-6.5 0,-1.5 -2.5,-6.5"/></g></g><g class="site s1" transform="translate(721.76 363.2)"><line class="sym" x1="0" x2="0" y1="0" y2="-10"/><g class="mut m1"><polyline class="sym" points="2.5,-6.5 0,-1.5 -2.5,-6.5"/></g></g><g class="site s2" transform="translate(768.8 363.2)"><line class="sym" x1="0" x2="0" y1="0" y2="-10"/><g class="mut m2"><polyline class="sym" points="2.5,-6.5 0,-1.5 -2.5,-6.5"/></g></g><g class="site s3" transform="translate(883.04 363.2)"><line class="sym" x1="0" x2="0" y1="0" y2="-10"/><g class="mut m3"><polyline class="sym" points="2.5,-6.5 0,-1.5 -2.5,-6.5"/></g></g></g></g><g class="plotbox trees"><g class="tree t0" transform="translate(20 0)"><g class="plotbox"><g class="c2 node n38 p1 root" transform="translate(467.062 26.8)"><g class="a38 c2 m3 node n33 p1 s3" transform="translate(-271.688 259.631)"><g class="a33 c2 node n28 p2" transform="translate(-129.375 7.36183)"><g class="a28 i0 leaf node n0 p1 sample" transform="translate(-23 27.6072)"><path class="edge" d="M 0 0 V -27.6072 H 23"/><rect class="sym" height="6" width="6" x="-3" y="-3"/><text class="lab" transform="translate(0 11)">0</text></g><g class="a28 i16 leaf node n16 p2 sample" transform="translate(23 27.6072)"><path class="edge" d="M 0 0 V -27.6072 H -23"/><rect class="sym" height="6" width="6" x="-3" y="-3"/><text class="lab" transform="translate(0 11)">16</text></g><path class="edge" d="M 0 0 V -7.36183 H 129.375"/><circle class="sym" cx="0" cy="0" r="3"/><text class="lab lft" transform="translate(-3 -7)">28</text></g><g class="a33 c2 node n30 p2" transform="translate(129.375 5.23268)"><g class="a30 c2 node n26 p1" transform="translate(-80.5 10.3062)"><g class="a26 c2 node n20 p1" transform="translate(51.75 15.5517)"><g class="a20 i7 leaf node n7 p1 sample" transform="translate(-23 3.87843)"><path class="edge" d="M 0 0 V -3.87843 H 23"/><rect class="sym" height="6" width="6" x="-3" y="-3"/><text class="lab" transform="translate(0 11)">7</text></g><g class="a20 i8 leaf node n8 p1 sample" transform="translate(23 3.87843)"><path class="edge" d="M 0 0 V -3.87843 H -23"/><rect class="sym" height="6" width="6" x="-3" y="-3"/><text class="lab" transform="translate(0 11)">8</text></g><path class="edge" d="M 0 0 V -15.5517 H -51.75"/><circle class="sym" cx="0" cy="0" r="3"/><text class="lab rgt" transform="translate(3 -7)">20</text></g><g class="a26 c2 node n25 p1" transform="translate(-51.75 0.840019)"><g class="a25 i14 leaf node n14 p2 sample" transform="translate(34.5 18.5901)"><path class="edge" d="M 0 0 V -18.5901 H -34.5"/><rect class="sym" height="6" width="6" x="-3" y="-3"/><text class="lab" transform="translate(0 11)">14</text></g><g class="a25 c2 node n23 p1" transform="translate(-34.5 7.92848)"><g class="a23 i2 leaf node n2 p1 sample" transform="translate(-23 10.6616)"><path class="edge" d="M 0 0 V -10.6616 H 23"/><rect class="sym" height="6" width="6" x="-3" y="-3"/><text class="lab" transform="translate(0 11)">2</text></g><g class="a23 i12 leaf node n12 p2 sample" transform="translate(23 10.6616)"><path class="edge" d="M 0 0 V -10.6616 H -23"/><rect class="sym" height="6" width="6" x="-3" y="-3"/><text class="lab" transform="translate(0 11)">12</text></g><path class="edge" d="M 0 0 V -7.92848 H 34.5"/><circle class="sym" cx="0" cy="0" r="3"/><text class="lab lft" transform="translate(-3 -7)">23</text></g><path class="edge" d="M 0 0 V -0.840019 H 51.75"/><circle class="sym" cx="0" cy="0" r="3"/><text class="lab lft" transform="translate(-3 -7)">25</text></g><path class="edge" d="M 0 0 V -10.3062 H 80.5"/><circle class="sym" cx="0" cy="0" r="3"/><text class="lab lft" transform="translate(-3 -7)">26</text></g><g class="a30 c2 node n29 p1" transform="translate(80.5 1.9402)"><g class="a29 i3 leaf node n3 p1 sample" transform="translate(-40.25 27.7961)"><path class="edge" d="M 0 0 V -27.7961 H 40.25"/><rect class="sym" height="6" width="6" x="-3" y="-3"/><text class="lab" transform="translate(0 11)">3</text></g><g class="a29 c2 node n22 p1" transform="translate(40.25 17.4272)"><g class="a22 i10 leaf node n10 p2 sample" transform="translate(-34.5 10.3689)"><path class="edge" d="M 0 0 V -10.3689 H 34.5"/><rect class="sym" height="6" width="6" x="-3" y="-3"/><text class="lab" transform="translate(0 11)">10</text></g><g class="a22 c2 node n21 p1" transform="translate(34.5 0.873021)"><g class="a21 i17 leaf node n17 p2 sample" transform="translate(-23 9.4959)"><path class="edge" d="M 0 0 V -9.4959 H 23"/><rect class="sym" height="6" width="6" x="-3" y="-3"/><text class="lab" transform="translate(0 11)">17</text></g><g class="a21 i18 leaf node n18 p2 sample" transform="translate(23 9.4959)"><path class="edge" d="M 0 0 V -9.4959 H -23"/><rect class="sym" height="6" width="6" x="-3" y="-3"/><text class="lab" transform="translate(0 11)">18</text></g><path class="edge" d="M 0 0 V -0.873021 H -34.5"/><circle class="sym" cx="0" cy="0" r="3"/><text class="lab rgt" transform="translate(3 -7)">21</text></g><path class="edge" d="M 0 0 V -17.4272 H -40.25"/><circle class="sym" cx="0" cy="0" r="3"/><text class="lab rgt" transform="translate(3 -7)">22</text></g><path class="edge" d="M 0 0 V -1.9402 H -80.5"/><circle class="sym" cx="0" cy="0" r="3"/><text class="lab rgt" transform="translate(3 -7)">29</text></g><path class="edge" d="M 0 0 V -5.23268 H -129.375"/><circle class="sym" cx="0" cy="0" r="3"/><text class="lab rgt" transform="translate(3 -7)">30</text></g><path class="edge" d="M 0 0 V -259.631 H 271.688"/><g class="mut m3 s3" transform="translate(0 -11.5292)"><line x1="0" x2="0" y1="0" y2="11.5292"/><path class="sym" d="M -3,-3 l 6,6 M -3,3 l 6,-6"/><text class="lab lft" transform="translate(-5 0)">3</text></g><circle class="sym" cx="0" cy="0" r="3"/><text class="lab lft" transform="translate(-3 -7)">33</text></g><g class="a38 c2 m0 node n37 p2 s0" transform="translate(271.688 55.1449)"><g class="a37 c2 m2 node n31 p2 s2" transform="translate(-103.5 209.242)"><g class="a31 i15 leaf node n15 p2 sample" transform="translate(51.75 30.2131)"><path class="edge" d="M 0 0 V -30.2131 H -51.75"/><rect class="sym" height="6" width="6" x="-3" y="-3"/><text class="lab" transform="translate(0 11)">15</text></g><g class="a31 c2 node n27 p1" transform="translate(-51.75 4.19437)"><g class="a27 i1 leaf node n1 p1 sample" transform="translate(-34.5 26.0187)"><path class="edge" d="M 0 0 V -26.0187 H 34.5"/><rect class="sym" height="6" width="6" x="-3" y="-3"/><text class="lab" transform="translate(0 11)">1</text></g><g class="a27 c2 node n24 p2" transform="translate(34.5 12.6765)"><g class="a24 i5 leaf node n5 p1 sample" transform="translate(-23 13.3422)"><path class="edge" d="M 0 0 V -13.3422 H 23"/><rect class="sym" height="6" width="6" x="-3" y="-3"/><text class="lab" transform="translate(0 11)">5</text></g><g class="a24 i11 leaf node n11 p2 sample" transform="translate(23 13.3422)"><path class="edge" d="M 0 0 V -13.3422 H -23"/><rect class="sym" height="6" width="6" x="-3" y="-3"/><text class="lab" transform="translate(0 11)">11</text></g><path class="edge" d="M 0 0 V -12.6765 H -34.5"/><circle class="sym" cx="0" cy="0" r="3"/><text class="lab rgt" transform="translate(3 -7)">24</text></g><path class="edge" d="M 0 0 V -4.19437 H 51.75"/><circle class="sym" cx="0" cy="0" r="3"/><text class="lab lft" transform="translate(-3 -7)">27</text></g><path class="edge" d="M 0 0 V -209.242 H 103.5"/><g class="mut m2 s2" transform="translate(0 -192.381)"><line x1="0" x2="0" y1="0" y2="192.381"/><path class="sym" d="M -3,-3 l 6,6 M -3,3 l 6,-6"/><text class="lab lft" transform="translate(-5 0)">2</text></g><circle class="sym" cx="0" cy="0" r="3"/><text class="lab lft" transform="translate(-3 -7)">31</text></g><g class="a37 c2 node n36 p2" transform="translate(103.5 101.436)"><g class="a36 c2 node n34 p2" transform="translate(51.75 52.2648)"><g class="a34 i6 leaf node n6 p1 sample" transform="translate(-23 85.7542)"><path class="edge" d="M 0 0 V -85.7542 H 23"/><rect class="sym" height="6" width="6" x="-3" y="-3"/><text class="lab" transform="translate(0 11)">6</text></g><g class="a34 i13 leaf m1 node n13 p2 s1 sample" transform="translate(23 85.7542)"><path class="edge" d="M 0 0 V -85.7542 H -23"/><g class="mut m1 s1" transform="translate(0 -71.5554)"><line x1="0" x2="0" y1="0" y2="71.5554"/><path class="sym" d="M -3,-3 l 6,6 M -3,3 l 6,-6"/><text class="lab rgt" transform="translate(5 0)">1</text></g><rect class="sym" height="6" width="6" x="-3" y="-3"/><text class="lab" transform="translate(0 11)">13</text></g><path class="edge" d="M 0 0 V -52.2648 H -51.75"/><circle class="sym" cx="0" cy="0" r="3"/><text class="lab rgt" transform="translate(3 -7)">34</text></g><g class="a36 c2 node n35 p1" transform="translate(-51.75 40.3952)"><g class="a35 i19 leaf node n19 p2 sample" transform="translate(34.5 97.6239)"><path class="edge" d="M 0 0 V -97.6239 H -34.5"/><rect class="sym" height="6" width="6" x="-3" y="-3"/><text class="lab" transform="translate(0 11)">19</text></g><g class="a35 c2 node n32 p2" transform="translate(-34.5 66.3887)"><g class="a32 i4 leaf node n4 p1 sample" transform="translate(-23 31.2352)"><path class="edge" d="M 0 0 V -31.2352 H 23"/><rect class="sym" height="6" width="6" x="-3" y="-3"/><text class="lab" transform="translate(0 11)">4</text></g><g class="a32 i9 leaf node n9 p1 sample" transform="translate(23 31.2352)"><path class="edge" d="M 0 0 V -31.2352 H -23"/><rect class="sym" height="6" width="6" x="-3" y="-3"/><text class="lab" transform="translate(0 11)">9</text></g><path class="edge" d="M 0 0 V -66.3887 H 34.5"/><circle class="sym" cx="0" cy="0" r="3"/><text class="lab lft" transform="translate(-3 -7)">32</text></g><path class="edge" d="M 0 0 V -40.3952 H 51.75"/><circle class="sym" cx="0" cy="0" r="3"/><text class="lab lft" transform="translate(-3 -7)">35</text></g><path class="edge" d="M 0 0 V -101.436 H -103.5"/><circle class="sym" cx="0" cy="0" r="3"/><text class="lab rgt" transform="translate(3 -7)">36</text></g><path class="edge" d="M 0 0 V -55.1449 H -271.688"/><g class="mut m0 s0" transform="translate(0 -53.2208)"><line x1="0" x2="0" y1="0" y2="53.2208"/><path class="sym" d="M -3,-3 l 6,6 M -3,3 l 6,-6"/><text class="lab rgt" transform="translate(5 0)">0</text></g><circle class="sym" cx="0" cy="0" r="3"/><text class="lab rgt" transform="translate(3 -7)">37</text></g><circle class="sym" cx="0" cy="0" r="3"/><text class="lab" transform="translate(0 -11)">38</text></g></g></g></g></g></svg>