<svg baseProfile="full" height="400" version="1.1" width="1000" xmlns="http://www.w3.org/2000/svg" xmlns:ev="http://www.w3.org/2001/xml-events" xmlns:xlink="http://www.w3.org/1999/xlink"><defs><style type="text/css"><![CDATA[.background path {fill: #808080; fill-opacity: 0}.background path:nth-child(odd) {fill-opacity: .1}.x-regions rect {fill: yellow; stroke: black; opacity: 0.5}.axes {font-size: 14px}.x-axis .tick .lab {font-weight: bold; dominant-baseline: hanging}.axes, .tree {font-size: 14px; text-anchor: middle}.axes line, .edge {stroke: black; fill: none}.axes .ax-skip {stroke-dasharray: 4}.y-axis .grid {stroke: #FAFAFA}.node > .sym {fill: black; stroke: none}.site > .sym {stroke: black}.mut text {fill: red; font-style: italic}.mut.extra text {fill: hotpink}.mut line {fill: none; stroke: none}.mut .sym {fill: none; stroke: red}.mut.extra .sym {stroke: hotpink}.node .mut .sym {stroke-width: 1.5px}.tree text, .tree-sequence text {dominant-baseline: central}.plotbox .lab.lft {text-anchor: end}.plotbox .lab.rgt {text-anchor: start}.polytomy line {stroke: black; stroke-dasharray: 1px, 1px}.polytomy text {paint-order:stroke;stroke-width:0.3em;stroke:white}]]></style></defs><g class="tree-sequence"><g class="background"><path d="M20,0 l960,0 l0,338.2 l0,25 l0,5 l-960,0 l0,-5 l0,-25 l0,-338.2z"/></g><g class="axes"><g class="x-axis"><g class="title" transform="translate(500 400)"><text class="lab" text-anchor="middle" transform="translate(0 -11)">Genome position</text></g><line class="ax-line" x1="20" x2="980" y1="363.2" y2="363.2"/><g class="ticks"><g class="tick" transform="translate(20 363.2)"><line x1="0" x2="0" y1="0" y2="5"/><g transform="translate(0 6)"><text class="lab">0</text></g></g><g class="tick" transform="translate(980 363.2)"><line x1="0" x2="0" y1="0" y2="5"/><g transform="translate(0 6)"><text class="lab">1000</text></g></g></g><g class="site s0" transform="translate(655.52 363.2)"><line class="sym" x1="0" x2="0" y1="0" y2="-10"/><g class="mut m0"><polyline class="sym" points="2.5,-6.5 0,-1.5 -2.5,-6.5"/></g></g></g></g><g class="plotbox trees"><g class="tree t0" transform="translate(20 0)"><g class="plotbox"><g class="c2 node n38 p1 root" transform="translate(522.406 26.8)"><g class="a38 c2 m0 node n35 p1 s0" transform="translate(230.719 177.127)"><g class="a35 c2 node n33 p2" transform="translate(-123.625 49.0061)"><g class="a33 c2 node n28 p2" transform="translate(-69 27.7193)"><g class="a28 i6 leaf node n6 p1 sample" transform="translate(34.5 40.7479)"><path class="edge" d="M 0 0 V -40.7479 H -34.5"/><rect class="sym" height="6" width="6" x="-3" y="-3"/><text class="lab" transform="translate(0 11)">6</text></g><g class="a28 c2 node n26 p2" transform="translate(-34.5 15.7118)"><g class="a26 i1 leaf node n1 p1 sample" transform="translate(-23 25.0361)"><path class="edge" d="M 0 0 V -25.0361 H 23"/><rect class="sym" height="6" width="6" x="-3" y="-3"/><text class="lab" transform="translate(0 11)">1</text></g><g class="a26 i12 leaf node n12 p2 sample" transform="translate(23 25.0361)"><path class="edge" d="M 0 0 V -25.0361 H -23"/><rect class="sym" height="6" width="6" x="-3" y="-3"/><text class="lab" transform="translate(0 11)">12</text></g><path class="edge" d="M 0 0 V -15.7118 H 34.5"/><circle class="sym" cx="0" cy="0" r="3"/><text class="lab lft" transform="translate(-3 -7)">26</text></g><path class="edge" d="M 0 0 V -27.7193 H 69"/><circle class="sym" cx="0" cy="0" r="3"/><text class="lab lft" transform="translate(-3 -7)">28</text></g><g class="a33 c2 node n29 p1" transform="translate(69 25.0164)"><g class="a29 i4 leaf node n4 p1 sample" transform="translate(34.5 43.4508)"><path class="edge" d="M 0 0 V -43.4508 H -34.5"/><rect class="sym" height="6" width="6" x="-3" y="-3"/><text class="lab" transform="translate(0 11)">4</text></g><g class="a29 c2 node n25 p2" transform="translate(-34.5 20.5311)"><g class="a25 i2 leaf node n2 p1 sample" transform="translate(-23 22.9196)"><path class="edge" d="M 0 0 V -22.9196 H 23"/><rect class="sym" height="6" width="6" x="-3" y="-3"/><text class="lab" transform="translate(0 11)">2</text></g><g class="a25 i14 leaf node n14 p2 sample" transform="translate(23 22.9196)"><path class="edge" d="M 0 0 V -22.9196 H -23"/><rect class="sym" height="6" width="6" x="-3" y="-3"/><text class="lab" transform="translate(0 11)">14</text></g><path class="edge" d="M 0 0 V -20.5311 H 34.5"/><circle class="sym" cx="0" cy="0" r="3"/><text class="lab lft" transform="translate(-3 -7)">25</text></g><path class="edge" d="M 0 0 V -25.0164 H -69"/><circle class="sym" cx="0" cy="0" r="3"/><text class="lab rgt" transform="translate(3 -7)">29</text></g><path class="edge" d="M 0 0 V -49.0061 H 123.625"/><circle class="sym" cx="0" cy="0" r="3"/><text class="lab lft" transform="translate(-3 -7)">33</text></g><g class="a35 c2 node n34 p1" transform="translate(123.625 43.047)"><g class="a34 i16 leaf node n16 p2 sample" transform="translate(40.25 74.4263)"><path class="edge" d="M 0 0 V -74.4263 H -40.25"/><rect class="sym" height="6" width="6" x="-3" y="-3"/><text class="lab" transform="translate(0 11)">16</text></g><g class="a34 c2 node n27 p2" transform="translate(-40.25 45.1314)"><g class="a27 i8 leaf node n8 p1 sample" transform="translate(34.5 29.2948)"><path class="edge" d="M 0 0 V -29.2948 H -34.5"/><rect class="sym" height="6" width="6" x="-3" y="-3"/><text class="lab" transform="translate(0 11)">8</text></g><g class="a27 c2 node n20 p2" transform="translate(-34.5 28.022)"><g class="a20 i3 leaf node n3 p1 sample" transform="translate(-23 1.27287)"><path class="edge" d="M 0 0 V -1.27287 H 23"/><rect class="sym" height="6" width="6" x="-3" y="-3"/><text class="lab" transform="translate(0 11)">3</text></g><g class="a20 i7 leaf node n7 p1 sample" transform="translate(23 1.27287)"><path class="edge" d="M 0 0 V -1.27287 H -23"/><rect class="sym" height="6" width="6" x="-3" y="-3"/><text class="lab" transform="translate(0 11)">7</text></g><path class="edge" d="M 0 0 V -28.022 H 34.5"/><circle class="sym" cx="0" cy="0" r="3"/><text class="lab lft" transform="translate(-3 -7)">20</text></g><path class="edge" d="M 0 0 V -45.1314 H 40.25"/><circle class="sym" cx="0" cy="0" r="3"/><text class="lab lft" transform="translate(-3 -7)">27</text></g><path class="edge" d="M 0 0 V -43.047 H -123.625"/><circle class="sym" cx="0" cy="0" r="3"/><text class="lab rgt" transform="translate(3 -7)">34</text></g><path class="edge" d="M 0 0 V -177.127 H -230.719"/><g class="mut m0 s0" transform="translate(0 -54.5728)"><line x1="0" x2="0" y1="0" y2="54.5728"/><path class="sym" d="M -3,-3 l 6,6 M -3,3 l 6,-6"/><text class="lab rgt" transform="translate(5 0)">0</text></g><circle class="sym" cx="0" cy="0" r="3"/><text class="lab rgt" transform="translate(3 -7)">35</text></g><g class="a38 c2 node n37 p1" transform="translate(-230.719 58.6459)"><g class="a37 c2 node n32 p1" transform="translate(-96.3125 178.8)"><g class="a32 c2 node n23 p1" transform="translate(54.625 36.5202)"><g class="a23 i10 leaf node n10 p2 sample" transform="translate(-23 20.6339)"><path class="edge" d="M 0 0 V -20.6339 H 23"/><rect class="sym" height="6" width="6" x="-3" y="-3"/><text class="lab" transform="translate(0 11)">10</text></g><g class="a23 i18 leaf node n18 p2 sample" transform="translate(23 20.6339)"><path class="edge" d="M 0 0 V -20.6339 H -23"/><rect class="sym" height="6" width="6" x="-3" y="-3"/><text class="lab" transform="translate(0 11)">18</text></g><path class="edge" d="M 0 0 V -36.5202 H -54.625"/><circle class="sym" cx="0" cy="0" r="3"/><text class="lab rgt" transform="translate(3 -7)">23</text></g><g class="a32 c2 node n31 p1" transform="translate(-54.625 9.96249)"><g class="a31 i19 leaf node n19 p2 sample" transform="translate(40.25 47.1916)"><path class="edge" d="M 0 0 V -47.1916 H -40.25"/><rect class="sym" height="6" width="6" x="-3" y="-3"/><text class="lab" transform="translate(0 11)">19</text></g><g class="a31 c2 node n24 p1" transform="translate(-40.25 25.9689)"><g class="a24 i13 leaf node n13 p2 sample" transform="translate(34.5 21.2227)"><path class="edge" d="M 0 0 V -21.2227 H -34.5"/><rect class="sym" height="6" width="6" x="-3" y="-3"/><text class="lab" transform="translate(0 11)">13</text></g><g class="a24 c2 node n21 p1" transform="translate(-34.5 9.67708)"><g class="a21 i0 leaf node n0 p1 sample" transform="translate(-23 11.5456)"><path class="edge" d="M 0 0 V -11.5456 H 23"/><rect class="sym" height="6" width="6" x="-3" y="-3"/><text class="lab" transform="translate(0 11)">0</text></g><g class="a21 i17 leaf node n17 p2 sample" transform="translate(23 11.5456)"><path class="edge" d="M 0 0 V -11.5456 H -23"/><rect class="sym" height="6" width="6" x="-3" y="-3"/><text class="lab" transform="translate(0 11)">17</text></g><path class="edge" d="M 0 0 V -9.67708 H 34.5"/><circle class="sym" cx="0" cy="0" r="3"/><text class="lab lft" transform="translate(-3 -7)">21</text></g><path class="edge" d="M 0 0 V -25.9689 H 40.25"/><circle class="sym" cx="0" cy="0" r="3"/><text class="lab lft" transform="translate(-3 -7)">24</text></g><path class="edge" d="M 0 0 V -9.96249 H 54.625"/><circle class="sym" cx="0" cy="0" r="3"/><text class="lab lft" transform="translate(-3 -7)">31</text></g><path class="edge" d="M 0 0 V -178.8 H 96.3125"/><circle class="sym" cx="0" cy="0" r="3"/><text class="lab lft" transform="translate(-3 -7)">32</text></g><g class="a37 c2 node n36 p1" transform="translate(96.3125 111.761)"><g class="a36 c2 node n22 p2" transform="translate(-46 105.947)"><g class="a22 i5 leaf node n5 p1 sample" transform="translate(-23 18.2453)"><path class="edge" d="M 0 0 V -18.2453 H 23"/><rect class="sym" height="6" width="6" x="-3" y="-3"/><text class="lab" transform="translate(0 11)">5</text></g><g class="a22 i15 leaf node n15 p2 sample" transform="translate(23 18.2453)"><path class="edge" d="M 0 0 V -18.2453 H -23"/><rect class="sym" height="6" width="6" x="-3" y="-3"/><text class="lab" transform="translate(0 11)">15</text></g><path class="edge" d="M 0 0 V -105.947 H 46"/><circle class="sym" cx="0" cy="0" r="3"/><text class="lab lft" transform="translate(-3 -7)">22</text></g><g class="a36 c2 node n30 p1" transform="translate(46 80.4162)"><g class="a30 i9 leaf node n9 p1 sample" transform="translate(-23 43.7765)"><path class="edge" d="M 0 0 V -43.7765 H 23"/><rect class="sym" height="6" width="6" x="-3" y="-3"/><text class="lab" transform="translate(0 11)">9</text></g><g class="a30 i11 leaf node n11 p2 sample" transform="translate(23 43.7765)"><path class="edge" d="M 0 0 V -43.7765 H -23"/><rect class="sym" height="6" width="6" x="-3" y="-3"/><text class="lab" transform="translate(0 11)">11</text></g><path class="edge" d="M 0 0 V -80.4162 H -46"/><circle class="sym" cx="0" cy="0" r="3"/><text class="lab rgt" transform="translate(3 -7)">30</text></g><path class="edge" d="M 0 0 V -111.761 H -96.3125"/><circle class="sym" cx="0" cy="0" r="3"/><text class="lab rgt" transform="translate(3 -7)">36</text></g><path class="edge" d="M 0 0 V -58.6459 H 230.719"/><circle class="sym" cx="0" cy="0" r="3"/><text class="lab lft" transform="translate(-3 -7)">37</text></g><circle class="sym" cx="0" cy="0" r="3"/><text class="lab" transform="translate(0 -11)">38</text></g></g></g></g></g></svg>