<svg baseProfile="full" height="400" version="1.1" width="1000" xmlns="http://www.w3.org/2000/svg" xmlns:ev="http://www.w3.org/2001/xml-events" xmlns:xlink="http://www.w3.org/1999/xlink"><defs><style type="text/css"><![CDATA[.background path {fill: #808080; fill-opacity: 0}.background path:nth-child(odd) {fill-opacity: .1}.x-regions rect {fill: yellow; stroke: black; opacity: 0.5}.axes {font-size: 14px}.x-axis .tick .lab {font-weight: bold; dominant-baseline: hanging}.axes, .tree {font-size: 14px; text-anchor: middle}.axes line, .edge {stroke: black; fill: none}.axes .ax-skip {stroke-dasharray: 4}.y-axis .grid {stroke: #FAFAFA}.node > .sym {fill: black; stroke: none}.site > .sym {stroke: black}.mut text {fill: red; font-style: italic}.mut.extra text {fill: hotpink}.mut line {fill: none; stroke: none}.mut .sym {fill: none; stroke: red}.mut.extra .sym {stroke: hotpink}.node .mut .sym {stroke-width: 1.5px}.tree text, .tree-sequence text {dominant-baseline: central}.plotbox .lab.lft {text-anchor: end}.plotbox .lab.rgt {text-anchor: start}.polytomy line {stroke: black; stroke-dasharray: 1px, 1px}.polytomy text {paint-order:stroke;stroke-width:0.3em;stroke:white}]]></style></defs><g class="tree-sequence"><g class="background"><path d="M20,0 l960,0 l0,338.2 l0,25 l0,5 l-960,0 l0,-5 l0,-25 l0,-338.2z"/></g><g class="axes"><g class="x-axis"><g class="title" transform="translate(500 400)"><text class="lab" text-anchor="middle" transform="translate(0 -11)">Genome position</text></g><line class="ax-line" x1="20" x2="980" y1="363.2" y2="363.2"/><g class="ticks"><g class="tick" transform="translate(20 363.2)"><line x1="0" x2="0" y1="0" y2="5"/><g transform="translate(0 6)"><text class="lab">0</text></g></g><g class="tick" transform="translate(980 363.2)"><line x1="0" x2="0" y1="0" y2="5"/><g transform="translate(0 6)"><text class="lab">1000</text></g></g></g><g class="site s0" transform="translate(306.08 363.2)"><line class="sym" x1="0" x2="0" y1="0" y2="-10"/><g class="mut m0"><polyline class="sym" points="2.5,-6.5 0,-1.5 -2.5,-6.5"/></g></g><g class="site s1" transform="translate(721.76 363.2)"><line class="sym" x1="0" x2="0" y1="0" y2="-10"/><g class="mut m1"><polyline class="sym" points="2.5,-6.5 0,-1.5 -2.5,-6.5"/></g></g></g></g><g class="plotbox trees"><g class="tree t0" transform="translate(20 0)"><g class="plotbox"><g class="c2 node n38 p2 root" transform="translate(831.154 26.8)"><g class="a38 i3 leaf node n3 p1 sample" transform="translate(85.8457 294.6)"><path class="edge" d="M 0 0 V -294.6 H -85.8457"/><rect class="sym" height="6" width="6" x="-3" y="-3"/><text class="lab" transform="translate(0 11)">3</text></g><g class="a38 c2 node n37 p2" transform="translate(-85.8457 134.921)"><g class="a37 i6 leaf node n6 p1 sample" transform="translate(125.691 159.679)"><path class="edge" d="M 0 0 V -159.679 H -125.691"/><rect class="sym" height="6" width="6" x="-3" y="-3"/><text class="lab" transform="translate(0 11)">6</text></g><g class="a37 c2 m0 m1 node n36 p2 s0 s1" transform="translate(-125.691 82.9054)"><g class="a36 c2 node n29 p1" transform="translate(162.258 55.3684)"><g class="a29 i8 leaf node n8 p1 sample" transform="translate(43.125 21.4054)"><path class="edge" d="M 0 0 V -21.4054 H -43.125"/><rect class="sym" height="6" width="6" x="-3" y="-3"/><text class="lab" transform="translate(0 11)">8</text></g><g class="a29 c2 node n28 p1" transform="translate(-43.125 4.14075)"><g class="a28 i12 leaf node n12 p2 sample" transform="translate(40.25 17.2646)"><path class="edge" d="M 0 0 V -17.2646 H -40.25"/><rect class="sym" height="6" width="6" x="-3" y="-3"/><text class="lab" transform="translate(0 11)">12</text></g><g class="a28 c2 node n25 p1" transform="translate(-40.25 2.24524)"><g class="a25 i15 leaf node n15 p2 sample" transform="translate(34.5 15.0194)"><path class="edge" d="M 0 0 V -15.0194 H -34.5"/><rect class="sym" height="6" width="6" x="-3" y="-3"/><text class="lab" transform="translate(0 11)">15</text></g><g class="a25 c2 node n24 p1" transform="translate(-34.5 3.89479)"><g class="a24 i2 leaf node n2 p1 sample" transform="translate(-23 11.1246)"><path class="edge" d="M 0 0 V -11.1246 H 23"/><rect class="sym" height="6" width="6" x="-3" y="-3"/><text class="lab" transform="translate(0 11)">2</text></g><g class="a24 i5 leaf node n5 p1 sample" transform="translate(23 11.1246)"><path class="edge" d="M 0 0 V -11.1246 H -23"/><rect class="sym" height="6" width="6" x="-3" y="-3"/><text class="lab" transform="translate(0 11)">5</text></g><path class="edge" d="M 0 0 V -3.89479 H 34.5"/><circle class="sym" cx="0" cy="0" r="3"/><text class="lab lft" transform="translate(-3 -7)">24</text></g><path class="edge" d="M 0 0 V -2.24524 H 40.25"/><circle class="sym" cx="0" cy="0" r="3"/><text class="lab lft" transform="translate(-3 -7)">25</text></g><path class="edge" d="M 0 0 V -4.14075 H 43.125"/><circle class="sym" cx="0" cy="0" r="3"/><text class="lab lft" transform="translate(-3 -7)">28</text></g><path class="edge" d="M 0 0 V -55.3684 H -162.258"/><circle class="sym" cx="0" cy="0" r="3"/><text class="lab rgt" transform="translate(3 -7)">29</text></g><g class="a36 c2 node n35 p1" transform="translate(-162.258 18.9969)"><g class="a35 c2 node n33 p1" transform="translate(103.141 23.2161)"><g class="a33 i14 leaf node n14 p2 sample" transform="translate(34.5 34.5608)"><path class="edge" d="M 0 0 V -34.5608 H -34.5"/><rect class="sym" height="6" width="6" x="-3" y="-3"/><text class="lab" transform="translate(0 11)">14</text></g><g class="a33 c2 node n26 p1" transform="translate(-34.5 18.6246)"><g class="a26 i11 leaf node n11 p2 sample" transform="translate(-23 15.9362)"><path class="edge" d="M 0 0 V -15.9362 H 23"/><rect class="sym" height="6" width="6" x="-3" y="-3"/><text class="lab" transform="translate(0 11)">11</text></g><g class="a26 i18 leaf node n18 p2 sample" transform="translate(23 15.9362)"><path class="edge" d="M 0 0 V -15.9362 H -23"/><rect class="sym" height="6" width="6" x="-3" y="-3"/><text class="lab" transform="translate(0 11)">18</text></g><path class="edge" d="M 0 0 V -18.6246 H 34.5"/><circle class="sym" cx="0" cy="0" r="3"/><text class="lab lft" transform="translate(-3 -7)">26</text></g><path class="edge" d="M 0 0 V -23.2161 H -103.141"/><circle class="sym" cx="0" cy="0" r="3"/><text class="lab rgt" transform="translate(3 -7)">33</text></g><g class="a35 c2 node n34 p1" transform="translate(-103.141 21.3429)"><g class="a34 i4 leaf node n4 p1 sample" transform="translate(102.781 36.434)"><path class="edge" d="M 0 0 V -36.434 H -102.781"/><rect class="sym" height="6" width="6" x="-3" y="-3"/><text class="lab" transform="translate(0 11)">4</text></g><g class="a34 c2 node n32 p2" transform="translate(-102.781 5.65028)"><g class="a32 c2 node n27 p1" transform="translate(110.688 14.0305)"><g class="a27 i19 leaf node n19 p2 sample" transform="translate(48.875 16.7532)"><path class="edge" d="M 0 0 V -16.7532 H -48.875"/><rect class="sym" height="6" width="6" x="-3" y="-3"/><text class="lab" transform="translate(0 11)">19</text></g><g class="a27 c2 node n23 p2" transform="translate(-48.875 6.4946)"><g class="a23 i9 leaf node n9 p1 sample" transform="translate(51.75 10.2586)"><path class="edge" d="M 0 0 V -10.2586 H -51.75"/><rect class="sym" height="6" width="6" x="-3" y="-3"/><text class="lab" transform="translate(0 11)">9</text></g><g class="a23 c2 node n22 p2" transform="translate(-51.75 5.39915)"><g class="a22 i1 leaf node n1 p1 sample" transform="translate(-34.5 4.85945)"><path class="edge" d="M 0 0 V -4.85945 H 34.5"/><rect class="sym" height="6" width="6" x="-3" y="-3"/><text class="lab" transform="translate(0 11)">1</text></g><g class="a22 c2 node n20 p2" transform="translate(34.5 4.41055)"><g class="a20 i7 leaf node n7 p1 sample" transform="translate(-23 0.448902)"><path class="edge" d="M 0 0 V -0.448902 H 23"/><rect class="sym" height="6" width="6" x="-3" y="-3"/><text class="lab" transform="translate(0 11)">7</text></g><g class="a20 i17 leaf node n17 p2 sample" transform="translate(23 0.448902)"><path class="edge" d="M 0 0 V -0.448902 H -23"/><rect class="sym" height="6" width="6" x="-3" y="-3"/><text class="lab" transform="translate(0 11)">17</text></g><path class="edge" d="M 0 0 V -4.41055 H -34.5"/><circle class="sym" cx="0" cy="0" r="3"/><text class="lab rgt" transform="translate(3 -7)">20</text></g><path class="edge" d="M 0 0 V -5.39915 H 51.75"/><circle class="sym" cx="0" cy="0" r="3"/><text class="lab lft" transform="translate(-3 -7)">22</text></g><path class="edge" d="M 0 0 V -6.4946 H 48.875"/><circle class="sym" cx="0" cy="0" r="3"/><text class="lab lft" transform="translate(-3 -7)">23</text></g><path class="edge" d="M 0 0 V -14.0305 H -110.688"/><circle class="sym" cx="0" cy="0" r="3"/><text class="lab rgt" transform="translate(3 -7)">27</text></g><g class="a32 c2 node n31 p1" transform="translate(-110.688 5.21564)"><g class="a31 i16 leaf node n16 p2 sample" transform="translate(40.25 25.5681)"><path class="edge" d="M 0 0 V -25.5681 H -40.25"/><rect class="sym" height="6" width="6" x="-3" y="-3"/><text class="lab" transform="translate(0 11)">16</text></g><g class="a31 c2 node n30 p1" transform="translate(-40.25 0.16065)"><g class="a30 i10 leaf node n10 p2 sample" transform="translate(34.5 25.4074)"><path class="edge" d="M 0 0 V -25.4074 H -34.5"/><rect class="sym" height="6" width="6" x="-3" y="-3"/><text class="lab" transform="translate(0 11)">10</text></g><g class="a30 c2 node n21 p1" transform="translate(-34.5 21.4396)"><g class="a21 i0 leaf node n0 p1 sample" transform="translate(-23 3.96782)"><path class="edge" d="M 0 0 V -3.96782 H 23"/><rect class="sym" height="6" width="6" x="-3" y="-3"/><text class="lab" transform="translate(0 11)">0</text></g><g class="a21 i13 leaf node n13 p2 sample" transform="translate(23 3.96782)"><path class="edge" d="M 0 0 V -3.96782 H -23"/><rect class="sym" height="6" width="6" x="-3" y="-3"/><text class="lab" transform="translate(0 11)">13</text></g><path class="edge" d="M 0 0 V -21.4396 H 34.5"/><circle class="sym" cx="0" cy="0" r="3"/><text class="lab lft" transform="translate(-3 -7)">21</text></g><path class="edge" d="M 0 0 V -0.16065 H 40.25"/><circle class="sym" cx="0" cy="0" r="3"/><text class="lab lft" transform="translate(-3 -7)">30</text></g><path class="edge" d="M 0 0 V -5.21564 H 110.688"/><circle class="sym" cx="0" cy="0" r="3"/><text class="lab lft" transform="translate(-3 -7)">31</text></g><path class="edge" d="M 0 0 V -5.65028 H 102.781"/><circle class="sym" cx="0" cy="0" r="3"/><text class="lab lft" transform="translate(-3 -7)">32</text></g><path class="edge" d="M 0 0 V -21.3429 H 103.141"/><circle class="sym" cx="0" cy="0" r="3"/><text class="lab lft" transform="translate(-3 -7)">34</text></g><path class="edge" d="M 0 0 V -18.9969 H 162.258"/><circle class="sym" cx="0" cy="0" r="3"/><text class="lab lft" transform="translate(-3 -7)">35</text></g><path class="edge" d="M 0 0 V -82.9054 H 125.691"/><g class="mut m1 s1" transform="translate(0 -50.1023)"><line x1="0" x2="0" y1="0" y2="50.1023"/><path class="sym" d="M -3,-3 l 6,6 M -3,3 l 6,-6"/><text class="lab lft" transform="translate(-5 0)">1</text></g><g class="mut m0 s0" transform="translate(0 -40.4606)"><line x1="0" x2="0" y1="0" y2="40.4606"/><path class="sym" d="M -3,-3 l 6,6 M -3,3 l 6,-6"/><text class="lab lft" transform="translate(-5 0)">0</text></g><circle class="sym" cx="0" cy="0" r="3"/><text class="lab lft" transform="translate(-3 -7)">36</text></g><path class="edge" d="M 0 0 V -134.921 H 85.8457"/><circle class="sym" cx="0" cy="0" r="3"/><text class="lab lft" transform="translate(-3 -7)">37</text></g><circle class="sym" cx="0" cy="0" r="3"/><text class="lab" transform="translate(0 -11)">38</text></g></g></g></g></g></svg>