<svg baseProfile="full" height="400" version="1.1" width="1000" xmlns="http://www.w3.org/2000/svg" xmlns:ev="http://www.w3.org/2001/xml-events" xmlns:xlink="http://www.w3.org/1999/xlink"><defs><style type="text/css"><![CDATA[.background path {fill: #808080; fill-opacity: 0}.background path:nth-child(odd) {fill-opacity: .1}.x-regions rect {fill: yellow; stroke: black; opacity: 0.5}.axes {font-size: 14px}.x-axis .tick .lab {font-weight: bold; dominant-baseline: hanging}.axes, .tree {font-size: 14px; text-anchor: middle}.axes line, .edge {stroke: black; fill: none}.axes .ax-skip {stroke-dasharray: 4}.y-axis .grid {stroke: #FAFAFA}.node > .sym {fill: black; stroke: none}.site > .sym {stroke: black}.mut text {fill: red; font-style: italic}.mut.extra text {fill: hotpink}.mut line {fill: none; stroke: none}.mut .sym {fill: none; stroke: red}.mut.extra .sym {stroke: hotpink}.node .mut .sym {stroke-width: 1.5px}.tree text, .tree-sequence text {dominant-baseline: central}.plotbox .lab.lft {text-anchor: end}.plotbox .lab.rgt {text-anchor: start}.polytomy line {stroke: black; stroke-dasharray: 1px, 1px}.polytomy text {paint-order:stroke;stroke-width:0.3em;stroke:white}]]></style></defs><g class="tree-sequence"><g class="background"><path d="M20,0 l960,0 l0,338.2 l0,25 l0,5 l-960,0 l0,-5 l0,-25 l0,-338.2z"/></g><g class="axes"><g class="x-axis"><g class="title" transform="translate(500 400)"><text class="lab" text-anchor="middle" transform="translate(0 -11)">Genome position</text></g><line class="ax-line" x1="20" x2="980" y1="363.2" y2="363.2"/><g class="ticks"><g class="tick" transform="translate(20 363.2)"><line x1="0" x2="0" y1="0" y2="5"/><g transform="translate(0 6)"><text class="lab">0</text></g></g><g class="tick" transform="translate(980 363.2)"><line x1="0" x2="0" y1="0" y2="5"/><g transform="translate(0 6)"><text class="lab">1000</text></g></g></g><g class="site s0" transform="translate(74.72 363.2)"><line class="sym" x1="0" x2="0" y1="0" y2="-10"/><g class="mut m0"><polyline class="sym" points="2.5,-6.5 0,-1.5 -2.5,-6.5"/></g></g><g class="site s1" transform="translate(224.48 363.2)"><line class="sym" x1="0" x2="0" y1="0" y2="-10"/><g class="mut m1"><polyline class="sym" points="2.5,-6.5 0,-1.5 -2.5,-6.5"/></g></g><g class="site s2" transform="translate(232.16 363.2)"><line class="sym" x1="0" x2="0" y1="0" y2="-10"/><g class="mut m2"><polyline class="sym" points="2.5,-6.5 0,-1.5 -2.5,-6.5"/></g></g><g class="site s3" transform="translate(292.64 363.2)"><line class="sym" x1="0" x2="0" y1="0" y2="-10"/><g class="mut m3"><polyline class="sym" points="2.5,-6.5 0,-1.5 -2.5,-6.5"/></g></g><g class="site s4" transform="translate(834.08 363.2)"><line class="sym" x1="0" x2="0" y1="0" y2="-10"/><g class="mut m4"><polyline class="sym" points="2.5,-6.5 0,-1.5 -2.5,-6.5"/></g></g><g class="site s5" transform="translate(907.04 363.2)"><line class="sym" x1="0" x2="0" y1="0" y2="-10"/><g class="mut m5"><polyline class="sym" points="2.5,-6.5 0,-1.5 -2.5,-6.5"/></g></g></g></g><g class="plotbox trees"><g class="tree t0" transform="translate(20 0)"><g class="plotbox"><g class="c2 node n38 p2 root" transform="translate(818.801 26.8)"><g class="a38 i9 leaf m3 node n9 p1 s3 sample" transform="translate(98.1992 294.6)"><path class="edge" d="M 0 0 V -294.6 H -98.1992"/><g class="mut m3 s3" transform="translate(0 -147.143)"><line x1="0" x2="0" y1="0" y2="147.143"/><path class="sym" d="M -3,-3 l 6,6 M -3,3 l 6,-6"/><text class="lab rgt" transform="translate(5 0)">3</text></g><rect class="sym" height="6" width="6" x="-3" y="-3"/><text class="lab" transform="translate(0 11)">9</text></g><g class="a38 c2 node n37 p1" transform="translate(-98.1992 94.1437)"><g class="a37 i8 leaf node n8 p1 sample" transform="translate(150.398 200.456)"><path class="edge" d="M 0 0 V -200.456 H -150.398"/><rect class="sym" height="6" width="6" x="-3" y="-3"/><text class="lab" transform="translate(0 11)">8</text></g><g class="a37 c2 node n36 p2" transform="translate(-150.398 45.2391)"><g class="a36 c2 node n34 p1" transform="translate(-162.797 74.4909)"><g class="a34 i6 leaf m2 node n6 p1 s2 sample" transform="translate(141.594 80.7263)"><path class="edge" d="M 0 0 V -80.7263 H -141.594"/><g class="mut m2 s2" transform="translate(0 -58.4848)"><line x1="0" x2="0" y1="0" y2="58.4848"/><path class="sym" d="M -3,-3 l 6,6 M -3,3 l 6,-6"/><text class="lab rgt" transform="translate(5 0)">2</text></g><rect class="sym" height="6" width="6" x="-3" y="-3"/><text class="lab" transform="translate(0 11)">6</text></g><g class="a34 c2 node n33 p2" transform="translate(-141.594 3.33025)"><g class="a33 c2 node n31 p2" transform="translate(-113.562 35.8594)"><g class="a31 c2 node n21 p1" transform="translate(51.75 40.3288)"><g class="a21 i5 leaf node n5 p1 sample" transform="translate(-23 1.20786)"><path class="edge" d="M 0 0 V -1.20786 H 23"/><rect class="sym" height="6" width="6" x="-3" y="-3"/><text class="lab" transform="translate(0 11)">5</text></g><g class="a21 i12 leaf node n12 p2 sample" transform="translate(23 1.20786)"><path class="edge" d="M 0 0 V -1.20786 H -23"/><rect class="sym" height="6" width="6" x="-3" y="-3"/><text class="lab" transform="translate(0 11)">12</text></g><path class="edge" d="M 0 0 V -40.3288 H -51.75"/><circle class="sym" cx="0" cy="0" r="3"/><text class="lab rgt" transform="translate(3 -7)">21</text></g><g class="a31 c2 node n24 p1" transform="translate(-51.75 26.6444)"><g class="a24 i7 leaf node n7 p1 sample" transform="translate(34.5 14.8922)"><path class="edge" d="M 0 0 V -14.8922 H -34.5"/><rect class="sym" height="6" width="6" x="-3" y="-3"/><text class="lab" transform="translate(0 11)">7</text></g><g class="a24 c2 m1 node n22 p1 s1" transform="translate(-34.5 12.3114)"><g class="a22 i0 leaf node n0 p1 sample" transform="translate(-23 2.58078)"><path class="edge" d="M 0 0 V -2.58078 H 23"/><rect class="sym" height="6" width="6" x="-3" y="-3"/><text class="lab" transform="translate(0 11)">0</text></g><g class="a22 i11 leaf node n11 p2 sample" transform="translate(23 2.58078)"><path class="edge" d="M 0 0 V -2.58078 H -23"/><rect class="sym" height="6" width="6" x="-3" y="-3"/><text class="lab" transform="translate(0 11)">11</text></g><path class="edge" d="M 0 0 V -12.3114 H 34.5"/><g class="mut m1 s1" transform="translate(0 -4.67651)"><line x1="0" x2="0" y1="0" y2="4.67651"/><path class="sym" d="M -3,-3 l 6,6 M -3,3 l 6,-6"/><text class="lab lft" transform="translate(-5 0)">1</text></g><circle class="sym" cx="0" cy="0" r="3"/><text class="lab lft" transform="translate(-3 -7)">22</text></g><path class="edge" d="M 0 0 V -26.6444 H 51.75"/><circle class="sym" cx="0" cy="0" r="3"/><text class="lab lft" transform="translate(-3 -7)">24</text></g><path class="edge" d="M 0 0 V -35.8594 H 113.562"/><circle class="sym" cx="0" cy="0" r="3"/><text class="lab lft" transform="translate(-3 -7)">31</text></g><g class="a33 c2 node n32 p1" transform="translate(113.562 31.578)"><g class="a32 c2 m0 node n20 p1 s0" transform="translate(-83.375 45.5241)"><g class="a20 i2 leaf node n2 p1 sample" transform="translate(-23 0.293846)"><path class="edge" d="M 0 0 V -0.293846 H 23"/><rect class="sym" height="6" width="6" x="-3" y="-3"/><text class="lab" transform="translate(0 11)">2</text></g><g class="a20 i15 leaf node n15 p2 sample" transform="translate(23 0.293846)"><path class="edge" d="M 0 0 V -0.293846 H -23"/><rect class="sym" height="6" width="6" x="-3" y="-3"/><text class="lab" transform="translate(0 11)">15</text></g><path class="edge" d="M 0 0 V -45.5241 H 83.375"/><g class="mut m0 s0" transform="translate(0 -1.22274)"><line x1="0" x2="0" y1="0" y2="1.22274"/><path class="sym" d="M -3,-3 l 6,6 M -3,3 l 6,-6"/><text class="lab lft" transform="translate(-5 0)">0</text></g><circle class="sym" cx="0" cy="0" r="3"/><text class="lab lft" transform="translate(-3 -7)">20</text></g><g class="a32 c2 node n29 p2" transform="translate(83.375 21.4123)"><g class="a29 i17 leaf node n17 p2 sample" transform="translate(40.25 24.4057)"><path class="edge" d="M 0 0 V -24.4057 H -40.25"/><rect class="sym" height="6" width="6" x="-3" y="-3"/><text class="lab" transform="translate(0 11)">17</text></g><g class="a29 c2 node n28 p1" transform="translate(-40.25 3.19391)"><g class="a28 i13 leaf node n13 p2 sample" transform="translate(34.5 21.2118)"><path class="edge" d="M 0 0 V -21.2118 H -34.5"/><rect class="sym" height="6" width="6" x="-3" y="-3"/><text class="lab" transform="translate(0 11)">13</text></g><g class="a28 c2 m4 node n23 p1 s4" transform="translate(-34.5 12.1333)"><g class="a23 i4 leaf node n4 p1 sample" transform="translate(-23 9.07853)"><path class="edge" d="M 0 0 V -9.07853 H 23"/><rect class="sym" height="6" width="6" x="-3" y="-3"/><text class="lab" transform="translate(0 11)">4</text></g><g class="a23 i14 leaf node n14 p2 sample" transform="translate(23 9.07853)"><path class="edge" d="M 0 0 V -9.07853 H -23"/><rect class="sym" height="6" width="6" x="-3" y="-3"/><text class="lab" transform="translate(0 11)">14</text></g><path class="edge" d="M 0 0 V -12.1333 H 34.5"/><g class="mut m4 s4" transform="translate(0 -3.0728)"><line x1="0" x2="0" y1="0" y2="3.0728"/><path class="sym" d="M -3,-3 l 6,6 M -3,3 l 6,-6"/><text class="lab lft" transform="translate(-5 0)">4</text></g><circle class="sym" cx="0" cy="0" r="3"/><text class="lab lft" transform="translate(-3 -7)">23</text></g><path class="edge" d="M 0 0 V -3.19391 H 40.25"/><circle class="sym" cx="0" cy="0" r="3"/><text class="lab lft" transform="translate(-3 -7)">28</text></g><path class="edge" d="M 0 0 V -21.4123 H -83.375"/><circle class="sym" cx="0" cy="0" r="3"/><text class="lab rgt" transform="translate(3 -7)">29</text></g><path class="edge" d="M 0 0 V -31.578 H -113.562"/><circle class="sym" cx="0" cy="0" r="3"/><text class="lab rgt" transform="translate(3 -7)">32</text></g><path class="edge" d="M 0 0 V -3.33025 H 141.594"/><circle class="sym" cx="0" cy="0" r="3"/><text class="lab lft" transform="translate(-3 -7)">33</text></g><path class="edge" d="M 0 0 V -74.4909 H 162.797"/><circle class="sym" cx="0" cy="0" r="3"/><text class="lab lft" transform="translate(-3 -7)">34</text></g><g class="a36 c2 node n35 p1" transform="translate(162.797 62.2521)"><g class="a35 c2 node n27 p1" transform="translate(69 73.4559)"><g class="a27 i3 leaf node n3 p1 sample" transform="translate(-23 19.5092)"><path class="edge" d="M 0 0 V -19.5092 H 23"/><rect class="sym" height="6" width="6" x="-3" y="-3"/><text class="lab" transform="translate(0 11)">3</text></g><g class="a27 i16 leaf node n16 p2 sample" transform="translate(23 19.5092)"><path class="edge" d="M 0 0 V -19.5092 H -23"/><rect class="sym" height="6" width="6" x="-3" y="-3"/><text class="lab" transform="translate(0 11)">16</text></g><path class="edge" d="M 0 0 V -73.4559 H -69"/><circle class="sym" cx="0" cy="0" r="3"/><text class="lab rgt" transform="translate(3 -7)">27</text></g><g class="a35 c2 m5 node n30 p1 s5" transform="translate(-69 58.9732)"><g class="a30 c2 node n25 p2" transform="translate(46 17.8724)"><g class="a25 i18 leaf node n18 p2 sample" transform="translate(-23 16.1194)"><path class="edge" d="M 0 0 V -16.1194 H 23"/><rect class="sym" height="6" width="6" x="-3" y="-3"/><text class="lab" transform="translate(0 11)">18</text></g><g class="a25 i19 leaf node n19 p2 sample" transform="translate(23 16.1194)"><path class="edge" d="M 0 0 V -16.1194 H -23"/><rect class="sym" height="6" width="6" x="-3" y="-3"/><text class="lab" transform="translate(0 11)">19</text></g><path class="edge" d="M 0 0 V -17.8724 H -46"/><circle class="sym" cx="0" cy="0" r="3"/><text class="lab rgt" transform="translate(3 -7)">25</text></g><g class="a30 c2 node n26 p2" transform="translate(-46 16.1676)"><g class="a26 i1 leaf node n1 p1 sample" transform="translate(-23 17.8242)"><path class="edge" d="M 0 0 V -17.8242 H 23"/><rect class="sym" height="6" width="6" x="-3" y="-3"/><text class="lab" transform="translate(0 11)">1</text></g><g class="a26 i10 leaf node n10 p2 sample" transform="translate(23 17.8242)"><path class="edge" d="M 0 0 V -17.8242 H -23"/><rect class="sym" height="6" width="6" x="-3" y="-3"/><text class="lab" transform="translate(0 11)">10</text></g><path class="edge" d="M 0 0 V -16.1676 H 46"/><circle class="sym" cx="0" cy="0" r="3"/><text class="lab lft" transform="translate(-3 -7)">26</text></g><path class="edge" d="M 0 0 V -58.9732 H 69"/><g class="mut m5 s5" transform="translate(0 -2.68155)"><line x1="0" x2="0" y1="0" y2="2.68155"/><path class="sym" d="M -3,-3 l 6,6 M -3,3 l 6,-6"/><text class="lab lft" transform="translate(-5 0)">5</text></g><circle class="sym" cx="0" cy="0" r="3"/><text class="lab lft" transform="translate(-3 -7)">30</text></g><path class="edge" d="M 0 0 V -62.2521 H -162.797"/><circle class="sym" cx="0" cy="0" r="3"/><text class="lab rgt" transform="translate(3 -7)">35</text></g><path class="edge" d="M 0 0 V -45.2391 H 150.398"/><circle class="sym" cx="0" cy="0" r="3"/><text class="lab lft" transform="translate(-3 -7)">36</text></g><path class="edge" d="M 0 0 V -94.1437 H 98.1992"/><circle class="sym" cx="0" cy="0" r="3"/><text class="lab lft" transform="translate(-3 -7)">37</text></g><circle class="sym" cx="0" cy="0" r="3"/><text class="lab" transform="translate(0 -11)">38</text></g></g></g></g></g></svg>