<svg baseProfile="full" height="400" version="1.1" width="1000" xmlns="http://www.w3.org/2000/svg" xmlns:ev="http://www.w3.org/2001/xml-events" xmlns:xlink="http://www.w3.org/1999/xlink"><defs><style type="text/css"><![CDATA[.background path {fill: #808080; fill-opacity: 0}.background path:nth-child(odd) {fill-opacity: .1}.x-regions rect {fill: yellow; stroke: black; opacity: 0.5}.axes {font-size: 14px}.x-axis .tick .lab {font-weight: bold; dominant-baseline: hanging}.axes, .tree {font-size: 14px; text-anchor: middle}.axes line, .edge {stroke: black; fill: none}.axes .ax-skip {stroke-dasharray: 4}.y-axis .grid {stroke: #FAFAFA}.node > .sym {fill: black; stroke: none}.site > .sym {stroke: black}.mut text {fill: red; font-style: italic}.mut.extra text {fill: hotpink}.mut line {fill: none; stroke: none}.mut .sym {fill: none; stroke: red}.mut.extra .sym {stroke: hotpink}.node .mut .sym {stroke-width: 1.5px}.tree text, .tree-sequence text {dominant-baseline: central}.plotbox .lab.lft {text-anchor: end}.plotbox .lab.rgt {text-anchor: start}.polytomy line {stroke: black; stroke-dasharray: 1px, 1px}.polytomy text {paint-order:stroke;stroke-width:0.3em;stroke:white}]]></style></defs><g class="tree-sequence"><g class="background"><path d="M20,0 l960,0 l0,338.2 l0,25 l0,5 l-960,0 l0,-5 l0,-25 l0,-338.2z"/></g><g class="axes"><g class="x-axis"><g class="title" transform="translate(500 400)"><text class="lab" text-anchor="middle" transform="translate(0 -11)">Genome position</text></g><line class="ax-line" x1="20" x2="980" y1="363.2" y2="363.2"/><g class="ticks"><g class="tick" transform="translate(20 363.2)"><line x1="0" x2="0" y1="0" y2="5"/><g transform="translate(0 6)"><text class="lab">0</text></g></g><g class="tick" transform="translate(980 363.2)"><line x1="0" x2="0" y1="0" y2="5"/><g transform="translate(0 6)"><text class="lab">1000</text></g></g></g><g class="site s0" transform="translate(40.16 363.2)"><line class="sym" x1="0" x2="0" y1="0" y2="-10"/><g class="mut m0"><polyline class="sym" points="2.5,-6.5 0,-1.5 -2.5,-6.5"/></g></g><g class="site s1" transform="translate(177.44 363.2)"><line class="sym" x1="0" x2="0" y1="0" y2="-10"/><g class="mut m1"><polyline class="sym" points="2.5,-6.5 0,-1.5 -2.5,-6.5"/></g></g><g class="site s2" transform="translate(304.16 363.2)"><line class="sym" x1="0" x2="0" y1="0" y2="-10"/><g class="mut m2"><polyline class="sym" points="2.5,-6.5 0,-1.5 -2.5,-6.5"/></g></g><g class="site s3" transform="translate(532.64 363.2)"><line class="sym" x1="0" x2="0" y1="0" y2="-10"/><g class="mut m3"><polyline class="sym" points="2.5,-6.5 0,-1.5 -2.5,-6.5"/></g></g><g class="site s4" transform="translate(559.52 363.2)"><line class="sym" x1="0" x2="0" y1="0" y2="-10"/><g class="mut m4"><polyline class="sym" points="2.5,-6.5 0,-1.5 -2.5,-6.5"/></g></g><g class="site s5" transform="translate(657.44 363.2)"><line class="sym" x1="0" x2="0" y1="0" y2="-10"/><g class="mut m5"><polyline class="sym" points="2.5,-6.5 0,-1.5 -2.5,-6.5"/></g></g><g class="site s6" transform="translate(964.64 363.2)"><line class="sym" x1="0" x2="0" y1="0" y2="-10"/><g class="mut m6"><polyline class="sym" points="2.5,-6.5 0,-1.5 -2.5,-6.5"/></g></g><g class="site s7" transform="translate(969.44 363.2)"><line class="sym" x1="0" x2="0" y1="0" y2="-10"/><g class="mut m7"><polyline class="sym" points="2.5,-6.5 0,-1.5 -2.5,-6.5"/></g></g></g></g><g class="plotbox trees"><g class="tree t0" transform="translate(20 0)"><g class="plotbox"><g class="c2 node n38 p1 root" transform="translate(604.703 26.8)"><g class="a38 c2 m1 m7 node n36 p2 s1 s7" transform="translate(157.047 218.596)"><g class="a36 c2 m6 node n31 p1 s6" transform="translate(-115 58.0409)"><g class="a31 i1 leaf node n1 p1 sample" transform="translate(-51.75 17.9628)"><path class="edge" d="M 0 0 V -17.9628 H 51.75"/><rect class="sym" height="6" width="6" x="-3" y="-3"/><text class="lab" transform="translate(0 11)">1</text></g><g class="a31 c2 node n29 p2" transform="translate(51.75 7.22264)"><g class="a29 i13 leaf node n13 p2 sample" transform="translate(34.5 10.7401)"><path class="edge" d="M 0 0 V -10.7401 H -34.5"/><rect class="sym" height="6" width="6" x="-3" y="-3"/><text class="lab" transform="translate(0 11)">13</text></g><g class="a29 c2 node n23 p1" transform="translate(-34.5 7.86255)"><g class="a23 i3 leaf node n3 p1 sample" transform="translate(-23 2.87759)"><path class="edge" d="M 0 0 V -2.87759 H 23"/><rect class="sym" height="6" width="6" x="-3" y="-3"/><text class="lab" transform="translate(0 11)">3</text></g><g class="a23 i11 leaf node n11 p2 sample" transform="translate(23 2.87759)"><path class="edge" d="M 0 0 V -2.87759 H -23"/><rect class="sym" height="6" width="6" x="-3" y="-3"/><text class="lab" transform="translate(0 11)">11</text></g><path class="edge" d="M 0 0 V -7.86255 H 34.5"/><circle class="sym" cx="0" cy="0" r="3"/><text class="lab lft" transform="translate(-3 -7)">23</text></g><path class="edge" d="M 0 0 V -7.22264 H -51.75"/><circle class="sym" cx="0" cy="0" r="3"/><text class="lab rgt" transform="translate(3 -7)">29</text></g><path class="edge" d="M 0 0 V -58.0409 H 115"/><g class="mut m6 s6" transform="translate(0 -32.4085)"><line x1="0" x2="0" y1="0" y2="32.4085"/><path class="sym" d="M -3,-3 l 6,6 M -3,3 l 6,-6"/><text class="lab lft" transform="translate(-5 0)">6</text></g><circle class="sym" cx="0" cy="0" r="3"/><text class="lab lft" transform="translate(-3 -7)">31</text></g><g class="a36 c2 m2 node n32 p1 s2" transform="translate(115 56.8892)"><g class="a32 i9 leaf node n9 p1 sample" transform="translate(40.25 19.1145)"><path class="edge" d="M 0 0 V -19.1145 H -40.25"/><rect class="sym" height="6" width="6" x="-3" y="-3"/><text class="lab" transform="translate(0 11)">9</text></g><g class="a32 c2 node n28 p2" transform="translate(-40.25 9.47212)"><g class="a28 i18 leaf node n18 p2 sample" transform="translate(34.5 9.64242)"><path class="edge" d="M 0 0 V -9.64242 H -34.5"/><rect class="sym" height="6" width="6" x="-3" y="-3"/><text class="lab" transform="translate(0 11)">18</text></g><g class="a28 c2 node n22 p1" transform="translate(-34.5 7.30038)"><g class="a22 i6 leaf node n6 p1 sample" transform="translate(-23 2.34204)"><path class="edge" d="M 0 0 V -2.34204 H 23"/><rect class="sym" height="6" width="6" x="-3" y="-3"/><text class="lab" transform="translate(0 11)">6</text></g><g class="a22 i10 leaf node n10 p2 sample" transform="translate(23 2.34204)"><path class="edge" d="M 0 0 V -2.34204 H -23"/><rect class="sym" height="6" width="6" x="-3" y="-3"/><text class="lab" transform="translate(0 11)">10</text></g><path class="edge" d="M 0 0 V -7.30038 H 34.5"/><circle class="sym" cx="0" cy="0" r="3"/><text class="lab lft" transform="translate(-3 -7)">22</text></g><path class="edge" d="M 0 0 V -9.47212 H 40.25"/><circle class="sym" cx="0" cy="0" r="3"/><text class="lab lft" transform="translate(-3 -7)">28</text></g><path class="edge" d="M 0 0 V -56.8892 H -115"/><g class="mut m2 s2" transform="translate(0 -4.25163)"><line x1="0" x2="0" y1="0" y2="4.25163"/><path class="sym" d="M -3,-3 l 6,6 M -3,3 l 6,-6"/><text class="lab rgt" transform="translate(5 0)">2</text></g><circle class="sym" cx="0" cy="0" r="3"/><text class="lab rgt" transform="translate(3 -7)">32</text></g><path class="edge" d="M 0 0 V -218.596 H -157.047"/><g class="mut m1 s1" transform="translate(0 -106.505)"><line x1="0" x2="0" y1="0" y2="106.505"/><path class="sym" d="M -3,-3 l 6,6 M -3,3 l 6,-6"/><text class="lab rgt" transform="translate(5 0)">1</text></g><g class="mut m7 s7" transform="translate(0 -36.831)"><line x1="0" x2="0" y1="0" y2="36.831"/><path class="sym" d="M -3,-3 l 6,6 M -3,3 l 6,-6"/><text class="lab rgt" transform="translate(5 0)">7</text></g><circle class="sym" cx="0" cy="0" r="3"/><text class="lab rgt" transform="translate(3 -7)">36</text></g><g class="a38 c2 m5 node n37 p2 s5" transform="translate(-157.047 211.873)"><g class="a37 c2 node n33 p2" transform="translate(78.3438 54.0036)"><g class="a33 i2 leaf m3 node n2 p1 s3 sample" transform="translate(-23 28.7234)"><path class="edge" d="M 0 0 V -28.7234 H 23"/><g class="mut m3 s3" transform="translate(0 -25.8713)"><line x1="0" x2="0" y1="0" y2="25.8713"/><path class="sym" d="M -3,-3 l 6,6 M -3,3 l 6,-6"/><text class="lab lft" transform="translate(-5 0)">3</text></g><rect class="sym" height="6" width="6" x="-3" y="-3"/><text class="lab" transform="translate(0 11)">2</text></g><g class="a33 i17 leaf node n17 p2 sample" transform="translate(23 28.7234)"><path class="edge" d="M 0 0 V -28.7234 H -23"/><rect class="sym" height="6" width="6" x="-3" y="-3"/><text class="lab" transform="translate(0 11)">17</text></g><path class="edge" d="M 0 0 V -54.0036 H -78.3438"/><circle class="sym" cx="0" cy="0" r="3"/><text class="lab rgt" transform="translate(3 -7)">33</text></g><g class="a37 c2 node n35 p2" transform="translate(-78.3438 23.6394)"><g class="a35 c2 m4 node n26 p1 s4" transform="translate(64.6875 50.8316)"><g class="a26 i14 leaf node n14 p2 sample" transform="translate(-23 8.25596)"><path class="edge" d="M 0 0 V -8.25596 H 23"/><rect class="sym" height="6" width="6" x="-3" y="-3"/><text class="lab" transform="translate(0 11)">14</text></g><g class="a26 i19 leaf node n19 p2 sample" transform="translate(23 8.25596)"><path class="edge" d="M 0 0 V -8.25596 H -23"/><rect class="sym" height="6" width="6" x="-3" y="-3"/><text class="lab" transform="translate(0 11)">19</text></g><path class="edge" d="M 0 0 V -50.8316 H -64.6875"/><g class="mut m4 s4" transform="translate(0 -27.3258)"><line x1="0" x2="0" y1="0" y2="27.3258"/><path class="sym" d="M -3,-3 l 6,6 M -3,3 l 6,-6"/><text class="lab rgt" transform="translate(5 0)">4</text></g><circle class="sym" cx="0" cy="0" r="3"/><text class="lab rgt" transform="translate(3 -7)">26</text></g><g class="a35 c2 node n34 p1" transform="translate(-64.6875 19.727)"><g class="a34 i4 leaf m0 node n4 p1 s0 sample" transform="translate(60.375 39.3606)"><path class="edge" d="M 0 0 V -39.3606 H -60.375"/><g class="mut m0 s0" transform="translate(0 -19.9512)"><line x1="0" x2="0" y1="0" y2="19.9512"/><path class="sym" d="M -3,-3 l 6,6 M -3,3 l 6,-6"/><text class="lab rgt" transform="translate(5 0)">0</text></g><rect class="sym" height="6" width="6" x="-3" y="-3"/><text class="lab" transform="translate(0 11)">4</text></g><g class="a34 c2 node n30 p1" transform="translate(-60.375 27.2754)"><g class="a30 i7 leaf node n7 p1 sample" transform="translate(74.75 12.0852)"><path class="edge" d="M 0 0 V -12.0852 H -74.75"/><rect class="sym" height="6" width="6" x="-3" y="-3"/><text class="lab" transform="translate(0 11)">7</text></g><g class="a30 c2 node n27 p1" transform="translate(-74.75 3.49259)"><g class="a27 c2 node n21 p1" transform="translate(69 6.31289)"><g class="a21 i15 leaf node n15 p2 sample" transform="translate(34.5 2.27974)"><path class="edge" d="M 0 0 V -2.27974 H -34.5"/><rect class="sym" height="6" width="6" x="-3" y="-3"/><text class="lab" transform="translate(0 11)">15</text></g><g class="a21 c2 node n20 p2" transform="translate(-34.5 0.958056)"><g class="a20 i5 leaf node n5 p1 sample" transform="translate(-23 1.32168)"><path class="edge" d="M 0 0 V -1.32168 H 23"/><rect class="sym" height="6" width="6" x="-3" y="-3"/><text class="lab" transform="translate(0 11)">5</text></g><g class="a20 i8 leaf node n8 p1 sample" transform="translate(23 1.32168)"><path class="edge" d="M 0 0 V -1.32168 H -23"/><rect class="sym" height="6" width="6" x="-3" y="-3"/><text class="lab" transform="translate(0 11)">8</text></g><path class="edge" d="M 0 0 V -0.958056 H 34.5"/><circle class="sym" cx="0" cy="0" r="3"/><text class="lab lft" transform="translate(-3 -7)">20</text></g><path class="edge" d="M 0 0 V -6.31289 H -69"/><circle class="sym" cx="0" cy="0" r="3"/><text class="lab rgt" transform="translate(3 -7)">21</text></g><g class="a27 c2 node n25 p1" transform="translate(-69 2.15813)"><g class="a25 i16 leaf node n16 p2 sample" transform="translate(34.5 6.43449)"><path class="edge" d="M 0 0 V -6.43449 H -34.5"/><rect class="sym" height="6" width="6" x="-3" y="-3"/><text class="lab" transform="translate(0 11)">16</text></g><g class="a25 c2 node n24 p1" transform="translate(-34.5 0.303274)"><g class="a24 i0 leaf node n0 p1 sample" transform="translate(-23 6.13122)"><path class="edge" d="M 0 0 V -6.13122 H 23"/><rect class="sym" height="6" width="6" x="-3" y="-3"/><text class="lab" transform="translate(0 11)">0</text></g><g class="a24 i12 leaf node n12 p2 sample" transform="translate(23 6.13122)"><path class="edge" d="M 0 0 V -6.13122 H -23"/><rect class="sym" height="6" width="6" x="-3" y="-3"/><text class="lab" transform="translate(0 11)">12</text></g><path class="edge" d="M 0 0 V -0.303274 H 34.5"/><circle class="sym" cx="0" cy="0" r="3"/><text class="lab lft" transform="translate(-3 -7)">24</text></g><path class="edge" d="M 0 0 V -2.15813 H 69"/><circle class="sym" cx="0" cy="0" r="3"/><text class="lab lft" transform="translate(-3 -7)">25</text></g><path class="edge" d="M 0 0 V -3.49259 H 74.75"/><circle class="sym" cx="0" cy="0" r="3"/><text class="lab lft" transform="translate(-3 -7)">27</text></g><path class="edge" d="M 0 0 V -27.2754 H 60.375"/><circle class="sym" cx="0" cy="0" r="3"/><text class="lab lft" transform="translate(-3 -7)">30</text></g><path class="edge" d="M 0 0 V -19.727 H 64.6875"/><circle class="sym" cx="0" cy="0" r="3"/><text class="lab lft" transform="translate(-3 -7)">34</text></g><path class="edge" d="M 0 0 V -23.6394 H 78.3438"/><circle class="sym" cx="0" cy="0" r="3"/><text class="lab lft" transform="translate(-3 -7)">35</text></g><path class="edge" d="M 0 0 V -211.873 H 157.047"/><g class="mut m5 s5" transform="translate(0 -83.5878)"><line x1="0" x2="0" y1="0" y2="83.5878"/><path class="sym" d="M -3,-3 l 6,6 M -3,3 l 6,-6"/><text class="lab lft" transform="translate(-5 0)">5</text></g><circle class="sym" cx="0" cy="0" r="3"/><text class="lab lft" transform="translate(-3 -7)">37</text></g><circle class="sym" cx="0" cy="0" r="3"/><text class="lab" transform="translate(0 -11)">38</text></g></g></g></g></g></svg>