<svg baseProfile="full" height="400" version="1.1" width="1000" xmlns="http://www.w3.org/2000/svg" xmlns:ev="http://www.w3.org/2001/xml-events" xmlns:xlink="http://www.w3.org/1999/xlink"><defs><style type="text/css"><![CDATA[.background path {fill: #808080; fill-opacity: 0}.background path:nth-child(odd) {fill-opacity: .1}.x-regions rect {fill: yellow; stroke: black; opacity: 0.5}.axes {font-size: 14px}.x-axis .tick .lab {font-weight: bold; dominant-baseline: hanging}.axes, .tree {font-size: 14px; text-anchor: middle}.axes line, .edge {stroke: black; fill: none}.axes .ax-skip {stroke-dasharray: 4}.y-axis .grid {stroke: #FAFAFA}.node > .sym {fill: black; stroke: none}.site > .sym {stroke: black}.mut text {fill: red; font-style: italic}.mut.extra text {fill: hotpink}.mut line {fill: none; stroke: none}.mut .sym {fill: none; stroke: red}.mut.extra .sym {stroke: hotpink}.node .mut .sym {stroke-width: 1.5px}.tree text, .tree-sequence text {dominant-baseline: central}.plotbox .lab.lft {text-anchor: end}.plotbox .lab.rgt {text-anchor: start}.polytomy line {stroke: black; stroke-dasharray: 1px, 1px}.polytomy text {paint-order:stroke;stroke-width:0.3em;stroke:white}]]></style></defs><g class="tree-sequence"><g class="background"><path d="M20,0 l960,0 l0,338.2 l0,25 l0,5 l-960,0 l0,-5 l0,-25 l0,-338.2z"/></g><g class="axes"><g class="x-axis"><g class="title" transform="translate(500 400)"><text class="lab" text-anchor="middle" transform="translate(0 -11)">Genome position</text></g><line class="ax-line" x1="20" x2="980" y1="363.2" y2="363.2"/><g class="ticks"><g class="tick" transform="translate(20 363.2)"><line x1="0" x2="0" y1="0" y2="5"/><g transform="translate(0 6)"><text class="lab">0</text></g></g><g class="tick" transform="translate(980 363.2)"><line x1="0" x2="0" y1="0" y2="5"/><g transform="translate(0 6)"><text class="lab">1000</text></g></g></g><g class="site s0" transform="translate(40.16 363.2)"><line class="sym" x1="0" x2="0" y1="0" y2="-10"/><g class="mut m0"><polyline class="sym" points="2.5,-6.5 0,-1.5 -2.5,-6.5"/></g></g><g class="site s1" transform="translate(138.08 363.2)"><line class="sym" x1="0" x2="0" y1="0" y2="-10"/><g class="mut m1"><polyline class="sym" points="2.5,-6.5 0,-1.5 -2.5,-6.5"/></g></g><g class="site s2" transform="translate(396.32 363.2)"><line class="sym" x1="0" x2="0" y1="0" y2="-10"/><g class="mut m2"><polyline class="sym" points="2.5,-6.5 0,-1.5 -2.5,-6.5"/></g></g><g class="site s3" transform="translate(689.12 363.2)"><line class="sym" x1="0" x2="0" y1="0" y2="-10"/><g class="mut m3"><polyline class="sym" points="2.5,-6.5 0,-1.5 -2.5,-6.5"/></g></g><g class="site s4" transform="translate(840.8 363.2)"><line class="sym" x1="0" x2="0" y1="0" y2="-10"/><g class="mut m4"><polyline class="sym" points="2.5,-6.5 0,-1.5 -2.5,-6.5"/></g></g></g></g><g class="plotbox trees"><g class="tree t0" transform="translate(20 0)"><g class="plotbox"><g class="c2 node n38 p0 root" transform="translate(697.422 26.8)"><g class="a38 i2 leaf m1 node n2 p1 s1 sample" transform="translate(219.578 294.6)"><path class="edge" d="M 0 0 V -294.6 H -219.578"/><g class="mut m1 s1" transform="translate(0 -293.719)"><line x1="0" x2="0" y1="0" y2="293.719"/><path class="sym" d="M -3,-3 l 6,6 M -3,3 l 6,-6"/><text class="lab rgt" transform="translate(5 0)">1</text></g><rect class="sym" height="6" width="6" x="-3" y="-3"/><text class="lab" transform="translate(0 11)">2</text></g><g class="a38 c2 node n37 p2" transform="translate(-219.578 75.6651)"><g class="a37 c2 m4 node n32 p1 s4" transform="translate(219.219 188.484)"><g class="a32 c2 node n27 p2" transform="translate(-125.062 12.588)"><g class="a27 c2 node n24 p1" transform="translate(-46 9.68371)"><g class="a24 i3 leaf node n3 p1 sample" transform="translate(-23 8.17972)"><path class="edge" d="M 0 0 V -8.17972 H 23"/><rect class="sym" height="6" width="6" x="-3" y="-3"/><text class="lab" transform="translate(0 11)">3</text></g><g class="a24 i8 leaf node n8 p1 sample" transform="translate(23 8.17972)"><path class="edge" d="M 0 0 V -8.17972 H -23"/><rect class="sym" height="6" width="6" x="-3" y="-3"/><text class="lab" transform="translate(0 11)">8</text></g><path class="edge" d="M 0 0 V -9.68371 H 46"/><circle class="sym" cx="0" cy="0" r="3"/><text class="lab lft" transform="translate(-3 -7)">24</text></g><g class="a27 c2 node n26 p2" transform="translate(46 6.51183)"><g class="a26 i5 leaf node n5 p1 sample" transform="translate(-23 11.3516)"><path class="edge" d="M 0 0 V -11.3516 H 23"/><rect class="sym" height="6" width="6" x="-3" y="-3"/><text class="lab" transform="translate(0 11)">5</text></g><g class="a26 i17 leaf node n17 p2 sample" transform="translate(23 11.3516)"><path class="edge" d="M 0 0 V -11.3516 H -23"/><rect class="sym" height="6" width="6" x="-3" y="-3"/><text class="lab" transform="translate(0 11)">17</text></g><path class="edge" d="M 0 0 V -6.51183 H -46"/><circle class="sym" cx="0" cy="0" r="3"/><text class="lab rgt" transform="translate(3 -7)">26</text></g><path class="edge" d="M 0 0 V -12.588 H 125.062"/><circle class="sym" cx="0" cy="0" r="3"/><text class="lab lft" transform="translate(-3 -7)">27</text></g><g class="a32 c2 node n30 p1" transform="translate(125.062 2.05783)"><g class="a30 i14 leaf node n14 p2 sample" transform="translate(48.875 28.3936)"><path class="edge" d="M 0 0 V -28.3936 H -48.875"/><rect class="sym" height="6" width="6" x="-3" y="-3"/><text class="lab" transform="translate(0 11)">14</text></g><g class="a30 c2 node n29 p1" transform="translate(-48.875 2.83532)"><g class="a29 i10 leaf node n10 p2 sample" transform="translate(51.75 25.5582)"><path class="edge" d="M 0 0 V -25.5582 H -51.75"/><rect class="sym" height="6" width="6" x="-3" y="-3"/><text class="lab" transform="translate(0 11)">10</text></g><g class="a29 c2 node n25 p1" transform="translate(-51.75 16.8438)"><g class="a25 i9 leaf node n9 p1 sample" transform="translate(-34.5 8.7144)"><path class="edge" d="M 0 0 V -8.7144 H 34.5"/><rect class="sym" height="6" width="6" x="-3" y="-3"/><text class="lab" transform="translate(0 11)">9</text></g><g class="a25 c2 m0 node n21 p1 s0" transform="translate(34.5 7.13789)"><g class="a21 i11 leaf node n11 p2 sample" transform="translate(-23 1.57651)"><path class="edge" d="M 0 0 V -1.57651 H 23"/><rect class="sym" height="6" width="6" x="-3" y="-3"/><text class="lab" transform="translate(0 11)">11</text></g><g class="a21 i13 leaf node n13 p2 sample" transform="translate(23 1.57651)"><path class="edge" d="M 0 0 V -1.57651 H -23"/><rect class="sym" height="6" width="6" x="-3" y="-3"/><text class="lab" transform="translate(0 11)">13</text></g><path class="edge" d="M 0 0 V -7.13789 H -34.5"/><g class="mut m0 s0" transform="translate(0 -6.00446)"><line x1="0" x2="0" y1="0" y2="6.00446"/><path class="sym" d="M -3,-3 l 6,6 M -3,3 l 6,-6"/><text class="lab rgt" transform="translate(5 0)">0</text></g><circle class="sym" cx="0" cy="0" r="3"/><text class="lab rgt" transform="translate(3 -7)">21</text></g><path class="edge" d="M 0 0 V -16.8438 H 51.75"/><circle class="sym" cx="0" cy="0" r="3"/><text class="lab lft" transform="translate(-3 -7)">25</text></g><path class="edge" d="M 0 0 V -2.83532 H 48.875"/><circle class="sym" cx="0" cy="0" r="3"/><text class="lab lft" transform="translate(-3 -7)">29</text></g><path class="edge" d="M 0 0 V -2.05783 H -125.062"/><circle class="sym" cx="0" cy="0" r="3"/><text class="lab rgt" transform="translate(3 -7)">30</text></g><path class="edge" d="M 0 0 V -188.484 H -219.219"/><g class="mut m4 s4" transform="translate(0 -57.703)"><line x1="0" x2="0" y1="0" y2="57.703"/><path class="sym" d="M -3,-3 l 6,6 M -3,3 l 6,-6"/><text class="lab rgt" transform="translate(5 0)">4</text></g><circle class="sym" cx="0" cy="0" r="3"/><text class="lab rgt" transform="translate(3 -7)">32</text></g><g class="a37 c2 m2 m3 node n36 p2 s2 s3" transform="translate(-219.219 161.018)"><g class="a36 c2 node n33 p2" transform="translate(-146.625 20.092)"><g class="a33 c2 node n20 p1" transform="translate(-46 37.769)"><g class="a20 i0 leaf node n0 p1 sample" transform="translate(-23 0.055913)"><path class="edge" d="M 0 0 V -0.055913 H 23"/><rect class="sym" height="6" width="6" x="-3" y="-3"/><text class="lab" transform="translate(0 11)">0</text></g><g class="a20 i7 leaf node n7 p1 sample" transform="translate(23 0.055913)"><path class="edge" d="M 0 0 V -0.055913 H -23"/><rect class="sym" height="6" width="6" x="-3" y="-3"/><text class="lab" transform="translate(0 11)">7</text></g><path class="edge" d="M 0 0 V -37.769 H 46"/><circle class="sym" cx="0" cy="0" r="3"/><text class="lab lft" transform="translate(-3 -7)">20</text></g><g class="a33 c2 node n28 p2" transform="translate(46 15.2929)"><g class="a28 i12 leaf node n12 p2 sample" transform="translate(-23 22.532)"><path class="edge" d="M 0 0 V -22.532 H 23"/><rect class="sym" height="6" width="6" x="-3" y="-3"/><text class="lab" transform="translate(0 11)">12</text></g><g class="a28 i18 leaf node n18 p2 sample" transform="translate(23 22.532)"><path class="edge" d="M 0 0 V -22.532 H -23"/><rect class="sym" height="6" width="6" x="-3" y="-3"/><text class="lab" transform="translate(0 11)">18</text></g><path class="edge" d="M 0 0 V -15.2929 H -46"/><circle class="sym" cx="0" cy="0" r="3"/><text class="lab rgt" transform="translate(3 -7)">28</text></g><path class="edge" d="M 0 0 V -20.092 H 146.625"/><circle class="sym" cx="0" cy="0" r="3"/><text class="lab lft" transform="translate(-3 -7)">33</text></g><g class="a36 c2 node n35 p1" transform="translate(146.625 10.494)"><g class="a35 i16 leaf node n16 p2 sample" transform="translate(51.75 47.423)"><path class="edge" d="M 0 0 V -47.423 H -51.75"/><rect class="sym" height="6" width="6" x="-3" y="-3"/><text class="lab" transform="translate(0 11)">16</text></g><g class="a35 c2 node n34 p1" transform="translate(-51.75 7.10077)"><g class="a34 i15 leaf node n15 p2 sample" transform="translate(57.5 40.3222)"><path class="edge" d="M 0 0 V -40.3222 H -57.5"/><rect class="sym" height="6" width="6" x="-3" y="-3"/><text class="lab" transform="translate(0 11)">15</text></g><g class="a34 c2 node n31 p1" transform="translate(-57.5 11.4502)"><g class="a31 c2 node n22 p1" transform="translate(-46 26.0822)"><g class="a22 i1 leaf node n1 p1 sample" transform="translate(-23 2.78983)"><path class="edge" d="M 0 0 V -2.78983 H 23"/><rect class="sym" height="6" width="6" x="-3" y="-3"/><text class="lab" transform="translate(0 11)">1</text></g><g class="a22 i6 leaf node n6 p1 sample" transform="translate(23 2.78983)"><path class="edge" d="M 0 0 V -2.78983 H -23"/><rect class="sym" height="6" width="6" x="-3" y="-3"/><text class="lab" transform="translate(0 11)">6</text></g><path class="edge" d="M 0 0 V -26.0822 H 46"/><circle class="sym" cx="0" cy="0" r="3"/><text class="lab lft" transform="translate(-3 -7)">22</text></g><g class="a31 c2 node n23 p1" transform="translate(46 23.1563)"><g class="a23 i4 leaf node n4 p1 sample" transform="translate(-23 5.71572)"><path class="edge" d="M 0 0 V -5.71572 H 23"/><rect class="sym" height="6" width="6" x="-3" y="-3"/><text class="lab" transform="translate(0 11)">4</text></g><g class="a23 i19 leaf node n19 p2 sample" transform="translate(23 5.71572)"><path class="edge" d="M 0 0 V -5.71572 H -23"/><rect class="sym" height="6" width="6" x="-3" y="-3"/><text class="lab" transform="translate(0 11)">19</text></g><path class="edge" d="M 0 0 V -23.1563 H -46"/><circle class="sym" cx="0" cy="0" r="3"/><text class="lab rgt" transform="translate(3 -7)">23</text></g><path class="edge" d="M 0 0 V -11.4502 H 57.5"/><circle class="sym" cx="0" cy="0" r="3"/><text class="lab lft" transform="translate(-3 -7)">31</text></g><path class="edge" d="M 0 0 V -7.10077 H 51.75"/><circle class="sym" cx="0" cy="0" r="3"/><text class="lab lft" transform="translate(-3 -7)">34</text></g><path class="edge" d="M 0 0 V -10.494 H -146.625"/><circle class="sym" cx="0" cy="0" r="3"/><text class="lab rgt" transform="translate(3 -7)">35</text></g><path class="edge" d="M 0 0 V -161.018 H 219.219"/><g class="mut m3 s3" transform="translate(0 -52.5197)"><line x1="0" x2="0" y1="0" y2="52.5197"/><path class="sym" d="M -3,-3 l 6,6 M -3,3 l 6,-6"/><text class="lab lft" transform="translate(-5 0)">3</text></g><g class="mut m2 s2" transform="translate(0 -10.4661)"><line x1="0" x2="0" y1="0" y2="10.4661"/><path class="sym" d="M -3,-3 l 6,6 M -3,3 l 6,-6"/><text class="lab lft" transform="translate(-5 0)">2</text></g><circle class="sym" cx="0" cy="0" r="3"/><text class="lab lft" transform="translate(-3 -7)">36</text></g><path class="edge" d="M 0 0 V -75.6651 H 219.578"/><circle class="sym" cx="0" cy="0" r="3"/><text class="lab lft" transform="translate(-3 -7)">37</text></g><circle class="sym" cx="0" cy="0" r="3"/><text class="lab" transform="translate(0 -11)">38</text></g></g></g></g></g></svg>