<svg baseProfile="full" height="400" version="1.1" width="1000" xmlns="http://www.w3.org/2000/svg" xmlns:ev="http://www.w3.org/2001/xml-events" xmlns:xlink="http://www.w3.org/1999/xlink"><defs><style type="text/css"><![CDATA[.background path {fill: #808080; fill-opacity: 0}.background path:nth-child(odd) {fill-opacity: .1}.x-regions rect {fill: yellow; stroke: black; opacity: 0.5}.axes {font-size: 14px}.x-axis .tick .lab {font-weight: bold; dominant-baseline: hanging}.axes, .tree {font-size: 14px; text-anchor: middle}.axes line, .edge {stroke: black; fill: none}.axes .ax-skip {stroke-dasharray: 4}.y-axis .grid {stroke: #FAFAFA}.node > .sym {fill: black; stroke: none}.site > .sym {stroke: black}.mut text {fill: red; font-style: italic}.mut.extra text {fill: hotpink}.mut line {fill: none; stroke: none}.mut .sym {fill: none; stroke: red}.mut.extra .sym {stroke: hotpink}.node .mut .sym {stroke-width: 1.5px}.tree text, .tree-sequence text {dominant-baseline: central}.plotbox .lab.lft {text-anchor: end}.plotbox .lab.rgt {text-anchor: start}.polytomy line {stroke: black; stroke-dasharray: 1px, 1px}.polytomy text {paint-order:stroke;stroke-width:0.3em;stroke:white}]]></style></defs><g class="tree-sequence"><g class="background"><path d="M20,0 l960,0 l0,338.2 l0,25 l0,5 l-960,0 l0,-5 l0,-25 l0,-338.2z"/></g><g class="axes"><g class="x-axis"><g class="title" transform="translate(500 400)"><text class="lab" text-anchor="middle" transform="translate(0 -11)">Genome position</text></g><line class="ax-line" x1="20" x2="980" y1="363.2" y2="363.2"/><g class="ticks"><g class="tick" transform="translate(20 363.2)"><line x1="0" x2="0" y1="0" y2="5"/><g transform="translate(0 6)"><text class="lab">0</text></g></g><g class="tick" transform="translate(980 363.2)"><line x1="0" x2="0" y1="0" y2="5"/><g transform="translate(0 6)"><text class="lab">1000</text></g></g></g><g class="site s0" transform="translate(75.68 363.2)"><line class="sym" x1="0" x2="0" y1="0" y2="-10"/><g class="mut m0"><polyline class="sym" points="2.5,-6.5 0,-1.5 -2.5,-6.5"/></g></g><g class="site s1" transform="translate(961.76 363.2)"><line class="sym" x1="0" x2="0" y1="0" y2="-10"/><g class="mut m1"><polyline class="sym" points="2.5,-6.5 0,-1.5 -2.5,-6.5"/></g></g></g></g><g class="plotbox trees"><g class="tree t0" transform="translate(20 0)"><g class="plotbox"><g class="c2 node n38 p2 root" transform="translate(540.375 26.8)"><g class="a38 c2 m1 node n31 p1 s1" transform="translate(-208.438 271.592)"><g class="a31 c2 node n21 p2" transform="translate(102.062 22.0101)"><g class="a21 i2 leaf node n2 p1 sample" transform="translate(-23 0.99742)"><path class="edge" d="M 0 0 V -0.99742 H 23"/><rect class="sym" height="6" width="6" x="-3" y="-3"/><text class="lab" transform="translate(0 11)">2</text></g><g class="a21 i7 leaf node n7 p1 sample" transform="translate(23 0.99742)"><path class="edge" d="M 0 0 V -0.99742 H -23"/><rect class="sym" height="6" width="6" x="-3" y="-3"/><text class="lab" transform="translate(0 11)">7</text></g><path class="edge" d="M 0 0 V -22.0101 H -102.062"/><circle class="sym" cx="0" cy="0" r="3"/><text class="lab rgt" transform="translate(3 -7)">21</text></g><g class="a31 c2 node n30 p1" transform="translate(-102.062 1.13515)"><g class="a30 c2 node n28 p1" transform="translate(-77.625 4.74701)"><g class="a28 c2 node n24 p1" transform="translate(51.75 13.0065)"><g class="a24 i1 leaf node n1 p1 sample" transform="translate(-23 4.11889)"><path class="edge" d="M 0 0 V -4.11889 H 23"/><rect class="sym" height="6" width="6" x="-3" y="-3"/><text class="lab" transform="translate(0 11)">1</text></g><g class="a24 i10 leaf node n10 p2 sample" transform="translate(23 4.11889)"><path class="edge" d="M 0 0 V -4.11889 H -23"/><rect class="sym" height="6" width="6" x="-3" y="-3"/><text class="lab" transform="translate(0 11)">10</text></g><path class="edge" d="M 0 0 V -13.0065 H -51.75"/><circle class="sym" cx="0" cy="0" r="3"/><text class="lab rgt" transform="translate(3 -7)">24</text></g><g class="a28 c2 node n27 p2" transform="translate(-51.75 5.75247)"><g class="a27 i16 leaf node n16 p2 sample" transform="translate(34.5 11.3729)"><path class="edge" d="M 0 0 V -11.3729 H -34.5"/><rect class="sym" height="6" width="6" x="-3" y="-3"/><text class="lab" transform="translate(0 11)">16</text></g><g class="a27 c2 node n20 p1" transform="translate(-34.5 10.5723)"><g class="a20 i0 leaf node n0 p1 sample" transform="translate(-23 0.800639)"><path class="edge" d="M 0 0 V -0.800639 H 23"/><rect class="sym" height="6" width="6" x="-3" y="-3"/><text class="lab" transform="translate(0 11)">0</text></g><g class="a20 i9 leaf node n9 p1 sample" transform="translate(23 0.800639)"><path class="edge" d="M 0 0 V -0.800639 H -23"/><rect class="sym" height="6" width="6" x="-3" y="-3"/><text class="lab" transform="translate(0 11)">9</text></g><path class="edge" d="M 0 0 V -10.5723 H 34.5"/><circle class="sym" cx="0" cy="0" r="3"/><text class="lab lft" transform="translate(-3 -7)">20</text></g><path class="edge" d="M 0 0 V -5.75247 H 51.75"/><circle class="sym" cx="0" cy="0" r="3"/><text class="lab lft" transform="translate(-3 -7)">27</text></g><path class="edge" d="M 0 0 V -4.74701 H 77.625"/><circle class="sym" cx="0" cy="0" r="3"/><text class="lab lft" transform="translate(-3 -7)">28</text></g><g class="a30 c2 node n29 p1" transform="translate(77.625 4.61154)"><g class="a29 i4 leaf node n4 p1 sample" transform="translate(-34.5 17.2609)"><path class="edge" d="M 0 0 V -17.2609 H 34.5"/><rect class="sym" height="6" width="6" x="-3" y="-3"/><text class="lab" transform="translate(0 11)">4</text></g><g class="a29 c2 node n25 p1" transform="translate(34.5 10.3353)"><g class="a25 i11 leaf node n11 p2 sample" transform="translate(-23 6.92554)"><path class="edge" d="M 0 0 V -6.92554 H 23"/><rect class="sym" height="6" width="6" x="-3" y="-3"/><text class="lab" transform="translate(0 11)">11</text></g><g class="a25 i18 leaf node n18 p2 sample" transform="translate(23 6.92554)"><path class="edge" d="M 0 0 V -6.92554 H -23"/><rect class="sym" height="6" width="6" x="-3" y="-3"/><text class="lab" transform="translate(0 11)">18</text></g><path class="edge" d="M 0 0 V -10.3353 H -34.5"/><circle class="sym" cx="0" cy="0" r="3"/><text class="lab rgt" transform="translate(3 -7)">25</text></g><path class="edge" d="M 0 0 V -4.61154 H -77.625"/><circle class="sym" cx="0" cy="0" r="3"/><text class="lab rgt" transform="translate(3 -7)">29</text></g><path class="edge" d="M 0 0 V -1.13515 H 102.062"/><circle class="sym" cx="0" cy="0" r="3"/><text class="lab lft" transform="translate(-3 -7)">30</text></g><path class="edge" d="M 0 0 V -271.592 H 208.438"/><g class="mut m1 s1" transform="translate(0 -123.027)"><line x1="0" x2="0" y1="0" y2="123.027"/><path class="sym" d="M -3,-3 l 6,6 M -3,3 l 6,-6"/><text class="lab lft" transform="translate(-5 0)">1</text></g><circle class="sym" cx="0" cy="0" r="3"/><text class="lab lft" transform="translate(-3 -7)">31</text></g><g class="a38 c2 node n37 p2" transform="translate(208.438 59.7253)"><g class="a37 c2 node n34 p2" transform="translate(-81.9375 159.807)"><g class="a34 i15 leaf node n15 p2 sample" transform="translate(66.125 75.0672)"><path class="edge" d="M 0 0 V -75.0672 H -66.125"/><rect class="sym" height="6" width="6" x="-3" y="-3"/><text class="lab" transform="translate(0 11)">15</text></g><g class="a34 c2 node n33 p1" transform="translate(-66.125 17.3219)"><g class="a33 c2 node n23 p2" transform="translate(-63.25 54.1002)"><g class="a23 i3 leaf node n3 p1 sample" transform="translate(-34.5 3.64515)"><path class="edge" d="M 0 0 V -3.64515 H 34.5"/><rect class="sym" height="6" width="6" x="-3" y="-3"/><text class="lab" transform="translate(0 11)">3</text></g><g class="a23 c2 node n22 p1" transform="translate(34.5 1.78376)"><g class="a22 i5 leaf node n5 p1 sample" transform="translate(-23 1.86139)"><path class="edge" d="M 0 0 V -1.86139 H 23"/><rect class="sym" height="6" width="6" x="-3" y="-3"/><text class="lab" transform="translate(0 11)">5</text></g><g class="a22 i6 leaf node n6 p1 sample" transform="translate(23 1.86139)"><path class="edge" d="M 0 0 V -1.86139 H -23"/><rect class="sym" height="6" width="6" x="-3" y="-3"/><text class="lab" transform="translate(0 11)">6</text></g><path class="edge" d="M 0 0 V -1.78376 H -34.5"/><circle class="sym" cx="0" cy="0" r="3"/><text class="lab rgt" transform="translate(3 -7)">22</text></g><path class="edge" d="M 0 0 V -54.1002 H 63.25"/><circle class="sym" cx="0" cy="0" r="3"/><text class="lab lft" transform="translate(-3 -7)">23</text></g><g class="a33 c2 node n32 p2" transform="translate(63.25 27.8857)"><g class="a32 i12 leaf node n12 p2 sample" transform="translate(-23 29.8596)"><path class="edge" d="M 0 0 V -29.8596 H 23"/><rect class="sym" height="6" width="6" x="-3" y="-3"/><text class="lab" transform="translate(0 11)">12</text></g><g class="a32 i13 leaf node n13 p2 sample" transform="translate(23 29.8596)"><path class="edge" d="M 0 0 V -29.8596 H -23"/><rect class="sym" height="6" width="6" x="-3" y="-3"/><text class="lab" transform="translate(0 11)">13</text></g><path class="edge" d="M 0 0 V -27.8857 H -63.25"/><circle class="sym" cx="0" cy="0" r="3"/><text class="lab rgt" transform="translate(3 -7)">32</text></g><path class="edge" d="M 0 0 V -17.3219 H 66.125"/><circle class="sym" cx="0" cy="0" r="3"/><text class="lab lft" transform="translate(-3 -7)">33</text></g><path class="edge" d="M 0 0 V -159.807 H 81.9375"/><circle class="sym" cx="0" cy="0" r="3"/><text class="lab lft" transform="translate(-3 -7)">34</text></g><g class="a37 c2 node n36 p1" transform="translate(81.9375 132.541)"><g class="a36 i8 leaf node n8 p1 sample" transform="translate(-51.75 102.334)"><path class="edge" d="M 0 0 V -102.334 H 51.75"/><rect class="sym" height="6" width="6" x="-3" y="-3"/><text class="lab" transform="translate(0 11)">8</text></g><g class="a36 c2 node n35 p1" transform="translate(51.75 17.8971)"><g class="a35 i17 leaf m0 node n17 p2 s0 sample" transform="translate(34.5 84.4365)"><path class="edge" d="M 0 0 V -84.4365 H -34.5"/><g class="mut m0 s0" transform="translate(0 -24.5201)"><line x1="0" x2="0" y1="0" y2="24.5201"/><path class="sym" d="M -3,-3 l 6,6 M -3,3 l 6,-6"/><text class="lab rgt" transform="translate(5 0)">0</text></g><rect class="sym" height="6" width="6" x="-3" y="-3"/><text class="lab" transform="translate(0 11)">17</text></g><g class="a35 c2 node n26 p2" transform="translate(-34.5 75.8528)"><g class="a26 i14 leaf node n14 p2 sample" transform="translate(-23 8.58371)"><path class="edge" d="M 0 0 V -8.58371 H 23"/><rect class="sym" height="6" width="6" x="-3" y="-3"/><text class="lab" transform="translate(0 11)">14</text></g><g class="a26 i19 leaf node n19 p2 sample" transform="translate(23 8.58371)"><path class="edge" d="M 0 0 V -8.58371 H -23"/><rect class="sym" height="6" width="6" x="-3" y="-3"/><text class="lab" transform="translate(0 11)">19</text></g><path class="edge" d="M 0 0 V -75.8528 H 34.5"/><circle class="sym" cx="0" cy="0" r="3"/><text class="lab lft" transform="translate(-3 -7)">26</text></g><path class="edge" d="M 0 0 V -17.8971 H -51.75"/><circle class="sym" cx="0" cy="0" r="3"/><text class="lab rgt" transform="translate(3 -7)">35</text></g><path class="edge" d="M 0 0 V -132.541 H -81.9375"/><circle class="sym" cx="0" cy="0" r="3"/><text class="lab rgt" transform="translate(3 -7)">36</text></g><path class="edge" d="M 0 0 V -59.7253 H -208.438"/><circle class="sym" cx="0" cy="0" r="3"/><text class="lab rgt" transform="translate(3 -7)">37</text></g><circle class="sym" cx="0" cy="0" r="3"/><text class="lab" transform="translate(0 -11)">38</text></g></g></g></g></g></svg>