<svg baseProfile="full" height="400" version="1.1" width="1000" xmlns="http://www.w3.org/2000/svg" xmlns:ev="http://www.w3.org/2001/xml-events" xmlns:xlink="http://www.w3.org/1999/xlink"><defs><style type="text/css"><![CDATA[.background path {fill: #808080; fill-opacity: 0}.background path:nth-child(odd) {fill-opacity: .1}.x-regions rect {fill: yellow; stroke: black; opacity: 0.5}.axes {font-size: 14px}.x-axis .tick .lab {font-weight: bold; dominant-baseline: hanging}.axes, .tree {font-size: 14px; text-anchor: middle}.axes line, .edge {stroke: black; fill: none}.axes .ax-skip {stroke-dasharray: 4}.y-axis .grid {stroke: #FAFAFA}.node > .sym {fill: black; stroke: none}.site > .sym {stroke: black}.mut text {fill: red; font-style: italic}.mut.extra text {fill: hotpink}.mut line {fill: none; stroke: none}.mut .sym {fill: none; stroke: red}.mut.extra .sym {stroke: hotpink}.node .mut .sym {stroke-width: 1.5px}.tree text, .tree-sequence text {dominant-baseline: central}.plotbox .lab.lft {text-anchor: end}.plotbox .lab.rgt {text-anchor: start}.polytomy line {stroke: black; stroke-dasharray: 1px, 1px}.polytomy text {paint-order:stroke;stroke-width:0.3em;stroke:white}]]></style></defs><g class="tree-sequence"><g class="background"><path d="M20,0 l960,0 l0,338.2 l0,25 l0,5 l-960,0 l0,-5 l0,-25 l0,-338.2z"/></g><g class="axes"><g class="x-axis"><g class="title" transform="translate(500 400)"><text class="lab" text-anchor="middle" transform="translate(0 -11)">Genome position</text></g><line class="ax-line" x1="20" x2="980" y1="363.2" y2="363.2"/><g class="ticks"><g class="tick" transform="translate(20 363.2)"><line x1="0" x2="0" y1="0" y2="5"/><g transform="translate(0 6)"><text class="lab">0</text></g></g><g class="tick" transform="translate(980 363.2)"><line x1="0" x2="0" y1="0" y2="5"/><g transform="translate(0 6)"><text class="lab">1000</text></g></g></g><g class="site s0" transform="translate(855.2 363.2)"><line class="sym" x1="0" x2="0" y1="0" y2="-10"/><g class="mut m0"><polyline class="sym" points="2.5,-6.5 0,-1.5 -2.5,-6.5"/></g></g></g></g><g class="plotbox trees"><g class="tree t0" transform="translate(20 0)"><g class="plotbox"><g class="c2 node n38 p1 root" transform="translate(724.914 26.8)"><g class="a38 c2 node n34 p2" transform="translate(169.086 214.619)"><g class="a34 i12 leaf node n12 p2 sample" transform="translate(-23 79.9807)"><path class="edge" d="M 0 0 V -79.9807 H 23"/><rect class="sym" height="6" width="6" x="-3" y="-3"/><text class="lab" transform="translate(0 11)">12</text></g><g class="a34 i18 leaf node n18 p2 sample" transform="translate(23 79.9807)"><path class="edge" d="M 0 0 V -79.9807 H -23"/><rect class="sym" height="6" width="6" x="-3" y="-3"/><text class="lab" transform="translate(0 11)">18</text></g><path class="edge" d="M 0 0 V -214.619 H -169.086"/><circle class="sym" cx="0" cy="0" r="3"/><text class="lab rgt" transform="translate(3 -7)">34</text></g><g class="a38 c2 node n37 p2" transform="translate(-169.086 70.054)"><g class="a37 c2 m0 node n28 p2 s0" transform="translate(234.672 198.02)"><g class="a28 i13 leaf node n13 p2 sample" transform="translate(34.5 26.5258)"><path class="edge" d="M 0 0 V -26.5258 H -34.5"/><rect class="sym" height="6" width="6" x="-3" y="-3"/><text class="lab" transform="translate(0 11)">13</text></g><g class="a28 c2 node n27 p2" transform="translate(-34.5 2.24523)"><g class="a27 i11 leaf node n11 p2 sample" transform="translate(-23 24.2806)"><path class="edge" d="M 0 0 V -24.2806 H 23"/><rect class="sym" height="6" width="6" x="-3" y="-3"/><text class="lab" transform="translate(0 11)">11</text></g><g class="a27 i19 leaf node n19 p2 sample" transform="translate(23 24.2806)"><path class="edge" d="M 0 0 V -24.2806 H -23"/><rect class="sym" height="6" width="6" x="-3" y="-3"/><text class="lab" transform="translate(0 11)">19</text></g><path class="edge" d="M 0 0 V -2.24523 H 34.5"/><circle class="sym" cx="0" cy="0" r="3"/><text class="lab lft" transform="translate(-3 -7)">27</text></g><path class="edge" d="M 0 0 V -198.02 H -234.672"/><g class="mut m0 s0" transform="translate(0 -52.8424)"><line x1="0" x2="0" y1="0" y2="52.8424"/><path class="sym" d="M -3,-3 l 6,6 M -3,3 l 6,-6"/><text class="lab rgt" transform="translate(5 0)">0</text></g><circle class="sym" cx="0" cy="0" r="3"/><text class="lab rgt" transform="translate(3 -7)">28</text></g><g class="a37 c2 node n36 p2" transform="translate(-234.672 77.8332)"><g class="a36 c2 node n33 p1" transform="translate(180.406 97.6451)"><g class="a33 c2 node n29 p1" transform="translate(-142.312 21.0657)"><g class="a29 c2 node n20 p2" transform="translate(-63.25 27.6518)"><g class="a20 i1 leaf node n1 p1 sample" transform="translate(-23 0.350113)"><path class="edge" d="M 0 0 V -0.350113 H 23"/><rect class="sym" height="6" width="6" x="-3" y="-3"/><text class="lab" transform="translate(0 11)">1</text></g><g class="a20 i17 leaf node n17 p2 sample" transform="translate(23 0.350113)"><path class="edge" d="M 0 0 V -0.350113 H -23"/><rect class="sym" height="6" width="6" x="-3" y="-3"/><text class="lab" transform="translate(0 11)">17</text></g><path class="edge" d="M 0 0 V -27.6518 H 63.25"/><circle class="sym" cx="0" cy="0" r="3"/><text class="lab lft" transform="translate(-3 -7)">20</text></g><g class="a29 c2 node n23 p2" transform="translate(63.25 20.8)"><g class="a23 i10 leaf node n10 p2 sample" transform="translate(34.5 7.20195)"><path class="edge" d="M 0 0 V -7.20195 H -34.5"/><rect class="sym" height="6" width="6" x="-3" y="-3"/><text class="lab" transform="translate(0 11)">10</text></g><g class="a23 c2 node n21 p1" transform="translate(-34.5 5.95078)"><g class="a21 i3 leaf node n3 p1 sample" transform="translate(-23 1.25117)"><path class="edge" d="M 0 0 V -1.25117 H 23"/><rect class="sym" height="6" width="6" x="-3" y="-3"/><text class="lab" transform="translate(0 11)">3</text></g><g class="a21 i8 leaf node n8 p1 sample" transform="translate(23 1.25117)"><path class="edge" d="M 0 0 V -1.25117 H -23"/><rect class="sym" height="6" width="6" x="-3" y="-3"/><text class="lab" transform="translate(0 11)">8</text></g><path class="edge" d="M 0 0 V -5.95078 H 34.5"/><circle class="sym" cx="0" cy="0" r="3"/><text class="lab lft" transform="translate(-3 -7)">21</text></g><path class="edge" d="M 0 0 V -20.8 H -63.25"/><circle class="sym" cx="0" cy="0" r="3"/><text class="lab rgt" transform="translate(3 -7)">23</text></g><path class="edge" d="M 0 0 V -21.0657 H 142.312"/><circle class="sym" cx="0" cy="0" r="3"/><text class="lab lft" transform="translate(-3 -7)">29</text></g><g class="a33 c2 node n32 p2" transform="translate(142.312 7.19757)"><g class="a32 i16 leaf node n16 p2 sample" transform="translate(43.125 41.8701)"><path class="edge" d="M 0 0 V -41.8701 H -43.125"/><rect class="sym" height="6" width="6" x="-3" y="-3"/><text class="lab" transform="translate(0 11)">16</text></g><g class="a32 c2 node n25 p1" transform="translate(-43.125 28.8341)"><g class="a25 i15 leaf node n15 p2 sample" transform="translate(40.25 13.036)"><path class="edge" d="M 0 0 V -13.036 H -40.25"/><rect class="sym" height="6" width="6" x="-3" y="-3"/><text class="lab" transform="translate(0 11)">15</text></g><g class="a25 c2 node n24 p2" transform="translate(-40.25 3.15968)"><g class="a24 i7 leaf node n7 p1 sample" transform="translate(34.5 9.87631)"><path class="edge" d="M 0 0 V -9.87631 H -34.5"/><rect class="sym" height="6" width="6" x="-3" y="-3"/><text class="lab" transform="translate(0 11)">7</text></g><g class="a24 c2 node n22 p2" transform="translate(-34.5 4.26667)"><g class="a22 i5 leaf node n5 p1 sample" transform="translate(-23 5.60964)"><path class="edge" d="M 0 0 V -5.60964 H 23"/><rect class="sym" height="6" width="6" x="-3" y="-3"/><text class="lab" transform="translate(0 11)">5</text></g><g class="a22 i9 leaf node n9 p1 sample" transform="translate(23 5.60964)"><path class="edge" d="M 0 0 V -5.60964 H -23"/><rect class="sym" height="6" width="6" x="-3" y="-3"/><text class="lab" transform="translate(0 11)">9</text></g><path class="edge" d="M 0 0 V -4.26667 H 34.5"/><circle class="sym" cx="0" cy="0" r="3"/><text class="lab lft" transform="translate(-3 -7)">22</text></g><path class="edge" d="M 0 0 V -3.15968 H 40.25"/><circle class="sym" cx="0" cy="0" r="3"/><text class="lab lft" transform="translate(-3 -7)">24</text></g><path class="edge" d="M 0 0 V -28.8341 H 43.125"/><circle class="sym" cx="0" cy="0" r="3"/><text class="lab lft" transform="translate(-3 -7)">25</text></g><path class="edge" d="M 0 0 V -7.19757 H -142.312"/><circle class="sym" cx="0" cy="0" r="3"/><text class="lab rgt" transform="translate(3 -7)">32</text></g><path class="edge" d="M 0 0 V -97.6451 H -180.406"/><circle class="sym" cx="0" cy="0" r="3"/><text class="lab rgt" transform="translate(3 -7)">33</text></g><g class="a36 c2 node n35 p2" transform="translate(-180.406 61.695)"><g class="a35 c2 node n30 p1" transform="translate(63.25 48.1426)"><g class="a30 i4 leaf node n4 p1 sample" transform="translate(-23 36.8752)"><path class="edge" d="M 0 0 V -36.8752 H 23"/><rect class="sym" height="6" width="6" x="-3" y="-3"/><text class="lab" transform="translate(0 11)">4</text></g><g class="a30 i6 leaf node n6 p1 sample" transform="translate(23 36.8752)"><path class="edge" d="M 0 0 V -36.8752 H -23"/><rect class="sym" height="6" width="6" x="-3" y="-3"/><text class="lab" transform="translate(0 11)">6</text></g><path class="edge" d="M 0 0 V -48.1426 H -63.25"/><circle class="sym" cx="0" cy="0" r="3"/><text class="lab rgt" transform="translate(3 -7)">30</text></g><g class="a35 c2 node n31 p1" transform="translate(-63.25 43.2396)"><g class="a31 i0 leaf node n0 p1 sample" transform="translate(-34.5 41.7782)"><path class="edge" d="M 0 0 V -41.7782 H 34.5"/><rect class="sym" height="6" width="6" x="-3" y="-3"/><text class="lab" transform="translate(0 11)">0</text></g><g class="a31 c2 node n26 p2" transform="translate(34.5 18.8802)"><g class="a26 i2 leaf node n2 p1 sample" transform="translate(-23 22.898)"><path class="edge" d="M 0 0 V -22.898 H 23"/><rect class="sym" height="6" width="6" x="-3" y="-3"/><text class="lab" transform="translate(0 11)">2</text></g><g class="a26 i14 leaf node n14 p2 sample" transform="translate(23 22.898)"><path class="edge" d="M 0 0 V -22.898 H -23"/><rect class="sym" height="6" width="6" x="-3" y="-3"/><text class="lab" transform="translate(0 11)">14</text></g><path class="edge" d="M 0 0 V -18.8802 H -34.5"/><circle class="sym" cx="0" cy="0" r="3"/><text class="lab rgt" transform="translate(3 -7)">26</text></g><path class="edge" d="M 0 0 V -43.2396 H 63.25"/><circle class="sym" cx="0" cy="0" r="3"/><text class="lab lft" transform="translate(-3 -7)">31</text></g><path class="edge" d="M 0 0 V -61.695 H 180.406"/><circle class="sym" cx="0" cy="0" r="3"/><text class="lab lft" transform="translate(-3 -7)">35</text></g><path class="edge" d="M 0 0 V -77.8332 H 234.672"/><circle class="sym" cx="0" cy="0" r="3"/><text class="lab lft" transform="translate(-3 -7)">36</text></g><path class="edge" d="M 0 0 V -70.054 H 169.086"/><circle class="sym" cx="0" cy="0" r="3"/><text class="lab lft" transform="translate(-3 -7)">37</text></g><circle class="sym" cx="0" cy="0" r="3"/><text class="lab" transform="translate(0 -11)">38</text></g></g></g></g></g></svg>