<svg baseProfile="full" height="400" version="1.1" width="1000" xmlns="http://www.w3.org/2000/svg" xmlns:ev="http://www.w3.org/2001/xml-events" xmlns:xlink="http://www.w3.org/1999/xlink"><defs><style type="text/css"><![CDATA[.background path {fill: #808080; fill-opacity: 0}.background path:nth-child(odd) {fill-opacity: .1}.x-regions rect {fill: yellow; stroke: black; opacity: 0.5}.axes {font-size: 14px}.x-axis .tick .lab {font-weight: bold; dominant-baseline: hanging}.axes, .tree {font-size: 14px; text-anchor: middle}.axes line, .edge {stroke: black; fill: none}.axes .ax-skip {stroke-dasharray: 4}.y-axis .grid {stroke: #FAFAFA}.node > .sym {fill: black; stroke: none}.site > .sym {stroke: black}.mut text {fill: red; font-style: italic}.mut.extra text {fill: hotpink}.mut line {fill: none; stroke: none}.mut .sym {fill: none; stroke: red}.mut.extra .sym {stroke: hotpink}.node .mut .sym {stroke-width: 1.5px}.tree text, .tree-sequence text {dominant-baseline: central}.plotbox .lab.lft {text-anchor: end}.plotbox .lab.rgt {text-anchor: start}.polytomy line {stroke: black; stroke-dasharray: 1px, 1px}.polytomy text {paint-order:stroke;stroke-width:0.3em;stroke:white}]]></style></defs><g class="tree-sequence"><g class="background"><path d="M20,0 l960,0 l0,338.2 l0,25 l0,5 l-960,0 l0,-5 l0,-25 l0,-338.2z"/></g><g class="axes"><g class="x-axis"><g class="title" transform="translate(500 400)"><text class="lab" text-anchor="middle" transform="translate(0 -11)">Genome position</text></g><line class="ax-line" x1="20" x2="980" y1="363.2" y2="363.2"/><g class="ticks"><g class="tick" transform="translate(20 363.2)"><line x1="0" x2="0" y1="0" y2="5"/><g transform="translate(0 6)"><text class="lab">0</text></g></g><g class="tick" transform="translate(980 363.2)"><line x1="0" x2="0" y1="0" y2="5"/><g transform="translate(0 6)"><text class="lab">1000</text></g></g></g><g class="site s0" transform="translate(104.48 363.2)"><line class="sym" x1="0" x2="0" y1="0" y2="-10"/><g class="mut m0"><polyline class="sym" points="2.5,-6.5 0,-1.5 -2.5,-6.5"/></g></g><g class="site s1" transform="translate(437.6 363.2)"><line class="sym" x1="0" x2="0" y1="0" y2="-10"/><g class="mut m1"><polyline class="sym" points="2.5,-6.5 0,-1.5 -2.5,-6.5"/></g></g></g></g><g class="plotbox trees"><g class="tree t0" transform="translate(20 0)"><g class="plotbox"><g class="c2 node n38 p2 root" transform="translate(626.445 26.8)"><g class="a38 c2 node n28 p1" transform="translate(184.18 274.987)"><g class="a28 c2 node n20 p2" transform="translate(83.375 18.9187)"><g class="a20 i12 leaf node n12 p2 sample" transform="translate(-23 0.694745)"><path class="edge" d="M 0 0 V -0.694745 H 23"/><rect class="sym" height="6" width="6" x="-3" y="-3"/><text class="lab" transform="translate(0 11)">12</text></g><g class="a20 i19 leaf node n19 p2 sample" transform="translate(23 0.694745)"><path class="edge" d="M 0 0 V -0.694745 H -23"/><rect class="sym" height="6" width="6" x="-3" y="-3"/><text class="lab" transform="translate(0 11)">19</text></g><path class="edge" d="M 0 0 V -18.9187 H -83.375"/><circle class="sym" cx="0" cy="0" r="3"/><text class="lab rgt" transform="translate(3 -7)">20</text></g><g class="a28 c2 node n27 p2" transform="translate(-83.375 6.36017)"><g class="a27 c2 node n24 p2" transform="translate(-63.25 7.63663)"><g class="a24 i5 leaf node n5 p1 sample" transform="translate(-23 5.61659)"><path class="edge" d="M 0 0 V -5.61659 H 23"/><rect class="sym" height="6" width="6" x="-3" y="-3"/><text class="lab" transform="translate(0 11)">5</text></g><g class="a24 i18 leaf node n18 p2 sample" transform="translate(23 5.61659)"><path class="edge" d="M 0 0 V -5.61659 H -23"/><rect class="sym" height="6" width="6" x="-3" y="-3"/><text class="lab" transform="translate(0 11)">18</text></g><path class="edge" d="M 0 0 V -7.63663 H 63.25"/><circle class="sym" cx="0" cy="0" r="3"/><text class="lab lft" transform="translate(-3 -7)">24</text></g><g class="a27 c2 node n25 p2" transform="translate(63.25 6.14909)"><g class="a25 i13 leaf node n13 p2 sample" transform="translate(34.5 7.10414)"><path class="edge" d="M 0 0 V -7.10414 H -34.5"/><rect class="sym" height="6" width="6" x="-3" y="-3"/><text class="lab" transform="translate(0 11)">13</text></g><g class="a25 c2 node n22 p1" transform="translate(-34.5 4.67557)"><g class="a22 i10 leaf node n10 p2 sample" transform="translate(-23 2.42857)"><path class="edge" d="M 0 0 V -2.42857 H 23"/><rect class="sym" height="6" width="6" x="-3" y="-3"/><text class="lab" transform="translate(0 11)">10</text></g><g class="a22 i14 leaf node n14 p2 sample" transform="translate(23 2.42857)"><path class="edge" d="M 0 0 V -2.42857 H -23"/><rect class="sym" height="6" width="6" x="-3" y="-3"/><text class="lab" transform="translate(0 11)">14</text></g><path class="edge" d="M 0 0 V -4.67557 H 34.5"/><circle class="sym" cx="0" cy="0" r="3"/><text class="lab lft" transform="translate(-3 -7)">22</text></g><path class="edge" d="M 0 0 V -6.14909 H -63.25"/><circle class="sym" cx="0" cy="0" r="3"/><text class="lab rgt" transform="translate(3 -7)">25</text></g><path class="edge" d="M 0 0 V -6.36017 H 83.375"/><circle class="sym" cx="0" cy="0" r="3"/><text class="lab lft" transform="translate(-3 -7)">27</text></g><path class="edge" d="M 0 0 V -274.987 H -184.18"/><circle class="sym" cx="0" cy="0" r="3"/><text class="lab rgt" transform="translate(3 -7)">28</text></g><g class="a38 c2 node n37 p2" transform="translate(-184.18 105.905)"><g class="a37 i8 leaf m0 node n8 p1 s0 sample" transform="translate(152.734 188.695)"><path class="edge" d="M 0 0 V -188.695 H -152.734"/><g class="mut m0 s0" transform="translate(0 -26.0265)"><line x1="0" x2="0" y1="0" y2="26.0265"/><path class="sym" d="M -3,-3 l 6,6 M -3,3 l 6,-6"/><text class="lab rgt" transform="translate(5 0)">0</text></g><rect class="sym" height="6" width="6" x="-3" y="-3"/><text class="lab" transform="translate(0 11)">8</text></g><g class="a37 c2 node n36 p2" transform="translate(-152.734 23.4002)"><g class="a36 c2 node n34 p2" transform="translate(120.031 95.1536)"><g class="a34 i3 leaf node n3 p1 sample" transform="translate(-90.5625 70.1415)"><path class="edge" d="M 0 0 V -70.1415 H 90.5625"/><rect class="sym" height="6" width="6" x="-3" y="-3"/><text class="lab" transform="translate(0 11)">3</text></g><g class="a34 c2 node n33 p2" transform="translate(90.5625 9.97605)"><g class="a33 i11 leaf node n11 p2 sample" transform="translate(48.875 60.1655)"><path class="edge" d="M 0 0 V -60.1655 H -48.875"/><rect class="sym" height="6" width="6" x="-3" y="-3"/><text class="lab" transform="translate(0 11)">11</text></g><g class="a33 c2 node n32 p2" transform="translate(-48.875 7.55555)"><g class="a32 i16 leaf node n16 p2 sample" transform="translate(51.75 52.6099)"><path class="edge" d="M 0 0 V -52.6099 H -51.75"/><rect class="sym" height="6" width="6" x="-3" y="-3"/><text class="lab" transform="translate(0 11)">16</text></g><g class="a32 c2 node n26 p2" transform="translate(-51.75 40.9487)"><g class="a26 i4 leaf node n4 p1 sample" transform="translate(-34.5 11.6612)"><path class="edge" d="M 0 0 V -11.6612 H 34.5"/><rect class="sym" height="6" width="6" x="-3" y="-3"/><text class="lab" transform="translate(0 11)">4</text></g><g class="a26 c2 node n23 p2" transform="translate(34.5 6.33905)"><g class="a23 i9 leaf node n9 p1 sample" transform="translate(-23 5.32216)"><path class="edge" d="M 0 0 V -5.32216 H 23"/><rect class="sym" height="6" width="6" x="-3" y="-3"/><text class="lab" transform="translate(0 11)">9</text></g><g class="a23 i17 leaf node n17 p2 sample" transform="translate(23 5.32216)"><path class="edge" d="M 0 0 V -5.32216 H -23"/><rect class="sym" height="6" width="6" x="-3" y="-3"/><text class="lab" transform="translate(0 11)">17</text></g><path class="edge" d="M 0 0 V -6.33905 H -34.5"/><circle class="sym" cx="0" cy="0" r="3"/><text class="lab rgt" transform="translate(3 -7)">23</text></g><path class="edge" d="M 0 0 V -40.9487 H 51.75"/><circle class="sym" cx="0" cy="0" r="3"/><text class="lab lft" transform="translate(-3 -7)">26</text></g><path class="edge" d="M 0 0 V -7.55555 H 48.875"/><circle class="sym" cx="0" cy="0" r="3"/><text class="lab lft" transform="translate(-3 -7)">32</text></g><path class="edge" d="M 0 0 V -9.97605 H -90.5625"/><circle class="sym" cx="0" cy="0" r="3"/><text class="lab rgt" transform="translate(3 -7)">33</text></g><path class="edge" d="M 0 0 V -95.1536 H -120.031"/><circle class="sym" cx="0" cy="0" r="3"/><text class="lab rgt" transform="translate(3 -7)">34</text></g><g class="a36 c2 node n35 p2" transform="translate(-120.031 90.2794)"><g class="a35 c2 node n30 p1" transform="translate(-69 47.883)"><g class="a30 i6 leaf node n6 p1 sample" transform="translate(34.5 27.1327)"><path class="edge" d="M 0 0 V -27.1327 H -34.5"/><rect class="sym" height="6" width="6" x="-3" y="-3"/><text class="lab" transform="translate(0 11)">6</text></g><g class="a30 c2 node n21 p1" transform="translate(-34.5 25.1826)"><g class="a21 i0 leaf node n0 p1 sample" transform="translate(-23 1.95008)"><path class="edge" d="M 0 0 V -1.95008 H 23"/><rect class="sym" height="6" width="6" x="-3" y="-3"/><text class="lab" transform="translate(0 11)">0</text></g><g class="a21 i1 leaf node n1 p1 sample" transform="translate(23 1.95008)"><path class="edge" d="M 0 0 V -1.95008 H -23"/><rect class="sym" height="6" width="6" x="-3" y="-3"/><text class="lab" transform="translate(0 11)">1</text></g><path class="edge" d="M 0 0 V -25.1826 H 34.5"/><circle class="sym" cx="0" cy="0" r="3"/><text class="lab lft" transform="translate(-3 -7)">21</text></g><path class="edge" d="M 0 0 V -47.883 H 69"/><circle class="sym" cx="0" cy="0" r="3"/><text class="lab lft" transform="translate(-3 -7)">30</text></g><g class="a35 c2 node n31 p2" transform="translate(69 26.6904)"><g class="a31 i15 leaf node n15 p2 sample" transform="translate(34.5 48.3254)"><path class="edge" d="M 0 0 V -48.3254 H -34.5"/><rect class="sym" height="6" width="6" x="-3" y="-3"/><text class="lab" transform="translate(0 11)">15</text></g><g class="a31 c2 node n29 p1" transform="translate(-34.5 22.8918)"><g class="a29 i2 leaf node n2 p1 sample" transform="translate(-23 25.4336)"><path class="edge" d="M 0 0 V -25.4336 H 23"/><rect class="sym" height="6" width="6" x="-3" y="-3"/><text class="lab" transform="translate(0 11)">2</text></g><g class="a29 i7 leaf m1 node n7 p1 s1 sample" transform="translate(23 25.4336)"><path class="edge" d="M 0 0 V -25.4336 H -23"/><g class="mut m1 s1" transform="translate(0 -21.7341)"><line x1="0" x2="0" y1="0" y2="21.7341"/><path class="sym" d="M -3,-3 l 6,6 M -3,3 l 6,-6"/><text class="lab rgt" transform="translate(5 0)">1</text></g><rect class="sym" height="6" width="6" x="-3" y="-3"/><text class="lab" transform="translate(0 11)">7</text></g><path class="edge" d="M 0 0 V -22.8918 H 34.5"/><circle class="sym" cx="0" cy="0" r="3"/><text class="lab lft" transform="translate(-3 -7)">29</text></g><path class="edge" d="M 0 0 V -26.6904 H -69"/><circle class="sym" cx="0" cy="0" r="3"/><text class="lab rgt" transform="translate(3 -7)">31</text></g><path class="edge" d="M 0 0 V -90.2794 H 120.031"/><circle class="sym" cx="0" cy="0" r="3"/><text class="lab lft" transform="translate(-3 -7)">35</text></g><path class="edge" d="M 0 0 V -23.4002 H 152.734"/><circle class="sym" cx="0" cy="0" r="3"/><text class="lab lft" transform="translate(-3 -7)">36</text></g><path class="edge" d="M 0 0 V -105.905 H 184.18"/><circle class="sym" cx="0" cy="0" r="3"/><text class="lab lft" transform="translate(-3 -7)">37</text></g><circle class="sym" cx="0" cy="0" r="3"/><text class="lab" transform="translate(0 -11)">38</text></g></g></g></g></g></svg>