<svg baseProfile="full" height="400" version="1.1" width="1000" xmlns="http://www.w3.org/2000/svg" xmlns:ev="http://www.w3.org/2001/xml-events" xmlns:xlink="http://www.w3.org/1999/xlink"><defs><style type="text/css"><![CDATA[.background path {fill: #808080; fill-opacity: 0}.background path:nth-child(odd) {fill-opacity: .1}.x-regions rect {fill: yellow; stroke: black; opacity: 0.5}.axes {font-size: 14px}.x-axis .tick .lab {font-weight: bold; dominant-baseline: hanging}.axes, .tree {font-size: 14px; text-anchor: middle}.axes line, .edge {stroke: black; fill: none}.axes .ax-skip {stroke-dasharray: 4}.y-axis .grid {stroke: #FAFAFA}.node > .sym {fill: black; stroke: none}.site > .sym {stroke: black}.mut text {fill: red; font-style: italic}.mut.extra text {fill: hotpink}.mut line {fill: none; stroke: none}.mut .sym {fill: none; stroke: red}.mut.extra .sym {stroke: hotpink}.node .mut .sym {stroke-width: 1.5px}.tree text, .tree-sequence text {dominant-baseline: central}.plotbox .lab.lft {text-anchor: end}.plotbox .lab.rgt {text-anchor: start}.polytomy line {stroke: black; stroke-dasharray: 1px, 1px}.polytomy text {paint-order:stroke;stroke-width:0.3em;stroke:white}]]></style></defs><g class="tree-sequence"><g class="background"><path d="M20,0 l960,0 l0,338.2 l0,25 l0,5 l-960,0 l0,-5 l0,-25 l0,-338.2z"/></g><g class="axes"><g class="x-axis"><g class="title" transform="translate(500 400)"><text class="lab" text-anchor="middle" transform="translate(0 -11)">Genome position</text></g><line class="ax-line" x1="20" x2="980" y1="363.2" y2="363.2"/><g class="ticks"><g class="tick" transform="translate(20 363.2)"><line x1="0" x2="0" y1="0" y2="5"/><g transform="translate(0 6)"><text class="lab">0</text></g></g><g class="tick" transform="translate(980 363.2)"><line x1="0" x2="0" y1="0" y2="5"/><g transform="translate(0 6)"><text class="lab">1000</text></g></g></g><g class="site s0" transform="translate(58.4 363.2)"><line class="sym" x1="0" x2="0" y1="0" y2="-10"/><g class="mut m0"><polyline class="sym" points="2.5,-6.5 0,-1.5 -2.5,-6.5"/></g></g><g class="site s1" transform="translate(411.68 363.2)"><line class="sym" x1="0" x2="0" y1="0" y2="-10"/><g class="mut m1"><polyline class="sym" points="2.5,-6.5 0,-1.5 -2.5,-6.5"/></g></g><g class="site s2" transform="translate(573.92 363.2)"><line class="sym" x1="0" x2="0" y1="0" y2="-10"/><g class="mut m2"><polyline class="sym" points="2.5,-6.5 0,-1.5 -2.5,-6.5"/></g></g></g></g><g class="plotbox trees"><g class="tree t0" transform="translate(20 0)"><g class="plotbox"><g class="c2 node n38 p0 root" transform="translate(392.852 26.8)"><g class="a38 c2 node n32 p1" transform="translate(-280.852 272.119)"><g class="a32 c2 node n23 p1" transform="translate(46 19.4373)"><g class="a23 i9 leaf node n9 p1 sample" transform="translate(-23 3.04415)"><path class="edge" d="M 0 0 V -3.04415 H 23"/><rect class="sym" height="6" width="6" x="-3" y="-3"/><text class="lab" transform="translate(0 11)">9</text></g><g class="a23 i19 leaf node n19 p2 sample" transform="translate(23 3.04415)"><path class="edge" d="M 0 0 V -3.04415 H -23"/><rect class="sym" height="6" width="6" x="-3" y="-3"/><text class="lab" transform="translate(0 11)">19</text></g><path class="edge" d="M 0 0 V -19.4373 H -46"/><circle class="sym" cx="0" cy="0" r="3"/><text class="lab rgt" transform="translate(3 -7)">23</text></g><g class="a32 c2 node n26 p1" transform="translate(-46 12.9408)"><g class="a26 i0 leaf node n0 p1 sample" transform="translate(-23 9.54074)"><path class="edge" d="M 0 0 V -9.54074 H 23"/><rect class="sym" height="6" width="6" x="-3" y="-3"/><text class="lab" transform="translate(0 11)">0</text></g><g class="a26 i1 leaf node n1 p1 sample" transform="translate(23 9.54074)"><path class="edge" d="M 0 0 V -9.54074 H -23"/><rect class="sym" height="6" width="6" x="-3" y="-3"/><text class="lab" transform="translate(0 11)">1</text></g><path class="edge" d="M 0 0 V -12.9408 H 46"/><circle class="sym" cx="0" cy="0" r="3"/><text class="lab lft" transform="translate(-3 -7)">26</text></g><path class="edge" d="M 0 0 V -272.119 H 280.852"/><circle class="sym" cx="0" cy="0" r="3"/><text class="lab lft" transform="translate(-3 -7)">32</text></g><g class="a38 c2 m1 node n37 p0 s1" transform="translate(280.852 155.215)"><g class="a37 c2 node n25 p2" transform="translate(220.297 130.928)"><g class="a25 i13 leaf node n13 p2 sample" transform="translate(-23 8.45702)"><path class="edge" d="M 0 0 V -8.45702 H 23"/><rect class="sym" height="6" width="6" x="-3" y="-3"/><text class="lab" transform="translate(0 11)">13</text></g><g class="a25 i15 leaf node n15 p2 sample" transform="translate(23 8.45702)"><path class="edge" d="M 0 0 V -8.45702 H -23"/><rect class="sym" height="6" width="6" x="-3" y="-3"/><text class="lab" transform="translate(0 11)">15</text></g><path class="edge" d="M 0 0 V -130.928 H -220.297"/><circle class="sym" cx="0" cy="0" r="3"/><text class="lab rgt" transform="translate(3 -7)">25</text></g><g class="a37 c2 node n36 p0" transform="translate(-220.297 3.21686)"><g class="a36 c2 node n30 p1" transform="translate(-203.406 123.578)"><g class="a30 i2 leaf node n2 p1 sample" transform="translate(-23 12.5895)"><path class="edge" d="M 0 0 V -12.5895 H 23"/><rect class="sym" height="6" width="6" x="-3" y="-3"/><text class="lab" transform="translate(0 11)">2</text></g><g class="a30 i3 leaf node n3 p1 sample" transform="translate(23 12.5895)"><path class="edge" d="M 0 0 V -12.5895 H -23"/><rect class="sym" height="6" width="6" x="-3" y="-3"/><text class="lab" transform="translate(0 11)">3</text></g><path class="edge" d="M 0 0 V -123.578 H 203.406"/><circle class="sym" cx="0" cy="0" r="3"/><text class="lab lft" transform="translate(-3 -7)">30</text></g><g class="a36 c2 node n35 p2" transform="translate(203.406 90.4422)"><g class="a35 c2 m0 m2 node n33 p2 s0 s2" transform="translate(99.1875 15.25)"><g class="a33 c2 node n27 p2" transform="translate(46 20.4964)"><g class="a27 i8 leaf node n8 p1 sample" transform="translate(-23 9.97896)"><path class="edge" d="M 0 0 V -9.97896 H 23"/><rect class="sym" height="6" width="6" x="-3" y="-3"/><text class="lab" transform="translate(0 11)">8</text></g><g class="a27 i11 leaf node n11 p2 sample" transform="translate(23 9.97896)"><path class="edge" d="M 0 0 V -9.97896 H -23"/><rect class="sym" height="6" width="6" x="-3" y="-3"/><text class="lab" transform="translate(0 11)">11</text></g><path class="edge" d="M 0 0 V -20.4964 H -46"/><circle class="sym" cx="0" cy="0" r="3"/><text class="lab rgt" transform="translate(3 -7)">27</text></g><g class="a33 c2 node n28 p1" transform="translate(-46 20.3725)"><g class="a28 i5 leaf node n5 p1 sample" transform="translate(-23 10.1029)"><path class="edge" d="M 0 0 V -10.1029 H 23"/><rect class="sym" height="6" width="6" x="-3" y="-3"/><text class="lab" transform="translate(0 11)">5</text></g><g class="a28 i10 leaf node n10 p2 sample" transform="translate(23 10.1029)"><path class="edge" d="M 0 0 V -10.1029 H -23"/><rect class="sym" height="6" width="6" x="-3" y="-3"/><text class="lab" transform="translate(0 11)">10</text></g><path class="edge" d="M 0 0 V -20.3725 H 46"/><circle class="sym" cx="0" cy="0" r="3"/><text class="lab lft" transform="translate(-3 -7)">28</text></g><path class="edge" d="M 0 0 V -15.25 H -99.1875"/><g class="mut m0 s0" transform="translate(0 -4.65414)"><line x1="0" x2="0" y1="0" y2="4.65414"/><path class="sym" d="M -3,-3 l 6,6 M -3,3 l 6,-6"/><text class="lab rgt" transform="translate(5 0)">0</text></g><g class="mut m2 s2" transform="translate(0 -2.45956)"><line x1="0" x2="0" y1="0" y2="2.45956"/><path class="sym" d="M -3,-3 l 6,6 M -3,3 l 6,-6"/><text class="lab rgt" transform="translate(5 0)">2</text></g><circle class="sym" cx="0" cy="0" r="3"/><text class="lab rgt" transform="translate(3 -7)">33</text></g><g class="a35 c2 node n34 p2" transform="translate(-99.1875 1.96839)"><g class="a34 i7 leaf node n7 p1 sample" transform="translate(83.375 43.7571)"><path class="edge" d="M 0 0 V -43.7571 H -83.375"/><rect class="sym" height="6" width="6" x="-3" y="-3"/><text class="lab" transform="translate(0 11)">7</text></g><g class="a34 c2 node n31 p2" transform="translate(-83.375 29.1273)"><g class="a31 c2 node n24 p2" transform="translate(86.25 6.83789)"><g class="a24 i12 leaf node n12 p2 sample" transform="translate(34.5 7.79184)"><path class="edge" d="M 0 0 V -7.79184 H -34.5"/><rect class="sym" height="6" width="6" x="-3" y="-3"/><text class="lab" transform="translate(0 11)">12</text></g><g class="a24 c2 node n21 p1" transform="translate(-34.5 6.35026)"><g class="a21 i6 leaf node n6 p1 sample" transform="translate(-23 1.44158)"><path class="edge" d="M 0 0 V -1.44158 H 23"/><rect class="sym" height="6" width="6" x="-3" y="-3"/><text class="lab" transform="translate(0 11)">6</text></g><g class="a21 i18 leaf node n18 p2 sample" transform="translate(23 1.44158)"><path class="edge" d="M 0 0 V -1.44158 H -23"/><rect class="sym" height="6" width="6" x="-3" y="-3"/><text class="lab" transform="translate(0 11)">18</text></g><path class="edge" d="M 0 0 V -6.35026 H 34.5"/><circle class="sym" cx="0" cy="0" r="3"/><text class="lab lft" transform="translate(-3 -7)">21</text></g><path class="edge" d="M 0 0 V -6.83789 H -86.25"/><circle class="sym" cx="0" cy="0" r="3"/><text class="lab rgt" transform="translate(3 -7)">24</text></g><g class="a31 c2 node n29 p2" transform="translate(-86.25 2.57034)"><g class="a29 c2 node n20 p1" transform="translate(-46 11.8296)"><g class="a20 i4 leaf node n4 p1 sample" transform="translate(-23 0.229778)"><path class="edge" d="M 0 0 V -0.229778 H 23"/><rect class="sym" height="6" width="6" x="-3" y="-3"/><text class="lab" transform="translate(0 11)">4</text></g><g class="a20 i14 leaf node n14 p2 sample" transform="translate(23 0.229778)"><path class="edge" d="M 0 0 V -0.229778 H -23"/><rect class="sym" height="6" width="6" x="-3" y="-3"/><text class="lab" transform="translate(0 11)">14</text></g><path class="edge" d="M 0 0 V -11.8296 H 46"/><circle class="sym" cx="0" cy="0" r="3"/><text class="lab lft" transform="translate(-3 -7)">20</text></g><g class="a29 c2 node n22 p1" transform="translate(46 9.09178)"><g class="a22 i16 leaf node n16 p2 sample" transform="translate(-23 2.96761)"><path class="edge" d="M 0 0 V -2.96761 H 23"/><rect class="sym" height="6" width="6" x="-3" y="-3"/><text class="lab" transform="translate(0 11)">16</text></g><g class="a22 i17 leaf node n17 p2 sample" transform="translate(23 2.96761)"><path class="edge" d="M 0 0 V -2.96761 H -23"/><rect class="sym" height="6" width="6" x="-3" y="-3"/><text class="lab" transform="translate(0 11)">17</text></g><path class="edge" d="M 0 0 V -9.09178 H -46"/><circle class="sym" cx="0" cy="0" r="3"/><text class="lab rgt" transform="translate(3 -7)">22</text></g><path class="edge" d="M 0 0 V -2.57034 H 86.25"/><circle class="sym" cx="0" cy="0" r="3"/><text class="lab lft" transform="translate(-3 -7)">29</text></g><path class="edge" d="M 0 0 V -29.1273 H 83.375"/><circle class="sym" cx="0" cy="0" r="3"/><text class="lab lft" transform="translate(-3 -7)">31</text></g><path class="edge" d="M 0 0 V -1.96839 H 99.1875"/><circle class="sym" cx="0" cy="0" r="3"/><text class="lab lft" transform="translate(-3 -7)">34</text></g><path class="edge" d="M 0 0 V -90.4422 H -203.406"/><circle class="sym" cx="0" cy="0" r="3"/><text class="lab rgt" transform="translate(3 -7)">35</text></g><path class="edge" d="M 0 0 V -3.21686 H 220.297"/><circle class="sym" cx="0" cy="0" r="3"/><text class="lab lft" transform="translate(-3 -7)">36</text></g><path class="edge" d="M 0 0 V -155.215 H -280.852"/><g class="mut m1 s1" transform="translate(0 -71.7233)"><line x1="0" x2="0" y1="0" y2="71.7233"/><path class="sym" d="M -3,-3 l 6,6 M -3,3 l 6,-6"/><text class="lab rgt" transform="translate(5 0)">1</text></g><circle class="sym" cx="0" cy="0" r="3"/><text class="lab rgt" transform="translate(3 -7)">37</text></g><circle class="sym" cx="0" cy="0" r="3"/><text class="lab" transform="translate(0 -11)">38</text></g></g></g></g></g></svg>