<svg baseProfile="full" height="400" version="1.1" width="1000" xmlns="http://www.w3.org/2000/svg" xmlns:ev="http://www.w3.org/2001/xml-events" xmlns:xlink="http://www.w3.org/1999/xlink"><defs><style type="text/css"><![CDATA[.background path {fill: #808080; fill-opacity: 0}.background path:nth-child(odd) {fill-opacity: .1}.x-regions rect {fill: yellow; stroke: black; opacity: 0.5}.axes {font-size: 14px}.x-axis .tick .lab {font-weight: bold; dominant-baseline: hanging}.axes, .tree {font-size: 14px; text-anchor: middle}.axes line, .edge {stroke: black; fill: none}.axes .ax-skip {stroke-dasharray: 4}.y-axis .grid {stroke: #FAFAFA}.node > .sym {fill: black; stroke: none}.site > .sym {stroke: black}.mut text {fill: red; font-style: italic}.mut.extra text {fill: hotpink}.mut line {fill: none; stroke: none}.mut .sym {fill: none; stroke: red}.mut.extra .sym {stroke: hotpink}.node .mut .sym {stroke-width: 1.5px}.tree text, .tree-sequence text {dominant-baseline: central}.plotbox .lab.lft {text-anchor: end}.plotbox .lab.rgt {text-anchor: start}.polytomy line {stroke: black; stroke-dasharray: 1px, 1px}.polytomy text {paint-order:stroke;stroke-width:0.3em;stroke:white}]]></style></defs><g class="tree-sequence"><g class="background"><path d="M20,0 l960,0 l0,338.2 l0,25 l0,5 l-960,0 l0,-5 l0,-25 l0,-338.2z"/></g><g class="axes"><g class="x-axis"><g class="title" transform="translate(500 400)"><text class="lab" text-anchor="middle" transform="translate(0 -11)">Genome position</text></g><line class="ax-line" x1="20" x2="980" y1="363.2" y2="363.2"/><g class="ticks"><g class="tick" transform="translate(20 363.2)"><line x1="0" x2="0" y1="0" y2="5"/><g transform="translate(0 6)"><text class="lab">0</text></g></g><g class="tick" transform="translate(980 363.2)"><line x1="0" x2="0" y1="0" y2="5"/><g transform="translate(0 6)"><text class="lab">1000</text></g></g></g><g class="site s0" transform="translate(364.64 363.2)"><line class="sym" x1="0" x2="0" y1="0" y2="-10"/><g class="mut m0"><polyline class="sym" points="2.5,-6.5 0,-1.5 -2.5,-6.5"/></g></g><g class="site s1" transform="translate(502.88 363.2)"><line class="sym" x1="0" x2="0" y1="0" y2="-10"/><g class="mut m1"><polyline class="sym" points="2.5,-6.5 0,-1.5 -2.5,-6.5"/></g></g></g></g><g class="plotbox trees"><g class="tree t0" transform="translate(20 0)"><g class="plotbox"><g class="c2 node n38 p0 root" transform="translate(812.736 26.8)"><g class="a38 i2 leaf node n2 p1 sample" transform="translate(104.264 294.6)"><path class="edge" d="M 0 0 V -294.6 H -104.264"/><rect class="sym" height="6" width="6" x="-3" y="-3"/><text class="lab" transform="translate(0 11)">2</text></g><g class="a38 c2 m0 node n37 p2 s0" transform="translate(-104.264 141.854)"><g class="a37 c2 node n22 p1" transform="translate(139.527 151.668)"><g class="a22 i6 leaf node n6 p1 sample" transform="translate(-23 1.07842)"><path class="edge" d="M 0 0 V -1.07842 H 23"/><rect class="sym" height="6" width="6" x="-3" y="-3"/><text class="lab" transform="translate(0 11)">6</text></g><g class="a22 i17 leaf node n17 p2 sample" transform="translate(23 1.07842)"><path class="edge" d="M 0 0 V -1.07842 H -23"/><rect class="sym" height="6" width="6" x="-3" y="-3"/><text class="lab" transform="translate(0 11)">17</text></g><path class="edge" d="M 0 0 V -151.668 H -139.527"/><circle class="sym" cx="0" cy="0" r="3"/><text class="lab rgt" transform="translate(3 -7)">22</text></g><g class="a37 c2 m1 node n36 p2 s1" transform="translate(-139.527 78.5922)"><g class="a36 c2 node n33 p1" transform="translate(132.43 59.3149)"><g class="a33 c2 node n23 p2" transform="translate(54.625 13.5516)"><g class="a23 i3 leaf node n3 p1 sample" transform="translate(-23 1.28771)"><path class="edge" d="M 0 0 V -1.28771 H 23"/><rect class="sym" height="6" width="6" x="-3" y="-3"/><text class="lab" transform="translate(0 11)">3</text></g><g class="a23 i7 leaf node n7 p1 sample" transform="translate(23 1.28771)"><path class="edge" d="M 0 0 V -1.28771 H -23"/><rect class="sym" height="6" width="6" x="-3" y="-3"/><text class="lab" transform="translate(0 11)">7</text></g><path class="edge" d="M 0 0 V -13.5516 H -54.625"/><circle class="sym" cx="0" cy="0" r="3"/><text class="lab rgt" transform="translate(3 -7)">23</text></g><g class="a33 c2 node n32 p1" transform="translate(-54.625 2.94037)"><g class="a32 i19 leaf node n19 p2 sample" transform="translate(40.25 11.899)"><path class="edge" d="M 0 0 V -11.899 H -40.25"/><rect class="sym" height="6" width="6" x="-3" y="-3"/><text class="lab" transform="translate(0 11)">19</text></g><g class="a32 c2 node n28 p1" transform="translate(-40.25 4.48619)"><g class="a28 i15 leaf node n15 p2 sample" transform="translate(34.5 7.41278)"><path class="edge" d="M 0 0 V -7.41278 H -34.5"/><rect class="sym" height="6" width="6" x="-3" y="-3"/><text class="lab" transform="translate(0 11)">15</text></g><g class="a28 c2 node n20 p1" transform="translate(-34.5 6.67692)"><g class="a20 i1 leaf node n1 p1 sample" transform="translate(-23 0.735869)"><path class="edge" d="M 0 0 V -0.735869 H 23"/><rect class="sym" height="6" width="6" x="-3" y="-3"/><text class="lab" transform="translate(0 11)">1</text></g><g class="a20 i16 leaf node n16 p2 sample" transform="translate(23 0.735869)"><path class="edge" d="M 0 0 V -0.735869 H -23"/><rect class="sym" height="6" width="6" x="-3" y="-3"/><text class="lab" transform="translate(0 11)">16</text></g><path class="edge" d="M 0 0 V -6.67692 H 34.5"/><circle class="sym" cx="0" cy="0" r="3"/><text class="lab lft" transform="translate(-3 -7)">20</text></g><path class="edge" d="M 0 0 V -4.48619 H 40.25"/><circle class="sym" cx="0" cy="0" r="3"/><text class="lab lft" transform="translate(-3 -7)">28</text></g><path class="edge" d="M 0 0 V -2.94037 H 54.625"/><circle class="sym" cx="0" cy="0" r="3"/><text class="lab lft" transform="translate(-3 -7)">32</text></g><path class="edge" d="M 0 0 V -59.3149 H -132.43"/><circle class="sym" cx="0" cy="0" r="3"/><text class="lab rgt" transform="translate(3 -7)">33</text></g><g class="a36 c2 node n35 p2" transform="translate(-132.43 38.2245)"><g class="a35 i5 leaf node n5 p1 sample" transform="translate(66.4844 35.9298)"><path class="edge" d="M 0 0 V -35.9298 H -66.4844"/><rect class="sym" height="6" width="6" x="-3" y="-3"/><text class="lab" transform="translate(0 11)">5</text></g><g class="a35 c2 node n34 p1" transform="translate(-66.4844 13.4743)"><g class="a34 i9 leaf node n9 p1 sample" transform="translate(86.9688 22.4554)"><path class="edge" d="M 0 0 V -22.4554 H -86.9688"/><rect class="sym" height="6" width="6" x="-3" y="-3"/><text class="lab" transform="translate(0 11)">9</text></g><g class="a34 c2 node n31 p2" transform="translate(-86.9688 10.7355)"><g class="a31 c2 node n29 p2" transform="translate(-93.4375 2.26795)"><g class="a29 c2 node n21 p2" transform="translate(60.375 8.67941)"><g class="a21 i10 leaf node n10 p2 sample" transform="translate(-23 0.772592)"><path class="edge" d="M 0 0 V -0.772592 H 23"/><rect class="sym" height="6" width="6" x="-3" y="-3"/><text class="lab" transform="translate(0 11)">10</text></g><g class="a21 i14 leaf node n14 p2 sample" transform="translate(23 0.772592)"><path class="edge" d="M 0 0 V -0.772592 H -23"/><rect class="sym" height="6" width="6" x="-3" y="-3"/><text class="lab" transform="translate(0 11)">14</text></g><path class="edge" d="M 0 0 V -8.67941 H -60.375"/><circle class="sym" cx="0" cy="0" r="3"/><text class="lab rgt" transform="translate(3 -7)">21</text></g><g class="a29 c2 node n27 p1" transform="translate(-60.375 4.97105)"><g class="a27 i4 leaf node n4 p1 sample" transform="translate(51.75 4.48095)"><path class="edge" d="M 0 0 V -4.48095 H -51.75"/><rect class="sym" height="6" width="6" x="-3" y="-3"/><text class="lab" transform="translate(0 11)">4</text></g><g class="a27 c2 node n26 p2" transform="translate(-51.75 0.261587)"><g class="a26 i0 leaf node n0 p1 sample" transform="translate(-34.5 4.21936)"><path class="edge" d="M 0 0 V -4.21936 H 34.5"/><rect class="sym" height="6" width="6" x="-3" y="-3"/><text class="lab" transform="translate(0 11)">0</text></g><g class="a26 c2 node n24 p2" transform="translate(34.5 2.90601)"><g class="a24 i12 leaf node n12 p2 sample" transform="translate(-23 1.31335)"><path class="edge" d="M 0 0 V -1.31335 H 23"/><rect class="sym" height="6" width="6" x="-3" y="-3"/><text class="lab" transform="translate(0 11)">12</text></g><g class="a24 i18 leaf node n18 p2 sample" transform="translate(23 1.31335)"><path class="edge" d="M 0 0 V -1.31335 H -23"/><rect class="sym" height="6" width="6" x="-3" y="-3"/><text class="lab" transform="translate(0 11)">18</text></g><path class="edge" d="M 0 0 V -2.90601 H -34.5"/><circle class="sym" cx="0" cy="0" r="3"/><text class="lab rgt" transform="translate(3 -7)">24</text></g><path class="edge" d="M 0 0 V -0.261587 H 51.75"/><circle class="sym" cx="0" cy="0" r="3"/><text class="lab lft" transform="translate(-3 -7)">26</text></g><path class="edge" d="M 0 0 V -4.97105 H 60.375"/><circle class="sym" cx="0" cy="0" r="3"/><text class="lab lft" transform="translate(-3 -7)">27</text></g><path class="edge" d="M 0 0 V -2.26795 H 93.4375"/><circle class="sym" cx="0" cy="0" r="3"/><text class="lab lft" transform="translate(-3 -7)">29</text></g><g class="a31 c2 node n30 p1" transform="translate(93.4375 1.12535)"><g class="a30 i11 leaf node n11 p2 sample" transform="translate(34.5 10.5946)"><path class="edge" d="M 0 0 V -10.5946 H -34.5"/><rect class="sym" height="6" width="6" x="-3" y="-3"/><text class="lab" transform="translate(0 11)">11</text></g><g class="a30 c2 node n25 p2" transform="translate(-34.5 8.8546)"><g class="a25 i8 leaf node n8 p1 sample" transform="translate(-23 1.74)"><path class="edge" d="M 0 0 V -1.74 H 23"/><rect class="sym" height="6" width="6" x="-3" y="-3"/><text class="lab" transform="translate(0 11)">8</text></g><g class="a25 i13 leaf node n13 p2 sample" transform="translate(23 1.74)"><path class="edge" d="M 0 0 V -1.74 H -23"/><rect class="sym" height="6" width="6" x="-3" y="-3"/><text class="lab" transform="translate(0 11)">13</text></g><path class="edge" d="M 0 0 V -8.8546 H 34.5"/><circle class="sym" cx="0" cy="0" r="3"/><text class="lab lft" transform="translate(-3 -7)">25</text></g><path class="edge" d="M 0 0 V -1.12535 H -93.4375"/><circle class="sym" cx="0" cy="0" r="3"/><text class="lab rgt" transform="translate(3 -7)">30</text></g><path class="edge" d="M 0 0 V -10.7355 H 86.9688"/><circle class="sym" cx="0" cy="0" r="3"/><text class="lab lft" transform="translate(-3 -7)">31</text></g><path class="edge" d="M 0 0 V -13.4743 H 66.4844"/><circle class="sym" cx="0" cy="0" r="3"/><text class="lab lft" transform="translate(-3 -7)">34</text></g><path class="edge" d="M 0 0 V -38.2245 H 132.43"/><circle class="sym" cx="0" cy="0" r="3"/><text class="lab lft" transform="translate(-3 -7)">35</text></g><path class="edge" d="M 0 0 V -78.5922 H 139.527"/><g class="mut m1 s1" transform="translate(0 -3.47191)"><line x1="0" x2="0" y1="0" y2="3.47191"/><path class="sym" d="M -3,-3 l 6,6 M -3,3 l 6,-6"/><text class="lab lft" transform="translate(-5 0)">1</text></g><circle class="sym" cx="0" cy="0" r="3"/><text class="lab lft" transform="translate(-3 -7)">36</text></g><path class="edge" d="M 0 0 V -141.854 H 104.264"/><g class="mut m0 s0" transform="translate(0 -49.3687)"><line x1="0" x2="0" y1="0" y2="49.3687"/><path class="sym" d="M -3,-3 l 6,6 M -3,3 l 6,-6"/><text class="lab lft" transform="translate(-5 0)">0</text></g><circle class="sym" cx="0" cy="0" r="3"/><text class="lab lft" transform="translate(-3 -7)">37</text></g><circle class="sym" cx="0" cy="0" r="3"/><text class="lab" transform="translate(0 -11)">38</text></g></g></g></g></g></svg>