<svg baseProfile="full" height="400" version="1.1" width="1000" xmlns="http://www.w3.org/2000/svg" xmlns:ev="http://www.w3.org/2001/xml-events" xmlns:xlink="http://www.w3.org/1999/xlink"><defs><style type="text/css"><![CDATA[.background path {fill: #808080; fill-opacity: 0}.background path:nth-child(odd) {fill-opacity: .1}.x-regions rect {fill: yellow; stroke: black; opacity: 0.5}.axes {font-size: 14px}.x-axis .tick .lab {font-weight: bold; dominant-baseline: hanging}.axes, .tree {font-size: 14px; text-anchor: middle}.axes line, .edge {stroke: black; fill: none}.axes .ax-skip {stroke-dasharray: 4}.y-axis .grid {stroke: #FAFAFA}.node > .sym {fill: black; stroke: none}.site > .sym {stroke: black}.mut text {fill: red; font-style: italic}.mut.extra text {fill: hotpink}.mut line {fill: none; stroke: none}.mut .sym {fill: none; stroke: red}.mut.extra .sym {stroke: hotpink}.node .mut .sym {stroke-width: 1.5px}.tree text, .tree-sequence text {dominant-baseline: central}.plotbox .lab.lft {text-anchor: end}.plotbox .lab.rgt {text-anchor: start}.polytomy line {stroke: black; stroke-dasharray: 1px, 1px}.polytomy text {paint-order:stroke;stroke-width:0.3em;stroke:white}]]></style></defs><g class="tree-sequence"><g class="background"><path d="M20,0 l960,0 l0,338.2 l0,25 l0,5 l-960,0 l0,-5 l0,-25 l0,-338.2z"/></g><g class="axes"><g class="x-axis"><g class="title" transform="translate(500 400)"><text class="lab" text-anchor="middle" transform="translate(0 -11)">Genome position</text></g><line class="ax-line" x1="20" x2="980" y1="363.2" y2="363.2"/><g class="ticks"><g class="tick" transform="translate(20 363.2)"><line x1="0" x2="0" y1="0" y2="5"/><g transform="translate(0 6)"><text class="lab">0</text></g></g><g class="tick" transform="translate(980 363.2)"><line x1="0" x2="0" y1="0" y2="5"/><g transform="translate(0 6)"><text class="lab">1000</text></g></g></g><g class="site s0" transform="translate(665.12 363.2)"><line class="sym" x1="0" x2="0" y1="0" y2="-10"/><g class="mut m0"><polyline class="sym" points="2.5,-6.5 0,-1.5 -2.5,-6.5"/></g></g></g></g><g class="plotbox trees"><g class="tree t0" transform="translate(20 0)"><g class="plotbox"><g class="c2 node n38 p2 root" transform="translate(618.898 26.8)"><g class="a38 c2 node n35 p2" transform="translate(-229.82 163.706)"><g class="a35 c2 node n32 p2" transform="translate(136.922 83.5649)"><g class="a32 c2 node n22 p2" transform="translate(-46 43.1684)"><g class="a22 i4 leaf node n4 p1 sample" transform="translate(-23 4.16043)"><path class="edge" d="M 0 0 V -4.16043 H 23"/><rect class="sym" height="6" width="6" x="-3" y="-3"/><text class="lab" transform="translate(0 11)">4</text></g><g class="a22 i19 leaf node n19 p2 sample" transform="translate(23 4.16043)"><path class="edge" d="M 0 0 V -4.16043 H -23"/><rect class="sym" height="6" width="6" x="-3" y="-3"/><text class="lab" transform="translate(0 11)">19</text></g><path class="edge" d="M 0 0 V -43.1684 H 46"/><circle class="sym" cx="0" cy="0" r="3"/><text class="lab lft" transform="translate(-3 -7)">22</text></g><g class="a32 c2 node n25 p2" transform="translate(46 40.7268)"><g class="a25 i10 leaf node n10 p2 sample" transform="translate(-23 6.60196)"><path class="edge" d="M 0 0 V -6.60196 H 23"/><rect class="sym" height="6" width="6" x="-3" y="-3"/><text class="lab" transform="translate(0 11)">10</text></g><g class="a25 i17 leaf node n17 p2 sample" transform="translate(23 6.60196)"><path class="edge" d="M 0 0 V -6.60196 H -23"/><rect class="sym" height="6" width="6" x="-3" y="-3"/><text class="lab" transform="translate(0 11)">17</text></g><path class="edge" d="M 0 0 V -40.7268 H -46"/><circle class="sym" cx="0" cy="0" r="3"/><text class="lab rgt" transform="translate(3 -7)">25</text></g><path class="edge" d="M 0 0 V -83.5649 H -136.922"/><circle class="sym" cx="0" cy="0" r="3"/><text class="lab rgt" transform="translate(3 -7)">32</text></g><g class="a35 c2 node n34 p1" transform="translate(-136.922 61.5923)"><g class="a34 c2 node n30 p2" transform="translate(-135.844 40.44)"><g class="a30 i0 leaf node n0 p1 sample" transform="translate(-73.3125 28.8614)"><path class="edge" d="M 0 0 V -28.8614 H 73.3125"/><rect class="sym" height="6" width="6" x="-3" y="-3"/><text class="lab" transform="translate(0 11)">0</text></g><g class="a30 c2 node n28 p2" transform="translate(73.3125 17.8927)"><g class="a28 c2 node n24 p2" transform="translate(77.625 4.92762)"><g class="a24 i18 leaf node n18 p2 sample" transform="translate(51.75 6.04106)"><path class="edge" d="M 0 0 V -6.04106 H -51.75"/><rect class="sym" height="6" width="6" x="-3" y="-3"/><text class="lab" transform="translate(0 11)">18</text></g><g class="a24 c2 node n23 p1" transform="translate(-51.75 0.286804)"><g class="a23 i7 leaf node n7 p1 sample" transform="translate(-34.5 5.75425)"><path class="edge" d="M 0 0 V -5.75425 H 34.5"/><rect class="sym" height="6" width="6" x="-3" y="-3"/><text class="lab" transform="translate(0 11)">7</text></g><g class="a23 c2 node n21 p2" transform="translate(34.5 4.96147)"><g class="a21 i13 leaf node n13 p2 sample" transform="translate(-23 0.792782)"><path class="edge" d="M 0 0 V -0.792782 H 23"/><rect class="sym" height="6" width="6" x="-3" y="-3"/><text class="lab" transform="translate(0 11)">13</text></g><g class="a21 i16 leaf node n16 p2 sample" transform="translate(23 0.792782)"><path class="edge" d="M 0 0 V -0.792782 H -23"/><rect class="sym" height="6" width="6" x="-3" y="-3"/><text class="lab" transform="translate(0 11)">16</text></g><path class="edge" d="M 0 0 V -4.96147 H -34.5"/><circle class="sym" cx="0" cy="0" r="3"/><text class="lab rgt" transform="translate(3 -7)">21</text></g><path class="edge" d="M 0 0 V -0.286804 H 51.75"/><circle class="sym" cx="0" cy="0" r="3"/><text class="lab lft" transform="translate(-3 -7)">23</text></g><path class="edge" d="M 0 0 V -4.92762 H -77.625"/><circle class="sym" cx="0" cy="0" r="3"/><text class="lab rgt" transform="translate(3 -7)">24</text></g><g class="a28 c2 node n26 p2" transform="translate(-77.625 3.77836)"><g class="a26 i2 leaf node n2 p1 sample" transform="translate(-23 7.19032)"><path class="edge" d="M 0 0 V -7.19032 H 23"/><rect class="sym" height="6" width="6" x="-3" y="-3"/><text class="lab" transform="translate(0 11)">2</text></g><g class="a26 i12 leaf node n12 p2 sample" transform="translate(23 7.19032)"><path class="edge" d="M 0 0 V -7.19032 H -23"/><rect class="sym" height="6" width="6" x="-3" y="-3"/><text class="lab" transform="translate(0 11)">12</text></g><path class="edge" d="M 0 0 V -3.77836 H 77.625"/><circle class="sym" cx="0" cy="0" r="3"/><text class="lab lft" transform="translate(-3 -7)">26</text></g><path class="edge" d="M 0 0 V -17.8927 H -73.3125"/><circle class="sym" cx="0" cy="0" r="3"/><text class="lab rgt" transform="translate(3 -7)">28</text></g><path class="edge" d="M 0 0 V -40.44 H 135.844"/><circle class="sym" cx="0" cy="0" r="3"/><text class="lab lft" transform="translate(-3 -7)">30</text></g><g class="a34 c2 node n33 p1" transform="translate(135.844 7.9971)"><g class="a33 i9 leaf node n9 p1 sample" transform="translate(-23 61.3043)"><path class="edge" d="M 0 0 V -61.3043 H 23"/><rect class="sym" height="6" width="6" x="-3" y="-3"/><text class="lab" transform="translate(0 11)">9</text></g><g class="a33 i14 leaf node n14 p2 sample" transform="translate(23 61.3043)"><path class="edge" d="M 0 0 V -61.3043 H -23"/><rect class="sym" height="6" width="6" x="-3" y="-3"/><text class="lab" transform="translate(0 11)">14</text></g><path class="edge" d="M 0 0 V -7.9971 H -135.844"/><circle class="sym" cx="0" cy="0" r="3"/><text class="lab rgt" transform="translate(3 -7)">33</text></g><path class="edge" d="M 0 0 V -61.5923 H 136.922"/><circle class="sym" cx="0" cy="0" r="3"/><text class="lab lft" transform="translate(-3 -7)">34</text></g><path class="edge" d="M 0 0 V -163.706 H 229.82"/><circle class="sym" cx="0" cy="0" r="3"/><text class="lab lft" transform="translate(-3 -7)">35</text></g><g class="a38 c2 node n37 p2" transform="translate(229.82 36.1415)"><g class="a37 i6 leaf node n6 p1 sample" transform="translate(68.2812 258.459)"><path class="edge" d="M 0 0 V -258.459 H -68.2812"/><rect class="sym" height="6" width="6" x="-3" y="-3"/><text class="lab" transform="translate(0 11)">6</text></g><g class="a37 c2 node n36 p2" transform="translate(-68.2812 43.9847)"><g class="a36 i15 leaf node n15 p2 sample" transform="translate(90.5625 214.474)"><path class="edge" d="M 0 0 V -214.474 H -90.5625"/><rect class="sym" height="6" width="6" x="-3" y="-3"/><text class="lab" transform="translate(0 11)">15</text></g><g class="a36 c2 m0 node n31 p1 s0" transform="translate(-90.5625 184.062)"><g class="a31 i1 leaf node n1 p1 sample" transform="translate(-48.875 30.4115)"><path class="edge" d="M 0 0 V -30.4115 H 48.875"/><rect class="sym" height="6" width="6" x="-3" y="-3"/><text class="lab" transform="translate(0 11)">1</text></g><g class="a31 c2 node n29 p1" transform="translate(48.875 18.1631)"><g class="a29 i3 leaf node n3 p1 sample" transform="translate(-51.75 12.2485)"><path class="edge" d="M 0 0 V -12.2485 H 51.75"/><rect class="sym" height="6" width="6" x="-3" y="-3"/><text class="lab" transform="translate(0 11)">3</text></g><g class="a29 c2 node n27 p2" transform="translate(51.75 3.65676)"><g class="a27 i8 leaf node n8 p1 sample" transform="translate(34.5 8.5917)"><path class="edge" d="M 0 0 V -8.5917 H -34.5"/><rect class="sym" height="6" width="6" x="-3" y="-3"/><text class="lab" transform="translate(0 11)">8</text></g><g class="a27 c2 node n20 p1" transform="translate(-34.5 8.3364)"><g class="a20 i5 leaf node n5 p1 sample" transform="translate(-23 0.255297)"><path class="edge" d="M 0 0 V -0.255297 H 23"/><rect class="sym" height="6" width="6" x="-3" y="-3"/><text class="lab" transform="translate(0 11)">5</text></g><g class="a20 i11 leaf node n11 p2 sample" transform="translate(23 0.255297)"><path class="edge" d="M 0 0 V -0.255297 H -23"/><rect class="sym" height="6" width="6" x="-3" y="-3"/><text class="lab" transform="translate(0 11)">11</text></g><path class="edge" d="M 0 0 V -8.3364 H 34.5"/><circle class="sym" cx="0" cy="0" r="3"/><text class="lab lft" transform="translate(-3 -7)">20</text></g><path class="edge" d="M 0 0 V -3.65676 H -51.75"/><circle class="sym" cx="0" cy="0" r="3"/><text class="lab rgt" transform="translate(3 -7)">27</text></g><path class="edge" d="M 0 0 V -18.1631 H -48.875"/><circle class="sym" cx="0" cy="0" r="3"/><text class="lab rgt" transform="translate(3 -7)">29</text></g><path class="edge" d="M 0 0 V -184.062 H 90.5625"/><g class="mut m0 s0" transform="translate(0 -35.8519)"><line x1="0" x2="0" y1="0" y2="35.8519"/><path class="sym" d="M -3,-3 l 6,6 M -3,3 l 6,-6"/><text class="lab lft" transform="translate(-5 0)">0</text></g><circle class="sym" cx="0" cy="0" r="3"/><text class="lab lft" transform="translate(-3 -7)">31</text></g><path class="edge" d="M 0 0 V -43.9847 H 68.2812"/><circle class="sym" cx="0" cy="0" r="3"/><text class="lab lft" transform="translate(-3 -7)">36</text></g><path class="edge" d="M 0 0 V -36.1415 H -229.82"/><circle class="sym" cx="0" cy="0" r="3"/><text class="lab rgt" transform="translate(3 -7)">37</text></g><circle class="sym" cx="0" cy="0" r="3"/><text class="lab" transform="translate(0 -11)">38</text></g></g></g></g></g></svg>