<svg baseProfile="full" height="400" version="1.1" width="1000" xmlns="http://www.w3.org/2000/svg" xmlns:ev="http://www.w3.org/2001/xml-events" xmlns:xlink="http://www.w3.org/1999/xlink"><defs><style type="text/css"><![CDATA[.background path {fill: #808080; fill-opacity: 0}.background path:nth-child(odd) {fill-opacity: .1}.x-regions rect {fill: yellow; stroke: black; opacity: 0.5}.axes {font-size: 14px}.x-axis .tick .lab {font-weight: bold; dominant-baseline: hanging}.axes, .tree {font-size: 14px; text-anchor: middle}.axes line, .edge {stroke: black; fill: none}.axes .ax-skip {stroke-dasharray: 4}.y-axis .grid {stroke: #FAFAFA}.node > .sym {fill: black; stroke: none}.site > .sym {stroke: black}.mut text {fill: red; font-style: italic}.mut.extra text {fill: hotpink}.mut line {fill: none; stroke: none}.mut .sym {fill: none; stroke: red}.mut.extra .sym {stroke: hotpink}.node .mut .sym {stroke-width: 1.5px}.tree text, .tree-sequence text {dominant-baseline: central}.plotbox .lab.lft {text-anchor: end}.plotbox .lab.rgt {text-anchor: start}.polytomy line {stroke: black; stroke-dasharray: 1px, 1px}.polytomy text {paint-order:stroke;stroke-width:0.3em;stroke:white}]]></style></defs><g class="tree-sequence"><g class="background"><path d="M20,0 l960,0 l0,338.2 l0,25 l0,5 l-960,0 l0,-5 l0,-25 l0,-338.2z"/></g><g class="axes"><g class="x-axis"><g class="title" transform="translate(500 400)"><text class="lab" text-anchor="middle" transform="translate(0 -11)">Genome position</text></g><line class="ax-line" x1="20" x2="980" y1="363.2" y2="363.2"/><g class="ticks"><g class="tick" transform="translate(20 363.2)"><line x1="0" x2="0" y1="0" y2="5"/><g transform="translate(0 6)"><text class="lab">0</text></g></g><g class="tick" transform="translate(980 363.2)"><line x1="0" x2="0" y1="0" y2="5"/><g transform="translate(0 6)"><text class="lab">1000</text></g></g></g><g class="site s0" transform="translate(118.88 363.2)"><line class="sym" x1="0" x2="0" y1="0" y2="-10"/><g class="mut m0"><polyline class="sym" points="2.5,-6.5 0,-1.5 -2.5,-6.5"/></g></g><g class="site s1" transform="translate(298.4 363.2)"><line class="sym" x1="0" x2="0" y1="0" y2="-10"/><g class="mut m1"><polyline class="sym" points="2.5,-6.5 0,-1.5 -2.5,-6.5"/></g></g><g class="site s2" transform="translate(493.28 363.2)"><line class="sym" x1="0" x2="0" y1="0" y2="-10"/><g class="mut m2"><polyline class="sym" points="2.5,-6.5 0,-1.5 -2.5,-6.5"/></g></g><g class="site s3" transform="translate(751.52 363.2)"><line class="sym" x1="0" x2="0" y1="0" y2="-10"/><g class="mut m3"><polyline class="sym" points="2.5,-6.5 0,-1.5 -2.5,-6.5"/></g></g></g></g><g class="plotbox trees"><g class="tree t0" transform="translate(20 0)"><g class="plotbox"><g class="c2 node n38 p2 root" transform="translate(702.094 26.8)"><g class="a38 i9 leaf m3 node n9 p1 s3 sample" transform="translate(214.906 294.6)"><path class="edge" d="M 0 0 V -294.6 H -214.906"/><g class="mut m3 s3" transform="translate(0 -196.048)"><line x1="0" x2="0" y1="0" y2="196.048"/><path class="sym" d="M -3,-3 l 6,6 M -3,3 l 6,-6"/><text class="lab rgt" transform="translate(5 0)">3</text></g><rect class="sym" height="6" width="6" x="-3" y="-3"/><text class="lab" transform="translate(0 11)">9</text></g><g class="a38 c2 node n37 p1" transform="translate(-214.906 98.5841)"><g class="a37 c2 node n35 p2" transform="translate(-215.625 88.0141)"><g class="a35 c2 node n32 p2" transform="translate(-81.9375 49.4007)"><g class="a32 c2 node n21 p2" transform="translate(60.375 53.7959)"><g class="a21 i4 leaf node n4 p1 sample" transform="translate(-23 4.80516)"><path class="edge" d="M 0 0 V -4.80516 H 23"/><rect class="sym" height="6" width="6" x="-3" y="-3"/><text class="lab" transform="translate(0 11)">4</text></g><g class="a21 i13 leaf node n13 p2 sample" transform="translate(23 4.80516)"><path class="edge" d="M 0 0 V -4.80516 H -23"/><rect class="sym" height="6" width="6" x="-3" y="-3"/><text class="lab" transform="translate(0 11)">13</text></g><path class="edge" d="M 0 0 V -53.7959 H -60.375"/><circle class="sym" cx="0" cy="0" r="3"/><text class="lab rgt" transform="translate(3 -7)">21</text></g><g class="a32 c2 node n29 p1" transform="translate(-60.375 29.2309)"><g class="a29 i5 leaf node n5 p1 sample" transform="translate(51.75 29.3701)"><path class="edge" d="M 0 0 V -29.3701 H -51.75"/><rect class="sym" height="6" width="6" x="-3" y="-3"/><text class="lab" transform="translate(0 11)">5</text></g><g class="a29 c2 node n28 p2" transform="translate(-51.75 2.30694)"><g class="a28 i0 leaf node n0 p1 sample" transform="translate(-34.5 27.0632)"><path class="edge" d="M 0 0 V -27.0632 H 34.5"/><rect class="sym" height="6" width="6" x="-3" y="-3"/><text class="lab" transform="translate(0 11)">0</text></g><g class="a28 c2 node n25 p2" transform="translate(34.5 7.63271)"><g class="a25 i10 leaf node n10 p2 sample" transform="translate(-23 19.4305)"><path class="edge" d="M 0 0 V -19.4305 H 23"/><rect class="sym" height="6" width="6" x="-3" y="-3"/><text class="lab" transform="translate(0 11)">10</text></g><g class="a25 i14 leaf node n14 p2 sample" transform="translate(23 19.4305)"><path class="edge" d="M 0 0 V -19.4305 H -23"/><rect class="sym" height="6" width="6" x="-3" y="-3"/><text class="lab" transform="translate(0 11)">14</text></g><path class="edge" d="M 0 0 V -7.63271 H -34.5"/><circle class="sym" cx="0" cy="0" r="3"/><text class="lab rgt" transform="translate(3 -7)">25</text></g><path class="edge" d="M 0 0 V -2.30694 H 51.75"/><circle class="sym" cx="0" cy="0" r="3"/><text class="lab lft" transform="translate(-3 -7)">28</text></g><path class="edge" d="M 0 0 V -29.2309 H 60.375"/><circle class="sym" cx="0" cy="0" r="3"/><text class="lab lft" transform="translate(-3 -7)">29</text></g><path class="edge" d="M 0 0 V -49.4007 H 81.9375"/><circle class="sym" cx="0" cy="0" r="3"/><text class="lab lft" transform="translate(-3 -7)">32</text></g><g class="a35 c2 node n34 p1" transform="translate(81.9375 35.461)"><g class="a34 i7 leaf node n7 p1 sample" transform="translate(-34.5 72.5408)"><path class="edge" d="M 0 0 V -72.5408 H 34.5"/><rect class="sym" height="6" width="6" x="-3" y="-3"/><text class="lab" transform="translate(0 11)">7</text></g><g class="a34 c2 node n27 p2" transform="translate(34.5 45.5579)"><g class="a27 i11 leaf node n11 p2 sample" transform="translate(-23 26.9829)"><path class="edge" d="M 0 0 V -26.9829 H 23"/><rect class="sym" height="6" width="6" x="-3" y="-3"/><text class="lab" transform="translate(0 11)">11</text></g><g class="a27 i19 leaf node n19 p2 sample" transform="translate(23 26.9829)"><path class="edge" d="M 0 0 V -26.9829 H -23"/><rect class="sym" height="6" width="6" x="-3" y="-3"/><text class="lab" transform="translate(0 11)">19</text></g><path class="edge" d="M 0 0 V -45.5579 H -34.5"/><circle class="sym" cx="0" cy="0" r="3"/><text class="lab rgt" transform="translate(3 -7)">27</text></g><path class="edge" d="M 0 0 V -35.461 H -81.9375"/><circle class="sym" cx="0" cy="0" r="3"/><text class="lab rgt" transform="translate(3 -7)">34</text></g><path class="edge" d="M 0 0 V -88.0141 H 215.625"/><circle class="sym" cx="0" cy="0" r="3"/><text class="lab lft" transform="translate(-3 -7)">35</text></g><g class="a37 c2 m0 node n36 p1 s0" transform="translate(215.625 79.3794)"><g class="a36 c2 node n31 p1" transform="translate(-110.688 73.0974)"><g class="a31 i3 leaf node n3 p1 sample" transform="translate(48.875 43.539)"><path class="edge" d="M 0 0 V -43.539 H -48.875"/><rect class="sym" height="6" width="6" x="-3" y="-3"/><text class="lab" transform="translate(0 11)">3</text></g><g class="a31 c2 node n24 p1" transform="translate(-48.875 29.4176)"><g class="a24 i8 leaf node n8 p1 sample" transform="translate(51.75 14.1214)"><path class="edge" d="M 0 0 V -14.1214 H -51.75"/><rect class="sym" height="6" width="6" x="-3" y="-3"/><text class="lab" transform="translate(0 11)">8</text></g><g class="a24 c2 node n23 p1" transform="translate(-51.75 5.49714)"><g class="a23 i1 leaf node n1 p1 sample" transform="translate(-34.5 8.62425)"><path class="edge" d="M 0 0 V -8.62425 H 34.5"/><rect class="sym" height="6" width="6" x="-3" y="-3"/><text class="lab" transform="translate(0 11)">1</text></g><g class="a23 c2 node n22 p1" transform="translate(34.5 0.762116)"><g class="a22 i17 leaf node n17 p2 sample" transform="translate(-23 7.86214)"><path class="edge" d="M 0 0 V -7.86214 H 23"/><rect class="sym" height="6" width="6" x="-3" y="-3"/><text class="lab" transform="translate(0 11)">17</text></g><g class="a22 i18 leaf node n18 p2 sample" transform="translate(23 7.86214)"><path class="edge" d="M 0 0 V -7.86214 H -23"/><rect class="sym" height="6" width="6" x="-3" y="-3"/><text class="lab" transform="translate(0 11)">18</text></g><path class="edge" d="M 0 0 V -0.762116 H -34.5"/><circle class="sym" cx="0" cy="0" r="3"/><text class="lab rgt" transform="translate(3 -7)">22</text></g><path class="edge" d="M 0 0 V -5.49714 H 51.75"/><circle class="sym" cx="0" cy="0" r="3"/><text class="lab lft" transform="translate(-3 -7)">23</text></g><path class="edge" d="M 0 0 V -29.4176 H 48.875"/><circle class="sym" cx="0" cy="0" r="3"/><text class="lab lft" transform="translate(-3 -7)">24</text></g><path class="edge" d="M 0 0 V -73.0974 H 110.688"/><circle class="sym" cx="0" cy="0" r="3"/><text class="lab lft" transform="translate(-3 -7)">31</text></g><g class="a36 c2 node n33 p1" transform="translate(110.688 48.6233)"><g class="a33 i15 leaf m2 node n15 p2 s2 sample" transform="translate(57.5 68.0131)"><path class="edge" d="M 0 0 V -68.0131 H -57.5"/><g class="mut m2 s2" transform="translate(0 -57.0668)"><line x1="0" x2="0" y1="0" y2="57.0668"/><path class="sym" d="M -3,-3 l 6,6 M -3,3 l 6,-6"/><text class="lab rgt" transform="translate(5 0)">2</text></g><rect class="sym" height="6" width="6" x="-3" y="-3"/><text class="lab" transform="translate(0 11)">15</text></g><g class="a33 c2 node n30 p2" transform="translate(-57.5 32.089)"><g class="a30 c2 node n20 p1" transform="translate(46 32.3783)"><g class="a20 i6 leaf node n6 p1 sample" transform="translate(-23 3.54578)"><path class="edge" d="M 0 0 V -3.54578 H 23"/><rect class="sym" height="6" width="6" x="-3" y="-3"/><text class="lab" transform="translate(0 11)">6</text></g><g class="a20 i12 leaf node n12 p2 sample" transform="translate(23 3.54578)"><path class="edge" d="M 0 0 V -3.54578 H -23"/><rect class="sym" height="6" width="6" x="-3" y="-3"/><text class="lab" transform="translate(0 11)">12</text></g><path class="edge" d="M 0 0 V -32.3783 H -46"/><circle class="sym" cx="0" cy="0" r="3"/><text class="lab rgt" transform="translate(3 -7)">20</text></g><g class="a30 c2 node n26 p1" transform="translate(-46 12.5753)"><g class="a26 i2 leaf m1 node n2 p1 s1 sample" transform="translate(-23 23.3488)"><path class="edge" d="M 0 0 V -23.3488 H 23"/><g class="mut m1 s1" transform="translate(0 -6.40606)"><line x1="0" x2="0" y1="0" y2="6.40606"/><path class="sym" d="M -3,-3 l 6,6 M -3,3 l 6,-6"/><text class="lab lft" transform="translate(-5 0)">1</text></g><rect class="sym" height="6" width="6" x="-3" y="-3"/><text class="lab" transform="translate(0 11)">2</text></g><g class="a26 i16 leaf node n16 p2 sample" transform="translate(23 23.3488)"><path class="edge" d="M 0 0 V -23.3488 H -23"/><rect class="sym" height="6" width="6" x="-3" y="-3"/><text class="lab" transform="translate(0 11)">16</text></g><path class="edge" d="M 0 0 V -12.5753 H 46"/><circle class="sym" cx="0" cy="0" r="3"/><text class="lab lft" transform="translate(-3 -7)">26</text></g><path class="edge" d="M 0 0 V -32.089 H 57.5"/><circle class="sym" cx="0" cy="0" r="3"/><text class="lab lft" transform="translate(-3 -7)">30</text></g><path class="edge" d="M 0 0 V -48.6233 H -110.688"/><circle class="sym" cx="0" cy="0" r="3"/><text class="lab rgt" transform="translate(3 -7)">33</text></g><path class="edge" d="M 0 0 V -79.3794 H -215.625"/><g class="mut m0 s0" transform="translate(0 -16.7209)"><line x1="0" x2="0" y1="0" y2="16.7209"/><path class="sym" d="M -3,-3 l 6,6 M -3,3 l 6,-6"/><text class="lab rgt" transform="translate(5 0)">0</text></g><circle class="sym" cx="0" cy="0" r="3"/><text class="lab rgt" transform="translate(3 -7)">36</text></g><path class="edge" d="M 0 0 V -98.5841 H 214.906"/><circle class="sym" cx="0" cy="0" r="3"/><text class="lab lft" transform="translate(-3 -7)">37</text></g><circle class="sym" cx="0" cy="0" r="3"/><text class="lab" transform="translate(0 -11)">38</text></g></g></g></g></g></svg>