<svg baseProfile="full" height="400" version="1.1" width="1000" xmlns="http://www.w3.org/2000/svg" xmlns:ev="http://www.w3.org/2001/xml-events" xmlns:xlink="http://www.w3.org/1999/xlink"><defs><style type="text/css"><![CDATA[.background path {fill: #808080; fill-opacity: 0}.background path:nth-child(odd) {fill-opacity: .1}.x-regions rect {fill: yellow; stroke: black; opacity: 0.5}.axes {font-size: 14px}.x-axis .tick .lab {font-weight: bold; dominant-baseline: hanging}.axes, .tree {font-size: 14px; text-anchor: middle}.axes line, .edge {stroke: black; fill: none}.axes .ax-skip {stroke-dasharray: 4}.y-axis .grid {stroke: #FAFAFA}.node > .sym {fill: black; stroke: none}.site > .sym {stroke: black}.mut text {fill: red; font-style: italic}.mut.extra text {fill: hotpink}.mut line {fill: none; stroke: none}.mut .sym {fill: none; stroke: red}.mut.extra .sym {stroke: hotpink}.node .mut .sym {stroke-width: 1.5px}.tree text, .tree-sequence text {dominant-baseline: central}.plotbox .lab.lft {text-anchor: end}.plotbox .lab.rgt {text-anchor: start}.polytomy line {stroke: black; stroke-dasharray: 1px, 1px}.polytomy text {paint-order:stroke;stroke-width:0.3em;stroke:white}]]></style></defs><g class="tree-sequence"><g class="background"><path d="M20,0 l960,0 l0,338.2 l0,25 l0,5 l-960,0 l0,-5 l0,-25 l0,-338.2z"/></g><g class="axes"><g class="x-axis"><g class="title" transform="translate(500 400)"><text class="lab" text-anchor="middle" transform="translate(0 -11)">Genome position</text></g><line class="ax-line" x1="20" x2="980" y1="363.2" y2="363.2"/><g class="ticks"><g class="tick" transform="translate(20 363.2)"><line x1="0" x2="0" y1="0" y2="5"/><g transform="translate(0 6)"><text class="lab">0</text></g></g><g class="tick" transform="translate(980 363.2)"><line x1="0" x2="0" y1="0" y2="5"/><g transform="translate(0 6)"><text class="lab">1000</text></g></g></g><g class="site s0" transform="translate(151.52 363.2)"><line class="sym" x1="0" x2="0" y1="0" y2="-10"/><g class="mut m0"><polyline class="sym" points="2.5,-6.5 0,-1.5 -2.5,-6.5"/></g></g><g class="site s1" transform="translate(584.48 363.2)"><line class="sym" x1="0" x2="0" y1="0" y2="-10"/><g class="mut m1"><polyline class="sym" points="2.5,-6.5 0,-1.5 -2.5,-6.5"/></g></g><g class="site s2" transform="translate(752.48 363.2)"><line class="sym" x1="0" x2="0" y1="0" y2="-10"/><g class="mut m2"><polyline class="sym" points="2.5,-6.5 0,-1.5 -2.5,-6.5"/></g></g></g></g><g class="plotbox trees"><g class="tree t0" transform="translate(20 0)"><g class="plotbox"><g class="c2 node n38 p2 root" transform="translate(607.668 26.8)"><g class="a38 c2 node n31 p1" transform="translate(274.832 269.233)"><g class="a31 i5 leaf node n5 p1 sample" transform="translate(34.5 25.3671)"><path class="edge" d="M 0 0 V -25.3671 H -34.5"/><rect class="sym" height="6" width="6" x="-3" y="-3"/><text class="lab" transform="translate(0 11)">5</text></g><g class="a31 c2 node n20 p1" transform="translate(-34.5 24.3875)"><g class="a20 i4 leaf node n4 p1 sample" transform="translate(-23 0.979577)"><path class="edge" d="M 0 0 V -0.979577 H 23"/><rect class="sym" height="6" width="6" x="-3" y="-3"/><text class="lab" transform="translate(0 11)">4</text></g><g class="a20 i13 leaf node n13 p2 sample" transform="translate(23 0.979577)"><path class="edge" d="M 0 0 V -0.979577 H -23"/><rect class="sym" height="6" width="6" x="-3" y="-3"/><text class="lab" transform="translate(0 11)">13</text></g><path class="edge" d="M 0 0 V -24.3875 H 34.5"/><circle class="sym" cx="0" cy="0" r="3"/><text class="lab lft" transform="translate(-3 -7)">20</text></g><path class="edge" d="M 0 0 V -269.233 H -274.832"/><circle class="sym" cx="0" cy="0" r="3"/><text class="lab rgt" transform="translate(3 -7)">31</text></g><g class="a38 c2 node n37 p2" transform="translate(-274.832 44.2173)"><g class="a37 c2 m0 node n22 p2 s0" transform="translate(-266.836 244.515)"><g class="a22 i0 leaf node n0 p1 sample" transform="translate(-23 5.86819)"><path class="edge" d="M 0 0 V -5.86819 H 23"/><rect class="sym" height="6" width="6" x="-3" y="-3"/><text class="lab" transform="translate(0 11)">0</text></g><g class="a22 i1 leaf node n1 p1 sample" transform="translate(23 5.86819)"><path class="edge" d="M 0 0 V -5.86819 H -23"/><rect class="sym" height="6" width="6" x="-3" y="-3"/><text class="lab" transform="translate(0 11)">1</text></g><path class="edge" d="M 0 0 V -244.515 H 266.836"/><g class="mut m0 s0" transform="translate(0 -191.042)"><line x1="0" x2="0" y1="0" y2="191.042"/><path class="sym" d="M -3,-3 l 6,6 M -3,3 l 6,-6"/><text class="lab lft" transform="translate(-5 0)">0</text></g><circle class="sym" cx="0" cy="0" r="3"/><text class="lab lft" transform="translate(-3 -7)">22</text></g><g class="a37 c2 m1 m2 node n36 p1 s1 s2" transform="translate(266.836 149.955)"><g class="a36 c2 node n34 p2" transform="translate(-144.828 70.2955)"><g class="a34 c2 node n26 p1" transform="translate(163.156 21.7651)"><g class="a26 i6 leaf node n6 p1 sample" transform="translate(-23 8.36711)"><path class="edge" d="M 0 0 V -8.36711 H 23"/><rect class="sym" height="6" width="6" x="-3" y="-3"/><text class="lab" transform="translate(0 11)">6</text></g><g class="a26 i10 leaf node n10 p2 sample" transform="translate(23 8.36711)"><path class="edge" d="M 0 0 V -8.36711 H -23"/><rect class="sym" height="6" width="6" x="-3" y="-3"/><text class="lab" transform="translate(0 11)">10</text></g><path class="edge" d="M 0 0 V -21.7651 H -163.156"/><circle class="sym" cx="0" cy="0" r="3"/><text class="lab rgt" transform="translate(3 -7)">26</text></g><g class="a34 c2 node n33 p2" transform="translate(-163.156 3.96532)"><g class="a33 c2 node n25 p2" transform="translate(-104.938 17.8358)"><g class="a25 i2 leaf node n2 p1 sample" transform="translate(-51.75 8.33102)"><path class="edge" d="M 0 0 V -8.33102 H 51.75"/><rect class="sym" height="6" width="6" x="-3" y="-3"/><text class="lab" transform="translate(0 11)">2</text></g><g class="a25 c2 node n24 p2" transform="translate(51.75 0.697834)"><g class="a24 i17 leaf node n17 p2 sample" transform="translate(34.5 7.63319)"><path class="edge" d="M 0 0 V -7.63319 H -34.5"/><rect class="sym" height="6" width="6" x="-3" y="-3"/><text class="lab" transform="translate(0 11)">17</text></g><g class="a24 c2 node n21 p1" transform="translate(-34.5 5.98328)"><g class="a21 i3 leaf node n3 p1 sample" transform="translate(-23 1.6499)"><path class="edge" d="M 0 0 V -1.6499 H 23"/><rect class="sym" height="6" width="6" x="-3" y="-3"/><text class="lab" transform="translate(0 11)">3</text></g><g class="a21 i15 leaf node n15 p2 sample" transform="translate(23 1.6499)"><path class="edge" d="M 0 0 V -1.6499 H -23"/><rect class="sym" height="6" width="6" x="-3" y="-3"/><text class="lab" transform="translate(0 11)">15</text></g><path class="edge" d="M 0 0 V -5.98328 H 34.5"/><circle class="sym" cx="0" cy="0" r="3"/><text class="lab lft" transform="translate(-3 -7)">21</text></g><path class="edge" d="M 0 0 V -0.697834 H -51.75"/><circle class="sym" cx="0" cy="0" r="3"/><text class="lab rgt" transform="translate(3 -7)">24</text></g><path class="edge" d="M 0 0 V -17.8358 H 104.938"/><circle class="sym" cx="0" cy="0" r="3"/><text class="lab lft" transform="translate(-3 -7)">25</text></g><g class="a33 c2 node n32 p1" transform="translate(104.938 0.0852584)"><g class="a32 i7 leaf node n7 p1 sample" transform="translate(-77.625 26.0816)"><path class="edge" d="M 0 0 V -26.0816 H 77.625"/><rect class="sym" height="6" width="6" x="-3" y="-3"/><text class="lab" transform="translate(0 11)">7</text></g><g class="a32 c2 node n30 p1" transform="translate(77.625 10.7003)"><g class="a30 c2 node n27 p1" transform="translate(51.75 6.1338)"><g class="a27 i9 leaf node n9 p1 sample" transform="translate(-23 9.24746)"><path class="edge" d="M 0 0 V -9.24746 H 23"/><rect class="sym" height="6" width="6" x="-3" y="-3"/><text class="lab" transform="translate(0 11)">9</text></g><g class="a27 i14 leaf node n14 p2 sample" transform="translate(23 9.24746)"><path class="edge" d="M 0 0 V -9.24746 H -23"/><rect class="sym" height="6" width="6" x="-3" y="-3"/><text class="lab" transform="translate(0 11)">14</text></g><path class="edge" d="M 0 0 V -6.1338 H -51.75"/><circle class="sym" cx="0" cy="0" r="3"/><text class="lab rgt" transform="translate(3 -7)">27</text></g><g class="a30 c2 node n29 p2" transform="translate(-51.75 4.61836)"><g class="a29 i12 leaf node n12 p2 sample" transform="translate(34.5 10.7629)"><path class="edge" d="M 0 0 V -10.7629 H -34.5"/><rect class="sym" height="6" width="6" x="-3" y="-3"/><text class="lab" transform="translate(0 11)">12</text></g><g class="a29 c2 node n28 p1" transform="translate(-34.5 0.660254)"><g class="a28 i8 leaf node n8 p1 sample" transform="translate(-23 10.1026)"><path class="edge" d="M 0 0 V -10.1026 H 23"/><rect class="sym" height="6" width="6" x="-3" y="-3"/><text class="lab" transform="translate(0 11)">8</text></g><g class="a28 i11 leaf node n11 p2 sample" transform="translate(23 10.1026)"><path class="edge" d="M 0 0 V -10.1026 H -23"/><rect class="sym" height="6" width="6" x="-3" y="-3"/><text class="lab" transform="translate(0 11)">11</text></g><path class="edge" d="M 0 0 V -0.660254 H 34.5"/><circle class="sym" cx="0" cy="0" r="3"/><text class="lab lft" transform="translate(-3 -7)">28</text></g><path class="edge" d="M 0 0 V -4.61836 H 51.75"/><circle class="sym" cx="0" cy="0" r="3"/><text class="lab lft" transform="translate(-3 -7)">29</text></g><path class="edge" d="M 0 0 V -10.7003 H -77.625"/><circle class="sym" cx="0" cy="0" r="3"/><text class="lab rgt" transform="translate(3 -7)">30</text></g><path class="edge" d="M 0 0 V -0.0852584 H -104.938"/><circle class="sym" cx="0" cy="0" r="3"/><text class="lab rgt" transform="translate(3 -7)">32</text></g><path class="edge" d="M 0 0 V -3.96532 H 163.156"/><circle class="sym" cx="0" cy="0" r="3"/><text class="lab lft" transform="translate(-3 -7)">33</text></g><path class="edge" d="M 0 0 V -70.2955 H 144.828"/><circle class="sym" cx="0" cy="0" r="3"/><text class="lab lft" transform="translate(-3 -7)">34</text></g><g class="a36 c2 node n35 p1" transform="translate(144.828 44.5349)"><g class="a35 i18 leaf node n18 p2 sample" transform="translate(34.5 55.8927)"><path class="edge" d="M 0 0 V -55.8927 H -34.5"/><rect class="sym" height="6" width="6" x="-3" y="-3"/><text class="lab" transform="translate(0 11)">18</text></g><g class="a35 c2 node n23 p1" transform="translate(-34.5 49.5781)"><g class="a23 i16 leaf node n16 p2 sample" transform="translate(-23 6.31462)"><path class="edge" d="M 0 0 V -6.31462 H 23"/><rect class="sym" height="6" width="6" x="-3" y="-3"/><text class="lab" transform="translate(0 11)">16</text></g><g class="a23 i19 leaf node n19 p2 sample" transform="translate(23 6.31462)"><path class="edge" d="M 0 0 V -6.31462 H -23"/><rect class="sym" height="6" width="6" x="-3" y="-3"/><text class="lab" transform="translate(0 11)">19</text></g><path class="edge" d="M 0 0 V -49.5781 H 34.5"/><circle class="sym" cx="0" cy="0" r="3"/><text class="lab lft" transform="translate(-3 -7)">23</text></g><path class="edge" d="M 0 0 V -44.5349 H -144.828"/><circle class="sym" cx="0" cy="0" r="3"/><text class="lab rgt" transform="translate(3 -7)">35</text></g><path class="edge" d="M 0 0 V -149.955 H -266.836"/><g class="mut m2 s2" transform="translate(0 -127.705)"><line x1="0" x2="0" y1="0" y2="127.705"/><path class="sym" d="M -3,-3 l 6,6 M -3,3 l 6,-6"/><text class="lab rgt" transform="translate(5 0)">2</text></g><g class="mut m1 s1" transform="translate(0 -121.743)"><line x1="0" x2="0" y1="0" y2="121.743"/><path class="sym" d="M -3,-3 l 6,6 M -3,3 l 6,-6"/><text class="lab rgt" transform="translate(5 0)">1</text></g><circle class="sym" cx="0" cy="0" r="3"/><text class="lab rgt" transform="translate(3 -7)">36</text></g><path class="edge" d="M 0 0 V -44.2173 H 274.832"/><circle class="sym" cx="0" cy="0" r="3"/><text class="lab lft" transform="translate(-3 -7)">37</text></g><circle class="sym" cx="0" cy="0" r="3"/><text class="lab" transform="translate(0 -11)">38</text></g></g></g></g></g></svg>