<svg baseProfile="full" height="400" version="1.1" width="1000" xmlns="http://www.w3.org/2000/svg" xmlns:ev="http://www.w3.org/2001/xml-events" xmlns:xlink="http://www.w3.org/1999/xlink"><defs><style type="text/css"><![CDATA[.background path {fill: #808080; fill-opacity: 0}.background path:nth-child(odd) {fill-opacity: .1}.x-regions rect {fill: yellow; stroke: black; opacity: 0.5}.axes {font-size: 14px}.x-axis .tick .lab {font-weight: bold; dominant-baseline: hanging}.axes, .tree {font-size: 14px; text-anchor: middle}.axes line, .edge {stroke: black; fill: none}.axes .ax-skip {stroke-dasharray: 4}.y-axis .grid {stroke: #FAFAFA}.node > .sym {fill: black; stroke: none}.site > .sym {stroke: black}.mut text {fill: red; font-style: italic}.mut.extra text {fill: hotpink}.mut line {fill: none; stroke: none}.mut .sym {fill: none; stroke: red}.mut.extra .sym {stroke: hotpink}.node .mut .sym {stroke-width: 1.5px}.tree text, .tree-sequence text {dominant-baseline: central}.plotbox .lab.lft {text-anchor: end}.plotbox .lab.rgt {text-anchor: start}.polytomy line {stroke: black; stroke-dasharray: 1px, 1px}.polytomy text {paint-order:stroke;stroke-width:0.3em;stroke:white}]]></style></defs><g class="tree-sequence"><g class="background"><path d="M20,0 l960,0 l0,338.2 l0,25 l0,5 l-960,0 l0,-5 l0,-25 l0,-338.2z"/></g><g class="axes"><g class="x-axis"><g class="title" transform="translate(500 400)"><text class="lab" text-anchor="middle" transform="translate(0 -11)">Genome position</text></g><line class="ax-line" x1="20" x2="980" y1="363.2" y2="363.2"/><g class="ticks"><g class="tick" transform="translate(20 363.2)"><line x1="0" x2="0" y1="0" y2="5"/><g transform="translate(0 6)"><text class="lab">0</text></g></g><g class="tick" transform="translate(980 363.2)"><line x1="0" x2="0" y1="0" y2="5"/><g transform="translate(0 6)"><text class="lab">1000</text></g></g></g><g class="site s0" transform="translate(771.68 363.2)"><line class="sym" x1="0" x2="0" y1="0" y2="-10"/><g class="mut m0"><polyline class="sym" points="2.5,-6.5 0,-1.5 -2.5,-6.5"/></g></g></g></g><g class="plotbox trees"><g class="tree t0" transform="translate(20 0)"><g class="plotbox"><g class="c2 node n38 p0 root" transform="translate(768.398 26.8)"><g class="a38 c2 node n25 p2" transform="translate(125.602 283.866)"><g class="a25 i12 leaf node n12 p2 sample" transform="translate(-23 10.7336)"><path class="edge" d="M 0 0 V -10.7336 H 23"/><rect class="sym" height="6" width="6" x="-3" y="-3"/><text class="lab" transform="translate(0 11)">12</text></g><g class="a25 i13 leaf node n13 p2 sample" transform="translate(23 10.7336)"><path class="edge" d="M 0 0 V -10.7336 H -23"/><rect class="sym" height="6" width="6" x="-3" y="-3"/><text class="lab" transform="translate(0 11)">13</text></g><path class="edge" d="M 0 0 V -283.866 H -125.602"/><circle class="sym" cx="0" cy="0" r="3"/><text class="lab rgt" transform="translate(3 -7)">25</text></g><g class="a38 c2 m0 node n37 p0 s0" transform="translate(-125.602 130.414)"><g class="a37 c2 node n35 p0" transform="translate(-159.203 112.226)"><g class="a35 c2 node n32 p2" transform="translate(171.781 18.294)"><g class="a32 i17 leaf node n17 p2 sample" transform="translate(77.625 33.6667)"><path class="edge" d="M 0 0 V -33.6667 H -77.625"/><rect class="sym" height="6" width="6" x="-3" y="-3"/><text class="lab" transform="translate(0 11)">17</text></g><g class="a32 c2 node n31 p2" transform="translate(-77.625 6.23764)"><g class="a31 c2 node n24 p2" transform="translate(51.75 20.3434)"><g class="a24 i14 leaf node n14 p2 sample" transform="translate(-34.5 7.08564)"><path class="edge" d="M 0 0 V -7.08564 H 34.5"/><rect class="sym" height="6" width="6" x="-3" y="-3"/><text class="lab" transform="translate(0 11)">14</text></g><g class="a24 c2 node n20 p2" transform="translate(34.5 6.81701)"><g class="a20 i16 leaf node n16 p2 sample" transform="translate(-23 0.268625)"><path class="edge" d="M 0 0 V -0.268625 H 23"/><rect class="sym" height="6" width="6" x="-3" y="-3"/><text class="lab" transform="translate(0 11)">16</text></g><g class="a20 i18 leaf node n18 p2 sample" transform="translate(23 0.268625)"><path class="edge" d="M 0 0 V -0.268625 H -23"/><rect class="sym" height="6" width="6" x="-3" y="-3"/><text class="lab" transform="translate(0 11)">18</text></g><path class="edge" d="M 0 0 V -6.81701 H -34.5"/><circle class="sym" cx="0" cy="0" r="3"/><text class="lab rgt" transform="translate(3 -7)">20</text></g><path class="edge" d="M 0 0 V -20.3434 H -51.75"/><circle class="sym" cx="0" cy="0" r="3"/><text class="lab rgt" transform="translate(3 -7)">24</text></g><g class="a31 c2 node n29 p2" transform="translate(-51.75 3.83864)"><g class="a29 i11 leaf node n11 p2 sample" transform="translate(-23 23.5904)"><path class="edge" d="M 0 0 V -23.5904 H 23"/><rect class="sym" height="6" width="6" x="-3" y="-3"/><text class="lab" transform="translate(0 11)">11</text></g><g class="a29 i19 leaf node n19 p2 sample" transform="translate(23 23.5904)"><path class="edge" d="M 0 0 V -23.5904 H -23"/><rect class="sym" height="6" width="6" x="-3" y="-3"/><text class="lab" transform="translate(0 11)">19</text></g><path class="edge" d="M 0 0 V -3.83864 H 51.75"/><circle class="sym" cx="0" cy="0" r="3"/><text class="lab lft" transform="translate(-3 -7)">29</text></g><path class="edge" d="M 0 0 V -6.23764 H 77.625"/><circle class="sym" cx="0" cy="0" r="3"/><text class="lab lft" transform="translate(-3 -7)">31</text></g><path class="edge" d="M 0 0 V -18.294 H -171.781"/><circle class="sym" cx="0" cy="0" r="3"/><text class="lab rgt" transform="translate(3 -7)">32</text></g><g class="a35 c2 node n34 p1" transform="translate(-171.781 4.09051)"><g class="a34 c2 node n26 p1" transform="translate(87.6875 36.333)"><g class="a26 i4 leaf node n4 p1 sample" transform="translate(-34.5 11.5371)"><path class="edge" d="M 0 0 V -11.5371 H 34.5"/><rect class="sym" height="6" width="6" x="-3" y="-3"/><text class="lab" transform="translate(0 11)">4</text></g><g class="a26 c2 node n21 p1" transform="translate(34.5 9.624)"><g class="a21 i5 leaf node n5 p1 sample" transform="translate(-23 1.91312)"><path class="edge" d="M 0 0 V -1.91312 H 23"/><rect class="sym" height="6" width="6" x="-3" y="-3"/><text class="lab" transform="translate(0 11)">5</text></g><g class="a21 i7 leaf node n7 p1 sample" transform="translate(23 1.91312)"><path class="edge" d="M 0 0 V -1.91312 H -23"/><rect class="sym" height="6" width="6" x="-3" y="-3"/><text class="lab" transform="translate(0 11)">7</text></g><path class="edge" d="M 0 0 V -9.624 H -34.5"/><circle class="sym" cx="0" cy="0" r="3"/><text class="lab rgt" transform="translate(3 -7)">21</text></g><path class="edge" d="M 0 0 V -36.333 H -87.6875"/><circle class="sym" cx="0" cy="0" r="3"/><text class="lab rgt" transform="translate(3 -7)">26</text></g><g class="a34 c2 node n33 p1" transform="translate(-87.6875 1.79958)"><g class="a33 c2 node n23 p1" transform="translate(71.875 39.2528)"><g class="a23 i1 leaf node n1 p1 sample" transform="translate(-23 6.8178)"><path class="edge" d="M 0 0 V -6.8178 H 23"/><rect class="sym" height="6" width="6" x="-3" y="-3"/><text class="lab" transform="translate(0 11)">1</text></g><g class="a23 i2 leaf node n2 p1 sample" transform="translate(23 6.8178)"><path class="edge" d="M 0 0 V -6.8178 H -23"/><rect class="sym" height="6" width="6" x="-3" y="-3"/><text class="lab" transform="translate(0 11)">2</text></g><path class="edge" d="M 0 0 V -39.2528 H -71.875"/><circle class="sym" cx="0" cy="0" r="3"/><text class="lab rgt" transform="translate(3 -7)">23</text></g><g class="a33 c2 node n30 p1" transform="translate(-71.875 19.9284)"><g class="a30 c2 node n22 p1" transform="translate(51.75 21.0277)"><g class="a22 i6 leaf node n6 p1 sample" transform="translate(-23 5.11448)"><path class="edge" d="M 0 0 V -5.11448 H 23"/><rect class="sym" height="6" width="6" x="-3" y="-3"/><text class="lab" transform="translate(0 11)">6</text></g><g class="a22 i9 leaf node n9 p1 sample" transform="translate(23 5.11448)"><path class="edge" d="M 0 0 V -5.11448 H -23"/><rect class="sym" height="6" width="6" x="-3" y="-3"/><text class="lab" transform="translate(0 11)">9</text></g><path class="edge" d="M 0 0 V -21.0277 H -51.75"/><circle class="sym" cx="0" cy="0" r="3"/><text class="lab rgt" transform="translate(3 -7)">22</text></g><g class="a30 c2 node n28 p1" transform="translate(-51.75 8.94692)"><g class="a28 i8 leaf node n8 p1 sample" transform="translate(34.5 17.1953)"><path class="edge" d="M 0 0 V -17.1953 H -34.5"/><rect class="sym" height="6" width="6" x="-3" y="-3"/><text class="lab" transform="translate(0 11)">8</text></g><g class="a28 c2 node n27 p1" transform="translate(-34.5 1.0614)"><g class="a27 i0 leaf node n0 p1 sample" transform="translate(-23 16.1339)"><path class="edge" d="M 0 0 V -16.1339 H 23"/><rect class="sym" height="6" width="6" x="-3" y="-3"/><text class="lab" transform="translate(0 11)">0</text></g><g class="a27 i3 leaf node n3 p1 sample" transform="translate(23 16.1339)"><path class="edge" d="M 0 0 V -16.1339 H -23"/><rect class="sym" height="6" width="6" x="-3" y="-3"/><text class="lab" transform="translate(0 11)">3</text></g><path class="edge" d="M 0 0 V -1.0614 H 34.5"/><circle class="sym" cx="0" cy="0" r="3"/><text class="lab lft" transform="translate(-3 -7)">27</text></g><path class="edge" d="M 0 0 V -8.94692 H 51.75"/><circle class="sym" cx="0" cy="0" r="3"/><text class="lab lft" transform="translate(-3 -7)">28</text></g><path class="edge" d="M 0 0 V -19.9284 H 71.875"/><circle class="sym" cx="0" cy="0" r="3"/><text class="lab lft" transform="translate(-3 -7)">30</text></g><path class="edge" d="M 0 0 V -1.79958 H 87.6875"/><circle class="sym" cx="0" cy="0" r="3"/><text class="lab lft" transform="translate(-3 -7)">33</text></g><path class="edge" d="M 0 0 V -4.09051 H 171.781"/><circle class="sym" cx="0" cy="0" r="3"/><text class="lab lft" transform="translate(-3 -7)">34</text></g><path class="edge" d="M 0 0 V -112.226 H 159.203"/><circle class="sym" cx="0" cy="0" r="3"/><text class="lab lft" transform="translate(-3 -7)">35</text></g><g class="a37 c2 node n36 p0" transform="translate(159.203 82.7721)"><g class="a36 i10 leaf node n10 p2 sample" transform="translate(-23 81.4144)"><path class="edge" d="M 0 0 V -81.4144 H 23"/><rect class="sym" height="6" width="6" x="-3" y="-3"/><text class="lab" transform="translate(0 11)">10</text></g><g class="a36 i15 leaf node n15 p2 sample" transform="translate(23 81.4144)"><path class="edge" d="M 0 0 V -81.4144 H -23"/><rect class="sym" height="6" width="6" x="-3" y="-3"/><text class="lab" transform="translate(0 11)">15</text></g><path class="edge" d="M 0 0 V -82.7721 H -159.203"/><circle class="sym" cx="0" cy="0" r="3"/><text class="lab rgt" transform="translate(3 -7)">36</text></g><path class="edge" d="M 0 0 V -130.414 H 125.602"/><g class="mut m0 s0" transform="translate(0 -57.4597)"><line x1="0" x2="0" y1="0" y2="57.4597"/><path class="sym" d="M -3,-3 l 6,6 M -3,3 l 6,-6"/><text class="lab lft" transform="translate(-5 0)">0</text></g><circle class="sym" cx="0" cy="0" r="3"/><text class="lab lft" transform="translate(-3 -7)">37</text></g><circle class="sym" cx="0" cy="0" r="3"/><text class="lab" transform="translate(0 -11)">38</text></g></g></g></g></g></svg>