<svg baseProfile="full" height="400" version="1.1" width="1000" xmlns="http://www.w3.org/2000/svg" xmlns:ev="http://www.w3.org/2001/xml-events" xmlns:xlink="http://www.w3.org/1999/xlink"><defs><style type="text/css"><![CDATA[.background path {fill: #808080; fill-opacity: 0}.background path:nth-child(odd) {fill-opacity: .1}.x-regions rect {fill: yellow; stroke: black; opacity: 0.5}.axes {font-size: 14px}.x-axis .tick .lab {font-weight: bold; dominant-baseline: hanging}.axes, .tree {font-size: 14px; text-anchor: middle}.axes line, .edge {stroke: black; fill: none}.axes .ax-skip {stroke-dasharray: 4}.y-axis .grid {stroke: #FAFAFA}.node > .sym {fill: black; stroke: none}.site > .sym {stroke: black}.mut text {fill: red; font-style: italic}.mut.extra text {fill: hotpink}.mut line {fill: none; stroke: none}.mut .sym {fill: none; stroke: red}.mut.extra .sym {stroke: hotpink}.node .mut .sym {stroke-width: 1.5px}.tree text, .tree-sequence text {dominant-baseline: central}.plotbox .lab.lft {text-anchor: end}.plotbox .lab.rgt {text-anchor: start}.polytomy line {stroke: black; stroke-dasharray: 1px, 1px}.polytomy text {paint-order:stroke;stroke-width:0.3em;stroke:white}]]></style></defs><g class="tree-sequence"><g class="background"><path d="M20,0 l960,0 l0,338.2 l0,25 l0,5 l-960,0 l0,-5 l0,-25 l0,-338.2z"/></g><g class="axes"><g class="x-axis"><g class="title" transform="translate(500 400)"><text class="lab" text-anchor="middle" transform="translate(0 -11)">Genome position</text></g><line class="ax-line" x1="20" x2="980" y1="363.2" y2="363.2"/><g class="ticks"><g class="tick" transform="translate(20 363.2)"><line x1="0" x2="0" y1="0" y2="5"/><g transform="translate(0 6)"><text class="lab">0</text></g></g><g class="tick" transform="translate(980 363.2)"><line x1="0" x2="0" y1="0" y2="5"/><g transform="translate(0 6)"><text class="lab">1000</text></g></g></g><g class="site s0" transform="translate(473.12 363.2)"><line class="sym" x1="0" x2="0" y1="0" y2="-10"/><g class="mut m0"><polyline class="sym" points="2.5,-6.5 0,-1.5 -2.5,-6.5"/></g></g><g class="site s1" transform="translate(632.48 363.2)"><line class="sym" x1="0" x2="0" y1="0" y2="-10"/><g class="mut m1"><polyline class="sym" points="2.5,-6.5 0,-1.5 -2.5,-6.5"/></g></g></g></g><g class="plotbox trees"><g class="tree t0" transform="translate(20 0)"><g class="plotbox"><g class="c2 node n38 p1 root" transform="translate(632.375 26.8)"><g class="a38 c2 m0 node n33 p2 s0" transform="translate(227.125 240.459)"><g class="a33 i5 leaf node n5 p1 sample" transform="translate(-34.5 54.1406)"><path class="edge" d="M 0 0 V -54.1406 H 34.5"/><rect class="sym" height="6" width="6" x="-3" y="-3"/><text class="lab" transform="translate(0 11)">5</text></g><g class="a33 c2 node n25 p2" transform="translate(34.5 39.9266)"><g class="a25 i6 leaf m1 node n6 p1 s1 sample" transform="translate(-23 14.2141)"><path class="edge" d="M 0 0 V -14.2141 H 23"/><g class="mut m1 s1" transform="translate(0 -13.3594)"><line x1="0" x2="0" y1="0" y2="13.3594"/><path class="sym" d="M -3,-3 l 6,6 M -3,3 l 6,-6"/><text class="lab lft" transform="translate(-5 0)">1</text></g><rect class="sym" height="6" width="6" x="-3" y="-3"/><text class="lab" transform="translate(0 11)">6</text></g><g class="a25 i11 leaf node n11 p2 sample" transform="translate(23 14.2141)"><path class="edge" d="M 0 0 V -14.2141 H -23"/><rect class="sym" height="6" width="6" x="-3" y="-3"/><text class="lab" transform="translate(0 11)">11</text></g><path class="edge" d="M 0 0 V -39.9266 H -34.5"/><circle class="sym" cx="0" cy="0" r="3"/><text class="lab rgt" transform="translate(3 -7)">25</text></g><path class="edge" d="M 0 0 V -240.459 H -227.125"/><g class="mut m0 s0" transform="translate(0 -144.583)"><line x1="0" x2="0" y1="0" y2="144.583"/><path class="sym" d="M -3,-3 l 6,6 M -3,3 l 6,-6"/><text class="lab rgt" transform="translate(5 0)">0</text></g><circle class="sym" cx="0" cy="0" r="3"/><text class="lab rgt" transform="translate(3 -7)">33</text></g><g class="a38 c2 node n37 p1" transform="translate(-227.125 109.387)"><g class="a37 c2 node n34 p2" transform="translate(-181.125 86.2336)"><g class="a34 c2 node n29 p2" transform="translate(-71.875 74.2652)"><g class="a29 c2 node n24 p1" transform="translate(51.75 14.1267)"><g class="a24 i1 leaf node n1 p1 sample" transform="translate(-23 10.5877)"><path class="edge" d="M 0 0 V -10.5877 H 23"/><rect class="sym" height="6" width="6" x="-3" y="-3"/><text class="lab" transform="translate(0 11)">1</text></g><g class="a24 i16 leaf node n16 p2 sample" transform="translate(23 10.5877)"><path class="edge" d="M 0 0 V -10.5877 H -23"/><rect class="sym" height="6" width="6" x="-3" y="-3"/><text class="lab" transform="translate(0 11)">16</text></g><path class="edge" d="M 0 0 V -14.1267 H -51.75"/><circle class="sym" cx="0" cy="0" r="3"/><text class="lab rgt" transform="translate(3 -7)">24</text></g><g class="a29 c2 node n27 p1" transform="translate(-51.75 7.83438)"><g class="a27 i7 leaf node n7 p1 sample" transform="translate(34.5 16.88)"><path class="edge" d="M 0 0 V -16.88 H -34.5"/><rect class="sym" height="6" width="6" x="-3" y="-3"/><text class="lab" transform="translate(0 11)">7</text></g><g class="a27 c2 node n26 p2" transform="translate(-34.5 1.09267)"><g class="a26 i0 leaf node n0 p1 sample" transform="translate(-23 15.7873)"><path class="edge" d="M 0 0 V -15.7873 H 23"/><rect class="sym" height="6" width="6" x="-3" y="-3"/><text class="lab" transform="translate(0 11)">0</text></g><g class="a26 i10 leaf node n10 p2 sample" transform="translate(23 15.7873)"><path class="edge" d="M 0 0 V -15.7873 H -23"/><rect class="sym" height="6" width="6" x="-3" y="-3"/><text class="lab" transform="translate(0 11)">10</text></g><path class="edge" d="M 0 0 V -1.09267 H 34.5"/><circle class="sym" cx="0" cy="0" r="3"/><text class="lab lft" transform="translate(-3 -7)">26</text></g><path class="edge" d="M 0 0 V -7.83438 H 51.75"/><circle class="sym" cx="0" cy="0" r="3"/><text class="lab lft" transform="translate(-3 -7)">27</text></g><path class="edge" d="M 0 0 V -74.2652 H 71.875"/><circle class="sym" cx="0" cy="0" r="3"/><text class="lab lft" transform="translate(-3 -7)">29</text></g><g class="a34 c2 node n32 p1" transform="translate(71.875 46.3665)"><g class="a32 i12 leaf node n12 p2 sample" transform="translate(-23 52.6131)"><path class="edge" d="M 0 0 V -52.6131 H 23"/><rect class="sym" height="6" width="6" x="-3" y="-3"/><text class="lab" transform="translate(0 11)">12</text></g><g class="a32 i13 leaf node n13 p2 sample" transform="translate(23 52.6131)"><path class="edge" d="M 0 0 V -52.6131 H -23"/><rect class="sym" height="6" width="6" x="-3" y="-3"/><text class="lab" transform="translate(0 11)">13</text></g><path class="edge" d="M 0 0 V -46.3665 H -71.875"/><circle class="sym" cx="0" cy="0" r="3"/><text class="lab rgt" transform="translate(3 -7)">32</text></g><path class="edge" d="M 0 0 V -86.2336 H 181.125"/><circle class="sym" cx="0" cy="0" r="3"/><text class="lab lft" transform="translate(-3 -7)">34</text></g><g class="a37 c2 node n36 p2" transform="translate(181.125 7.27377)"><g class="a36 c2 node n23 p2" transform="translate(94.875 170.52)"><g class="a23 i3 leaf node n3 p1 sample" transform="translate(-40.25 7.41928)"><path class="edge" d="M 0 0 V -7.41928 H 40.25"/><rect class="sym" height="6" width="6" x="-3" y="-3"/><text class="lab" transform="translate(0 11)">3</text></g><g class="a23 c2 node n22 p2" transform="translate(40.25 0.422377)"><g class="a22 i4 leaf node n4 p1 sample" transform="translate(-34.5 6.9969)"><path class="edge" d="M 0 0 V -6.9969 H 34.5"/><rect class="sym" height="6" width="6" x="-3" y="-3"/><text class="lab" transform="translate(0 11)">4</text></g><g class="a22 c2 node n21 p2" transform="translate(34.5 5.14251)"><g class="a21 i14 leaf node n14 p2 sample" transform="translate(-23 1.85439)"><path class="edge" d="M 0 0 V -1.85439 H 23"/><rect class="sym" height="6" width="6" x="-3" y="-3"/><text class="lab" transform="translate(0 11)">14</text></g><g class="a21 i15 leaf node n15 p2 sample" transform="translate(23 1.85439)"><path class="edge" d="M 0 0 V -1.85439 H -23"/><rect class="sym" height="6" width="6" x="-3" y="-3"/><text class="lab" transform="translate(0 11)">15</text></g><path class="edge" d="M 0 0 V -5.14251 H -34.5"/><circle class="sym" cx="0" cy="0" r="3"/><text class="lab rgt" transform="translate(3 -7)">21</text></g><path class="edge" d="M 0 0 V -0.422377 H -40.25"/><circle class="sym" cx="0" cy="0" r="3"/><text class="lab rgt" transform="translate(3 -7)">22</text></g><path class="edge" d="M 0 0 V -170.52 H -94.875"/><circle class="sym" cx="0" cy="0" r="3"/><text class="lab rgt" transform="translate(3 -7)">23</text></g><g class="a36 c2 node n35 p1" transform="translate(-94.875 75.909)"><g class="a35 c2 node n28 p2" transform="translate(-69 81.0826)"><g class="a28 i18 leaf node n18 p2 sample" transform="translate(34.5 20.9479)"><path class="edge" d="M 0 0 V -20.9479 H -34.5"/><rect class="sym" height="6" width="6" x="-3" y="-3"/><text class="lab" transform="translate(0 11)">18</text></g><g class="a28 c2 node n20 p1" transform="translate(-34.5 20.811)"><g class="a20 i2 leaf node n2 p1 sample" transform="translate(-23 0.136833)"><path class="edge" d="M 0 0 V -0.136833 H 23"/><rect class="sym" height="6" width="6" x="-3" y="-3"/><text class="lab" transform="translate(0 11)">2</text></g><g class="a20 i8 leaf node n8 p1 sample" transform="translate(23 0.136833)"><path class="edge" d="M 0 0 V -0.136833 H -23"/><rect class="sym" height="6" width="6" x="-3" y="-3"/><text class="lab" transform="translate(0 11)">8</text></g><path class="edge" d="M 0 0 V -20.811 H 34.5"/><circle class="sym" cx="0" cy="0" r="3"/><text class="lab lft" transform="translate(-3 -7)">20</text></g><path class="edge" d="M 0 0 V -81.0826 H 69"/><circle class="sym" cx="0" cy="0" r="3"/><text class="lab lft" transform="translate(-3 -7)">28</text></g><g class="a35 c2 node n31 p2" transform="translate(69 49.5157)"><g class="a31 i17 leaf node n17 p2 sample" transform="translate(34.5 52.5148)"><path class="edge" d="M 0 0 V -52.5148 H -34.5"/><rect class="sym" height="6" width="6" x="-3" y="-3"/><text class="lab" transform="translate(0 11)">17</text></g><g class="a31 c2 node n30 p1" transform="translate(-34.5 0.157379)"><g class="a30 i9 leaf node n9 p1 sample" transform="translate(-23 52.3574)"><path class="edge" d="M 0 0 V -52.3574 H 23"/><rect class="sym" height="6" width="6" x="-3" y="-3"/><text class="lab" transform="translate(0 11)">9</text></g><g class="a30 i19 leaf node n19 p2 sample" transform="translate(23 52.3574)"><path class="edge" d="M 0 0 V -52.3574 H -23"/><rect class="sym" height="6" width="6" x="-3" y="-3"/><text class="lab" transform="translate(0 11)">19</text></g><path class="edge" d="M 0 0 V -0.157379 H 34.5"/><circle class="sym" cx="0" cy="0" r="3"/><text class="lab lft" transform="translate(-3 -7)">30</text></g><path class="edge" d="M 0 0 V -49.5157 H -69"/><circle class="sym" cx="0" cy="0" r="3"/><text class="lab rgt" transform="translate(3 -7)">31</text></g><path class="edge" d="M 0 0 V -75.909 H 94.875"/><circle class="sym" cx="0" cy="0" r="3"/><text class="lab lft" transform="translate(-3 -7)">35</text></g><path class="edge" d="M 0 0 V -7.27377 H -181.125"/><circle class="sym" cx="0" cy="0" r="3"/><text class="lab rgt" transform="translate(3 -7)">36</text></g><path class="edge" d="M 0 0 V -109.387 H 227.125"/><circle class="sym" cx="0" cy="0" r="3"/><text class="lab lft" transform="translate(-3 -7)">37</text></g><circle class="sym" cx="0" cy="0" r="3"/><text class="lab" transform="translate(0 -11)">38</text></g></g></g></g></g></svg>