<svg baseProfile="full" height="400" version="1.1" width="1000" xmlns="http://www.w3.org/2000/svg" xmlns:ev="http://www.w3.org/2001/xml-events" xmlns:xlink="http://www.w3.org/1999/xlink"><defs><style type="text/css"><![CDATA[.background path {fill: #808080; fill-opacity: 0}.background path:nth-child(odd) {fill-opacity: .1}.x-regions rect {fill: yellow; stroke: black; opacity: 0.5}.axes {font-size: 14px}.x-axis .tick .lab {font-weight: bold; dominant-baseline: hanging}.axes, .tree {font-size: 14px; text-anchor: middle}.axes line, .edge {stroke: black; fill: none}.axes .ax-skip {stroke-dasharray: 4}.y-axis .grid {stroke: #FAFAFA}.node > .sym {fill: black; stroke: none}.site > .sym {stroke: black}.mut text {fill: red; font-style: italic}.mut.extra text {fill: hotpink}.mut line {fill: none; stroke: none}.mut .sym {fill: none; stroke: red}.mut.extra .sym {stroke: hotpink}.node .mut .sym {stroke-width: 1.5px}.tree text, .tree-sequence text {dominant-baseline: central}.plotbox .lab.lft {text-anchor: end}.plotbox .lab.rgt {text-anchor: start}.polytomy line {stroke: black; stroke-dasharray: 1px, 1px}.polytomy text {paint-order:stroke;stroke-width:0.3em;stroke:white}]]></style></defs><g class="tree-sequence"><g class="background"><path d="M20,0 l960,0 l0,338.2 l0,25 l0,5 l-960,0 l0,-5 l0,-25 l0,-338.2z"/></g><g class="axes"><g class="x-axis"><g class="title" transform="translate(500 400)"><text class="lab" text-anchor="middle" transform="translate(0 -11)">Genome position</text></g><line class="ax-line" x1="20" x2="980" y1="363.2" y2="363.2"/><g class="ticks"><g class="tick" transform="translate(20 363.2)"><line x1="0" x2="0" y1="0" y2="5"/><g transform="translate(0 6)"><text class="lab">0</text></g></g><g class="tick" transform="translate(980 363.2)"><line x1="0" x2="0" y1="0" y2="5"/><g transform="translate(0 6)"><text class="lab">1000</text></g></g></g><g class="site s0" transform="translate(193.76 363.2)"><line class="sym" x1="0" x2="0" y1="0" y2="-10"/><g class="mut m0"><polyline class="sym" points="2.5,-6.5 0,-1.5 -2.5,-6.5"/></g></g><g class="site s1" transform="translate(326.24 363.2)"><line class="sym" x1="0" x2="0" y1="0" y2="-10"/><g class="mut m1"><polyline class="sym" points="2.5,-6.5 0,-1.5 -2.5,-6.5"/></g></g></g></g><g class="plotbox trees"><g class="tree t0" transform="translate(20 0)"><g class="plotbox"><g class="c2 node n38 p1 root" transform="translate(659.508 26.8)"><g class="a38 c2 m1 node n36 p2 s1" transform="translate(182.742 172.251)"><g class="a36 i10 leaf node n10 p2 sample" transform="translate(74.75 122.349)"><path class="edge" d="M 0 0 V -122.349 H -74.75"/><rect class="sym" height="6" width="6" x="-3" y="-3"/><text class="lab" transform="translate(0 11)">10</text></g><g class="a36 c2 node n34 p1" transform="translate(-74.75 72.5821)"><g class="a34 c2 node n29 p2" transform="translate(-69 27.6093)"><g class="a29 i16 leaf node n16 p2 sample" transform="translate(34.5 22.1575)"><path class="edge" d="M 0 0 V -22.1575 H -34.5"/><rect class="sym" height="6" width="6" x="-3" y="-3"/><text class="lab" transform="translate(0 11)">16</text></g><g class="a29 c2 node n20 p1" transform="translate(-34.5 20.3966)"><g class="a20 i2 leaf node n2 p1 sample" transform="translate(-23 1.76087)"><path class="edge" d="M 0 0 V -1.76087 H 23"/><rect class="sym" height="6" width="6" x="-3" y="-3"/><text class="lab" transform="translate(0 11)">2</text></g><g class="a20 i8 leaf node n8 p1 sample" transform="translate(23 1.76087)"><path class="edge" d="M 0 0 V -1.76087 H -23"/><rect class="sym" height="6" width="6" x="-3" y="-3"/><text class="lab" transform="translate(0 11)">8</text></g><path class="edge" d="M 0 0 V -20.3966 H 34.5"/><circle class="sym" cx="0" cy="0" r="3"/><text class="lab lft" transform="translate(-3 -7)">20</text></g><path class="edge" d="M 0 0 V -27.6093 H 69"/><circle class="sym" cx="0" cy="0" r="3"/><text class="lab lft" transform="translate(-3 -7)">29</text></g><g class="a34 c2 node n33 p1" transform="translate(69 1.78285)"><g class="a33 i19 leaf node n19 p2 sample" transform="translate(34.5 47.984)"><path class="edge" d="M 0 0 V -47.984 H -34.5"/><rect class="sym" height="6" width="6" x="-3" y="-3"/><text class="lab" transform="translate(0 11)">19</text></g><g class="a33 c2 node n26 p2" transform="translate(-34.5 28.5159)"><g class="a26 i9 leaf node n9 p1 sample" transform="translate(-23 19.4681)"><path class="edge" d="M 0 0 V -19.4681 H 23"/><rect class="sym" height="6" width="6" x="-3" y="-3"/><text class="lab" transform="translate(0 11)">9</text></g><g class="a26 i17 leaf node n17 p2 sample" transform="translate(23 19.4681)"><path class="edge" d="M 0 0 V -19.4681 H -23"/><rect class="sym" height="6" width="6" x="-3" y="-3"/><text class="lab" transform="translate(0 11)">17</text></g><path class="edge" d="M 0 0 V -28.5159 H 34.5"/><circle class="sym" cx="0" cy="0" r="3"/><text class="lab lft" transform="translate(-3 -7)">26</text></g><path class="edge" d="M 0 0 V -1.78285 H -69"/><circle class="sym" cx="0" cy="0" r="3"/><text class="lab rgt" transform="translate(3 -7)">33</text></g><path class="edge" d="M 0 0 V -72.5821 H 74.75"/><circle class="sym" cx="0" cy="0" r="3"/><text class="lab lft" transform="translate(-3 -7)">34</text></g><path class="edge" d="M 0 0 V -172.251 H -182.742"/><g class="mut m1 s1" transform="translate(0 -23.449)"><line x1="0" x2="0" y1="0" y2="23.449"/><path class="sym" d="M -3,-3 l 6,6 M -3,3 l 6,-6"/><text class="lab rgt" transform="translate(5 0)">1</text></g><circle class="sym" cx="0" cy="0" r="3"/><text class="lab rgt" transform="translate(3 -7)">36</text></g><g class="a38 c2 node n37 p2" transform="translate(-182.742 85.9183)"><g class="a37 i11 leaf node n11 p2 sample" transform="translate(118.234 208.682)"><path class="edge" d="M 0 0 V -208.682 H -118.234"/><rect class="sym" height="6" width="6" x="-3" y="-3"/><text class="lab" transform="translate(0 11)">11</text></g><g class="a37 c2 m0 node n35 p1 s0" transform="translate(-118.234 107.875)"><g class="a35 c2 node n31 p2" transform="translate(-132.969 67.4036)"><g class="a31 c2 node n25 p1" transform="translate(142.312 17.6073)"><g class="a25 i12 leaf node n12 p2 sample" transform="translate(43.125 15.7954)"><path class="edge" d="M 0 0 V -15.7954 H -43.125"/><rect class="sym" height="6" width="6" x="-3" y="-3"/><text class="lab" transform="translate(0 11)">12</text></g><g class="a25 c2 node n24 p1" transform="translate(-43.125 3.02206)"><g class="a24 i3 leaf node n3 p1 sample" transform="translate(40.25 12.7734)"><path class="edge" d="M 0 0 V -12.7734 H -40.25"/><rect class="sym" height="6" width="6" x="-3" y="-3"/><text class="lab" transform="translate(0 11)">3</text></g><g class="a24 c2 node n23 p2" transform="translate(-40.25 0.956012)"><g class="a23 i15 leaf node n15 p2 sample" transform="translate(34.5 11.8174)"><path class="edge" d="M 0 0 V -11.8174 H -34.5"/><rect class="sym" height="6" width="6" x="-3" y="-3"/><text class="lab" transform="translate(0 11)">15</text></g><g class="a23 c2 node n21 p1" transform="translate(-34.5 7.89465)"><g class="a21 i1 leaf node n1 p1 sample" transform="translate(-23 3.92273)"><path class="edge" d="M 0 0 V -3.92273 H 23"/><rect class="sym" height="6" width="6" x="-3" y="-3"/><text class="lab" transform="translate(0 11)">1</text></g><g class="a21 i14 leaf node n14 p2 sample" transform="translate(23 3.92273)"><path class="edge" d="M 0 0 V -3.92273 H -23"/><rect class="sym" height="6" width="6" x="-3" y="-3"/><text class="lab" transform="translate(0 11)">14</text></g><path class="edge" d="M 0 0 V -7.89465 H 34.5"/><circle class="sym" cx="0" cy="0" r="3"/><text class="lab lft" transform="translate(-3 -7)">21</text></g><path class="edge" d="M 0 0 V -0.956012 H 40.25"/><circle class="sym" cx="0" cy="0" r="3"/><text class="lab lft" transform="translate(-3 -7)">23</text></g><path class="edge" d="M 0 0 V -3.02206 H 43.125"/><circle class="sym" cx="0" cy="0" r="3"/><text class="lab lft" transform="translate(-3 -7)">24</text></g><path class="edge" d="M 0 0 V -17.6073 H -142.312"/><circle class="sym" cx="0" cy="0" r="3"/><text class="lab rgt" transform="translate(3 -7)">25</text></g><g class="a31 c2 node n30 p1" transform="translate(-142.312 4.12947)"><g class="a30 i0 leaf node n0 p1 sample" transform="translate(-40.25 29.2732)"><path class="edge" d="M 0 0 V -29.2732 H 40.25"/><rect class="sym" height="6" width="6" x="-3" y="-3"/><text class="lab" transform="translate(0 11)">0</text></g><g class="a30 c2 node n28 p2" transform="translate(40.25 7.77533)"><g class="a28 i5 leaf node n5 p1 sample" transform="translate(-34.5 21.4979)"><path class="edge" d="M 0 0 V -21.4979 H 34.5"/><rect class="sym" height="6" width="6" x="-3" y="-3"/><text class="lab" transform="translate(0 11)">5</text></g><g class="a28 c2 node n22 p1" transform="translate(34.5 14.5693)"><g class="a22 i6 leaf node n6 p1 sample" transform="translate(-23 6.9286)"><path class="edge" d="M 0 0 V -6.9286 H 23"/><rect class="sym" height="6" width="6" x="-3" y="-3"/><text class="lab" transform="translate(0 11)">6</text></g><g class="a22 i18 leaf node n18 p2 sample" transform="translate(23 6.9286)"><path class="edge" d="M 0 0 V -6.9286 H -23"/><rect class="sym" height="6" width="6" x="-3" y="-3"/><text class="lab" transform="translate(0 11)">18</text></g><path class="edge" d="M 0 0 V -14.5693 H -34.5"/><circle class="sym" cx="0" cy="0" r="3"/><text class="lab rgt" transform="translate(3 -7)">22</text></g><path class="edge" d="M 0 0 V -7.77533 H -40.25"/><circle class="sym" cx="0" cy="0" r="3"/><text class="lab rgt" transform="translate(3 -7)">28</text></g><path class="edge" d="M 0 0 V -4.12947 H 142.312"/><circle class="sym" cx="0" cy="0" r="3"/><text class="lab lft" transform="translate(-3 -7)">30</text></g><path class="edge" d="M 0 0 V -67.4036 H 132.969"/><circle class="sym" cx="0" cy="0" r="3"/><text class="lab lft" transform="translate(-3 -7)">31</text></g><g class="a35 c2 node n32 p2" transform="translate(132.969 55.7326)"><g class="a32 i4 leaf node n4 p1 sample" transform="translate(-34.5 45.0737)"><path class="edge" d="M 0 0 V -45.0737 H 34.5"/><rect class="sym" height="6" width="6" x="-3" y="-3"/><text class="lab" transform="translate(0 11)">4</text></g><g class="a32 c2 node n27 p2" transform="translate(34.5 24.5805)"><g class="a27 i7 leaf node n7 p1 sample" transform="translate(-23 20.4932)"><path class="edge" d="M 0 0 V -20.4932 H 23"/><rect class="sym" height="6" width="6" x="-3" y="-3"/><text class="lab" transform="translate(0 11)">7</text></g><g class="a27 i13 leaf node n13 p2 sample" transform="translate(23 20.4932)"><path class="edge" d="M 0 0 V -20.4932 H -23"/><rect class="sym" height="6" width="6" x="-3" y="-3"/><text class="lab" transform="translate(0 11)">13</text></g><path class="edge" d="M 0 0 V -24.5805 H -34.5"/><circle class="sym" cx="0" cy="0" r="3"/><text class="lab rgt" transform="translate(3 -7)">27</text></g><path class="edge" d="M 0 0 V -55.7326 H -132.969"/><circle class="sym" cx="0" cy="0" r="3"/><text class="lab rgt" transform="translate(3 -7)">32</text></g><path class="edge" d="M 0 0 V -107.875 H 118.234"/><g class="mut m0 s0" transform="translate(0 -27.6678)"><line x1="0" x2="0" y1="0" y2="27.6678"/><path class="sym" d="M -3,-3 l 6,6 M -3,3 l 6,-6"/><text class="lab lft" transform="translate(-5 0)">0</text></g><circle class="sym" cx="0" cy="0" r="3"/><text class="lab lft" transform="translate(-3 -7)">35</text></g><path class="edge" d="M 0 0 V -85.9183 H 182.742"/><circle class="sym" cx="0" cy="0" r="3"/><text class="lab lft" transform="translate(-3 -7)">37</text></g><circle class="sym" cx="0" cy="0" r="3"/><text class="lab" transform="translate(0 -11)">38</text></g></g></g></g></g></svg>