<svg baseProfile="full" height="400" version="1.1" width="1000" xmlns="http://www.w3.org/2000/svg" xmlns:ev="http://www.w3.org/2001/xml-events" xmlns:xlink="http://www.w3.org/1999/xlink"><defs><style type="text/css"><![CDATA[.background path {fill: #808080; fill-opacity: 0}.background path:nth-child(odd) {fill-opacity: .1}.x-regions rect {fill: yellow; stroke: black; opacity: 0.5}.axes {font-size: 14px}.x-axis .tick .lab {font-weight: bold; dominant-baseline: hanging}.axes, .tree {font-size: 14px; text-anchor: middle}.axes line, .edge {stroke: black; fill: none}.axes .ax-skip {stroke-dasharray: 4}.y-axis .grid {stroke: #FAFAFA}.node > .sym {fill: black; stroke: none}.site > .sym {stroke: black}.mut text {fill: red; font-style: italic}.mut.extra text {fill: hotpink}.mut line {fill: none; stroke: none}.mut .sym {fill: none; stroke: red}.mut.extra .sym {stroke: hotpink}.node .mut .sym {stroke-width: 1.5px}.tree text, .tree-sequence text {dominant-baseline: central}.plotbox .lab.lft {text-anchor: end}.plotbox .lab.rgt {text-anchor: start}.polytomy line {stroke: black; stroke-dasharray: 1px, 1px}.polytomy text {paint-order:stroke;stroke-width:0.3em;stroke:white}]]></style></defs><g class="tree-sequence"><g class="background"><path d="M20,0 l960,0 l0,338.2 l0,25 l0,5 l-960,0 l0,-5 l0,-25 l0,-338.2z"/></g><g class="axes"><g class="x-axis"><g class="title" transform="translate(500 400)"><text class="lab" text-anchor="middle" transform="translate(0 -11)">Genome position</text></g><line class="ax-line" x1="20" x2="980" y1="363.2" y2="363.2"/><g class="ticks"><g class="tick" transform="translate(20 363.2)"><line x1="0" x2="0" y1="0" y2="5"/><g transform="translate(0 6)"><text class="lab">0</text></g></g><g class="tick" transform="translate(980 363.2)"><line x1="0" x2="0" y1="0" y2="5"/><g transform="translate(0 6)"><text class="lab">1000</text></g></g></g><g class="site s0" transform="translate(68 363.2)"><line class="sym" x1="0" x2="0" y1="0" y2="-10"/><g class="mut m0"><polyline class="sym" points="2.5,-6.5 0,-1.5 -2.5,-6.5"/></g></g><g class="site s1" transform="translate(837.92 363.2)"><line class="sym" x1="0" x2="0" y1="0" y2="-10"/><g class="mut m1"><polyline class="sym" points="2.5,-6.5 0,-1.5 -2.5,-6.5"/></g></g></g></g><g class="plotbox trees"><g class="tree t0" transform="translate(20 0)"><g class="plotbox"><g class="c2 node n38 p0 root" transform="translate(736.953 26.8)"><g class="a38 c2 node n24 p1" transform="translate(139.797 261.039)"><g class="a24 i16 leaf node n16 p2 sample" transform="translate(40.25 33.5606)"><path class="edge" d="M 0 0 V -33.5606 H -40.25"/><rect class="sym" height="6" width="6" x="-3" y="-3"/><text class="lab" transform="translate(0 11)">16</text></g><g class="a24 c2 node n23 p2" transform="translate(-40.25 7.50474)"><g class="a23 i15 leaf node n15 p2 sample" transform="translate(34.5 26.0559)"><path class="edge" d="M 0 0 V -26.0559 H -34.5"/><rect class="sym" height="6" width="6" x="-3" y="-3"/><text class="lab" transform="translate(0 11)">15</text></g><g class="a23 c2 node n21 p2" transform="translate(-34.5 11.1051)"><g class="a21 i5 leaf node n5 p1 sample" transform="translate(-23 14.9507)"><path class="edge" d="M 0 0 V -14.9507 H 23"/><rect class="sym" height="6" width="6" x="-3" y="-3"/><text class="lab" transform="translate(0 11)">5</text></g><g class="a21 i6 leaf node n6 p1 sample" transform="translate(23 14.9507)"><path class="edge" d="M 0 0 V -14.9507 H -23"/><rect class="sym" height="6" width="6" x="-3" y="-3"/><text class="lab" transform="translate(0 11)">6</text></g><path class="edge" d="M 0 0 V -11.1051 H 34.5"/><circle class="sym" cx="0" cy="0" r="3"/><text class="lab lft" transform="translate(-3 -7)">21</text></g><path class="edge" d="M 0 0 V -7.50474 H 40.25"/><circle class="sym" cx="0" cy="0" r="3"/><text class="lab lft" transform="translate(-3 -7)">23</text></g><path class="edge" d="M 0 0 V -261.039 H -139.797"/><circle class="sym" cx="0" cy="0" r="3"/><text class="lab rgt" transform="translate(3 -7)">24</text></g><g class="a38 c2 node n37 p0" transform="translate(-139.797 13.377)"><g class="a37 i4 leaf m0 node n4 p1 s0 sample" transform="translate(135.844 281.223)"><path class="edge" d="M 0 0 V -281.223 H -135.844"/><g class="mut m0 s0" transform="translate(0 -27.472)"><line x1="0" x2="0" y1="0" y2="27.472"/><path class="sym" d="M -3,-3 l 6,6 M -3,3 l 6,-6"/><text class="lab rgt" transform="translate(5 0)">0</text></g><rect class="sym" height="6" width="6" x="-3" y="-3"/><text class="lab" transform="translate(0 11)">4</text></g><g class="a37 c2 node n36 p0" transform="translate(-135.844 42.0963)"><g class="a36 c2 node n32 p2" transform="translate(173.938 143.558)"><g class="a32 i12 leaf node n12 p2 sample" transform="translate(51.75 95.5686)"><path class="edge" d="M 0 0 V -95.5686 H -51.75"/><rect class="sym" height="6" width="6" x="-3" y="-3"/><text class="lab" transform="translate(0 11)">12</text></g><g class="a32 c2 node n28 p2" transform="translate(-51.75 45.6179)"><g class="a28 i2 leaf m1 node n2 p1 s1 sample" transform="translate(-34.5 49.9507)"><path class="edge" d="M 0 0 V -49.9507 H 34.5"/><g class="mut m1 s1" transform="translate(0 -17.4498)"><line x1="0" x2="0" y1="0" y2="17.4498"/><path class="sym" d="M -3,-3 l 6,6 M -3,3 l 6,-6"/><text class="lab lft" transform="translate(-5 0)">1</text></g><rect class="sym" height="6" width="6" x="-3" y="-3"/><text class="lab" transform="translate(0 11)">2</text></g><g class="a28 c2 node n22 p2" transform="translate(34.5 31.6451)"><g class="a22 i14 leaf node n14 p2 sample" transform="translate(-23 18.3056)"><path class="edge" d="M 0 0 V -18.3056 H 23"/><rect class="sym" height="6" width="6" x="-3" y="-3"/><text class="lab" transform="translate(0 11)">14</text></g><g class="a22 i17 leaf node n17 p2 sample" transform="translate(23 18.3056)"><path class="edge" d="M 0 0 V -18.3056 H -23"/><rect class="sym" height="6" width="6" x="-3" y="-3"/><text class="lab" transform="translate(0 11)">17</text></g><path class="edge" d="M 0 0 V -31.6451 H -34.5"/><circle class="sym" cx="0" cy="0" r="3"/><text class="lab rgt" transform="translate(3 -7)">22</text></g><path class="edge" d="M 0 0 V -45.6179 H 51.75"/><circle class="sym" cx="0" cy="0" r="3"/><text class="lab lft" transform="translate(-3 -7)">28</text></g><path class="edge" d="M 0 0 V -143.558 H -173.938"/><circle class="sym" cx="0" cy="0" r="3"/><text class="lab rgt" transform="translate(3 -7)">32</text></g><g class="a36 c2 node n35 p0" transform="translate(-173.938 44.5112)"><g class="a35 c2 node n31 p1" transform="translate(140.875 101.58)"><g class="a31 c2 node n25 p2" transform="translate(-51.75 54.5804)"><g class="a25 i19 leaf node n19 p2 sample" transform="translate(34.5 38.455)"><path class="edge" d="M 0 0 V -38.455 H -34.5"/><rect class="sym" height="6" width="6" x="-3" y="-3"/><text class="lab" transform="translate(0 11)">19</text></g><g class="a25 c2 node n20 p1" transform="translate(-34.5 23.8594)"><g class="a20 i1 leaf node n1 p1 sample" transform="translate(-23 14.5956)"><path class="edge" d="M 0 0 V -14.5956 H 23"/><rect class="sym" height="6" width="6" x="-3" y="-3"/><text class="lab" transform="translate(0 11)">1</text></g><g class="a20 i10 leaf node n10 p2 sample" transform="translate(23 14.5956)"><path class="edge" d="M 0 0 V -14.5956 H -23"/><rect class="sym" height="6" width="6" x="-3" y="-3"/><text class="lab" transform="translate(0 11)">10</text></g><path class="edge" d="M 0 0 V -23.8594 H 34.5"/><circle class="sym" cx="0" cy="0" r="3"/><text class="lab lft" transform="translate(-3 -7)">20</text></g><path class="edge" d="M 0 0 V -54.5804 H 51.75"/><circle class="sym" cx="0" cy="0" r="3"/><text class="lab lft" transform="translate(-3 -7)">25</text></g><g class="a31 c2 node n30 p1" transform="translate(51.75 6.05863)"><g class="a30 i3 leaf node n3 p1 sample" transform="translate(-23 86.9768)"><path class="edge" d="M 0 0 V -86.9768 H 23"/><rect class="sym" height="6" width="6" x="-3" y="-3"/><text class="lab" transform="translate(0 11)">3</text></g><g class="a30 i13 leaf node n13 p2 sample" transform="translate(23 86.9768)"><path class="edge" d="M 0 0 V -86.9768 H -23"/><rect class="sym" height="6" width="6" x="-3" y="-3"/><text class="lab" transform="translate(0 11)">13</text></g><path class="edge" d="M 0 0 V -6.05863 H -51.75"/><circle class="sym" cx="0" cy="0" r="3"/><text class="lab rgt" transform="translate(3 -7)">30</text></g><path class="edge" d="M 0 0 V -101.58 H -140.875"/><circle class="sym" cx="0" cy="0" r="3"/><text class="lab rgt" transform="translate(3 -7)">31</text></g><g class="a35 c2 node n34 p0" transform="translate(-140.875 23.7739)"><g class="a34 c2 node n29 p2" transform="translate(-69 109.57)"><g class="a29 i0 leaf node n0 p1 sample" transform="translate(-34.5 61.2718)"><path class="edge" d="M 0 0 V -61.2718 H 34.5"/><rect class="sym" height="6" width="6" x="-3" y="-3"/><text class="lab" transform="translate(0 11)">0</text></g><g class="a29 c2 node n26 p2" transform="translate(34.5 21.4116)"><g class="a26 i7 leaf node n7 p1 sample" transform="translate(-23 39.8601)"><path class="edge" d="M 0 0 V -39.8601 H 23"/><rect class="sym" height="6" width="6" x="-3" y="-3"/><text class="lab" transform="translate(0 11)">7</text></g><g class="a26 i11 leaf node n11 p2 sample" transform="translate(23 39.8601)"><path class="edge" d="M 0 0 V -39.8601 H -23"/><rect class="sym" height="6" width="6" x="-3" y="-3"/><text class="lab" transform="translate(0 11)">11</text></g><path class="edge" d="M 0 0 V -21.4116 H -34.5"/><circle class="sym" cx="0" cy="0" r="3"/><text class="lab rgt" transform="translate(3 -7)">26</text></g><path class="edge" d="M 0 0 V -109.57 H 69"/><circle class="sym" cx="0" cy="0" r="3"/><text class="lab lft" transform="translate(-3 -7)">29</text></g><g class="a34 c2 node n33 p1" transform="translate(69 39.6302)"><g class="a33 i8 leaf node n8 p1 sample" transform="translate(-34.5 131.211)"><path class="edge" d="M 0 0 V -131.211 H 34.5"/><rect class="sym" height="6" width="6" x="-3" y="-3"/><text class="lab" transform="translate(0 11)">8</text></g><g class="a33 c2 node n27 p2" transform="translate(34.5 87.8819)"><g class="a27 i9 leaf node n9 p1 sample" transform="translate(-23 43.3295)"><path class="edge" d="M 0 0 V -43.3295 H 23"/><rect class="sym" height="6" width="6" x="-3" y="-3"/><text class="lab" transform="translate(0 11)">9</text></g><g class="a27 i18 leaf node n18 p2 sample" transform="translate(23 43.3295)"><path class="edge" d="M 0 0 V -43.3295 H -23"/><rect class="sym" height="6" width="6" x="-3" y="-3"/><text class="lab" transform="translate(0 11)">18</text></g><path class="edge" d="M 0 0 V -87.8819 H -34.5"/><circle class="sym" cx="0" cy="0" r="3"/><text class="lab rgt" transform="translate(3 -7)">27</text></g><path class="edge" d="M 0 0 V -39.6302 H -69"/><circle class="sym" cx="0" cy="0" r="3"/><text class="lab rgt" transform="translate(3 -7)">33</text></g><path class="edge" d="M 0 0 V -23.7739 H 140.875"/><circle class="sym" cx="0" cy="0" r="3"/><text class="lab lft" transform="translate(-3 -7)">34</text></g><path class="edge" d="M 0 0 V -44.5112 H 173.938"/><circle class="sym" cx="0" cy="0" r="3"/><text class="lab lft" transform="translate(-3 -7)">35</text></g><path class="edge" d="M 0 0 V -42.0963 H 135.844"/><circle class="sym" cx="0" cy="0" r="3"/><text class="lab lft" transform="translate(-3 -7)">36</text></g><path class="edge" d="M 0 0 V -13.377 H 139.797"/><circle class="sym" cx="0" cy="0" r="3"/><text class="lab lft" transform="translate(-3 -7)">37</text></g><circle class="sym" cx="0" cy="0" r="3"/><text class="lab" transform="translate(0 -11)">38</text></g></g></g></g></g></svg>