<svg baseProfile="full" height="400" version="1.1" width="1000" xmlns="http://www.w3.org/2000/svg" xmlns:ev="http://www.w3.org/2001/xml-events" xmlns:xlink="http://www.w3.org/1999/xlink"><defs><style type="text/css"><![CDATA[.background path {fill: #808080; fill-opacity: 0}.background path:nth-child(odd) {fill-opacity: .1}.x-regions rect {fill: yellow; stroke: black; opacity: 0.5}.axes {font-size: 14px}.x-axis .tick .lab {font-weight: bold; dominant-baseline: hanging}.axes, .tree {font-size: 14px; text-anchor: middle}.axes line, .edge {stroke: black; fill: none}.axes .ax-skip {stroke-dasharray: 4}.y-axis .grid {stroke: #FAFAFA}.node > .sym {fill: black; stroke: none}.site > .sym {stroke: black}.mut text {fill: red; font-style: italic}.mut.extra text {fill: hotpink}.mut line {fill: none; stroke: none}.mut .sym {fill: none; stroke: red}.mut.extra .sym {stroke: hotpink}.node .mut .sym {stroke-width: 1.5px}.tree text, .tree-sequence text {dominant-baseline: central}.plotbox .lab.lft {text-anchor: end}.plotbox .lab.rgt {text-anchor: start}.polytomy line {stroke: black; stroke-dasharray: 1px, 1px}.polytomy text {paint-order:stroke;stroke-width:0.3em;stroke:white}]]></style></defs><g class="tree-sequence"><g class="background"><path d="M20,0 l960,0 l0,338.2 l0,25 l0,5 l-960,0 l0,-5 l0,-25 l0,-338.2z"/></g><g class="axes"><g class="x-axis"><g class="title" transform="translate(500 400)"><text class="lab" text-anchor="middle" transform="translate(0 -11)">Genome position</text></g><line class="ax-line" x1="20" x2="980" y1="363.2" y2="363.2"/><g class="ticks"><g class="tick" transform="translate(20 363.2)"><line x1="0" x2="0" y1="0" y2="5"/><g transform="translate(0 6)"><text class="lab">0</text></g></g><g class="tick" transform="translate(980 363.2)"><line x1="0" x2="0" y1="0" y2="5"/><g transform="translate(0 6)"><text class="lab">1000</text></g></g></g><g class="site s0" transform="translate(48.8 363.2)"><line class="sym" x1="0" x2="0" y1="0" y2="-10"/><g class="mut m0"><polyline class="sym" points="2.5,-6.5 0,-1.5 -2.5,-6.5"/></g></g><g class="site s1" transform="translate(371.36 363.2)"><line class="sym" x1="0" x2="0" y1="0" y2="-10"/><g class="mut m1"><polyline class="sym" points="2.5,-6.5 0,-1.5 -2.5,-6.5"/></g></g><g class="site s2" transform="translate(974.24 363.2)"><line class="sym" x1="0" x2="0" y1="0" y2="-10"/><g class="mut m2"><polyline class="sym" points="2.5,-6.5 0,-1.5 -2.5,-6.5"/></g></g></g></g><g class="plotbox trees"><g class="tree t0" transform="translate(20 0)"><g class="plotbox"><g class="c2 node n38 p0 root" transform="translate(303.367 26.8)"><g class="a38 c2 m0 node n29 p1 s0" transform="translate(-237.367 280.164)"><g class="a29 i0 leaf node n0 p1 sample" transform="translate(-23 14.4363)"><path class="edge" d="M 0 0 V -14.4363 H 23"/><rect class="sym" height="6" width="6" x="-3" y="-3"/><text class="lab" transform="translate(0 11)">0</text></g><g class="a29 i7 leaf node n7 p1 sample" transform="translate(23 14.4363)"><path class="edge" d="M 0 0 V -14.4363 H -23"/><rect class="sym" height="6" width="6" x="-3" y="-3"/><text class="lab" transform="translate(0 11)">7</text></g><path class="edge" d="M 0 0 V -280.164 H 237.367"/><g class="mut m0 s0" transform="translate(0 -211.197)"><line x1="0" x2="0" y1="0" y2="211.197"/><path class="sym" d="M -3,-3 l 6,6 M -3,3 l 6,-6"/><text class="lab lft" transform="translate(-5 0)">0</text></g><circle class="sym" cx="0" cy="0" r="3"/><text class="lab lft" transform="translate(-3 -7)">29</text></g><g class="a38 c2 m1 node n37 p2 s1" transform="translate(237.367 170.939)"><g class="a37 c2 node n35 p1" transform="translate(-266.297 22.7613)"><g class="a35 c2 node n33 p1" transform="translate(104.938 59.9363)"><g class="a33 c2 node n22 p2" transform="translate(-83.375 39.3201)"><g class="a22 i2 leaf node n2 p1 sample" transform="translate(-23 1.64366)"><path class="edge" d="M 0 0 V -1.64366 H 23"/><rect class="sym" height="6" width="6" x="-3" y="-3"/><text class="lab" transform="translate(0 11)">2</text></g><g class="a22 i12 leaf node n12 p2 sample" transform="translate(23 1.64366)"><path class="edge" d="M 0 0 V -1.64366 H -23"/><rect class="sym" height="6" width="6" x="-3" y="-3"/><text class="lab" transform="translate(0 11)">12</text></g><path class="edge" d="M 0 0 V -39.3201 H 83.375"/><circle class="sym" cx="0" cy="0" r="3"/><text class="lab lft" transform="translate(-3 -7)">22</text></g><g class="a33 c2 node n32 p1" transform="translate(83.375 10.9269)"><g class="a32 i18 leaf node n18 p2 sample" transform="translate(40.25 30.0369)"><path class="edge" d="M 0 0 V -30.0369 H -40.25"/><rect class="sym" height="6" width="6" x="-3" y="-3"/><text class="lab" transform="translate(0 11)">18</text></g><g class="a32 c2 node n26 p2" transform="translate(-40.25 21.7696)"><g class="a26 i17 leaf node n17 p2 sample" transform="translate(34.5 8.26727)"><path class="edge" d="M 0 0 V -8.26727 H -34.5"/><rect class="sym" height="6" width="6" x="-3" y="-3"/><text class="lab" transform="translate(0 11)">17</text></g><g class="a26 c2 node n23 p1" transform="translate(-34.5 2.7299)"><g class="a23 i4 leaf node n4 p1 sample" transform="translate(-23 5.53738)"><path class="edge" d="M 0 0 V -5.53738 H 23"/><rect class="sym" height="6" width="6" x="-3" y="-3"/><text class="lab" transform="translate(0 11)">4</text></g><g class="a23 i13 leaf node n13 p2 sample" transform="translate(23 5.53738)"><path class="edge" d="M 0 0 V -5.53738 H -23"/><rect class="sym" height="6" width="6" x="-3" y="-3"/><text class="lab" transform="translate(0 11)">13</text></g><path class="edge" d="M 0 0 V -2.7299 H 34.5"/><circle class="sym" cx="0" cy="0" r="3"/><text class="lab lft" transform="translate(-3 -7)">23</text></g><path class="edge" d="M 0 0 V -21.7696 H 40.25"/><circle class="sym" cx="0" cy="0" r="3"/><text class="lab lft" transform="translate(-3 -7)">26</text></g><path class="edge" d="M 0 0 V -10.9269 H -83.375"/><circle class="sym" cx="0" cy="0" r="3"/><text class="lab rgt" transform="translate(3 -7)">32</text></g><path class="edge" d="M 0 0 V -59.9363 H -104.938"/><circle class="sym" cx="0" cy="0" r="3"/><text class="lab rgt" transform="translate(3 -7)">33</text></g><g class="a35 c2 node n34 p2" transform="translate(-104.938 59.1348)"><g class="a34 i1 leaf node n1 p1 sample" transform="translate(-34.5 41.7652)"><path class="edge" d="M 0 0 V -41.7652 H 34.5"/><rect class="sym" height="6" width="6" x="-3" y="-3"/><text class="lab" transform="translate(0 11)">1</text></g><g class="a34 c2 node n20 p2" transform="translate(34.5 41.4798)"><g class="a20 i9 leaf node n9 p1 sample" transform="translate(-23 0.285372)"><path class="edge" d="M 0 0 V -0.285372 H 23"/><rect class="sym" height="6" width="6" x="-3" y="-3"/><text class="lab" transform="translate(0 11)">9</text></g><g class="a20 i10 leaf node n10 p2 sample" transform="translate(23 0.285372)"><path class="edge" d="M 0 0 V -0.285372 H -23"/><rect class="sym" height="6" width="6" x="-3" y="-3"/><text class="lab" transform="translate(0 11)">10</text></g><path class="edge" d="M 0 0 V -41.4798 H -34.5"/><circle class="sym" cx="0" cy="0" r="3"/><text class="lab rgt" transform="translate(3 -7)">20</text></g><path class="edge" d="M 0 0 V -59.1348 H 104.938"/><circle class="sym" cx="0" cy="0" r="3"/><text class="lab lft" transform="translate(-3 -7)">34</text></g><path class="edge" d="M 0 0 V -22.7613 H 266.297"/><circle class="sym" cx="0" cy="0" r="3"/><text class="lab lft" transform="translate(-3 -7)">35</text></g><g class="a37 c2 node n36 p1" transform="translate(266.297 20.2379)"><g class="a36 c2 node n30 p2" transform="translate(-75.4688 87.8377)"><g class="a30 i6 leaf node n6 p1 sample" transform="translate(47.4375 15.5858)"><path class="edge" d="M 0 0 V -15.5858 H -47.4375"/><rect class="sym" height="6" width="6" x="-3" y="-3"/><text class="lab" transform="translate(0 11)">6</text></g><g class="a30 c2 node n28 p1" transform="translate(-47.4375 2.12922)"><g class="a28 i11 leaf m2 node n11 p2 s2 sample" transform="translate(48.875 13.4565)"><path class="edge" d="M 0 0 V -13.4565 H -48.875"/><g class="mut m2 s2" transform="translate(0 -12.755)"><line x1="0" x2="0" y1="0" y2="12.755"/><path class="sym" d="M -3,-3 l 6,6 M -3,3 l 6,-6"/><text class="lab rgt" transform="translate(5 0)">2</text></g><rect class="sym" height="6" width="6" x="-3" y="-3"/><text class="lab" transform="translate(0 11)">11</text></g><g class="a28 c2 node n27 p2" transform="translate(-48.875 1.60394)"><g class="a27 i16 leaf node n16 p2 sample" transform="translate(51.75 11.8526)"><path class="edge" d="M 0 0 V -11.8526 H -51.75"/><rect class="sym" height="6" width="6" x="-3" y="-3"/><text class="lab" transform="translate(0 11)">16</text></g><g class="a27 c2 node n24 p2" transform="translate(-51.75 4.04394)"><g class="a24 i3 leaf node n3 p1 sample" transform="translate(-34.5 7.80866)"><path class="edge" d="M 0 0 V -7.80866 H 34.5"/><rect class="sym" height="6" width="6" x="-3" y="-3"/><text class="lab" transform="translate(0 11)">3</text></g><g class="a24 c2 node n21 p2" transform="translate(34.5 6.41521)"><g class="a21 i5 leaf node n5 p1 sample" transform="translate(-23 1.39345)"><path class="edge" d="M 0 0 V -1.39345 H 23"/><rect class="sym" height="6" width="6" x="-3" y="-3"/><text class="lab" transform="translate(0 11)">5</text></g><g class="a21 i8 leaf node n8 p1 sample" transform="translate(23 1.39345)"><path class="edge" d="M 0 0 V -1.39345 H -23"/><rect class="sym" height="6" width="6" x="-3" y="-3"/><text class="lab" transform="translate(0 11)">8</text></g><path class="edge" d="M 0 0 V -6.41521 H -34.5"/><circle class="sym" cx="0" cy="0" r="3"/><text class="lab rgt" transform="translate(3 -7)">21</text></g><path class="edge" d="M 0 0 V -4.04394 H 51.75"/><circle class="sym" cx="0" cy="0" r="3"/><text class="lab lft" transform="translate(-3 -7)">24</text></g><path class="edge" d="M 0 0 V -1.60394 H 48.875"/><circle class="sym" cx="0" cy="0" r="3"/><text class="lab lft" transform="translate(-3 -7)">27</text></g><path class="edge" d="M 0 0 V -2.12922 H 47.4375"/><circle class="sym" cx="0" cy="0" r="3"/><text class="lab lft" transform="translate(-3 -7)">28</text></g><path class="edge" d="M 0 0 V -87.8377 H 75.4688"/><circle class="sym" cx="0" cy="0" r="3"/><text class="lab lft" transform="translate(-3 -7)">30</text></g><g class="a36 c2 node n31 p1" transform="translate(75.4688 74.0101)"><g class="a31 i15 leaf node n15 p2 sample" transform="translate(34.5 29.4133)"><path class="edge" d="M 0 0 V -29.4133 H -34.5"/><rect class="sym" height="6" width="6" x="-3" y="-3"/><text class="lab" transform="translate(0 11)">15</text></g><g class="a31 c2 node n25 p2" transform="translate(-34.5 21.4983)"><g class="a25 i14 leaf node n14 p2 sample" transform="translate(-23 7.91507)"><path class="edge" d="M 0 0 V -7.91507 H 23"/><rect class="sym" height="6" width="6" x="-3" y="-3"/><text class="lab" transform="translate(0 11)">14</text></g><g class="a25 i19 leaf node n19 p2 sample" transform="translate(23 7.91507)"><path class="edge" d="M 0 0 V -7.91507 H -23"/><rect class="sym" height="6" width="6" x="-3" y="-3"/><text class="lab" transform="translate(0 11)">19</text></g><path class="edge" d="M 0 0 V -21.4983 H 34.5"/><circle class="sym" cx="0" cy="0" r="3"/><text class="lab lft" transform="translate(-3 -7)">25</text></g><path class="edge" d="M 0 0 V -74.0101 H -75.4688"/><circle class="sym" cx="0" cy="0" r="3"/><text class="lab rgt" transform="translate(3 -7)">31</text></g><path class="edge" d="M 0 0 V -20.2379 H -266.297"/><circle class="sym" cx="0" cy="0" r="3"/><text class="lab rgt" transform="translate(3 -7)">36</text></g><path class="edge" d="M 0 0 V -170.939 H -237.367"/><g class="mut m1 s1" transform="translate(0 -96.5676)"><line x1="0" x2="0" y1="0" y2="96.5676"/><path class="sym" d="M -3,-3 l 6,6 M -3,3 l 6,-6"/><text class="lab rgt" transform="translate(5 0)">1</text></g><circle class="sym" cx="0" cy="0" r="3"/><text class="lab rgt" transform="translate(3 -7)">37</text></g><circle class="sym" cx="0" cy="0" r="3"/><text class="lab" transform="translate(0 -11)">38</text></g></g></g></g></g></svg>