<svg baseProfile="full" height="400" version="1.1" width="1000" xmlns="http://www.w3.org/2000/svg" xmlns:ev="http://www.w3.org/2001/xml-events" xmlns:xlink="http://www.w3.org/1999/xlink"><defs><style type="text/css"><![CDATA[.background path {fill: #808080; fill-opacity: 0}.background path:nth-child(odd) {fill-opacity: .1}.x-regions rect {fill: yellow; stroke: black; opacity: 0.5}.axes {font-size: 14px}.x-axis .tick .lab {font-weight: bold; dominant-baseline: hanging}.axes, .tree {font-size: 14px; text-anchor: middle}.axes line, .edge {stroke: black; fill: none}.axes .ax-skip {stroke-dasharray: 4}.y-axis .grid {stroke: #FAFAFA}.node > .sym {fill: black; stroke: none}.site > .sym {stroke: black}.mut text {fill: red; font-style: italic}.mut.extra text {fill: hotpink}.mut line {fill: none; stroke: none}.mut .sym {fill: none; stroke: red}.mut.extra .sym {stroke: hotpink}.node .mut .sym {stroke-width: 1.5px}.tree text, .tree-sequence text {dominant-baseline: central}.plotbox .lab.lft {text-anchor: end}.plotbox .lab.rgt {text-anchor: start}.polytomy line {stroke: black; stroke-dasharray: 1px, 1px}.polytomy text {paint-order:stroke;stroke-width:0.3em;stroke:white}]]></style></defs><g class="tree-sequence"><g class="background"><path d="M20,0 l960,0 l0,338.2 l0,25 l0,5 l-960,0 l0,-5 l0,-25 l0,-338.2z"/></g><g class="axes"><g class="x-axis"><g class="title" transform="translate(500 400)"><text class="lab" text-anchor="middle" transform="translate(0 -11)">Genome position</text></g><line class="ax-line" x1="20" x2="980" y1="363.2" y2="363.2"/><g class="ticks"><g class="tick" transform="translate(20 363.2)"><line x1="0" x2="0" y1="0" y2="5"/><g transform="translate(0 6)"><text class="lab">0</text></g></g><g class="tick" transform="translate(980 363.2)"><line x1="0" x2="0" y1="0" y2="5"/><g transform="translate(0 6)"><text class="lab">1000</text></g></g></g><g class="site s0" transform="translate(186.08 363.2)"><line class="sym" x1="0" x2="0" y1="0" y2="-10"/><g class="mut m0"><polyline class="sym" points="2.5,-6.5 0,-1.5 -2.5,-6.5"/></g></g></g></g><g class="plotbox trees"><g class="tree t0" transform="translate(20 0)"><g class="plotbox"><g class="c2 node n38 p0 root" transform="translate(638.844 26.8)"><g class="a38 c2 node n35 p0" transform="translate(226.406 60.56)"><g class="a35 i19 leaf node n19 p2 sample" transform="translate(51.75 234.04)"><path class="edge" d="M 0 0 V -234.04 H -51.75"/><rect class="sym" height="6" width="6" x="-3" y="-3"/><text class="lab" transform="translate(0 11)">19</text></g><g class="a35 c2 node n34 p0" transform="translate(-51.75 59.1349)"><g class="a34 i15 leaf node n15 p2 sample" transform="translate(57.5 174.905)"><path class="edge" d="M 0 0 V -174.905 H -57.5"/><rect class="sym" height="6" width="6" x="-3" y="-3"/><text class="lab" transform="translate(0 11)">15</text></g><g class="a34 c2 node n31 p0" transform="translate(-57.5 19.2219)"><g class="a31 c2 node n20 p1" transform="translate(46 152.779)"><g class="a20 i3 leaf node n3 p1 sample" transform="translate(-23 2.90401)"><path class="edge" d="M 0 0 V -2.90401 H 23"/><rect class="sym" height="6" width="6" x="-3" y="-3"/><text class="lab" transform="translate(0 11)">3</text></g><g class="a20 i10 leaf node n10 p2 sample" transform="translate(23 2.90401)"><path class="edge" d="M 0 0 V -2.90401 H -23"/><rect class="sym" height="6" width="6" x="-3" y="-3"/><text class="lab" transform="translate(0 11)">10</text></g><path class="edge" d="M 0 0 V -152.779 H -46"/><circle class="sym" cx="0" cy="0" r="3"/><text class="lab rgt" transform="translate(3 -7)">20</text></g><g class="a31 c2 m0 node n21 p1 s0" transform="translate(-46 151.901)"><g class="a21 i2 leaf node n2 p1 sample" transform="translate(-23 3.7821)"><path class="edge" d="M 0 0 V -3.7821 H 23"/><rect class="sym" height="6" width="6" x="-3" y="-3"/><text class="lab" transform="translate(0 11)">2</text></g><g class="a21 i8 leaf node n8 p1 sample" transform="translate(23 3.7821)"><path class="edge" d="M 0 0 V -3.7821 H -23"/><rect class="sym" height="6" width="6" x="-3" y="-3"/><text class="lab" transform="translate(0 11)">8</text></g><path class="edge" d="M 0 0 V -151.901 H 46"/><g class="mut m0 s0" transform="translate(0 -42.0222)"><line x1="0" x2="0" y1="0" y2="42.0222"/><path class="sym" d="M -3,-3 l 6,6 M -3,3 l 6,-6"/><text class="lab lft" transform="translate(-5 0)">0</text></g><circle class="sym" cx="0" cy="0" r="3"/><text class="lab lft" transform="translate(-3 -7)">21</text></g><path class="edge" d="M 0 0 V -19.2219 H 57.5"/><circle class="sym" cx="0" cy="0" r="3"/><text class="lab lft" transform="translate(-3 -7)">31</text></g><path class="edge" d="M 0 0 V -59.1349 H 51.75"/><circle class="sym" cx="0" cy="0" r="3"/><text class="lab lft" transform="translate(-3 -7)">34</text></g><path class="edge" d="M 0 0 V -60.56 H -226.406"/><circle class="sym" cx="0" cy="0" r="3"/><text class="lab rgt" transform="translate(3 -7)">35</text></g><g class="a38 c2 node n37 p0" transform="translate(-226.406 48.7397)"><g class="a37 c2 node n30 p0" transform="translate(188.312 119.149)"><g class="a30 i13 leaf node n13 p2 sample" transform="translate(40.25 126.711)"><path class="edge" d="M 0 0 V -126.711 H -40.25"/><rect class="sym" height="6" width="6" x="-3" y="-3"/><text class="lab" transform="translate(0 11)">13</text></g><g class="a30 c2 node n28 p1" transform="translate(-40.25 85.6223)"><g class="a28 i16 leaf node n16 p2 sample" transform="translate(34.5 41.0887)"><path class="edge" d="M 0 0 V -41.0887 H -34.5"/><rect class="sym" height="6" width="6" x="-3" y="-3"/><text class="lab" transform="translate(0 11)">16</text></g><g class="a28 c2 node n23 p2" transform="translate(-34.5 36.5584)"><g class="a23 i7 leaf node n7 p1 sample" transform="translate(-23 4.53025)"><path class="edge" d="M 0 0 V -4.53025 H 23"/><rect class="sym" height="6" width="6" x="-3" y="-3"/><text class="lab" transform="translate(0 11)">7</text></g><g class="a23 i17 leaf node n17 p2 sample" transform="translate(23 4.53025)"><path class="edge" d="M 0 0 V -4.53025 H -23"/><rect class="sym" height="6" width="6" x="-3" y="-3"/><text class="lab" transform="translate(0 11)">17</text></g><path class="edge" d="M 0 0 V -36.5584 H 34.5"/><circle class="sym" cx="0" cy="0" r="3"/><text class="lab lft" transform="translate(-3 -7)">23</text></g><path class="edge" d="M 0 0 V -85.6223 H 40.25"/><circle class="sym" cx="0" cy="0" r="3"/><text class="lab lft" transform="translate(-3 -7)">28</text></g><path class="edge" d="M 0 0 V -119.149 H -188.312"/><circle class="sym" cx="0" cy="0" r="3"/><text class="lab rgt" transform="translate(3 -7)">30</text></g><g class="a37 c2 node n36 p0" transform="translate(-188.312 0.509263)"><g class="a36 c2 node n32 p0" transform="translate(140.875 78.8768)"><g class="a32 c2 node n27 p1" transform="translate(69 142.582)"><g class="a27 i11 leaf node n11 p2 sample" transform="translate(-23 23.8927)"><path class="edge" d="M 0 0 V -23.8927 H 23"/><rect class="sym" height="6" width="6" x="-3" y="-3"/><text class="lab" transform="translate(0 11)">11</text></g><g class="a27 i12 leaf node n12 p2 sample" transform="translate(23 23.8927)"><path class="edge" d="M 0 0 V -23.8927 H -23"/><rect class="sym" height="6" width="6" x="-3" y="-3"/><text class="lab" transform="translate(0 11)">12</text></g><path class="edge" d="M 0 0 V -142.582 H -69"/><circle class="sym" cx="0" cy="0" r="3"/><text class="lab rgt" transform="translate(3 -7)">27</text></g><g class="a32 c2 node n29 p2" transform="translate(-69 116.403)"><g class="a29 c2 node n25 p2" transform="translate(46 30.589)"><g class="a25 i9 leaf node n9 p1 sample" transform="translate(-23 19.4825)"><path class="edge" d="M 0 0 V -19.4825 H 23"/><rect class="sym" height="6" width="6" x="-3" y="-3"/><text class="lab" transform="translate(0 11)">9</text></g><g class="a25 i14 leaf node n14 p2 sample" transform="translate(23 19.4825)"><path class="edge" d="M 0 0 V -19.4825 H -23"/><rect class="sym" height="6" width="6" x="-3" y="-3"/><text class="lab" transform="translate(0 11)">14</text></g><path class="edge" d="M 0 0 V -30.589 H -46"/><circle class="sym" cx="0" cy="0" r="3"/><text class="lab rgt" transform="translate(3 -7)">25</text></g><g class="a29 c2 node n26 p2" transform="translate(-46 28.0088)"><g class="a26 i4 leaf node n4 p1 sample" transform="translate(-23 22.0627)"><path class="edge" d="M 0 0 V -22.0627 H 23"/><rect class="sym" height="6" width="6" x="-3" y="-3"/><text class="lab" transform="translate(0 11)">4</text></g><g class="a26 i6 leaf node n6 p1 sample" transform="translate(23 22.0627)"><path class="edge" d="M 0 0 V -22.0627 H -23"/><rect class="sym" height="6" width="6" x="-3" y="-3"/><text class="lab" transform="translate(0 11)">6</text></g><path class="edge" d="M 0 0 V -28.0088 H 46"/><circle class="sym" cx="0" cy="0" r="3"/><text class="lab lft" transform="translate(-3 -7)">26</text></g><path class="edge" d="M 0 0 V -116.403 H 69"/><circle class="sym" cx="0" cy="0" r="3"/><text class="lab lft" transform="translate(-3 -7)">29</text></g><path class="edge" d="M 0 0 V -78.8768 H -140.875"/><circle class="sym" cx="0" cy="0" r="3"/><text class="lab rgt" transform="translate(3 -7)">32</text></g><g class="a36 c2 node n33 p0" transform="translate(-140.875 74.8579)"><g class="a33 i0 leaf node n0 p1 sample" transform="translate(-40.25 170.493)"><path class="edge" d="M 0 0 V -170.493 H 40.25"/><rect class="sym" height="6" width="6" x="-3" y="-3"/><text class="lab" transform="translate(0 11)">0</text></g><g class="a33 c2 node n24 p2" transform="translate(40.25 156.479)"><g class="a24 i1 leaf node n1 p1 sample" transform="translate(-34.5 14.0142)"><path class="edge" d="M 0 0 V -14.0142 H 34.5"/><rect class="sym" height="6" width="6" x="-3" y="-3"/><text class="lab" transform="translate(0 11)">1</text></g><g class="a24 c2 node n22 p1" transform="translate(34.5 9.86666)"><g class="a22 i5 leaf node n5 p1 sample" transform="translate(-23 4.14749)"><path class="edge" d="M 0 0 V -4.14749 H 23"/><rect class="sym" height="6" width="6" x="-3" y="-3"/><text class="lab" transform="translate(0 11)">5</text></g><g class="a22 i18 leaf node n18 p2 sample" transform="translate(23 4.14749)"><path class="edge" d="M 0 0 V -4.14749 H -23"/><rect class="sym" height="6" width="6" x="-3" y="-3"/><text class="lab" transform="translate(0 11)">18</text></g><path class="edge" d="M 0 0 V -9.86666 H -34.5"/><circle class="sym" cx="0" cy="0" r="3"/><text class="lab rgt" transform="translate(3 -7)">22</text></g><path class="edge" d="M 0 0 V -156.479 H -40.25"/><circle class="sym" cx="0" cy="0" r="3"/><text class="lab rgt" transform="translate(3 -7)">24</text></g><path class="edge" d="M 0 0 V -74.8579 H 140.875"/><circle class="sym" cx="0" cy="0" r="3"/><text class="lab lft" transform="translate(-3 -7)">33</text></g><path class="edge" d="M 0 0 V -0.509263 H 188.312"/><circle class="sym" cx="0" cy="0" r="3"/><text class="lab lft" transform="translate(-3 -7)">36</text></g><path class="edge" d="M 0 0 V -48.7397 H 226.406"/><circle class="sym" cx="0" cy="0" r="3"/><text class="lab lft" transform="translate(-3 -7)">37</text></g><circle class="sym" cx="0" cy="0" r="3"/><text class="lab" transform="translate(0 -11)">38</text></g></g></g></g></g></svg>