<svg baseProfile="full" height="400" version="1.1" width="1000" xmlns="http://www.w3.org/2000/svg" xmlns:ev="http://www.w3.org/2001/xml-events" xmlns:xlink="http://www.w3.org/1999/xlink"><defs><style type="text/css"><![CDATA[.background path {fill: #808080; fill-opacity: 0}.background path:nth-child(odd) {fill-opacity: .1}.x-regions rect {fill: yellow; stroke: black; opacity: 0.5}.axes {font-size: 14px}.x-axis .tick .lab {font-weight: bold; dominant-baseline: hanging}.axes, .tree {font-size: 14px; text-anchor: middle}.axes line, .edge {stroke: black; fill: none}.axes .ax-skip {stroke-dasharray: 4}.y-axis .grid {stroke: #FAFAFA}.node > .sym {fill: black; stroke: none}.site > .sym {stroke: black}.mut text {fill: red; font-style: italic}.mut.extra text {fill: hotpink}.mut line {fill: none; stroke: none}.mut .sym {fill: none; stroke: red}.mut.extra .sym {stroke: hotpink}.node .mut .sym {stroke-width: 1.5px}.tree text, .tree-sequence text {dominant-baseline: central}.plotbox .lab.lft {text-anchor: end}.plotbox .lab.rgt {text-anchor: start}.polytomy line {stroke: black; stroke-dasharray: 1px, 1px}.polytomy text {paint-order:stroke;stroke-width:0.3em;stroke:white}]]></style></defs><g class="tree-sequence"><g class="background"><path d="M20,0 l960,0 l0,338.2 l0,25 l0,5 l-960,0 l0,-5 l0,-25 l0,-338.2z"/></g><g class="axes"><g class="x-axis"><g class="title" transform="translate(500 400)"><text class="lab" text-anchor="middle" transform="translate(0 -11)">Genome position</text></g><line class="ax-line" x1="20" x2="980" y1="363.2" y2="363.2"/><g class="ticks"><g class="tick" transform="translate(20 363.2)"><line x1="0" x2="0" y1="0" y2="5"/><g transform="translate(0 6)"><text class="lab">0</text></g></g><g class="tick" transform="translate(980 363.2)"><line x1="0" x2="0" y1="0" y2="5"/><g transform="translate(0 6)"><text class="lab">1000</text></g></g></g><g class="site s0" transform="translate(242.72 363.2)"><line class="sym" x1="0" x2="0" y1="0" y2="-10"/><g class="mut m0"><polyline class="sym" points="2.5,-6.5 0,-1.5 -2.5,-6.5"/></g></g><g class="site s1" transform="translate(452.96 363.2)"><line class="sym" x1="0" x2="0" y1="0" y2="-10"/><g class="mut m1"><polyline class="sym" points="2.5,-6.5 0,-1.5 -2.5,-6.5"/></g></g><g class="site s2" transform="translate(687.2 363.2)"><line class="sym" x1="0" x2="0" y1="0" y2="-10"/><g class="mut m2"><polyline class="sym" points="2.5,-6.5 0,-1.5 -2.5,-6.5"/></g></g></g></g><g class="plotbox trees"><g class="tree t0" transform="translate(20 0)"><g class="plotbox"><g class="c2 node n38 p2 root" transform="translate(702.812 26.8)"><g class="a38 c2 m0 node n29 p1 s0" transform="translate(191.188 278.272)"><g class="a29 i14 leaf node n14 p2 sample" transform="translate(-23 16.3284)"><path class="edge" d="M 0 0 V -16.3284 H 23"/><rect class="sym" height="6" width="6" x="-3" y="-3"/><text class="lab" transform="translate(0 11)">14</text></g><g class="a29 i15 leaf node n15 p2 sample" transform="translate(23 16.3284)"><path class="edge" d="M 0 0 V -16.3284 H -23"/><rect class="sym" height="6" width="6" x="-3" y="-3"/><text class="lab" transform="translate(0 11)">15</text></g><path class="edge" d="M 0 0 V -278.272 H -191.188"/><g class="mut m0 s0" transform="translate(0 -46.153)"><line x1="0" x2="0" y1="0" y2="46.153"/><path class="sym" d="M -3,-3 l 6,6 M -3,3 l 6,-6"/><text class="lab rgt" transform="translate(5 0)">0</text></g><circle class="sym" cx="0" cy="0" r="3"/><text class="lab rgt" transform="translate(3 -7)">29</text></g><g class="a38 c2 node n37 p2" transform="translate(-191.188 109.687)"><g class="a37 c2 node n34 p2" transform="translate(-188.312 140.975)"><g class="a34 c2 node n30 p1" transform="translate(-139.438 20.3668)"><g class="a30 c2 node n23 p2" transform="translate(83.375 18.3133)"><g class="a23 i2 leaf node n2 p1 sample" transform="translate(51.75 5.25782)"><path class="edge" d="M 0 0 V -5.25782 H -51.75"/><rect class="sym" height="6" width="6" x="-3" y="-3"/><text class="lab" transform="translate(0 11)">2</text></g><g class="a23 c2 node n22 p2" transform="translate(-51.75 0.585671)"><g class="a22 i1 leaf node n1 p1 sample" transform="translate(-34.5 4.67215)"><path class="edge" d="M 0 0 V -4.67215 H 34.5"/><rect class="sym" height="6" width="6" x="-3" y="-3"/><text class="lab" transform="translate(0 11)">1</text></g><g class="a22 c2 node n20 p1" transform="translate(34.5 1.03909)"><g class="a20 i7 leaf node n7 p1 sample" transform="translate(-23 3.63306)"><path class="edge" d="M 0 0 V -3.63306 H 23"/><rect class="sym" height="6" width="6" x="-3" y="-3"/><text class="lab" transform="translate(0 11)">7</text></g><g class="a20 i8 leaf node n8 p1 sample" transform="translate(23 3.63306)"><path class="edge" d="M 0 0 V -3.63306 H -23"/><rect class="sym" height="6" width="6" x="-3" y="-3"/><text class="lab" transform="translate(0 11)">8</text></g><path class="edge" d="M 0 0 V -1.03909 H -34.5"/><circle class="sym" cx="0" cy="0" r="3"/><text class="lab rgt" transform="translate(3 -7)">20</text></g><path class="edge" d="M 0 0 V -0.585671 H 51.75"/><circle class="sym" cx="0" cy="0" r="3"/><text class="lab lft" transform="translate(-3 -7)">22</text></g><path class="edge" d="M 0 0 V -18.3133 H -83.375"/><circle class="sym" cx="0" cy="0" r="3"/><text class="lab rgt" transform="translate(3 -7)">23</text></g><g class="a30 c2 node n25 p2" transform="translate(-83.375 14.9358)"><g class="a25 i9 leaf node n9 p1 sample" transform="translate(34.5 8.63534)"><path class="edge" d="M 0 0 V -8.63534 H -34.5"/><rect class="sym" height="6" width="6" x="-3" y="-3"/><text class="lab" transform="translate(0 11)">9</text></g><g class="a25 c2 node n21 p2" transform="translate(-34.5 4.16723)"><g class="a21 i0 leaf node n0 p1 sample" transform="translate(-23 4.46811)"><path class="edge" d="M 0 0 V -4.46811 H 23"/><rect class="sym" height="6" width="6" x="-3" y="-3"/><text class="lab" transform="translate(0 11)">0</text></g><g class="a21 i5 leaf node n5 p1 sample" transform="translate(23 4.46811)"><path class="edge" d="M 0 0 V -4.46811 H -23"/><rect class="sym" height="6" width="6" x="-3" y="-3"/><text class="lab" transform="translate(0 11)">5</text></g><path class="edge" d="M 0 0 V -4.16723 H 34.5"/><circle class="sym" cx="0" cy="0" r="3"/><text class="lab lft" transform="translate(-3 -7)">21</text></g><path class="edge" d="M 0 0 V -14.9358 H 83.375"/><circle class="sym" cx="0" cy="0" r="3"/><text class="lab lft" transform="translate(-3 -7)">25</text></g><path class="edge" d="M 0 0 V -20.3668 H 139.438"/><circle class="sym" cx="0" cy="0" r="3"/><text class="lab lft" transform="translate(-3 -7)">30</text></g><g class="a34 c2 node n33 p2" transform="translate(139.438 3.43764)"><g class="a33 i13 leaf node n13 p2 sample" transform="translate(40.25 40.5003)"><path class="edge" d="M 0 0 V -40.5003 H -40.25"/><rect class="sym" height="6" width="6" x="-3" y="-3"/><text class="lab" transform="translate(0 11)">13</text></g><g class="a33 c2 node n31 p1" transform="translate(-40.25 5.69006)"><g class="a31 i12 leaf node n12 p2 sample" transform="translate(34.5 34.8103)"><path class="edge" d="M 0 0 V -34.8103 H -34.5"/><rect class="sym" height="6" width="6" x="-3" y="-3"/><text class="lab" transform="translate(0 11)">12</text></g><g class="a31 c2 node n28 p2" transform="translate(-34.5 18.9132)"><g class="a28 i6 leaf node n6 p1 sample" transform="translate(-23 15.897)"><path class="edge" d="M 0 0 V -15.897 H 23"/><rect class="sym" height="6" width="6" x="-3" y="-3"/><text class="lab" transform="translate(0 11)">6</text></g><g class="a28 i16 leaf node n16 p2 sample" transform="translate(23 15.897)"><path class="edge" d="M 0 0 V -15.897 H -23"/><rect class="sym" height="6" width="6" x="-3" y="-3"/><text class="lab" transform="translate(0 11)">16</text></g><path class="edge" d="M 0 0 V -18.9132 H 34.5"/><circle class="sym" cx="0" cy="0" r="3"/><text class="lab lft" transform="translate(-3 -7)">28</text></g><path class="edge" d="M 0 0 V -5.69006 H 40.25"/><circle class="sym" cx="0" cy="0" r="3"/><text class="lab lft" transform="translate(-3 -7)">31</text></g><path class="edge" d="M 0 0 V -3.43764 H -139.438"/><circle class="sym" cx="0" cy="0" r="3"/><text class="lab rgt" transform="translate(3 -7)">33</text></g><path class="edge" d="M 0 0 V -140.975 H 188.312"/><circle class="sym" cx="0" cy="0" r="3"/><text class="lab lft" transform="translate(-3 -7)">34</text></g><g class="a37 c2 node n36 p1" transform="translate(188.312 92.2704)"><g class="a36 c2 m2 node n32 p2 s2" transform="translate(102.062 53.6906)"><g class="a32 i17 leaf node n17 p2 sample" transform="translate(-23 38.9521)"><path class="edge" d="M 0 0 V -38.9521 H 23"/><rect class="sym" height="6" width="6" x="-3" y="-3"/><text class="lab" transform="translate(0 11)">17</text></g><g class="a32 i19 leaf node n19 p2 sample" transform="translate(23 38.9521)"><path class="edge" d="M 0 0 V -38.9521 H -23"/><rect class="sym" height="6" width="6" x="-3" y="-3"/><text class="lab" transform="translate(0 11)">19</text></g><path class="edge" d="M 0 0 V -53.6906 H -102.062"/><g class="mut m2 s2" transform="translate(0 -7.87086)"><line x1="0" x2="0" y1="0" y2="7.87086"/><path class="sym" d="M -3,-3 l 6,6 M -3,3 l 6,-6"/><text class="lab rgt" transform="translate(5 0)">2</text></g><circle class="sym" cx="0" cy="0" r="3"/><text class="lab rgt" transform="translate(3 -7)">32</text></g><g class="a36 c2 node n35 p1" transform="translate(-102.062 25.8959)"><g class="a35 i3 leaf node n3 p1 sample" transform="translate(-48.875 66.7467)"><path class="edge" d="M 0 0 V -66.7467 H 48.875"/><rect class="sym" height="6" width="6" x="-3" y="-3"/><text class="lab" transform="translate(0 11)">3</text></g><g class="a35 c2 node n27 p2" transform="translate(48.875 53.3954)"><g class="a27 i4 leaf node n4 p1 sample" transform="translate(-51.75 13.3513)"><path class="edge" d="M 0 0 V -13.3513 H 51.75"/><rect class="sym" height="6" width="6" x="-3" y="-3"/><text class="lab" transform="translate(0 11)">4</text></g><g class="a27 c2 node n26 p1" transform="translate(51.75 1.6319)"><g class="a26 i18 leaf m1 node n18 p2 s1 sample" transform="translate(34.5 11.7194)"><path class="edge" d="M 0 0 V -11.7194 H -34.5"/><g class="mut m1 s1" transform="translate(0 -0.788888)"><line x1="0" x2="0" y1="0" y2="0.788888"/><path class="sym" d="M -3,-3 l 6,6 M -3,3 l 6,-6"/><text class="lab rgt" transform="translate(5 0)">1</text></g><rect class="sym" height="6" width="6" x="-3" y="-3"/><text class="lab" transform="translate(0 11)">18</text></g><g class="a26 c2 node n24 p2" transform="translate(-34.5 5.45382)"><g class="a24 i10 leaf node n10 p2 sample" transform="translate(-23 6.26559)"><path class="edge" d="M 0 0 V -6.26559 H 23"/><rect class="sym" height="6" width="6" x="-3" y="-3"/><text class="lab" transform="translate(0 11)">10</text></g><g class="a24 i11 leaf node n11 p2 sample" transform="translate(23 6.26559)"><path class="edge" d="M 0 0 V -6.26559 H -23"/><rect class="sym" height="6" width="6" x="-3" y="-3"/><text class="lab" transform="translate(0 11)">11</text></g><path class="edge" d="M 0 0 V -5.45382 H 34.5"/><circle class="sym" cx="0" cy="0" r="3"/><text class="lab lft" transform="translate(-3 -7)">24</text></g><path class="edge" d="M 0 0 V -1.6319 H -51.75"/><circle class="sym" cx="0" cy="0" r="3"/><text class="lab rgt" transform="translate(3 -7)">26</text></g><path class="edge" d="M 0 0 V -53.3954 H -48.875"/><circle class="sym" cx="0" cy="0" r="3"/><text class="lab rgt" transform="translate(3 -7)">27</text></g><path class="edge" d="M 0 0 V -25.8959 H 102.062"/><circle class="sym" cx="0" cy="0" r="3"/><text class="lab lft" transform="translate(-3 -7)">35</text></g><path class="edge" d="M 0 0 V -92.2704 H -188.312"/><circle class="sym" cx="0" cy="0" r="3"/><text class="lab rgt" transform="translate(3 -7)">36</text></g><path class="edge" d="M 0 0 V -109.687 H 191.188"/><circle class="sym" cx="0" cy="0" r="3"/><text class="lab lft" transform="translate(-3 -7)">37</text></g><circle class="sym" cx="0" cy="0" r="3"/><text class="lab" transform="translate(0 -11)">38</text></g></g></g></g></g></svg>