<svg baseProfile="full" height="400" version="1.1" width="1000" xmlns="http://www.w3.org/2000/svg" xmlns:ev="http://www.w3.org/2001/xml-events" xmlns:xlink="http://www.w3.org/1999/xlink"><defs><style type="text/css"><![CDATA[.background path {fill: #808080; fill-opacity: 0}.background path:nth-child(odd) {fill-opacity: .1}.x-regions rect {fill: yellow; stroke: black; opacity: 0.5}.axes {font-size: 14px}.x-axis .tick .lab {font-weight: bold; dominant-baseline: hanging}.axes, .tree {font-size: 14px; text-anchor: middle}.axes line, .edge {stroke: black; fill: none}.axes .ax-skip {stroke-dasharray: 4}.y-axis .grid {stroke: #FAFAFA}.node > .sym {fill: black; stroke: none}.site > .sym {stroke: black}.mut text {fill: red; font-style: italic}.mut.extra text {fill: hotpink}.mut line {fill: none; stroke: none}.mut .sym {fill: none; stroke: red}.mut.extra .sym {stroke: hotpink}.node .mut .sym {stroke-width: 1.5px}.tree text, .tree-sequence text {dominant-baseline: central}.plotbox .lab.lft {text-anchor: end}.plotbox .lab.rgt {text-anchor: start}.polytomy line {stroke: black; stroke-dasharray: 1px, 1px}.polytomy text {paint-order:stroke;stroke-width:0.3em;stroke:white}]]></style></defs><g class="tree-sequence"><g class="background"><path d="M20,0 l960,0 l0,338.2 l0,25 l0,5 l-960,0 l0,-5 l0,-25 l0,-338.2z"/></g><g class="axes"><g class="x-axis"><g class="title" transform="translate(500 400)"><text class="lab" text-anchor="middle" transform="translate(0 -11)">Genome position</text></g><line class="ax-line" x1="20" x2="980" y1="363.2" y2="363.2"/><g class="ticks"><g class="tick" transform="translate(20 363.2)"><line x1="0" x2="0" y1="0" y2="5"/><g transform="translate(0 6)"><text class="lab">0</text></g></g><g class="tick" transform="translate(980 363.2)"><line x1="0" x2="0" y1="0" y2="5"/><g transform="translate(0 6)"><text class="lab">1000</text></g></g></g><g class="site s0" transform="translate(98.72 363.2)"><line class="sym" x1="0" x2="0" y1="0" y2="-10"/><g class="mut m0"><polyline class="sym" points="2.5,-6.5 0,-1.5 -2.5,-6.5"/></g></g><g class="site s1" transform="translate(263.84 363.2)"><line class="sym" x1="0" x2="0" y1="0" y2="-10"/><g class="mut m1"><polyline class="sym" points="2.5,-6.5 0,-1.5 -2.5,-6.5"/></g></g><g class="site s2" transform="translate(483.68 363.2)"><line class="sym" x1="0" x2="0" y1="0" y2="-10"/><g class="mut m2"><polyline class="sym" points="2.5,-6.5 0,-1.5 -2.5,-6.5"/></g></g><g class="site s3" transform="translate(759.2 363.2)"><line class="sym" x1="0" x2="0" y1="0" y2="-10"/><g class="mut m3"><polyline class="sym" points="2.5,-6.5 0,-1.5 -2.5,-6.5"/></g></g><g class="site s4" transform="translate(774.56 363.2)"><line class="sym" x1="0" x2="0" y1="0" y2="-10"/><g class="mut m4"><polyline class="sym" points="2.5,-6.5 0,-1.5 -2.5,-6.5"/></g></g></g></g><g class="plotbox trees"><g class="tree t0" transform="translate(20 0)"><g class="plotbox"><g class="c2 node n38 p2 root" transform="translate(708.832 26.8)"><g class="a38 c2 m3 node n36 p1 s3" transform="translate(173.668 198.713)"><g class="a36 i12 leaf node n12 p2 sample" transform="translate(34.5 95.8868)"><path class="edge" d="M 0 0 V -95.8868 H -34.5"/><rect class="sym" height="6" width="6" x="-3" y="-3"/><text class="lab" transform="translate(0 11)">12</text></g><g class="a36 c2 m1 node n21 p2 s1" transform="translate(-34.5 93.6165)"><g class="a21 i4 leaf node n4 p1 sample" transform="translate(-23 2.27031)"><path class="edge" d="M 0 0 V -2.27031 H 23"/><rect class="sym" height="6" width="6" x="-3" y="-3"/><text class="lab" transform="translate(0 11)">4</text></g><g class="a21 i9 leaf node n9 p1 sample" transform="translate(23 2.27031)"><path class="edge" d="M 0 0 V -2.27031 H -23"/><rect class="sym" height="6" width="6" x="-3" y="-3"/><text class="lab" transform="translate(0 11)">9</text></g><path class="edge" d="M 0 0 V -93.6165 H 34.5"/><g class="mut m1 s1" transform="translate(0 -35.0069)"><line x1="0" x2="0" y1="0" y2="35.0069"/><path class="sym" d="M -3,-3 l 6,6 M -3,3 l 6,-6"/><text class="lab lft" transform="translate(-5 0)">1</text></g><circle class="sym" cx="0" cy="0" r="3"/><text class="lab lft" transform="translate(-3 -7)">21</text></g><path class="edge" d="M 0 0 V -198.713 H -173.668"/><g class="mut m3 s3" transform="translate(0 -60.2385)"><line x1="0" x2="0" y1="0" y2="60.2385"/><path class="sym" d="M -3,-3 l 6,6 M -3,3 l 6,-6"/><text class="lab rgt" transform="translate(5 0)">3</text></g><circle class="sym" cx="0" cy="0" r="3"/><text class="lab rgt" transform="translate(3 -7)">36</text></g><g class="a38 c2 m0 m4 node n37 p2 s0 s4" transform="translate(-173.668 181.919)"><g class="a37 c2 node n33 p1" transform="translate(157.586 83.2252)"><g class="a33 i3 leaf node n3 p1 sample" transform="translate(-51.75 29.4555)"><path class="edge" d="M 0 0 V -29.4555 H 51.75"/><rect class="sym" height="6" width="6" x="-3" y="-3"/><text class="lab" transform="translate(0 11)">3</text></g><g class="a33 c2 m2 node n28 p1 s2" transform="translate(51.75 12.0409)"><g class="a28 i18 leaf node n18 p2 sample" transform="translate(34.5 17.4146)"><path class="edge" d="M 0 0 V -17.4146 H -34.5"/><rect class="sym" height="6" width="6" x="-3" y="-3"/><text class="lab" transform="translate(0 11)">18</text></g><g class="a28 c2 node n20 p2" transform="translate(-34.5 17.4126)"><g class="a20 i11 leaf node n11 p2 sample" transform="translate(-23 0.00202451)"><path class="edge" d="M 0 0 V -0.00202451 H 23"/><rect class="sym" height="6" width="6" x="-3" y="-3"/><text class="lab" transform="translate(0 11)">11</text></g><g class="a20 i13 leaf node n13 p2 sample" transform="translate(23 0.00202451)"><path class="edge" d="M 0 0 V -0.00202451 H -23"/><rect class="sym" height="6" width="6" x="-3" y="-3"/><text class="lab" transform="translate(0 11)">13</text></g><path class="edge" d="M 0 0 V -17.4126 H 34.5"/><circle class="sym" cx="0" cy="0" r="3"/><text class="lab lft" transform="translate(-3 -7)">20</text></g><path class="edge" d="M 0 0 V -12.0409 H -51.75"/><g class="mut m2 s2" transform="translate(0 -4.32987)"><line x1="0" x2="0" y1="0" y2="4.32987"/><path class="sym" d="M -3,-3 l 6,6 M -3,3 l 6,-6"/><text class="lab rgt" transform="translate(5 0)">2</text></g><circle class="sym" cx="0" cy="0" r="3"/><text class="lab rgt" transform="translate(3 -7)">28</text></g><path class="edge" d="M 0 0 V -83.2252 H -157.586"/><circle class="sym" cx="0" cy="0" r="3"/><text class="lab rgt" transform="translate(3 -7)">33</text></g><g class="a37 c2 node n35 p2" transform="translate(-157.586 31.5334)"><g class="a35 c2 node n29 p1" transform="translate(182.922 63.1312)"><g class="a29 i16 leaf node n16 p2 sample" transform="translate(34.5 18.0161)"><path class="edge" d="M 0 0 V -18.0161 H -34.5"/><rect class="sym" height="6" width="6" x="-3" y="-3"/><text class="lab" transform="translate(0 11)">16</text></g><g class="a29 c2 node n24 p2" transform="translate(-34.5 10.2987)"><g class="a24 i1 leaf node n1 p1 sample" transform="translate(-23 7.71741)"><path class="edge" d="M 0 0 V -7.71741 H 23"/><rect class="sym" height="6" width="6" x="-3" y="-3"/><text class="lab" transform="translate(0 11)">1</text></g><g class="a24 i8 leaf node n8 p1 sample" transform="translate(23 7.71741)"><path class="edge" d="M 0 0 V -7.71741 H -23"/><rect class="sym" height="6" width="6" x="-3" y="-3"/><text class="lab" transform="translate(0 11)">8</text></g><path class="edge" d="M 0 0 V -10.2987 H 34.5"/><circle class="sym" cx="0" cy="0" r="3"/><text class="lab lft" transform="translate(-3 -7)">24</text></g><path class="edge" d="M 0 0 V -63.1312 H -182.922"/><circle class="sym" cx="0" cy="0" r="3"/><text class="lab rgt" transform="translate(3 -7)">29</text></g><g class="a35 c2 node n34 p2" transform="translate(-182.922 50.2461)"><g class="a34 c2 node n23 p1" transform="translate(-128.656 25.7865)"><g class="a23 i0 leaf node n0 p1 sample" transform="translate(-23 5.11471)"><path class="edge" d="M 0 0 V -5.11471 H 23"/><rect class="sym" height="6" width="6" x="-3" y="-3"/><text class="lab" transform="translate(0 11)">0</text></g><g class="a23 i15 leaf node n15 p2 sample" transform="translate(23 5.11471)"><path class="edge" d="M 0 0 V -5.11471 H -23"/><rect class="sym" height="6" width="6" x="-3" y="-3"/><text class="lab" transform="translate(0 11)">15</text></g><path class="edge" d="M 0 0 V -25.7865 H 128.656"/><circle class="sym" cx="0" cy="0" r="3"/><text class="lab lft" transform="translate(-3 -7)">23</text></g><g class="a34 c2 node n32 p2" transform="translate(128.656 1.77425)"><g class="a32 c2 node n30 p1" transform="translate(110.688 9.75957)"><g class="a30 i17 leaf node n17 p2 sample" transform="translate(-23 19.3674)"><path class="edge" d="M 0 0 V -19.3674 H 23"/><rect class="sym" height="6" width="6" x="-3" y="-3"/><text class="lab" transform="translate(0 11)">17</text></g><g class="a30 i19 leaf node n19 p2 sample" transform="translate(23 19.3674)"><path class="edge" d="M 0 0 V -19.3674 H -23"/><rect class="sym" height="6" width="6" x="-3" y="-3"/><text class="lab" transform="translate(0 11)">19</text></g><path class="edge" d="M 0 0 V -9.75957 H -110.688"/><circle class="sym" cx="0" cy="0" r="3"/><text class="lab rgt" transform="translate(3 -7)">30</text></g><g class="a32 c2 node n31 p2" transform="translate(-110.688 3.58465)"><g class="a31 c2 node n26 p2" transform="translate(54.625 16.7461)"><g class="a26 i6 leaf node n6 p1 sample" transform="translate(-40.25 8.7962)"><path class="edge" d="M 0 0 V -8.7962 H 40.25"/><rect class="sym" height="6" width="6" x="-3" y="-3"/><text class="lab" transform="translate(0 11)">6</text></g><g class="a26 c2 node n25 p2" transform="translate(40.25 0.0092965)"><g class="a25 i7 leaf node n7 p1 sample" transform="translate(-34.5 8.78691)"><path class="edge" d="M 0 0 V -8.78691 H 34.5"/><rect class="sym" height="6" width="6" x="-3" y="-3"/><text class="lab" transform="translate(0 11)">7</text></g><g class="a25 c2 node n22 p2" transform="translate(34.5 4.55264)"><g class="a22 i10 leaf node n10 p2 sample" transform="translate(-23 4.23427)"><path class="edge" d="M 0 0 V -4.23427 H 23"/><rect class="sym" height="6" width="6" x="-3" y="-3"/><text class="lab" transform="translate(0 11)">10</text></g><g class="a22 i14 leaf node n14 p2 sample" transform="translate(23 4.23427)"><path class="edge" d="M 0 0 V -4.23427 H -23"/><rect class="sym" height="6" width="6" x="-3" y="-3"/><text class="lab" transform="translate(0 11)">14</text></g><path class="edge" d="M 0 0 V -4.55264 H -34.5"/><circle class="sym" cx="0" cy="0" r="3"/><text class="lab rgt" transform="translate(3 -7)">22</text></g><path class="edge" d="M 0 0 V -0.0092965 H -40.25"/><circle class="sym" cx="0" cy="0" r="3"/><text class="lab rgt" transform="translate(3 -7)">25</text></g><path class="edge" d="M 0 0 V -16.7461 H -54.625"/><circle class="sym" cx="0" cy="0" r="3"/><text class="lab rgt" transform="translate(3 -7)">26</text></g><g class="a31 c2 node n27 p1" transform="translate(-54.625 12.6044)"><g class="a27 i2 leaf node n2 p1 sample" transform="translate(-23 12.9379)"><path class="edge" d="M 0 0 V -12.9379 H 23"/><rect class="sym" height="6" width="6" x="-3" y="-3"/><text class="lab" transform="translate(0 11)">2</text></g><g class="a27 i5 leaf node n5 p1 sample" transform="translate(23 12.9379)"><path class="edge" d="M 0 0 V -12.9379 H -23"/><rect class="sym" height="6" width="6" x="-3" y="-3"/><text class="lab" transform="translate(0 11)">5</text></g><path class="edge" d="M 0 0 V -12.6044 H 54.625"/><circle class="sym" cx="0" cy="0" r="3"/><text class="lab lft" transform="translate(-3 -7)">27</text></g><path class="edge" d="M 0 0 V -3.58465 H 110.688"/><circle class="sym" cx="0" cy="0" r="3"/><text class="lab lft" transform="translate(-3 -7)">31</text></g><path class="edge" d="M 0 0 V -1.77425 H -128.656"/><circle class="sym" cx="0" cy="0" r="3"/><text class="lab rgt" transform="translate(3 -7)">32</text></g><path class="edge" d="M 0 0 V -50.2461 H 182.922"/><circle class="sym" cx="0" cy="0" r="3"/><text class="lab lft" transform="translate(-3 -7)">34</text></g><path class="edge" d="M 0 0 V -31.5334 H 157.586"/><circle class="sym" cx="0" cy="0" r="3"/><text class="lab lft" transform="translate(-3 -7)">35</text></g><path class="edge" d="M 0 0 V -181.919 H 173.668"/><g class="mut m0 s0" transform="translate(0 -95.3843)"><line x1="0" x2="0" y1="0" y2="95.3843"/><path class="sym" d="M -3,-3 l 6,6 M -3,3 l 6,-6"/><text class="lab lft" transform="translate(-5 0)">0</text></g><g class="mut m4 s4" transform="translate(0 -69.9374)"><line x1="0" x2="0" y1="0" y2="69.9374"/><path class="sym" d="M -3,-3 l 6,6 M -3,3 l 6,-6"/><text class="lab lft" transform="translate(-5 0)">4</text></g><circle class="sym" cx="0" cy="0" r="3"/><text class="lab lft" transform="translate(-3 -7)">37</text></g><circle class="sym" cx="0" cy="0" r="3"/><text class="lab" transform="translate(0 -11)">38</text></g></g></g></g></g></svg>