<svg baseProfile="full" height="400" version="1.1" width="1000" xmlns="http://www.w3.org/2000/svg" xmlns:ev="http://www.w3.org/2001/xml-events" xmlns:xlink="http://www.w3.org/1999/xlink"><defs><style type="text/css"><![CDATA[.background path {fill: #808080; fill-opacity: 0}.background path:nth-child(odd) {fill-opacity: .1}.x-regions rect {fill: yellow; stroke: black; opacity: 0.5}.axes {font-size: 14px}.x-axis .tick .lab {font-weight: bold; dominant-baseline: hanging}.axes, .tree {font-size: 14px; text-anchor: middle}.axes line, .edge {stroke: black; fill: none}.axes .ax-skip {stroke-dasharray: 4}.y-axis .grid {stroke: #FAFAFA}.node > .sym {fill: black; stroke: none}.site > .sym {stroke: black}.mut text {fill: red; font-style: italic}.mut.extra text {fill: hotpink}.mut line {fill: none; stroke: none}.mut .sym {fill: none; stroke: red}.mut.extra .sym {stroke: hotpink}.node .mut .sym {stroke-width: 1.5px}.tree text, .tree-sequence text {dominant-baseline: central}.plotbox .lab.lft {text-anchor: end}.plotbox .lab.rgt {text-anchor: start}.polytomy line {stroke: black; stroke-dasharray: 1px, 1px}.polytomy text {paint-order:stroke;stroke-width:0.3em;stroke:white}]]></style></defs><g class="tree-sequence"><g class="background"><path d="M20,0 l960,0 l0,338.2 l0,25 l0,5 l-960,0 l0,-5 l0,-25 l0,-338.2z"/></g><g class="axes"><g class="x-axis"><g class="title" transform="translate(500 400)"><text class="lab" text-anchor="middle" transform="translate(0 -11)">Genome position</text></g><line class="ax-line" x1="20" x2="980" y1="363.2" y2="363.2"/><g class="ticks"><g class="tick" transform="translate(20 363.2)"><line x1="0" x2="0" y1="0" y2="5"/><g transform="translate(0 6)"><text class="lab">0</text></g></g><g class="tick" transform="translate(980 363.2)"><line x1="0" x2="0" y1="0" y2="5"/><g transform="translate(0 6)"><text class="lab">1000</text></g></g></g><g class="site s0" transform="translate(153.44 363.2)"><line class="sym" x1="0" x2="0" y1="0" y2="-10"/><g class="mut m0"><polyline class="sym" points="2.5,-6.5 0,-1.5 -2.5,-6.5"/></g></g><g class="site s1" transform="translate(847.52 363.2)"><line class="sym" x1="0" x2="0" y1="0" y2="-10"/><g class="mut m1"><polyline class="sym" points="2.5,-6.5 0,-1.5 -2.5,-6.5"/></g></g></g></g><g class="plotbox trees"><g class="tree t0" transform="translate(20 0)"><g class="plotbox"><g class="c2 node n38 p2 root" transform="translate(608.836 26.8)"><g class="a38 c2 node n36 p2" transform="translate(213.289 184.165)"><g class="a36 c2 node n20 p1" transform="translate(71.875 109.133)"><g class="a20 i12 leaf node n12 p2 sample" transform="translate(-23 1.30213)"><path class="edge" d="M 0 0 V -1.30213 H 23"/><rect class="sym" height="6" width="6" x="-3" y="-3"/><text class="lab" transform="translate(0 11)">12</text></g><g class="a20 i17 leaf node n17 p2 sample" transform="translate(23 1.30213)"><path class="edge" d="M 0 0 V -1.30213 H -23"/><rect class="sym" height="6" width="6" x="-3" y="-3"/><text class="lab" transform="translate(0 11)">17</text></g><path class="edge" d="M 0 0 V -109.133 H -71.875"/><circle class="sym" cx="0" cy="0" r="3"/><text class="lab rgt" transform="translate(3 -7)">20</text></g><g class="a36 c2 node n34 p1" transform="translate(-71.875 29.453)"><g class="a34 c2 node n22 p1" transform="translate(-51.75 78.2769)"><g class="a22 i6 leaf node n6 p1 sample" transform="translate(34.5 2.70494)"><path class="edge" d="M 0 0 V -2.70494 H -34.5"/><rect class="sym" height="6" width="6" x="-3" y="-3"/><text class="lab" transform="translate(0 11)">6</text></g><g class="a22 c2 node n21 p1" transform="translate(-34.5 0.063314)"><g class="a21 i3 leaf node n3 p1 sample" transform="translate(-23 2.64163)"><path class="edge" d="M 0 0 V -2.64163 H 23"/><rect class="sym" height="6" width="6" x="-3" y="-3"/><text class="lab" transform="translate(0 11)">3</text></g><g class="a21 i15 leaf node n15 p2 sample" transform="translate(23 2.64163)"><path class="edge" d="M 0 0 V -2.64163 H -23"/><rect class="sym" height="6" width="6" x="-3" y="-3"/><text class="lab" transform="translate(0 11)">15</text></g><path class="edge" d="M 0 0 V -0.063314 H 34.5"/><circle class="sym" cx="0" cy="0" r="3"/><text class="lab lft" transform="translate(-3 -7)">21</text></g><path class="edge" d="M 0 0 V -78.2769 H 51.75"/><circle class="sym" cx="0" cy="0" r="3"/><text class="lab lft" transform="translate(-3 -7)">22</text></g><g class="a34 c2 node n30 p1" transform="translate(51.75 55.5302)"><g class="a30 i8 leaf node n8 p1 sample" transform="translate(-23 25.4516)"><path class="edge" d="M 0 0 V -25.4516 H 23"/><rect class="sym" height="6" width="6" x="-3" y="-3"/><text class="lab" transform="translate(0 11)">8</text></g><g class="a30 i16 leaf node n16 p2 sample" transform="translate(23 25.4516)"><path class="edge" d="M 0 0 V -25.4516 H -23"/><rect class="sym" height="6" width="6" x="-3" y="-3"/><text class="lab" transform="translate(0 11)">16</text></g><path class="edge" d="M 0 0 V -55.5302 H -51.75"/><circle class="sym" cx="0" cy="0" r="3"/><text class="lab rgt" transform="translate(3 -7)">30</text></g><path class="edge" d="M 0 0 V -29.453 H 71.875"/><circle class="sym" cx="0" cy="0" r="3"/><text class="lab lft" transform="translate(-3 -7)">34</text></g><path class="edge" d="M 0 0 V -184.165 H -213.289"/><circle class="sym" cx="0" cy="0" r="3"/><text class="lab rgt" transform="translate(3 -7)">36</text></g><g class="a38 c2 node n37 p1" transform="translate(-213.289 131.308)"><g class="a37 c2 node n26 p2" transform="translate(176.453 153.005)"><g class="a26 i10 leaf node n10 p2 sample" transform="translate(-23 10.2871)"><path class="edge" d="M 0 0 V -10.2871 H 23"/><rect class="sym" height="6" width="6" x="-3" y="-3"/><text class="lab" transform="translate(0 11)">10</text></g><g class="a26 i19 leaf node n19 p2 sample" transform="translate(23 10.2871)"><path class="edge" d="M 0 0 V -10.2871 H -23"/><rect class="sym" height="6" width="6" x="-3" y="-3"/><text class="lab" transform="translate(0 11)">19</text></g><path class="edge" d="M 0 0 V -153.005 H -176.453"/><circle class="sym" cx="0" cy="0" r="3"/><text class="lab rgt" transform="translate(3 -7)">26</text></g><g class="a37 c2 node n35 p1" transform="translate(-176.453 81.2373)"><g class="a35 c2 m0 node n32 p1 s0" transform="translate(-118.594 33.7791)"><g class="a32 i1 leaf node n1 p1 sample" transform="translate(34.5 48.2756)"><path class="edge" d="M 0 0 V -48.2756 H -34.5"/><rect class="sym" height="6" width="6" x="-3" y="-3"/><text class="lab" transform="translate(0 11)">1</text></g><g class="a32 c2 node n24 p1" transform="translate(-34.5 43.7977)"><g class="a24 i0 leaf node n0 p1 sample" transform="translate(-23 4.47793)"><path class="edge" d="M 0 0 V -4.47793 H 23"/><rect class="sym" height="6" width="6" x="-3" y="-3"/><text class="lab" transform="translate(0 11)">0</text></g><g class="a24 i11 leaf node n11 p2 sample" transform="translate(23 4.47793)"><path class="edge" d="M 0 0 V -4.47793 H -23"/><rect class="sym" height="6" width="6" x="-3" y="-3"/><text class="lab" transform="translate(0 11)">11</text></g><path class="edge" d="M 0 0 V -43.7977 H 34.5"/><circle class="sym" cx="0" cy="0" r="3"/><text class="lab lft" transform="translate(-3 -7)">24</text></g><path class="edge" d="M 0 0 V -33.7791 H 118.594"/><g class="mut m0 s0" transform="translate(0 -25.1049)"><line x1="0" x2="0" y1="0" y2="25.1049"/><path class="sym" d="M -3,-3 l 6,6 M -3,3 l 6,-6"/><text class="lab lft" transform="translate(-5 0)">0</text></g><circle class="sym" cx="0" cy="0" r="3"/><text class="lab lft" transform="translate(-3 -7)">32</text></g><g class="a35 c2 node n33 p1" transform="translate(118.594 24.1223)"><g class="a33 c2 node n29 p2" transform="translate(-122.188 33.0154)"><g class="a29 i2 leaf node n2 p1 sample" transform="translate(-34.5 24.917)"><path class="edge" d="M 0 0 V -24.917 H 34.5"/><rect class="sym" height="6" width="6" x="-3" y="-3"/><text class="lab" transform="translate(0 11)">2</text></g><g class="a29 c2 node n27 p2" transform="translate(34.5 14.3986)"><g class="a27 i9 leaf node n9 p1 sample" transform="translate(-23 10.5185)"><path class="edge" d="M 0 0 V -10.5185 H 23"/><rect class="sym" height="6" width="6" x="-3" y="-3"/><text class="lab" transform="translate(0 11)">9</text></g><g class="a27 i18 leaf node n18 p2 sample" transform="translate(23 10.5185)"><path class="edge" d="M 0 0 V -10.5185 H -23"/><rect class="sym" height="6" width="6" x="-3" y="-3"/><text class="lab" transform="translate(0 11)">18</text></g><path class="edge" d="M 0 0 V -14.3986 H -34.5"/><circle class="sym" cx="0" cy="0" r="3"/><text class="lab rgt" transform="translate(3 -7)">27</text></g><path class="edge" d="M 0 0 V -33.0154 H 122.188"/><circle class="sym" cx="0" cy="0" r="3"/><text class="lab lft" transform="translate(-3 -7)">29</text></g><g class="a33 c2 node n31 p2" transform="translate(122.188 25.0265)"><g class="a31 i7 leaf m1 node n7 p1 s1 sample" transform="translate(43.125 32.906)"><path class="edge" d="M 0 0 V -32.906 H -43.125"/><g class="mut m1 s1" transform="translate(0 -2.9903)"><line x1="0" x2="0" y1="0" y2="2.9903"/><path class="sym" d="M -3,-3 l 6,6 M -3,3 l 6,-6"/><text class="lab rgt" transform="translate(5 0)">1</text></g><rect class="sym" height="6" width="6" x="-3" y="-3"/><text class="lab" transform="translate(0 11)">7</text></g><g class="a31 c2 node n28 p2" transform="translate(-43.125 16.2973)"><g class="a28 i5 leaf node n5 p1 sample" transform="translate(40.25 16.6087)"><path class="edge" d="M 0 0 V -16.6087 H -40.25"/><rect class="sym" height="6" width="6" x="-3" y="-3"/><text class="lab" transform="translate(0 11)">5</text></g><g class="a28 c2 node n25 p2" transform="translate(-40.25 11.7031)"><g class="a25 i13 leaf node n13 p2 sample" transform="translate(34.5 4.90555)"><path class="edge" d="M 0 0 V -4.90555 H -34.5"/><rect class="sym" height="6" width="6" x="-3" y="-3"/><text class="lab" transform="translate(0 11)">13</text></g><g class="a25 c2 node n23 p1" transform="translate(-34.5 1.45418)"><g class="a23 i4 leaf node n4 p1 sample" transform="translate(-23 3.45137)"><path class="edge" d="M 0 0 V -3.45137 H 23"/><rect class="sym" height="6" width="6" x="-3" y="-3"/><text class="lab" transform="translate(0 11)">4</text></g><g class="a23 i14 leaf node n14 p2 sample" transform="translate(23 3.45137)"><path class="edge" d="M 0 0 V -3.45137 H -23"/><rect class="sym" height="6" width="6" x="-3" y="-3"/><text class="lab" transform="translate(0 11)">14</text></g><path class="edge" d="M 0 0 V -1.45418 H 34.5"/><circle class="sym" cx="0" cy="0" r="3"/><text class="lab lft" transform="translate(-3 -7)">23</text></g><path class="edge" d="M 0 0 V -11.7031 H 40.25"/><circle class="sym" cx="0" cy="0" r="3"/><text class="lab lft" transform="translate(-3 -7)">25</text></g><path class="edge" d="M 0 0 V -16.2973 H 43.125"/><circle class="sym" cx="0" cy="0" r="3"/><text class="lab lft" transform="translate(-3 -7)">28</text></g><path class="edge" d="M 0 0 V -25.0265 H -122.188"/><circle class="sym" cx="0" cy="0" r="3"/><text class="lab rgt" transform="translate(3 -7)">31</text></g><path class="edge" d="M 0 0 V -24.1223 H -118.594"/><circle class="sym" cx="0" cy="0" r="3"/><text class="lab rgt" transform="translate(3 -7)">33</text></g><path class="edge" d="M 0 0 V -81.2373 H 176.453"/><circle class="sym" cx="0" cy="0" r="3"/><text class="lab lft" transform="translate(-3 -7)">35</text></g><path class="edge" d="M 0 0 V -131.308 H 213.289"/><circle class="sym" cx="0" cy="0" r="3"/><text class="lab lft" transform="translate(-3 -7)">37</text></g><circle class="sym" cx="0" cy="0" r="3"/><text class="lab" transform="translate(0 -11)">38</text></g></g></g></g></g></svg>