<svg baseProfile="full" height="400" version="1.1" width="1000" xmlns="http://www.w3.org/2000/svg" xmlns:ev="http://www.w3.org/2001/xml-events" xmlns:xlink="http://www.w3.org/1999/xlink"><defs><style type="text/css"><![CDATA[.background path {fill: #808080; fill-opacity: 0}.background path:nth-child(odd) {fill-opacity: .1}.x-regions rect {fill: yellow; stroke: black; opacity: 0.5}.axes {font-size: 14px}.x-axis .tick .lab {font-weight: bold; dominant-baseline: hanging}.axes, .tree {font-size: 14px; text-anchor: middle}.axes line, .edge {stroke: black; fill: none}.axes .ax-skip {stroke-dasharray: 4}.y-axis .grid {stroke: #FAFAFA}.node > .sym {fill: black; stroke: none}.site > .sym {stroke: black}.mut text {fill: red; font-style: italic}.mut.extra text {fill: hotpink}.mut line {fill: none; stroke: none}.mut .sym {fill: none; stroke: red}.mut.extra .sym {stroke: hotpink}.node .mut .sym {stroke-width: 1.5px}.tree text, .tree-sequence text {dominant-baseline: central}.plotbox .lab.lft {text-anchor: end}.plotbox .lab.rgt {text-anchor: start}.polytomy line {stroke: black; stroke-dasharray: 1px, 1px}.polytomy text {paint-order:stroke;stroke-width:0.3em;stroke:white}]]></style></defs><g class="tree-sequence"><g class="background"><path d="M20,0 l960,0 l0,338.2 l0,25 l0,5 l-960,0 l0,-5 l0,-25 l0,-338.2z"/></g><g class="axes"><g class="x-axis"><g class="title" transform="translate(500 400)"><text class="lab" text-anchor="middle" transform="translate(0 -11)">Genome position</text></g><line class="ax-line" x1="20" x2="980" y1="363.2" y2="363.2"/><g class="ticks"><g class="tick" transform="translate(20 363.2)"><line x1="0" x2="0" y1="0" y2="5"/><g transform="translate(0 6)"><text class="lab">0</text></g></g><g class="tick" transform="translate(980 363.2)"><line x1="0" x2="0" y1="0" y2="5"/><g transform="translate(0 6)"><text class="lab">1000</text></g></g></g><g class="site s0" transform="translate(69.92 363.2)"><line class="sym" x1="0" x2="0" y1="0" y2="-10"/><g class="mut m0"><polyline class="sym" points="2.5,-6.5 0,-1.5 -2.5,-6.5"/></g></g><g class="site s1" transform="translate(261.92 363.2)"><line class="sym" x1="0" x2="0" y1="0" y2="-10"/><g class="mut m1"><polyline class="sym" points="2.5,-6.5 0,-1.5 -2.5,-6.5"/></g></g><g class="site s2" transform="translate(495.2 363.2)"><line class="sym" x1="0" x2="0" y1="0" y2="-10"/><g class="mut m2"><polyline class="sym" points="2.5,-6.5 0,-1.5 -2.5,-6.5"/></g></g><g class="site s3" transform="translate(708.32 363.2)"><line class="sym" x1="0" x2="0" y1="0" y2="-10"/><g class="mut m3"><polyline class="sym" points="2.5,-6.5 0,-1.5 -2.5,-6.5"/></g></g></g></g><g class="plotbox trees"><g class="tree t0" transform="translate(20 0)"><g class="plotbox"><g class="c2 node n38 p1 root" transform="translate(595.359 26.8)"><g class="a38 c2 node n36 p1" transform="translate(235.391 201.839)"><g class="a36 c2 node n25 p2" transform="translate(63.25 75.552)"><g class="a25 i8 leaf node n8 p1 sample" transform="translate(-23 17.2093)"><path class="edge" d="M 0 0 V -17.2093 H 23"/><rect class="sym" height="6" width="6" x="-3" y="-3"/><text class="lab" transform="translate(0 11)">8</text></g><g class="a25 i18 leaf node n18 p2 sample" transform="translate(23 17.2093)"><path class="edge" d="M 0 0 V -17.2093 H -23"/><rect class="sym" height="6" width="6" x="-3" y="-3"/><text class="lab" transform="translate(0 11)">18</text></g><path class="edge" d="M 0 0 V -75.552 H -63.25"/><circle class="sym" cx="0" cy="0" r="3"/><text class="lab rgt" transform="translate(3 -7)">25</text></g><g class="a36 c2 node n31 p1" transform="translate(-63.25 47.5659)"><g class="a31 i14 leaf node n14 p2 sample" transform="translate(57.5 45.1954)"><path class="edge" d="M 0 0 V -45.1954 H -57.5"/><rect class="sym" height="6" width="6" x="-3" y="-3"/><text class="lab" transform="translate(0 11)">14</text></g><g class="a31 c2 node n30 p2" transform="translate(-57.5 2.46403)"><g class="a30 c2 node n22 p1" transform="translate(-46 39.6075)"><g class="a22 i1 leaf node n1 p1 sample" transform="translate(-23 3.12388)"><path class="edge" d="M 0 0 V -3.12388 H 23"/><rect class="sym" height="6" width="6" x="-3" y="-3"/><text class="lab" transform="translate(0 11)">1</text></g><g class="a22 i15 leaf node n15 p2 sample" transform="translate(23 3.12388)"><path class="edge" d="M 0 0 V -3.12388 H -23"/><rect class="sym" height="6" width="6" x="-3" y="-3"/><text class="lab" transform="translate(0 11)">15</text></g><path class="edge" d="M 0 0 V -39.6075 H 46"/><circle class="sym" cx="0" cy="0" r="3"/><text class="lab lft" transform="translate(-3 -7)">22</text></g><g class="a30 c2 node n29 p1" transform="translate(46 9.306)"><g class="a29 i4 leaf node n4 p1 sample" transform="translate(-23 33.4254)"><path class="edge" d="M 0 0 V -33.4254 H 23"/><rect class="sym" height="6" width="6" x="-3" y="-3"/><text class="lab" transform="translate(0 11)">4</text></g><g class="a29 i11 leaf node n11 p2 sample" transform="translate(23 33.4254)"><path class="edge" d="M 0 0 V -33.4254 H -23"/><rect class="sym" height="6" width="6" x="-3" y="-3"/><text class="lab" transform="translate(0 11)">11</text></g><path class="edge" d="M 0 0 V -9.306 H -46"/><circle class="sym" cx="0" cy="0" r="3"/><text class="lab rgt" transform="translate(3 -7)">29</text></g><path class="edge" d="M 0 0 V -2.46403 H 57.5"/><circle class="sym" cx="0" cy="0" r="3"/><text class="lab lft" transform="translate(-3 -7)">30</text></g><path class="edge" d="M 0 0 V -47.5659 H 63.25"/><circle class="sym" cx="0" cy="0" r="3"/><text class="lab lft" transform="translate(-3 -7)">31</text></g><path class="edge" d="M 0 0 V -201.839 H -235.391"/><circle class="sym" cx="0" cy="0" r="3"/><text class="lab rgt" transform="translate(3 -7)">36</text></g><g class="a38 c2 m2 node n37 p2 s2" transform="translate(-235.391 145.564)"><g class="a37 c2 m1 node n33 p2 s1" transform="translate(-153.094 89.4779)"><g class="a33 i9 leaf node n9 p1 sample" transform="translate(66.125 59.5579)"><path class="edge" d="M 0 0 V -59.5579 H -66.125"/><rect class="sym" height="6" width="6" x="-3" y="-3"/><text class="lab" transform="translate(0 11)">9</text></g><g class="a33 c2 node n24 p1" transform="translate(-66.125 43.2721)"><g class="a24 c2 node n21 p1" transform="translate(63.25 15.2829)"><g class="a21 i5 leaf node n5 p1 sample" transform="translate(-23 1.00284)"><path class="edge" d="M 0 0 V -1.00284 H 23"/><rect class="sym" height="6" width="6" x="-3" y="-3"/><text class="lab" transform="translate(0 11)">5</text></g><g class="a21 i13 leaf node n13 p2 sample" transform="translate(23 1.00284)"><path class="edge" d="M 0 0 V -1.00284 H -23"/><rect class="sym" height="6" width="6" x="-3" y="-3"/><text class="lab" transform="translate(0 11)">13</text></g><path class="edge" d="M 0 0 V -15.2829 H -63.25"/><circle class="sym" cx="0" cy="0" r="3"/><text class="lab rgt" transform="translate(3 -7)">21</text></g><g class="a24 c2 m3 node n23 p2 s3" transform="translate(-63.25 12.0372)"><g class="a23 i0 leaf node n0 p1 sample" transform="translate(-34.5 4.24856)"><path class="edge" d="M 0 0 V -4.24856 H 34.5"/><rect class="sym" height="6" width="6" x="-3" y="-3"/><text class="lab" transform="translate(0 11)">0</text></g><g class="a23 c2 node n20 p1" transform="translate(34.5 3.88776)"><g class="a20 i7 leaf node n7 p1 sample" transform="translate(-23 0.360801)"><path class="edge" d="M 0 0 V -0.360801 H 23"/><rect class="sym" height="6" width="6" x="-3" y="-3"/><text class="lab" transform="translate(0 11)">7</text></g><g class="a20 i19 leaf node n19 p2 sample" transform="translate(23 0.360801)"><path class="edge" d="M 0 0 V -0.360801 H -23"/><rect class="sym" height="6" width="6" x="-3" y="-3"/><text class="lab" transform="translate(0 11)">19</text></g><path class="edge" d="M 0 0 V -3.88776 H -34.5"/><circle class="sym" cx="0" cy="0" r="3"/><text class="lab rgt" transform="translate(3 -7)">20</text></g><path class="edge" d="M 0 0 V -12.0372 H 63.25"/><g class="mut m3 s3" transform="translate(0 -2.29318)"><line x1="0" x2="0" y1="0" y2="2.29318"/><path class="sym" d="M -3,-3 l 6,6 M -3,3 l 6,-6"/><text class="lab lft" transform="translate(-5 0)">3</text></g><circle class="sym" cx="0" cy="0" r="3"/><text class="lab lft" transform="translate(-3 -7)">23</text></g><path class="edge" d="M 0 0 V -43.2721 H 66.125"/><circle class="sym" cx="0" cy="0" r="3"/><text class="lab lft" transform="translate(-3 -7)">24</text></g><path class="edge" d="M 0 0 V -89.4779 H 153.094"/><g class="mut m1 s1" transform="translate(0 -43.3175)"><line x1="0" x2="0" y1="0" y2="43.3175"/><path class="sym" d="M -3,-3 l 6,6 M -3,3 l 6,-6"/><text class="lab lft" transform="translate(-5 0)">1</text></g><circle class="sym" cx="0" cy="0" r="3"/><text class="lab lft" transform="translate(-3 -7)">33</text></g><g class="a37 c2 node n35 p2" transform="translate(153.094 75.3846)"><g class="a35 c2 node n32 p2" transform="translate(58.9375 23.0881)"><g class="a32 i12 leaf node n12 p2 sample" transform="translate(-23 50.5631)"><path class="edge" d="M 0 0 V -50.5631 H 23"/><rect class="sym" height="6" width="6" x="-3" y="-3"/><text class="lab" transform="translate(0 11)">12</text></g><g class="a32 i16 leaf node n16 p2 sample" transform="translate(23 50.5631)"><path class="edge" d="M 0 0 V -50.5631 H -23"/><rect class="sym" height="6" width="6" x="-3" y="-3"/><text class="lab" transform="translate(0 11)">16</text></g><path class="edge" d="M 0 0 V -23.0881 H -58.9375"/><circle class="sym" cx="0" cy="0" r="3"/><text class="lab rgt" transform="translate(3 -7)">32</text></g><g class="a35 c2 node n34 p2" transform="translate(-58.9375 1.30981)"><g class="a34 i6 leaf m0 node n6 p1 s0 sample" transform="translate(48.875 72.3414)"><path class="edge" d="M 0 0 V -72.3414 H -48.875"/><g class="mut m0 s0" transform="translate(0 -55.6684)"><line x1="0" x2="0" y1="0" y2="55.6684"/><path class="sym" d="M -3,-3 l 6,6 M -3,3 l 6,-6"/><text class="lab rgt" transform="translate(5 0)">0</text></g><rect class="sym" height="6" width="6" x="-3" y="-3"/><text class="lab" transform="translate(0 11)">6</text></g><g class="a34 c2 node n28 p2" transform="translate(-48.875 40.4613)"><g class="a28 i17 leaf node n17 p2 sample" transform="translate(51.75 31.8801)"><path class="edge" d="M 0 0 V -31.8801 H -51.75"/><rect class="sym" height="6" width="6" x="-3" y="-3"/><text class="lab" transform="translate(0 11)">17</text></g><g class="a28 c2 node n27 p2" transform="translate(-51.75 11.7957)"><g class="a27 i2 leaf node n2 p1 sample" transform="translate(-34.5 20.0844)"><path class="edge" d="M 0 0 V -20.0844 H 34.5"/><rect class="sym" height="6" width="6" x="-3" y="-3"/><text class="lab" transform="translate(0 11)">2</text></g><g class="a27 c2 node n26 p2" transform="translate(34.5 0.584141)"><g class="a26 i3 leaf node n3 p1 sample" transform="translate(-23 19.5002)"><path class="edge" d="M 0 0 V -19.5002 H 23"/><rect class="sym" height="6" width="6" x="-3" y="-3"/><text class="lab" transform="translate(0 11)">3</text></g><g class="a26 i10 leaf node n10 p2 sample" transform="translate(23 19.5002)"><path class="edge" d="M 0 0 V -19.5002 H -23"/><rect class="sym" height="6" width="6" x="-3" y="-3"/><text class="lab" transform="translate(0 11)">10</text></g><path class="edge" d="M 0 0 V -0.584141 H -34.5"/><circle class="sym" cx="0" cy="0" r="3"/><text class="lab rgt" transform="translate(3 -7)">26</text></g><path class="edge" d="M 0 0 V -11.7957 H 51.75"/><circle class="sym" cx="0" cy="0" r="3"/><text class="lab lft" transform="translate(-3 -7)">27</text></g><path class="edge" d="M 0 0 V -40.4613 H 48.875"/><circle class="sym" cx="0" cy="0" r="3"/><text class="lab lft" transform="translate(-3 -7)">28</text></g><path class="edge" d="M 0 0 V -1.30981 H 58.9375"/><circle class="sym" cx="0" cy="0" r="3"/><text class="lab lft" transform="translate(-3 -7)">34</text></g><path class="edge" d="M 0 0 V -75.3846 H -153.094"/><circle class="sym" cx="0" cy="0" r="3"/><text class="lab rgt" transform="translate(3 -7)">35</text></g><path class="edge" d="M 0 0 V -145.564 H 235.391"/><g class="mut m2 s2" transform="translate(0 -49.6748)"><line x1="0" x2="0" y1="0" y2="49.6748"/><path class="sym" d="M -3,-3 l 6,6 M -3,3 l 6,-6"/><text class="lab lft" transform="translate(-5 0)">2</text></g><circle class="sym" cx="0" cy="0" r="3"/><text class="lab lft" transform="translate(-3 -7)">37</text></g><circle class="sym" cx="0" cy="0" r="3"/><text class="lab" transform="translate(0 -11)">38</text></g></g></g></g></g></svg>