<svg baseProfile="full" height="400" version="1.1" width="1000" xmlns="http://www.w3.org/2000/svg" xmlns:ev="http://www.w3.org/2001/xml-events" xmlns:xlink="http://www.w3.org/1999/xlink"><defs><style type="text/css"><![CDATA[.background path {fill: #808080; fill-opacity: 0}.background path:nth-child(odd) {fill-opacity: .1}.x-regions rect {fill: yellow; stroke: black; opacity: 0.5}.axes {font-size: 14px}.x-axis .tick .lab {font-weight: bold; dominant-baseline: hanging}.axes, .tree {font-size: 14px; text-anchor: middle}.axes line, .edge {stroke: black; fill: none}.axes .ax-skip {stroke-dasharray: 4}.y-axis .grid {stroke: #FAFAFA}.node > .sym {fill: black; stroke: none}.site > .sym {stroke: black}.mut text {fill: red; font-style: italic}.mut.extra text {fill: hotpink}.mut line {fill: none; stroke: none}.mut .sym {fill: none; stroke: red}.mut.extra .sym {stroke: hotpink}.node .mut .sym {stroke-width: 1.5px}.tree text, .tree-sequence text {dominant-baseline: central}.plotbox .lab.lft {text-anchor: end}.plotbox .lab.rgt {text-anchor: start}.polytomy line {stroke: black; stroke-dasharray: 1px, 1px}.polytomy text {paint-order:stroke;stroke-width:0.3em;stroke:white}]]></style></defs><g class="tree-sequence"><g class="background"><path d="M20,0 l960,0 l0,338.2 l0,25 l0,5 l-960,0 l0,-5 l0,-25 l0,-338.2z"/></g><g class="axes"><g class="x-axis"><g class="title" transform="translate(500 400)"><text class="lab" text-anchor="middle" transform="translate(0 -11)">Genome position</text></g><line class="ax-line" x1="20" x2="980" y1="363.2" y2="363.2"/><g class="ticks"><g class="tick" transform="translate(20 363.2)"><line x1="0" x2="0" y1="0" y2="5"/><g transform="translate(0 6)"><text class="lab">0</text></g></g><g class="tick" transform="translate(980 363.2)"><line x1="0" x2="0" y1="0" y2="5"/><g transform="translate(0 6)"><text class="lab">1000</text></g></g></g><g class="site s0" transform="translate(23.84 363.2)"><line class="sym" x1="0" x2="0" y1="0" y2="-10"/><g class="mut m0"><polyline class="sym" points="2.5,-6.5 0,-1.5 -2.5,-6.5"/></g></g><g class="site s1" transform="translate(382.88 363.2)"><line class="sym" x1="0" x2="0" y1="0" y2="-10"/><g class="mut m1"><polyline class="sym" points="2.5,-6.5 0,-1.5 -2.5,-6.5"/></g></g><g class="site s2" transform="translate(907.04 363.2)"><line class="sym" x1="0" x2="0" y1="0" y2="-10"/><g class="mut m2"><polyline class="sym" points="2.5,-6.5 0,-1.5 -2.5,-6.5"/></g></g></g></g><g class="plotbox trees"><g class="tree t0" transform="translate(20 0)"><g class="plotbox"><g class="c2 node n38 p0 root" transform="translate(554.211 26.8)"><g class="a38 c2 node n35 p0" transform="translate(276.898 182.838)"><g class="a35 i8 leaf node n8 p1 sample" transform="translate(85.8906 111.762)"><path class="edge" d="M 0 0 V -111.762 H -85.8906"/><rect class="sym" height="6" width="6" x="-3" y="-3"/><text class="lab" transform="translate(0 11)">8</text></g><g class="a35 c2 node n33 p1" transform="translate(-85.8906 57.845)"><g class="a33 c2 node n25 p1" transform="translate(102.781 46.3186)"><g class="a25 i11 leaf node n11 p2 sample" transform="translate(-23 7.59804)"><path class="edge" d="M 0 0 V -7.59804 H 23"/><rect class="sym" height="6" width="6" x="-3" y="-3"/><text class="lab" transform="translate(0 11)">11</text></g><g class="a25 i18 leaf m2 node n18 p2 s2 sample" transform="translate(23 7.59804)"><path class="edge" d="M 0 0 V -7.59804 H -23"/><g class="mut m2 s2" transform="translate(0 -4.88507)"><line x1="0" x2="0" y1="0" y2="4.88507"/><path class="sym" d="M -3,-3 l 6,6 M -3,3 l 6,-6"/><text class="lab rgt" transform="translate(5 0)">2</text></g><rect class="sym" height="6" width="6" x="-3" y="-3"/><text class="lab" transform="translate(0 11)">18</text></g><path class="edge" d="M 0 0 V -46.3186 H -102.781"/><circle class="sym" cx="0" cy="0" r="3"/><text class="lab rgt" transform="translate(3 -7)">25</text></g><g class="a33 c2 node n32 p1" transform="translate(-102.781 8.02385)"><g class="a32 i1 leaf node n1 p1 sample" transform="translate(-93.4375 45.8928)"><path class="edge" d="M 0 0 V -45.8928 H 93.4375"/><rect class="sym" height="6" width="6" x="-3" y="-3"/><text class="lab" transform="translate(0 11)">1</text></g><g class="a32 c2 node n31 p2" transform="translate(93.4375 9.98509)"><g class="a31 i17 leaf node n17 p2 sample" transform="translate(43.125 35.9077)"><path class="edge" d="M 0 0 V -35.9077 H -43.125"/><rect class="sym" height="6" width="6" x="-3" y="-3"/><text class="lab" transform="translate(0 11)">17</text></g><g class="a31 c2 node n27 p2" transform="translate(-43.125 22.9218)"><g class="a27 i9 leaf node n9 p1 sample" transform="translate(40.25 12.9859)"><path class="edge" d="M 0 0 V -12.9859 H -40.25"/><rect class="sym" height="6" width="6" x="-3" y="-3"/><text class="lab" transform="translate(0 11)">9</text></g><g class="a27 c2 node n24 p2" transform="translate(-40.25 6.60114)"><g class="a24 i13 leaf node n13 p2 sample" transform="translate(34.5 6.3848)"><path class="edge" d="M 0 0 V -6.3848 H -34.5"/><rect class="sym" height="6" width="6" x="-3" y="-3"/><text class="lab" transform="translate(0 11)">13</text></g><g class="a24 c2 node n21 p2" transform="translate(-34.5 3.8563)"><g class="a21 i2 leaf node n2 p1 sample" transform="translate(-23 2.52851)"><path class="edge" d="M 0 0 V -2.52851 H 23"/><rect class="sym" height="6" width="6" x="-3" y="-3"/><text class="lab" transform="translate(0 11)">2</text></g><g class="a21 i15 leaf node n15 p2 sample" transform="translate(23 2.52851)"><path class="edge" d="M 0 0 V -2.52851 H -23"/><rect class="sym" height="6" width="6" x="-3" y="-3"/><text class="lab" transform="translate(0 11)">15</text></g><path class="edge" d="M 0 0 V -3.8563 H 34.5"/><circle class="sym" cx="0" cy="0" r="3"/><text class="lab lft" transform="translate(-3 -7)">21</text></g><path class="edge" d="M 0 0 V -6.60114 H 40.25"/><circle class="sym" cx="0" cy="0" r="3"/><text class="lab lft" transform="translate(-3 -7)">24</text></g><path class="edge" d="M 0 0 V -22.9218 H 43.125"/><circle class="sym" cx="0" cy="0" r="3"/><text class="lab lft" transform="translate(-3 -7)">27</text></g><path class="edge" d="M 0 0 V -9.98509 H -93.4375"/><circle class="sym" cx="0" cy="0" r="3"/><text class="lab rgt" transform="translate(3 -7)">31</text></g><path class="edge" d="M 0 0 V -8.02385 H 102.781"/><circle class="sym" cx="0" cy="0" r="3"/><text class="lab lft" transform="translate(-3 -7)">32</text></g><path class="edge" d="M 0 0 V -57.845 H 85.8906"/><circle class="sym" cx="0" cy="0" r="3"/><text class="lab lft" transform="translate(-3 -7)">33</text></g><path class="edge" d="M 0 0 V -182.838 H -276.898"/><circle class="sym" cx="0" cy="0" r="3"/><text class="lab rgt" transform="translate(3 -7)">35</text></g><g class="a38 c2 m1 node n37 p0 s1" transform="translate(-276.898 158.396)"><g class="a37 c2 node n29 p2" transform="translate(-148.062 114.514)"><g class="a29 c2 node n26 p1" transform="translate(63.25 9.13961)"><g class="a26 i19 leaf node n19 p2 sample" transform="translate(34.5 12.551)"><path class="edge" d="M 0 0 V -12.551 H -34.5"/><rect class="sym" height="6" width="6" x="-3" y="-3"/><text class="lab" transform="translate(0 11)">19</text></g><g class="a26 c2 node n20 p2" transform="translate(-34.5 11.9884)"><g class="a20 i3 leaf node n3 p1 sample" transform="translate(-23 0.562541)"><path class="edge" d="M 0 0 V -0.562541 H 23"/><rect class="sym" height="6" width="6" x="-3" y="-3"/><text class="lab" transform="translate(0 11)">3</text></g><g class="a20 i12 leaf node n12 p2 sample" transform="translate(23 0.562541)"><path class="edge" d="M 0 0 V -0.562541 H -23"/><rect class="sym" height="6" width="6" x="-3" y="-3"/><text class="lab" transform="translate(0 11)">12</text></g><path class="edge" d="M 0 0 V -11.9884 H 34.5"/><circle class="sym" cx="0" cy="0" r="3"/><text class="lab lft" transform="translate(-3 -7)">20</text></g><path class="edge" d="M 0 0 V -9.13961 H -63.25"/><circle class="sym" cx="0" cy="0" r="3"/><text class="lab rgt" transform="translate(3 -7)">26</text></g><g class="a29 c2 node n28 p2" transform="translate(-63.25 6.89619)"><g class="a28 i0 leaf node n0 p1 sample" transform="translate(-23 14.7944)"><path class="edge" d="M 0 0 V -14.7944 H 23"/><rect class="sym" height="6" width="6" x="-3" y="-3"/><text class="lab" transform="translate(0 11)">0</text></g><g class="a28 i10 leaf node n10 p2 sample" transform="translate(23 14.7944)"><path class="edge" d="M 0 0 V -14.7944 H -23"/><rect class="sym" height="6" width="6" x="-3" y="-3"/><text class="lab" transform="translate(0 11)">10</text></g><path class="edge" d="M 0 0 V -6.89619 H 63.25"/><circle class="sym" cx="0" cy="0" r="3"/><text class="lab lft" transform="translate(-3 -7)">28</text></g><path class="edge" d="M 0 0 V -114.514 H 148.062"/><circle class="sym" cx="0" cy="0" r="3"/><text class="lab lft" transform="translate(-3 -7)">29</text></g><g class="a37 c2 node n36 p0" transform="translate(148.062 15.8637)"><g class="a36 i14 leaf node n14 p2 sample" transform="translate(77.625 120.341)"><path class="edge" d="M 0 0 V -120.341 H -77.625"/><rect class="sym" height="6" width="6" x="-3" y="-3"/><text class="lab" transform="translate(0 11)">14</text></g><g class="a36 c2 node n34 p0" transform="translate(-77.625 9.23522)"><g class="a34 c2 node n23 p1" transform="translate(-51.75 105.955)"><g class="a23 i4 leaf node n4 p1 sample" transform="translate(-23 5.1505)"><path class="edge" d="M 0 0 V -5.1505 H 23"/><rect class="sym" height="6" width="6" x="-3" y="-3"/><text class="lab" transform="translate(0 11)">4</text></g><g class="a23 i6 leaf node n6 p1 sample" transform="translate(23 5.1505)"><path class="edge" d="M 0 0 V -5.1505 H -23"/><rect class="sym" height="6" width="6" x="-3" y="-3"/><text class="lab" transform="translate(0 11)">6</text></g><path class="edge" d="M 0 0 V -105.955 H 51.75"/><circle class="sym" cx="0" cy="0" r="3"/><text class="lab lft" transform="translate(-3 -7)">23</text></g><g class="a34 c2 m0 node n30 p2 s0" transform="translate(51.75 88.3057)"><g class="a30 i5 leaf node n5 p1 sample" transform="translate(-34.5 22.7997)"><path class="edge" d="M 0 0 V -22.7997 H 34.5"/><rect class="sym" height="6" width="6" x="-3" y="-3"/><text class="lab" transform="translate(0 11)">5</text></g><g class="a30 c2 node n22 p1" transform="translate(34.5 19.0189)"><g class="a22 i7 leaf node n7 p1 sample" transform="translate(-23 3.78076)"><path class="edge" d="M 0 0 V -3.78076 H 23"/><rect class="sym" height="6" width="6" x="-3" y="-3"/><text class="lab" transform="translate(0 11)">7</text></g><g class="a22 i16 leaf node n16 p2 sample" transform="translate(23 3.78076)"><path class="edge" d="M 0 0 V -3.78076 H -23"/><rect class="sym" height="6" width="6" x="-3" y="-3"/><text class="lab" transform="translate(0 11)">16</text></g><path class="edge" d="M 0 0 V -19.0189 H -34.5"/><circle class="sym" cx="0" cy="0" r="3"/><text class="lab rgt" transform="translate(3 -7)">22</text></g><path class="edge" d="M 0 0 V -88.3057 H -51.75"/><g class="mut m0 s0" transform="translate(0 -50.2322)"><line x1="0" x2="0" y1="0" y2="50.2322"/><path class="sym" d="M -3,-3 l 6,6 M -3,3 l 6,-6"/><text class="lab rgt" transform="translate(5 0)">0</text></g><circle class="sym" cx="0" cy="0" r="3"/><text class="lab rgt" transform="translate(3 -7)">30</text></g><path class="edge" d="M 0 0 V -9.23522 H 77.625"/><circle class="sym" cx="0" cy="0" r="3"/><text class="lab lft" transform="translate(-3 -7)">34</text></g><path class="edge" d="M 0 0 V -15.8637 H -148.062"/><circle class="sym" cx="0" cy="0" r="3"/><text class="lab rgt" transform="translate(3 -7)">36</text></g><path class="edge" d="M 0 0 V -158.396 H 276.898"/><g class="mut m1 s1" transform="translate(0 -36.104)"><line x1="0" x2="0" y1="0" y2="36.104"/><path class="sym" d="M -3,-3 l 6,6 M -3,3 l 6,-6"/><text class="lab lft" transform="translate(-5 0)">1</text></g><circle class="sym" cx="0" cy="0" r="3"/><text class="lab lft" transform="translate(-3 -7)">37</text></g><circle class="sym" cx="0" cy="0" r="3"/><text class="lab" transform="translate(0 -11)">38</text></g></g></g></g></g></svg>