<svg baseProfile="full" height="400" version="1.1" width="1000" xmlns="http://www.w3.org/2000/svg" xmlns:ev="http://www.w3.org/2001/xml-events" xmlns:xlink="http://www.w3.org/1999/xlink"><defs><style type="text/css"><![CDATA[.background path {fill: #808080; fill-opacity: 0}.background path:nth-child(odd) {fill-opacity: .1}.x-regions rect {fill: yellow; stroke: black; opacity: 0.5}.axes {font-size: 14px}.x-axis .tick .lab {font-weight: bold; dominant-baseline: hanging}.axes, .tree {font-size: 14px; text-anchor: middle}.axes line, .edge {stroke: black; fill: none}.axes .ax-skip {stroke-dasharray: 4}.y-axis .grid {stroke: #FAFAFA}.node > .sym {fill: black; stroke: none}.site > .sym {stroke: black}.mut text {fill: red; font-style: italic}.mut.extra text {fill: hotpink}.mut line {fill: none; stroke: none}.mut .sym {fill: none; stroke: red}.mut.extra .sym {stroke: hotpink}.node .mut .sym {stroke-width: 1.5px}.tree text, .tree-sequence text {dominant-baseline: central}.plotbox .lab.lft {text-anchor: end}.plotbox .lab.rgt {text-anchor: start}.polytomy line {stroke: black; stroke-dasharray: 1px, 1px}.polytomy text {paint-order:stroke;stroke-width:0.3em;stroke:white}]]></style></defs><g class="tree-sequence"><g class="background"><path d="M20,0 l960,0 l0,338.2 l0,25 l0,5 l-960,0 l0,-5 l0,-25 l0,-338.2z"/></g><g class="axes"><g class="x-axis"><g class="title" transform="translate(500 400)"><text class="lab" text-anchor="middle" transform="translate(0 -11)">Genome position</text></g><line class="ax-line" x1="20" x2="980" y1="363.2" y2="363.2"/><g class="ticks"><g class="tick" transform="translate(20 363.2)"><line x1="0" x2="0" y1="0" y2="5"/><g transform="translate(0 6)"><text class="lab">0</text></g></g><g class="tick" transform="translate(980 363.2)"><line x1="0" x2="0" y1="0" y2="5"/><g transform="translate(0 6)"><text class="lab">1000</text></g></g></g><g class="site s0" transform="translate(175.52 363.2)"><line class="sym" x1="0" x2="0" y1="0" y2="-10"/><g class="mut m0"><polyline class="sym" points="2.5,-6.5 0,-1.5 -2.5,-6.5"/></g></g><g class="site s1" transform="translate(474.08 363.2)"><line class="sym" x1="0" x2="0" y1="0" y2="-10"/><g class="mut m1"><polyline class="sym" points="2.5,-6.5 0,-1.5 -2.5,-6.5"/></g></g><g class="site s2" transform="translate(566.24 363.2)"><line class="sym" x1="0" x2="0" y1="0" y2="-10"/><g class="mut m2"><polyline class="sym" points="2.5,-6.5 0,-1.5 -2.5,-6.5"/></g></g><g class="site s3" transform="translate(922.4 363.2)"><line class="sym" x1="0" x2="0" y1="0" y2="-10"/><g class="mut m3"><polyline class="sym" points="2.5,-6.5 0,-1.5 -2.5,-6.5"/></g></g></g></g><g class="plotbox trees"><g class="tree t0" transform="translate(20 0)"><g class="plotbox"><g class="c2 node n38 p0 root" transform="translate(549.719 26.8)"><g class="a38 c2 node n36 p0" transform="translate(292.531 125.332)"><g class="a36 c2 node n28 p1" transform="translate(51.75 124.959)"><g class="a28 i4 leaf node n4 p1 sample" transform="translate(-23 44.3089)"><path class="edge" d="M 0 0 V -44.3089 H 23"/><rect class="sym" height="6" width="6" x="-3" y="-3"/><text class="lab" transform="translate(0 11)">4</text></g><g class="a28 i9 leaf node n9 p1 sample" transform="translate(23 44.3089)"><path class="edge" d="M 0 0 V -44.3089 H -23"/><rect class="sym" height="6" width="6" x="-3" y="-3"/><text class="lab" transform="translate(0 11)">9</text></g><path class="edge" d="M 0 0 V -124.959 H -51.75"/><circle class="sym" cx="0" cy="0" r="3"/><text class="lab rgt" transform="translate(3 -7)">28</text></g><g class="a36 c2 node n33 p0" transform="translate(-51.75 41.366)"><g class="a33 i3 leaf node n3 p1 sample" transform="translate(34.5 127.902)"><path class="edge" d="M 0 0 V -127.902 H -34.5"/><rect class="sym" height="6" width="6" x="-3" y="-3"/><text class="lab" transform="translate(0 11)">3</text></g><g class="a33 c2 node n21 p1" transform="translate(-34.5 120.482)"><g class="a21 i2 leaf node n2 p1 sample" transform="translate(-23 7.41986)"><path class="edge" d="M 0 0 V -7.41986 H 23"/><rect class="sym" height="6" width="6" x="-3" y="-3"/><text class="lab" transform="translate(0 11)">2</text></g><g class="a21 i8 leaf node n8 p1 sample" transform="translate(23 7.41986)"><path class="edge" d="M 0 0 V -7.41986 H -23"/><rect class="sym" height="6" width="6" x="-3" y="-3"/><text class="lab" transform="translate(0 11)">8</text></g><path class="edge" d="M 0 0 V -120.482 H 34.5"/><circle class="sym" cx="0" cy="0" r="3"/><text class="lab lft" transform="translate(-3 -7)">21</text></g><path class="edge" d="M 0 0 V -41.366 H 51.75"/><circle class="sym" cx="0" cy="0" r="3"/><text class="lab lft" transform="translate(-3 -7)">33</text></g><path class="edge" d="M 0 0 V -125.332 H -292.531"/><circle class="sym" cx="0" cy="0" r="3"/><text class="lab rgt" transform="translate(3 -7)">36</text></g><g class="a38 c2 node n37 p0" transform="translate(-292.531 84.8956)"><g class="a37 c2 m0 node n29 p1 s0" transform="translate(-145.188 163.017)"><g class="a29 c2 node n22 p1" transform="translate(-46 33.4517)"><g class="a22 i0 leaf node n0 p1 sample" transform="translate(-23 13.2361)"><path class="edge" d="M 0 0 V -13.2361 H 23"/><rect class="sym" height="6" width="6" x="-3" y="-3"/><text class="lab" transform="translate(0 11)">0</text></g><g class="a22 i7 leaf node n7 p1 sample" transform="translate(23 13.2361)"><path class="edge" d="M 0 0 V -13.2361 H -23"/><rect class="sym" height="6" width="6" x="-3" y="-3"/><text class="lab" transform="translate(0 11)">7</text></g><path class="edge" d="M 0 0 V -33.4517 H 46"/><circle class="sym" cx="0" cy="0" r="3"/><text class="lab lft" transform="translate(-3 -7)">22</text></g><g class="a29 c2 node n26 p1" transform="translate(46 11.7115)"><g class="a26 i5 leaf node n5 p1 sample" transform="translate(-23 34.9763)"><path class="edge" d="M 0 0 V -34.9763 H 23"/><rect class="sym" height="6" width="6" x="-3" y="-3"/><text class="lab" transform="translate(0 11)">5</text></g><g class="a26 i6 leaf m1 node n6 p1 s1 sample" transform="translate(23 34.9763)"><path class="edge" d="M 0 0 V -34.9763 H -23"/><g class="mut m1 s1" transform="translate(0 -27.7823)"><line x1="0" x2="0" y1="0" y2="27.7823"/><path class="sym" d="M -3,-3 l 6,6 M -3,3 l 6,-6"/><text class="lab rgt" transform="translate(5 0)">1</text></g><rect class="sym" height="6" width="6" x="-3" y="-3"/><text class="lab" transform="translate(0 11)">6</text></g><path class="edge" d="M 0 0 V -11.7115 H -46"/><circle class="sym" cx="0" cy="0" r="3"/><text class="lab rgt" transform="translate(3 -7)">26</text></g><path class="edge" d="M 0 0 V -163.017 H 145.188"/><g class="mut m0 s0" transform="translate(0 -61.1634)"><line x1="0" x2="0" y1="0" y2="61.1634"/><path class="sym" d="M -3,-3 l 6,6 M -3,3 l 6,-6"/><text class="lab lft" transform="translate(-5 0)">0</text></g><circle class="sym" cx="0" cy="0" r="3"/><text class="lab lft" transform="translate(-3 -7)">29</text></g><g class="a37 c2 node n35 p0" transform="translate(145.188 42.9389)"><g class="a35 i1 leaf node n1 p1 sample" transform="translate(-175.375 166.765)"><path class="edge" d="M 0 0 V -166.765 H 175.375"/><rect class="sym" height="6" width="6" x="-3" y="-3"/><text class="lab" transform="translate(0 11)">1</text></g><g class="a35 c2 node n34 p0" transform="translate(175.375 38.1588)"><g class="a34 c2 m2 m3 node n24 p2 s2 s3" transform="translate(86.25 104.083)"><g class="a24 i11 leaf node n11 p2 sample" transform="translate(-23 24.5239)"><path class="edge" d="M 0 0 V -24.5239 H 23"/><rect class="sym" height="6" width="6" x="-3" y="-3"/><text class="lab" transform="translate(0 11)">11</text></g><g class="a24 i15 leaf node n15 p2 sample" transform="translate(23 24.5239)"><path class="edge" d="M 0 0 V -24.5239 H -23"/><rect class="sym" height="6" width="6" x="-3" y="-3"/><text class="lab" transform="translate(0 11)">15</text></g><path class="edge" d="M 0 0 V -104.083 H -86.25"/><g class="mut m3 s3" transform="translate(0 -76.1149)"><line x1="0" x2="0" y1="0" y2="76.1149"/><path class="sym" d="M -3,-3 l 6,6 M -3,3 l 6,-6"/><text class="lab rgt" transform="translate(5 0)">3</text></g><g class="mut m2 s2" transform="translate(0 -44.9158)"><line x1="0" x2="0" y1="0" y2="44.9158"/><path class="sym" d="M -3,-3 l 6,6 M -3,3 l 6,-6"/><text class="lab rgt" transform="translate(5 0)">2</text></g><circle class="sym" cx="0" cy="0" r="3"/><text class="lab rgt" transform="translate(3 -7)">24</text></g><g class="a34 c2 node n32 p0" transform="translate(-86.25 15.9798)"><g class="a32 c2 node n30 p2" transform="translate(-80.5 63.2873)"><g class="a30 c2 node n23 p2" transform="translate(69 30.056)"><g class="a23 i12 leaf node n12 p2 sample" transform="translate(-23 19.2836)"><path class="edge" d="M 0 0 V -19.2836 H 23"/><rect class="sym" height="6" width="6" x="-3" y="-3"/><text class="lab" transform="translate(0 11)">12</text></g><g class="a23 i19 leaf node n19 p2 sample" transform="translate(23 19.2836)"><path class="edge" d="M 0 0 V -19.2836 H -23"/><rect class="sym" height="6" width="6" x="-3" y="-3"/><text class="lab" transform="translate(0 11)">19</text></g><path class="edge" d="M 0 0 V -30.056 H -69"/><circle class="sym" cx="0" cy="0" r="3"/><text class="lab rgt" transform="translate(3 -7)">23</text></g><g class="a30 c2 node n27 p2" transform="translate(-69 9.8762)"><g class="a27 c2 node n20 p2" transform="translate(-46 35.4191)"><g class="a20 i10 leaf node n10 p2 sample" transform="translate(-23 4.0443)"><path class="edge" d="M 0 0 V -4.0443 H 23"/><rect class="sym" height="6" width="6" x="-3" y="-3"/><text class="lab" transform="translate(0 11)">10</text></g><g class="a20 i14 leaf node n14 p2 sample" transform="translate(23 4.0443)"><path class="edge" d="M 0 0 V -4.0443 H -23"/><rect class="sym" height="6" width="6" x="-3" y="-3"/><text class="lab" transform="translate(0 11)">14</text></g><path class="edge" d="M 0 0 V -35.4191 H 46"/><circle class="sym" cx="0" cy="0" r="3"/><text class="lab lft" transform="translate(-3 -7)">20</text></g><g class="a27 c2 node n25 p2" transform="translate(46 12.4663)"><g class="a25 i16 leaf node n16 p2 sample" transform="translate(-23 26.9971)"><path class="edge" d="M 0 0 V -26.9971 H 23"/><rect class="sym" height="6" width="6" x="-3" y="-3"/><text class="lab" transform="translate(0 11)">16</text></g><g class="a25 i17 leaf node n17 p2 sample" transform="translate(23 26.9971)"><path class="edge" d="M 0 0 V -26.9971 H -23"/><rect class="sym" height="6" width="6" x="-3" y="-3"/><text class="lab" transform="translate(0 11)">17</text></g><path class="edge" d="M 0 0 V -12.4663 H -46"/><circle class="sym" cx="0" cy="0" r="3"/><text class="lab rgt" transform="translate(3 -7)">25</text></g><path class="edge" d="M 0 0 V -9.8762 H 69"/><circle class="sym" cx="0" cy="0" r="3"/><text class="lab lft" transform="translate(-3 -7)">27</text></g><path class="edge" d="M 0 0 V -63.2873 H 80.5"/><circle class="sym" cx="0" cy="0" r="3"/><text class="lab lft" transform="translate(-3 -7)">30</text></g><g class="a32 c2 node n31 p2" transform="translate(80.5 52.4254)"><g class="a31 i13 leaf node n13 p2 sample" transform="translate(-23 60.2015)"><path class="edge" d="M 0 0 V -60.2015 H 23"/><rect class="sym" height="6" width="6" x="-3" y="-3"/><text class="lab" transform="translate(0 11)">13</text></g><g class="a31 i18 leaf node n18 p2 sample" transform="translate(23 60.2015)"><path class="edge" d="M 0 0 V -60.2015 H -23"/><rect class="sym" height="6" width="6" x="-3" y="-3"/><text class="lab" transform="translate(0 11)">18</text></g><path class="edge" d="M 0 0 V -52.4254 H -80.5"/><circle class="sym" cx="0" cy="0" r="3"/><text class="lab rgt" transform="translate(3 -7)">31</text></g><path class="edge" d="M 0 0 V -15.9798 H 86.25"/><circle class="sym" cx="0" cy="0" r="3"/><text class="lab lft" transform="translate(-3 -7)">32</text></g><path class="edge" d="M 0 0 V -38.1588 H -175.375"/><circle class="sym" cx="0" cy="0" r="3"/><text class="lab rgt" transform="translate(3 -7)">34</text></g><path class="edge" d="M 0 0 V -42.9389 H -145.188"/><circle class="sym" cx="0" cy="0" r="3"/><text class="lab rgt" transform="translate(3 -7)">35</text></g><path class="edge" d="M 0 0 V -84.8956 H 292.531"/><circle class="sym" cx="0" cy="0" r="3"/><text class="lab lft" transform="translate(-3 -7)">37</text></g><circle class="sym" cx="0" cy="0" r="3"/><text class="lab" transform="translate(0 -11)">38</text></g></g></g></g></g></svg>