<svg baseProfile="full" height="400" version="1.1" width="1000" xmlns="http://www.w3.org/2000/svg" xmlns:ev="http://www.w3.org/2001/xml-events" xmlns:xlink="http://www.w3.org/1999/xlink"><defs><style type="text/css"><![CDATA[.background path {fill: #808080; fill-opacity: 0}.background path:nth-child(odd) {fill-opacity: .1}.x-regions rect {fill: yellow; stroke: black; opacity: 0.5}.axes {font-size: 14px}.x-axis .tick .lab {font-weight: bold; dominant-baseline: hanging}.axes, .tree {font-size: 14px; text-anchor: middle}.axes line, .edge {stroke: black; fill: none}.axes .ax-skip {stroke-dasharray: 4}.y-axis .grid {stroke: #FAFAFA}.node > .sym {fill: black; stroke: none}.site > .sym {stroke: black}.mut text {fill: red; font-style: italic}.mut.extra text {fill: hotpink}.mut line {fill: none; stroke: none}.mut .sym {fill: none; stroke: red}.mut.extra .sym {stroke: hotpink}.node .mut .sym {stroke-width: 1.5px}.tree text, .tree-sequence text {dominant-baseline: central}.plotbox .lab.lft {text-anchor: end}.plotbox .lab.rgt {text-anchor: start}.polytomy line {stroke: black; stroke-dasharray: 1px, 1px}.polytomy text {paint-order:stroke;stroke-width:0.3em;stroke:white}]]></style></defs><g class="tree-sequence"><g class="background"><path d="M20,0 l960,0 l0,338.2 l0,25 l0,5 l-960,0 l0,-5 l0,-25 l0,-338.2z"/></g><g class="axes"><g class="x-axis"><g class="title" transform="translate(500 400)"><text class="lab" text-anchor="middle" transform="translate(0 -11)">Genome position</text></g><line class="ax-line" x1="20" x2="980" y1="363.2" y2="363.2"/><g class="ticks"><g class="tick" transform="translate(20 363.2)"><line x1="0" x2="0" y1="0" y2="5"/><g transform="translate(0 6)"><text class="lab">0</text></g></g><g class="tick" transform="translate(980 363.2)"><line x1="0" x2="0" y1="0" y2="5"/><g transform="translate(0 6)"><text class="lab">1000</text></g></g></g><g class="site s0" transform="translate(900.32 363.2)"><line class="sym" x1="0" x2="0" y1="0" y2="-10"/><g class="mut m0"><polyline class="sym" points="2.5,-6.5 0,-1.5 -2.5,-6.5"/></g></g></g></g><g class="plotbox trees"><g class="tree t0" transform="translate(20 0)"><g class="plotbox"><g class="c2 node n38 p2 root" transform="translate(716.379 26.8)"><g class="a38 c2 m0 node n30 p1 s0" transform="translate(114.371 281.949)"><g class="a30 i4 leaf node n4 p1 sample" transform="translate(-51.75 12.6513)"><path class="edge" d="M 0 0 V -12.6513 H 51.75"/><rect class="sym" height="6" width="6" x="-3" y="-3"/><text class="lab" transform="translate(0 11)">4</text></g><g class="a30 c2 node n24 p1" transform="translate(51.75 9.15111)"><g class="a24 i19 leaf node n19 p2 sample" transform="translate(34.5 3.50015)"><path class="edge" d="M 0 0 V -3.50015 H -34.5"/><rect class="sym" height="6" width="6" x="-3" y="-3"/><text class="lab" transform="translate(0 11)">19</text></g><g class="a24 c2 node n23 p1" transform="translate(-34.5 0.0054689)"><g class="a23 i7 leaf node n7 p1 sample" transform="translate(-23 3.49468)"><path class="edge" d="M 0 0 V -3.49468 H 23"/><rect class="sym" height="6" width="6" x="-3" y="-3"/><text class="lab" transform="translate(0 11)">7</text></g><g class="a23 i11 leaf node n11 p2 sample" transform="translate(23 3.49468)"><path class="edge" d="M 0 0 V -3.49468 H -23"/><rect class="sym" height="6" width="6" x="-3" y="-3"/><text class="lab" transform="translate(0 11)">11</text></g><path class="edge" d="M 0 0 V -0.0054689 H 34.5"/><circle class="sym" cx="0" cy="0" r="3"/><text class="lab lft" transform="translate(-3 -7)">23</text></g><path class="edge" d="M 0 0 V -9.15111 H -51.75"/><circle class="sym" cx="0" cy="0" r="3"/><text class="lab rgt" transform="translate(3 -7)">24</text></g><path class="edge" d="M 0 0 V -281.949 H -114.371"/><g class="mut m0 s0" transform="translate(0 -277.136)"><line x1="0" x2="0" y1="0" y2="277.136"/><path class="sym" d="M -3,-3 l 6,6 M -3,3 l 6,-6"/><text class="lab rgt" transform="translate(5 0)">0</text></g><circle class="sym" cx="0" cy="0" r="3"/><text class="lab rgt" transform="translate(3 -7)">30</text></g><g class="a38 c2 node n37 p2" transform="translate(-114.371 194.274)"><g class="a37 c2 node n33 p1" transform="translate(107.992 60.2024)"><g class="a33 i3 leaf node n3 p1 sample" transform="translate(-23 40.1236)"><path class="edge" d="M 0 0 V -40.1236 H 23"/><rect class="sym" height="6" width="6" x="-3" y="-3"/><text class="lab" transform="translate(0 11)">3</text></g><g class="a33 i15 leaf node n15 p2 sample" transform="translate(23 40.1236)"><path class="edge" d="M 0 0 V -40.1236 H -23"/><rect class="sym" height="6" width="6" x="-3" y="-3"/><text class="lab" transform="translate(0 11)">15</text></g><path class="edge" d="M 0 0 V -60.2024 H -107.992"/><circle class="sym" cx="0" cy="0" r="3"/><text class="lab rgt" transform="translate(3 -7)">33</text></g><g class="a37 c2 node n36 p1" transform="translate(-107.992 48.6652)"><g class="a36 i8 leaf node n8 p1 sample" transform="translate(146.984 51.6608)"><path class="edge" d="M 0 0 V -51.6608 H -146.984"/><rect class="sym" height="6" width="6" x="-3" y="-3"/><text class="lab" transform="translate(0 11)">8</text></g><g class="a36 c2 node n35 p2" transform="translate(-146.984 0.340528)"><g class="a35 c2 node n29 p1" transform="translate(138.719 43.752)"><g class="a29 c2 node n26 p2" transform="translate(-51.75 2.18858)"><g class="a26 i6 leaf node n6 p1 sample" transform="translate(-23 5.37961)"><path class="edge" d="M 0 0 V -5.37961 H 23"/><rect class="sym" height="6" width="6" x="-3" y="-3"/><text class="lab" transform="translate(0 11)">6</text></g><g class="a26 i18 leaf node n18 p2 sample" transform="translate(23 5.37961)"><path class="edge" d="M 0 0 V -5.37961 H -23"/><rect class="sym" height="6" width="6" x="-3" y="-3"/><text class="lab" transform="translate(0 11)">18</text></g><path class="edge" d="M 0 0 V -2.18858 H 51.75"/><circle class="sym" cx="0" cy="0" r="3"/><text class="lab lft" transform="translate(-3 -7)">26</text></g><g class="a29 c2 node n28 p1" transform="translate(51.75 1.09529)"><g class="a28 i9 leaf node n9 p1 sample" transform="translate(-34.5 6.47291)"><path class="edge" d="M 0 0 V -6.47291 H 34.5"/><rect class="sym" height="6" width="6" x="-3" y="-3"/><text class="lab" transform="translate(0 11)">9</text></g><g class="a28 c2 node n25 p1" transform="translate(34.5 1.13833)"><g class="a25 i10 leaf node n10 p2 sample" transform="translate(-23 5.33458)"><path class="edge" d="M 0 0 V -5.33458 H 23"/><rect class="sym" height="6" width="6" x="-3" y="-3"/><text class="lab" transform="translate(0 11)">10</text></g><g class="a25 i14 leaf node n14 p2 sample" transform="translate(23 5.33458)"><path class="edge" d="M 0 0 V -5.33458 H -23"/><rect class="sym" height="6" width="6" x="-3" y="-3"/><text class="lab" transform="translate(0 11)">14</text></g><path class="edge" d="M 0 0 V -1.13833 H -34.5"/><circle class="sym" cx="0" cy="0" r="3"/><text class="lab rgt" transform="translate(3 -7)">25</text></g><path class="edge" d="M 0 0 V -1.09529 H -51.75"/><circle class="sym" cx="0" cy="0" r="3"/><text class="lab rgt" transform="translate(3 -7)">28</text></g><path class="edge" d="M 0 0 V -43.752 H -138.719"/><circle class="sym" cx="0" cy="0" r="3"/><text class="lab rgt" transform="translate(3 -7)">29</text></g><g class="a35 c2 node n34 p1" transform="translate(-138.719 7.46109)"><g class="a34 c2 node n31 p1" transform="translate(-107.812 22.2434)"><g class="a31 i13 leaf node n13 p2 sample" transform="translate(34.5 21.6157)"><path class="edge" d="M 0 0 V -21.6157 H -34.5"/><rect class="sym" height="6" width="6" x="-3" y="-3"/><text class="lab" transform="translate(0 11)">13</text></g><g class="a31 c2 node n20 p1" transform="translate(-34.5 21.2972)"><g class="a20 i0 leaf node n0 p1 sample" transform="translate(-23 0.318498)"><path class="edge" d="M 0 0 V -0.318498 H 23"/><rect class="sym" height="6" width="6" x="-3" y="-3"/><text class="lab" transform="translate(0 11)">0</text></g><g class="a20 i17 leaf node n17 p2 sample" transform="translate(23 0.318498)"><path class="edge" d="M 0 0 V -0.318498 H -23"/><rect class="sym" height="6" width="6" x="-3" y="-3"/><text class="lab" transform="translate(0 11)">17</text></g><path class="edge" d="M 0 0 V -21.2972 H 34.5"/><circle class="sym" cx="0" cy="0" r="3"/><text class="lab lft" transform="translate(-3 -7)">20</text></g><path class="edge" d="M 0 0 V -22.2434 H 107.812"/><circle class="sym" cx="0" cy="0" r="3"/><text class="lab lft" transform="translate(-3 -7)">31</text></g><g class="a34 c2 node n32 p2" transform="translate(107.812 20.1149)"><g class="a32 i5 leaf node n5 p1 sample" transform="translate(48.875 23.7442)"><path class="edge" d="M 0 0 V -23.7442 H -48.875"/><rect class="sym" height="6" width="6" x="-3" y="-3"/><text class="lab" transform="translate(0 11)">5</text></g><g class="a32 c2 node n27 p1" transform="translate(-48.875 17.9886)"><g class="a27 i2 leaf node n2 p1 sample" transform="translate(51.75 5.75565)"><path class="edge" d="M 0 0 V -5.75565 H -51.75"/><rect class="sym" height="6" width="6" x="-3" y="-3"/><text class="lab" transform="translate(0 11)">2</text></g><g class="a27 c2 node n22 p2" transform="translate(-51.75 2.43914)"><g class="a22 i1 leaf node n1 p1 sample" transform="translate(-34.5 3.31651)"><path class="edge" d="M 0 0 V -3.31651 H 34.5"/><rect class="sym" height="6" width="6" x="-3" y="-3"/><text class="lab" transform="translate(0 11)">1</text></g><g class="a22 c2 node n21 p2" transform="translate(34.5 1.73953)"><g class="a21 i12 leaf node n12 p2 sample" transform="translate(-23 1.57698)"><path class="edge" d="M 0 0 V -1.57698 H 23"/><rect class="sym" height="6" width="6" x="-3" y="-3"/><text class="lab" transform="translate(0 11)">12</text></g><g class="a21 i16 leaf node n16 p2 sample" transform="translate(23 1.57698)"><path class="edge" d="M 0 0 V -1.57698 H -23"/><rect class="sym" height="6" width="6" x="-3" y="-3"/><text class="lab" transform="translate(0 11)">16</text></g><path class="edge" d="M 0 0 V -1.73953 H -34.5"/><circle class="sym" cx="0" cy="0" r="3"/><text class="lab rgt" transform="translate(3 -7)">21</text></g><path class="edge" d="M 0 0 V -2.43914 H 51.75"/><circle class="sym" cx="0" cy="0" r="3"/><text class="lab lft" transform="translate(-3 -7)">22</text></g><path class="edge" d="M 0 0 V -17.9886 H 48.875"/><circle class="sym" cx="0" cy="0" r="3"/><text class="lab lft" transform="translate(-3 -7)">27</text></g><path class="edge" d="M 0 0 V -20.1149 H -107.812"/><circle class="sym" cx="0" cy="0" r="3"/><text class="lab rgt" transform="translate(3 -7)">32</text></g><path class="edge" d="M 0 0 V -7.46109 H 138.719"/><circle class="sym" cx="0" cy="0" r="3"/><text class="lab lft" transform="translate(-3 -7)">34</text></g><path class="edge" d="M 0 0 V -0.340528 H 146.984"/><circle class="sym" cx="0" cy="0" r="3"/><text class="lab lft" transform="translate(-3 -7)">35</text></g><path class="edge" d="M 0 0 V -48.6652 H 107.992"/><circle class="sym" cx="0" cy="0" r="3"/><text class="lab lft" transform="translate(-3 -7)">36</text></g><path class="edge" d="M 0 0 V -194.274 H 114.371"/><circle class="sym" cx="0" cy="0" r="3"/><text class="lab lft" transform="translate(-3 -7)">37</text></g><circle class="sym" cx="0" cy="0" r="3"/><text class="lab" transform="translate(0 -11)">38</text></g></g></g></g></g></svg>