<svg baseProfile="full" height="400" version="1.1" width="1000" xmlns="http://www.w3.org/2000/svg" xmlns:ev="http://www.w3.org/2001/xml-events" xmlns:xlink="http://www.w3.org/1999/xlink"><defs><style type="text/css"><![CDATA[.background path {fill: #808080; fill-opacity: 0}.background path:nth-child(odd) {fill-opacity: .1}.x-regions rect {fill: yellow; stroke: black; opacity: 0.5}.axes {font-size: 14px}.x-axis .tick .lab {font-weight: bold; dominant-baseline: hanging}.axes, .tree {font-size: 14px; text-anchor: middle}.axes line, .edge {stroke: black; fill: none}.axes .ax-skip {stroke-dasharray: 4}.y-axis .grid {stroke: #FAFAFA}.node > .sym {fill: black; stroke: none}.site > .sym {stroke: black}.mut text {fill: red; font-style: italic}.mut.extra text {fill: hotpink}.mut line {fill: none; stroke: none}.mut .sym {fill: none; stroke: red}.mut.extra .sym {stroke: hotpink}.node .mut .sym {stroke-width: 1.5px}.tree text, .tree-sequence text {dominant-baseline: central}.plotbox .lab.lft {text-anchor: end}.plotbox .lab.rgt {text-anchor: start}.polytomy line {stroke: black; stroke-dasharray: 1px, 1px}.polytomy text {paint-order:stroke;stroke-width:0.3em;stroke:white}]]></style></defs><g class="tree-sequence"><g class="background"><path d="M20,0 l960,0 l0,338.2 l0,25 l0,5 l-960,0 l0,-5 l0,-25 l0,-338.2z"/></g><g class="axes"><g class="x-axis"><g class="title" transform="translate(500 400)"><text class="lab" text-anchor="middle" transform="translate(0 -11)">Genome position</text></g><line class="ax-line" x1="20" x2="980" y1="363.2" y2="363.2"/><g class="ticks"><g class="tick" transform="translate(20 363.2)"><line x1="0" x2="0" y1="0" y2="5"/><g transform="translate(0 6)"><text class="lab">0</text></g></g><g class="tick" transform="translate(980 363.2)"><line x1="0" x2="0" y1="0" y2="5"/><g transform="translate(0 6)"><text class="lab">1000</text></g></g></g><g class="site s0" transform="translate(374.24 363.2)"><line class="sym" x1="0" x2="0" y1="0" y2="-10"/><g class="mut m0"><polyline class="sym" points="2.5,-6.5 0,-1.5 -2.5,-6.5"/></g></g><g class="site s1" transform="translate(841.76 363.2)"><line class="sym" x1="0" x2="0" y1="0" y2="-10"/><g class="mut m1"><polyline class="sym" points="2.5,-6.5 0,-1.5 -2.5,-6.5"/></g></g></g></g><g class="plotbox trees"><g class="tree t0" transform="translate(20 0)"><g class="plotbox"><g class="c2 node n38 p1 root" transform="translate(429.216 26.8)"><g class="a38 i0 leaf m0 node n0 p1 s0 sample" transform="translate(-386.216 294.6)"><path class="edge" d="M 0 0 V -294.6 H 386.216"/><g class="mut m0 s0" transform="translate(0 -125.326)"><line x1="0" x2="0" y1="0" y2="125.326"/><path class="sym" d="M -3,-3 l 6,6 M -3,3 l 6,-6"/><text class="lab lft" transform="translate(-5 0)">0</text></g><rect class="sym" height="6" width="6" x="-3" y="-3"/><text class="lab" transform="translate(0 11)">0</text></g><g class="a38 c2 node n37 p1" transform="translate(386.216 99.4091)"><g class="a37 i18 leaf node n18 p2 sample" transform="translate(101.568 195.191)"><path class="edge" d="M 0 0 V -195.191 H -101.568"/><rect class="sym" height="6" width="6" x="-3" y="-3"/><text class="lab" transform="translate(0 11)">18</text></g><g class="a37 c2 node n36 p1" transform="translate(-101.568 137.309)"><g class="a36 i4 leaf node n4 p1 sample" transform="translate(157.137 57.8815)"><path class="edge" d="M 0 0 V -57.8815 H -157.137"/><rect class="sym" height="6" width="6" x="-3" y="-3"/><text class="lab" transform="translate(0 11)">4</text></g><g class="a36 c2 node n35 p2" transform="translate(-157.137 13.7645)"><g class="a35 c2 node n28 p2" transform="translate(136.023 35.1985)"><g class="a28 c2 node n23 p2" transform="translate(74.75 5.33893)"><g class="a23 i6 leaf node n6 p1 sample" transform="translate(-34.5 3.5795)"><path class="edge" d="M 0 0 V -3.5795 H 34.5"/><rect class="sym" height="6" width="6" x="-3" y="-3"/><text class="lab" transform="translate(0 11)">6</text></g><g class="a23 c2 node n20 p2" transform="translate(34.5 3.46977)"><g class="a20 i12 leaf node n12 p2 sample" transform="translate(-23 0.109723)"><path class="edge" d="M 0 0 V -0.109723 H 23"/><rect class="sym" height="6" width="6" x="-3" y="-3"/><text class="lab" transform="translate(0 11)">12</text></g><g class="a20 i16 leaf node n16 p2 sample" transform="translate(23 0.109723)"><path class="edge" d="M 0 0 V -0.109723 H -23"/><rect class="sym" height="6" width="6" x="-3" y="-3"/><text class="lab" transform="translate(0 11)">16</text></g><path class="edge" d="M 0 0 V -3.46977 H -34.5"/><circle class="sym" cx="0" cy="0" r="3"/><text class="lab rgt" transform="translate(3 -7)">20</text></g><path class="edge" d="M 0 0 V -5.33893 H -74.75"/><circle class="sym" cx="0" cy="0" r="3"/><text class="lab rgt" transform="translate(3 -7)">23</text></g><g class="a28 c2 node n24 p2" transform="translate(-74.75 5.06997)"><g class="a24 c2 m1 node n21 p2 s1" transform="translate(46 2.81308)"><g class="a21 i8 leaf node n8 p1 sample" transform="translate(-23 1.03538)"><path class="edge" d="M 0 0 V -1.03538 H 23"/><rect class="sym" height="6" width="6" x="-3" y="-3"/><text class="lab" transform="translate(0 11)">8</text></g><g class="a21 i19 leaf node n19 p2 sample" transform="translate(23 1.03538)"><path class="edge" d="M 0 0 V -1.03538 H -23"/><rect class="sym" height="6" width="6" x="-3" y="-3"/><text class="lab" transform="translate(0 11)">19</text></g><path class="edge" d="M 0 0 V -2.81308 H -46"/><g class="mut m1 s1" transform="translate(0 -2.21705)"><line x1="0" x2="0" y1="0" y2="2.21705"/><path class="sym" d="M -3,-3 l 6,6 M -3,3 l 6,-6"/><text class="lab rgt" transform="translate(5 0)">1</text></g><circle class="sym" cx="0" cy="0" r="3"/><text class="lab rgt" transform="translate(3 -7)">21</text></g><g class="a24 c2 node n22 p2" transform="translate(-46 0.910066)"><g class="a22 i2 leaf node n2 p1 sample" transform="translate(-23 2.93839)"><path class="edge" d="M 0 0 V -2.93839 H 23"/><rect class="sym" height="6" width="6" x="-3" y="-3"/><text class="lab" transform="translate(0 11)">2</text></g><g class="a22 i3 leaf node n3 p1 sample" transform="translate(23 2.93839)"><path class="edge" d="M 0 0 V -2.93839 H -23"/><rect class="sym" height="6" width="6" x="-3" y="-3"/><text class="lab" transform="translate(0 11)">3</text></g><path class="edge" d="M 0 0 V -0.910066 H 46"/><circle class="sym" cx="0" cy="0" r="3"/><text class="lab lft" transform="translate(-3 -7)">22</text></g><path class="edge" d="M 0 0 V -5.06997 H 74.75"/><circle class="sym" cx="0" cy="0" r="3"/><text class="lab lft" transform="translate(-3 -7)">24</text></g><path class="edge" d="M 0 0 V -35.1985 H -136.023"/><circle class="sym" cx="0" cy="0" r="3"/><text class="lab rgt" transform="translate(3 -7)">28</text></g><g class="a35 c2 node n34 p2" transform="translate(-136.023 4.34279)"><g class="a34 c2 node n27 p1" transform="translate(59.2969 33.6696)"><g class="a27 i10 leaf node n10 p2 sample" transform="translate(-23 6.10451)"><path class="edge" d="M 0 0 V -6.10451 H 23"/><rect class="sym" height="6" width="6" x="-3" y="-3"/><text class="lab" transform="translate(0 11)">10</text></g><g class="a27 i14 leaf node n14 p2 sample" transform="translate(23 6.10451)"><path class="edge" d="M 0 0 V -6.10451 H -23"/><rect class="sym" height="6" width="6" x="-3" y="-3"/><text class="lab" transform="translate(0 11)">14</text></g><path class="edge" d="M 0 0 V -33.6696 H -59.2969"/><circle class="sym" cx="0" cy="0" r="3"/><text class="lab rgt" transform="translate(3 -7)">27</text></g><g class="a34 c2 node n33 p1" transform="translate(-59.2969 3.50136)"><g class="a33 i15 leaf node n15 p2 sample" transform="translate(49.5938 36.2728)"><path class="edge" d="M 0 0 V -36.2728 H -49.5938"/><rect class="sym" height="6" width="6" x="-3" y="-3"/><text class="lab" transform="translate(0 11)">15</text></g><g class="a33 c2 node n32 p2" transform="translate(-49.5938 20.1249)"><g class="a32 i11 leaf node n11 p2 sample" transform="translate(53.1875 16.1479)"><path class="edge" d="M 0 0 V -16.1479 H -53.1875"/><rect class="sym" height="6" width="6" x="-3" y="-3"/><text class="lab" transform="translate(0 11)">11</text></g><g class="a32 c2 node n31 p2" transform="translate(-53.1875 0.814117)"><g class="a31 i5 leaf node n5 p1 sample" transform="translate(60.375 15.3338)"><path class="edge" d="M 0 0 V -15.3338 H -60.375"/><rect class="sym" height="6" width="6" x="-3" y="-3"/><text class="lab" transform="translate(0 11)">5</text></g><g class="a31 c2 node n30 p2" transform="translate(-60.375 4.82542)"><g class="a30 c2 node n26 p1" transform="translate(51.75 4.63071)"><g class="a26 i9 leaf node n9 p1 sample" transform="translate(-23 5.87766)"><path class="edge" d="M 0 0 V -5.87766 H 23"/><rect class="sym" height="6" width="6" x="-3" y="-3"/><text class="lab" transform="translate(0 11)">9</text></g><g class="a26 i13 leaf node n13 p2 sample" transform="translate(23 5.87766)"><path class="edge" d="M 0 0 V -5.87766 H -23"/><rect class="sym" height="6" width="6" x="-3" y="-3"/><text class="lab" transform="translate(0 11)">13</text></g><path class="edge" d="M 0 0 V -4.63071 H -51.75"/><circle class="sym" cx="0" cy="0" r="3"/><text class="lab rgt" transform="translate(3 -7)">26</text></g><g class="a30 c2 node n29 p1" transform="translate(-51.75 0.661843)"><g class="a29 i17 leaf node n17 p2 sample" transform="translate(34.5 9.84652)"><path class="edge" d="M 0 0 V -9.84652 H -34.5"/><rect class="sym" height="6" width="6" x="-3" y="-3"/><text class="lab" transform="translate(0 11)">17</text></g><g class="a29 c2 node n25 p2" transform="translate(-34.5 4.02632)"><g class="a25 i1 leaf node n1 p1 sample" transform="translate(-23 5.8202)"><path class="edge" d="M 0 0 V -5.8202 H 23"/><rect class="sym" height="6" width="6" x="-3" y="-3"/><text class="lab" transform="translate(0 11)">1</text></g><g class="a25 i7 leaf node n7 p1 sample" transform="translate(23 5.8202)"><path class="edge" d="M 0 0 V -5.8202 H -23"/><rect class="sym" height="6" width="6" x="-3" y="-3"/><text class="lab" transform="translate(0 11)">7</text></g><path class="edge" d="M 0 0 V -4.02632 H 34.5"/><circle class="sym" cx="0" cy="0" r="3"/><text class="lab lft" transform="translate(-3 -7)">25</text></g><path class="edge" d="M 0 0 V -0.661843 H 51.75"/><circle class="sym" cx="0" cy="0" r="3"/><text class="lab lft" transform="translate(-3 -7)">29</text></g><path class="edge" d="M 0 0 V -4.82542 H 60.375"/><circle class="sym" cx="0" cy="0" r="3"/><text class="lab lft" transform="translate(-3 -7)">30</text></g><path class="edge" d="M 0 0 V -0.814117 H 53.1875"/><circle class="sym" cx="0" cy="0" r="3"/><text class="lab lft" transform="translate(-3 -7)">31</text></g><path class="edge" d="M 0 0 V -20.1249 H 49.5938"/><circle class="sym" cx="0" cy="0" r="3"/><text class="lab lft" transform="translate(-3 -7)">32</text></g><path class="edge" d="M 0 0 V -3.50136 H 59.2969"/><circle class="sym" cx="0" cy="0" r="3"/><text class="lab lft" transform="translate(-3 -7)">33</text></g><path class="edge" d="M 0 0 V -4.34279 H 136.023"/><circle class="sym" cx="0" cy="0" r="3"/><text class="lab lft" transform="translate(-3 -7)">34</text></g><path class="edge" d="M 0 0 V -13.7645 H 157.137"/><circle class="sym" cx="0" cy="0" r="3"/><text class="lab lft" transform="translate(-3 -7)">35</text></g><path class="edge" d="M 0 0 V -137.309 H 101.568"/><circle class="sym" cx="0" cy="0" r="3"/><text class="lab lft" transform="translate(-3 -7)">36</text></g><path class="edge" d="M 0 0 V -99.4091 H -386.216"/><circle class="sym" cx="0" cy="0" r="3"/><text class="lab rgt" transform="translate(3 -7)">37</text></g><circle class="sym" cx="0" cy="0" r="3"/><text class="lab" transform="translate(0 -11)">38</text></g></g></g></g></g></svg>