<svg baseProfile="full" height="400" version="1.1" width="1000" xmlns="http://www.w3.org/2000/svg" xmlns:ev="http://www.w3.org/2001/xml-events" xmlns:xlink="http://www.w3.org/1999/xlink"><defs><style type="text/css"><![CDATA[.background path {fill: #808080; fill-opacity: 0}.background path:nth-child(odd) {fill-opacity: .1}.x-regions rect {fill: yellow; stroke: black; opacity: 0.5}.axes {font-size: 14px}.x-axis .tick .lab {font-weight: bold; dominant-baseline: hanging}.axes, .tree {font-size: 14px; text-anchor: middle}.axes line, .edge {stroke: black; fill: none}.axes .ax-skip {stroke-dasharray: 4}.y-axis .grid {stroke: #FAFAFA}.node > .sym {fill: black; stroke: none}.site > .sym {stroke: black}.mut text {fill: red; font-style: italic}.mut.extra text {fill: hotpink}.mut line {fill: none; stroke: none}.mut .sym {fill: none; stroke: red}.mut.extra .sym {stroke: hotpink}.node .mut .sym {stroke-width: 1.5px}.tree text, .tree-sequence text {dominant-baseline: central}.plotbox .lab.lft {text-anchor: end}.plotbox .lab.rgt {text-anchor: start}.polytomy line {stroke: black; stroke-dasharray: 1px, 1px}.polytomy text {paint-order:stroke;stroke-width:0.3em;stroke:white}]]></style></defs><g class="tree-sequence"><g class="background"><path d="M20,0 l960,0 l0,338.2 l0,25 l0,5 l-960,0 l0,-5 l0,-25 l0,-338.2z"/></g><g class="axes"><g class="x-axis"><g class="title" transform="translate(500 400)"><text class="lab" text-anchor="middle" transform="translate(0 -11)">Genome position</text></g><line class="ax-line" x1="20" x2="980" y1="363.2" y2="363.2"/><g class="ticks"><g class="tick" transform="translate(20 363.2)"><line x1="0" x2="0" y1="0" y2="5"/><g transform="translate(0 6)"><text class="lab">0</text></g></g><g class="tick" transform="translate(980 363.2)"><line x1="0" x2="0" y1="0" y2="5"/><g transform="translate(0 6)"><text class="lab">1000</text></g></g></g><g class="site s0" transform="translate(45.92 363.2)"><line class="sym" x1="0" x2="0" y1="0" y2="-10"/><g class="mut m0"><polyline class="sym" points="2.5,-6.5 0,-1.5 -2.5,-6.5"/></g></g><g class="site s1" transform="translate(98.72 363.2)"><line class="sym" x1="0" x2="0" y1="0" y2="-10"/><g class="mut m1"><polyline class="sym" points="2.5,-6.5 0,-1.5 -2.5,-6.5"/></g></g><g class="site s2" transform="translate(749.6 363.2)"><line class="sym" x1="0" x2="0" y1="0" y2="-10"/><g class="mut m2"><polyline class="sym" points="2.5,-6.5 0,-1.5 -2.5,-6.5"/></g></g><g class="site s3" transform="translate(793.76 363.2)"><line class="sym" x1="0" x2="0" y1="0" y2="-10"/><g class="mut m3"><polyline class="sym" points="2.5,-6.5 0,-1.5 -2.5,-6.5"/></g></g></g></g><g class="plotbox trees"><g class="tree t0" transform="translate(20 0)"><g class="plotbox"><g class="c2 node n38 p2 root" transform="translate(457.898 26.8)"><g class="a38 c2 node n35 p2" transform="translate(-177.711 231.616)"><g class="a35 c2 node n23 p2" transform="translate(107.812 57.9362)"><g class="a23 i4 leaf node n4 p1 sample" transform="translate(-23 5.04761)"><path class="edge" d="M 0 0 V -5.04761 H 23"/><rect class="sym" height="6" width="6" x="-3" y="-3"/><text class="lab" transform="translate(0 11)">4</text></g><g class="a23 i10 leaf node n10 p2 sample" transform="translate(23 5.04761)"><path class="edge" d="M 0 0 V -5.04761 H -23"/><rect class="sym" height="6" width="6" x="-3" y="-3"/><text class="lab" transform="translate(0 11)">10</text></g><path class="edge" d="M 0 0 V -57.9362 H -107.812"/><circle class="sym" cx="0" cy="0" r="3"/><text class="lab rgt" transform="translate(3 -7)">23</text></g><g class="a35 c2 node n34 p2" transform="translate(-107.812 4.52103)"><g class="a34 c2 node n32 p1" transform="translate(-94.875 11.378)"><g class="a32 i0 leaf m3 node n0 p1 s3 sample" transform="translate(-34.5 47.0848)"><path class="edge" d="M 0 0 V -47.0848 H 34.5"/><g class="mut m3 s3" transform="translate(0 -7.21218)"><line x1="0" x2="0" y1="0" y2="7.21218"/><path class="sym" d="M -3,-3 l 6,6 M -3,3 l 6,-6"/><text class="lab lft" transform="translate(-5 0)">3</text></g><rect class="sym" height="6" width="6" x="-3" y="-3"/><text class="lab" transform="translate(0 11)">0</text></g><g class="a32 c2 node n25 p2" transform="translate(34.5 38.5584)"><g class="a25 i3 leaf node n3 p1 sample" transform="translate(-23 8.52643)"><path class="edge" d="M 0 0 V -8.52643 H 23"/><rect class="sym" height="6" width="6" x="-3" y="-3"/><text class="lab" transform="translate(0 11)">3</text></g><g class="a25 i19 leaf node n19 p2 sample" transform="translate(23 8.52643)"><path class="edge" d="M 0 0 V -8.52643 H -23"/><rect class="sym" height="6" width="6" x="-3" y="-3"/><text class="lab" transform="translate(0 11)">19</text></g><path class="edge" d="M 0 0 V -38.5584 H -34.5"/><circle class="sym" cx="0" cy="0" r="3"/><text class="lab rgt" transform="translate(3 -7)">25</text></g><path class="edge" d="M 0 0 V -11.378 H 94.875"/><circle class="sym" cx="0" cy="0" r="3"/><text class="lab lft" transform="translate(-3 -7)">32</text></g><g class="a34 c2 node n33 p1" transform="translate(94.875 7.70436)"><g class="a33 i17 leaf m0 node n17 p2 s0 sample" transform="translate(51.75 50.7585)"><path class="edge" d="M 0 0 V -50.7585 H -51.75"/><g class="mut m0 s0" transform="translate(0 -44.7635)"><line x1="0" x2="0" y1="0" y2="44.7635"/><path class="sym" d="M -3,-3 l 6,6 M -3,3 l 6,-6"/><text class="lab rgt" transform="translate(5 0)">0</text></g><rect class="sym" height="6" width="6" x="-3" y="-3"/><text class="lab" transform="translate(0 11)">17</text></g><g class="a33 c2 node n27 p1" transform="translate(-51.75 39.3183)"><g class="a27 i2 leaf node n2 p1 sample" transform="translate(-34.5 11.4402)"><path class="edge" d="M 0 0 V -11.4402 H 34.5"/><rect class="sym" height="6" width="6" x="-3" y="-3"/><text class="lab" transform="translate(0 11)">2</text></g><g class="a27 c2 node n26 p1" transform="translate(34.5 0.00525718)"><g class="a26 i15 leaf node n15 p2 sample" transform="translate(-23 11.4349)"><path class="edge" d="M 0 0 V -11.4349 H 23"/><rect class="sym" height="6" width="6" x="-3" y="-3"/><text class="lab" transform="translate(0 11)">15</text></g><g class="a26 i16 leaf node n16 p2 sample" transform="translate(23 11.4349)"><path class="edge" d="M 0 0 V -11.4349 H -23"/><rect class="sym" height="6" width="6" x="-3" y="-3"/><text class="lab" transform="translate(0 11)">16</text></g><path class="edge" d="M 0 0 V -0.00525718 H -34.5"/><circle class="sym" cx="0" cy="0" r="3"/><text class="lab rgt" transform="translate(3 -7)">26</text></g><path class="edge" d="M 0 0 V -39.3183 H 51.75"/><circle class="sym" cx="0" cy="0" r="3"/><text class="lab lft" transform="translate(-3 -7)">27</text></g><path class="edge" d="M 0 0 V -7.70436 H -94.875"/><circle class="sym" cx="0" cy="0" r="3"/><text class="lab rgt" transform="translate(3 -7)">33</text></g><path class="edge" d="M 0 0 V -4.52103 H 107.812"/><circle class="sym" cx="0" cy="0" r="3"/><text class="lab lft" transform="translate(-3 -7)">34</text></g><path class="edge" d="M 0 0 V -231.616 H 177.711"/><circle class="sym" cx="0" cy="0" r="3"/><text class="lab lft" transform="translate(-3 -7)">35</text></g><g class="a38 c2 node n37 p1" transform="translate(177.711 48.4462)"><g class="a37 i1 leaf m1 node n1 p1 s1 sample" transform="translate(-178.609 246.154)"><path class="edge" d="M 0 0 V -246.154 H 178.609"/><g class="mut m1 s1" transform="translate(0 -75.9961)"><line x1="0" x2="0" y1="0" y2="75.9961"/><path class="sym" d="M -3,-3 l 6,6 M -3,3 l 6,-6"/><text class="lab lft" transform="translate(-5 0)">1</text></g><rect class="sym" height="6" width="6" x="-3" y="-3"/><text class="lab" transform="translate(0 11)">1</text></g><g class="a37 c2 node n36 p2" transform="translate(178.609 161.695)"><g class="a36 c2 node n30 p2" transform="translate(-79.7812 55.7518)"><g class="a30 i13 leaf node n13 p2 sample" transform="translate(90.5625 28.7067)"><path class="edge" d="M 0 0 V -28.7067 H -90.5625"/><rect class="sym" height="6" width="6" x="-3" y="-3"/><text class="lab" transform="translate(0 11)">13</text></g><g class="a30 c2 node n29 p2" transform="translate(-90.5625 1.8029)"><g class="a29 c2 node n24 p2" transform="translate(-83.375 18.4455)"><g class="a24 i8 leaf node n8 p1 sample" transform="translate(34.5 8.45825)"><path class="edge" d="M 0 0 V -8.45825 H -34.5"/><rect class="sym" height="6" width="6" x="-3" y="-3"/><text class="lab" transform="translate(0 11)">8</text></g><g class="a24 c2 node n22 p2" transform="translate(-34.5 3.6771)"><g class="a22 i5 leaf node n5 p1 sample" transform="translate(-23 4.78115)"><path class="edge" d="M 0 0 V -4.78115 H 23"/><rect class="sym" height="6" width="6" x="-3" y="-3"/><text class="lab" transform="translate(0 11)">5</text></g><g class="a22 i6 leaf m2 node n6 p1 s2 sample" transform="translate(23 4.78115)"><path class="edge" d="M 0 0 V -4.78115 H -23"/><g class="mut m2 s2" transform="translate(0 -0.832004)"><line x1="0" x2="0" y1="0" y2="0.832004"/><path class="sym" d="M -3,-3 l 6,6 M -3,3 l 6,-6"/><text class="lab rgt" transform="translate(5 0)">2</text></g><rect class="sym" height="6" width="6" x="-3" y="-3"/><text class="lab" transform="translate(0 11)">6</text></g><path class="edge" d="M 0 0 V -3.6771 H 34.5"/><circle class="sym" cx="0" cy="0" r="3"/><text class="lab lft" transform="translate(-3 -7)">22</text></g><path class="edge" d="M 0 0 V -18.4455 H 83.375"/><circle class="sym" cx="0" cy="0" r="3"/><text class="lab lft" transform="translate(-3 -7)">24</text></g><g class="a29 c2 node n28 p2" transform="translate(83.375 7.97521)"><g class="a28 i9 leaf node n9 p1 sample" transform="translate(51.75 18.9286)"><path class="edge" d="M 0 0 V -18.9286 H -51.75"/><rect class="sym" height="6" width="6" x="-3" y="-3"/><text class="lab" transform="translate(0 11)">9</text></g><g class="a28 c2 node n21 p2" transform="translate(-51.75 14.819)"><g class="a21 i7 leaf node n7 p1 sample" transform="translate(-34.5 4.1096)"><path class="edge" d="M 0 0 V -4.1096 H 34.5"/><rect class="sym" height="6" width="6" x="-3" y="-3"/><text class="lab" transform="translate(0 11)">7</text></g><g class="a21 c2 node n20 p2" transform="translate(34.5 2.94409)"><g class="a20 i12 leaf node n12 p2 sample" transform="translate(-23 1.16551)"><path class="edge" d="M 0 0 V -1.16551 H 23"/><rect class="sym" height="6" width="6" x="-3" y="-3"/><text class="lab" transform="translate(0 11)">12</text></g><g class="a20 i14 leaf node n14 p2 sample" transform="translate(23 1.16551)"><path class="edge" d="M 0 0 V -1.16551 H -23"/><rect class="sym" height="6" width="6" x="-3" y="-3"/><text class="lab" transform="translate(0 11)">14</text></g><path class="edge" d="M 0 0 V -2.94409 H -34.5"/><circle class="sym" cx="0" cy="0" r="3"/><text class="lab rgt" transform="translate(3 -7)">20</text></g><path class="edge" d="M 0 0 V -14.819 H 51.75"/><circle class="sym" cx="0" cy="0" r="3"/><text class="lab lft" transform="translate(-3 -7)">21</text></g><path class="edge" d="M 0 0 V -7.97521 H -83.375"/><circle class="sym" cx="0" cy="0" r="3"/><text class="lab rgt" transform="translate(3 -7)">28</text></g><path class="edge" d="M 0 0 V -1.8029 H 90.5625"/><circle class="sym" cx="0" cy="0" r="3"/><text class="lab lft" transform="translate(-3 -7)">29</text></g><path class="edge" d="M 0 0 V -55.7518 H 79.7812"/><circle class="sym" cx="0" cy="0" r="3"/><text class="lab lft" transform="translate(-3 -7)">30</text></g><g class="a36 c2 node n31 p2" transform="translate(79.7812 38.9983)"><g class="a31 i11 leaf node n11 p2 sample" transform="translate(-23 45.4602)"><path class="edge" d="M 0 0 V -45.4602 H 23"/><rect class="sym" height="6" width="6" x="-3" y="-3"/><text class="lab" transform="translate(0 11)">11</text></g><g class="a31 i18 leaf node n18 p2 sample" transform="translate(23 45.4602)"><path class="edge" d="M 0 0 V -45.4602 H -23"/><rect class="sym" height="6" width="6" x="-3" y="-3"/><text class="lab" transform="translate(0 11)">18</text></g><path class="edge" d="M 0 0 V -38.9983 H -79.7812"/><circle class="sym" cx="0" cy="0" r="3"/><text class="lab rgt" transform="translate(3 -7)">31</text></g><path class="edge" d="M 0 0 V -161.695 H -178.609"/><circle class="sym" cx="0" cy="0" r="3"/><text class="lab rgt" transform="translate(3 -7)">36</text></g><path class="edge" d="M 0 0 V -48.4462 H -177.711"/><circle class="sym" cx="0" cy="0" r="3"/><text class="lab rgt" transform="translate(3 -7)">37</text></g><circle class="sym" cx="0" cy="0" r="3"/><text class="lab" transform="translate(0 -11)">38</text></g></g></g></g></g></svg>