<svg baseProfile="full" height="400" version="1.1" width="1000" xmlns="http://www.w3.org/2000/svg" xmlns:ev="http://www.w3.org/2001/xml-events" xmlns:xlink="http://www.w3.org/1999/xlink"><defs><style type="text/css"><![CDATA[.background path {fill: #808080; fill-opacity: 0}.background path:nth-child(odd) {fill-opacity: .1}.x-regions rect {fill: yellow; stroke: black; opacity: 0.5}.axes {font-size: 14px}.x-axis .tick .lab {font-weight: bold; dominant-baseline: hanging}.axes, .tree {font-size: 14px; text-anchor: middle}.axes line, .edge {stroke: black; fill: none}.axes .ax-skip {stroke-dasharray: 4}.y-axis .grid {stroke: #FAFAFA}.node > .sym {fill: black; stroke: none}.site > .sym {stroke: black}.mut text {fill: red; font-style: italic}.mut.extra text {fill: hotpink}.mut line {fill: none; stroke: none}.mut .sym {fill: none; stroke: red}.mut.extra .sym {stroke: hotpink}.node .mut .sym {stroke-width: 1.5px}.tree text, .tree-sequence text {dominant-baseline: central}.plotbox .lab.lft {text-anchor: end}.plotbox .lab.rgt {text-anchor: start}.polytomy line {stroke: black; stroke-dasharray: 1px, 1px}.polytomy text {paint-order:stroke;stroke-width:0.3em;stroke:white}]]></style></defs><g class="tree-sequence"><g class="background"><path d="M20,0 l960,0 l0,338.2 l0,25 l0,5 l-960,0 l0,-5 l0,-25 l0,-338.2z"/></g><g class="axes"><g class="x-axis"><g class="title" transform="translate(500 400)"><text class="lab" text-anchor="middle" transform="translate(0 -11)">Genome position</text></g><line class="ax-line" x1="20" x2="980" y1="363.2" y2="363.2"/><g class="ticks"><g class="tick" transform="translate(20 363.2)"><line x1="0" x2="0" y1="0" y2="5"/><g transform="translate(0 6)"><text class="lab">0</text></g></g><g class="tick" transform="translate(980 363.2)"><line x1="0" x2="0" y1="0" y2="5"/><g transform="translate(0 6)"><text class="lab">1000</text></g></g></g><g class="site s0" transform="translate(187.04 363.2)"><line class="sym" x1="0" x2="0" y1="0" y2="-10"/><g class="mut m0"><polyline class="sym" points="2.5,-6.5 0,-1.5 -2.5,-6.5"/></g></g><g class="site s1" transform="translate(479.84 363.2)"><line class="sym" x1="0" x2="0" y1="0" y2="-10"/><g class="mut m1"><polyline class="sym" points="2.5,-6.5 0,-1.5 -2.5,-6.5"/></g></g><g class="site s2" transform="translate(536.48 363.2)"><line class="sym" x1="0" x2="0" y1="0" y2="-10"/><g class="mut m2"><polyline class="sym" points="2.5,-6.5 0,-1.5 -2.5,-6.5"/></g></g><g class="site s3" transform="translate(749.6 363.2)"><line class="sym" x1="0" x2="0" y1="0" y2="-10"/><g class="mut m3"><polyline class="sym" points="2.5,-6.5 0,-1.5 -2.5,-6.5"/></g></g><g class="site s4" transform="translate(779.36 363.2)"><line class="sym" x1="0" x2="0" y1="0" y2="-10"/><g class="mut m4"><polyline class="sym" points="2.5,-6.5 0,-1.5 -2.5,-6.5"/></g></g></g></g><g class="plotbox trees"><g class="tree t0" transform="translate(20 0)"><g class="plotbox"><g class="c2 node n38 p2 root" transform="translate(518.453 26.8)"><g class="a38 c2 m3 node n34 p1 s3" transform="translate(267.016 282.578)"><g class="a34 c2 node n30 p2" transform="translate(-108.531 4.25226)"><g class="a30 i1 leaf node n1 p1 sample" transform="translate(-81.9375 7.76966)"><path class="edge" d="M 0 0 V -7.76966 H 81.9375"/><rect class="sym" height="6" width="6" x="-3" y="-3"/><text class="lab" transform="translate(0 11)">1</text></g><g class="a30 c2 node n26 p1" transform="translate(81.9375 4.10551)"><g class="a26 i12 leaf m2 node n12 p2 s2 sample" transform="translate(66.125 3.66415)"><path class="edge" d="M 0 0 V -3.66415 H -66.125"/><g class="mut m2 s2" transform="translate(0 -1.60342)"><line x1="0" x2="0" y1="0" y2="1.60342"/><path class="sym" d="M -3,-3 l 6,6 M -3,3 l 6,-6"/><text class="lab rgt" transform="translate(5 0)">2</text></g><rect class="sym" height="6" width="6" x="-3" y="-3"/><text class="lab" transform="translate(0 11)">12</text></g><g class="a26 c2 node n24 p2" transform="translate(-66.125 1.73331)"><g class="a24 i3 leaf node n3 p1 sample" transform="translate(-51.75 1.93084)"><path class="edge" d="M 0 0 V -1.93084 H 51.75"/><rect class="sym" height="6" width="6" x="-3" y="-3"/><text class="lab" transform="translate(0 11)">3</text></g><g class="a24 c2 node n22 p2" transform="translate(51.75 0.364814)"><g class="a22 i15 leaf node n15 p2 sample" transform="translate(34.5 1.56602)"><path class="edge" d="M 0 0 V -1.56602 H -34.5"/><rect class="sym" height="6" width="6" x="-3" y="-3"/><text class="lab" transform="translate(0 11)">15</text></g><g class="a22 c2 node n21 p2" transform="translate(-34.5 1.22185)"><g class="a21 i6 leaf node n6 p1 sample" transform="translate(-23 0.344171)"><path class="edge" d="M 0 0 V -0.344171 H 23"/><rect class="sym" height="6" width="6" x="-3" y="-3"/><text class="lab" transform="translate(0 11)">6</text></g><g class="a21 i13 leaf node n13 p2 sample" transform="translate(23 0.344171)"><path class="edge" d="M 0 0 V -0.344171 H -23"/><rect class="sym" height="6" width="6" x="-3" y="-3"/><text class="lab" transform="translate(0 11)">13</text></g><path class="edge" d="M 0 0 V -1.22185 H 34.5"/><circle class="sym" cx="0" cy="0" r="3"/><text class="lab lft" transform="translate(-3 -7)">21</text></g><path class="edge" d="M 0 0 V -0.364814 H -51.75"/><circle class="sym" cx="0" cy="0" r="3"/><text class="lab rgt" transform="translate(3 -7)">22</text></g><path class="edge" d="M 0 0 V -1.73331 H 66.125"/><circle class="sym" cx="0" cy="0" r="3"/><text class="lab lft" transform="translate(-3 -7)">24</text></g><path class="edge" d="M 0 0 V -4.10551 H -81.9375"/><circle class="sym" cx="0" cy="0" r="3"/><text class="lab rgt" transform="translate(3 -7)">26</text></g><path class="edge" d="M 0 0 V -4.25226 H 108.531"/><circle class="sym" cx="0" cy="0" r="3"/><text class="lab lft" transform="translate(-3 -7)">30</text></g><g class="a34 c2 node n31 p2" transform="translate(108.531 1.6908)"><g class="a31 i17 leaf node n17 p2 sample" transform="translate(-23 10.3311)"><path class="edge" d="M 0 0 V -10.3311 H 23"/><rect class="sym" height="6" width="6" x="-3" y="-3"/><text class="lab" transform="translate(0 11)">17</text></g><g class="a31 i18 leaf node n18 p2 sample" transform="translate(23 10.3311)"><path class="edge" d="M 0 0 V -10.3311 H -23"/><rect class="sym" height="6" width="6" x="-3" y="-3"/><text class="lab" transform="translate(0 11)">18</text></g><path class="edge" d="M 0 0 V -1.6908 H -108.531"/><circle class="sym" cx="0" cy="0" r="3"/><text class="lab rgt" transform="translate(3 -7)">31</text></g><path class="edge" d="M 0 0 V -282.578 H -267.016"/><g class="mut m3 s3" transform="translate(0 -14.9346)"><line x1="0" x2="0" y1="0" y2="14.9346"/><path class="sym" d="M -3,-3 l 6,6 M -3,3 l 6,-6"/><text class="lab rgt" transform="translate(5 0)">3</text></g><circle class="sym" cx="0" cy="0" r="3"/><text class="lab rgt" transform="translate(3 -7)">34</text></g><g class="a38 c2 m0 m1 m4 node n37 p2 s0 s1 s4" transform="translate(-267.016 235.219)"><g class="a37 c2 node n33 p1" transform="translate(-173.938 47.4538)"><g class="a33 i0 leaf node n0 p1 sample" transform="translate(-34.5 11.9277)"><path class="edge" d="M 0 0 V -11.9277 H 34.5"/><rect class="sym" height="6" width="6" x="-3" y="-3"/><text class="lab" transform="translate(0 11)">0</text></g><g class="a33 c2 node n28 p2" transform="translate(34.5 5.59654)"><g class="a28 i9 leaf node n9 p1 sample" transform="translate(-23 6.33113)"><path class="edge" d="M 0 0 V -6.33113 H 23"/><rect class="sym" height="6" width="6" x="-3" y="-3"/><text class="lab" transform="translate(0 11)">9</text></g><g class="a28 i10 leaf node n10 p2 sample" transform="translate(23 6.33113)"><path class="edge" d="M 0 0 V -6.33113 H -23"/><rect class="sym" height="6" width="6" x="-3" y="-3"/><text class="lab" transform="translate(0 11)">10</text></g><path class="edge" d="M 0 0 V -5.59654 H -34.5"/><circle class="sym" cx="0" cy="0" r="3"/><text class="lab rgt" transform="translate(3 -7)">28</text></g><path class="edge" d="M 0 0 V -47.4538 H 173.938"/><circle class="sym" cx="0" cy="0" r="3"/><text class="lab lft" transform="translate(-3 -7)">33</text></g><g class="a37 c2 node n36 p1" transform="translate(173.938 15.0305)"><g class="a36 c2 node n29 p2" transform="translate(100.625 37.3089)"><g class="a29 i5 leaf node n5 p1 sample" transform="translate(-23 7.04212)"><path class="edge" d="M 0 0 V -7.04212 H 23"/><rect class="sym" height="6" width="6" x="-3" y="-3"/><text class="lab" transform="translate(0 11)">5</text></g><g class="a29 i11 leaf node n11 p2 sample" transform="translate(23 7.04212)"><path class="edge" d="M 0 0 V -7.04212 H -23"/><rect class="sym" height="6" width="6" x="-3" y="-3"/><text class="lab" transform="translate(0 11)">11</text></g><path class="edge" d="M 0 0 V -37.3089 H -100.625"/><circle class="sym" cx="0" cy="0" r="3"/><text class="lab rgt" transform="translate(3 -7)">29</text></g><g class="a36 c2 node n35 p1" transform="translate(-100.625 16.6395)"><g class="a35 c2 node n27 p2" transform="translate(-74.75 23.8684)"><g class="a27 c2 node n23 p1" transform="translate(46 2.20708)"><g class="a23 i4 leaf node n4 p1 sample" transform="translate(-23 1.63601)"><path class="edge" d="M 0 0 V -1.63601 H 23"/><rect class="sym" height="6" width="6" x="-3" y="-3"/><text class="lab" transform="translate(0 11)">4</text></g><g class="a23 i19 leaf node n19 p2 sample" transform="translate(23 1.63601)"><path class="edge" d="M 0 0 V -1.63601 H -23"/><rect class="sym" height="6" width="6" x="-3" y="-3"/><text class="lab" transform="translate(0 11)">19</text></g><path class="edge" d="M 0 0 V -2.20708 H -46"/><circle class="sym" cx="0" cy="0" r="3"/><text class="lab rgt" transform="translate(3 -7)">23</text></g><g class="a27 c2 node n25 p2" transform="translate(-46 1.42976)"><g class="a25 i2 leaf node n2 p1 sample" transform="translate(-23 2.41333)"><path class="edge" d="M 0 0 V -2.41333 H 23"/><rect class="sym" height="6" width="6" x="-3" y="-3"/><text class="lab" transform="translate(0 11)">2</text></g><g class="a25 i8 leaf node n8 p1 sample" transform="translate(23 2.41333)"><path class="edge" d="M 0 0 V -2.41333 H -23"/><rect class="sym" height="6" width="6" x="-3" y="-3"/><text class="lab" transform="translate(0 11)">8</text></g><path class="edge" d="M 0 0 V -1.42976 H 46"/><circle class="sym" cx="0" cy="0" r="3"/><text class="lab lft" transform="translate(-3 -7)">25</text></g><path class="edge" d="M 0 0 V -23.8684 H 74.75"/><circle class="sym" cx="0" cy="0" r="3"/><text class="lab lft" transform="translate(-3 -7)">27</text></g><g class="a35 c2 node n32 p2" transform="translate(74.75 17.2399)"><g class="a32 i7 leaf node n7 p1 sample" transform="translate(-34.5 10.4716)"><path class="edge" d="M 0 0 V -10.4716 H 34.5"/><rect class="sym" height="6" width="6" x="-3" y="-3"/><text class="lab" transform="translate(0 11)">7</text></g><g class="a32 c2 node n20 p1" transform="translate(34.5 10.1372)"><g class="a20 i14 leaf node n14 p2 sample" transform="translate(-23 0.334371)"><path class="edge" d="M 0 0 V -0.334371 H 23"/><rect class="sym" height="6" width="6" x="-3" y="-3"/><text class="lab" transform="translate(0 11)">14</text></g><g class="a20 i16 leaf node n16 p2 sample" transform="translate(23 0.334371)"><path class="edge" d="M 0 0 V -0.334371 H -23"/><rect class="sym" height="6" width="6" x="-3" y="-3"/><text class="lab" transform="translate(0 11)">16</text></g><path class="edge" d="M 0 0 V -10.1372 H -34.5"/><circle class="sym" cx="0" cy="0" r="3"/><text class="lab rgt" transform="translate(3 -7)">20</text></g><path class="edge" d="M 0 0 V -17.2399 H -74.75"/><circle class="sym" cx="0" cy="0" r="3"/><text class="lab rgt" transform="translate(3 -7)">32</text></g><path class="edge" d="M 0 0 V -16.6395 H 100.625"/><circle class="sym" cx="0" cy="0" r="3"/><text class="lab lft" transform="translate(-3 -7)">35</text></g><path class="edge" d="M 0 0 V -15.0305 H -173.938"/><circle class="sym" cx="0" cy="0" r="3"/><text class="lab rgt" transform="translate(3 -7)">36</text></g><path class="edge" d="M 0 0 V -235.219 H 267.016"/><g class="mut m1 s1" transform="translate(0 -227.249)"><line x1="0" x2="0" y1="0" y2="227.249"/><path class="sym" d="M -3,-3 l 6,6 M -3,3 l 6,-6"/><text class="lab lft" transform="translate(-5 0)">1</text></g><g class="mut m0 s0" transform="translate(0 -118.373)"><line x1="0" x2="0" y1="0" y2="118.373"/><path class="sym" d="M -3,-3 l 6,6 M -3,3 l 6,-6"/><text class="lab lft" transform="translate(-5 0)">0</text></g><g class="mut m4 s4" transform="translate(0 -23.5629)"><line x1="0" x2="0" y1="0" y2="23.5629"/><path class="sym" d="M -3,-3 l 6,6 M -3,3 l 6,-6"/><text class="lab lft" transform="translate(-5 0)">4</text></g><circle class="sym" cx="0" cy="0" r="3"/><text class="lab lft" transform="translate(-3 -7)">37</text></g><circle class="sym" cx="0" cy="0" r="3"/><text class="lab" transform="translate(0 -11)">38</text></g></g></g></g></g></svg>