<svg baseProfile="full" height="400" version="1.1" width="1000" xmlns="http://www.w3.org/2000/svg" xmlns:ev="http://www.w3.org/2001/xml-events" xmlns:xlink="http://www.w3.org/1999/xlink"><defs><style type="text/css"><![CDATA[.background path {fill: #808080; fill-opacity: 0}.background path:nth-child(odd) {fill-opacity: .1}.x-regions rect {fill: yellow; stroke: black; opacity: 0.5}.axes {font-size: 14px}.x-axis .tick .lab {font-weight: bold; dominant-baseline: hanging}.axes, .tree {font-size: 14px; text-anchor: middle}.axes line, .edge {stroke: black; fill: none}.axes .ax-skip {stroke-dasharray: 4}.y-axis .grid {stroke: #FAFAFA}.node > .sym {fill: black; stroke: none}.site > .sym {stroke: black}.mut text {fill: red; font-style: italic}.mut.extra text {fill: hotpink}.mut line {fill: none; stroke: none}.mut .sym {fill: none; stroke: red}.mut.extra .sym {stroke: hotpink}.node .mut .sym {stroke-width: 1.5px}.tree text, .tree-sequence text {dominant-baseline: central}.plotbox .lab.lft {text-anchor: end}.plotbox .lab.rgt {text-anchor: start}.polytomy line {stroke: black; stroke-dasharray: 1px, 1px}.polytomy text {paint-order:stroke;stroke-width:0.3em;stroke:white}]]></style></defs><g class="tree-sequence"><g class="background"><path d="M20,0 l960,0 l0,338.2 l0,25 l0,5 l-960,0 l0,-5 l0,-25 l0,-338.2z"/></g><g class="axes"><g class="x-axis"><g class="title" transform="translate(500 400)"><text class="lab" text-anchor="middle" transform="translate(0 -11)">Genome position</text></g><line class="ax-line" x1="20" x2="980" y1="363.2" y2="363.2"/><g class="ticks"><g class="tick" transform="translate(20 363.2)"><line x1="0" x2="0" y1="0" y2="5"/><g transform="translate(0 6)"><text class="lab">0</text></g></g><g class="tick" transform="translate(980 363.2)"><line x1="0" x2="0" y1="0" y2="5"/><g transform="translate(0 6)"><text class="lab">1000</text></g></g></g><g class="site s0" transform="translate(548.96 363.2)"><line class="sym" x1="0" x2="0" y1="0" y2="-10"/><g class="mut m0"><polyline class="sym" points="2.5,-6.5 0,-1.5 -2.5,-6.5"/></g></g><g class="site s1" transform="translate(803.36 363.2)"><line class="sym" x1="0" x2="0" y1="0" y2="-10"/><g class="mut m1"><polyline class="sym" points="2.5,-6.5 0,-1.5 -2.5,-6.5"/></g></g></g></g><g class="plotbox trees"><g class="tree t0" transform="translate(20 0)"><g class="plotbox"><g class="c2 node n38 p2 root" transform="translate(705.238 26.8)"><g class="a38 c2 node n36 p2" transform="translate(142.762 257.722)"><g class="a36 c2 node n23 p2" transform="translate(-46 36.0064)"><g class="a23 i9 leaf node n9 p1 sample" transform="translate(-23 0.871605)"><path class="edge" d="M 0 0 V -0.871605 H 23"/><rect class="sym" height="6" width="6" x="-3" y="-3"/><text class="lab" transform="translate(0 11)">9</text></g><g class="a23 i19 leaf node n19 p2 sample" transform="translate(23 0.871605)"><path class="edge" d="M 0 0 V -0.871605 H -23"/><rect class="sym" height="6" width="6" x="-3" y="-3"/><text class="lab" transform="translate(0 11)">19</text></g><path class="edge" d="M 0 0 V -36.0064 H 46"/><circle class="sym" cx="0" cy="0" r="3"/><text class="lab lft" transform="translate(-3 -7)">23</text></g><g class="a36 c2 node n28 p2" transform="translate(46 25.9011)"><g class="a28 i11 leaf node n11 p2 sample" transform="translate(-23 10.9769)"><path class="edge" d="M 0 0 V -10.9769 H 23"/><rect class="sym" height="6" width="6" x="-3" y="-3"/><text class="lab" transform="translate(0 11)">11</text></g><g class="a28 i14 leaf node n14 p2 sample" transform="translate(23 10.9769)"><path class="edge" d="M 0 0 V -10.9769 H -23"/><rect class="sym" height="6" width="6" x="-3" y="-3"/><text class="lab" transform="translate(0 11)">14</text></g><path class="edge" d="M 0 0 V -25.9011 H -46"/><circle class="sym" cx="0" cy="0" r="3"/><text class="lab rgt" transform="translate(3 -7)">28</text></g><path class="edge" d="M 0 0 V -257.722 H -142.762"/><circle class="sym" cx="0" cy="0" r="3"/><text class="lab rgt" transform="translate(3 -7)">36</text></g><g class="a38 c2 m0 node n37 p2 s0" transform="translate(-142.762 254.001)"><g class="a37 c2 node n34 p1" transform="translate(113.023 13.5281)"><g class="a34 i2 leaf node n2 p1 sample" transform="translate(-34.5 27.0709)"><path class="edge" d="M 0 0 V -27.0709 H 34.5"/><rect class="sym" height="6" width="6" x="-3" y="-3"/><text class="lab" transform="translate(0 11)">2</text></g><g class="a34 c2 node n33 p2" transform="translate(34.5 5.65831)"><g class="a33 i16 leaf node n16 p2 sample" transform="translate(-23 21.4126)"><path class="edge" d="M 0 0 V -21.4126 H 23"/><rect class="sym" height="6" width="6" x="-3" y="-3"/><text class="lab" transform="translate(0 11)">16</text></g><g class="a33 i17 leaf node n17 p2 sample" transform="translate(23 21.4126)"><path class="edge" d="M 0 0 V -21.4126 H -23"/><rect class="sym" height="6" width="6" x="-3" y="-3"/><text class="lab" transform="translate(0 11)">17</text></g><path class="edge" d="M 0 0 V -5.65831 H -34.5"/><circle class="sym" cx="0" cy="0" r="3"/><text class="lab rgt" transform="translate(3 -7)">33</text></g><path class="edge" d="M 0 0 V -13.5281 H -113.023"/><circle class="sym" cx="0" cy="0" r="3"/><text class="lab rgt" transform="translate(3 -7)">34</text></g><g class="a37 c2 node n35 p2" transform="translate(-113.023 10.8945)"><g class="a35 c2 node n30 p1" transform="translate(-111.047 17.279)"><g class="a30 i10 leaf node n10 p2 sample" transform="translate(118.594 12.4255)"><path class="edge" d="M 0 0 V -12.4255 H -118.594"/><rect class="sym" height="6" width="6" x="-3" y="-3"/><text class="lab" transform="translate(0 11)">10</text></g><g class="a30 c2 node n29 p2" transform="translate(-118.594 0.777099)"><g class="a29 c2 node n25 p2" transform="translate(-119.312 7.32773)"><g class="a25 i7 leaf m1 node n7 p1 s1 sample" transform="translate(34.5 4.32071)"><path class="edge" d="M 0 0 V -4.32071 H -34.5"/><g class="mut m1 s1" transform="translate(0 -0.455757)"><line x1="0" x2="0" y1="0" y2="0.455757"/><path class="sym" d="M -3,-3 l 6,6 M -3,3 l 6,-6"/><text class="lab rgt" transform="translate(5 0)">1</text></g><rect class="sym" height="6" width="6" x="-3" y="-3"/><text class="lab" transform="translate(0 11)">7</text></g><g class="a25 c2 node n24 p2" transform="translate(-34.5 1.1347)"><g class="a24 i0 leaf node n0 p1 sample" transform="translate(-23 3.18601)"><path class="edge" d="M 0 0 V -3.18601 H 23"/><rect class="sym" height="6" width="6" x="-3" y="-3"/><text class="lab" transform="translate(0 11)">0</text></g><g class="a24 i1 leaf node n1 p1 sample" transform="translate(23 3.18601)"><path class="edge" d="M 0 0 V -3.18601 H -23"/><rect class="sym" height="6" width="6" x="-3" y="-3"/><text class="lab" transform="translate(0 11)">1</text></g><path class="edge" d="M 0 0 V -1.1347 H 34.5"/><circle class="sym" cx="0" cy="0" r="3"/><text class="lab lft" transform="translate(-3 -7)">24</text></g><path class="edge" d="M 0 0 V -7.32773 H 119.312"/><circle class="sym" cx="0" cy="0" r="3"/><text class="lab lft" transform="translate(-3 -7)">25</text></g><g class="a29 c2 node n27 p1" transform="translate(119.312 0.947528)"><g class="a27 i5 leaf node n5 p1 sample" transform="translate(71.875 10.7009)"><path class="edge" d="M 0 0 V -10.7009 H -71.875"/><rect class="sym" height="6" width="6" x="-3" y="-3"/><text class="lab" transform="translate(0 11)">5</text></g><g class="a27 c2 node n26 p1" transform="translate(-71.875 2.84657)"><g class="a26 c2 node n21 p1" transform="translate(63.25 7.77693)"><g class="a21 i13 leaf node n13 p2 sample" transform="translate(34.5 0.077418)"><path class="edge" d="M 0 0 V -0.077418 H -34.5"/><rect class="sym" height="6" width="6" x="-3" y="-3"/><text class="lab" transform="translate(0 11)">13</text></g><g class="a21 c2 node n20 p1" transform="translate(-34.5 0.0345901)"><g class="a20 i4 leaf node n4 p1 sample" transform="translate(-23 0.0428279)"><path class="edge" d="M 0 0 V -0.0428279 H 23"/><rect class="sym" height="6" width="6" x="-3" y="-3"/><text class="lab" transform="translate(0 11)">4</text></g><g class="a20 i6 leaf node n6 p1 sample" transform="translate(23 0.0428279)"><path class="edge" d="M 0 0 V -0.0428279 H -23"/><rect class="sym" height="6" width="6" x="-3" y="-3"/><text class="lab" transform="translate(0 11)">6</text></g><path class="edge" d="M 0 0 V -0.0345901 H 34.5"/><circle class="sym" cx="0" cy="0" r="3"/><text class="lab lft" transform="translate(-3 -7)">20</text></g><path class="edge" d="M 0 0 V -7.77693 H -63.25"/><circle class="sym" cx="0" cy="0" r="3"/><text class="lab rgt" transform="translate(3 -7)">21</text></g><g class="a26 c2 node n22 p1" transform="translate(-63.25 7.24619)"><g class="a22 i3 leaf node n3 p1 sample" transform="translate(-23 0.608158)"><path class="edge" d="M 0 0 V -0.608158 H 23"/><rect class="sym" height="6" width="6" x="-3" y="-3"/><text class="lab" transform="translate(0 11)">3</text></g><g class="a22 i8 leaf node n8 p1 sample" transform="translate(23 0.608158)"><path class="edge" d="M 0 0 V -0.608158 H -23"/><rect class="sym" height="6" width="6" x="-3" y="-3"/><text class="lab" transform="translate(0 11)">8</text></g><path class="edge" d="M 0 0 V -7.24619 H 63.25"/><circle class="sym" cx="0" cy="0" r="3"/><text class="lab lft" transform="translate(-3 -7)">22</text></g><path class="edge" d="M 0 0 V -2.84657 H 71.875"/><circle class="sym" cx="0" cy="0" r="3"/><text class="lab lft" transform="translate(-3 -7)">26</text></g><path class="edge" d="M 0 0 V -0.947528 H -119.312"/><circle class="sym" cx="0" cy="0" r="3"/><text class="lab rgt" transform="translate(3 -7)">27</text></g><path class="edge" d="M 0 0 V -0.777099 H 118.594"/><circle class="sym" cx="0" cy="0" r="3"/><text class="lab lft" transform="translate(-3 -7)">29</text></g><path class="edge" d="M 0 0 V -17.279 H 111.047"/><circle class="sym" cx="0" cy="0" r="3"/><text class="lab lft" transform="translate(-3 -7)">30</text></g><g class="a35 c2 node n32 p1" transform="translate(111.047 12.0774)"><g class="a32 i15 leaf node n15 p2 sample" transform="translate(34.5 17.6271)"><path class="edge" d="M 0 0 V -17.6271 H -34.5"/><rect class="sym" height="6" width="6" x="-3" y="-3"/><text class="lab" transform="translate(0 11)">15</text></g><g class="a32 c2 node n31 p1" transform="translate(-34.5 2.49221)"><g class="a31 i12 leaf node n12 p2 sample" transform="translate(-23 15.1349)"><path class="edge" d="M 0 0 V -15.1349 H 23"/><rect class="sym" height="6" width="6" x="-3" y="-3"/><text class="lab" transform="translate(0 11)">12</text></g><g class="a31 i18 leaf node n18 p2 sample" transform="translate(23 15.1349)"><path class="edge" d="M 0 0 V -15.1349 H -23"/><rect class="sym" height="6" width="6" x="-3" y="-3"/><text class="lab" transform="translate(0 11)">18</text></g><path class="edge" d="M 0 0 V -2.49221 H 34.5"/><circle class="sym" cx="0" cy="0" r="3"/><text class="lab lft" transform="translate(-3 -7)">31</text></g><path class="edge" d="M 0 0 V -12.0774 H -111.047"/><circle class="sym" cx="0" cy="0" r="3"/><text class="lab rgt" transform="translate(3 -7)">32</text></g><path class="edge" d="M 0 0 V -10.8945 H 113.023"/><circle class="sym" cx="0" cy="0" r="3"/><text class="lab lft" transform="translate(-3 -7)">35</text></g><path class="edge" d="M 0 0 V -254.001 H 142.762"/><g class="mut m0 s0" transform="translate(0 -51.0937)"><line x1="0" x2="0" y1="0" y2="51.0937"/><path class="sym" d="M -3,-3 l 6,6 M -3,3 l 6,-6"/><text class="lab lft" transform="translate(-5 0)">0</text></g><circle class="sym" cx="0" cy="0" r="3"/><text class="lab lft" transform="translate(-3 -7)">37</text></g><circle class="sym" cx="0" cy="0" r="3"/><text class="lab" transform="translate(0 -11)">38</text></g></g></g></g></g></svg>