<svg baseProfile="full" height="400" version="1.1" width="1000" xmlns="http://www.w3.org/2000/svg" xmlns:ev="http://www.w3.org/2001/xml-events" xmlns:xlink="http://www.w3.org/1999/xlink"><defs><style type="text/css"><![CDATA[.background path {fill: #808080; fill-opacity: 0}.background path:nth-child(odd) {fill-opacity: .1}.x-regions rect {fill: yellow; stroke: black; opacity: 0.5}.axes {font-size: 14px}.x-axis .tick .lab {font-weight: bold; dominant-baseline: hanging}.axes, .tree {font-size: 14px; text-anchor: middle}.axes line, .edge {stroke: black; fill: none}.axes .ax-skip {stroke-dasharray: 4}.y-axis .grid {stroke: #FAFAFA}.node > .sym {fill: black; stroke: none}.site > .sym {stroke: black}.mut text {fill: red; font-style: italic}.mut.extra text {fill: hotpink}.mut line {fill: none; stroke: none}.mut .sym {fill: none; stroke: red}.mut.extra .sym {stroke: hotpink}.node .mut .sym {stroke-width: 1.5px}.tree text, .tree-sequence text {dominant-baseline: central}.plotbox .lab.lft {text-anchor: end}.plotbox .lab.rgt {text-anchor: start}.polytomy line {stroke: black; stroke-dasharray: 1px, 1px}.polytomy text {paint-order:stroke;stroke-width:0.3em;stroke:white}]]></style></defs><g class="tree-sequence"><g class="background"><path d="M20,0 l960,0 l0,338.2 l0,25 l0,5 l-960,0 l0,-5 l0,-25 l0,-338.2z"/></g><g class="axes"><g class="x-axis"><g class="title" transform="translate(500 400)"><text class="lab" text-anchor="middle" transform="translate(0 -11)">Genome position</text></g><line class="ax-line" x1="20" x2="980" y1="363.2" y2="363.2"/><g class="ticks"><g class="tick" transform="translate(20 363.2)"><line x1="0" x2="0" y1="0" y2="5"/><g transform="translate(0 6)"><text class="lab">0</text></g></g><g class="tick" transform="translate(980 363.2)"><line x1="0" x2="0" y1="0" y2="5"/><g transform="translate(0 6)"><text class="lab">1000</text></g></g></g><g class="site s0" transform="translate(224.48 363.2)"><line class="sym" x1="0" x2="0" y1="0" y2="-10"/><g class="mut m0"><polyline class="sym" points="2.5,-6.5 0,-1.5 -2.5,-6.5"/></g></g><g class="site s1" transform="translate(367.52 363.2)"><line class="sym" x1="0" x2="0" y1="0" y2="-10"/><g class="mut m1"><polyline class="sym" points="2.5,-6.5 0,-1.5 -2.5,-6.5"/></g></g><g class="site s2" transform="translate(503.84 363.2)"><line class="sym" x1="0" x2="0" y1="0" y2="-10"/><g class="mut m2"><polyline class="sym" points="2.5,-6.5 0,-1.5 -2.5,-6.5"/></g></g><g class="site s3" transform="translate(516.32 363.2)"><line class="sym" x1="0" x2="0" y1="0" y2="-10"/><g class="mut m3"><polyline class="sym" points="2.5,-6.5 0,-1.5 -2.5,-6.5"/></g></g><g class="site s4" transform="translate(782.24 363.2)"><line class="sym" x1="0" x2="0" y1="0" y2="-10"/><g class="mut m4"><polyline class="sym" points="2.5,-6.5 0,-1.5 -2.5,-6.5"/></g></g></g></g><g class="plotbox trees"><g class="tree t0" transform="translate(20 0)"><g class="plotbox"><g class="c2 node n38 p0 root" transform="translate(743.062 26.8)"><g class="a38 c2 m2 m3 node n25 p1 s2 s3" transform="translate(150.938 291.945)"><g class="a25 i8 leaf node n8 p1 sample" transform="translate(-23 2.65546)"><path class="edge" d="M 0 0 V -2.65546 H 23"/><rect class="sym" height="6" width="6" x="-3" y="-3"/><text class="lab" transform="translate(0 11)">8</text></g><g class="a25 i12 leaf node n12 p2 sample" transform="translate(23 2.65546)"><path class="edge" d="M 0 0 V -2.65546 H -23"/><rect class="sym" height="6" width="6" x="-3" y="-3"/><text class="lab" transform="translate(0 11)">12</text></g><path class="edge" d="M 0 0 V -291.945 H -150.938"/><g class="mut m3 s3" transform="translate(0 -166.14)"><line x1="0" x2="0" y1="0" y2="166.14"/><path class="sym" d="M -3,-3 l 6,6 M -3,3 l 6,-6"/><text class="lab rgt" transform="translate(5 0)">3</text></g><g class="mut m2 s2" transform="translate(0 -58.2138)"><line x1="0" x2="0" y1="0" y2="58.2138"/><path class="sym" d="M -3,-3 l 6,6 M -3,3 l 6,-6"/><text class="lab rgt" transform="translate(5 0)">2</text></g><circle class="sym" cx="0" cy="0" r="3"/><text class="lab rgt" transform="translate(3 -7)">25</text></g><g class="a38 c2 m4 node n37 p2 s4" transform="translate(-150.938 175.324)"><g class="a37 c2 m0 node n35 p2 s0" transform="translate(184 91.0903)"><g class="a35 i14 leaf node n14 p2 sample" transform="translate(48.875 28.1858)"><path class="edge" d="M 0 0 V -28.1858 H -48.875"/><rect class="sym" height="6" width="6" x="-3" y="-3"/><text class="lab" transform="translate(0 11)">14</text></g><g class="a35 c2 node n28 p1" transform="translate(-48.875 18.59)"><g class="a28 i4 leaf node n4 p1 sample" transform="translate(51.75 9.59583)"><path class="edge" d="M 0 0 V -9.59583 H -51.75"/><rect class="sym" height="6" width="6" x="-3" y="-3"/><text class="lab" transform="translate(0 11)">4</text></g><g class="a28 c2 m1 node n26 p1 s1" transform="translate(-51.75 5.52653)"><g class="a26 i1 leaf node n1 p1 sample" transform="translate(-34.5 4.06929)"><path class="edge" d="M 0 0 V -4.06929 H 34.5"/><rect class="sym" height="6" width="6" x="-3" y="-3"/><text class="lab" transform="translate(0 11)">1</text></g><g class="a26 c2 node n23 p1" transform="translate(34.5 2.2552)"><g class="a23 i2 leaf node n2 p1 sample" transform="translate(-23 1.8141)"><path class="edge" d="M 0 0 V -1.8141 H 23"/><rect class="sym" height="6" width="6" x="-3" y="-3"/><text class="lab" transform="translate(0 11)">2</text></g><g class="a23 i6 leaf node n6 p1 sample" transform="translate(23 1.8141)"><path class="edge" d="M 0 0 V -1.8141 H -23"/><rect class="sym" height="6" width="6" x="-3" y="-3"/><text class="lab" transform="translate(0 11)">6</text></g><path class="edge" d="M 0 0 V -2.2552 H -34.5"/><circle class="sym" cx="0" cy="0" r="3"/><text class="lab rgt" transform="translate(3 -7)">23</text></g><path class="edge" d="M 0 0 V -5.52653 H 51.75"/><g class="mut m1 s1" transform="translate(0 -2.95686)"><line x1="0" x2="0" y1="0" y2="2.95686"/><path class="sym" d="M -3,-3 l 6,6 M -3,3 l 6,-6"/><text class="lab lft" transform="translate(-5 0)">1</text></g><circle class="sym" cx="0" cy="0" r="3"/><text class="lab lft" transform="translate(-3 -7)">26</text></g><path class="edge" d="M 0 0 V -18.59 H 48.875"/><circle class="sym" cx="0" cy="0" r="3"/><text class="lab lft" transform="translate(-3 -7)">28</text></g><path class="edge" d="M 0 0 V -91.0903 H -184"/><g class="mut m0 s0" transform="translate(0 -65.4629)"><line x1="0" x2="0" y1="0" y2="65.4629"/><path class="sym" d="M -3,-3 l 6,6 M -3,3 l 6,-6"/><text class="lab rgt" transform="translate(5 0)">0</text></g><circle class="sym" cx="0" cy="0" r="3"/><text class="lab rgt" transform="translate(3 -7)">35</text></g><g class="a37 c2 node n36 p1" transform="translate(-184 29.567)"><g class="a36 c2 node n32 p1" transform="translate(135.125 73.8696)"><g class="a32 i16 leaf node n16 p2 sample" transform="translate(51.75 15.8395)"><path class="edge" d="M 0 0 V -15.8395 H -51.75"/><rect class="sym" height="6" width="6" x="-3" y="-3"/><text class="lab" transform="translate(0 11)">16</text></g><g class="a32 c2 node n27 p2" transform="translate(-51.75 11.6268)"><g class="a27 i15 leaf node n15 p2 sample" transform="translate(-34.5 4.21262)"><path class="edge" d="M 0 0 V -4.21262 H 34.5"/><rect class="sym" height="6" width="6" x="-3" y="-3"/><text class="lab" transform="translate(0 11)">15</text></g><g class="a27 c2 node n21 p2" transform="translate(34.5 2.73669)"><g class="a21 i18 leaf node n18 p2 sample" transform="translate(-23 1.47592)"><path class="edge" d="M 0 0 V -1.47592 H 23"/><rect class="sym" height="6" width="6" x="-3" y="-3"/><text class="lab" transform="translate(0 11)">18</text></g><g class="a21 i19 leaf node n19 p2 sample" transform="translate(23 1.47592)"><path class="edge" d="M 0 0 V -1.47592 H -23"/><rect class="sym" height="6" width="6" x="-3" y="-3"/><text class="lab" transform="translate(0 11)">19</text></g><path class="edge" d="M 0 0 V -2.73669 H -34.5"/><circle class="sym" cx="0" cy="0" r="3"/><text class="lab rgt" transform="translate(3 -7)">21</text></g><path class="edge" d="M 0 0 V -11.6268 H 51.75"/><circle class="sym" cx="0" cy="0" r="3"/><text class="lab lft" transform="translate(-3 -7)">27</text></g><path class="edge" d="M 0 0 V -73.8696 H -135.125"/><circle class="sym" cx="0" cy="0" r="3"/><text class="lab rgt" transform="translate(3 -7)">32</text></g><g class="a36 c2 node n34 p1" transform="translate(-135.125 64.4694)"><g class="a34 c2 node n30 p1" transform="translate(103.5 14.6165)"><g class="a30 i7 leaf node n7 p1 sample" transform="translate(34.5 10.6233)"><path class="edge" d="M 0 0 V -10.6233 H -34.5"/><rect class="sym" height="6" width="6" x="-3" y="-3"/><text class="lab" transform="translate(0 11)">7</text></g><g class="a30 c2 node n29 p1" transform="translate(-34.5 0.0815506)"><g class="a29 i5 leaf node n5 p1 sample" transform="translate(-23 10.5417)"><path class="edge" d="M 0 0 V -10.5417 H 23"/><rect class="sym" height="6" width="6" x="-3" y="-3"/><text class="lab" transform="translate(0 11)">5</text></g><g class="a29 i17 leaf node n17 p2 sample" transform="translate(23 10.5417)"><path class="edge" d="M 0 0 V -10.5417 H -23"/><rect class="sym" height="6" width="6" x="-3" y="-3"/><text class="lab" transform="translate(0 11)">17</text></g><path class="edge" d="M 0 0 V -0.0815506 H 34.5"/><circle class="sym" cx="0" cy="0" r="3"/><text class="lab lft" transform="translate(-3 -7)">29</text></g><path class="edge" d="M 0 0 V -14.6165 H -103.5"/><circle class="sym" cx="0" cy="0" r="3"/><text class="lab rgt" transform="translate(3 -7)">30</text></g><g class="a34 c2 node n33 p2" transform="translate(-103.5 6.95841)"><g class="a33 c2 node n24 p2" transform="translate(-69 16.4646)"><g class="a24 i13 leaf node n13 p2 sample" transform="translate(34.5 1.8167)"><path class="edge" d="M 0 0 V -1.8167 H -34.5"/><rect class="sym" height="6" width="6" x="-3" y="-3"/><text class="lab" transform="translate(0 11)">13</text></g><g class="a24 c2 node n22 p2" transform="translate(-34.5 0.185839)"><g class="a22 i0 leaf node n0 p1 sample" transform="translate(-23 1.63086)"><path class="edge" d="M 0 0 V -1.63086 H 23"/><rect class="sym" height="6" width="6" x="-3" y="-3"/><text class="lab" transform="translate(0 11)">0</text></g><g class="a22 i11 leaf node n11 p2 sample" transform="translate(23 1.63086)"><path class="edge" d="M 0 0 V -1.63086 H -23"/><rect class="sym" height="6" width="6" x="-3" y="-3"/><text class="lab" transform="translate(0 11)">11</text></g><path class="edge" d="M 0 0 V -0.185839 H 34.5"/><circle class="sym" cx="0" cy="0" r="3"/><text class="lab lft" transform="translate(-3 -7)">22</text></g><path class="edge" d="M 0 0 V -16.4646 H 69"/><circle class="sym" cx="0" cy="0" r="3"/><text class="lab lft" transform="translate(-3 -7)">24</text></g><g class="a33 c2 node n31 p2" transform="translate(69 4.51972)"><g class="a31 i10 leaf node n10 p2 sample" transform="translate(34.5 13.7616)"><path class="edge" d="M 0 0 V -13.7616 H -34.5"/><rect class="sym" height="6" width="6" x="-3" y="-3"/><text class="lab" transform="translate(0 11)">10</text></g><g class="a31 c2 node n20 p1" transform="translate(-34.5 13.1204)"><g class="a20 i3 leaf node n3 p1 sample" transform="translate(-23 0.641207)"><path class="edge" d="M 0 0 V -0.641207 H 23"/><rect class="sym" height="6" width="6" x="-3" y="-3"/><text class="lab" transform="translate(0 11)">3</text></g><g class="a20 i9 leaf node n9 p1 sample" transform="translate(23 0.641207)"><path class="edge" d="M 0 0 V -0.641207 H -23"/><rect class="sym" height="6" width="6" x="-3" y="-3"/><text class="lab" transform="translate(0 11)">9</text></g><path class="edge" d="M 0 0 V -13.1204 H 34.5"/><circle class="sym" cx="0" cy="0" r="3"/><text class="lab lft" transform="translate(-3 -7)">20</text></g><path class="edge" d="M 0 0 V -4.51972 H -69"/><circle class="sym" cx="0" cy="0" r="3"/><text class="lab rgt" transform="translate(3 -7)">31</text></g><path class="edge" d="M 0 0 V -6.95841 H 103.5"/><circle class="sym" cx="0" cy="0" r="3"/><text class="lab lft" transform="translate(-3 -7)">33</text></g><path class="edge" d="M 0 0 V -64.4694 H 135.125"/><circle class="sym" cx="0" cy="0" r="3"/><text class="lab lft" transform="translate(-3 -7)">34</text></g><path class="edge" d="M 0 0 V -29.567 H 184"/><circle class="sym" cx="0" cy="0" r="3"/><text class="lab lft" transform="translate(-3 -7)">36</text></g><path class="edge" d="M 0 0 V -175.324 H 150.938"/><g class="mut m4 s4" transform="translate(0 -43.5644)"><line x1="0" x2="0" y1="0" y2="43.5644"/><path class="sym" d="M -3,-3 l 6,6 M -3,3 l 6,-6"/><text class="lab lft" transform="translate(-5 0)">4</text></g><circle class="sym" cx="0" cy="0" r="3"/><text class="lab lft" transform="translate(-3 -7)">37</text></g><circle class="sym" cx="0" cy="0" r="3"/><text class="lab" transform="translate(0 -11)">38</text></g></g></g></g></g></svg>