<svg baseProfile="full" height="400" version="1.1" width="1000" xmlns="http://www.w3.org/2000/svg" xmlns:ev="http://www.w3.org/2001/xml-events" xmlns:xlink="http://www.w3.org/1999/xlink"><defs><style type="text/css"><![CDATA[.background path {fill: #808080; fill-opacity: 0}.background path:nth-child(odd) {fill-opacity: .1}.x-regions rect {fill: yellow; stroke: black; opacity: 0.5}.axes {font-size: 14px}.x-axis .tick .lab {font-weight: bold; dominant-baseline: hanging}.axes, .tree {font-size: 14px; text-anchor: middle}.axes line, .edge {stroke: black; fill: none}.axes .ax-skip {stroke-dasharray: 4}.y-axis .grid {stroke: #FAFAFA}.node > .sym {fill: black; stroke: none}.site > .sym {stroke: black}.mut text {fill: red; font-style: italic}.mut.extra text {fill: hotpink}.mut line {fill: none; stroke: none}.mut .sym {fill: none; stroke: red}.mut.extra .sym {stroke: hotpink}.node .mut .sym {stroke-width: 1.5px}.tree text, .tree-sequence text {dominant-baseline: central}.plotbox .lab.lft {text-anchor: end}.plotbox .lab.rgt {text-anchor: start}.polytomy line {stroke: black; stroke-dasharray: 1px, 1px}.polytomy text {paint-order:stroke;stroke-width:0.3em;stroke:white}]]></style></defs><g class="tree-sequence"><g class="background"><path d="M20,0 l960,0 l0,338.2 l0,25 l0,5 l-960,0 l0,-5 l0,-25 l0,-338.2z"/></g><g class="axes"><g class="x-axis"><g class="title" transform="translate(500 400)"><text class="lab" text-anchor="middle" transform="translate(0 -11)">Genome position</text></g><line class="ax-line" x1="20" x2="980" y1="363.2" y2="363.2"/><g class="ticks"><g class="tick" transform="translate(20 363.2)"><line x1="0" x2="0" y1="0" y2="5"/><g transform="translate(0 6)"><text class="lab">0</text></g></g><g class="tick" transform="translate(980 363.2)"><line x1="0" x2="0" y1="0" y2="5"/><g transform="translate(0 6)"><text class="lab">1000</text></g></g></g><g class="site s0" transform="translate(114.08 363.2)"><line class="sym" x1="0" x2="0" y1="0" y2="-10"/><g class="mut m0"><polyline class="sym" points="2.5,-6.5 0,-1.5 -2.5,-6.5"/></g></g><g class="site s1" transform="translate(160.16 363.2)"><line class="sym" x1="0" x2="0" y1="0" y2="-10"/><g class="mut m1"><polyline class="sym" points="2.5,-6.5 0,-1.5 -2.5,-6.5"/></g></g><g class="site s2" transform="translate(464.48 363.2)"><line class="sym" x1="0" x2="0" y1="0" y2="-10"/><g class="mut m2"><polyline class="sym" points="2.5,-6.5 0,-1.5 -2.5,-6.5"/></g></g><g class="site s3" transform="translate(467.36 363.2)"><line class="sym" x1="0" x2="0" y1="0" y2="-10"/><g class="mut m3"><polyline class="sym" points="2.5,-6.5 0,-1.5 -2.5,-6.5"/></g></g></g></g><g class="plotbox trees"><g class="tree t0" transform="translate(20 0)"><g class="plotbox"><g class="c2 node n38 p1 root" transform="translate(681.609 26.8)"><g class="a38 c2 node n35 p2" transform="translate(169.266 229.572)"><g class="a35 i14 leaf node n14 p2 sample" transform="translate(66.125 65.0282)"><path class="edge" d="M 0 0 V -65.0282 H -66.125"/><rect class="sym" height="6" width="6" x="-3" y="-3"/><text class="lab" transform="translate(0 11)">14</text></g><g class="a35 c2 node n30 p1" transform="translate(-66.125 29.5045)"><g class="a30 c2 node n25 p2" transform="translate(-63.25 24.5969)"><g class="a25 i1 leaf node n1 p1 sample" transform="translate(-34.5 10.9268)"><path class="edge" d="M 0 0 V -10.9268 H 34.5"/><rect class="sym" height="6" width="6" x="-3" y="-3"/><text class="lab" transform="translate(0 11)">1</text></g><g class="a25 c2 node n24 p2" transform="translate(34.5 0.0779299)"><g class="a24 i10 leaf node n10 p2 sample" transform="translate(-23 10.8489)"><path class="edge" d="M 0 0 V -10.8489 H 23"/><rect class="sym" height="6" width="6" x="-3" y="-3"/><text class="lab" transform="translate(0 11)">10</text></g><g class="a24 i16 leaf m1 node n16 p2 s1 sample" transform="translate(23 10.8489)"><path class="edge" d="M 0 0 V -10.8489 H -23"/><g class="mut m1 s1" transform="translate(0 -3.18062)"><line x1="0" x2="0" y1="0" y2="3.18062"/><path class="sym" d="M -3,-3 l 6,6 M -3,3 l 6,-6"/><text class="lab rgt" transform="translate(5 0)">1</text></g><rect class="sym" height="6" width="6" x="-3" y="-3"/><text class="lab" transform="translate(0 11)">16</text></g><path class="edge" d="M 0 0 V -0.0779299 H -34.5"/><circle class="sym" cx="0" cy="0" r="3"/><text class="lab rgt" transform="translate(3 -7)">24</text></g><path class="edge" d="M 0 0 V -24.5969 H 63.25"/><circle class="sym" cx="0" cy="0" r="3"/><text class="lab lft" transform="translate(-3 -7)">25</text></g><g class="a30 c2 node n26 p2" transform="translate(63.25 19.4555)"><g class="a26 i2 leaf m0 node n2 p1 s0 sample" transform="translate(-23 16.0682)"><path class="edge" d="M 0 0 V -16.0682 H 23"/><g class="mut m0 s0" transform="translate(0 -10.0261)"><line x1="0" x2="0" y1="0" y2="10.0261"/><path class="sym" d="M -3,-3 l 6,6 M -3,3 l 6,-6"/><text class="lab lft" transform="translate(-5 0)">0</text></g><rect class="sym" height="6" width="6" x="-3" y="-3"/><text class="lab" transform="translate(0 11)">2</text></g><g class="a26 i18 leaf node n18 p2 sample" transform="translate(23 16.0682)"><path class="edge" d="M 0 0 V -16.0682 H -23"/><rect class="sym" height="6" width="6" x="-3" y="-3"/><text class="lab" transform="translate(0 11)">18</text></g><path class="edge" d="M 0 0 V -19.4555 H -63.25"/><circle class="sym" cx="0" cy="0" r="3"/><text class="lab rgt" transform="translate(3 -7)">26</text></g><path class="edge" d="M 0 0 V -29.5045 H 66.125"/><circle class="sym" cx="0" cy="0" r="3"/><text class="lab lft" transform="translate(-3 -7)">30</text></g><path class="edge" d="M 0 0 V -229.572 H -169.266"/><circle class="sym" cx="0" cy="0" r="3"/><text class="lab rgt" transform="translate(3 -7)">35</text></g><g class="a38 c2 node n37 p1" transform="translate(-169.266 210.966)"><g class="a37 c2 m2 node n23 p1 s2" transform="translate(105.656 77.685)"><g class="a23 i4 leaf node n4 p1 sample" transform="translate(-23 5.94925)"><path class="edge" d="M 0 0 V -5.94925 H 23"/><rect class="sym" height="6" width="6" x="-3" y="-3"/><text class="lab" transform="translate(0 11)">4</text></g><g class="a23 i5 leaf node n5 p1 sample" transform="translate(23 5.94925)"><path class="edge" d="M 0 0 V -5.94925 H -23"/><rect class="sym" height="6" width="6" x="-3" y="-3"/><text class="lab" transform="translate(0 11)">5</text></g><path class="edge" d="M 0 0 V -77.685 H -105.656"/><g class="mut m2 s2" transform="translate(0 -5.17011)"><line x1="0" x2="0" y1="0" y2="5.17011"/><path class="sym" d="M -3,-3 l 6,6 M -3,3 l 6,-6"/><text class="lab rgt" transform="translate(5 0)">2</text></g><circle class="sym" cx="0" cy="0" r="3"/><text class="lab rgt" transform="translate(3 -7)">23</text></g><g class="a37 c2 node n36 p2" transform="translate(-105.656 13.8798)"><g class="a36 c2 node n31 p2" transform="translate(84.8125 31.4042)"><g class="a31 i6 leaf node n6 p1 sample" transform="translate(-34.5 38.3503)"><path class="edge" d="M 0 0 V -38.3503 H 34.5"/><rect class="sym" height="6" width="6" x="-3" y="-3"/><text class="lab" transform="translate(0 11)">6</text></g><g class="a31 c2 node n28 p2" transform="translate(34.5 20.1582)"><g class="a28 i8 leaf node n8 p1 sample" transform="translate(-23 18.1921)"><path class="edge" d="M 0 0 V -18.1921 H 23"/><rect class="sym" height="6" width="6" x="-3" y="-3"/><text class="lab" transform="translate(0 11)">8</text></g><g class="a28 i15 leaf node n15 p2 sample" transform="translate(23 18.1921)"><path class="edge" d="M 0 0 V -18.1921 H -23"/><rect class="sym" height="6" width="6" x="-3" y="-3"/><text class="lab" transform="translate(0 11)">15</text></g><path class="edge" d="M 0 0 V -20.1582 H -34.5"/><circle class="sym" cx="0" cy="0" r="3"/><text class="lab rgt" transform="translate(3 -7)">28</text></g><path class="edge" d="M 0 0 V -31.4042 H -84.8125"/><circle class="sym" cx="0" cy="0" r="3"/><text class="lab rgt" transform="translate(3 -7)">31</text></g><g class="a36 c2 node n34 p2" transform="translate(-84.8125 12.3743)"><g class="a34 i3 leaf node n3 p1 sample" transform="translate(89.125 57.3802)"><path class="edge" d="M 0 0 V -57.3802 H -89.125"/><rect class="sym" height="6" width="6" x="-3" y="-3"/><text class="lab" transform="translate(0 11)">3</text></g><g class="a34 c2 node n33 p1" transform="translate(-89.125 2.29259)"><g class="a33 c2 node n27 p1" transform="translate(92 37.0756)"><g class="a27 i12 leaf node n12 p2 sample" transform="translate(40.25 18.012)"><path class="edge" d="M 0 0 V -18.012 H -40.25"/><rect class="sym" height="6" width="6" x="-3" y="-3"/><text class="lab" transform="translate(0 11)">12</text></g><g class="a27 c2 node n21 p1" transform="translate(-40.25 13.9691)"><g class="a21 i17 leaf node n17 p2 sample" transform="translate(34.5 4.04294)"><path class="edge" d="M 0 0 V -4.04294 H -34.5"/><rect class="sym" height="6" width="6" x="-3" y="-3"/><text class="lab" transform="translate(0 11)">17</text></g><g class="a21 c2 node n20 p2" transform="translate(-34.5 0.339056)"><g class="a20 i7 leaf node n7 p1 sample" transform="translate(-23 3.70388)"><path class="edge" d="M 0 0 V -3.70388 H 23"/><rect class="sym" height="6" width="6" x="-3" y="-3"/><text class="lab" transform="translate(0 11)">7</text></g><g class="a20 i9 leaf node n9 p1 sample" transform="translate(23 3.70388)"><path class="edge" d="M 0 0 V -3.70388 H -23"/><rect class="sym" height="6" width="6" x="-3" y="-3"/><text class="lab" transform="translate(0 11)">9</text></g><path class="edge" d="M 0 0 V -0.339056 H 34.5"/><circle class="sym" cx="0" cy="0" r="3"/><text class="lab lft" transform="translate(-3 -7)">20</text></g><path class="edge" d="M 0 0 V -13.9691 H 40.25"/><circle class="sym" cx="0" cy="0" r="3"/><text class="lab lft" transform="translate(-3 -7)">21</text></g><path class="edge" d="M 0 0 V -37.0756 H -92"/><circle class="sym" cx="0" cy="0" r="3"/><text class="lab rgt" transform="translate(3 -7)">27</text></g><g class="a33 c2 node n32 p2" transform="translate(-92 13.2049)"><g class="a32 i11 leaf m3 node n11 p2 s3 sample" transform="translate(40.25 41.8827)"><path class="edge" d="M 0 0 V -41.8827 H -40.25"/><g class="mut m3 s3" transform="translate(0 -7.95151)"><line x1="0" x2="0" y1="0" y2="7.95151"/><path class="sym" d="M -3,-3 l 6,6 M -3,3 l 6,-6"/><text class="lab rgt" transform="translate(5 0)">3</text></g><rect class="sym" height="6" width="6" x="-3" y="-3"/><text class="lab" transform="translate(0 11)">11</text></g><g class="a32 c2 node n29 p1" transform="translate(-40.25 10.8011)"><g class="a29 i19 leaf node n19 p2 sample" transform="translate(34.5 31.0816)"><path class="edge" d="M 0 0 V -31.0816 H -34.5"/><rect class="sym" height="6" width="6" x="-3" y="-3"/><text class="lab" transform="translate(0 11)">19</text></g><g class="a29 c2 node n22 p1" transform="translate(-34.5 26.1582)"><g class="a22 i0 leaf node n0 p1 sample" transform="translate(-23 4.92336)"><path class="edge" d="M 0 0 V -4.92336 H 23"/><rect class="sym" height="6" width="6" x="-3" y="-3"/><text class="lab" transform="translate(0 11)">0</text></g><g class="a22 i13 leaf node n13 p2 sample" transform="translate(23 4.92336)"><path class="edge" d="M 0 0 V -4.92336 H -23"/><rect class="sym" height="6" width="6" x="-3" y="-3"/><text class="lab" transform="translate(0 11)">13</text></g><path class="edge" d="M 0 0 V -26.1582 H 34.5"/><circle class="sym" cx="0" cy="0" r="3"/><text class="lab lft" transform="translate(-3 -7)">22</text></g><path class="edge" d="M 0 0 V -10.8011 H 40.25"/><circle class="sym" cx="0" cy="0" r="3"/><text class="lab lft" transform="translate(-3 -7)">29</text></g><path class="edge" d="M 0 0 V -13.2049 H 92"/><circle class="sym" cx="0" cy="0" r="3"/><text class="lab lft" transform="translate(-3 -7)">32</text></g><path class="edge" d="M 0 0 V -2.29259 H 89.125"/><circle class="sym" cx="0" cy="0" r="3"/><text class="lab lft" transform="translate(-3 -7)">33</text></g><path class="edge" d="M 0 0 V -12.3743 H 84.8125"/><circle class="sym" cx="0" cy="0" r="3"/><text class="lab lft" transform="translate(-3 -7)">34</text></g><path class="edge" d="M 0 0 V -13.8798 H 105.656"/><circle class="sym" cx="0" cy="0" r="3"/><text class="lab lft" transform="translate(-3 -7)">36</text></g><path class="edge" d="M 0 0 V -210.966 H 169.266"/><circle class="sym" cx="0" cy="0" r="3"/><text class="lab lft" transform="translate(-3 -7)">37</text></g><circle class="sym" cx="0" cy="0" r="3"/><text class="lab" transform="translate(0 -11)">38</text></g></g></g></g></g></svg>