<svg baseProfile="full" height="400" version="1.1" width="1000" xmlns="http://www.w3.org/2000/svg" xmlns:ev="http://www.w3.org/2001/xml-events" xmlns:xlink="http://www.w3.org/1999/xlink"><defs><style type="text/css"><![CDATA[.background path {fill: #808080; fill-opacity: 0}.background path:nth-child(odd) {fill-opacity: .1}.x-regions rect {fill: yellow; stroke: black; opacity: 0.5}.axes {font-size: 14px}.x-axis .tick .lab {font-weight: bold; dominant-baseline: hanging}.axes, .tree {font-size: 14px; text-anchor: middle}.axes line, .edge {stroke: black; fill: none}.axes .ax-skip {stroke-dasharray: 4}.y-axis .grid {stroke: #FAFAFA}.node > .sym {fill: black; stroke: none}.site > .sym {stroke: black}.mut text {fill: red; font-style: italic}.mut.extra text {fill: hotpink}.mut line {fill: none; stroke: none}.mut .sym {fill: none; stroke: red}.mut.extra .sym {stroke: hotpink}.node .mut .sym {stroke-width: 1.5px}.tree text, .tree-sequence text {dominant-baseline: central}.plotbox .lab.lft {text-anchor: end}.plotbox .lab.rgt {text-anchor: start}.polytomy line {stroke: black; stroke-dasharray: 1px, 1px}.polytomy text {paint-order:stroke;stroke-width:0.3em;stroke:white}]]></style></defs><g class="tree-sequence"><g class="background"><path d="M20,0 l960,0 l0,338.2 l0,25 l0,5 l-960,0 l0,-5 l0,-25 l0,-338.2z"/></g><g class="axes"><g class="x-axis"><g class="title" transform="translate(500 400)"><text class="lab" text-anchor="middle" transform="translate(0 -11)">Genome position</text></g><line class="ax-line" x1="20" x2="980" y1="363.2" y2="363.2"/><g class="ticks"><g class="tick" transform="translate(20 363.2)"><line x1="0" x2="0" y1="0" y2="5"/><g transform="translate(0 6)"><text class="lab">0</text></g></g><g class="tick" transform="translate(980 363.2)"><line x1="0" x2="0" y1="0" y2="5"/><g transform="translate(0 6)"><text class="lab">1000</text></g></g></g><g class="site s0" transform="translate(315.68 363.2)"><line class="sym" x1="0" x2="0" y1="0" y2="-10"/><g class="mut m0"><polyline class="sym" points="2.5,-6.5 0,-1.5 -2.5,-6.5"/></g></g><g class="site s1" transform="translate(540.32 363.2)"><line class="sym" x1="0" x2="0" y1="0" y2="-10"/><g class="mut m1"><polyline class="sym" points="2.5,-6.5 0,-1.5 -2.5,-6.5"/></g></g><g class="site s2" transform="translate(802.4 363.2)"><line class="sym" x1="0" x2="0" y1="0" y2="-10"/><g class="mut m2"><polyline class="sym" points="2.5,-6.5 0,-1.5 -2.5,-6.5"/></g></g><g class="site s3" transform="translate(962.72 363.2)"><line class="sym" x1="0" x2="0" y1="0" y2="-10"/><g class="mut m3"><polyline class="sym" points="2.5,-6.5 0,-1.5 -2.5,-6.5"/></g></g></g></g><g class="plotbox trees"><g class="tree t0" transform="translate(20 0)"><g class="plotbox"><g class="c2 node n38 p2 root" transform="translate(404.262 26.8)"><g class="a38 c2 node n35 p2" transform="translate(326.762 243.235)"><g class="a35 c2 node n27 p2" transform="translate(151.477 44.0553)"><g class="a27 i5 leaf node n5 p1 sample" transform="translate(34.5 7.30941)"><path class="edge" d="M 0 0 V -7.30941 H -34.5"/><rect class="sym" height="6" width="6" x="-3" y="-3"/><text class="lab" transform="translate(0 11)">5</text></g><g class="a27 c2 node n24 p1" transform="translate(-34.5 3.20122)"><g class="a24 i3 leaf node n3 p1 sample" transform="translate(-23 4.10819)"><path class="edge" d="M 0 0 V -4.10819 H 23"/><rect class="sym" height="6" width="6" x="-3" y="-3"/><text class="lab" transform="translate(0 11)">3</text></g><g class="a24 i7 leaf node n7 p1 sample" transform="translate(23 4.10819)"><path class="edge" d="M 0 0 V -4.10819 H -23"/><rect class="sym" height="6" width="6" x="-3" y="-3"/><text class="lab" transform="translate(0 11)">7</text></g><path class="edge" d="M 0 0 V -3.20122 H 34.5"/><circle class="sym" cx="0" cy="0" r="3"/><text class="lab lft" transform="translate(-3 -7)">24</text></g><path class="edge" d="M 0 0 V -44.0553 H -151.477"/><circle class="sym" cx="0" cy="0" r="3"/><text class="lab rgt" transform="translate(3 -7)">27</text></g><g class="a35 c2 node n34 p2" transform="translate(-151.477 15.6507)"><g class="a34 c2 node n29 p2" transform="translate(-139.078 23.7305)"><g class="a29 i8 leaf node n8 p1 sample" transform="translate(62.5312 11.9835)"><path class="edge" d="M 0 0 V -11.9835 H -62.5312"/><rect class="sym" height="6" width="6" x="-3" y="-3"/><text class="lab" transform="translate(0 11)">8</text></g><g class="a29 c2 node n28 p2" transform="translate(-62.5312 4.2156)"><g class="a28 c2 node n20 p1" transform="translate(56.0625 4.31883)"><g class="a20 i10 leaf node n10 p2 sample" transform="translate(-23 3.44905)"><path class="edge" d="M 0 0 V -3.44905 H 23"/><rect class="sym" height="6" width="6" x="-3" y="-3"/><text class="lab" transform="translate(0 11)">10</text></g><g class="a20 i15 leaf node n15 p2 sample" transform="translate(23 3.44905)"><path class="edge" d="M 0 0 V -3.44905 H -23"/><rect class="sym" height="6" width="6" x="-3" y="-3"/><text class="lab" transform="translate(0 11)">15</text></g><path class="edge" d="M 0 0 V -4.31883 H -56.0625"/><circle class="sym" cx="0" cy="0" r="3"/><text class="lab rgt" transform="translate(3 -7)">20</text></g><g class="a28 c2 node n26 p2" transform="translate(-56.0625 0.570173)"><g class="a26 i16 leaf node n16 p2 sample" transform="translate(43.125 7.19771)"><path class="edge" d="M 0 0 V -7.19771 H -43.125"/><rect class="sym" height="6" width="6" x="-3" y="-3"/><text class="lab" transform="translate(0 11)">16</text></g><g class="a26 c2 node n25 p2" transform="translate(-43.125 2.30565)"><g class="a25 i9 leaf node n9 p1 sample" transform="translate(40.25 4.89206)"><path class="edge" d="M 0 0 V -4.89206 H -40.25"/><rect class="sym" height="6" width="6" x="-3" y="-3"/><text class="lab" transform="translate(0 11)">9</text></g><g class="a25 c2 node n22 p1" transform="translate(-40.25 0.83495)"><g class="a22 i18 leaf node n18 p2 sample" transform="translate(34.5 4.05711)"><path class="edge" d="M 0 0 V -4.05711 H -34.5"/><rect class="sym" height="6" width="6" x="-3" y="-3"/><text class="lab" transform="translate(0 11)">18</text></g><g class="a22 c2 node n21 p1" transform="translate(-34.5 0.519005)"><g class="a21 i2 leaf node n2 p1 sample" transform="translate(-23 3.5381)"><path class="edge" d="M 0 0 V -3.5381 H 23"/><rect class="sym" height="6" width="6" x="-3" y="-3"/><text class="lab" transform="translate(0 11)">2</text></g><g class="a21 i6 leaf node n6 p1 sample" transform="translate(23 3.5381)"><path class="edge" d="M 0 0 V -3.5381 H -23"/><rect class="sym" height="6" width="6" x="-3" y="-3"/><text class="lab" transform="translate(0 11)">6</text></g><path class="edge" d="M 0 0 V -0.519005 H 34.5"/><circle class="sym" cx="0" cy="0" r="3"/><text class="lab lft" transform="translate(-3 -7)">21</text></g><path class="edge" d="M 0 0 V -0.83495 H 40.25"/><circle class="sym" cx="0" cy="0" r="3"/><text class="lab lft" transform="translate(-3 -7)">22</text></g><path class="edge" d="M 0 0 V -2.30565 H 43.125"/><circle class="sym" cx="0" cy="0" r="3"/><text class="lab lft" transform="translate(-3 -7)">25</text></g><path class="edge" d="M 0 0 V -0.570173 H 56.0625"/><circle class="sym" cx="0" cy="0" r="3"/><text class="lab lft" transform="translate(-3 -7)">26</text></g><path class="edge" d="M 0 0 V -4.2156 H 62.5312"/><circle class="sym" cx="0" cy="0" r="3"/><text class="lab lft" transform="translate(-3 -7)">28</text></g><path class="edge" d="M 0 0 V -23.7305 H 139.078"/><circle class="sym" cx="0" cy="0" r="3"/><text class="lab lft" transform="translate(-3 -7)">29</text></g><g class="a34 c2 m1 node n33 p1 s1" transform="translate(139.078 20.8071)"><g class="a33 i13 leaf node n13 p2 sample" transform="translate(60.375 14.9069)"><path class="edge" d="M 0 0 V -14.9069 H -60.375"/><rect class="sym" height="6" width="6" x="-3" y="-3"/><text class="lab" transform="translate(0 11)">13</text></g><g class="a33 c2 node n32 p1" transform="translate(-60.375 0.00316707)"><g class="a32 c2 node n30 p1" transform="translate(-51.75 2.53714)"><g class="a30 i12 leaf node n12 p2 sample" transform="translate(34.5 12.3666)"><path class="edge" d="M 0 0 V -12.3666 H -34.5"/><rect class="sym" height="6" width="6" x="-3" y="-3"/><text class="lab" transform="translate(0 11)">12</text></g><g class="a30 c2 node n23 p1" transform="translate(-34.5 8.25996)"><g class="a23 i4 leaf m2 node n4 p1 s2 sample" transform="translate(-23 4.10661)"><path class="edge" d="M 0 0 V -4.10661 H 23"/><g class="mut m2 s2" transform="translate(0 -2.32484)"><line x1="0" x2="0" y1="0" y2="2.32484"/><path class="sym" d="M -3,-3 l 6,6 M -3,3 l 6,-6"/><text class="lab lft" transform="translate(-5 0)">2</text></g><rect class="sym" height="6" width="6" x="-3" y="-3"/><text class="lab" transform="translate(0 11)">4</text></g><g class="a23 i17 leaf node n17 p2 sample" transform="translate(23 4.10661)"><path class="edge" d="M 0 0 V -4.10661 H -23"/><rect class="sym" height="6" width="6" x="-3" y="-3"/><text class="lab" transform="translate(0 11)">17</text></g><path class="edge" d="M 0 0 V -8.25996 H 34.5"/><circle class="sym" cx="0" cy="0" r="3"/><text class="lab lft" transform="translate(-3 -7)">23</text></g><path class="edge" d="M 0 0 V -2.53714 H 51.75"/><circle class="sym" cx="0" cy="0" r="3"/><text class="lab lft" transform="translate(-3 -7)">30</text></g><g class="a32 c2 node n31 p2" transform="translate(51.75 1.09677)"><g class="a31 i14 leaf node n14 p2 sample" transform="translate(-23 13.8069)"><path class="edge" d="M 0 0 V -13.8069 H 23"/><rect class="sym" height="6" width="6" x="-3" y="-3"/><text class="lab" transform="translate(0 11)">14</text></g><g class="a31 i19 leaf node n19 p2 sample" transform="translate(23 13.8069)"><path class="edge" d="M 0 0 V -13.8069 H -23"/><rect class="sym" height="6" width="6" x="-3" y="-3"/><text class="lab" transform="translate(0 11)">19</text></g><path class="edge" d="M 0 0 V -1.09677 H -51.75"/><circle class="sym" cx="0" cy="0" r="3"/><text class="lab rgt" transform="translate(3 -7)">31</text></g><path class="edge" d="M 0 0 V -0.00316707 H 60.375"/><circle class="sym" cx="0" cy="0" r="3"/><text class="lab lft" transform="translate(-3 -7)">32</text></g><path class="edge" d="M 0 0 V -20.8071 H -139.078"/><g class="mut m1 s1" transform="translate(0 -13.9965)"><line x1="0" x2="0" y1="0" y2="13.9965"/><path class="sym" d="M -3,-3 l 6,6 M -3,3 l 6,-6"/><text class="lab rgt" transform="translate(5 0)">1</text></g><circle class="sym" cx="0" cy="0" r="3"/><text class="lab rgt" transform="translate(3 -7)">33</text></g><path class="edge" d="M 0 0 V -15.6507 H 151.477"/><circle class="sym" cx="0" cy="0" r="3"/><text class="lab lft" transform="translate(-3 -7)">34</text></g><path class="edge" d="M 0 0 V -243.235 H -326.762"/><circle class="sym" cx="0" cy="0" r="3"/><text class="lab rgt" transform="translate(3 -7)">35</text></g><g class="a38 c2 m0 node n37 p1 s0" transform="translate(-326.762 168.408)"><g class="a37 i0 leaf m3 node n0 p1 s3 sample" transform="translate(-34.5 126.192)"><path class="edge" d="M 0 0 V -126.192 H 34.5"/><g class="mut m3 s3" transform="translate(0 -23.9069)"><line x1="0" x2="0" y1="0" y2="23.9069"/><path class="sym" d="M -3,-3 l 6,6 M -3,3 l 6,-6"/><text class="lab lft" transform="translate(-5 0)">3</text></g><rect class="sym" height="6" width="6" x="-3" y="-3"/><text class="lab" transform="translate(0 11)">0</text></g><g class="a37 c2 node n36 p2" transform="translate(34.5 68.5648)"><g class="a36 i1 leaf node n1 p1 sample" transform="translate(-23 57.6269)"><path class="edge" d="M 0 0 V -57.6269 H 23"/><rect class="sym" height="6" width="6" x="-3" y="-3"/><text class="lab" transform="translate(0 11)">1</text></g><g class="a36 i11 leaf node n11 p2 sample" transform="translate(23 57.6269)"><path class="edge" d="M 0 0 V -57.6269 H -23"/><rect class="sym" height="6" width="6" x="-3" y="-3"/><text class="lab" transform="translate(0 11)">11</text></g><path class="edge" d="M 0 0 V -68.5648 H -34.5"/><circle class="sym" cx="0" cy="0" r="3"/><text class="lab rgt" transform="translate(3 -7)">36</text></g><path class="edge" d="M 0 0 V -168.408 H 326.762"/><g class="mut m0 s0" transform="translate(0 -118.288)"><line x1="0" x2="0" y1="0" y2="118.288"/><path class="sym" d="M -3,-3 l 6,6 M -3,3 l 6,-6"/><text class="lab lft" transform="translate(-5 0)">0</text></g><circle class="sym" cx="0" cy="0" r="3"/><text class="lab lft" transform="translate(-3 -7)">37</text></g><circle class="sym" cx="0" cy="0" r="3"/><text class="lab" transform="translate(0 -11)">38</text></g></g></g></g></g></svg>