<svg baseProfile="full" height="400" version="1.1" width="1000" xmlns="http://www.w3.org/2000/svg" xmlns:ev="http://www.w3.org/2001/xml-events" xmlns:xlink="http://www.w3.org/1999/xlink"><defs><style type="text/css"><![CDATA[.background path {fill: #808080; fill-opacity: 0}.background path:nth-child(odd) {fill-opacity: .1}.x-regions rect {fill: yellow; stroke: black; opacity: 0.5}.axes {font-size: 14px}.x-axis .tick .lab {font-weight: bold; dominant-baseline: hanging}.axes, .tree {font-size: 14px; text-anchor: middle}.axes line, .edge {stroke: black; fill: none}.axes .ax-skip {stroke-dasharray: 4}.y-axis .grid {stroke: #FAFAFA}.node > .sym {fill: black; stroke: none}.site > .sym {stroke: black}.mut text {fill: red; font-style: italic}.mut.extra text {fill: hotpink}.mut line {fill: none; stroke: none}.mut .sym {fill: none; stroke: red}.mut.extra .sym {stroke: hotpink}.node .mut .sym {stroke-width: 1.5px}.tree text, .tree-sequence text {dominant-baseline: central}.plotbox .lab.lft {text-anchor: end}.plotbox .lab.rgt {text-anchor: start}.polytomy line {stroke: black; stroke-dasharray: 1px, 1px}.polytomy text {paint-order:stroke;stroke-width:0.3em;stroke:white}]]></style></defs><g class="tree-sequence"><g class="background"><path d="M20,0 l960,0 l0,338.2 l0,25 l0,5 l-960,0 l0,-5 l0,-25 l0,-338.2z"/></g><g class="axes"><g class="x-axis"><g class="title" transform="translate(500 400)"><text class="lab" text-anchor="middle" transform="translate(0 -11)">Genome position</text></g><line class="ax-line" x1="20" x2="980" y1="363.2" y2="363.2"/><g class="ticks"><g class="tick" transform="translate(20 363.2)"><line x1="0" x2="0" y1="0" y2="5"/><g transform="translate(0 6)"><text class="lab">0</text></g></g><g class="tick" transform="translate(980 363.2)"><line x1="0" x2="0" y1="0" y2="5"/><g transform="translate(0 6)"><text class="lab">1000</text></g></g></g><g class="site s0" transform="translate(81.44 363.2)"><line class="sym" x1="0" x2="0" y1="0" y2="-10"/><g class="mut m0"><polyline class="sym" points="2.5,-6.5 0,-1.5 -2.5,-6.5"/></g></g><g class="site s1" transform="translate(278.24 363.2)"><line class="sym" x1="0" x2="0" y1="0" y2="-10"/><g class="mut m1"><polyline class="sym" points="2.5,-6.5 0,-1.5 -2.5,-6.5"/></g></g><g class="site s2" transform="translate(299.36 363.2)"><line class="sym" x1="0" x2="0" y1="0" y2="-10"/><g class="mut m2"><polyline class="sym" points="2.5,-6.5 0,-1.5 -2.5,-6.5"/></g></g><g class="site s3" transform="translate(434.72 363.2)"><line class="sym" x1="0" x2="0" y1="0" y2="-10"/><g class="mut m3"><polyline class="sym" points="2.5,-6.5 0,-1.5 -2.5,-6.5"/></g></g><g class="site s4" transform="translate(488.48 363.2)"><line class="sym" x1="0" x2="0" y1="0" y2="-10"/><g class="mut m4"><polyline class="sym" points="2.5,-6.5 0,-1.5 -2.5,-6.5"/></g></g><g class="site s5" transform="translate(497.12 363.2)"><line class="sym" x1="0" x2="0" y1="0" y2="-10"/><g class="mut m5"><polyline class="sym" points="2.5,-6.5 0,-1.5 -2.5,-6.5"/></g></g><g class="site s6" transform="translate(867.68 363.2)"><line class="sym" x1="0" x2="0" y1="0" y2="-10"/><g class="mut m6"><polyline class="sym" points="2.5,-6.5 0,-1.5 -2.5,-6.5"/></g></g></g></g><g class="plotbox trees"><g class="tree t0" transform="translate(20 0)"><g class="plotbox"><g class="c2 node n38 p0 root" transform="translate(541.812 26.8)"><g class="a38 c2 node n36 p1" transform="translate(-264.5 254.248)"><g class="a36 c2 m3 node n33 p1 s3" transform="translate(93.4375 25.7911)"><g class="a33 c2 node n27 p2" transform="translate(63.25 8.70501)"><g class="a27 i4 leaf node n4 p1 sample" transform="translate(-23 5.85631)"><path class="edge" d="M 0 0 V -5.85631 H 23"/><rect class="sym" height="6" width="6" x="-3" y="-3"/><text class="lab" transform="translate(0 11)">4</text></g><g class="a27 i5 leaf node n5 p1 sample" transform="translate(23 5.85631)"><path class="edge" d="M 0 0 V -5.85631 H -23"/><rect class="sym" height="6" width="6" x="-3" y="-3"/><text class="lab" transform="translate(0 11)">5</text></g><path class="edge" d="M 0 0 V -8.70501 H -63.25"/><circle class="sym" cx="0" cy="0" r="3"/><text class="lab rgt" transform="translate(3 -7)">27</text></g><g class="a33 c2 node n31 p2" transform="translate(-63.25 3.92021)"><g class="a31 i2 leaf node n2 p1 sample" transform="translate(-34.5 10.6411)"><path class="edge" d="M 0 0 V -10.6411 H 34.5"/><rect class="sym" height="6" width="6" x="-3" y="-3"/><text class="lab" transform="translate(0 11)">2</text></g><g class="a31 c2 node n30 p1" transform="translate(34.5 1.6712)"><g class="a30 i17 leaf node n17 p2 sample" transform="translate(-23 8.96991)"><path class="edge" d="M 0 0 V -8.96991 H 23"/><rect class="sym" height="6" width="6" x="-3" y="-3"/><text class="lab" transform="translate(0 11)">17</text></g><g class="a30 i19 leaf node n19 p2 sample" transform="translate(23 8.96991)"><path class="edge" d="M 0 0 V -8.96991 H -23"/><rect class="sym" height="6" width="6" x="-3" y="-3"/><text class="lab" transform="translate(0 11)">19</text></g><path class="edge" d="M 0 0 V -1.6712 H -34.5"/><circle class="sym" cx="0" cy="0" r="3"/><text class="lab rgt" transform="translate(3 -7)">30</text></g><path class="edge" d="M 0 0 V -3.92021 H 63.25"/><circle class="sym" cx="0" cy="0" r="3"/><text class="lab lft" transform="translate(-3 -7)">31</text></g><path class="edge" d="M 0 0 V -25.7911 H -93.4375"/><g class="mut m3 s3" transform="translate(0 -10.9215)"><line x1="0" x2="0" y1="0" y2="10.9215"/><path class="sym" d="M -3,-3 l 6,6 M -3,3 l 6,-6"/><text class="lab rgt" transform="translate(5 0)">3</text></g><circle class="sym" cx="0" cy="0" r="3"/><text class="lab rgt" transform="translate(3 -7)">33</text></g><g class="a36 c2 node n35 p1" transform="translate(-93.4375 9.60342)"><g class="a35 i1 leaf m0 m2 m4 node n1 p1 s0 s2 s4 sample" transform="translate(43.125 30.749)"><path class="edge" d="M 0 0 V -30.749 H -43.125"/><g class="mut m0 s0" transform="translate(0 -28.8224)"><line x1="0" x2="0" y1="0" y2="28.8224"/><path class="sym" d="M -3,-3 l 6,6 M -3,3 l 6,-6"/><text class="lab rgt" transform="translate(5 0)">0</text></g><g class="mut m2 s2" transform="translate(0 -28.3916)"><line x1="0" x2="0" y1="0" y2="28.3916"/><path class="sym" d="M -3,-3 l 6,6 M -3,3 l 6,-6"/><text class="lab rgt" transform="translate(5 0)">2</text></g><g class="mut m4 s4" transform="translate(0 -3.28758)"><line x1="0" x2="0" y1="0" y2="3.28758"/><path class="sym" d="M -3,-3 l 6,6 M -3,3 l 6,-6"/><text class="lab rgt" transform="translate(5 0)">4</text></g><rect class="sym" height="6" width="6" x="-3" y="-3"/><text class="lab" transform="translate(0 11)">1</text></g><g class="a35 c2 node n34 p2" transform="translate(-43.125 6.21668)"><g class="a34 i18 leaf node n18 p2 sample" transform="translate(40.25 24.5323)"><path class="edge" d="M 0 0 V -24.5323 H -40.25"/><rect class="sym" height="6" width="6" x="-3" y="-3"/><text class="lab" transform="translate(0 11)">18</text></g><g class="a34 c2 m5 node n29 p2 s5" transform="translate(-40.25 17.6424)"><g class="a29 i8 leaf m6 node n8 p1 s6 sample" transform="translate(34.5 6.88994)"><path class="edge" d="M 0 0 V -6.88994 H -34.5"/><g class="mut m6 s6" transform="translate(0 -2.94331)"><line x1="0" x2="0" y1="0" y2="2.94331"/><path class="sym" d="M -3,-3 l 6,6 M -3,3 l 6,-6"/><text class="lab rgt" transform="translate(5 0)">6</text></g><rect class="sym" height="6" width="6" x="-3" y="-3"/><text class="lab" transform="translate(0 11)">8</text></g><g class="a29 c2 node n20 p2" transform="translate(-34.5 6.60884)"><g class="a20 i0 leaf node n0 p1 sample" transform="translate(-23 0.281099)"><path class="edge" d="M 0 0 V -0.281099 H 23"/><rect class="sym" height="6" width="6" x="-3" y="-3"/><text class="lab" transform="translate(0 11)">0</text></g><g class="a20 i6 leaf node n6 p1 sample" transform="translate(23 0.281099)"><path class="edge" d="M 0 0 V -0.281099 H -23"/><rect class="sym" height="6" width="6" x="-3" y="-3"/><text class="lab" transform="translate(0 11)">6</text></g><path class="edge" d="M 0 0 V -6.60884 H 34.5"/><circle class="sym" cx="0" cy="0" r="3"/><text class="lab lft" transform="translate(-3 -7)">20</text></g><path class="edge" d="M 0 0 V -17.6424 H 40.25"/><g class="mut m5 s5" transform="translate(0 -15.814)"><line x1="0" x2="0" y1="0" y2="15.814"/><path class="sym" d="M -3,-3 l 6,6 M -3,3 l 6,-6"/><text class="lab lft" transform="translate(-5 0)">5</text></g><circle class="sym" cx="0" cy="0" r="3"/><text class="lab lft" transform="translate(-3 -7)">29</text></g><path class="edge" d="M 0 0 V -6.21668 H 43.125"/><circle class="sym" cx="0" cy="0" r="3"/><text class="lab lft" transform="translate(-3 -7)">34</text></g><path class="edge" d="M 0 0 V -9.60342 H 93.4375"/><circle class="sym" cx="0" cy="0" r="3"/><text class="lab lft" transform="translate(-3 -7)">35</text></g><path class="edge" d="M 0 0 V -254.248 H 264.5"/><circle class="sym" cx="0" cy="0" r="3"/><text class="lab lft" transform="translate(-3 -7)">36</text></g><g class="a38 c2 node n37 p1" transform="translate(264.5 206.483)"><g class="a37 i7 leaf node n7 p1 sample" transform="translate(110.688 88.1166)"><path class="edge" d="M 0 0 V -88.1166 H -110.688"/><rect class="sym" height="6" width="6" x="-3" y="-3"/><text class="lab" transform="translate(0 11)">7</text></g><g class="a37 c2 node n32 p1" transform="translate(-110.688 74.9929)"><g class="a32 c2 node n26 p2" transform="translate(135.125 7.76453)"><g class="a26 i11 leaf node n11 p2 sample" transform="translate(40.25 5.35922)"><path class="edge" d="M 0 0 V -5.35922 H -40.25"/><rect class="sym" height="6" width="6" x="-3" y="-3"/><text class="lab" transform="translate(0 11)">11</text></g><g class="a26 c2 node n24 p2" transform="translate(-40.25 1.03072)"><g class="a24 i15 leaf node n15 p2 sample" transform="translate(34.5 4.32849)"><path class="edge" d="M 0 0 V -4.32849 H -34.5"/><rect class="sym" height="6" width="6" x="-3" y="-3"/><text class="lab" transform="translate(0 11)">15</text></g><g class="a24 c2 node n23 p2" transform="translate(-34.5 2.7805)"><g class="a23 i10 leaf node n10 p2 sample" transform="translate(-23 1.548)"><path class="edge" d="M 0 0 V -1.548 H 23"/><rect class="sym" height="6" width="6" x="-3" y="-3"/><text class="lab" transform="translate(0 11)">10</text></g><g class="a23 i13 leaf m1 node n13 p2 s1 sample" transform="translate(23 1.548)"><path class="edge" d="M 0 0 V -1.548 H -23"/><g class="mut m1 s1" transform="translate(0 -1.39209)"><line x1="0" x2="0" y1="0" y2="1.39209"/><path class="sym" d="M -3,-3 l 6,6 M -3,3 l 6,-6"/><text class="lab rgt" transform="translate(5 0)">1</text></g><rect class="sym" height="6" width="6" x="-3" y="-3"/><text class="lab" transform="translate(0 11)">13</text></g><path class="edge" d="M 0 0 V -2.7805 H 34.5"/><circle class="sym" cx="0" cy="0" r="3"/><text class="lab lft" transform="translate(-3 -7)">23</text></g><path class="edge" d="M 0 0 V -1.03072 H 40.25"/><circle class="sym" cx="0" cy="0" r="3"/><text class="lab lft" transform="translate(-3 -7)">24</text></g><path class="edge" d="M 0 0 V -7.76453 H -135.125"/><circle class="sym" cx="0" cy="0" r="3"/><text class="lab rgt" transform="translate(3 -7)">26</text></g><g class="a32 c2 node n28 p2" transform="translate(-135.125 6.99334)"><g class="a28 i3 leaf node n3 p1 sample" transform="translate(-57.5 6.13041)"><path class="edge" d="M 0 0 V -6.13041 H 57.5"/><rect class="sym" height="6" width="6" x="-3" y="-3"/><text class="lab" transform="translate(0 11)">3</text></g><g class="a28 c2 node n25 p2" transform="translate(57.5 1.01577)"><g class="a25 c2 node n21 p2" transform="translate(-46 4.66713)"><g class="a21 i9 leaf node n9 p1 sample" transform="translate(-23 0.447506)"><path class="edge" d="M 0 0 V -0.447506 H 23"/><rect class="sym" height="6" width="6" x="-3" y="-3"/><text class="lab" transform="translate(0 11)">9</text></g><g class="a21 i12 leaf node n12 p2 sample" transform="translate(23 0.447506)"><path class="edge" d="M 0 0 V -0.447506 H -23"/><rect class="sym" height="6" width="6" x="-3" y="-3"/><text class="lab" transform="translate(0 11)">12</text></g><path class="edge" d="M 0 0 V -4.66713 H 46"/><circle class="sym" cx="0" cy="0" r="3"/><text class="lab lft" transform="translate(-3 -7)">21</text></g><g class="a25 c2 node n22 p1" transform="translate(46 3.90775)"><g class="a22 i14 leaf node n14 p2 sample" transform="translate(-23 1.20689)"><path class="edge" d="M 0 0 V -1.20689 H 23"/><rect class="sym" height="6" width="6" x="-3" y="-3"/><text class="lab" transform="translate(0 11)">14</text></g><g class="a22 i16 leaf node n16 p2 sample" transform="translate(23 1.20689)"><path class="edge" d="M 0 0 V -1.20689 H -23"/><rect class="sym" height="6" width="6" x="-3" y="-3"/><text class="lab" transform="translate(0 11)">16</text></g><path class="edge" d="M 0 0 V -3.90775 H -46"/><circle class="sym" cx="0" cy="0" r="3"/><text class="lab rgt" transform="translate(3 -7)">22</text></g><path class="edge" d="M 0 0 V -1.01577 H -57.5"/><circle class="sym" cx="0" cy="0" r="3"/><text class="lab rgt" transform="translate(3 -7)">25</text></g><path class="edge" d="M 0 0 V -6.99334 H 135.125"/><circle class="sym" cx="0" cy="0" r="3"/><text class="lab lft" transform="translate(-3 -7)">28</text></g><path class="edge" d="M 0 0 V -74.9929 H 110.688"/><circle class="sym" cx="0" cy="0" r="3"/><text class="lab lft" transform="translate(-3 -7)">32</text></g><path class="edge" d="M 0 0 V -206.483 H -264.5"/><circle class="sym" cx="0" cy="0" r="3"/><text class="lab rgt" transform="translate(3 -7)">37</text></g><circle class="sym" cx="0" cy="0" r="3"/><text class="lab" transform="translate(0 -11)">38</text></g></g></g></g></g></svg>