<svg baseProfile="full" height="400" version="1.1" width="1000" xmlns="http://www.w3.org/2000/svg" xmlns:ev="http://www.w3.org/2001/xml-events" xmlns:xlink="http://www.w3.org/1999/xlink"><defs><style type="text/css"><![CDATA[.background path {fill: #808080; fill-opacity: 0}.background path:nth-child(odd) {fill-opacity: .1}.x-regions rect {fill: yellow; stroke: black; opacity: 0.5}.axes {font-size: 14px}.x-axis .tick .lab {font-weight: bold; dominant-baseline: hanging}.axes, .tree {font-size: 14px; text-anchor: middle}.axes line, .edge {stroke: black; fill: none}.axes .ax-skip {stroke-dasharray: 4}.y-axis .grid {stroke: #FAFAFA}.node > .sym {fill: black; stroke: none}.site > .sym {stroke: black}.mut text {fill: red; font-style: italic}.mut.extra text {fill: hotpink}.mut line {fill: none; stroke: none}.mut .sym {fill: none; stroke: red}.mut.extra .sym {stroke: hotpink}.node .mut .sym {stroke-width: 1.5px}.tree text, .tree-sequence text {dominant-baseline: central}.plotbox .lab.lft {text-anchor: end}.plotbox .lab.rgt {text-anchor: start}.polytomy line {stroke: black; stroke-dasharray: 1px, 1px}.polytomy text {paint-order:stroke;stroke-width:0.3em;stroke:white}]]></style></defs><g class="tree-sequence"><g class="background"><path d="M20,0 l960,0 l0,338.2 l0,25 l0,5 l-960,0 l0,-5 l0,-25 l0,-338.2z"/></g><g class="axes"><g class="x-axis"><g class="title" transform="translate(500 400)"><text class="lab" text-anchor="middle" transform="translate(0 -11)">Genome position</text></g><line class="ax-line" x1="20" x2="980" y1="363.2" y2="363.2"/><g class="ticks"><g class="tick" transform="translate(20 363.2)"><line x1="0" x2="0" y1="0" y2="5"/><g transform="translate(0 6)"><text class="lab">0</text></g></g><g class="tick" transform="translate(980 363.2)"><line x1="0" x2="0" y1="0" y2="5"/><g transform="translate(0 6)"><text class="lab">1000</text></g></g></g><g class="site s0" transform="translate(305.12 363.2)"><line class="sym" x1="0" x2="0" y1="0" y2="-10"/><g class="mut m0"><polyline class="sym" points="2.5,-6.5 0,-1.5 -2.5,-6.5"/></g></g><g class="site s1" transform="translate(419.36 363.2)"><line class="sym" x1="0" x2="0" y1="0" y2="-10"/><g class="mut m1"><polyline class="sym" points="2.5,-6.5 0,-1.5 -2.5,-6.5"/></g></g><g class="site s2" transform="translate(843.68 363.2)"><line class="sym" x1="0" x2="0" y1="0" y2="-10"/><g class="mut m2"><polyline class="sym" points="2.5,-6.5 0,-1.5 -2.5,-6.5"/></g></g></g></g><g class="plotbox trees"><g class="tree t0" transform="translate(20 0)"><g class="plotbox"><g class="c2 node n38 p1 root" transform="translate(601.02 26.8)"><g class="a38 c2 node n24 p1" transform="translate(281.48 280.479)"><g class="a24 i10 leaf node n10 p2 sample" transform="translate(34.5 14.121)"><path class="edge" d="M 0 0 V -14.121 H -34.5"/><rect class="sym" height="6" width="6" x="-3" y="-3"/><text class="lab" transform="translate(0 11)">10</text></g><g class="a24 c2 node n23 p1" transform="translate(-34.5 6.10137)"><g class="a23 i4 leaf node n4 p1 sample" transform="translate(-23 8.01963)"><path class="edge" d="M 0 0 V -8.01963 H 23"/><rect class="sym" height="6" width="6" x="-3" y="-3"/><text class="lab" transform="translate(0 11)">4</text></g><g class="a23 i7 leaf node n7 p1 sample" transform="translate(23 8.01963)"><path class="edge" d="M 0 0 V -8.01963 H -23"/><rect class="sym" height="6" width="6" x="-3" y="-3"/><text class="lab" transform="translate(0 11)">7</text></g><path class="edge" d="M 0 0 V -6.10137 H 34.5"/><circle class="sym" cx="0" cy="0" r="3"/><text class="lab lft" transform="translate(-3 -7)">23</text></g><path class="edge" d="M 0 0 V -280.479 H -281.48"/><circle class="sym" cx="0" cy="0" r="3"/><text class="lab rgt" transform="translate(3 -7)">24</text></g><g class="a38 c2 node n37 p1" transform="translate(-281.48 114.728)"><g class="a37 c2 node n34 p1" transform="translate(-242.039 95.7842)"><g class="a34 i0 leaf node n0 p1 sample" transform="translate(-34.5 84.0879)"><path class="edge" d="M 0 0 V -84.0879 H 34.5"/><rect class="sym" height="6" width="6" x="-3" y="-3"/><text class="lab" transform="translate(0 11)">0</text></g><g class="a34 c2 node n32 p1" transform="translate(34.5 33.826)"><g class="a32 i13 leaf node n13 p2 sample" transform="translate(-23 50.2619)"><path class="edge" d="M 0 0 V -50.2619 H 23"/><rect class="sym" height="6" width="6" x="-3" y="-3"/><text class="lab" transform="translate(0 11)">13</text></g><g class="a32 i17 leaf node n17 p2 sample" transform="translate(23 50.2619)"><path class="edge" d="M 0 0 V -50.2619 H -23"/><rect class="sym" height="6" width="6" x="-3" y="-3"/><text class="lab" transform="translate(0 11)">17</text></g><path class="edge" d="M 0 0 V -33.826 H -34.5"/><circle class="sym" cx="0" cy="0" r="3"/><text class="lab rgt" transform="translate(3 -7)">32</text></g><path class="edge" d="M 0 0 V -95.7842 H 242.039"/><circle class="sym" cx="0" cy="0" r="3"/><text class="lab lft" transform="translate(-3 -7)">34</text></g><g class="a37 c2 node n36 p1" transform="translate(242.039 24.9409)"><g class="a36 c2 m2 node n33 p1 s2" transform="translate(-168.547 77.0581)"><g class="a33 c2 node n27 p2" transform="translate(132.969 55.3947)"><g class="a27 i3 leaf node n3 p1 sample" transform="translate(-23 22.4784)"><path class="edge" d="M 0 0 V -22.4784 H 23"/><rect class="sym" height="6" width="6" x="-3" y="-3"/><text class="lab" transform="translate(0 11)">3</text></g><g class="a27 i5 leaf node n5 p1 sample" transform="translate(23 22.4784)"><path class="edge" d="M 0 0 V -22.4784 H -23"/><rect class="sym" height="6" width="6" x="-3" y="-3"/><text class="lab" transform="translate(0 11)">5</text></g><path class="edge" d="M 0 0 V -55.3947 H -132.969"/><circle class="sym" cx="0" cy="0" r="3"/><text class="lab rgt" transform="translate(3 -7)">27</text></g><g class="a33 c2 node n31 p2" transform="translate(-132.969 47.7242)"><g class="a31 c2 node n21 p1" transform="translate(-56.0625 23.7452)"><g class="a21 i1 leaf node n1 p1 sample" transform="translate(-23 6.40377)"><path class="edge" d="M 0 0 V -6.40377 H 23"/><rect class="sym" height="6" width="6" x="-3" y="-3"/><text class="lab" transform="translate(0 11)">1</text></g><g class="a21 i15 leaf m1 node n15 p2 s1 sample" transform="translate(23 6.40377)"><path class="edge" d="M 0 0 V -6.40377 H -23"/><g class="mut m1 s1" transform="translate(0 -0.778685)"><line x1="0" x2="0" y1="0" y2="0.778685"/><path class="sym" d="M -3,-3 l 6,6 M -3,3 l 6,-6"/><text class="lab rgt" transform="translate(5 0)">1</text></g><rect class="sym" height="6" width="6" x="-3" y="-3"/><text class="lab" transform="translate(0 11)">15</text></g><path class="edge" d="M 0 0 V -23.7452 H 56.0625"/><circle class="sym" cx="0" cy="0" r="3"/><text class="lab lft" transform="translate(-3 -7)">21</text></g><g class="a31 c2 node n29 p1" transform="translate(56.0625 3.07438)"><g class="a29 i8 leaf node n8 p1 sample" transform="translate(-43.125 27.0746)"><path class="edge" d="M 0 0 V -27.0746 H 43.125"/><rect class="sym" height="6" width="6" x="-3" y="-3"/><text class="lab" transform="translate(0 11)">8</text></g><g class="a29 c2 node n25 p2" transform="translate(43.125 8.83474)"><g class="a25 i12 leaf node n12 p2 sample" transform="translate(-40.25 18.2398)"><path class="edge" d="M 0 0 V -18.2398 H 40.25"/><rect class="sym" height="6" width="6" x="-3" y="-3"/><text class="lab" transform="translate(0 11)">12</text></g><g class="a25 c2 node n22 p1" transform="translate(40.25 10.6162)"><g class="a22 i16 leaf node n16 p2 sample" transform="translate(-34.5 7.62362)"><path class="edge" d="M 0 0 V -7.62362 H 34.5"/><rect class="sym" height="6" width="6" x="-3" y="-3"/><text class="lab" transform="translate(0 11)">16</text></g><g class="a22 c2 node n20 p1" transform="translate(34.5 2.49555)"><g class="a20 i18 leaf node n18 p2 sample" transform="translate(-23 5.12807)"><path class="edge" d="M 0 0 V -5.12807 H 23"/><rect class="sym" height="6" width="6" x="-3" y="-3"/><text class="lab" transform="translate(0 11)">18</text></g><g class="a20 i19 leaf node n19 p2 sample" transform="translate(23 5.12807)"><path class="edge" d="M 0 0 V -5.12807 H -23"/><rect class="sym" height="6" width="6" x="-3" y="-3"/><text class="lab" transform="translate(0 11)">19</text></g><path class="edge" d="M 0 0 V -2.49555 H -34.5"/><circle class="sym" cx="0" cy="0" r="3"/><text class="lab rgt" transform="translate(3 -7)">20</text></g><path class="edge" d="M 0 0 V -10.6162 H -40.25"/><circle class="sym" cx="0" cy="0" r="3"/><text class="lab rgt" transform="translate(3 -7)">22</text></g><path class="edge" d="M 0 0 V -8.83474 H -43.125"/><circle class="sym" cx="0" cy="0" r="3"/><text class="lab rgt" transform="translate(3 -7)">25</text></g><path class="edge" d="M 0 0 V -3.07438 H -56.0625"/><circle class="sym" cx="0" cy="0" r="3"/><text class="lab rgt" transform="translate(3 -7)">29</text></g><path class="edge" d="M 0 0 V -47.7242 H 132.969"/><circle class="sym" cx="0" cy="0" r="3"/><text class="lab lft" transform="translate(-3 -7)">31</text></g><path class="edge" d="M 0 0 V -77.0581 H 168.547"/><g class="mut m2 s2" transform="translate(0 -76.118)"><line x1="0" x2="0" y1="0" y2="76.118"/><path class="sym" d="M -3,-3 l 6,6 M -3,3 l 6,-6"/><text class="lab lft" transform="translate(-5 0)">2</text></g><circle class="sym" cx="0" cy="0" r="3"/><text class="lab lft" transform="translate(-3 -7)">33</text></g><g class="a36 c2 node n35 p1" transform="translate(168.547 65.1511)"><g class="a35 i9 leaf node n9 p1 sample" transform="translate(48.875 89.7801)"><path class="edge" d="M 0 0 V -89.7801 H -48.875"/><rect class="sym" height="6" width="6" x="-3" y="-3"/><text class="lab" transform="translate(0 11)">9</text></g><g class="a35 c2 node n30 p1" transform="translate(-48.875 60.7516)"><g class="a30 i6 leaf node n6 p1 sample" transform="translate(51.75 29.0285)"><path class="edge" d="M 0 0 V -29.0285 H -51.75"/><rect class="sym" height="6" width="6" x="-3" y="-3"/><text class="lab" transform="translate(0 11)">6</text></g><g class="a30 c2 node n28 p1" transform="translate(-51.75 3.01586)"><g class="a28 i2 leaf node n2 p1 sample" transform="translate(-34.5 26.0126)"><path class="edge" d="M 0 0 V -26.0126 H 34.5"/><rect class="sym" height="6" width="6" x="-3" y="-3"/><text class="lab" transform="translate(0 11)">2</text></g><g class="a28 c2 node n26 p2" transform="translate(34.5 4.3996)"><g class="a26 i11 leaf node n11 p2 sample" transform="translate(-23 21.613)"><path class="edge" d="M 0 0 V -21.613 H 23"/><rect class="sym" height="6" width="6" x="-3" y="-3"/><text class="lab" transform="translate(0 11)">11</text></g><g class="a26 i14 leaf m0 node n14 p2 s0 sample" transform="translate(23 21.613)"><path class="edge" d="M 0 0 V -21.613 H -23"/><g class="mut m0 s0" transform="translate(0 -3.60145)"><line x1="0" x2="0" y1="0" y2="3.60145"/><path class="sym" d="M -3,-3 l 6,6 M -3,3 l 6,-6"/><text class="lab rgt" transform="translate(5 0)">0</text></g><rect class="sym" height="6" width="6" x="-3" y="-3"/><text class="lab" transform="translate(0 11)">14</text></g><path class="edge" d="M 0 0 V -4.3996 H -34.5"/><circle class="sym" cx="0" cy="0" r="3"/><text class="lab rgt" transform="translate(3 -7)">26</text></g><path class="edge" d="M 0 0 V -3.01586 H 51.75"/><circle class="sym" cx="0" cy="0" r="3"/><text class="lab lft" transform="translate(-3 -7)">28</text></g><path class="edge" d="M 0 0 V -60.7516 H 48.875"/><circle class="sym" cx="0" cy="0" r="3"/><text class="lab lft" transform="translate(-3 -7)">30</text></g><path class="edge" d="M 0 0 V -65.1511 H -168.547"/><circle class="sym" cx="0" cy="0" r="3"/><text class="lab rgt" transform="translate(3 -7)">35</text></g><path class="edge" d="M 0 0 V -24.9409 H -242.039"/><circle class="sym" cx="0" cy="0" r="3"/><text class="lab rgt" transform="translate(3 -7)">36</text></g><path class="edge" d="M 0 0 V -114.728 H 281.48"/><circle class="sym" cx="0" cy="0" r="3"/><text class="lab lft" transform="translate(-3 -7)">37</text></g><circle class="sym" cx="0" cy="0" r="3"/><text class="lab" transform="translate(0 -11)">38</text></g></g></g></g></g></svg>