<svg baseProfile="full" height="400" version="1.1" width="1000" xmlns="http://www.w3.org/2000/svg" xmlns:ev="http://www.w3.org/2001/xml-events" xmlns:xlink="http://www.w3.org/1999/xlink"><defs><style type="text/css"><![CDATA[.background path {fill: #808080; fill-opacity: 0}.background path:nth-child(odd) {fill-opacity: .1}.x-regions rect {fill: yellow; stroke: black; opacity: 0.5}.axes {font-size: 14px}.x-axis .tick .lab {font-weight: bold; dominant-baseline: hanging}.axes, .tree {font-size: 14px; text-anchor: middle}.axes line, .edge {stroke: black; fill: none}.axes .ax-skip {stroke-dasharray: 4}.y-axis .grid {stroke: #FAFAFA}.node > .sym {fill: black; stroke: none}.site > .sym {stroke: black}.mut text {fill: red; font-style: italic}.mut.extra text {fill: hotpink}.mut line {fill: none; stroke: none}.mut .sym {fill: none; stroke: red}.mut.extra .sym {stroke: hotpink}.node .mut .sym {stroke-width: 1.5px}.tree text, .tree-sequence text {dominant-baseline: central}.plotbox .lab.lft {text-anchor: end}.plotbox .lab.rgt {text-anchor: start}.polytomy line {stroke: black; stroke-dasharray: 1px, 1px}.polytomy text {paint-order:stroke;stroke-width:0.3em;stroke:white}]]></style></defs><g class="tree-sequence"><g class="background"><path d="M20,0 l960,0 l0,338.2 l0,25 l0,5 l-960,0 l0,-5 l0,-25 l0,-338.2z"/></g><g class="axes"><g class="x-axis"><g class="title" transform="translate(500 400)"><text class="lab" text-anchor="middle" transform="translate(0 -11)">Genome position</text></g><line class="ax-line" x1="20" x2="980" y1="363.2" y2="363.2"/><g class="ticks"><g class="tick" transform="translate(20 363.2)"><line x1="0" x2="0" y1="0" y2="5"/><g transform="translate(0 6)"><text class="lab">0</text></g></g><g class="tick" transform="translate(980 363.2)"><line x1="0" x2="0" y1="0" y2="5"/><g transform="translate(0 6)"><text class="lab">1000</text></g></g></g><g class="site s0" transform="translate(332.96 363.2)"><line class="sym" x1="0" x2="0" y1="0" y2="-10"/><g class="mut m0"><polyline class="sym" points="2.5,-6.5 0,-1.5 -2.5,-6.5"/></g></g><g class="site s1" transform="translate(345.44 363.2)"><line class="sym" x1="0" x2="0" y1="0" y2="-10"/><g class="mut m1"><polyline class="sym" points="2.5,-6.5 0,-1.5 -2.5,-6.5"/></g></g><g class="site s2" transform="translate(483.68 363.2)"><line class="sym" x1="0" x2="0" y1="0" y2="-10"/><g class="mut m2"><polyline class="sym" points="2.5,-6.5 0,-1.5 -2.5,-6.5"/></g></g><g class="site s3" transform="translate(792.8 363.2)"><line class="sym" x1="0" x2="0" y1="0" y2="-10"/><g class="mut m3"><polyline class="sym" points="2.5,-6.5 0,-1.5 -2.5,-6.5"/></g></g><g class="site s4" transform="translate(955.04 363.2)"><line class="sym" x1="0" x2="0" y1="0" y2="-10"/><g class="mut m4"><polyline class="sym" points="2.5,-6.5 0,-1.5 -2.5,-6.5"/></g></g></g></g><g class="plotbox trees"><g class="tree t0" transform="translate(20 0)"><g class="plotbox"><g class="c2 node n38 p0 root" transform="translate(714.312 26.8)"><g class="a38 c2 m0 node n36 p0 s0" transform="translate(162.438 232.447)"><g class="a36 i12 leaf node n12 p2 sample" transform="translate(40.25 62.1531)"><path class="edge" d="M 0 0 V -62.1531 H -40.25"/><rect class="sym" height="6" width="6" x="-3" y="-3"/><text class="lab" transform="translate(0 11)">12</text></g><g class="a36 c2 node n34 p0" transform="translate(-40.25 32.8847)"><g class="a34 i14 leaf m4 node n14 p2 s4 sample" transform="translate(34.5 29.2685)"><path class="edge" d="M 0 0 V -29.2685 H -34.5"/><g class="mut m4 s4" transform="translate(0 -10.4416)"><line x1="0" x2="0" y1="0" y2="10.4416"/><path class="sym" d="M -3,-3 l 6,6 M -3,3 l 6,-6"/><text class="lab rgt" transform="translate(5 0)">4</text></g><rect class="sym" height="6" width="6" x="-3" y="-3"/><text class="lab" transform="translate(0 11)">14</text></g><g class="a34 c2 node n29 p1" transform="translate(-34.5 16.9608)"><g class="a29 i3 leaf m2 node n3 p1 s2 sample" transform="translate(-23 12.3077)"><path class="edge" d="M 0 0 V -12.3077 H 23"/><g class="mut m2 s2" transform="translate(0 -11.0954)"><line x1="0" x2="0" y1="0" y2="11.0954"/><path class="sym" d="M -3,-3 l 6,6 M -3,3 l 6,-6"/><text class="lab lft" transform="translate(-5 0)">2</text></g><rect class="sym" height="6" width="6" x="-3" y="-3"/><text class="lab" transform="translate(0 11)">3</text></g><g class="a29 i13 leaf node n13 p2 sample" transform="translate(23 12.3077)"><path class="edge" d="M 0 0 V -12.3077 H -23"/><rect class="sym" height="6" width="6" x="-3" y="-3"/><text class="lab" transform="translate(0 11)">13</text></g><path class="edge" d="M 0 0 V -16.9608 H 34.5"/><circle class="sym" cx="0" cy="0" r="3"/><text class="lab lft" transform="translate(-3 -7)">29</text></g><path class="edge" d="M 0 0 V -32.8847 H 40.25"/><circle class="sym" cx="0" cy="0" r="3"/><text class="lab lft" transform="translate(-3 -7)">34</text></g><path class="edge" d="M 0 0 V -232.447 H -162.438"/><g class="mut m0 s0" transform="translate(0 -106.055)"><line x1="0" x2="0" y1="0" y2="106.055"/><path class="sym" d="M -3,-3 l 6,6 M -3,3 l 6,-6"/><text class="lab rgt" transform="translate(5 0)">0</text></g><circle class="sym" cx="0" cy="0" r="3"/><text class="lab rgt" transform="translate(3 -7)">36</text></g><g class="a38 c2 node n37 p0" transform="translate(-162.438 220.655)"><g class="a37 c2 node n31 p2" transform="translate(146.625 54.5156)"><g class="a31 i18 leaf node n18 p2 sample" transform="translate(34.5 19.4295)"><path class="edge" d="M 0 0 V -19.4295 H -34.5"/><rect class="sym" height="6" width="6" x="-3" y="-3"/><text class="lab" transform="translate(0 11)">18</text></g><g class="a31 c2 node n30 p1" transform="translate(-34.5 5.91383)"><g class="a30 i5 leaf node n5 p1 sample" transform="translate(-23 13.5157)"><path class="edge" d="M 0 0 V -13.5157 H 23"/><rect class="sym" height="6" width="6" x="-3" y="-3"/><text class="lab" transform="translate(0 11)">5</text></g><g class="a30 i8 leaf node n8 p1 sample" transform="translate(23 13.5157)"><path class="edge" d="M 0 0 V -13.5157 H -23"/><rect class="sym" height="6" width="6" x="-3" y="-3"/><text class="lab" transform="translate(0 11)">8</text></g><path class="edge" d="M 0 0 V -5.91383 H 34.5"/><circle class="sym" cx="0" cy="0" r="3"/><text class="lab lft" transform="translate(-3 -7)">30</text></g><path class="edge" d="M 0 0 V -54.5156 H -146.625"/><circle class="sym" cx="0" cy="0" r="3"/><text class="lab rgt" transform="translate(3 -7)">31</text></g><g class="a37 c2 node n35 p0" transform="translate(-146.625 38.8378)"><g class="a35 c2 node n25 p1" transform="translate(155.25 29.9944)"><g class="a25 i17 leaf node n17 p2 sample" transform="translate(34.5 5.11282)"><path class="edge" d="M 0 0 V -5.11282 H -34.5"/><rect class="sym" height="6" width="6" x="-3" y="-3"/><text class="lab" transform="translate(0 11)">17</text></g><g class="a25 c2 node n23 p2" transform="translate(-34.5 2.07873)"><g class="a23 i7 leaf node n7 p1 sample" transform="translate(-23 3.03409)"><path class="edge" d="M 0 0 V -3.03409 H 23"/><rect class="sym" height="6" width="6" x="-3" y="-3"/><text class="lab" transform="translate(0 11)">7</text></g><g class="a23 i19 leaf node n19 p2 sample" transform="translate(23 3.03409)"><path class="edge" d="M 0 0 V -3.03409 H -23"/><rect class="sym" height="6" width="6" x="-3" y="-3"/><text class="lab" transform="translate(0 11)">19</text></g><path class="edge" d="M 0 0 V -2.07873 H 34.5"/><circle class="sym" cx="0" cy="0" r="3"/><text class="lab lft" transform="translate(-3 -7)">23</text></g><path class="edge" d="M 0 0 V -29.9944 H -155.25"/><circle class="sym" cx="0" cy="0" r="3"/><text class="lab rgt" transform="translate(3 -7)">25</text></g><g class="a35 c2 node n33 p0" transform="translate(-155.25 9.85889)"><g class="a33 c2 node n28 p1" transform="translate(155.25 13.3155)"><g class="a28 i6 leaf m3 node n6 p1 s3 sample" transform="translate(51.75 11.9329)"><path class="edge" d="M 0 0 V -11.9329 H -51.75"/><g class="mut m3 s3" transform="translate(0 -9.2099)"><line x1="0" x2="0" y1="0" y2="9.2099"/><path class="sym" d="M -3,-3 l 6,6 M -3,3 l 6,-6"/><text class="lab rgt" transform="translate(5 0)">3</text></g><rect class="sym" height="6" width="6" x="-3" y="-3"/><text class="lab" transform="translate(0 11)">6</text></g><g class="a28 c2 node n27 p1" transform="translate(-51.75 1.6871)"><g class="a27 i9 leaf node n9 p1 sample" transform="translate(57.5 10.2458)"><path class="edge" d="M 0 0 V -10.2458 H -57.5"/><rect class="sym" height="6" width="6" x="-3" y="-3"/><text class="lab" transform="translate(0 11)">9</text></g><g class="a27 c2 node n26 p1" transform="translate(-57.5 1.78497)"><g class="a26 c2 node n20 p2" transform="translate(46 8.26227)"><g class="a20 i11 leaf node n11 p2 sample" transform="translate(-23 0.198513)"><path class="edge" d="M 0 0 V -0.198513 H 23"/><rect class="sym" height="6" width="6" x="-3" y="-3"/><text class="lab" transform="translate(0 11)">11</text></g><g class="a20 i15 leaf node n15 p2 sample" transform="translate(23 0.198513)"><path class="edge" d="M 0 0 V -0.198513 H -23"/><rect class="sym" height="6" width="6" x="-3" y="-3"/><text class="lab" transform="translate(0 11)">15</text></g><path class="edge" d="M 0 0 V -8.26227 H -46"/><circle class="sym" cx="0" cy="0" r="3"/><text class="lab rgt" transform="translate(3 -7)">20</text></g><g class="a26 c2 m1 node n21 p1 s1" transform="translate(-46 7.61113)"><g class="a21 i2 leaf node n2 p1 sample" transform="translate(-23 0.849661)"><path class="edge" d="M 0 0 V -0.849661 H 23"/><rect class="sym" height="6" width="6" x="-3" y="-3"/><text class="lab" transform="translate(0 11)">2</text></g><g class="a21 i16 leaf node n16 p2 sample" transform="translate(23 0.849661)"><path class="edge" d="M 0 0 V -0.849661 H -23"/><rect class="sym" height="6" width="6" x="-3" y="-3"/><text class="lab" transform="translate(0 11)">16</text></g><path class="edge" d="M 0 0 V -7.61113 H 46"/><g class="mut m1 s1" transform="translate(0 -4.92973)"><line x1="0" x2="0" y1="0" y2="4.92973"/><path class="sym" d="M -3,-3 l 6,6 M -3,3 l 6,-6"/><text class="lab lft" transform="translate(-5 0)">1</text></g><circle class="sym" cx="0" cy="0" r="3"/><text class="lab lft" transform="translate(-3 -7)">21</text></g><path class="edge" d="M 0 0 V -1.78497 H 57.5"/><circle class="sym" cx="0" cy="0" r="3"/><text class="lab lft" transform="translate(-3 -7)">26</text></g><path class="edge" d="M 0 0 V -1.6871 H 51.75"/><circle class="sym" cx="0" cy="0" r="3"/><text class="lab lft" transform="translate(-3 -7)">27</text></g><path class="edge" d="M 0 0 V -13.3155 H -155.25"/><circle class="sym" cx="0" cy="0" r="3"/><text class="lab rgt" transform="translate(3 -7)">28</text></g><g class="a33 c2 node n32 p1" transform="translate(-155.25 2.83187)"><g class="a32 i0 leaf node n0 p1 sample" transform="translate(-51.75 22.4165)"><path class="edge" d="M 0 0 V -22.4165 H 51.75"/><rect class="sym" height="6" width="6" x="-3" y="-3"/><text class="lab" transform="translate(0 11)">0</text></g><g class="a32 c2 node n24 p1" transform="translate(51.75 17.8231)"><g class="a24 i4 leaf node n4 p1 sample" transform="translate(34.5 4.59337)"><path class="edge" d="M 0 0 V -4.59337 H -34.5"/><rect class="sym" height="6" width="6" x="-3" y="-3"/><text class="lab" transform="translate(0 11)">4</text></g><g class="a24 c2 node n22 p1" transform="translate(-34.5 3.04561)"><g class="a22 i1 leaf node n1 p1 sample" transform="translate(-23 1.54776)"><path class="edge" d="M 0 0 V -1.54776 H 23"/><rect class="sym" height="6" width="6" x="-3" y="-3"/><text class="lab" transform="translate(0 11)">1</text></g><g class="a22 i10 leaf node n10 p2 sample" transform="translate(23 1.54776)"><path class="edge" d="M 0 0 V -1.54776 H -23"/><rect class="sym" height="6" width="6" x="-3" y="-3"/><text class="lab" transform="translate(0 11)">10</text></g><path class="edge" d="M 0 0 V -3.04561 H 34.5"/><circle class="sym" cx="0" cy="0" r="3"/><text class="lab lft" transform="translate(-3 -7)">22</text></g><path class="edge" d="M 0 0 V -17.8231 H -51.75"/><circle class="sym" cx="0" cy="0" r="3"/><text class="lab rgt" transform="translate(3 -7)">24</text></g><path class="edge" d="M 0 0 V -2.83187 H 155.25"/><circle class="sym" cx="0" cy="0" r="3"/><text class="lab lft" transform="translate(-3 -7)">32</text></g><path class="edge" d="M 0 0 V -9.85889 H 155.25"/><circle class="sym" cx="0" cy="0" r="3"/><text class="lab lft" transform="translate(-3 -7)">33</text></g><path class="edge" d="M 0 0 V -38.8378 H 146.625"/><circle class="sym" cx="0" cy="0" r="3"/><text class="lab lft" transform="translate(-3 -7)">35</text></g><path class="edge" d="M 0 0 V -220.655 H 162.438"/><circle class="sym" cx="0" cy="0" r="3"/><text class="lab lft" transform="translate(-3 -7)">37</text></g><circle class="sym" cx="0" cy="0" r="3"/><text class="lab" transform="translate(0 -11)">38</text></g></g></g></g></g></svg>