<svg baseProfile="full" height="400" version="1.1" width="1000" xmlns="http://www.w3.org/2000/svg" xmlns:ev="http://www.w3.org/2001/xml-events" xmlns:xlink="http://www.w3.org/1999/xlink"><defs><style type="text/css"><![CDATA[.background path {fill: #808080; fill-opacity: 0}.background path:nth-child(odd) {fill-opacity: .1}.x-regions rect {fill: yellow; stroke: black; opacity: 0.5}.axes {font-size: 14px}.x-axis .tick .lab {font-weight: bold; dominant-baseline: hanging}.axes, .tree {font-size: 14px; text-anchor: middle}.axes line, .edge {stroke: black; fill: none}.axes .ax-skip {stroke-dasharray: 4}.y-axis .grid {stroke: #FAFAFA}.node > .sym {fill: black; stroke: none}.site > .sym {stroke: black}.mut text {fill: red; font-style: italic}.mut.extra text {fill: hotpink}.mut line {fill: none; stroke: none}.mut .sym {fill: none; stroke: red}.mut.extra .sym {stroke: hotpink}.node .mut .sym {stroke-width: 1.5px}.tree text, .tree-sequence text {dominant-baseline: central}.plotbox .lab.lft {text-anchor: end}.plotbox .lab.rgt {text-anchor: start}.polytomy line {stroke: black; stroke-dasharray: 1px, 1px}.polytomy text {paint-order:stroke;stroke-width:0.3em;stroke:white}]]></style></defs><g class="tree-sequence"><g class="background"><path d="M20,0 l960,0 l0,338.2 l0,25 l0,5 l-960,0 l0,-5 l0,-25 l0,-338.2z"/></g><g class="axes"><g class="x-axis"><g class="title" transform="translate(500 400)"><text class="lab" text-anchor="middle" transform="translate(0 -11)">Genome position</text></g><line class="ax-line" x1="20" x2="980" y1="363.2" y2="363.2"/><g class="ticks"><g class="tick" transform="translate(20 363.2)"><line x1="0" x2="0" y1="0" y2="5"/><g transform="translate(0 6)"><text class="lab">0</text></g></g><g class="tick" transform="translate(980 363.2)"><line x1="0" x2="0" y1="0" y2="5"/><g transform="translate(0 6)"><text class="lab">1000</text></g></g></g><g class="site s0" transform="translate(169.76 363.2)"><line class="sym" x1="0" x2="0" y1="0" y2="-10"/><g class="mut m0"><polyline class="sym" points="2.5,-6.5 0,-1.5 -2.5,-6.5"/></g></g><g class="site s1" transform="translate(304.16 363.2)"><line class="sym" x1="0" x2="0" y1="0" y2="-10"/><g class="mut m1"><polyline class="sym" points="2.5,-6.5 0,-1.5 -2.5,-6.5"/></g></g></g></g><g class="plotbox trees"><g class="tree t0" transform="translate(20 0)"><g class="plotbox"><g class="c2 node n38 p0 root" transform="translate(655.016 26.8)"><g class="a38 c2 m1 node n36 p0 s1" transform="translate(-175.734 222.231)"><g class="a36 c2 m0 node n31 p2 s0" transform="translate(171.781 52.4515)"><g class="a31 c2 node n22 p2" transform="translate(58.9375 16.5176)"><g class="a22 i13 leaf node n13 p2 sample" transform="translate(-23 3.40024)"><path class="edge" d="M 0 0 V -3.40024 H 23"/><rect class="sym" height="6" width="6" x="-3" y="-3"/><text class="lab" transform="translate(0 11)">13</text></g><g class="a22 i15 leaf node n15 p2 sample" transform="translate(23 3.40024)"><path class="edge" d="M 0 0 V -3.40024 H -23"/><rect class="sym" height="6" width="6" x="-3" y="-3"/><text class="lab" transform="translate(0 11)">15</text></g><path class="edge" d="M 0 0 V -16.5176 H -58.9375"/><circle class="sym" cx="0" cy="0" r="3"/><text class="lab rgt" transform="translate(3 -7)">22</text></g><g class="a31 c2 node n28 p2" transform="translate(-58.9375 5.29379)"><g class="a28 i11 leaf node n11 p2 sample" transform="translate(48.875 14.624)"><path class="edge" d="M 0 0 V -14.624 H -48.875"/><rect class="sym" height="6" width="6" x="-3" y="-3"/><text class="lab" transform="translate(0 11)">11</text></g><g class="a28 c2 node n25 p2" transform="translate(-48.875 8.21646)"><g class="a25 i14 leaf node n14 p2 sample" transform="translate(51.75 6.40757)"><path class="edge" d="M 0 0 V -6.40757 H -51.75"/><rect class="sym" height="6" width="6" x="-3" y="-3"/><text class="lab" transform="translate(0 11)">14</text></g><g class="a25 c2 node n24 p2" transform="translate(-51.75 0.23444)"><g class="a24 i10 leaf node n10 p2 sample" transform="translate(-34.5 6.17313)"><path class="edge" d="M 0 0 V -6.17313 H 34.5"/><rect class="sym" height="6" width="6" x="-3" y="-3"/><text class="lab" transform="translate(0 11)">10</text></g><g class="a24 c2 node n20 p2" transform="translate(34.5 3.72504)"><g class="a20 i12 leaf node n12 p2 sample" transform="translate(-23 2.44809)"><path class="edge" d="M 0 0 V -2.44809 H 23"/><rect class="sym" height="6" width="6" x="-3" y="-3"/><text class="lab" transform="translate(0 11)">12</text></g><g class="a20 i16 leaf node n16 p2 sample" transform="translate(23 2.44809)"><path class="edge" d="M 0 0 V -2.44809 H -23"/><rect class="sym" height="6" width="6" x="-3" y="-3"/><text class="lab" transform="translate(0 11)">16</text></g><path class="edge" d="M 0 0 V -3.72504 H -34.5"/><circle class="sym" cx="0" cy="0" r="3"/><text class="lab rgt" transform="translate(3 -7)">20</text></g><path class="edge" d="M 0 0 V -0.23444 H 51.75"/><circle class="sym" cx="0" cy="0" r="3"/><text class="lab lft" transform="translate(-3 -7)">24</text></g><path class="edge" d="M 0 0 V -8.21646 H 48.875"/><circle class="sym" cx="0" cy="0" r="3"/><text class="lab lft" transform="translate(-3 -7)">25</text></g><path class="edge" d="M 0 0 V -5.29379 H 58.9375"/><circle class="sym" cx="0" cy="0" r="3"/><text class="lab lft" transform="translate(-3 -7)">28</text></g><path class="edge" d="M 0 0 V -52.4515 H -171.781"/><g class="mut m0 s0" transform="translate(0 -40.1093)"><line x1="0" x2="0" y1="0" y2="40.1093"/><path class="sym" d="M -3,-3 l 6,6 M -3,3 l 6,-6"/><text class="lab rgt" transform="translate(5 0)">0</text></g><circle class="sym" cx="0" cy="0" r="3"/><text class="lab rgt" transform="translate(3 -7)">31</text></g><g class="a36 c2 node n35 p1" transform="translate(-171.781 31.469)"><g class="a35 i6 leaf node n6 p1 sample" transform="translate(103.5 40.9003)"><path class="edge" d="M 0 0 V -40.9003 H -103.5"/><rect class="sym" height="6" width="6" x="-3" y="-3"/><text class="lab" transform="translate(0 11)">6</text></g><g class="a35 c2 node n33 p1" transform="translate(-103.5 10.4908)"><g class="a33 c2 node n30 p1" transform="translate(109.25 11.3608)"><g class="a30 i7 leaf node n7 p1 sample" transform="translate(51.75 19.0487)"><path class="edge" d="M 0 0 V -19.0487 H -51.75"/><rect class="sym" height="6" width="6" x="-3" y="-3"/><text class="lab" transform="translate(0 11)">7</text></g><g class="a30 c2 node n23 p1" transform="translate(-51.75 14.0574)"><g class="a23 i2 leaf node n2 p1 sample" transform="translate(-34.5 4.99126)"><path class="edge" d="M 0 0 V -4.99126 H 34.5"/><rect class="sym" height="6" width="6" x="-3" y="-3"/><text class="lab" transform="translate(0 11)">2</text></g><g class="a23 c2 node n21 p1" transform="translate(34.5 2.2427)"><g class="a21 i4 leaf node n4 p1 sample" transform="translate(-23 2.74856)"><path class="edge" d="M 0 0 V -2.74856 H 23"/><rect class="sym" height="6" width="6" x="-3" y="-3"/><text class="lab" transform="translate(0 11)">4</text></g><g class="a21 i9 leaf node n9 p1 sample" transform="translate(23 2.74856)"><path class="edge" d="M 0 0 V -2.74856 H -23"/><rect class="sym" height="6" width="6" x="-3" y="-3"/><text class="lab" transform="translate(0 11)">9</text></g><path class="edge" d="M 0 0 V -2.2427 H -34.5"/><circle class="sym" cx="0" cy="0" r="3"/><text class="lab rgt" transform="translate(3 -7)">21</text></g><path class="edge" d="M 0 0 V -14.0574 H 51.75"/><circle class="sym" cx="0" cy="0" r="3"/><text class="lab lft" transform="translate(-3 -7)">23</text></g><path class="edge" d="M 0 0 V -11.3608 H -109.25"/><circle class="sym" cx="0" cy="0" r="3"/><text class="lab rgt" transform="translate(3 -7)">30</text></g><g class="a33 c2 node n32 p1" transform="translate(-109.25 5.9713)"><g class="a32 i0 leaf node n0 p1 sample" transform="translate(-51.75 24.4382)"><path class="edge" d="M 0 0 V -24.4382 H 51.75"/><rect class="sym" height="6" width="6" x="-3" y="-3"/><text class="lab" transform="translate(0 11)">0</text></g><g class="a32 c2 node n29 p1" transform="translate(51.75 6.7)"><g class="a29 i3 leaf node n3 p1 sample" transform="translate(34.5 17.7382)"><path class="edge" d="M 0 0 V -17.7382 H -34.5"/><rect class="sym" height="6" width="6" x="-3" y="-3"/><text class="lab" transform="translate(0 11)">3</text></g><g class="a29 c2 node n26 p1" transform="translate(-34.5 10.3088)"><g class="a26 i1 leaf node n1 p1 sample" transform="translate(-23 7.42943)"><path class="edge" d="M 0 0 V -7.42943 H 23"/><rect class="sym" height="6" width="6" x="-3" y="-3"/><text class="lab" transform="translate(0 11)">1</text></g><g class="a26 i8 leaf node n8 p1 sample" transform="translate(23 7.42943)"><path class="edge" d="M 0 0 V -7.42943 H -23"/><rect class="sym" height="6" width="6" x="-3" y="-3"/><text class="lab" transform="translate(0 11)">8</text></g><path class="edge" d="M 0 0 V -10.3088 H 34.5"/><circle class="sym" cx="0" cy="0" r="3"/><text class="lab lft" transform="translate(-3 -7)">26</text></g><path class="edge" d="M 0 0 V -6.7 H -51.75"/><circle class="sym" cx="0" cy="0" r="3"/><text class="lab rgt" transform="translate(3 -7)">29</text></g><path class="edge" d="M 0 0 V -5.9713 H 109.25"/><circle class="sym" cx="0" cy="0" r="3"/><text class="lab lft" transform="translate(-3 -7)">32</text></g><path class="edge" d="M 0 0 V -10.4908 H 103.5"/><circle class="sym" cx="0" cy="0" r="3"/><text class="lab lft" transform="translate(-3 -7)">33</text></g><path class="edge" d="M 0 0 V -31.469 H 171.781"/><circle class="sym" cx="0" cy="0" r="3"/><text class="lab lft" transform="translate(-3 -7)">35</text></g><path class="edge" d="M 0 0 V -222.231 H 175.734"/><g class="mut m1 s1" transform="translate(0 -131.989)"><line x1="0" x2="0" y1="0" y2="131.989"/><path class="sym" d="M -3,-3 l 6,6 M -3,3 l 6,-6"/><text class="lab lft" transform="translate(-5 0)">1</text></g><circle class="sym" cx="0" cy="0" r="3"/><text class="lab lft" transform="translate(-3 -7)">36</text></g><g class="a38 c2 node n37 p0" transform="translate(175.734 212.999)"><g class="a37 i5 leaf node n5 p1 sample" transform="translate(-51.75 81.6012)"><path class="edge" d="M 0 0 V -81.6012 H 51.75"/><rect class="sym" height="6" width="6" x="-3" y="-3"/><text class="lab" transform="translate(0 11)">5</text></g><g class="a37 c2 node n34 p2" transform="translate(51.75 43.494)"><g class="a34 i18 leaf node n18 p2 sample" transform="translate(34.5 38.1072)"><path class="edge" d="M 0 0 V -38.1072 H -34.5"/><rect class="sym" height="6" width="6" x="-3" y="-3"/><text class="lab" transform="translate(0 11)">18</text></g><g class="a34 c2 node n27 p2" transform="translate(-34.5 30.6043)"><g class="a27 i17 leaf node n17 p2 sample" transform="translate(-23 7.5029)"><path class="edge" d="M 0 0 V -7.5029 H 23"/><rect class="sym" height="6" width="6" x="-3" y="-3"/><text class="lab" transform="translate(0 11)">17</text></g><g class="a27 i19 leaf node n19 p2 sample" transform="translate(23 7.5029)"><path class="edge" d="M 0 0 V -7.5029 H -23"/><rect class="sym" height="6" width="6" x="-3" y="-3"/><text class="lab" transform="translate(0 11)">19</text></g><path class="edge" d="M 0 0 V -30.6043 H 34.5"/><circle class="sym" cx="0" cy="0" r="3"/><text class="lab lft" transform="translate(-3 -7)">27</text></g><path class="edge" d="M 0 0 V -43.494 H -51.75"/><circle class="sym" cx="0" cy="0" r="3"/><text class="lab rgt" transform="translate(3 -7)">34</text></g><path class="edge" d="M 0 0 V -212.999 H -175.734"/><circle class="sym" cx="0" cy="0" r="3"/><text class="lab rgt" transform="translate(3 -7)">37</text></g><circle class="sym" cx="0" cy="0" r="3"/><text class="lab" transform="translate(0 -11)">38</text></g></g></g></g></g></svg>