<svg baseProfile="full" height="400" version="1.1" width="1000" xmlns="http://www.w3.org/2000/svg" xmlns:ev="http://www.w3.org/2001/xml-events" xmlns:xlink="http://www.w3.org/1999/xlink"><defs><style type="text/css"><![CDATA[.background path {fill: #808080; fill-opacity: 0}.background path:nth-child(odd) {fill-opacity: .1}.x-regions rect {fill: yellow; stroke: black; opacity: 0.5}.axes {font-size: 14px}.x-axis .tick .lab {font-weight: bold; dominant-baseline: hanging}.axes, .tree {font-size: 14px; text-anchor: middle}.axes line, .edge {stroke: black; fill: none}.axes .ax-skip {stroke-dasharray: 4}.y-axis .grid {stroke: #FAFAFA}.node > .sym {fill: black; stroke: none}.site > .sym {stroke: black}.mut text {fill: red; font-style: italic}.mut.extra text {fill: hotpink}.mut line {fill: none; stroke: none}.mut .sym {fill: none; stroke: red}.mut.extra .sym {stroke: hotpink}.node .mut .sym {stroke-width: 1.5px}.tree text, .tree-sequence text {dominant-baseline: central}.plotbox .lab.lft {text-anchor: end}.plotbox .lab.rgt {text-anchor: start}.polytomy line {stroke: black; stroke-dasharray: 1px, 1px}.polytomy text {paint-order:stroke;stroke-width:0.3em;stroke:white}]]></style></defs><g class="tree-sequence"><g class="background"><path d="M20,0 l960,0 l0,338.2 l0,25 l0,5 l-960,0 l0,-5 l0,-25 l0,-338.2z"/></g><g class="axes"><g class="x-axis"><g class="title" transform="translate(500 400)"><text class="lab" text-anchor="middle" transform="translate(0 -11)">Genome position</text></g><line class="ax-line" x1="20" x2="980" y1="363.2" y2="363.2"/><g class="ticks"><g class="tick" transform="translate(20 363.2)"><line x1="0" x2="0" y1="0" y2="5"/><g transform="translate(0 6)"><text class="lab">0</text></g></g><g class="tick" transform="translate(980 363.2)"><line x1="0" x2="0" y1="0" y2="5"/><g transform="translate(0 6)"><text class="lab">1000</text></g></g></g><g class="site s0" transform="translate(93.92 363.2)"><line class="sym" x1="0" x2="0" y1="0" y2="-10"/><g class="mut m0"><polyline class="sym" points="2.5,-6.5 0,-1.5 -2.5,-6.5"/></g></g><g class="site s1" transform="translate(247.52 363.2)"><line class="sym" x1="0" x2="0" y1="0" y2="-10"/><g class="mut m1"><polyline class="sym" points="2.5,-6.5 0,-1.5 -2.5,-6.5"/></g></g><g class="site s2" transform="translate(289.76 363.2)"><line class="sym" x1="0" x2="0" y1="0" y2="-10"/><g class="mut m2"><polyline class="sym" points="2.5,-6.5 0,-1.5 -2.5,-6.5"/></g></g><g class="site s3" transform="translate(337.76 363.2)"><line class="sym" x1="0" x2="0" y1="0" y2="-10"/><g class="mut m3"><polyline class="sym" points="2.5,-6.5 0,-1.5 -2.5,-6.5"/></g></g><g class="site s4" transform="translate(371.36 363.2)"><line class="sym" x1="0" x2="0" y1="0" y2="-10"/><g class="mut m4"><polyline class="sym" points="2.5,-6.5 0,-1.5 -2.5,-6.5"/></g></g><g class="site s5" transform="translate(976.16 363.2)"><line class="sym" x1="0" x2="0" y1="0" y2="-10"/><g class="mut m5"><polyline class="sym" points="2.5,-6.5 0,-1.5 -2.5,-6.5"/></g></g></g></g><g class="plotbox trees"><g class="tree t0" transform="translate(20 0)"><g class="plotbox"><g class="c2 node n38 p2 root" transform="translate(679.633 26.8)"><g class="a38 c2 m0 node n29 p1 s0" transform="translate(202.867 276.879)"><g class="a29 i12 leaf m1 m2 node n12 p2 s1 s2 sample" transform="translate(34.5 17.7211)"><path class="edge" d="M 0 0 V -17.7211 H -34.5"/><g class="mut m1 s1" transform="translate(0 -15.5924)"><line x1="0" x2="0" y1="0" y2="15.5924"/><path class="sym" d="M -3,-3 l 6,6 M -3,3 l 6,-6"/><text class="lab rgt" transform="translate(5 0)">1</text></g><g class="mut m2 s2" transform="translate(0 -5.1234)"><line x1="0" x2="0" y1="0" y2="5.1234"/><path class="sym" d="M -3,-3 l 6,6 M -3,3 l 6,-6"/><text class="lab rgt" transform="translate(5 0)">2</text></g><rect class="sym" height="6" width="6" x="-3" y="-3"/><text class="lab" transform="translate(0 11)">12</text></g><g class="a29 c2 node n22 p2" transform="translate(-34.5 14.4571)"><g class="a22 i2 leaf node n2 p1 sample" transform="translate(-23 3.26405)"><path class="edge" d="M 0 0 V -3.26405 H 23"/><rect class="sym" height="6" width="6" x="-3" y="-3"/><text class="lab" transform="translate(0 11)">2</text></g><g class="a22 i7 leaf node n7 p1 sample" transform="translate(23 3.26405)"><path class="edge" d="M 0 0 V -3.26405 H -23"/><rect class="sym" height="6" width="6" x="-3" y="-3"/><text class="lab" transform="translate(0 11)">7</text></g><path class="edge" d="M 0 0 V -14.4571 H 34.5"/><circle class="sym" cx="0" cy="0" r="3"/><text class="lab lft" transform="translate(-3 -7)">22</text></g><path class="edge" d="M 0 0 V -276.879 H -202.867"/><g class="mut m0 s0" transform="translate(0 -185.845)"><line x1="0" x2="0" y1="0" y2="185.845"/><path class="sym" d="M -3,-3 l 6,6 M -3,3 l 6,-6"/><text class="lab rgt" transform="translate(5 0)">0</text></g><circle class="sym" cx="0" cy="0" r="3"/><text class="lab rgt" transform="translate(3 -7)">29</text></g><g class="a38 c2 m4 node n37 p2 s4" transform="translate(-202.867 215.392)"><g class="a37 c2 node n34 p2" transform="translate(172.859 32.0086)"><g class="a34 c2 node n32 p1" transform="translate(77.625 18.6245)"><g class="a32 i19 leaf node n19 p2 sample" transform="translate(51.75 28.5752)"><path class="edge" d="M 0 0 V -28.5752 H -51.75"/><rect class="sym" height="6" width="6" x="-3" y="-3"/><text class="lab" transform="translate(0 11)">19</text></g><g class="a32 c2 node n27 p1" transform="translate(-51.75 16.2391)"><g class="a27 i10 leaf node n10 p2 sample" transform="translate(-34.5 12.3362)"><path class="edge" d="M 0 0 V -12.3362 H 34.5"/><rect class="sym" height="6" width="6" x="-3" y="-3"/><text class="lab" transform="translate(0 11)">10</text></g><g class="a27 c2 node n26 p2" transform="translate(34.5 2.99546)"><g class="a26 i13 leaf node n13 p2 sample" transform="translate(-23 9.3407)"><path class="edge" d="M 0 0 V -9.3407 H 23"/><rect class="sym" height="6" width="6" x="-3" y="-3"/><text class="lab" transform="translate(0 11)">13</text></g><g class="a26 i16 leaf node n16 p2 sample" transform="translate(23 9.3407)"><path class="edge" d="M 0 0 V -9.3407 H -23"/><rect class="sym" height="6" width="6" x="-3" y="-3"/><text class="lab" transform="translate(0 11)">16</text></g><path class="edge" d="M 0 0 V -2.99546 H -34.5"/><circle class="sym" cx="0" cy="0" r="3"/><text class="lab rgt" transform="translate(3 -7)">26</text></g><path class="edge" d="M 0 0 V -16.2391 H 51.75"/><circle class="sym" cx="0" cy="0" r="3"/><text class="lab lft" transform="translate(-3 -7)">27</text></g><path class="edge" d="M 0 0 V -18.6245 H -77.625"/><circle class="sym" cx="0" cy="0" r="3"/><text class="lab rgt" transform="translate(3 -7)">32</text></g><g class="a34 c2 node n33 p2" transform="translate(-77.625 3.67358)"><g class="a33 i1 leaf m3 node n1 p1 s3 sample" transform="translate(-23 43.5262)"><path class="edge" d="M 0 0 V -43.5262 H 23"/><g class="mut m3 s3" transform="translate(0 -39.4993)"><line x1="0" x2="0" y1="0" y2="39.4993"/><path class="sym" d="M -3,-3 l 6,6 M -3,3 l 6,-6"/><text class="lab lft" transform="translate(-5 0)">3</text></g><rect class="sym" height="6" width="6" x="-3" y="-3"/><text class="lab" transform="translate(0 11)">1</text></g><g class="a33 i6 leaf node n6 p1 sample" transform="translate(23 43.5262)"><path class="edge" d="M 0 0 V -43.5262 H -23"/><rect class="sym" height="6" width="6" x="-3" y="-3"/><text class="lab" transform="translate(0 11)">6</text></g><path class="edge" d="M 0 0 V -3.67358 H 77.625"/><circle class="sym" cx="0" cy="0" r="3"/><text class="lab lft" transform="translate(-3 -7)">33</text></g><path class="edge" d="M 0 0 V -32.0086 H -172.859"/><circle class="sym" cx="0" cy="0" r="3"/><text class="lab rgt" transform="translate(3 -7)">34</text></g><g class="a37 c2 node n36 p1" transform="translate(-172.859 8.26203)"><g class="a36 c2 m5 node n31 p2 s5" transform="translate(-141.594 51.6557)"><g class="a31 c2 node n25 p2" transform="translate(-84.8125 11.6487)"><g class="a25 i0 leaf node n0 p1 sample" transform="translate(-34.5 7.642)"><path class="edge" d="M 0 0 V -7.642 H 34.5"/><rect class="sym" height="6" width="6" x="-3" y="-3"/><text class="lab" transform="translate(0 11)">0</text></g><g class="a25 c2 node n20 p2" transform="translate(34.5 6.7363)"><g class="a20 i9 leaf node n9 p1 sample" transform="translate(-23 0.905706)"><path class="edge" d="M 0 0 V -0.905706 H 23"/><rect class="sym" height="6" width="6" x="-3" y="-3"/><text class="lab" transform="translate(0 11)">9</text></g><g class="a20 i17 leaf node n17 p2 sample" transform="translate(23 0.905706)"><path class="edge" d="M 0 0 V -0.905706 H -23"/><rect class="sym" height="6" width="6" x="-3" y="-3"/><text class="lab" transform="translate(0 11)">17</text></g><path class="edge" d="M 0 0 V -6.7363 H -34.5"/><circle class="sym" cx="0" cy="0" r="3"/><text class="lab rgt" transform="translate(3 -7)">20</text></g><path class="edge" d="M 0 0 V -11.6487 H 84.8125"/><circle class="sym" cx="0" cy="0" r="3"/><text class="lab lft" transform="translate(-3 -7)">25</text></g><g class="a31 c2 node n30 p2" transform="translate(84.8125 0.419917)"><g class="a30 i3 leaf node n3 p1 sample" transform="translate(-66.125 18.8708)"><path class="edge" d="M 0 0 V -18.8708 H 66.125"/><rect class="sym" height="6" width="6" x="-3" y="-3"/><text class="lab" transform="translate(0 11)">3</text></g><g class="a30 c2 node n28 p1" transform="translate(66.125 4.00608)"><g class="a28 i5 leaf node n5 p1 sample" transform="translate(51.75 14.8647)"><path class="edge" d="M 0 0 V -14.8647 H -51.75"/><rect class="sym" height="6" width="6" x="-3" y="-3"/><text class="lab" transform="translate(0 11)">5</text></g><g class="a28 c2 node n23 p2" transform="translate(-51.75 10.6508)"><g class="a23 i4 leaf node n4 p1 sample" transform="translate(-34.5 4.21385)"><path class="edge" d="M 0 0 V -4.21385 H 34.5"/><rect class="sym" height="6" width="6" x="-3" y="-3"/><text class="lab" transform="translate(0 11)">4</text></g><g class="a23 c2 node n21 p1" transform="translate(34.5 1.0126)"><g class="a21 i14 leaf node n14 p2 sample" transform="translate(-23 3.20125)"><path class="edge" d="M 0 0 V -3.20125 H 23"/><rect class="sym" height="6" width="6" x="-3" y="-3"/><text class="lab" transform="translate(0 11)">14</text></g><g class="a21 i15 leaf node n15 p2 sample" transform="translate(23 3.20125)"><path class="edge" d="M 0 0 V -3.20125 H -23"/><rect class="sym" height="6" width="6" x="-3" y="-3"/><text class="lab" transform="translate(0 11)">15</text></g><path class="edge" d="M 0 0 V -1.0126 H -34.5"/><circle class="sym" cx="0" cy="0" r="3"/><text class="lab rgt" transform="translate(3 -7)">21</text></g><path class="edge" d="M 0 0 V -10.6508 H 51.75"/><circle class="sym" cx="0" cy="0" r="3"/><text class="lab lft" transform="translate(-3 -7)">23</text></g><path class="edge" d="M 0 0 V -4.00608 H -66.125"/><circle class="sym" cx="0" cy="0" r="3"/><text class="lab rgt" transform="translate(3 -7)">28</text></g><path class="edge" d="M 0 0 V -0.419917 H -84.8125"/><circle class="sym" cx="0" cy="0" r="3"/><text class="lab rgt" transform="translate(3 -7)">30</text></g><path class="edge" d="M 0 0 V -51.6557 H 141.594"/><g class="mut m5 s5" transform="translate(0 -24.7023)"><line x1="0" x2="0" y1="0" y2="24.7023"/><path class="sym" d="M -3,-3 l 6,6 M -3,3 l 6,-6"/><text class="lab lft" transform="translate(-5 0)">5</text></g><circle class="sym" cx="0" cy="0" r="3"/><text class="lab lft" transform="translate(-3 -7)">31</text></g><g class="a36 c2 node n35 p2" transform="translate(141.594 16.8226)"><g class="a35 i8 leaf node n8 p1 sample" transform="translate(-34.5 54.1238)"><path class="edge" d="M 0 0 V -54.1238 H 34.5"/><rect class="sym" height="6" width="6" x="-3" y="-3"/><text class="lab" transform="translate(0 11)">8</text></g><g class="a35 c2 node n24 p1" transform="translate(34.5 49.6282)"><g class="a24 i11 leaf node n11 p2 sample" transform="translate(-23 4.49558)"><path class="edge" d="M 0 0 V -4.49558 H 23"/><rect class="sym" height="6" width="6" x="-3" y="-3"/><text class="lab" transform="translate(0 11)">11</text></g><g class="a24 i18 leaf node n18 p2 sample" transform="translate(23 4.49558)"><path class="edge" d="M 0 0 V -4.49558 H -23"/><rect class="sym" height="6" width="6" x="-3" y="-3"/><text class="lab" transform="translate(0 11)">18</text></g><path class="edge" d="M 0 0 V -49.6282 H -34.5"/><circle class="sym" cx="0" cy="0" r="3"/><text class="lab rgt" transform="translate(3 -7)">24</text></g><path class="edge" d="M 0 0 V -16.8226 H -141.594"/><circle class="sym" cx="0" cy="0" r="3"/><text class="lab rgt" transform="translate(3 -7)">35</text></g><path class="edge" d="M 0 0 V -8.26203 H 172.859"/><circle class="sym" cx="0" cy="0" r="3"/><text class="lab lft" transform="translate(-3 -7)">36</text></g><path class="edge" d="M 0 0 V -215.392 H 202.867"/><g class="mut m4 s4" transform="translate(0 -31.0351)"><line x1="0" x2="0" y1="0" y2="31.0351"/><path class="sym" d="M -3,-3 l 6,6 M -3,3 l 6,-6"/><text class="lab lft" transform="translate(-5 0)">4</text></g><circle class="sym" cx="0" cy="0" r="3"/><text class="lab lft" transform="translate(-3 -7)">37</text></g><circle class="sym" cx="0" cy="0" r="3"/><text class="lab" transform="translate(0 -11)">38</text></g></g></g></g></g></svg>